G75*
%MOIN*%
%OFA0B0*%
%FSLAX25Y25*%
%IPPOS*%
%LPD*%
%AMOC8*
5,1,8,0,0,1.08239X$1,22.5*
%
%ADD10R,0.04724X0.03150*%
%ADD11R,0.05118X0.05906*%
%ADD12R,0.21654X0.07283*%
%ADD13R,0.04331X0.03937*%
%ADD14R,0.04331X0.04331*%
%ADD15C,0.06000*%
%ADD16R,0.10630X0.31496*%
%ADD17R,0.03937X0.04331*%
%ADD18R,0.19200X0.25400*%
%ADD19R,0.09600X0.22000*%
%ADD20R,0.09600X0.03500*%
%ADD21R,0.78000X0.52000*%
%ADD22R,0.14000X0.02800*%
%ADD23R,0.07480X0.04331*%
%ADD24R,0.02400X0.08700*%
%ADD25C,0.01181*%
%ADD26R,0.07000X0.07000*%
%ADD27C,0.07000*%
%ADD28R,0.07400X0.07400*%
%ADD29C,0.07400*%
%ADD30C,0.03600*%
%ADD31C,0.02400*%
%ADD32C,0.00800*%
%ADD33C,0.02900*%
%ADD34C,0.01200*%
%ADD35C,0.01600*%
D10*
X0192351Y0150071D03*
X0192351Y0157158D03*
D11*
X0124447Y0119240D03*
X0117754Y0119240D03*
D12*
X0112351Y0051779D03*
X0136726Y0051779D03*
X0136726Y0031700D03*
X0112351Y0031700D03*
D13*
X0086010Y0097052D03*
X0079317Y0097052D03*
X0079317Y0110802D03*
X0086010Y0110802D03*
X0103379Y0117990D03*
X0110072Y0117990D03*
X0096947Y0129240D03*
X0090254Y0129240D03*
X0083822Y0139240D03*
X0077129Y0139240D03*
X0070697Y0135177D03*
X0064004Y0135177D03*
X0144629Y0172990D03*
X0151322Y0172990D03*
X0151322Y0181115D03*
X0144629Y0181115D03*
X0214226Y0136961D03*
X0214226Y0130268D03*
D14*
X0186278Y0157365D03*
X0170924Y0157365D03*
D15*
X0119726Y0154865D02*
X0113726Y0154865D01*
X0102851Y0154865D02*
X0096851Y0154865D01*
X0087226Y0154865D02*
X0081226Y0154865D01*
X0081226Y0164865D02*
X0087226Y0164865D01*
X0096851Y0164865D02*
X0102851Y0164865D01*
X0113726Y0164865D02*
X0119726Y0164865D01*
X0119726Y0174865D02*
X0113726Y0174865D01*
X0102851Y0174865D02*
X0096851Y0174865D01*
X0087226Y0174865D02*
X0081226Y0174865D01*
X0071601Y0074865D02*
X0065601Y0074865D01*
X0065601Y0064865D02*
X0071601Y0064865D01*
X0071601Y0054865D02*
X0065601Y0054865D01*
X0065601Y0044865D02*
X0071601Y0044865D01*
X0071601Y0034865D02*
X0065601Y0034865D01*
X0065601Y0024865D02*
X0071601Y0024865D01*
D16*
X0171293Y0178615D03*
X0192159Y0178615D03*
D17*
X0159447Y0158615D03*
X0152754Y0158615D03*
X0156504Y0147990D03*
X0163197Y0147990D03*
X0189629Y0141740D03*
X0196322Y0141740D03*
X0195697Y0125490D03*
X0189004Y0125490D03*
X0193379Y0109240D03*
X0200072Y0109240D03*
X0200697Y0091740D03*
X0194004Y0091740D03*
X0123197Y0132990D03*
X0116504Y0132990D03*
X0065385Y0104865D03*
X0058692Y0104865D03*
X0058692Y0096427D03*
X0065385Y0096427D03*
X0065385Y0087677D03*
X0058692Y0087677D03*
X0079004Y0072990D03*
X0085697Y0072990D03*
X0085476Y0082456D03*
X0099851Y0080893D03*
X0099851Y0087586D03*
X0107976Y0087586D03*
X0107976Y0080893D03*
X0085476Y0089149D03*
X0083510Y0185177D03*
X0076817Y0185177D03*
X0070385Y0185177D03*
X0063692Y0185177D03*
X0142754Y0191115D03*
X0149447Y0191115D03*
D18*
X0251726Y0113615D03*
X0249851Y0051115D03*
D19*
X0233551Y0061365D03*
X0201151Y0061365D03*
X0187301Y0061365D03*
X0154901Y0061365D03*
D20*
X0154901Y0077615D03*
X0187301Y0077615D03*
X0201151Y0077615D03*
X0233551Y0077615D03*
D21*
X0333601Y0049240D03*
X0333601Y0114865D03*
X0333601Y0177990D03*
D22*
X0274051Y0182990D03*
X0274051Y0187990D03*
X0274051Y0192990D03*
X0274051Y0172990D03*
X0274051Y0167990D03*
X0274051Y0162990D03*
X0274051Y0129865D03*
X0274051Y0124865D03*
X0274051Y0119865D03*
X0274051Y0109865D03*
X0274051Y0104865D03*
X0274051Y0099865D03*
X0274051Y0064240D03*
X0274051Y0059240D03*
X0274051Y0054240D03*
X0274051Y0044240D03*
X0274051Y0039240D03*
X0274051Y0034240D03*
D23*
X0074947Y0118462D03*
X0060380Y0118462D03*
X0060380Y0127517D03*
X0074947Y0127517D03*
D24*
X0074226Y0148940D03*
X0069226Y0148940D03*
X0064226Y0148940D03*
X0059226Y0148940D03*
X0059226Y0169540D03*
X0064226Y0169540D03*
X0069226Y0169540D03*
X0074226Y0169540D03*
D25*
X0068488Y0114368D02*
X0068488Y0111612D01*
X0068488Y0114368D02*
X0071244Y0114368D01*
X0071244Y0111612D01*
X0068488Y0111612D01*
X0068488Y0112792D02*
X0071244Y0112792D01*
X0071244Y0113972D02*
X0068488Y0113972D01*
X0061582Y0114368D02*
X0061582Y0111612D01*
X0061582Y0114368D02*
X0064338Y0114368D01*
X0064338Y0111612D01*
X0061582Y0111612D01*
X0061582Y0112792D02*
X0064338Y0112792D01*
X0064338Y0113972D02*
X0061582Y0113972D01*
X0069723Y0105689D02*
X0072479Y0105689D01*
X0069723Y0105689D02*
X0069723Y0108445D01*
X0072479Y0108445D01*
X0072479Y0105689D01*
X0072479Y0106869D02*
X0069723Y0106869D01*
X0069723Y0108049D02*
X0072479Y0108049D01*
X0072479Y0098784D02*
X0069723Y0098784D01*
X0069723Y0101540D01*
X0072479Y0101540D01*
X0072479Y0098784D01*
X0072479Y0099964D02*
X0069723Y0099964D01*
X0069723Y0101144D02*
X0072479Y0101144D01*
X0072166Y0091939D02*
X0069410Y0091939D01*
X0069410Y0094695D01*
X0072166Y0094695D01*
X0072166Y0091939D01*
X0072166Y0093119D02*
X0069410Y0093119D01*
X0069410Y0094299D02*
X0072166Y0094299D01*
X0075348Y0086002D02*
X0078104Y0086002D01*
X0075348Y0086002D02*
X0075348Y0088758D01*
X0078104Y0088758D01*
X0078104Y0086002D01*
X0078104Y0087182D02*
X0075348Y0087182D01*
X0075348Y0088362D02*
X0078104Y0088362D01*
X0072166Y0085034D02*
X0069410Y0085034D01*
X0069410Y0087790D01*
X0072166Y0087790D01*
X0072166Y0085034D01*
X0072166Y0086214D02*
X0069410Y0086214D01*
X0069410Y0087394D02*
X0072166Y0087394D01*
X0075348Y0079096D02*
X0078104Y0079096D01*
X0075348Y0079096D02*
X0075348Y0081852D01*
X0078104Y0081852D01*
X0078104Y0079096D01*
X0078104Y0080276D02*
X0075348Y0080276D01*
X0075348Y0081456D02*
X0078104Y0081456D01*
D26*
X0204351Y0043927D03*
D27*
X0196320Y0043927D03*
X0188288Y0043927D03*
X0184272Y0033927D03*
X0192304Y0033927D03*
X0200335Y0033927D03*
D28*
X0082976Y0025490D03*
D29*
X0082976Y0035490D03*
X0082976Y0045490D03*
X0082976Y0055490D03*
D30*
X0082976Y0064865D03*
X0087351Y0064865D03*
X0058288Y0112677D03*
X0087663Y0117677D03*
X0097976Y0117677D03*
X0203601Y0123615D03*
X0213913Y0110177D03*
X0231101Y0091740D03*
X0302976Y0084865D03*
X0225476Y0043615D03*
X0248601Y0144240D03*
X0273601Y0144240D03*
X0347976Y0144240D03*
D31*
X0273601Y0144240D01*
X0264226Y0139865D02*
X0257976Y0133615D01*
X0219226Y0133615D01*
X0215879Y0130268D01*
X0214226Y0130268D02*
X0210254Y0130268D01*
X0203601Y0123615D01*
X0195697Y0125490D02*
X0211010Y0110177D01*
X0213913Y0110177D01*
X0230163Y0110177D01*
X0241726Y0098615D01*
X0272801Y0098615D01*
X0274051Y0099865D01*
X0246726Y0084865D02*
X0226726Y0104865D01*
X0204447Y0104865D01*
X0200072Y0109240D01*
X0200697Y0091740D02*
X0231101Y0091740D01*
X0246726Y0084865D02*
X0302976Y0084865D01*
X0238601Y0030490D02*
X0225476Y0043615D01*
X0238601Y0030490D02*
X0270301Y0030490D01*
X0274051Y0034240D01*
X0264226Y0139865D02*
X0264226Y0160490D01*
X0266726Y0162990D01*
X0274051Y0162990D01*
X0248601Y0144240D02*
X0198822Y0144240D01*
X0196322Y0141740D01*
X0060380Y0118462D02*
X0060227Y0118615D01*
X0058601Y0118615D01*
X0058288Y0118302D01*
X0058288Y0112677D01*
X0058288Y0105268D01*
X0058692Y0104865D01*
D32*
X0050476Y0020177D02*
X0052663Y0017990D01*
X0151726Y0017990D01*
X0177663Y0043927D01*
X0188288Y0043927D01*
X0185156Y0040695D02*
X0176411Y0040695D01*
X0177209Y0041494D02*
X0184425Y0041494D01*
X0184473Y0041378D02*
X0185739Y0040112D01*
X0187393Y0039427D01*
X0189183Y0039427D01*
X0190837Y0040112D01*
X0192103Y0041378D01*
X0192304Y0041863D01*
X0192505Y0041378D01*
X0193771Y0040112D01*
X0195425Y0039427D01*
X0197215Y0039427D01*
X0198869Y0040112D01*
X0199851Y0041095D01*
X0199851Y0040013D01*
X0200437Y0039427D01*
X0208265Y0039427D01*
X0208851Y0040013D01*
X0208851Y0047841D01*
X0208265Y0048427D01*
X0200437Y0048427D01*
X0199851Y0047841D01*
X0199851Y0046760D01*
X0198869Y0047742D01*
X0197215Y0048427D01*
X0195425Y0048427D01*
X0193771Y0047742D01*
X0192505Y0046476D01*
X0192304Y0045991D01*
X0192103Y0046476D01*
X0190837Y0047742D01*
X0189183Y0048427D01*
X0187393Y0048427D01*
X0185739Y0047742D01*
X0184473Y0046476D01*
X0183997Y0045327D01*
X0179715Y0045327D01*
X0180053Y0045664D01*
X0180426Y0046565D01*
X0180426Y0047539D01*
X0180053Y0048440D01*
X0179363Y0049129D01*
X0178463Y0049502D01*
X0177488Y0049502D01*
X0176588Y0049129D01*
X0175899Y0048440D01*
X0175526Y0047539D01*
X0175526Y0046582D01*
X0149896Y0020952D01*
X0087252Y0020952D01*
X0087676Y0021375D01*
X0087676Y0028210D01*
X0106603Y0047137D01*
X0123592Y0047137D01*
X0124177Y0047723D01*
X0124177Y0050179D01*
X0124899Y0050179D01*
X0124899Y0047723D01*
X0125485Y0047137D01*
X0139388Y0047137D01*
X0139935Y0046590D01*
X0148411Y0046590D01*
X0149088Y0045913D01*
X0149988Y0045540D01*
X0150963Y0045540D01*
X0151863Y0045913D01*
X0152553Y0046602D01*
X0152926Y0047502D01*
X0152926Y0048477D01*
X0152558Y0049365D01*
X0160115Y0049365D01*
X0160701Y0049950D01*
X0160701Y0072779D01*
X0160115Y0073365D01*
X0149686Y0073365D01*
X0149101Y0072779D01*
X0149101Y0069145D01*
X0148751Y0069495D01*
X0148751Y0087410D01*
X0153868Y0092527D01*
X0158723Y0092527D01*
X0159400Y0091850D01*
X0160301Y0091477D01*
X0161276Y0091477D01*
X0162176Y0091850D01*
X0162865Y0092539D01*
X0163238Y0093440D01*
X0163238Y0093864D01*
X0163399Y0093477D01*
X0164088Y0092788D01*
X0164988Y0092415D01*
X0165963Y0092415D01*
X0166863Y0092788D01*
X0167553Y0093477D01*
X0167926Y0094377D01*
X0167926Y0095352D01*
X0167553Y0096252D01*
X0166876Y0096929D01*
X0166876Y0130925D01*
X0167553Y0131602D01*
X0167926Y0132502D01*
X0167926Y0133477D01*
X0167553Y0134377D01*
X0166863Y0135067D01*
X0165963Y0135440D01*
X0164988Y0135440D01*
X0164088Y0135067D01*
X0163399Y0134377D01*
X0163026Y0133477D01*
X0163026Y0132502D01*
X0163399Y0131602D01*
X0164076Y0130925D01*
X0164076Y0096929D01*
X0163399Y0096252D01*
X0163026Y0095352D01*
X0163026Y0094927D01*
X0162865Y0095315D01*
X0162176Y0096004D01*
X0161578Y0096252D01*
X0161615Y0096289D01*
X0161988Y0097190D01*
X0161988Y0098164D01*
X0161707Y0098843D01*
X0162176Y0099038D01*
X0162865Y0099727D01*
X0163238Y0100627D01*
X0163238Y0101602D01*
X0162865Y0102502D01*
X0162176Y0103192D01*
X0161276Y0103565D01*
X0160301Y0103565D01*
X0159400Y0103192D01*
X0158723Y0102515D01*
X0149583Y0102515D01*
X0148763Y0101695D01*
X0130682Y0083613D01*
X0130365Y0084377D01*
X0129688Y0085054D01*
X0129688Y0108347D01*
X0151056Y0129715D01*
X0158411Y0129715D01*
X0159088Y0129038D01*
X0159988Y0128665D01*
X0160963Y0128665D01*
X0161863Y0129038D01*
X0162553Y0129727D01*
X0162926Y0130627D01*
X0162926Y0131602D01*
X0162553Y0132502D01*
X0161863Y0133192D01*
X0160963Y0133565D01*
X0159988Y0133565D01*
X0159088Y0133192D01*
X0158411Y0132515D01*
X0149896Y0132515D01*
X0149076Y0131695D01*
X0127708Y0110327D01*
X0126888Y0109507D01*
X0126888Y0085054D01*
X0126211Y0084377D01*
X0125838Y0083477D01*
X0125838Y0082502D01*
X0126211Y0081602D01*
X0126900Y0080913D01*
X0127665Y0080596D01*
X0116258Y0069190D01*
X0115301Y0069190D01*
X0114400Y0068817D01*
X0113711Y0068127D01*
X0113338Y0067227D01*
X0113338Y0066252D01*
X0113711Y0065352D01*
X0114400Y0064663D01*
X0115301Y0064290D01*
X0116276Y0064290D01*
X0117176Y0064663D01*
X0117865Y0065352D01*
X0118238Y0066252D01*
X0118238Y0067210D01*
X0150743Y0099715D01*
X0158111Y0099715D01*
X0157473Y0099077D01*
X0152083Y0099077D01*
X0151263Y0098257D01*
X0114388Y0061382D01*
X0114388Y0060054D01*
X0113711Y0059377D01*
X0113338Y0058477D01*
X0113338Y0057502D01*
X0113711Y0056602D01*
X0113892Y0056421D01*
X0101110Y0056421D01*
X0100524Y0055835D01*
X0100524Y0047723D01*
X0101110Y0047137D01*
X0102643Y0047137D01*
X0085696Y0030190D01*
X0080476Y0030190D01*
X0080476Y0031040D01*
X0081018Y0030763D01*
X0081781Y0030515D01*
X0082574Y0030390D01*
X0082576Y0030390D01*
X0082576Y0035090D01*
X0083376Y0035090D01*
X0083376Y0035890D01*
X0082576Y0035890D01*
X0082576Y0040590D01*
X0082574Y0040590D01*
X0081781Y0040464D01*
X0081018Y0040216D01*
X0080476Y0039940D01*
X0080476Y0041438D01*
X0082041Y0040790D01*
X0083911Y0040790D01*
X0085638Y0041505D01*
X0086960Y0042827D01*
X0087676Y0044555D01*
X0087676Y0046425D01*
X0087244Y0047466D01*
X0117618Y0077840D01*
X0118438Y0078660D01*
X0118438Y0094195D01*
X0104801Y0107832D01*
X0104801Y0108789D01*
X0104428Y0109690D01*
X0103738Y0110379D01*
X0102838Y0110752D01*
X0101863Y0110752D01*
X0100963Y0110379D01*
X0100274Y0109690D01*
X0099901Y0108789D01*
X0099901Y0108670D01*
X0099376Y0109195D01*
X0099376Y0109362D01*
X0100053Y0110039D01*
X0100426Y0110940D01*
X0100426Y0111914D01*
X0100053Y0112815D01*
X0099363Y0113504D01*
X0098463Y0113877D01*
X0097488Y0113877D01*
X0096588Y0113504D01*
X0095899Y0112815D01*
X0095526Y0111914D01*
X0095526Y0110940D01*
X0095899Y0110039D01*
X0096576Y0109362D01*
X0096576Y0108035D01*
X0097396Y0107215D01*
X0100833Y0103777D01*
X0102708Y0103777D01*
X0113451Y0093035D01*
X0113451Y0080132D01*
X0094801Y0061482D01*
X0094801Y0061585D01*
X0095001Y0061785D01*
X0095001Y0126271D01*
X0096542Y0126271D01*
X0095899Y0125627D01*
X0095526Y0124727D01*
X0095526Y0123752D01*
X0095899Y0122852D01*
X0096588Y0122163D01*
X0097488Y0121790D01*
X0098463Y0121790D01*
X0099363Y0122163D01*
X0100053Y0122852D01*
X0100163Y0123119D01*
X0100274Y0122852D01*
X0100951Y0122175D01*
X0100951Y0120958D01*
X0100800Y0120958D01*
X0100214Y0120372D01*
X0100214Y0115607D01*
X0100800Y0115021D01*
X0105959Y0115021D01*
X0106545Y0115607D01*
X0106545Y0115696D01*
X0106602Y0115481D01*
X0106787Y0115162D01*
X0107047Y0114901D01*
X0107366Y0114717D01*
X0107722Y0114621D01*
X0109672Y0114621D01*
X0109672Y0117590D01*
X0110472Y0117590D01*
X0110472Y0118390D01*
X0109672Y0118390D01*
X0109672Y0121358D01*
X0107722Y0121358D01*
X0107366Y0121263D01*
X0107047Y0121078D01*
X0106787Y0120818D01*
X0106602Y0120499D01*
X0106545Y0120283D01*
X0106545Y0120372D01*
X0105959Y0120958D01*
X0103751Y0120958D01*
X0103751Y0122175D01*
X0104428Y0122852D01*
X0104801Y0123752D01*
X0104801Y0124727D01*
X0104428Y0125627D01*
X0103738Y0126317D01*
X0102838Y0126690D01*
X0101863Y0126690D01*
X0100963Y0126317D01*
X0100274Y0125627D01*
X0100163Y0125361D01*
X0100053Y0125627D01*
X0099409Y0126271D01*
X0099527Y0126271D01*
X0100112Y0126857D01*
X0100112Y0131622D01*
X0099527Y0132208D01*
X0095001Y0132208D01*
X0095001Y0133035D01*
X0097306Y0135340D01*
X0100911Y0135340D01*
X0101588Y0134663D01*
X0102488Y0134290D01*
X0103463Y0134290D01*
X0104076Y0134543D01*
X0104076Y0128035D01*
X0109076Y0123035D01*
X0109896Y0122215D01*
X0113795Y0122215D01*
X0113795Y0119640D01*
X0117354Y0119640D01*
X0117354Y0118840D01*
X0113795Y0118840D01*
X0113795Y0116103D01*
X0113891Y0115747D01*
X0114075Y0115427D01*
X0114336Y0115167D01*
X0114655Y0114982D01*
X0115011Y0114887D01*
X0117354Y0114887D01*
X0117354Y0118840D01*
X0118154Y0118840D01*
X0118154Y0114887D01*
X0120498Y0114887D01*
X0120854Y0114982D01*
X0121173Y0115167D01*
X0121384Y0115377D01*
X0121474Y0115287D01*
X0127420Y0115287D01*
X0128006Y0115873D01*
X0128006Y0117276D01*
X0128426Y0117102D01*
X0129401Y0117102D01*
X0130301Y0117475D01*
X0130990Y0118164D01*
X0131363Y0119065D01*
X0131363Y0120039D01*
X0130990Y0120940D01*
X0130301Y0121629D01*
X0129401Y0122002D01*
X0128426Y0122002D01*
X0128006Y0121828D01*
X0128006Y0122215D01*
X0130286Y0122215D01*
X0130963Y0121538D01*
X0131863Y0121165D01*
X0132838Y0121165D01*
X0133738Y0121538D01*
X0134428Y0122227D01*
X0134801Y0123127D01*
X0134801Y0124102D01*
X0134428Y0125002D01*
X0133738Y0125692D01*
X0132838Y0126065D01*
X0131988Y0126065D01*
X0131988Y0126602D01*
X0131615Y0127502D01*
X0130926Y0128192D01*
X0130026Y0128565D01*
X0129051Y0128565D01*
X0128863Y0128487D01*
X0128863Y0129102D01*
X0128490Y0130002D01*
X0127801Y0130692D01*
X0127690Y0130737D01*
X0128113Y0130913D01*
X0128803Y0131602D01*
X0129176Y0132502D01*
X0129176Y0133477D01*
X0128803Y0134377D01*
X0128113Y0135067D01*
X0127213Y0135440D01*
X0126238Y0135440D01*
X0126166Y0135410D01*
X0126166Y0135569D01*
X0125580Y0136155D01*
X0120814Y0136155D01*
X0120229Y0135569D01*
X0120229Y0130410D01*
X0120624Y0130015D01*
X0119077Y0130015D01*
X0119473Y0130410D01*
X0119473Y0135569D01*
X0118887Y0136155D01*
X0114121Y0136155D01*
X0113536Y0135569D01*
X0113536Y0135410D01*
X0113463Y0135440D01*
X0112488Y0135440D01*
X0111588Y0135067D01*
X0110899Y0134377D01*
X0110626Y0133718D01*
X0110626Y0146418D01*
X0111238Y0146165D01*
X0112213Y0146165D01*
X0113113Y0146538D01*
X0113791Y0147215D01*
X0135911Y0147215D01*
X0136588Y0146538D01*
X0137488Y0146165D01*
X0138463Y0146165D01*
X0139363Y0146538D01*
X0140053Y0147227D01*
X0140426Y0148127D01*
X0140426Y0149102D01*
X0140053Y0150002D01*
X0139363Y0150692D01*
X0138463Y0151065D01*
X0137488Y0151065D01*
X0136588Y0150692D01*
X0135911Y0150015D01*
X0113791Y0150015D01*
X0113113Y0150692D01*
X0112213Y0151065D01*
X0111238Y0151065D01*
X0110626Y0150811D01*
X0110626Y0152308D01*
X0111460Y0151474D01*
X0112930Y0150865D01*
X0120521Y0150865D01*
X0121991Y0151474D01*
X0123117Y0152599D01*
X0123726Y0154069D01*
X0123726Y0155660D01*
X0123117Y0157130D01*
X0121991Y0158256D01*
X0120521Y0158865D01*
X0112930Y0158865D01*
X0112547Y0158706D01*
X0114706Y0160865D01*
X0120521Y0160865D01*
X0121991Y0161474D01*
X0123117Y0162599D01*
X0123726Y0164069D01*
X0123726Y0165660D01*
X0123117Y0167130D01*
X0121991Y0168256D01*
X0120521Y0168865D01*
X0112930Y0168865D01*
X0111460Y0168256D01*
X0110335Y0167130D01*
X0109726Y0165660D01*
X0109726Y0164069D01*
X0110335Y0162599D01*
X0111407Y0161526D01*
X0108646Y0158765D01*
X0108288Y0158407D01*
X0107931Y0158765D01*
X0105169Y0161526D01*
X0106242Y0162599D01*
X0106851Y0164069D01*
X0106851Y0165660D01*
X0106242Y0167130D01*
X0105116Y0168256D01*
X0103646Y0168865D01*
X0096055Y0168865D01*
X0094585Y0168256D01*
X0093460Y0167130D01*
X0092851Y0165660D01*
X0092851Y0164069D01*
X0093460Y0162599D01*
X0094585Y0161474D01*
X0096055Y0160865D01*
X0101871Y0160865D01*
X0104030Y0158706D01*
X0103646Y0158865D01*
X0096055Y0158865D01*
X0094585Y0158256D01*
X0093700Y0157371D01*
X0092931Y0158140D01*
X0089544Y0161526D01*
X0090617Y0162599D01*
X0091226Y0164069D01*
X0091226Y0165660D01*
X0090617Y0167130D01*
X0089491Y0168256D01*
X0088021Y0168865D01*
X0080476Y0168865D01*
X0080476Y0170865D01*
X0088021Y0170865D01*
X0089491Y0171474D01*
X0090617Y0172599D01*
X0091226Y0174069D01*
X0091226Y0175660D01*
X0090617Y0177130D01*
X0089491Y0178256D01*
X0088021Y0178865D01*
X0080476Y0178865D01*
X0080476Y0182097D01*
X0080682Y0181892D01*
X0081001Y0181707D01*
X0081357Y0181612D01*
X0083110Y0181612D01*
X0083110Y0184777D01*
X0083910Y0184777D01*
X0083910Y0185577D01*
X0086878Y0185577D01*
X0086878Y0187527D01*
X0086783Y0187883D01*
X0086598Y0188202D01*
X0086338Y0188463D01*
X0086019Y0188647D01*
X0085662Y0188743D01*
X0083910Y0188743D01*
X0083910Y0185577D01*
X0083110Y0185577D01*
X0083110Y0188743D01*
X0081357Y0188743D01*
X0081001Y0188647D01*
X0080682Y0188463D01*
X0080476Y0188257D01*
X0080476Y0209340D01*
X0380476Y0209340D01*
X0380476Y0017990D01*
X0153706Y0017990D01*
X0178243Y0042527D01*
X0183997Y0042527D01*
X0184473Y0041378D01*
X0184095Y0042292D02*
X0178008Y0042292D01*
X0175612Y0039896D02*
X0186260Y0039896D01*
X0185476Y0038299D02*
X0190092Y0038299D01*
X0190423Y0038468D02*
X0189736Y0038118D01*
X0189112Y0037665D01*
X0188566Y0037119D01*
X0188113Y0036495D01*
X0188095Y0036459D01*
X0188087Y0036476D01*
X0186821Y0037742D01*
X0185168Y0038427D01*
X0183377Y0038427D01*
X0181723Y0037742D01*
X0180458Y0036476D01*
X0179772Y0034822D01*
X0179772Y0033032D01*
X0180458Y0031378D01*
X0181723Y0030112D01*
X0183377Y0029427D01*
X0185168Y0029427D01*
X0186821Y0030112D01*
X0188087Y0031378D01*
X0188095Y0031395D01*
X0188113Y0031359D01*
X0188566Y0030735D01*
X0189112Y0030190D01*
X0189736Y0029736D01*
X0190423Y0029386D01*
X0191156Y0029148D01*
X0191904Y0029029D01*
X0191904Y0033527D01*
X0192704Y0033527D01*
X0192704Y0029029D01*
X0193451Y0029148D01*
X0194185Y0029386D01*
X0194872Y0029736D01*
X0195496Y0030190D01*
X0196041Y0030735D01*
X0196495Y0031359D01*
X0196513Y0031395D01*
X0196520Y0031378D01*
X0197786Y0030112D01*
X0199440Y0029427D01*
X0201231Y0029427D01*
X0202884Y0030112D01*
X0204150Y0031378D01*
X0204835Y0033032D01*
X0204835Y0034822D01*
X0204150Y0036476D01*
X0202884Y0037742D01*
X0201231Y0038427D01*
X0199440Y0038427D01*
X0197786Y0037742D01*
X0196520Y0036476D01*
X0196513Y0036459D01*
X0196495Y0036495D01*
X0196041Y0037119D01*
X0195496Y0037665D01*
X0194872Y0038118D01*
X0194185Y0038468D01*
X0193451Y0038706D01*
X0192704Y0038825D01*
X0192704Y0034327D01*
X0191904Y0034327D01*
X0191904Y0038825D01*
X0191156Y0038706D01*
X0190423Y0038468D01*
X0190316Y0039896D02*
X0194291Y0039896D01*
X0193188Y0040695D02*
X0191420Y0040695D01*
X0192151Y0041494D02*
X0192457Y0041494D01*
X0192704Y0038299D02*
X0191904Y0038299D01*
X0191904Y0037501D02*
X0192704Y0037501D01*
X0192704Y0036702D02*
X0191904Y0036702D01*
X0191904Y0035904D02*
X0192704Y0035904D01*
X0192704Y0035105D02*
X0191904Y0035105D01*
X0191904Y0033508D02*
X0192704Y0033508D01*
X0192704Y0032710D02*
X0191904Y0032710D01*
X0191904Y0031911D02*
X0192704Y0031911D01*
X0192704Y0031113D02*
X0191904Y0031113D01*
X0191904Y0030314D02*
X0192704Y0030314D01*
X0192704Y0029516D02*
X0191904Y0029516D01*
X0190168Y0029516D02*
X0185382Y0029516D01*
X0187024Y0030314D02*
X0188987Y0030314D01*
X0188292Y0031113D02*
X0187822Y0031113D01*
X0183163Y0029516D02*
X0174707Y0029516D01*
X0174159Y0030064D02*
X0175882Y0028341D01*
X0176814Y0026090D01*
X0176814Y0023654D01*
X0175882Y0021403D01*
X0174159Y0019680D01*
X0171908Y0018748D01*
X0169472Y0018748D01*
X0167221Y0019680D01*
X0165498Y0021403D01*
X0164565Y0023654D01*
X0164565Y0026090D01*
X0165498Y0028341D01*
X0167221Y0030064D01*
X0169472Y0030996D01*
X0171908Y0030996D01*
X0174159Y0030064D01*
X0173555Y0030314D02*
X0181521Y0030314D01*
X0180723Y0031113D02*
X0166829Y0031113D01*
X0167627Y0031911D02*
X0180237Y0031911D01*
X0179906Y0032710D02*
X0168426Y0032710D01*
X0169224Y0033508D02*
X0179772Y0033508D01*
X0179772Y0034307D02*
X0170023Y0034307D01*
X0170821Y0035105D02*
X0179890Y0035105D01*
X0180220Y0035904D02*
X0171620Y0035904D01*
X0172418Y0036702D02*
X0180684Y0036702D01*
X0181482Y0037501D02*
X0173217Y0037501D01*
X0174015Y0038299D02*
X0183069Y0038299D01*
X0187063Y0037501D02*
X0188948Y0037501D01*
X0188264Y0036702D02*
X0187861Y0036702D01*
X0194516Y0038299D02*
X0199132Y0038299D01*
X0197545Y0037501D02*
X0195660Y0037501D01*
X0196344Y0036702D02*
X0196747Y0036702D01*
X0198348Y0039896D02*
X0199968Y0039896D01*
X0199851Y0040695D02*
X0199451Y0040695D01*
X0201539Y0038299D02*
X0227680Y0038299D01*
X0228478Y0037501D02*
X0203126Y0037501D01*
X0203924Y0036702D02*
X0229277Y0036702D01*
X0230075Y0035904D02*
X0204387Y0035904D01*
X0204718Y0035105D02*
X0230874Y0035105D01*
X0231672Y0034307D02*
X0204835Y0034307D01*
X0204835Y0033508D02*
X0232471Y0033508D01*
X0233269Y0032710D02*
X0204702Y0032710D01*
X0204371Y0031911D02*
X0234068Y0031911D01*
X0234866Y0031113D02*
X0203885Y0031113D01*
X0203087Y0030314D02*
X0215069Y0030314D01*
X0214465Y0030064D02*
X0212742Y0028341D01*
X0211809Y0026090D01*
X0211809Y0023654D01*
X0212742Y0021403D01*
X0214465Y0019680D01*
X0216716Y0018748D01*
X0219152Y0018748D01*
X0221403Y0019680D01*
X0223126Y0021403D01*
X0224058Y0023654D01*
X0224058Y0026090D01*
X0223126Y0028341D01*
X0221403Y0030064D01*
X0219152Y0030996D01*
X0216716Y0030996D01*
X0214465Y0030064D01*
X0213916Y0029516D02*
X0201445Y0029516D01*
X0199226Y0029516D02*
X0194439Y0029516D01*
X0195621Y0030314D02*
X0197584Y0030314D01*
X0196786Y0031113D02*
X0196316Y0031113D01*
X0208735Y0039896D02*
X0226083Y0039896D01*
X0226881Y0039098D02*
X0174814Y0039098D01*
X0171236Y0042292D02*
X0101758Y0042292D01*
X0102556Y0043091D02*
X0172034Y0043091D01*
X0172833Y0043889D02*
X0103355Y0043889D01*
X0104153Y0044688D02*
X0173631Y0044688D01*
X0174430Y0045486D02*
X0104952Y0045486D01*
X0105750Y0046285D02*
X0148716Y0046285D01*
X0150476Y0047990D02*
X0140515Y0047990D01*
X0136726Y0051779D01*
X0139265Y0051779D01*
X0139442Y0047083D02*
X0106549Y0047083D01*
X0102589Y0047083D02*
X0087403Y0047083D01*
X0087660Y0047882D02*
X0100524Y0047882D01*
X0100524Y0048680D02*
X0088459Y0048680D01*
X0089257Y0049479D02*
X0100524Y0049479D01*
X0100524Y0050277D02*
X0090056Y0050277D01*
X0090854Y0051076D02*
X0100524Y0051076D01*
X0100524Y0051874D02*
X0091653Y0051874D01*
X0092451Y0052673D02*
X0100524Y0052673D01*
X0100524Y0053471D02*
X0093250Y0053471D01*
X0094048Y0054270D02*
X0100524Y0054270D01*
X0100524Y0055068D02*
X0094847Y0055068D01*
X0095645Y0055867D02*
X0100556Y0055867D01*
X0098041Y0058262D02*
X0113338Y0058262D01*
X0113354Y0057464D02*
X0097242Y0057464D01*
X0096444Y0056665D02*
X0113685Y0056665D01*
X0113580Y0059061D02*
X0098839Y0059061D01*
X0099638Y0059859D02*
X0114193Y0059859D01*
X0114388Y0060658D02*
X0100436Y0060658D01*
X0101235Y0061456D02*
X0114462Y0061456D01*
X0115261Y0062255D02*
X0102033Y0062255D01*
X0102832Y0063053D02*
X0116059Y0063053D01*
X0116858Y0063852D02*
X0103630Y0063852D01*
X0104429Y0064650D02*
X0114430Y0064650D01*
X0113671Y0065449D02*
X0105227Y0065449D01*
X0106026Y0066247D02*
X0113340Y0066247D01*
X0113338Y0067046D02*
X0106824Y0067046D01*
X0107623Y0067844D02*
X0113594Y0067844D01*
X0114227Y0068643D02*
X0108421Y0068643D01*
X0109220Y0069441D02*
X0116510Y0069441D01*
X0117309Y0070240D02*
X0110018Y0070240D01*
X0110817Y0071038D02*
X0118107Y0071038D01*
X0118906Y0071837D02*
X0111615Y0071837D01*
X0112414Y0072635D02*
X0119704Y0072635D01*
X0120503Y0073434D02*
X0113212Y0073434D01*
X0114011Y0074232D02*
X0121301Y0074232D01*
X0122100Y0075031D02*
X0114809Y0075031D01*
X0115608Y0075830D02*
X0122898Y0075830D01*
X0123697Y0076628D02*
X0116406Y0076628D01*
X0117205Y0077427D02*
X0124495Y0077427D01*
X0125294Y0078225D02*
X0118003Y0078225D01*
X0118438Y0079024D02*
X0126092Y0079024D01*
X0126891Y0079822D02*
X0118438Y0079822D01*
X0118438Y0080621D02*
X0127606Y0080621D01*
X0126394Y0081419D02*
X0118438Y0081419D01*
X0118438Y0082218D02*
X0125956Y0082218D01*
X0125838Y0083016D02*
X0118438Y0083016D01*
X0118438Y0083815D02*
X0125978Y0083815D01*
X0126447Y0084613D02*
X0118438Y0084613D01*
X0118438Y0085412D02*
X0126888Y0085412D01*
X0126888Y0086210D02*
X0118438Y0086210D01*
X0118438Y0087009D02*
X0126888Y0087009D01*
X0126888Y0087807D02*
X0118438Y0087807D01*
X0118438Y0088606D02*
X0126888Y0088606D01*
X0126888Y0089404D02*
X0118438Y0089404D01*
X0118438Y0090203D02*
X0126888Y0090203D01*
X0126888Y0091001D02*
X0118438Y0091001D01*
X0118438Y0091800D02*
X0126888Y0091800D01*
X0126888Y0092598D02*
X0118438Y0092598D01*
X0118438Y0093397D02*
X0126888Y0093397D01*
X0126888Y0094195D02*
X0118437Y0094195D01*
X0117639Y0094994D02*
X0126888Y0094994D01*
X0126888Y0095792D02*
X0116840Y0095792D01*
X0116042Y0096591D02*
X0126888Y0096591D01*
X0126888Y0097389D02*
X0115243Y0097389D01*
X0114445Y0098188D02*
X0126888Y0098188D01*
X0126888Y0098986D02*
X0113646Y0098986D01*
X0112848Y0099785D02*
X0126888Y0099785D01*
X0126888Y0100583D02*
X0112049Y0100583D01*
X0111251Y0101382D02*
X0126888Y0101382D01*
X0126888Y0102180D02*
X0110452Y0102180D01*
X0109654Y0102979D02*
X0126888Y0102979D01*
X0126888Y0103777D02*
X0108855Y0103777D01*
X0108057Y0104576D02*
X0126888Y0104576D01*
X0126888Y0105374D02*
X0107258Y0105374D01*
X0106460Y0106173D02*
X0126888Y0106173D01*
X0126888Y0106971D02*
X0105661Y0106971D01*
X0104863Y0107770D02*
X0126888Y0107770D01*
X0126888Y0108568D02*
X0104801Y0108568D01*
X0104561Y0109367D02*
X0126888Y0109367D01*
X0127547Y0110165D02*
X0103952Y0110165D01*
X0102351Y0108302D02*
X0117038Y0093615D01*
X0117038Y0079240D01*
X0083288Y0045490D01*
X0082976Y0045490D01*
X0087676Y0045486D02*
X0100992Y0045486D01*
X0100194Y0044688D02*
X0087676Y0044688D01*
X0087400Y0043889D02*
X0099395Y0043889D01*
X0098597Y0043091D02*
X0087069Y0043091D01*
X0086425Y0042292D02*
X0097798Y0042292D01*
X0097000Y0041494D02*
X0085610Y0041494D01*
X0084933Y0040216D02*
X0084170Y0040464D01*
X0083377Y0040590D01*
X0083376Y0040590D01*
X0083376Y0035890D01*
X0088076Y0035890D01*
X0088076Y0035891D01*
X0087950Y0036684D01*
X0087702Y0037447D01*
X0087338Y0038163D01*
X0086866Y0038812D01*
X0086298Y0039380D01*
X0085649Y0039852D01*
X0084933Y0040216D01*
X0085560Y0039896D02*
X0095403Y0039896D01*
X0094604Y0039098D02*
X0086580Y0039098D01*
X0087238Y0038299D02*
X0093806Y0038299D01*
X0093007Y0037501D02*
X0087675Y0037501D01*
X0087944Y0036702D02*
X0092209Y0036702D01*
X0091410Y0035904D02*
X0088074Y0035904D01*
X0088076Y0035090D02*
X0083376Y0035090D01*
X0083376Y0030390D01*
X0083377Y0030390D01*
X0084170Y0030515D01*
X0084933Y0030763D01*
X0085649Y0031128D01*
X0086298Y0031600D01*
X0086866Y0032167D01*
X0087338Y0032817D01*
X0087702Y0033532D01*
X0087950Y0034295D01*
X0088076Y0035088D01*
X0088076Y0035090D01*
X0087952Y0034307D02*
X0089813Y0034307D01*
X0090612Y0035105D02*
X0083376Y0035105D01*
X0083376Y0034307D02*
X0082576Y0034307D01*
X0082576Y0033508D02*
X0083376Y0033508D01*
X0083376Y0032710D02*
X0082576Y0032710D01*
X0082576Y0031911D02*
X0083376Y0031911D01*
X0083376Y0031113D02*
X0082576Y0031113D01*
X0080476Y0030314D02*
X0085820Y0030314D01*
X0085619Y0031113D02*
X0086619Y0031113D01*
X0086610Y0031911D02*
X0087418Y0031911D01*
X0087260Y0032710D02*
X0088216Y0032710D01*
X0087690Y0033508D02*
X0089015Y0033508D01*
X0091377Y0031911D02*
X0111951Y0031911D01*
X0111951Y0032100D02*
X0111951Y0031300D01*
X0112751Y0031300D01*
X0112751Y0032100D01*
X0136326Y0032100D01*
X0136326Y0036742D01*
X0125715Y0036742D01*
X0125359Y0036647D01*
X0125039Y0036462D01*
X0124779Y0036202D01*
X0124594Y0035882D01*
X0124538Y0035673D01*
X0124482Y0035882D01*
X0124298Y0036202D01*
X0124037Y0036462D01*
X0123718Y0036647D01*
X0123362Y0036742D01*
X0112751Y0036742D01*
X0112751Y0032100D01*
X0111951Y0032100D01*
X0100124Y0032100D01*
X0100124Y0035526D01*
X0100219Y0035882D01*
X0100404Y0036202D01*
X0100664Y0036462D01*
X0100984Y0036647D01*
X0101340Y0036742D01*
X0111951Y0036742D01*
X0111951Y0032100D01*
X0111951Y0032710D02*
X0112751Y0032710D01*
X0112751Y0033508D02*
X0111951Y0033508D01*
X0111951Y0034307D02*
X0112751Y0034307D01*
X0112751Y0035105D02*
X0111951Y0035105D01*
X0111951Y0035904D02*
X0112751Y0035904D01*
X0112751Y0036702D02*
X0111951Y0036702D01*
X0112751Y0031911D02*
X0136326Y0031911D01*
X0136326Y0032100D02*
X0136326Y0031300D01*
X0137126Y0031300D01*
X0137126Y0032100D01*
X0148952Y0032100D01*
X0148952Y0035526D01*
X0148857Y0035882D01*
X0148673Y0036202D01*
X0148412Y0036462D01*
X0148093Y0036647D01*
X0147737Y0036742D01*
X0137126Y0036742D01*
X0137126Y0032100D01*
X0136326Y0032100D01*
X0136326Y0032710D02*
X0137126Y0032710D01*
X0137126Y0033508D02*
X0136326Y0033508D01*
X0136326Y0034307D02*
X0137126Y0034307D01*
X0137126Y0035105D02*
X0136326Y0035105D01*
X0136326Y0035904D02*
X0137126Y0035904D01*
X0137126Y0036702D02*
X0136326Y0036702D01*
X0137126Y0031911D02*
X0160855Y0031911D01*
X0160056Y0031113D02*
X0148952Y0031113D01*
X0148952Y0031300D02*
X0137126Y0031300D01*
X0137126Y0026659D01*
X0147737Y0026659D01*
X0148093Y0026754D01*
X0148412Y0026938D01*
X0148673Y0027199D01*
X0148857Y0027518D01*
X0148952Y0027874D01*
X0148952Y0031300D01*
X0148952Y0030314D02*
X0159258Y0030314D01*
X0158459Y0029516D02*
X0148952Y0029516D01*
X0148952Y0028717D02*
X0157661Y0028717D01*
X0156862Y0027919D02*
X0148952Y0027919D01*
X0148594Y0027120D02*
X0156064Y0027120D01*
X0155265Y0026322D02*
X0087676Y0026322D01*
X0087676Y0027120D02*
X0100482Y0027120D01*
X0100404Y0027199D02*
X0100664Y0026938D01*
X0100984Y0026754D01*
X0101340Y0026659D01*
X0111951Y0026659D01*
X0111951Y0031300D01*
X0100124Y0031300D01*
X0100124Y0027874D01*
X0100219Y0027518D01*
X0100404Y0027199D01*
X0100124Y0027919D02*
X0087676Y0027919D01*
X0088183Y0028717D02*
X0100124Y0028717D01*
X0100124Y0029516D02*
X0088982Y0029516D01*
X0089780Y0030314D02*
X0100124Y0030314D01*
X0100124Y0031113D02*
X0090579Y0031113D01*
X0092176Y0032710D02*
X0100124Y0032710D01*
X0100124Y0033508D02*
X0092974Y0033508D01*
X0093773Y0034307D02*
X0100124Y0034307D01*
X0100124Y0035105D02*
X0094571Y0035105D01*
X0095370Y0035904D02*
X0100232Y0035904D01*
X0101192Y0036702D02*
X0096168Y0036702D01*
X0096967Y0037501D02*
X0166445Y0037501D01*
X0167243Y0038299D02*
X0097765Y0038299D01*
X0098564Y0039098D02*
X0168042Y0039098D01*
X0168840Y0039896D02*
X0099362Y0039896D01*
X0100161Y0040695D02*
X0169639Y0040695D01*
X0170437Y0041494D02*
X0100959Y0041494D01*
X0096201Y0040695D02*
X0080476Y0040695D01*
X0082576Y0039896D02*
X0083376Y0039896D01*
X0083376Y0039098D02*
X0082576Y0039098D01*
X0082576Y0038299D02*
X0083376Y0038299D01*
X0083376Y0037501D02*
X0082576Y0037501D01*
X0082576Y0036702D02*
X0083376Y0036702D01*
X0083376Y0035904D02*
X0082576Y0035904D01*
X0082976Y0025490D02*
X0109265Y0051779D01*
X0112351Y0051779D01*
X0115788Y0057990D02*
X0115788Y0060802D01*
X0152663Y0097677D01*
X0159538Y0097677D01*
X0161740Y0096591D02*
X0163737Y0096591D01*
X0164076Y0097389D02*
X0161988Y0097389D01*
X0161979Y0098188D02*
X0164076Y0098188D01*
X0164076Y0098986D02*
X0162052Y0098986D01*
X0162889Y0099785D02*
X0164076Y0099785D01*
X0164076Y0100583D02*
X0163220Y0100583D01*
X0163238Y0101382D02*
X0164076Y0101382D01*
X0164076Y0102180D02*
X0162999Y0102180D01*
X0162389Y0102979D02*
X0164076Y0102979D01*
X0164076Y0103777D02*
X0129688Y0103777D01*
X0129688Y0102979D02*
X0159188Y0102979D01*
X0160788Y0101115D02*
X0150163Y0101115D01*
X0115788Y0066740D01*
X0118238Y0067046D02*
X0120052Y0067046D01*
X0120851Y0067844D02*
X0118873Y0067844D01*
X0119671Y0068643D02*
X0121649Y0068643D01*
X0122448Y0069441D02*
X0120470Y0069441D01*
X0121268Y0070240D02*
X0123246Y0070240D01*
X0124045Y0071038D02*
X0122067Y0071038D01*
X0122865Y0071837D02*
X0124843Y0071837D01*
X0125642Y0072635D02*
X0123664Y0072635D01*
X0124462Y0073434D02*
X0126440Y0073434D01*
X0127239Y0074232D02*
X0125261Y0074232D01*
X0126059Y0075031D02*
X0128037Y0075031D01*
X0128836Y0075830D02*
X0126858Y0075830D01*
X0127656Y0076628D02*
X0129634Y0076628D01*
X0130433Y0077427D02*
X0128455Y0077427D01*
X0129253Y0078225D02*
X0131231Y0078225D01*
X0132030Y0079024D02*
X0130052Y0079024D01*
X0130850Y0079822D02*
X0132828Y0079822D01*
X0133627Y0080621D02*
X0131649Y0080621D01*
X0132447Y0081419D02*
X0134425Y0081419D01*
X0135224Y0082218D02*
X0133246Y0082218D01*
X0134045Y0083016D02*
X0136022Y0083016D01*
X0136821Y0083815D02*
X0134843Y0083815D01*
X0135642Y0084613D02*
X0137619Y0084613D01*
X0138418Y0085412D02*
X0136440Y0085412D01*
X0137239Y0086210D02*
X0139216Y0086210D01*
X0140015Y0087009D02*
X0138037Y0087009D01*
X0138836Y0087807D02*
X0140813Y0087807D01*
X0141612Y0088606D02*
X0139634Y0088606D01*
X0140433Y0089404D02*
X0142410Y0089404D01*
X0143209Y0090203D02*
X0141231Y0090203D01*
X0142030Y0091001D02*
X0144007Y0091001D01*
X0144806Y0091800D02*
X0142828Y0091800D01*
X0143627Y0092598D02*
X0145604Y0092598D01*
X0146403Y0093397D02*
X0144425Y0093397D01*
X0145224Y0094195D02*
X0147201Y0094195D01*
X0148000Y0094994D02*
X0146022Y0094994D01*
X0146821Y0095792D02*
X0148798Y0095792D01*
X0149597Y0096591D02*
X0147619Y0096591D01*
X0148418Y0097389D02*
X0150395Y0097389D01*
X0151194Y0098188D02*
X0149216Y0098188D01*
X0150015Y0098986D02*
X0151992Y0098986D01*
X0148450Y0101382D02*
X0129688Y0101382D01*
X0129688Y0102180D02*
X0149249Y0102180D01*
X0147652Y0100583D02*
X0129688Y0100583D01*
X0129688Y0099785D02*
X0146853Y0099785D01*
X0146055Y0098986D02*
X0129688Y0098986D01*
X0129688Y0098188D02*
X0145256Y0098188D01*
X0144458Y0097389D02*
X0129688Y0097389D01*
X0129688Y0096591D02*
X0143659Y0096591D01*
X0142861Y0095792D02*
X0129688Y0095792D01*
X0129688Y0094994D02*
X0142062Y0094994D01*
X0141264Y0094195D02*
X0129688Y0094195D01*
X0129688Y0093397D02*
X0140465Y0093397D01*
X0139667Y0092598D02*
X0129688Y0092598D01*
X0129688Y0091800D02*
X0138868Y0091800D01*
X0138070Y0091001D02*
X0129688Y0091001D01*
X0129688Y0090203D02*
X0137271Y0090203D01*
X0136473Y0089404D02*
X0129688Y0089404D01*
X0129688Y0088606D02*
X0135674Y0088606D01*
X0134876Y0087807D02*
X0129688Y0087807D01*
X0129688Y0087009D02*
X0134077Y0087009D01*
X0133279Y0086210D02*
X0129688Y0086210D01*
X0129688Y0085412D02*
X0132480Y0085412D01*
X0131682Y0084613D02*
X0130130Y0084613D01*
X0130598Y0083815D02*
X0130883Y0083815D01*
X0128288Y0082990D02*
X0128288Y0108927D01*
X0150476Y0131115D01*
X0160476Y0131115D01*
X0162719Y0130128D02*
X0164076Y0130128D01*
X0164076Y0129330D02*
X0162156Y0129330D01*
X0162926Y0130927D02*
X0164074Y0130927D01*
X0163348Y0131725D02*
X0162875Y0131725D01*
X0163026Y0132524D02*
X0162531Y0132524D01*
X0163026Y0133322D02*
X0161548Y0133322D01*
X0163292Y0134121D02*
X0151009Y0134121D01*
X0151303Y0134414D02*
X0151676Y0135315D01*
X0151676Y0136272D01*
X0157904Y0142501D01*
X0157904Y0144824D01*
X0158887Y0144824D01*
X0159473Y0145410D01*
X0159473Y0150569D01*
X0158887Y0151155D01*
X0154154Y0151155D01*
X0154154Y0155449D01*
X0155137Y0155449D01*
X0155723Y0156035D01*
X0155723Y0161194D01*
X0155137Y0161780D01*
X0154154Y0161780D01*
X0154154Y0170274D01*
X0154487Y0170607D01*
X0154487Y0175372D01*
X0153902Y0175958D01*
X0148743Y0175958D01*
X0148157Y0175372D01*
X0148157Y0170607D01*
X0148743Y0170021D01*
X0151354Y0170021D01*
X0151354Y0161780D01*
X0150371Y0161780D01*
X0149786Y0161194D01*
X0149786Y0156035D01*
X0150371Y0155449D01*
X0151354Y0155449D01*
X0151354Y0145848D01*
X0149696Y0144190D01*
X0148738Y0144190D01*
X0147838Y0143817D01*
X0147149Y0143127D01*
X0146776Y0142227D01*
X0146776Y0141252D01*
X0147149Y0140352D01*
X0147838Y0139663D01*
X0148738Y0139290D01*
X0149713Y0139290D01*
X0150613Y0139663D01*
X0151303Y0140352D01*
X0151676Y0141252D01*
X0151676Y0142210D01*
X0154154Y0144688D01*
X0154154Y0144824D01*
X0155104Y0144824D01*
X0155104Y0143661D01*
X0149696Y0138252D01*
X0148738Y0138252D01*
X0147838Y0137879D01*
X0147149Y0137190D01*
X0146776Y0136289D01*
X0146776Y0135315D01*
X0147149Y0134414D01*
X0147838Y0133725D01*
X0148738Y0133352D01*
X0149713Y0133352D01*
X0150613Y0133725D01*
X0151303Y0134414D01*
X0151512Y0134919D02*
X0163941Y0134919D01*
X0165476Y0132990D02*
X0165476Y0094865D01*
X0167214Y0096591D02*
X0177826Y0096591D01*
X0177826Y0097389D02*
X0166876Y0097389D01*
X0166876Y0098188D02*
X0177826Y0098188D01*
X0177826Y0098986D02*
X0166876Y0098986D01*
X0166876Y0099785D02*
X0177826Y0099785D01*
X0177826Y0100583D02*
X0166876Y0100583D01*
X0166876Y0101382D02*
X0177826Y0101382D01*
X0177826Y0102180D02*
X0166876Y0102180D01*
X0166876Y0102979D02*
X0177826Y0102979D01*
X0177826Y0103777D02*
X0166876Y0103777D01*
X0166876Y0104576D02*
X0177826Y0104576D01*
X0177826Y0105374D02*
X0166876Y0105374D01*
X0166876Y0106173D02*
X0177826Y0106173D01*
X0177826Y0106971D02*
X0166876Y0106971D01*
X0166876Y0107770D02*
X0177826Y0107770D01*
X0177826Y0108568D02*
X0166876Y0108568D01*
X0166876Y0109367D02*
X0177826Y0109367D01*
X0177826Y0110165D02*
X0166876Y0110165D01*
X0166876Y0110964D02*
X0177826Y0110964D01*
X0177826Y0111763D02*
X0166876Y0111763D01*
X0166876Y0112561D02*
X0177826Y0112561D01*
X0177826Y0113360D02*
X0166876Y0113360D01*
X0166876Y0114158D02*
X0177826Y0114158D01*
X0177826Y0114957D02*
X0166876Y0114957D01*
X0166876Y0115755D02*
X0177826Y0115755D01*
X0177826Y0116554D02*
X0166876Y0116554D01*
X0166876Y0117352D02*
X0177826Y0117352D01*
X0177826Y0118151D02*
X0166876Y0118151D01*
X0166876Y0118949D02*
X0177826Y0118949D01*
X0177826Y0119748D02*
X0166876Y0119748D01*
X0166876Y0120546D02*
X0177826Y0120546D01*
X0177826Y0121345D02*
X0166876Y0121345D01*
X0166876Y0122143D02*
X0177826Y0122143D01*
X0177826Y0122942D02*
X0166876Y0122942D01*
X0166876Y0123740D02*
X0177826Y0123740D01*
X0177826Y0124539D02*
X0166876Y0124539D01*
X0166876Y0125337D02*
X0177826Y0125337D01*
X0177826Y0126136D02*
X0166876Y0126136D01*
X0166876Y0126934D02*
X0177826Y0126934D01*
X0177826Y0127733D02*
X0166876Y0127733D01*
X0166876Y0128531D02*
X0177826Y0128531D01*
X0177826Y0129330D02*
X0166876Y0129330D01*
X0166876Y0130128D02*
X0177826Y0130128D01*
X0177826Y0130927D02*
X0166878Y0130927D01*
X0167604Y0131725D02*
X0177826Y0131725D01*
X0177826Y0132524D02*
X0167926Y0132524D01*
X0167926Y0133322D02*
X0177826Y0133322D01*
X0177826Y0134121D02*
X0167659Y0134121D01*
X0167011Y0134919D02*
X0177826Y0134919D01*
X0177826Y0135718D02*
X0151676Y0135718D01*
X0151920Y0136516D02*
X0177826Y0136516D01*
X0177826Y0137315D02*
X0152718Y0137315D01*
X0153517Y0138113D02*
X0177826Y0138113D01*
X0177826Y0138912D02*
X0154315Y0138912D01*
X0155114Y0139710D02*
X0177826Y0139710D01*
X0177826Y0140509D02*
X0155912Y0140509D01*
X0156711Y0141307D02*
X0177826Y0141307D01*
X0177826Y0142106D02*
X0157509Y0142106D01*
X0157904Y0142904D02*
X0177826Y0142904D01*
X0177826Y0143703D02*
X0157904Y0143703D01*
X0157904Y0144501D02*
X0177826Y0144501D01*
X0177826Y0145300D02*
X0166056Y0145300D01*
X0166166Y0145410D02*
X0166166Y0150569D01*
X0165580Y0151155D01*
X0164597Y0151155D01*
X0164597Y0177945D01*
X0152416Y0190126D01*
X0152416Y0193694D01*
X0151830Y0194280D01*
X0147064Y0194280D01*
X0146479Y0193694D01*
X0146479Y0188535D01*
X0147064Y0187949D01*
X0150633Y0187949D01*
X0161797Y0176785D01*
X0161797Y0161780D01*
X0160847Y0161780D01*
X0160847Y0173570D01*
X0154487Y0179929D01*
X0154487Y0183497D01*
X0153902Y0184083D01*
X0148743Y0184083D01*
X0148157Y0183497D01*
X0148157Y0178732D01*
X0148743Y0178146D01*
X0152311Y0178146D01*
X0158047Y0172410D01*
X0158047Y0161780D01*
X0157064Y0161780D01*
X0156479Y0161194D01*
X0156479Y0156035D01*
X0157064Y0155449D01*
X0161797Y0155449D01*
X0161797Y0151155D01*
X0160814Y0151155D01*
X0160229Y0150569D01*
X0160229Y0145410D01*
X0160814Y0144824D01*
X0165580Y0144824D01*
X0166166Y0145410D01*
X0166166Y0146098D02*
X0177826Y0146098D01*
X0177826Y0146897D02*
X0166166Y0146897D01*
X0166166Y0147696D02*
X0177826Y0147696D01*
X0177826Y0148494D02*
X0166166Y0148494D01*
X0166166Y0149293D02*
X0177826Y0149293D01*
X0177826Y0150091D02*
X0166166Y0150091D01*
X0165845Y0150890D02*
X0177826Y0150890D01*
X0177826Y0151688D02*
X0164597Y0151688D01*
X0164597Y0152487D02*
X0177826Y0152487D01*
X0177826Y0153285D02*
X0164597Y0153285D01*
X0164597Y0154084D02*
X0177826Y0154084D01*
X0177826Y0154882D02*
X0174089Y0154882D01*
X0174089Y0154785D02*
X0173503Y0154199D01*
X0168344Y0154199D01*
X0167758Y0154785D01*
X0167758Y0154915D01*
X0166863Y0154915D01*
X0165963Y0155288D01*
X0165274Y0155977D01*
X0164901Y0156877D01*
X0164901Y0157852D01*
X0165274Y0158752D01*
X0165963Y0159442D01*
X0166863Y0159815D01*
X0167758Y0159815D01*
X0167758Y0159944D01*
X0168344Y0160530D01*
X0173503Y0160530D01*
X0174089Y0159944D01*
X0174089Y0154785D01*
X0174089Y0155681D02*
X0177826Y0155681D01*
X0177826Y0156479D02*
X0174089Y0156479D01*
X0174089Y0157278D02*
X0177826Y0157278D01*
X0177826Y0158076D02*
X0174089Y0158076D01*
X0174089Y0158875D02*
X0177826Y0158875D01*
X0177826Y0159673D02*
X0174089Y0159673D01*
X0173561Y0160472D02*
X0177826Y0160472D01*
X0177826Y0161270D02*
X0164597Y0161270D01*
X0164597Y0160472D02*
X0168286Y0160472D01*
X0166522Y0159673D02*
X0164597Y0159673D01*
X0164597Y0158875D02*
X0165396Y0158875D01*
X0164994Y0158076D02*
X0164597Y0158076D01*
X0164597Y0157278D02*
X0164901Y0157278D01*
X0165066Y0156479D02*
X0164597Y0156479D01*
X0164597Y0155681D02*
X0165570Y0155681D01*
X0164597Y0154882D02*
X0167758Y0154882D01*
X0161797Y0154882D02*
X0154154Y0154882D01*
X0154154Y0154084D02*
X0161797Y0154084D01*
X0161797Y0153285D02*
X0154154Y0153285D01*
X0154154Y0152487D02*
X0161797Y0152487D01*
X0161797Y0151688D02*
X0154154Y0151688D01*
X0151354Y0151688D02*
X0122206Y0151688D01*
X0123004Y0152487D02*
X0151354Y0152487D01*
X0151354Y0153285D02*
X0123401Y0153285D01*
X0123726Y0154084D02*
X0151354Y0154084D01*
X0151354Y0154882D02*
X0123726Y0154882D01*
X0123717Y0155681D02*
X0150140Y0155681D01*
X0149786Y0156479D02*
X0123387Y0156479D01*
X0122970Y0157278D02*
X0149786Y0157278D01*
X0149786Y0158076D02*
X0122171Y0158076D01*
X0121500Y0161270D02*
X0149862Y0161270D01*
X0149786Y0160472D02*
X0114313Y0160472D01*
X0113514Y0159673D02*
X0149786Y0159673D01*
X0149786Y0158875D02*
X0112716Y0158875D01*
X0110353Y0160472D02*
X0106224Y0160472D01*
X0107022Y0159673D02*
X0109554Y0159673D01*
X0108756Y0158875D02*
X0107821Y0158875D01*
X0107351Y0157365D02*
X0107351Y0129865D01*
X0111101Y0126115D01*
X0129538Y0126115D01*
X0131988Y0126136D02*
X0143517Y0126136D01*
X0144315Y0126934D02*
X0131851Y0126934D01*
X0131385Y0127733D02*
X0145114Y0127733D01*
X0145912Y0128531D02*
X0130106Y0128531D01*
X0128970Y0128531D02*
X0128863Y0128531D01*
X0128769Y0129330D02*
X0146711Y0129330D01*
X0147509Y0130128D02*
X0128364Y0130128D01*
X0128128Y0130927D02*
X0148308Y0130927D01*
X0149106Y0131725D02*
X0128854Y0131725D01*
X0129176Y0132524D02*
X0158420Y0132524D01*
X0159403Y0133322D02*
X0129176Y0133322D01*
X0128909Y0134121D02*
X0147442Y0134121D01*
X0146939Y0134919D02*
X0128261Y0134919D01*
X0126017Y0135718D02*
X0146776Y0135718D01*
X0146870Y0136516D02*
X0110626Y0136516D01*
X0110626Y0135718D02*
X0113684Y0135718D01*
X0111441Y0134919D02*
X0110626Y0134919D01*
X0110626Y0134121D02*
X0110792Y0134121D01*
X0110626Y0137315D02*
X0147274Y0137315D01*
X0148403Y0138113D02*
X0110626Y0138113D01*
X0110626Y0138912D02*
X0150356Y0138912D01*
X0150661Y0139710D02*
X0151154Y0139710D01*
X0151368Y0140509D02*
X0151953Y0140509D01*
X0151676Y0141307D02*
X0152751Y0141307D01*
X0153550Y0142106D02*
X0151676Y0142106D01*
X0152370Y0142904D02*
X0154348Y0142904D01*
X0155104Y0143703D02*
X0153169Y0143703D01*
X0153967Y0144501D02*
X0155104Y0144501D01*
X0156504Y0143081D02*
X0149226Y0135802D01*
X0147790Y0139710D02*
X0110626Y0139710D01*
X0110626Y0140509D02*
X0147084Y0140509D01*
X0146776Y0141307D02*
X0110626Y0141307D01*
X0110626Y0142106D02*
X0146776Y0142106D01*
X0147056Y0142904D02*
X0110626Y0142904D01*
X0110626Y0143703D02*
X0147724Y0143703D01*
X0150008Y0144501D02*
X0110626Y0144501D01*
X0110626Y0145300D02*
X0150806Y0145300D01*
X0151354Y0146098D02*
X0110626Y0146098D01*
X0113473Y0146897D02*
X0136228Y0146897D01*
X0137976Y0148615D02*
X0111726Y0148615D01*
X0112636Y0150890D02*
X0112870Y0150890D01*
X0113714Y0150091D02*
X0135987Y0150091D01*
X0137066Y0150890D02*
X0120581Y0150890D01*
X0111245Y0151688D02*
X0110626Y0151688D01*
X0110626Y0150890D02*
X0110816Y0150890D01*
X0109226Y0157365D02*
X0109226Y0131115D01*
X0111726Y0128615D01*
X0126413Y0128615D01*
X0120510Y0130128D02*
X0119191Y0130128D01*
X0119473Y0130927D02*
X0120229Y0130927D01*
X0120229Y0131725D02*
X0119473Y0131725D01*
X0119473Y0132524D02*
X0120229Y0132524D01*
X0120229Y0133322D02*
X0119473Y0133322D01*
X0119473Y0134121D02*
X0120229Y0134121D01*
X0120229Y0134919D02*
X0119473Y0134919D01*
X0119324Y0135718D02*
X0120377Y0135718D01*
X0123197Y0132990D02*
X0126726Y0132990D01*
X0134093Y0125337D02*
X0142718Y0125337D01*
X0141920Y0124539D02*
X0134620Y0124539D01*
X0134801Y0123740D02*
X0141121Y0123740D01*
X0140323Y0122942D02*
X0134724Y0122942D01*
X0134344Y0122143D02*
X0139524Y0122143D01*
X0138726Y0121345D02*
X0133273Y0121345D01*
X0131429Y0121345D02*
X0130586Y0121345D01*
X0130357Y0122143D02*
X0128006Y0122143D01*
X0128913Y0119552D02*
X0125385Y0119552D01*
X0125072Y0119865D01*
X0124447Y0119240D01*
X0128006Y0116554D02*
X0133935Y0116554D01*
X0134733Y0117352D02*
X0130004Y0117352D01*
X0130976Y0118151D02*
X0135532Y0118151D01*
X0136330Y0118949D02*
X0131315Y0118949D01*
X0131363Y0119748D02*
X0137129Y0119748D01*
X0137927Y0120546D02*
X0131153Y0120546D01*
X0137894Y0116554D02*
X0151389Y0116554D01*
X0151389Y0117176D02*
X0151389Y0115053D01*
X0152201Y0113091D01*
X0153702Y0111590D01*
X0155664Y0110778D01*
X0157787Y0110778D01*
X0159749Y0111590D01*
X0161250Y0113091D01*
X0162063Y0115053D01*
X0162063Y0117176D01*
X0161250Y0119138D01*
X0159749Y0120639D01*
X0157787Y0121452D01*
X0155664Y0121452D01*
X0153702Y0120639D01*
X0152201Y0119138D01*
X0151389Y0117176D01*
X0151462Y0117352D02*
X0138693Y0117352D01*
X0139492Y0118151D02*
X0151792Y0118151D01*
X0152123Y0118949D02*
X0140290Y0118949D01*
X0141089Y0119748D02*
X0152811Y0119748D01*
X0153609Y0120546D02*
X0141887Y0120546D01*
X0142686Y0121345D02*
X0155406Y0121345D01*
X0158046Y0121345D02*
X0164076Y0121345D01*
X0164076Y0122143D02*
X0143484Y0122143D01*
X0144283Y0122942D02*
X0164076Y0122942D01*
X0164076Y0123740D02*
X0145081Y0123740D01*
X0145880Y0124539D02*
X0164076Y0124539D01*
X0164076Y0125337D02*
X0146678Y0125337D01*
X0147477Y0126136D02*
X0164076Y0126136D01*
X0164076Y0126934D02*
X0148275Y0126934D01*
X0149074Y0127733D02*
X0164076Y0127733D01*
X0164076Y0128531D02*
X0149872Y0128531D01*
X0150671Y0129330D02*
X0158796Y0129330D01*
X0159842Y0120546D02*
X0164076Y0120546D01*
X0164076Y0119748D02*
X0160640Y0119748D01*
X0161328Y0118949D02*
X0164076Y0118949D01*
X0164076Y0118151D02*
X0161659Y0118151D01*
X0161990Y0117352D02*
X0164076Y0117352D01*
X0164076Y0116554D02*
X0162063Y0116554D01*
X0162063Y0115755D02*
X0164076Y0115755D01*
X0164076Y0114957D02*
X0162023Y0114957D01*
X0161692Y0114158D02*
X0164076Y0114158D01*
X0164076Y0113360D02*
X0161361Y0113360D01*
X0160720Y0112561D02*
X0164076Y0112561D01*
X0164076Y0111763D02*
X0159921Y0111763D01*
X0158237Y0110964D02*
X0164076Y0110964D01*
X0164076Y0110165D02*
X0131506Y0110165D01*
X0130708Y0109367D02*
X0164076Y0109367D01*
X0164076Y0108568D02*
X0129909Y0108568D01*
X0129688Y0107770D02*
X0164076Y0107770D01*
X0164076Y0106971D02*
X0129688Y0106971D01*
X0129688Y0106173D02*
X0164076Y0106173D01*
X0164076Y0105374D02*
X0129688Y0105374D01*
X0129688Y0104576D02*
X0164076Y0104576D01*
X0155214Y0110964D02*
X0132305Y0110964D01*
X0133103Y0111763D02*
X0153530Y0111763D01*
X0152732Y0112561D02*
X0133902Y0112561D01*
X0134700Y0113360D02*
X0152090Y0113360D01*
X0151759Y0114158D02*
X0135499Y0114158D01*
X0136297Y0114957D02*
X0151429Y0114957D01*
X0151389Y0115755D02*
X0137096Y0115755D01*
X0133136Y0115755D02*
X0127889Y0115755D01*
X0130741Y0113360D02*
X0099508Y0113360D01*
X0100158Y0112561D02*
X0129942Y0112561D01*
X0129144Y0111763D02*
X0100426Y0111763D01*
X0100426Y0110964D02*
X0128345Y0110964D01*
X0131539Y0114158D02*
X0095001Y0114158D01*
X0095001Y0113360D02*
X0096443Y0113360D01*
X0095793Y0112561D02*
X0095001Y0112561D01*
X0095001Y0111763D02*
X0095526Y0111763D01*
X0095526Y0110964D02*
X0095001Y0110964D01*
X0095001Y0110165D02*
X0095846Y0110165D01*
X0096571Y0109367D02*
X0095001Y0109367D01*
X0095001Y0108568D02*
X0096576Y0108568D01*
X0096840Y0107770D02*
X0095001Y0107770D01*
X0095001Y0106971D02*
X0097639Y0106971D01*
X0098437Y0106173D02*
X0095001Y0106173D01*
X0095001Y0105374D02*
X0099236Y0105374D01*
X0100035Y0104576D02*
X0095001Y0104576D01*
X0095001Y0103777D02*
X0100833Y0103777D01*
X0101413Y0105177D02*
X0097976Y0108615D01*
X0097976Y0111427D01*
X0100105Y0110165D02*
X0100749Y0110165D01*
X0100140Y0109367D02*
X0099380Y0109367D01*
X0101413Y0105177D02*
X0103288Y0105177D01*
X0114851Y0093615D01*
X0114851Y0079552D01*
X0090788Y0055490D01*
X0082976Y0055490D01*
X0092351Y0061115D02*
X0093601Y0062365D01*
X0093601Y0133615D01*
X0096726Y0136740D01*
X0102976Y0136740D01*
X0102921Y0139190D02*
X0102488Y0139190D01*
X0101588Y0138817D01*
X0100911Y0138140D01*
X0096146Y0138140D01*
X0095326Y0137320D01*
X0093021Y0135015D01*
X0092201Y0134195D01*
X0092201Y0132608D01*
X0090654Y0132608D01*
X0090654Y0129640D01*
X0089854Y0129640D01*
X0089854Y0132608D01*
X0087905Y0132608D01*
X0087548Y0132513D01*
X0087229Y0132328D01*
X0086969Y0132068D01*
X0086784Y0131749D01*
X0086689Y0131392D01*
X0086689Y0129640D01*
X0089854Y0129640D01*
X0089854Y0128840D01*
X0086689Y0128840D01*
X0086689Y0127087D01*
X0086784Y0126731D01*
X0086969Y0126412D01*
X0087229Y0126151D01*
X0087548Y0125967D01*
X0087905Y0125871D01*
X0089854Y0125871D01*
X0089854Y0128840D01*
X0090654Y0128840D01*
X0090654Y0125871D01*
X0092201Y0125871D01*
X0092201Y0123623D01*
X0091588Y0123877D01*
X0090613Y0123877D01*
X0089713Y0123504D01*
X0089024Y0122815D01*
X0088651Y0121914D01*
X0088651Y0120940D01*
X0089024Y0120039D01*
X0089701Y0119362D01*
X0089701Y0064195D01*
X0088646Y0063140D01*
X0080476Y0063140D01*
X0080476Y0069824D01*
X0081387Y0069824D01*
X0081973Y0070410D01*
X0081973Y0075569D01*
X0081387Y0076155D01*
X0080476Y0076155D01*
X0080476Y0083040D01*
X0081258Y0083040D01*
X0082507Y0081791D01*
X0082507Y0079876D01*
X0083093Y0079290D01*
X0087858Y0079290D01*
X0088444Y0079876D01*
X0088444Y0085035D01*
X0087858Y0085621D01*
X0087769Y0085621D01*
X0087985Y0085679D01*
X0088304Y0085863D01*
X0088564Y0086124D01*
X0088749Y0086443D01*
X0088844Y0086799D01*
X0088844Y0088749D01*
X0085876Y0088749D01*
X0085876Y0089549D01*
X0085076Y0089549D01*
X0085076Y0092714D01*
X0083323Y0092714D01*
X0082967Y0092619D01*
X0082648Y0092434D01*
X0082387Y0092174D01*
X0082203Y0091854D01*
X0082107Y0091498D01*
X0082107Y0089549D01*
X0085076Y0089549D01*
X0085076Y0088749D01*
X0082107Y0088749D01*
X0082107Y0087595D01*
X0081276Y0087940D01*
X0080476Y0087940D01*
X0080476Y0094084D01*
X0081896Y0094084D01*
X0082482Y0094669D01*
X0082482Y0094758D01*
X0082540Y0094543D01*
X0082724Y0094224D01*
X0082985Y0093963D01*
X0083304Y0093779D01*
X0083660Y0093684D01*
X0085610Y0093684D01*
X0085610Y0096652D01*
X0086410Y0096652D01*
X0086410Y0097452D01*
X0089575Y0097452D01*
X0089575Y0099205D01*
X0089480Y0099561D01*
X0089295Y0099880D01*
X0089035Y0100141D01*
X0088715Y0100325D01*
X0088359Y0100421D01*
X0086410Y0100421D01*
X0086410Y0097452D01*
X0085610Y0097452D01*
X0085610Y0100421D01*
X0083660Y0100421D01*
X0083304Y0100325D01*
X0082985Y0100141D01*
X0082724Y0099880D01*
X0082540Y0099561D01*
X0082482Y0099346D01*
X0082482Y0099435D01*
X0082059Y0099858D01*
X0082240Y0100039D01*
X0082613Y0100940D01*
X0082613Y0101684D01*
X0083113Y0101477D01*
X0084088Y0101477D01*
X0084988Y0101850D01*
X0085678Y0102539D01*
X0086051Y0103440D01*
X0086051Y0104414D01*
X0085678Y0105315D01*
X0084988Y0106004D01*
X0084088Y0106377D01*
X0083113Y0106377D01*
X0082213Y0106004D01*
X0081536Y0105327D01*
X0080797Y0105327D01*
X0081051Y0105940D01*
X0081051Y0106914D01*
X0080678Y0107815D01*
X0080659Y0107834D01*
X0081896Y0107834D01*
X0082482Y0108419D01*
X0082482Y0108508D01*
X0082540Y0108293D01*
X0082724Y0107974D01*
X0082985Y0107713D01*
X0083304Y0107529D01*
X0083660Y0107434D01*
X0085610Y0107434D01*
X0085610Y0110402D01*
X0086410Y0110402D01*
X0086410Y0111202D01*
X0089575Y0111202D01*
X0089575Y0112955D01*
X0089480Y0113311D01*
X0089295Y0113630D01*
X0089035Y0113891D01*
X0088715Y0114075D01*
X0088359Y0114171D01*
X0086410Y0114171D01*
X0086410Y0111202D01*
X0085610Y0111202D01*
X0085610Y0114171D01*
X0083660Y0114171D01*
X0083304Y0114075D01*
X0082985Y0113891D01*
X0082724Y0113630D01*
X0082540Y0113311D01*
X0082482Y0113096D01*
X0082482Y0113185D01*
X0082188Y0113479D01*
X0082188Y0116237D01*
X0082865Y0116914D01*
X0083238Y0117815D01*
X0083238Y0118789D01*
X0082865Y0119690D01*
X0082176Y0120379D01*
X0081753Y0120554D01*
X0081863Y0120600D01*
X0082553Y0121289D01*
X0082926Y0122190D01*
X0082926Y0123164D01*
X0082553Y0124065D01*
X0081863Y0124754D01*
X0080963Y0125127D01*
X0080476Y0125127D01*
X0080476Y0136517D01*
X0080537Y0136412D01*
X0080797Y0136151D01*
X0081116Y0135967D01*
X0081472Y0135871D01*
X0083422Y0135871D01*
X0083422Y0138840D01*
X0084222Y0138840D01*
X0084222Y0139640D01*
X0083422Y0139640D01*
X0083422Y0142608D01*
X0081472Y0142608D01*
X0081116Y0142513D01*
X0080797Y0142328D01*
X0080537Y0142068D01*
X0080476Y0141962D01*
X0080476Y0144715D01*
X0087708Y0144715D01*
X0087713Y0144710D01*
X0087713Y0143752D01*
X0088086Y0142852D01*
X0088775Y0142163D01*
X0089676Y0141790D01*
X0090651Y0141790D01*
X0091551Y0142163D01*
X0092240Y0142852D01*
X0092613Y0143752D01*
X0092613Y0144727D01*
X0092240Y0145627D01*
X0091551Y0146317D01*
X0090651Y0146690D01*
X0089693Y0146690D01*
X0088868Y0147515D01*
X0080476Y0147515D01*
X0080476Y0150865D01*
X0088021Y0150865D01*
X0089491Y0151474D01*
X0090617Y0152599D01*
X0090951Y0153405D01*
X0090951Y0151160D01*
X0091771Y0150340D01*
X0102921Y0139190D01*
X0102400Y0139710D02*
X0087387Y0139710D01*
X0087387Y0139640D02*
X0087387Y0141392D01*
X0087292Y0141749D01*
X0087108Y0142068D01*
X0086847Y0142328D01*
X0086528Y0142513D01*
X0086172Y0142608D01*
X0084222Y0142608D01*
X0084222Y0139640D01*
X0087387Y0139640D01*
X0087387Y0138840D02*
X0084222Y0138840D01*
X0084222Y0135871D01*
X0086172Y0135871D01*
X0086528Y0135967D01*
X0086847Y0136151D01*
X0087108Y0136412D01*
X0087292Y0136731D01*
X0087387Y0137087D01*
X0087387Y0138840D01*
X0087387Y0138113D02*
X0096120Y0138113D01*
X0095321Y0137315D02*
X0087387Y0137315D01*
X0087168Y0136516D02*
X0094522Y0136516D01*
X0093724Y0135718D02*
X0080476Y0135718D01*
X0080476Y0136516D02*
X0080476Y0136516D01*
X0080476Y0134919D02*
X0092925Y0134919D01*
X0092201Y0134121D02*
X0080476Y0134121D01*
X0080476Y0133322D02*
X0092201Y0133322D01*
X0090654Y0132524D02*
X0089854Y0132524D01*
X0089854Y0131725D02*
X0090654Y0131725D01*
X0090654Y0130927D02*
X0089854Y0130927D01*
X0089854Y0130128D02*
X0090654Y0130128D01*
X0089854Y0129330D02*
X0080476Y0129330D01*
X0080476Y0130128D02*
X0086689Y0130128D01*
X0086689Y0130927D02*
X0080476Y0130927D01*
X0080476Y0131725D02*
X0086778Y0131725D01*
X0087590Y0132524D02*
X0080476Y0132524D01*
X0080476Y0128531D02*
X0086689Y0128531D01*
X0086689Y0127733D02*
X0080476Y0127733D01*
X0080476Y0126934D02*
X0086730Y0126934D01*
X0087256Y0126136D02*
X0080476Y0126136D01*
X0080476Y0125337D02*
X0092201Y0125337D01*
X0092201Y0124539D02*
X0082079Y0124539D01*
X0082687Y0123740D02*
X0090283Y0123740D01*
X0089150Y0122942D02*
X0082926Y0122942D01*
X0082906Y0122143D02*
X0088745Y0122143D01*
X0088651Y0121345D02*
X0082576Y0121345D01*
X0081773Y0120546D02*
X0088814Y0120546D01*
X0089315Y0119748D02*
X0082808Y0119748D01*
X0083172Y0118949D02*
X0089701Y0118949D01*
X0089701Y0118151D02*
X0083238Y0118151D01*
X0083046Y0117352D02*
X0089701Y0117352D01*
X0089701Y0116554D02*
X0082504Y0116554D01*
X0082188Y0115755D02*
X0089701Y0115755D01*
X0089701Y0114957D02*
X0082188Y0114957D01*
X0082188Y0114158D02*
X0083613Y0114158D01*
X0082568Y0113360D02*
X0082307Y0113360D01*
X0080788Y0112899D02*
X0079317Y0110802D01*
X0080788Y0112899D02*
X0080788Y0118302D01*
X0080628Y0118462D01*
X0074947Y0118462D01*
X0075476Y0114240D02*
X0074226Y0112990D01*
X0069866Y0112990D01*
X0066413Y0109865D02*
X0067976Y0108302D01*
X0069866Y0108302D01*
X0071101Y0107067D01*
X0072053Y0107067D01*
X0074226Y0104240D02*
X0076413Y0106427D01*
X0078601Y0106427D01*
X0080816Y0105374D02*
X0081583Y0105374D01*
X0081051Y0106173D02*
X0082620Y0106173D01*
X0082928Y0107770D02*
X0080696Y0107770D01*
X0081027Y0106971D02*
X0089701Y0106971D01*
X0089701Y0106173D02*
X0084581Y0106173D01*
X0085618Y0105374D02*
X0089701Y0105374D01*
X0089701Y0104576D02*
X0085984Y0104576D01*
X0086051Y0103777D02*
X0089701Y0103777D01*
X0089701Y0102979D02*
X0085860Y0102979D01*
X0085319Y0102180D02*
X0089701Y0102180D01*
X0089701Y0101382D02*
X0082613Y0101382D01*
X0082466Y0100583D02*
X0089701Y0100583D01*
X0089701Y0099785D02*
X0089350Y0099785D01*
X0089575Y0098986D02*
X0089701Y0098986D01*
X0089701Y0098188D02*
X0089575Y0098188D01*
X0089701Y0097389D02*
X0086410Y0097389D01*
X0086410Y0096652D02*
X0089575Y0096652D01*
X0089575Y0094899D01*
X0089480Y0094543D01*
X0089295Y0094224D01*
X0089035Y0093963D01*
X0088715Y0093779D01*
X0088359Y0093684D01*
X0086410Y0093684D01*
X0086410Y0096652D01*
X0086410Y0096591D02*
X0085610Y0096591D01*
X0085610Y0095792D02*
X0086410Y0095792D01*
X0086410Y0094994D02*
X0085610Y0094994D01*
X0085610Y0094195D02*
X0086410Y0094195D01*
X0085876Y0092714D02*
X0085876Y0089549D01*
X0088844Y0089549D01*
X0088844Y0091498D01*
X0088749Y0091854D01*
X0088564Y0092174D01*
X0088304Y0092434D01*
X0087985Y0092619D01*
X0087628Y0092714D01*
X0085876Y0092714D01*
X0085876Y0092598D02*
X0085076Y0092598D01*
X0085076Y0091800D02*
X0085876Y0091800D01*
X0085876Y0091001D02*
X0085076Y0091001D01*
X0085076Y0090203D02*
X0085876Y0090203D01*
X0085876Y0089404D02*
X0089701Y0089404D01*
X0089701Y0088606D02*
X0088844Y0088606D01*
X0088844Y0087807D02*
X0089701Y0087807D01*
X0089701Y0087009D02*
X0088844Y0087009D01*
X0088614Y0086210D02*
X0089701Y0086210D01*
X0089701Y0085412D02*
X0088068Y0085412D01*
X0088444Y0084613D02*
X0089701Y0084613D01*
X0089701Y0083815D02*
X0088444Y0083815D01*
X0088444Y0083016D02*
X0089701Y0083016D01*
X0089701Y0082218D02*
X0088444Y0082218D01*
X0088444Y0081419D02*
X0089701Y0081419D01*
X0089701Y0080621D02*
X0088444Y0080621D01*
X0088390Y0079822D02*
X0089701Y0079822D01*
X0089701Y0079024D02*
X0080476Y0079024D01*
X0080476Y0079822D02*
X0082561Y0079822D01*
X0082507Y0080621D02*
X0080476Y0080621D01*
X0080476Y0081419D02*
X0082507Y0081419D01*
X0082080Y0082218D02*
X0080476Y0082218D01*
X0080476Y0083016D02*
X0081282Y0083016D01*
X0080788Y0085490D02*
X0083822Y0082456D01*
X0085476Y0082456D01*
X0085297Y0076555D02*
X0083544Y0076555D01*
X0083188Y0076460D01*
X0082869Y0076275D01*
X0082608Y0076015D01*
X0082424Y0075695D01*
X0082329Y0075339D01*
X0082329Y0073390D01*
X0085297Y0073390D01*
X0085297Y0076555D01*
X0085297Y0075830D02*
X0086097Y0075830D01*
X0086097Y0076555D02*
X0086097Y0073390D01*
X0085297Y0073390D01*
X0085297Y0072590D01*
X0082329Y0072590D01*
X0082329Y0070640D01*
X0082424Y0070284D01*
X0082608Y0069965D01*
X0082869Y0069704D01*
X0083188Y0069520D01*
X0083544Y0069424D01*
X0085297Y0069424D01*
X0085297Y0072590D01*
X0086097Y0072590D01*
X0086097Y0073390D01*
X0089066Y0073390D01*
X0089066Y0075339D01*
X0088970Y0075695D01*
X0088786Y0076015D01*
X0088525Y0076275D01*
X0088206Y0076460D01*
X0087850Y0076555D01*
X0086097Y0076555D01*
X0086097Y0075031D02*
X0085297Y0075031D01*
X0085297Y0074232D02*
X0086097Y0074232D01*
X0086097Y0073434D02*
X0085297Y0073434D01*
X0085297Y0072635D02*
X0081973Y0072635D01*
X0081973Y0071837D02*
X0082329Y0071837D01*
X0082329Y0071038D02*
X0081973Y0071038D01*
X0081803Y0070240D02*
X0082449Y0070240D01*
X0083480Y0069441D02*
X0080476Y0069441D01*
X0080476Y0068643D02*
X0089701Y0068643D01*
X0089701Y0069441D02*
X0087914Y0069441D01*
X0087850Y0069424D02*
X0088206Y0069520D01*
X0088525Y0069704D01*
X0088786Y0069965D01*
X0088970Y0070284D01*
X0089066Y0070640D01*
X0089066Y0072590D01*
X0086097Y0072590D01*
X0086097Y0069424D01*
X0087850Y0069424D01*
X0088945Y0070240D02*
X0089701Y0070240D01*
X0089701Y0071038D02*
X0089066Y0071038D01*
X0089066Y0071837D02*
X0089701Y0071837D01*
X0089701Y0072635D02*
X0086097Y0072635D01*
X0086097Y0071837D02*
X0085297Y0071837D01*
X0085297Y0071038D02*
X0086097Y0071038D01*
X0086097Y0070240D02*
X0085297Y0070240D01*
X0085297Y0069441D02*
X0086097Y0069441D01*
X0089701Y0067844D02*
X0080476Y0067844D01*
X0080476Y0067046D02*
X0089701Y0067046D01*
X0089701Y0066247D02*
X0080476Y0066247D01*
X0080476Y0065449D02*
X0089701Y0065449D01*
X0089701Y0064650D02*
X0080476Y0064650D01*
X0080476Y0063852D02*
X0089358Y0063852D01*
X0091101Y0063615D02*
X0089226Y0061740D01*
X0075476Y0061740D01*
X0068601Y0054865D01*
X0087676Y0046285D02*
X0101791Y0046285D01*
X0124177Y0047882D02*
X0124899Y0047882D01*
X0124899Y0048680D02*
X0124177Y0048680D01*
X0124177Y0049479D02*
X0124899Y0049479D01*
X0125567Y0036702D02*
X0123509Y0036702D01*
X0124470Y0035904D02*
X0124607Y0035904D01*
X0124499Y0031300D02*
X0136326Y0031300D01*
X0136326Y0026659D01*
X0125715Y0026659D01*
X0125359Y0026754D01*
X0125039Y0026938D01*
X0124779Y0027199D01*
X0124594Y0027518D01*
X0124538Y0027728D01*
X0124482Y0027518D01*
X0124298Y0027199D01*
X0124037Y0026938D01*
X0123718Y0026754D01*
X0123362Y0026659D01*
X0112751Y0026659D01*
X0112751Y0031300D01*
X0124499Y0031300D01*
X0124219Y0027120D02*
X0124857Y0027120D01*
X0136326Y0027120D02*
X0137126Y0027120D01*
X0137126Y0027919D02*
X0136326Y0027919D01*
X0136326Y0028717D02*
X0137126Y0028717D01*
X0137126Y0029516D02*
X0136326Y0029516D01*
X0136326Y0030314D02*
X0137126Y0030314D01*
X0137126Y0031113D02*
X0136326Y0031113D01*
X0148952Y0032710D02*
X0161654Y0032710D01*
X0162452Y0033508D02*
X0148952Y0033508D01*
X0148952Y0034307D02*
X0163251Y0034307D01*
X0164049Y0035105D02*
X0148952Y0035105D01*
X0148845Y0035904D02*
X0164848Y0035904D01*
X0165646Y0036702D02*
X0147884Y0036702D01*
X0152235Y0046285D02*
X0175228Y0046285D01*
X0175526Y0047083D02*
X0152752Y0047083D01*
X0152926Y0047882D02*
X0175667Y0047882D01*
X0176139Y0048680D02*
X0152842Y0048680D01*
X0160229Y0049479D02*
X0177432Y0049479D01*
X0178520Y0049479D02*
X0181407Y0049479D01*
X0181380Y0049505D02*
X0181641Y0049244D01*
X0181960Y0049060D01*
X0182316Y0048965D01*
X0186901Y0048965D01*
X0186901Y0060965D01*
X0187701Y0060965D01*
X0187701Y0061765D01*
X0193501Y0061765D01*
X0193501Y0067035D01*
X0193646Y0066890D01*
X0195351Y0065185D01*
X0195351Y0049950D01*
X0195936Y0049365D01*
X0206365Y0049365D01*
X0206951Y0049950D01*
X0206951Y0072660D01*
X0208451Y0071160D01*
X0208451Y0066929D01*
X0207774Y0066252D01*
X0207401Y0065352D01*
X0207401Y0064377D01*
X0207774Y0063477D01*
X0208463Y0062788D01*
X0209363Y0062415D01*
X0210338Y0062415D01*
X0211238Y0062788D01*
X0211928Y0063477D01*
X0212301Y0064377D01*
X0212301Y0065352D01*
X0211928Y0066252D01*
X0211251Y0066929D01*
X0211251Y0069375D01*
X0211588Y0069038D01*
X0212488Y0068665D01*
X0213463Y0068665D01*
X0214363Y0069038D01*
X0215053Y0069727D01*
X0215426Y0070627D01*
X0215426Y0071585D01*
X0220056Y0076215D01*
X0227751Y0076215D01*
X0227751Y0075450D01*
X0228336Y0074865D01*
X0238765Y0074865D01*
X0239351Y0075450D01*
X0239351Y0079779D01*
X0238790Y0080340D01*
X0269271Y0080340D01*
X0272651Y0076960D01*
X0272651Y0066640D01*
X0266636Y0066640D01*
X0266051Y0066054D01*
X0266051Y0062425D01*
X0266636Y0061840D01*
X0272451Y0061840D01*
X0272451Y0061640D01*
X0266636Y0061640D01*
X0266051Y0061054D01*
X0266051Y0057425D01*
X0266636Y0056840D01*
X0272451Y0056840D01*
X0272451Y0056640D01*
X0266636Y0056640D01*
X0266051Y0056054D01*
X0266051Y0052425D01*
X0266636Y0051840D01*
X0272451Y0051840D01*
X0272451Y0046640D01*
X0266636Y0046640D01*
X0266051Y0046054D01*
X0266051Y0042425D01*
X0266636Y0041840D01*
X0272651Y0041840D01*
X0272651Y0041640D01*
X0266636Y0041640D01*
X0266051Y0041054D01*
X0266051Y0037425D01*
X0266636Y0036840D01*
X0281465Y0036840D01*
X0282051Y0037425D01*
X0282051Y0041054D01*
X0281465Y0041640D01*
X0275451Y0041640D01*
X0275451Y0041840D01*
X0281465Y0041840D01*
X0282051Y0042425D01*
X0282051Y0046054D01*
X0281465Y0046640D01*
X0275651Y0046640D01*
X0275651Y0051840D01*
X0281465Y0051840D01*
X0282051Y0052425D01*
X0282051Y0056054D01*
X0281465Y0056640D01*
X0275651Y0056640D01*
X0275651Y0056840D01*
X0281465Y0056840D01*
X0282051Y0057425D01*
X0282051Y0061054D01*
X0281465Y0061640D01*
X0275651Y0061640D01*
X0275651Y0061840D01*
X0281465Y0061840D01*
X0282051Y0062425D01*
X0282051Y0066054D01*
X0281465Y0066640D01*
X0275451Y0066640D01*
X0275451Y0078120D01*
X0274631Y0078940D01*
X0271251Y0082320D01*
X0270906Y0082665D01*
X0301216Y0082665D01*
X0301390Y0082491D01*
X0302419Y0082065D01*
X0303533Y0082065D01*
X0304562Y0082491D01*
X0305349Y0083279D01*
X0305776Y0084308D01*
X0305776Y0085422D01*
X0305349Y0086451D01*
X0304562Y0087238D01*
X0303533Y0087665D01*
X0302419Y0087665D01*
X0301390Y0087238D01*
X0301216Y0087065D01*
X0247637Y0087065D01*
X0227637Y0107065D01*
X0205358Y0107065D01*
X0203041Y0109382D01*
X0203041Y0111819D01*
X0202455Y0112405D01*
X0197689Y0112405D01*
X0197104Y0111819D01*
X0197104Y0106660D01*
X0197689Y0106074D01*
X0200126Y0106074D01*
X0202247Y0103953D01*
X0203536Y0102665D01*
X0225814Y0102665D01*
X0245339Y0083140D01*
X0206916Y0083140D01*
X0206238Y0083817D01*
X0205338Y0084190D01*
X0204363Y0084190D01*
X0203463Y0083817D01*
X0202774Y0083127D01*
X0202401Y0082227D01*
X0202401Y0081252D01*
X0202768Y0080365D01*
X0195936Y0080365D01*
X0195626Y0080054D01*
X0195626Y0082945D01*
X0188126Y0090445D01*
X0188126Y0100000D01*
X0188463Y0099663D01*
X0189363Y0099290D01*
X0190321Y0099290D01*
X0192604Y0097006D01*
X0192604Y0094905D01*
X0191621Y0094905D01*
X0191036Y0094319D01*
X0191036Y0089160D01*
X0191621Y0088574D01*
X0196387Y0088574D01*
X0196973Y0089160D01*
X0196973Y0094319D01*
X0196387Y0094905D01*
X0195404Y0094905D01*
X0195404Y0098166D01*
X0194584Y0098986D01*
X0192301Y0101270D01*
X0192301Y0102227D01*
X0191928Y0103127D01*
X0191238Y0103817D01*
X0190338Y0104190D01*
X0189363Y0104190D01*
X0188463Y0103817D01*
X0188126Y0103479D01*
X0188126Y0117102D01*
X0188463Y0117102D01*
X0189363Y0117475D01*
X0190053Y0118164D01*
X0190426Y0119065D01*
X0190426Y0120039D01*
X0190404Y0120091D01*
X0190404Y0122324D01*
X0191387Y0122324D01*
X0191973Y0122910D01*
X0191973Y0128069D01*
X0191387Y0128655D01*
X0190404Y0128655D01*
X0190404Y0130938D01*
X0195027Y0135561D01*
X0211060Y0135561D01*
X0211060Y0134578D01*
X0211646Y0133993D01*
X0216492Y0133993D01*
X0215736Y0133237D01*
X0211646Y0133237D01*
X0211060Y0132651D01*
X0211060Y0132468D01*
X0209343Y0132468D01*
X0208054Y0131179D01*
X0203289Y0126415D01*
X0203044Y0126415D01*
X0202015Y0125988D01*
X0201227Y0125201D01*
X0200801Y0124172D01*
X0200801Y0123497D01*
X0198666Y0125632D01*
X0198666Y0128069D01*
X0198080Y0128655D01*
X0193314Y0128655D01*
X0192729Y0128069D01*
X0192729Y0122910D01*
X0193314Y0122324D01*
X0195751Y0122324D01*
X0210098Y0107977D01*
X0212153Y0107977D01*
X0212327Y0107803D01*
X0213356Y0107377D01*
X0214470Y0107377D01*
X0215499Y0107803D01*
X0215673Y0107977D01*
X0229252Y0107977D01*
X0240814Y0096415D01*
X0273712Y0096415D01*
X0274762Y0097465D01*
X0281465Y0097465D01*
X0282051Y0098050D01*
X0282051Y0101679D01*
X0281574Y0102156D01*
X0281591Y0102160D01*
X0281910Y0102344D01*
X0282171Y0102605D01*
X0282355Y0102924D01*
X0282451Y0103280D01*
X0282451Y0104565D01*
X0274351Y0104565D01*
X0274351Y0105165D01*
X0282451Y0105165D01*
X0282451Y0106449D01*
X0282355Y0106805D01*
X0282171Y0107124D01*
X0281931Y0107365D01*
X0282171Y0107605D01*
X0282355Y0107924D01*
X0282451Y0108280D01*
X0282451Y0109565D01*
X0274351Y0109565D01*
X0274351Y0110165D01*
X0273751Y0110165D01*
X0273751Y0112665D01*
X0266866Y0112665D01*
X0266510Y0112569D01*
X0266191Y0112385D01*
X0265930Y0112124D01*
X0265746Y0111805D01*
X0265651Y0111449D01*
X0265651Y0110165D01*
X0273751Y0110165D01*
X0273751Y0109565D01*
X0265651Y0109565D01*
X0265651Y0108280D01*
X0265746Y0107924D01*
X0265930Y0107605D01*
X0266171Y0107365D01*
X0265930Y0107124D01*
X0265746Y0106805D01*
X0265651Y0106449D01*
X0265651Y0105165D01*
X0273751Y0105165D01*
X0273751Y0109565D01*
X0274351Y0109565D01*
X0274351Y0107065D01*
X0274351Y0105165D01*
X0273751Y0105165D01*
X0273751Y0104565D01*
X0265651Y0104565D01*
X0265651Y0103280D01*
X0265746Y0102924D01*
X0265930Y0102605D01*
X0266191Y0102344D01*
X0266510Y0102160D01*
X0266527Y0102156D01*
X0266051Y0101679D01*
X0266051Y0100815D01*
X0262726Y0100815D01*
X0262726Y0113215D01*
X0252126Y0113215D01*
X0252126Y0114015D01*
X0251326Y0114015D01*
X0251326Y0127715D01*
X0245437Y0127715D01*
X0245613Y0127788D01*
X0246291Y0128465D01*
X0261056Y0128465D01*
X0267306Y0134715D01*
X0293601Y0134715D01*
X0293601Y0088450D01*
X0294186Y0087865D01*
X0373015Y0087865D01*
X0373601Y0088450D01*
X0373601Y0141279D01*
X0373015Y0141865D01*
X0349559Y0141865D01*
X0349562Y0141866D01*
X0350349Y0142654D01*
X0350776Y0143683D01*
X0350776Y0144797D01*
X0350349Y0145826D01*
X0349562Y0146613D01*
X0348533Y0147040D01*
X0347419Y0147040D01*
X0346390Y0146613D01*
X0346216Y0146440D01*
X0278502Y0146440D01*
X0278738Y0146538D01*
X0279428Y0147227D01*
X0279801Y0148127D01*
X0279801Y0149085D01*
X0281681Y0150965D01*
X0314181Y0150965D01*
X0314206Y0150990D01*
X0373015Y0150990D01*
X0373601Y0151575D01*
X0373601Y0204404D01*
X0373015Y0204990D01*
X0294186Y0204990D01*
X0293601Y0204404D01*
X0293601Y0153765D01*
X0280521Y0153765D01*
X0279701Y0152945D01*
X0277821Y0151065D01*
X0276863Y0151065D01*
X0275963Y0150692D01*
X0275274Y0150002D01*
X0274901Y0149102D01*
X0274901Y0148127D01*
X0275274Y0147227D01*
X0275963Y0146538D01*
X0276199Y0146440D01*
X0275360Y0146440D01*
X0275187Y0146613D01*
X0274158Y0147040D01*
X0273044Y0147040D01*
X0272015Y0146613D01*
X0271227Y0145826D01*
X0270801Y0144797D01*
X0270801Y0143683D01*
X0271227Y0142654D01*
X0272015Y0141866D01*
X0273044Y0141440D01*
X0274158Y0141440D01*
X0275187Y0141866D01*
X0275360Y0142040D01*
X0346216Y0142040D01*
X0346390Y0141866D01*
X0346393Y0141865D01*
X0294186Y0141865D01*
X0293601Y0141279D01*
X0293601Y0137515D01*
X0266146Y0137515D01*
X0265326Y0136695D01*
X0259896Y0131265D01*
X0246291Y0131265D01*
X0246140Y0131415D01*
X0258887Y0131415D01*
X0260176Y0132703D01*
X0266426Y0138953D01*
X0266426Y0159578D01*
X0267437Y0160590D01*
X0281465Y0160590D01*
X0282051Y0161175D01*
X0282051Y0164804D01*
X0281465Y0165390D01*
X0266636Y0165390D01*
X0266436Y0165190D01*
X0265814Y0165190D01*
X0264526Y0163901D01*
X0262501Y0161876D01*
X0262501Y0163035D01*
X0266051Y0166585D01*
X0266051Y0166175D01*
X0266636Y0165590D01*
X0281465Y0165590D01*
X0282051Y0166175D01*
X0282051Y0169804D01*
X0281465Y0170390D01*
X0275651Y0170390D01*
X0275651Y0170590D01*
X0281465Y0170590D01*
X0282051Y0171175D01*
X0282051Y0174804D01*
X0281465Y0175390D01*
X0275651Y0175390D01*
X0275651Y0180590D01*
X0281465Y0180590D01*
X0282051Y0181175D01*
X0282051Y0184804D01*
X0281465Y0185390D01*
X0275651Y0185390D01*
X0275651Y0185590D01*
X0281465Y0185590D01*
X0282051Y0186175D01*
X0282051Y0189804D01*
X0281465Y0190390D01*
X0275651Y0190390D01*
X0275651Y0190590D01*
X0281465Y0190590D01*
X0282051Y0191175D01*
X0282051Y0194804D01*
X0281465Y0195390D01*
X0266636Y0195390D01*
X0266051Y0194804D01*
X0266051Y0191175D01*
X0266636Y0190590D01*
X0272451Y0190590D01*
X0272451Y0190390D01*
X0266636Y0190390D01*
X0266051Y0189804D01*
X0266051Y0186175D01*
X0266636Y0185590D01*
X0272451Y0185590D01*
X0272451Y0185390D01*
X0266636Y0185390D01*
X0266051Y0184804D01*
X0266051Y0181175D01*
X0266636Y0180590D01*
X0272451Y0180590D01*
X0272451Y0175390D01*
X0266636Y0175390D01*
X0266051Y0174804D01*
X0266051Y0171175D01*
X0266636Y0170590D01*
X0272451Y0170590D01*
X0272451Y0170390D01*
X0266636Y0170390D01*
X0266051Y0169804D01*
X0266051Y0169390D01*
X0264896Y0169390D01*
X0264076Y0168570D01*
X0259701Y0164195D01*
X0259701Y0142320D01*
X0255742Y0138361D01*
X0217391Y0138361D01*
X0217391Y0139344D01*
X0216805Y0139930D01*
X0211646Y0139930D01*
X0211060Y0139344D01*
X0211060Y0138361D01*
X0193867Y0138361D01*
X0188424Y0132918D01*
X0187604Y0132098D01*
X0187604Y0128655D01*
X0186621Y0128655D01*
X0186511Y0128544D01*
X0186251Y0128804D01*
X0186251Y0131160D01*
X0189806Y0134715D01*
X0190626Y0135535D01*
X0190626Y0138574D01*
X0192012Y0138574D01*
X0192598Y0139160D01*
X0192598Y0144319D01*
X0192012Y0144905D01*
X0187246Y0144905D01*
X0186661Y0144319D01*
X0186661Y0139160D01*
X0187246Y0138574D01*
X0187826Y0138574D01*
X0187826Y0136695D01*
X0183451Y0132320D01*
X0183451Y0128804D01*
X0182774Y0128127D01*
X0182401Y0127227D01*
X0182401Y0126252D01*
X0182774Y0125352D01*
X0183463Y0124663D01*
X0184363Y0124290D01*
X0185338Y0124290D01*
X0186036Y0124579D01*
X0186036Y0122910D01*
X0186621Y0122324D01*
X0187604Y0122324D01*
X0187604Y0122002D01*
X0187488Y0122002D01*
X0186588Y0121629D01*
X0185899Y0120940D01*
X0185526Y0120039D01*
X0185526Y0119082D01*
X0185326Y0118882D01*
X0185326Y0089285D01*
X0186146Y0088465D01*
X0192826Y0081785D01*
X0192826Y0080054D01*
X0192515Y0080365D01*
X0182086Y0080365D01*
X0181501Y0079779D01*
X0181501Y0078182D01*
X0180626Y0077307D01*
X0180626Y0136636D01*
X0180899Y0135977D01*
X0181588Y0135288D01*
X0182488Y0134915D01*
X0183463Y0134915D01*
X0184363Y0135288D01*
X0185053Y0135977D01*
X0185426Y0136877D01*
X0185426Y0137852D01*
X0185053Y0138752D01*
X0184376Y0139429D01*
X0184376Y0142410D01*
X0189518Y0147552D01*
X0189574Y0147497D01*
X0195127Y0147497D01*
X0195713Y0148082D01*
X0195713Y0152060D01*
X0195127Y0152646D01*
X0189574Y0152646D01*
X0188988Y0152060D01*
X0188988Y0150640D01*
X0188646Y0150640D01*
X0182396Y0144390D01*
X0181576Y0143570D01*
X0181576Y0139429D01*
X0180899Y0138752D01*
X0180626Y0138093D01*
X0180626Y0171261D01*
X0177608Y0174280D01*
X0177608Y0194777D01*
X0177022Y0195363D01*
X0166615Y0195363D01*
X0165426Y0196552D01*
X0165426Y0197227D01*
X0165053Y0198127D01*
X0164363Y0198817D01*
X0163463Y0199190D01*
X0162488Y0199190D01*
X0161588Y0198817D01*
X0160899Y0198127D01*
X0160526Y0197227D01*
X0160526Y0196252D01*
X0160899Y0195352D01*
X0161588Y0194663D01*
X0162488Y0194290D01*
X0163163Y0194290D01*
X0164978Y0192475D01*
X0164978Y0162452D01*
X0165563Y0161867D01*
X0177022Y0161867D01*
X0177608Y0162452D01*
X0177608Y0170320D01*
X0177826Y0170102D01*
X0177826Y0077632D01*
X0173451Y0073257D01*
X0173451Y0060054D01*
X0172774Y0059377D01*
X0172401Y0058477D01*
X0172401Y0057502D01*
X0172774Y0056602D01*
X0173463Y0055913D01*
X0174363Y0055540D01*
X0175338Y0055540D01*
X0176238Y0055913D01*
X0176928Y0056602D01*
X0177301Y0057502D01*
X0177301Y0058477D01*
X0176928Y0059377D01*
X0176251Y0060054D01*
X0176251Y0064687D01*
X0176275Y0064663D01*
X0177176Y0064290D01*
X0178151Y0064290D01*
X0179051Y0064663D01*
X0179740Y0065352D01*
X0180113Y0066252D01*
X0180113Y0067227D01*
X0179740Y0068127D01*
X0179063Y0068804D01*
X0179063Y0071785D01*
X0182143Y0074865D01*
X0192515Y0074865D01*
X0192826Y0075175D01*
X0192826Y0073563D01*
X0192641Y0073669D01*
X0192285Y0073765D01*
X0187701Y0073765D01*
X0187701Y0061765D01*
X0186901Y0061765D01*
X0186901Y0073765D01*
X0182316Y0073765D01*
X0181960Y0073669D01*
X0181641Y0073485D01*
X0181380Y0073224D01*
X0181196Y0072905D01*
X0181101Y0072549D01*
X0181101Y0061765D01*
X0186901Y0061765D01*
X0186901Y0060965D01*
X0181101Y0060965D01*
X0181101Y0050180D01*
X0181196Y0049824D01*
X0181380Y0049505D01*
X0181101Y0050277D02*
X0160701Y0050277D01*
X0160701Y0051076D02*
X0181101Y0051076D01*
X0181101Y0051874D02*
X0160701Y0051874D01*
X0160701Y0052673D02*
X0181101Y0052673D01*
X0181101Y0053471D02*
X0160701Y0053471D01*
X0160701Y0054270D02*
X0181101Y0054270D01*
X0181101Y0055068D02*
X0160701Y0055068D01*
X0160701Y0055867D02*
X0173574Y0055867D01*
X0172747Y0056665D02*
X0160701Y0056665D01*
X0160701Y0057464D02*
X0172417Y0057464D01*
X0172401Y0058262D02*
X0160701Y0058262D01*
X0160701Y0059061D02*
X0172642Y0059061D01*
X0173255Y0059859D02*
X0160701Y0059859D01*
X0160701Y0060658D02*
X0173451Y0060658D01*
X0173451Y0061456D02*
X0160701Y0061456D01*
X0160701Y0062255D02*
X0173451Y0062255D01*
X0173451Y0063053D02*
X0160701Y0063053D01*
X0160701Y0063852D02*
X0173451Y0063852D01*
X0173451Y0064650D02*
X0160701Y0064650D01*
X0160701Y0065449D02*
X0173451Y0065449D01*
X0173451Y0066247D02*
X0160701Y0066247D01*
X0160701Y0067046D02*
X0173451Y0067046D01*
X0173451Y0067844D02*
X0160701Y0067844D01*
X0160701Y0068643D02*
X0173451Y0068643D01*
X0173451Y0069441D02*
X0160701Y0069441D01*
X0160701Y0070240D02*
X0173451Y0070240D01*
X0173451Y0071038D02*
X0160701Y0071038D01*
X0160701Y0071837D02*
X0173451Y0071837D01*
X0173451Y0072635D02*
X0160701Y0072635D01*
X0160115Y0074865D02*
X0160701Y0075450D01*
X0160701Y0075965D01*
X0170286Y0075965D01*
X0170963Y0075288D01*
X0171863Y0074915D01*
X0172838Y0074915D01*
X0173738Y0075288D01*
X0174428Y0075977D01*
X0174801Y0076877D01*
X0174801Y0077852D01*
X0174428Y0078752D01*
X0173738Y0079442D01*
X0172838Y0079815D01*
X0171863Y0079815D01*
X0170963Y0079442D01*
X0170286Y0078765D01*
X0160701Y0078765D01*
X0160701Y0079779D01*
X0160115Y0080365D01*
X0149686Y0080365D01*
X0149101Y0079779D01*
X0149101Y0075450D01*
X0149686Y0074865D01*
X0160115Y0074865D01*
X0160281Y0075031D02*
X0171582Y0075031D01*
X0170421Y0075830D02*
X0160701Y0075830D01*
X0155151Y0077365D02*
X0154901Y0077615D01*
X0155151Y0077365D02*
X0172351Y0077365D01*
X0174801Y0077427D02*
X0177620Y0077427D01*
X0177826Y0078225D02*
X0174646Y0078225D01*
X0174157Y0079024D02*
X0177826Y0079024D01*
X0177826Y0079822D02*
X0160657Y0079822D01*
X0160701Y0079024D02*
X0170545Y0079024D01*
X0174697Y0076628D02*
X0176822Y0076628D01*
X0176023Y0075830D02*
X0174280Y0075830D01*
X0175225Y0075031D02*
X0173119Y0075031D01*
X0174426Y0074232D02*
X0148751Y0074232D01*
X0148751Y0073434D02*
X0173628Y0073434D01*
X0174851Y0072677D02*
X0179226Y0077052D01*
X0179226Y0170682D01*
X0171293Y0178615D01*
X0177608Y0178837D02*
X0185844Y0178837D01*
X0185844Y0178039D02*
X0177608Y0178039D01*
X0177608Y0177240D02*
X0185844Y0177240D01*
X0185844Y0176442D02*
X0177608Y0176442D01*
X0177608Y0175643D02*
X0185844Y0175643D01*
X0185844Y0174845D02*
X0177608Y0174845D01*
X0177841Y0174046D02*
X0185844Y0174046D01*
X0185844Y0173248D02*
X0178639Y0173248D01*
X0179438Y0172449D02*
X0185844Y0172449D01*
X0185844Y0171651D02*
X0180236Y0171651D01*
X0180626Y0170852D02*
X0185844Y0170852D01*
X0185844Y0170054D02*
X0180626Y0170054D01*
X0180626Y0169255D02*
X0185844Y0169255D01*
X0185844Y0168457D02*
X0180626Y0168457D01*
X0180626Y0167658D02*
X0185844Y0167658D01*
X0185844Y0166860D02*
X0180626Y0166860D01*
X0180626Y0166061D02*
X0185844Y0166061D01*
X0185844Y0165263D02*
X0180626Y0165263D01*
X0180626Y0164464D02*
X0185844Y0164464D01*
X0185844Y0163666D02*
X0180626Y0163666D01*
X0180626Y0162867D02*
X0185844Y0162867D01*
X0185844Y0162452D02*
X0186430Y0161867D01*
X0190744Y0161867D01*
X0190744Y0159733D01*
X0189574Y0159733D01*
X0189443Y0159602D01*
X0189443Y0159944D01*
X0188857Y0160530D01*
X0183698Y0160530D01*
X0183112Y0159944D01*
X0183112Y0154785D01*
X0183698Y0154199D01*
X0184878Y0154199D01*
X0184878Y0153565D01*
X0184363Y0153565D01*
X0183463Y0153192D01*
X0182774Y0152502D01*
X0182401Y0151602D01*
X0182401Y0150627D01*
X0182774Y0149727D01*
X0183463Y0149038D01*
X0184363Y0148665D01*
X0185338Y0148665D01*
X0186238Y0149038D01*
X0186928Y0149727D01*
X0187301Y0150627D01*
X0187301Y0151585D01*
X0187678Y0151962D01*
X0187678Y0154199D01*
X0188857Y0154199D01*
X0189408Y0154750D01*
X0189574Y0154583D01*
X0195127Y0154583D01*
X0195713Y0155169D01*
X0195713Y0159147D01*
X0195127Y0159733D01*
X0193544Y0159733D01*
X0193544Y0161867D01*
X0197888Y0161867D01*
X0198474Y0162452D01*
X0198474Y0194777D01*
X0197888Y0195363D01*
X0186430Y0195363D01*
X0185844Y0194777D01*
X0185844Y0162452D01*
X0186227Y0162069D02*
X0180626Y0162069D01*
X0180626Y0161270D02*
X0190744Y0161270D01*
X0190744Y0160472D02*
X0188916Y0160472D01*
X0189443Y0159673D02*
X0189515Y0159673D01*
X0192144Y0157365D02*
X0186278Y0157365D01*
X0186278Y0152542D01*
X0184851Y0151115D01*
X0187079Y0150091D02*
X0188097Y0150091D01*
X0187301Y0150890D02*
X0188988Y0150890D01*
X0188988Y0151688D02*
X0187404Y0151688D01*
X0187678Y0152487D02*
X0189415Y0152487D01*
X0187678Y0153285D02*
X0259701Y0153285D01*
X0259701Y0152487D02*
X0195287Y0152487D01*
X0195713Y0151688D02*
X0259701Y0151688D01*
X0259701Y0150890D02*
X0195713Y0150890D01*
X0195713Y0150091D02*
X0259701Y0150091D01*
X0259701Y0149293D02*
X0195713Y0149293D01*
X0195713Y0148494D02*
X0259701Y0148494D01*
X0259701Y0147696D02*
X0195326Y0147696D01*
X0197570Y0146098D02*
X0188064Y0146098D01*
X0187266Y0145300D02*
X0196771Y0145300D01*
X0196622Y0145151D02*
X0196376Y0144905D01*
X0193939Y0144905D01*
X0193354Y0144319D01*
X0193354Y0139160D01*
X0193939Y0138574D01*
X0198705Y0138574D01*
X0199291Y0139160D01*
X0199291Y0141597D01*
X0199733Y0142040D01*
X0246841Y0142040D01*
X0247015Y0141866D01*
X0248044Y0141440D01*
X0249158Y0141440D01*
X0250187Y0141866D01*
X0250974Y0142654D01*
X0251401Y0143683D01*
X0251401Y0144797D01*
X0250974Y0145826D01*
X0250187Y0146613D01*
X0249158Y0147040D01*
X0248044Y0147040D01*
X0247015Y0146613D01*
X0246841Y0146440D01*
X0197911Y0146440D01*
X0196622Y0145151D01*
X0193536Y0144501D02*
X0192415Y0144501D01*
X0192598Y0143703D02*
X0193354Y0143703D01*
X0193354Y0142904D02*
X0192598Y0142904D01*
X0192598Y0142106D02*
X0193354Y0142106D01*
X0193354Y0141307D02*
X0192598Y0141307D01*
X0192598Y0140509D02*
X0193354Y0140509D01*
X0193354Y0139710D02*
X0192598Y0139710D01*
X0192350Y0138912D02*
X0193602Y0138912D01*
X0193620Y0138113D02*
X0190626Y0138113D01*
X0190626Y0137315D02*
X0192821Y0137315D01*
X0192022Y0136516D02*
X0190626Y0136516D01*
X0190626Y0135718D02*
X0191224Y0135718D01*
X0190425Y0134919D02*
X0190010Y0134919D01*
X0189627Y0134121D02*
X0189212Y0134121D01*
X0188828Y0133322D02*
X0188413Y0133322D01*
X0188030Y0132524D02*
X0187615Y0132524D01*
X0187604Y0131725D02*
X0186816Y0131725D01*
X0186251Y0130927D02*
X0187604Y0130927D01*
X0187604Y0130128D02*
X0186251Y0130128D01*
X0186251Y0129330D02*
X0187604Y0129330D01*
X0189004Y0131518D02*
X0189004Y0125490D01*
X0189004Y0120581D01*
X0187976Y0119552D01*
X0186726Y0118302D01*
X0186726Y0089865D01*
X0194226Y0082365D01*
X0194226Y0068290D01*
X0201151Y0061365D01*
X0206951Y0061456D02*
X0233151Y0061456D01*
X0233151Y0061765D02*
X0233151Y0060965D01*
X0227351Y0060965D01*
X0227351Y0050180D01*
X0227446Y0049824D01*
X0227630Y0049505D01*
X0227891Y0049244D01*
X0228210Y0049060D01*
X0228566Y0048965D01*
X0233151Y0048965D01*
X0233151Y0060965D01*
X0233951Y0060965D01*
X0233951Y0048965D01*
X0238535Y0048965D01*
X0238891Y0049060D01*
X0239210Y0049244D01*
X0239251Y0049285D01*
X0239251Y0038000D01*
X0239836Y0037415D01*
X0259865Y0037415D01*
X0260451Y0038000D01*
X0260451Y0064229D01*
X0259865Y0064815D01*
X0239836Y0064815D01*
X0239751Y0064729D01*
X0239751Y0072549D01*
X0239655Y0072905D01*
X0239471Y0073224D01*
X0239210Y0073485D01*
X0238891Y0073669D01*
X0238535Y0073765D01*
X0233951Y0073765D01*
X0233951Y0061765D01*
X0233151Y0061765D01*
X0233151Y0073765D01*
X0228566Y0073765D01*
X0228210Y0073669D01*
X0227891Y0073485D01*
X0227630Y0073224D01*
X0227446Y0072905D01*
X0227351Y0072549D01*
X0227351Y0061765D01*
X0233151Y0061765D01*
X0233151Y0062255D02*
X0233951Y0062255D01*
X0233951Y0063053D02*
X0233151Y0063053D01*
X0233151Y0063852D02*
X0233951Y0063852D01*
X0233951Y0064650D02*
X0233151Y0064650D01*
X0233151Y0065449D02*
X0233951Y0065449D01*
X0233951Y0066247D02*
X0233151Y0066247D01*
X0233151Y0067046D02*
X0233951Y0067046D01*
X0233951Y0067844D02*
X0233151Y0067844D01*
X0233151Y0068643D02*
X0233951Y0068643D01*
X0233951Y0069441D02*
X0233151Y0069441D01*
X0233151Y0070240D02*
X0233951Y0070240D01*
X0233951Y0071038D02*
X0233151Y0071038D01*
X0233151Y0071837D02*
X0233951Y0071837D01*
X0233951Y0072635D02*
X0233151Y0072635D01*
X0233151Y0073434D02*
X0233951Y0073434D01*
X0228170Y0075031D02*
X0218872Y0075031D01*
X0219670Y0075830D02*
X0227751Y0075830D01*
X0227840Y0073434D02*
X0217275Y0073434D01*
X0218073Y0074232D02*
X0272651Y0074232D01*
X0272651Y0073434D02*
X0239261Y0073434D01*
X0239727Y0072635D02*
X0272651Y0072635D01*
X0272651Y0071837D02*
X0239751Y0071837D01*
X0239751Y0071038D02*
X0272651Y0071038D01*
X0272651Y0070240D02*
X0239751Y0070240D01*
X0239751Y0069441D02*
X0272651Y0069441D01*
X0272651Y0068643D02*
X0239751Y0068643D01*
X0239751Y0067844D02*
X0272651Y0067844D01*
X0272651Y0067046D02*
X0239751Y0067046D01*
X0239751Y0066247D02*
X0266244Y0066247D01*
X0266051Y0065449D02*
X0239751Y0065449D01*
X0233951Y0060658D02*
X0233151Y0060658D01*
X0233151Y0059859D02*
X0233951Y0059859D01*
X0233951Y0059061D02*
X0233151Y0059061D01*
X0233151Y0058262D02*
X0233951Y0058262D01*
X0233951Y0057464D02*
X0233151Y0057464D01*
X0233151Y0056665D02*
X0233951Y0056665D01*
X0233951Y0055867D02*
X0233151Y0055867D01*
X0233151Y0055068D02*
X0233951Y0055068D01*
X0233951Y0054270D02*
X0233151Y0054270D01*
X0233151Y0053471D02*
X0233951Y0053471D01*
X0233951Y0052673D02*
X0233151Y0052673D01*
X0233151Y0051874D02*
X0233951Y0051874D01*
X0233951Y0051076D02*
X0233151Y0051076D01*
X0233151Y0050277D02*
X0233951Y0050277D01*
X0233951Y0049479D02*
X0233151Y0049479D01*
X0227657Y0049479D02*
X0206479Y0049479D01*
X0206951Y0050277D02*
X0227351Y0050277D01*
X0227351Y0051076D02*
X0206951Y0051076D01*
X0206951Y0051874D02*
X0227351Y0051874D01*
X0227351Y0052673D02*
X0206951Y0052673D01*
X0206951Y0053471D02*
X0227351Y0053471D01*
X0227351Y0054270D02*
X0206951Y0054270D01*
X0206951Y0055068D02*
X0227351Y0055068D01*
X0227351Y0055867D02*
X0206951Y0055867D01*
X0206951Y0056665D02*
X0227351Y0056665D01*
X0227351Y0057464D02*
X0206951Y0057464D01*
X0206951Y0058262D02*
X0227351Y0058262D01*
X0227351Y0059061D02*
X0206951Y0059061D01*
X0206951Y0059859D02*
X0227351Y0059859D01*
X0227351Y0060658D02*
X0206951Y0060658D01*
X0206951Y0062255D02*
X0227351Y0062255D01*
X0227351Y0063053D02*
X0211504Y0063053D01*
X0212083Y0063852D02*
X0227351Y0063852D01*
X0227351Y0064650D02*
X0212301Y0064650D01*
X0212261Y0065449D02*
X0227351Y0065449D01*
X0227351Y0066247D02*
X0211930Y0066247D01*
X0211251Y0067046D02*
X0227351Y0067046D01*
X0227351Y0067844D02*
X0211251Y0067844D01*
X0211251Y0068643D02*
X0227351Y0068643D01*
X0227351Y0069441D02*
X0214767Y0069441D01*
X0215265Y0070240D02*
X0227351Y0070240D01*
X0227351Y0071038D02*
X0215426Y0071038D01*
X0215678Y0071837D02*
X0227351Y0071837D01*
X0227374Y0072635D02*
X0216476Y0072635D01*
X0212976Y0071115D02*
X0219476Y0077615D01*
X0233551Y0077615D01*
X0239351Y0077427D02*
X0272184Y0077427D01*
X0272651Y0076628D02*
X0239351Y0076628D01*
X0239351Y0075830D02*
X0272651Y0075830D01*
X0272651Y0075031D02*
X0238931Y0075031D01*
X0239351Y0078225D02*
X0271385Y0078225D01*
X0270587Y0079024D02*
X0239351Y0079024D01*
X0239307Y0079822D02*
X0269788Y0079822D01*
X0269851Y0081740D02*
X0204851Y0081740D01*
X0202662Y0080621D02*
X0195626Y0080621D01*
X0195626Y0081419D02*
X0202401Y0081419D01*
X0202401Y0082218D02*
X0195626Y0082218D01*
X0195554Y0083016D02*
X0202728Y0083016D01*
X0203461Y0083815D02*
X0194756Y0083815D01*
X0193957Y0084613D02*
X0243866Y0084613D01*
X0244664Y0083815D02*
X0206241Y0083815D01*
X0203080Y0088574D02*
X0198314Y0088574D01*
X0197729Y0089160D01*
X0197729Y0094319D01*
X0198314Y0094905D01*
X0203080Y0094905D01*
X0203666Y0094319D01*
X0203666Y0093940D01*
X0229341Y0093940D01*
X0229515Y0094113D01*
X0230544Y0094540D01*
X0231658Y0094540D01*
X0232687Y0094113D01*
X0233474Y0093326D01*
X0233901Y0092297D01*
X0233901Y0091183D01*
X0233474Y0090154D01*
X0232687Y0089366D01*
X0231658Y0088940D01*
X0230544Y0088940D01*
X0229515Y0089366D01*
X0229341Y0089540D01*
X0203666Y0089540D01*
X0203666Y0089160D01*
X0203080Y0088574D01*
X0203111Y0088606D02*
X0239873Y0088606D01*
X0239075Y0089404D02*
X0232725Y0089404D01*
X0233495Y0090203D02*
X0238276Y0090203D01*
X0237478Y0091001D02*
X0233825Y0091001D01*
X0233901Y0091800D02*
X0236679Y0091800D01*
X0235881Y0092598D02*
X0233776Y0092598D01*
X0233403Y0093397D02*
X0235082Y0093397D01*
X0234284Y0094195D02*
X0232489Y0094195D01*
X0233485Y0094994D02*
X0195404Y0094994D01*
X0195404Y0095792D02*
X0232687Y0095792D01*
X0231888Y0096591D02*
X0195404Y0096591D01*
X0195404Y0097389D02*
X0231090Y0097389D01*
X0230291Y0098188D02*
X0195382Y0098188D01*
X0194584Y0098986D02*
X0229493Y0098986D01*
X0228694Y0099785D02*
X0193785Y0099785D01*
X0192987Y0100583D02*
X0227896Y0100583D01*
X0227097Y0101382D02*
X0192301Y0101382D01*
X0192301Y0102180D02*
X0226299Y0102180D01*
X0229327Y0105374D02*
X0231855Y0105374D01*
X0232653Y0104576D02*
X0230126Y0104576D01*
X0230924Y0103777D02*
X0233452Y0103777D01*
X0234250Y0102979D02*
X0231723Y0102979D01*
X0232521Y0102180D02*
X0235049Y0102180D01*
X0235847Y0101382D02*
X0233320Y0101382D01*
X0234118Y0100583D02*
X0236646Y0100583D01*
X0237444Y0099785D02*
X0234917Y0099785D01*
X0235715Y0098986D02*
X0238243Y0098986D01*
X0239041Y0098188D02*
X0236514Y0098188D01*
X0237312Y0097389D02*
X0239840Y0097389D01*
X0240638Y0096591D02*
X0238111Y0096591D01*
X0238909Y0095792D02*
X0293601Y0095792D01*
X0293601Y0094994D02*
X0239708Y0094994D01*
X0240506Y0094195D02*
X0293601Y0094195D01*
X0293601Y0093397D02*
X0241305Y0093397D01*
X0242103Y0092598D02*
X0293601Y0092598D01*
X0293601Y0091800D02*
X0242902Y0091800D01*
X0243700Y0091001D02*
X0293601Y0091001D01*
X0293601Y0090203D02*
X0244499Y0090203D01*
X0245297Y0089404D02*
X0293601Y0089404D01*
X0293601Y0088606D02*
X0246096Y0088606D01*
X0246894Y0087807D02*
X0380476Y0087807D01*
X0380476Y0087009D02*
X0304791Y0087009D01*
X0305449Y0086210D02*
X0380476Y0086210D01*
X0380476Y0085412D02*
X0305776Y0085412D01*
X0305776Y0084613D02*
X0380476Y0084613D01*
X0380476Y0083815D02*
X0305571Y0083815D01*
X0305087Y0083016D02*
X0380476Y0083016D01*
X0380476Y0082218D02*
X0303902Y0082218D01*
X0302050Y0082218D02*
X0281822Y0082218D01*
X0281588Y0082315D02*
X0280613Y0082315D01*
X0279713Y0081942D01*
X0279024Y0081252D01*
X0278651Y0080352D01*
X0278651Y0079377D01*
X0279024Y0078477D01*
X0279713Y0077788D01*
X0280613Y0077415D01*
X0281571Y0077415D01*
X0293601Y0065385D01*
X0293601Y0022825D01*
X0294186Y0022240D01*
X0373015Y0022240D01*
X0373601Y0022825D01*
X0373601Y0075654D01*
X0373015Y0076240D01*
X0294186Y0076240D01*
X0293601Y0075654D01*
X0293601Y0069345D01*
X0283551Y0079395D01*
X0283551Y0080352D01*
X0283178Y0081252D01*
X0282488Y0081942D01*
X0281588Y0082315D01*
X0280379Y0082218D02*
X0271353Y0082218D01*
X0272151Y0081419D02*
X0279190Y0081419D01*
X0278762Y0080621D02*
X0272950Y0080621D01*
X0273748Y0079822D02*
X0278651Y0079822D01*
X0278797Y0079024D02*
X0274547Y0079024D01*
X0275345Y0078225D02*
X0279275Y0078225D01*
X0280585Y0077427D02*
X0275451Y0077427D01*
X0275451Y0076628D02*
X0282357Y0076628D01*
X0283156Y0075830D02*
X0275451Y0075830D01*
X0275451Y0075031D02*
X0283954Y0075031D01*
X0284753Y0074232D02*
X0275451Y0074232D01*
X0275451Y0073434D02*
X0285551Y0073434D01*
X0286350Y0072635D02*
X0275451Y0072635D01*
X0275451Y0071837D02*
X0287148Y0071837D01*
X0287947Y0071038D02*
X0275451Y0071038D01*
X0275451Y0070240D02*
X0288746Y0070240D01*
X0289544Y0069441D02*
X0275451Y0069441D01*
X0275451Y0068643D02*
X0290343Y0068643D01*
X0291141Y0067844D02*
X0275451Y0067844D01*
X0275451Y0067046D02*
X0291940Y0067046D01*
X0292738Y0066247D02*
X0281857Y0066247D01*
X0282051Y0065449D02*
X0293537Y0065449D01*
X0293601Y0064650D02*
X0282051Y0064650D01*
X0282051Y0063852D02*
X0293601Y0063852D01*
X0293601Y0063053D02*
X0282051Y0063053D01*
X0281880Y0062255D02*
X0293601Y0062255D01*
X0293601Y0061456D02*
X0281648Y0061456D01*
X0282051Y0060658D02*
X0293601Y0060658D01*
X0293601Y0059859D02*
X0282051Y0059859D01*
X0282051Y0059061D02*
X0293601Y0059061D01*
X0293601Y0058262D02*
X0282051Y0058262D01*
X0282051Y0057464D02*
X0293601Y0057464D01*
X0293601Y0056665D02*
X0275651Y0056665D01*
X0272451Y0056665D02*
X0260451Y0056665D01*
X0260451Y0055867D02*
X0266051Y0055867D01*
X0266051Y0055068D02*
X0260451Y0055068D01*
X0260451Y0054270D02*
X0266051Y0054270D01*
X0266051Y0053471D02*
X0260451Y0053471D01*
X0260451Y0052673D02*
X0266051Y0052673D01*
X0266602Y0051874D02*
X0260451Y0051874D01*
X0260451Y0051076D02*
X0272451Y0051076D01*
X0272451Y0050277D02*
X0260451Y0050277D01*
X0260451Y0049479D02*
X0272451Y0049479D01*
X0272451Y0048680D02*
X0260451Y0048680D01*
X0260451Y0047882D02*
X0272451Y0047882D01*
X0272451Y0047083D02*
X0260451Y0047083D01*
X0260451Y0046285D02*
X0266281Y0046285D01*
X0266051Y0045486D02*
X0260451Y0045486D01*
X0260451Y0044688D02*
X0266051Y0044688D01*
X0266051Y0043889D02*
X0260451Y0043889D01*
X0260451Y0043091D02*
X0266051Y0043091D01*
X0266184Y0042292D02*
X0260451Y0042292D01*
X0260451Y0041494D02*
X0266490Y0041494D01*
X0266051Y0040695D02*
X0260451Y0040695D01*
X0260451Y0039896D02*
X0266051Y0039896D01*
X0266051Y0039098D02*
X0260451Y0039098D01*
X0260451Y0038299D02*
X0266051Y0038299D01*
X0266051Y0037501D02*
X0259951Y0037501D01*
X0266051Y0036054D02*
X0266051Y0032690D01*
X0239512Y0032690D01*
X0228276Y0043926D01*
X0228276Y0044172D01*
X0227849Y0045201D01*
X0227062Y0045988D01*
X0226033Y0046415D01*
X0224919Y0046415D01*
X0223890Y0045988D01*
X0223102Y0045201D01*
X0222676Y0044172D01*
X0222676Y0043058D01*
X0223102Y0042029D01*
X0223890Y0041241D01*
X0224919Y0040815D01*
X0225164Y0040815D01*
X0237689Y0028290D01*
X0271212Y0028290D01*
X0272501Y0029578D01*
X0274762Y0031840D01*
X0281465Y0031840D01*
X0282051Y0032425D01*
X0282051Y0036054D01*
X0281465Y0036640D01*
X0266636Y0036640D01*
X0266051Y0036054D01*
X0266051Y0035904D02*
X0236298Y0035904D01*
X0237096Y0035105D02*
X0266051Y0035105D01*
X0266051Y0034307D02*
X0237895Y0034307D01*
X0238693Y0033508D02*
X0266051Y0033508D01*
X0266051Y0032710D02*
X0239492Y0032710D01*
X0235665Y0030314D02*
X0220799Y0030314D01*
X0221951Y0029516D02*
X0236463Y0029516D01*
X0237262Y0028717D02*
X0222750Y0028717D01*
X0223301Y0027919D02*
X0293601Y0027919D01*
X0293601Y0028717D02*
X0271640Y0028717D01*
X0272438Y0029516D02*
X0293601Y0029516D01*
X0293601Y0030314D02*
X0273237Y0030314D01*
X0274035Y0031113D02*
X0293601Y0031113D01*
X0293601Y0031911D02*
X0281537Y0031911D01*
X0282051Y0032710D02*
X0293601Y0032710D01*
X0293601Y0033508D02*
X0282051Y0033508D01*
X0282051Y0034307D02*
X0293601Y0034307D01*
X0293601Y0035105D02*
X0282051Y0035105D01*
X0282051Y0035904D02*
X0293601Y0035904D01*
X0293601Y0036702D02*
X0235499Y0036702D01*
X0234701Y0037501D02*
X0239750Y0037501D01*
X0239251Y0038299D02*
X0233902Y0038299D01*
X0233104Y0039098D02*
X0239251Y0039098D01*
X0239251Y0039896D02*
X0232305Y0039896D01*
X0231507Y0040695D02*
X0239251Y0040695D01*
X0239251Y0041494D02*
X0230708Y0041494D01*
X0229910Y0042292D02*
X0239251Y0042292D01*
X0239251Y0043091D02*
X0229111Y0043091D01*
X0228313Y0043889D02*
X0239251Y0043889D01*
X0239251Y0044688D02*
X0228062Y0044688D01*
X0227564Y0045486D02*
X0239251Y0045486D01*
X0239251Y0046285D02*
X0226347Y0046285D01*
X0224605Y0046285D02*
X0208851Y0046285D01*
X0208851Y0047083D02*
X0239251Y0047083D01*
X0239251Y0047882D02*
X0208811Y0047882D01*
X0208851Y0045486D02*
X0223387Y0045486D01*
X0222889Y0044688D02*
X0208851Y0044688D01*
X0208851Y0043889D02*
X0222676Y0043889D01*
X0222676Y0043091D02*
X0208851Y0043091D01*
X0208851Y0042292D02*
X0222993Y0042292D01*
X0223637Y0041494D02*
X0208851Y0041494D01*
X0208851Y0040695D02*
X0225284Y0040695D01*
X0239251Y0048680D02*
X0179813Y0048680D01*
X0180284Y0047882D02*
X0186076Y0047882D01*
X0185080Y0047083D02*
X0180426Y0047083D01*
X0180310Y0046285D02*
X0184394Y0046285D01*
X0184063Y0045486D02*
X0179874Y0045486D01*
X0177976Y0047052D02*
X0150476Y0019552D01*
X0054851Y0019552D01*
X0052351Y0022052D01*
X0052351Y0157365D01*
X0055788Y0160802D01*
X0063913Y0160802D01*
X0069226Y0166115D01*
X0069226Y0169540D01*
X0069226Y0184018D01*
X0070385Y0185177D01*
X0074226Y0182586D02*
X0076817Y0185177D01*
X0074226Y0182586D02*
X0074226Y0169540D01*
X0080476Y0169255D02*
X0151354Y0169255D01*
X0151354Y0168457D02*
X0121506Y0168457D01*
X0122589Y0167658D02*
X0151354Y0167658D01*
X0151354Y0166860D02*
X0123229Y0166860D01*
X0123560Y0166061D02*
X0151354Y0166061D01*
X0151354Y0165263D02*
X0123726Y0165263D01*
X0123726Y0164464D02*
X0151354Y0164464D01*
X0151354Y0163666D02*
X0123559Y0163666D01*
X0123228Y0162867D02*
X0151354Y0162867D01*
X0151354Y0162069D02*
X0122587Y0162069D01*
X0116726Y0164865D02*
X0109226Y0157365D01*
X0107351Y0157365D02*
X0099851Y0164865D01*
X0095076Y0161270D02*
X0089800Y0161270D01*
X0090087Y0162069D02*
X0093990Y0162069D01*
X0093348Y0162867D02*
X0090728Y0162867D01*
X0091059Y0163666D02*
X0093018Y0163666D01*
X0092851Y0164464D02*
X0091226Y0164464D01*
X0091226Y0165263D02*
X0092851Y0165263D01*
X0093017Y0166061D02*
X0091060Y0166061D01*
X0090729Y0166860D02*
X0093348Y0166860D01*
X0093987Y0167658D02*
X0090089Y0167658D01*
X0089006Y0168457D02*
X0095070Y0168457D01*
X0096055Y0170865D02*
X0103646Y0170865D01*
X0105116Y0171474D01*
X0106242Y0172599D01*
X0106851Y0174069D01*
X0106851Y0175660D01*
X0106242Y0177130D01*
X0105116Y0178256D01*
X0103646Y0178865D01*
X0096055Y0178865D01*
X0094585Y0178256D01*
X0093460Y0177130D01*
X0092851Y0175660D01*
X0092851Y0174069D01*
X0093460Y0172599D01*
X0094585Y0171474D01*
X0096055Y0170865D01*
X0094408Y0171651D02*
X0089669Y0171651D01*
X0090467Y0172449D02*
X0093609Y0172449D01*
X0093191Y0173248D02*
X0090886Y0173248D01*
X0091216Y0174046D02*
X0092860Y0174046D01*
X0092851Y0174845D02*
X0091226Y0174845D01*
X0091226Y0175643D02*
X0092851Y0175643D01*
X0093174Y0176442D02*
X0090902Y0176442D01*
X0090507Y0177240D02*
X0093570Y0177240D01*
X0094368Y0178039D02*
X0089708Y0178039D01*
X0088087Y0178837D02*
X0095989Y0178837D01*
X0103712Y0178837D02*
X0112864Y0178837D01*
X0112930Y0178865D02*
X0111460Y0178256D01*
X0110335Y0177130D01*
X0109726Y0175660D01*
X0109726Y0174069D01*
X0110335Y0172599D01*
X0111460Y0171474D01*
X0112930Y0170865D01*
X0120521Y0170865D01*
X0121991Y0171474D01*
X0123117Y0172599D01*
X0123726Y0174069D01*
X0123726Y0175660D01*
X0123117Y0177130D01*
X0121991Y0178256D01*
X0120521Y0178865D01*
X0112930Y0178865D01*
X0111243Y0178039D02*
X0105333Y0178039D01*
X0106132Y0177240D02*
X0110445Y0177240D01*
X0110049Y0176442D02*
X0106527Y0176442D01*
X0106851Y0175643D02*
X0109726Y0175643D01*
X0109726Y0174845D02*
X0106851Y0174845D01*
X0106841Y0174046D02*
X0109735Y0174046D01*
X0110066Y0173248D02*
X0106511Y0173248D01*
X0106092Y0172449D02*
X0110484Y0172449D01*
X0111283Y0171651D02*
X0105294Y0171651D01*
X0104631Y0168457D02*
X0111945Y0168457D01*
X0110862Y0167658D02*
X0105714Y0167658D01*
X0106354Y0166860D02*
X0110223Y0166860D01*
X0109892Y0166061D02*
X0106685Y0166061D01*
X0106851Y0165263D02*
X0109726Y0165263D01*
X0109726Y0164464D02*
X0106851Y0164464D01*
X0106684Y0163666D02*
X0109893Y0163666D01*
X0110223Y0162867D02*
X0106353Y0162867D01*
X0105712Y0162069D02*
X0110865Y0162069D01*
X0111151Y0161270D02*
X0105425Y0161270D01*
X0103062Y0159673D02*
X0091397Y0159673D01*
X0092196Y0158875D02*
X0103861Y0158875D01*
X0102264Y0160472D02*
X0090599Y0160472D01*
X0092994Y0158076D02*
X0094405Y0158076D01*
X0092351Y0156740D02*
X0092351Y0151740D01*
X0105476Y0138615D01*
X0105476Y0128615D01*
X0110476Y0123615D01*
X0132351Y0123615D01*
X0132338Y0114957D02*
X0120758Y0114957D01*
X0118154Y0114957D02*
X0117354Y0114957D01*
X0117354Y0115755D02*
X0118154Y0115755D01*
X0118154Y0116554D02*
X0117354Y0116554D01*
X0117354Y0117352D02*
X0118154Y0117352D01*
X0118154Y0118151D02*
X0117354Y0118151D01*
X0117354Y0118949D02*
X0113637Y0118949D01*
X0113637Y0118390D02*
X0113637Y0120142D01*
X0113542Y0120499D01*
X0113358Y0120818D01*
X0113097Y0121078D01*
X0112778Y0121263D01*
X0112422Y0121358D01*
X0110472Y0121358D01*
X0110472Y0118390D01*
X0113637Y0118390D01*
X0113795Y0118151D02*
X0110472Y0118151D01*
X0110472Y0117590D02*
X0113637Y0117590D01*
X0113637Y0115837D01*
X0113542Y0115481D01*
X0113358Y0115162D01*
X0113097Y0114901D01*
X0112778Y0114717D01*
X0112422Y0114621D01*
X0110472Y0114621D01*
X0110472Y0117590D01*
X0110472Y0117352D02*
X0109672Y0117352D01*
X0109672Y0116554D02*
X0110472Y0116554D01*
X0110472Y0115755D02*
X0109672Y0115755D01*
X0109672Y0114957D02*
X0110472Y0114957D01*
X0113153Y0114957D02*
X0114751Y0114957D01*
X0113888Y0115755D02*
X0113616Y0115755D01*
X0113637Y0116554D02*
X0113795Y0116554D01*
X0113795Y0117352D02*
X0113637Y0117352D01*
X0113637Y0119748D02*
X0113795Y0119748D01*
X0113795Y0120546D02*
X0113515Y0120546D01*
X0113795Y0121345D02*
X0112472Y0121345D01*
X0113795Y0122143D02*
X0103751Y0122143D01*
X0103751Y0121345D02*
X0107672Y0121345D01*
X0106630Y0120546D02*
X0106371Y0120546D01*
X0109672Y0120546D02*
X0110472Y0120546D01*
X0110472Y0119748D02*
X0109672Y0119748D01*
X0109672Y0118949D02*
X0110472Y0118949D01*
X0110472Y0121345D02*
X0109672Y0121345D01*
X0109169Y0122942D02*
X0104465Y0122942D01*
X0104796Y0123740D02*
X0108370Y0123740D01*
X0109076Y0123035D02*
X0109076Y0123035D01*
X0107572Y0124539D02*
X0104801Y0124539D01*
X0104548Y0125337D02*
X0106773Y0125337D01*
X0105975Y0126136D02*
X0103919Y0126136D01*
X0105176Y0126934D02*
X0100112Y0126934D01*
X0100112Y0127733D02*
X0104378Y0127733D01*
X0104076Y0128531D02*
X0100112Y0128531D01*
X0100112Y0129330D02*
X0104076Y0129330D01*
X0104076Y0130128D02*
X0100112Y0130128D01*
X0100112Y0130927D02*
X0104076Y0130927D01*
X0104076Y0131725D02*
X0100010Y0131725D01*
X0101331Y0134919D02*
X0096885Y0134919D01*
X0096087Y0134121D02*
X0104076Y0134121D01*
X0104076Y0133322D02*
X0095288Y0133322D01*
X0095001Y0132524D02*
X0104076Y0132524D01*
X0097976Y0128211D02*
X0097976Y0124240D01*
X0095778Y0125337D02*
X0095001Y0125337D01*
X0095001Y0124539D02*
X0095526Y0124539D01*
X0095531Y0123740D02*
X0095001Y0123740D01*
X0095001Y0122942D02*
X0095861Y0122942D01*
X0096635Y0122143D02*
X0095001Y0122143D01*
X0095001Y0121345D02*
X0100951Y0121345D01*
X0100951Y0122143D02*
X0099316Y0122143D01*
X0100090Y0122942D02*
X0100236Y0122942D01*
X0102351Y0124240D02*
X0102351Y0119018D01*
X0103379Y0117990D01*
X0100214Y0118151D02*
X0095001Y0118151D01*
X0095001Y0118949D02*
X0100214Y0118949D01*
X0100214Y0119748D02*
X0095001Y0119748D01*
X0095001Y0120546D02*
X0100388Y0120546D01*
X0100214Y0117352D02*
X0095001Y0117352D01*
X0095001Y0116554D02*
X0100214Y0116554D01*
X0100214Y0115755D02*
X0095001Y0115755D01*
X0095001Y0114957D02*
X0106991Y0114957D01*
X0091101Y0121427D02*
X0091101Y0063615D01*
X0095001Y0063852D02*
X0097170Y0063852D01*
X0096372Y0063053D02*
X0095001Y0063053D01*
X0095001Y0062255D02*
X0095573Y0062255D01*
X0095001Y0064650D02*
X0097969Y0064650D01*
X0098767Y0065449D02*
X0095001Y0065449D01*
X0095001Y0066247D02*
X0099566Y0066247D01*
X0100365Y0067046D02*
X0095001Y0067046D01*
X0095001Y0067844D02*
X0101163Y0067844D01*
X0101962Y0068643D02*
X0095001Y0068643D01*
X0095001Y0069441D02*
X0102760Y0069441D01*
X0103559Y0070240D02*
X0095001Y0070240D01*
X0095001Y0071038D02*
X0104357Y0071038D01*
X0105156Y0071837D02*
X0095001Y0071837D01*
X0095001Y0072635D02*
X0105954Y0072635D01*
X0106753Y0073434D02*
X0095001Y0073434D01*
X0095001Y0074232D02*
X0107551Y0074232D01*
X0108350Y0075031D02*
X0095001Y0075031D01*
X0095001Y0075830D02*
X0109148Y0075830D01*
X0109947Y0076628D02*
X0095001Y0076628D01*
X0095001Y0077427D02*
X0097336Y0077427D01*
X0097342Y0077423D02*
X0097698Y0077328D01*
X0099451Y0077328D01*
X0099451Y0080493D01*
X0100251Y0080493D01*
X0100251Y0081293D01*
X0103219Y0081293D01*
X0103219Y0083243D01*
X0103124Y0083599D01*
X0102939Y0083918D01*
X0102679Y0084179D01*
X0102360Y0084363D01*
X0102144Y0084421D01*
X0102233Y0084421D01*
X0102819Y0085007D01*
X0102819Y0088575D01*
X0103126Y0088881D01*
X0103126Y0097175D01*
X0103803Y0097852D01*
X0104176Y0098752D01*
X0104176Y0099727D01*
X0103803Y0100627D01*
X0103113Y0101317D01*
X0102213Y0101690D01*
X0101238Y0101690D01*
X0100338Y0101317D01*
X0099649Y0100627D01*
X0099276Y0099727D01*
X0099276Y0098752D01*
X0099649Y0097852D01*
X0100326Y0097175D01*
X0100326Y0090751D01*
X0097468Y0090751D01*
X0096882Y0090166D01*
X0096882Y0085007D01*
X0097468Y0084421D01*
X0097557Y0084421D01*
X0097342Y0084363D01*
X0097023Y0084179D01*
X0096762Y0083918D01*
X0096578Y0083599D01*
X0096482Y0083243D01*
X0096482Y0081293D01*
X0099451Y0081293D01*
X0099451Y0080493D01*
X0096482Y0080493D01*
X0096482Y0078544D01*
X0096578Y0078187D01*
X0096762Y0077868D01*
X0097023Y0077608D01*
X0097342Y0077423D01*
X0096568Y0078225D02*
X0095001Y0078225D01*
X0095001Y0079024D02*
X0096482Y0079024D01*
X0096482Y0079822D02*
X0095001Y0079822D01*
X0095001Y0080621D02*
X0099451Y0080621D01*
X0099451Y0079822D02*
X0100251Y0079822D01*
X0100251Y0080493D02*
X0100251Y0077328D01*
X0102003Y0077328D01*
X0102360Y0077423D01*
X0102679Y0077608D01*
X0102939Y0077868D01*
X0103124Y0078187D01*
X0103219Y0078544D01*
X0103219Y0080493D01*
X0100251Y0080493D01*
X0100251Y0080621D02*
X0107576Y0080621D01*
X0107576Y0080493D02*
X0104607Y0080493D01*
X0104607Y0078544D01*
X0104703Y0078187D01*
X0104887Y0077868D01*
X0105148Y0077608D01*
X0105467Y0077423D01*
X0105823Y0077328D01*
X0107576Y0077328D01*
X0107576Y0080493D01*
X0108376Y0080493D01*
X0108376Y0081293D01*
X0111344Y0081293D01*
X0111344Y0083243D01*
X0111249Y0083599D01*
X0111064Y0083918D01*
X0110804Y0084179D01*
X0110485Y0084363D01*
X0110269Y0084421D01*
X0110358Y0084421D01*
X0110944Y0085007D01*
X0110944Y0090166D01*
X0110358Y0090751D01*
X0109376Y0090751D01*
X0109376Y0090925D01*
X0110053Y0091602D01*
X0110426Y0092502D01*
X0110426Y0093477D01*
X0110053Y0094377D01*
X0109363Y0095067D01*
X0108463Y0095440D01*
X0107488Y0095440D01*
X0106588Y0095067D01*
X0105899Y0094377D01*
X0105526Y0093477D01*
X0105526Y0092502D01*
X0105899Y0091602D01*
X0106576Y0090925D01*
X0106576Y0090751D01*
X0105593Y0090751D01*
X0105007Y0090166D01*
X0105007Y0085007D01*
X0105593Y0084421D01*
X0105682Y0084421D01*
X0105467Y0084363D01*
X0105148Y0084179D01*
X0104887Y0083918D01*
X0104703Y0083599D01*
X0104607Y0083243D01*
X0104607Y0081293D01*
X0107576Y0081293D01*
X0107576Y0080493D01*
X0107576Y0079822D02*
X0108376Y0079822D01*
X0108376Y0080493D02*
X0108376Y0077328D01*
X0110128Y0077328D01*
X0110485Y0077423D01*
X0110804Y0077608D01*
X0111064Y0077868D01*
X0111249Y0078187D01*
X0111344Y0078544D01*
X0111344Y0080493D01*
X0108376Y0080493D01*
X0108376Y0080621D02*
X0113451Y0080621D01*
X0113451Y0081419D02*
X0111344Y0081419D01*
X0111344Y0082218D02*
X0113451Y0082218D01*
X0113451Y0083016D02*
X0111344Y0083016D01*
X0111124Y0083815D02*
X0113451Y0083815D01*
X0113451Y0084613D02*
X0110551Y0084613D01*
X0110944Y0085412D02*
X0113451Y0085412D01*
X0113451Y0086210D02*
X0110944Y0086210D01*
X0110944Y0087009D02*
X0113451Y0087009D01*
X0113451Y0087807D02*
X0110944Y0087807D01*
X0110944Y0088606D02*
X0113451Y0088606D01*
X0113451Y0089404D02*
X0110944Y0089404D01*
X0110907Y0090203D02*
X0113451Y0090203D01*
X0113451Y0091001D02*
X0109452Y0091001D01*
X0110135Y0091800D02*
X0113451Y0091800D01*
X0113451Y0092598D02*
X0110426Y0092598D01*
X0110426Y0093397D02*
X0113089Y0093397D01*
X0112290Y0094195D02*
X0110128Y0094195D01*
X0109436Y0094994D02*
X0111492Y0094994D01*
X0110693Y0095792D02*
X0103126Y0095792D01*
X0103126Y0094994D02*
X0106515Y0094994D01*
X0105823Y0094195D02*
X0103126Y0094195D01*
X0103126Y0093397D02*
X0105526Y0093397D01*
X0105526Y0092598D02*
X0103126Y0092598D01*
X0103126Y0091800D02*
X0105817Y0091800D01*
X0106499Y0091001D02*
X0103126Y0091001D01*
X0103126Y0090203D02*
X0105044Y0090203D01*
X0105007Y0089404D02*
X0103126Y0089404D01*
X0102850Y0088606D02*
X0105007Y0088606D01*
X0105007Y0087807D02*
X0102819Y0087807D01*
X0102819Y0087009D02*
X0105007Y0087009D01*
X0105007Y0086210D02*
X0102819Y0086210D01*
X0102819Y0085412D02*
X0105007Y0085412D01*
X0105401Y0084613D02*
X0102426Y0084613D01*
X0102999Y0083815D02*
X0104827Y0083815D01*
X0104607Y0083016D02*
X0103219Y0083016D01*
X0103219Y0082218D02*
X0104607Y0082218D01*
X0104607Y0081419D02*
X0103219Y0081419D01*
X0103219Y0079822D02*
X0104607Y0079822D01*
X0104607Y0079024D02*
X0103219Y0079024D01*
X0103134Y0078225D02*
X0104693Y0078225D01*
X0105461Y0077427D02*
X0102365Y0077427D01*
X0100251Y0077427D02*
X0099451Y0077427D01*
X0099451Y0078225D02*
X0100251Y0078225D01*
X0100251Y0079024D02*
X0099451Y0079024D01*
X0096482Y0081419D02*
X0095001Y0081419D01*
X0095001Y0082218D02*
X0096482Y0082218D01*
X0096482Y0083016D02*
X0095001Y0083016D01*
X0095001Y0083815D02*
X0096702Y0083815D01*
X0097276Y0084613D02*
X0095001Y0084613D01*
X0095001Y0085412D02*
X0096882Y0085412D01*
X0096882Y0086210D02*
X0095001Y0086210D01*
X0095001Y0087009D02*
X0096882Y0087009D01*
X0096882Y0087807D02*
X0095001Y0087807D01*
X0095001Y0088606D02*
X0096882Y0088606D01*
X0096882Y0089404D02*
X0095001Y0089404D01*
X0095001Y0090203D02*
X0096919Y0090203D01*
X0095001Y0091001D02*
X0100326Y0091001D01*
X0100326Y0091800D02*
X0095001Y0091800D01*
X0095001Y0092598D02*
X0100326Y0092598D01*
X0100326Y0093397D02*
X0095001Y0093397D01*
X0095001Y0094195D02*
X0100326Y0094195D01*
X0100326Y0094994D02*
X0095001Y0094994D01*
X0095001Y0095792D02*
X0100326Y0095792D01*
X0100326Y0096591D02*
X0095001Y0096591D01*
X0095001Y0097389D02*
X0100111Y0097389D01*
X0099509Y0098188D02*
X0095001Y0098188D01*
X0095001Y0098986D02*
X0099276Y0098986D01*
X0099300Y0099785D02*
X0095001Y0099785D01*
X0095001Y0100583D02*
X0099630Y0100583D01*
X0100495Y0101382D02*
X0095001Y0101382D01*
X0095001Y0102180D02*
X0104305Y0102180D01*
X0105104Y0101382D02*
X0102956Y0101382D01*
X0103821Y0100583D02*
X0105902Y0100583D01*
X0106701Y0099785D02*
X0104152Y0099785D01*
X0104176Y0098986D02*
X0107499Y0098986D01*
X0108298Y0098188D02*
X0103942Y0098188D01*
X0103340Y0097389D02*
X0109096Y0097389D01*
X0109895Y0096591D02*
X0103126Y0096591D01*
X0101726Y0099240D02*
X0101726Y0089461D01*
X0099851Y0087586D01*
X0089701Y0090203D02*
X0088844Y0090203D01*
X0088844Y0091001D02*
X0089701Y0091001D01*
X0089701Y0091800D02*
X0088763Y0091800D01*
X0088020Y0092598D02*
X0089701Y0092598D01*
X0089701Y0093397D02*
X0080476Y0093397D01*
X0080476Y0092598D02*
X0082932Y0092598D01*
X0082188Y0091800D02*
X0080476Y0091800D01*
X0080476Y0091001D02*
X0082107Y0091001D01*
X0082107Y0090203D02*
X0080476Y0090203D01*
X0080476Y0089404D02*
X0085076Y0089404D01*
X0082107Y0088606D02*
X0080476Y0088606D01*
X0081595Y0087807D02*
X0082107Y0087807D01*
X0076726Y0087380D02*
X0075788Y0088317D01*
X0075788Y0101740D01*
X0077976Y0103927D01*
X0083601Y0103927D01*
X0085610Y0107770D02*
X0086410Y0107770D01*
X0086410Y0107434D02*
X0088359Y0107434D01*
X0088715Y0107529D01*
X0089035Y0107713D01*
X0089295Y0107974D01*
X0089480Y0108293D01*
X0089575Y0108649D01*
X0089575Y0110402D01*
X0086410Y0110402D01*
X0086410Y0107434D01*
X0086410Y0108568D02*
X0085610Y0108568D01*
X0085610Y0109367D02*
X0086410Y0109367D01*
X0086410Y0110165D02*
X0085610Y0110165D01*
X0086410Y0110964D02*
X0089701Y0110964D01*
X0089701Y0111763D02*
X0089575Y0111763D01*
X0089575Y0112561D02*
X0089701Y0112561D01*
X0089701Y0113360D02*
X0089452Y0113360D01*
X0089701Y0114158D02*
X0088406Y0114158D01*
X0086410Y0114158D02*
X0085610Y0114158D01*
X0085610Y0113360D02*
X0086410Y0113360D01*
X0086410Y0112561D02*
X0085610Y0112561D01*
X0085610Y0111763D02*
X0086410Y0111763D01*
X0089575Y0110165D02*
X0089701Y0110165D01*
X0089701Y0109367D02*
X0089575Y0109367D01*
X0089553Y0108568D02*
X0089701Y0108568D01*
X0089701Y0107770D02*
X0089091Y0107770D01*
X0095001Y0102979D02*
X0103507Y0102979D01*
X0089701Y0096591D02*
X0089575Y0096591D01*
X0089575Y0095792D02*
X0089701Y0095792D01*
X0089701Y0094994D02*
X0089575Y0094994D01*
X0089701Y0094195D02*
X0089266Y0094195D01*
X0086410Y0098188D02*
X0085610Y0098188D01*
X0085610Y0098986D02*
X0086410Y0098986D01*
X0086410Y0099785D02*
X0085610Y0099785D01*
X0082669Y0099785D02*
X0082132Y0099785D01*
X0080163Y0098524D02*
X0080163Y0101427D01*
X0080163Y0098524D02*
X0079317Y0097052D01*
X0082008Y0094195D02*
X0082753Y0094195D01*
X0074226Y0096755D02*
X0074226Y0104240D01*
X0071101Y0100162D02*
X0070178Y0099240D01*
X0066635Y0099240D01*
X0065385Y0096427D01*
X0071116Y0094567D02*
X0070788Y0093317D01*
X0074226Y0096755D01*
X0070773Y0087677D02*
X0070788Y0086412D01*
X0069523Y0087677D01*
X0065385Y0087677D01*
X0076726Y0080474D02*
X0077976Y0079224D01*
X0077976Y0074018D01*
X0079004Y0072990D01*
X0081973Y0073434D02*
X0082329Y0073434D01*
X0082329Y0074232D02*
X0081973Y0074232D01*
X0081973Y0075031D02*
X0082329Y0075031D01*
X0082501Y0075830D02*
X0081712Y0075830D01*
X0080476Y0076628D02*
X0089701Y0076628D01*
X0089701Y0075830D02*
X0088893Y0075830D01*
X0089066Y0075031D02*
X0089701Y0075031D01*
X0089701Y0074232D02*
X0089066Y0074232D01*
X0089066Y0073434D02*
X0089701Y0073434D01*
X0089701Y0077427D02*
X0080476Y0077427D01*
X0080476Y0078225D02*
X0089701Y0078225D01*
X0107576Y0078225D02*
X0108376Y0078225D01*
X0108376Y0077427D02*
X0107576Y0077427D01*
X0107576Y0079024D02*
X0108376Y0079024D01*
X0110490Y0077427D02*
X0110745Y0077427D01*
X0111259Y0078225D02*
X0111544Y0078225D01*
X0111344Y0079024D02*
X0112342Y0079024D01*
X0113141Y0079822D02*
X0111344Y0079822D01*
X0107976Y0087586D02*
X0107976Y0092990D01*
X0147351Y0087990D02*
X0153288Y0093927D01*
X0160788Y0093927D01*
X0162998Y0094994D02*
X0163026Y0094994D01*
X0163208Y0095792D02*
X0162388Y0095792D01*
X0163220Y0093397D02*
X0163479Y0093397D01*
X0162890Y0092598D02*
X0164545Y0092598D01*
X0166406Y0092598D02*
X0177826Y0092598D01*
X0177826Y0091800D02*
X0162054Y0091800D01*
X0159522Y0091800D02*
X0153141Y0091800D01*
X0152342Y0091001D02*
X0177826Y0091001D01*
X0177826Y0090203D02*
X0151544Y0090203D01*
X0150745Y0089404D02*
X0177826Y0089404D01*
X0177826Y0088606D02*
X0149947Y0088606D01*
X0149148Y0087807D02*
X0177826Y0087807D01*
X0177826Y0087009D02*
X0148751Y0087009D01*
X0148751Y0086210D02*
X0177826Y0086210D01*
X0177826Y0085412D02*
X0148751Y0085412D01*
X0148751Y0084613D02*
X0177826Y0084613D01*
X0177826Y0083815D02*
X0148751Y0083815D01*
X0148751Y0083016D02*
X0177826Y0083016D01*
X0177826Y0082218D02*
X0148751Y0082218D01*
X0148751Y0081419D02*
X0177826Y0081419D01*
X0177826Y0080621D02*
X0148751Y0080621D01*
X0148751Y0079822D02*
X0149144Y0079822D01*
X0149101Y0079024D02*
X0148751Y0079024D01*
X0148751Y0078225D02*
X0149101Y0078225D01*
X0149101Y0077427D02*
X0148751Y0077427D01*
X0148751Y0076628D02*
X0149101Y0076628D01*
X0149101Y0075830D02*
X0148751Y0075830D01*
X0148751Y0075031D02*
X0149520Y0075031D01*
X0149101Y0072635D02*
X0148751Y0072635D01*
X0148751Y0071837D02*
X0149101Y0071837D01*
X0149101Y0071038D02*
X0148751Y0071038D01*
X0148751Y0070240D02*
X0149101Y0070240D01*
X0149101Y0069441D02*
X0148804Y0069441D01*
X0147351Y0068915D02*
X0147351Y0087990D01*
X0167473Y0093397D02*
X0177826Y0093397D01*
X0177826Y0094195D02*
X0167850Y0094195D01*
X0167926Y0094994D02*
X0177826Y0094994D01*
X0177826Y0095792D02*
X0167743Y0095792D01*
X0180626Y0095792D02*
X0185326Y0095792D01*
X0185326Y0094994D02*
X0180626Y0094994D01*
X0180626Y0094195D02*
X0185326Y0094195D01*
X0185326Y0093397D02*
X0180626Y0093397D01*
X0180626Y0092598D02*
X0185326Y0092598D01*
X0185326Y0091800D02*
X0180626Y0091800D01*
X0180626Y0091001D02*
X0185326Y0091001D01*
X0185326Y0090203D02*
X0180626Y0090203D01*
X0180626Y0089404D02*
X0185326Y0089404D01*
X0186005Y0088606D02*
X0180626Y0088606D01*
X0180626Y0087807D02*
X0186803Y0087807D01*
X0187602Y0087009D02*
X0180626Y0087009D01*
X0180626Y0086210D02*
X0188400Y0086210D01*
X0189199Y0085412D02*
X0180626Y0085412D01*
X0180626Y0084613D02*
X0189997Y0084613D01*
X0190796Y0083815D02*
X0180626Y0083815D01*
X0180626Y0083016D02*
X0191594Y0083016D01*
X0192393Y0082218D02*
X0180626Y0082218D01*
X0180626Y0081419D02*
X0192826Y0081419D01*
X0192826Y0080621D02*
X0180626Y0080621D01*
X0180626Y0079822D02*
X0181544Y0079822D01*
X0181501Y0079024D02*
X0180626Y0079024D01*
X0180626Y0078225D02*
X0181501Y0078225D01*
X0180745Y0077427D02*
X0180626Y0077427D01*
X0182913Y0077615D02*
X0177663Y0072365D01*
X0177663Y0066740D01*
X0179857Y0067844D02*
X0181101Y0067844D01*
X0181101Y0067046D02*
X0180113Y0067046D01*
X0180111Y0066247D02*
X0181101Y0066247D01*
X0181101Y0065449D02*
X0179780Y0065449D01*
X0179021Y0064650D02*
X0181101Y0064650D01*
X0181101Y0063852D02*
X0176251Y0063852D01*
X0176251Y0064650D02*
X0176305Y0064650D01*
X0176251Y0063053D02*
X0181101Y0063053D01*
X0181101Y0062255D02*
X0176251Y0062255D01*
X0176251Y0061456D02*
X0186901Y0061456D01*
X0186901Y0060658D02*
X0187701Y0060658D01*
X0187701Y0060965D02*
X0187701Y0048965D01*
X0192285Y0048965D01*
X0192641Y0049060D01*
X0192960Y0049244D01*
X0193221Y0049505D01*
X0193405Y0049824D01*
X0193501Y0050180D01*
X0193501Y0060965D01*
X0187701Y0060965D01*
X0187701Y0061456D02*
X0195351Y0061456D01*
X0195351Y0060658D02*
X0193501Y0060658D01*
X0193501Y0059859D02*
X0195351Y0059859D01*
X0195351Y0059061D02*
X0193501Y0059061D01*
X0193501Y0058262D02*
X0195351Y0058262D01*
X0195351Y0057464D02*
X0193501Y0057464D01*
X0193501Y0056665D02*
X0195351Y0056665D01*
X0195351Y0055867D02*
X0193501Y0055867D01*
X0193501Y0055068D02*
X0195351Y0055068D01*
X0195351Y0054270D02*
X0193501Y0054270D01*
X0193501Y0053471D02*
X0195351Y0053471D01*
X0195351Y0052673D02*
X0193501Y0052673D01*
X0193501Y0051874D02*
X0195351Y0051874D01*
X0195351Y0051076D02*
X0193501Y0051076D01*
X0193501Y0050277D02*
X0195351Y0050277D01*
X0195822Y0049479D02*
X0193195Y0049479D01*
X0194107Y0047882D02*
X0190500Y0047882D01*
X0191496Y0047083D02*
X0193112Y0047083D01*
X0192425Y0046285D02*
X0192182Y0046285D01*
X0187701Y0049479D02*
X0186901Y0049479D01*
X0186901Y0050277D02*
X0187701Y0050277D01*
X0187701Y0051076D02*
X0186901Y0051076D01*
X0186901Y0051874D02*
X0187701Y0051874D01*
X0187701Y0052673D02*
X0186901Y0052673D01*
X0186901Y0053471D02*
X0187701Y0053471D01*
X0187701Y0054270D02*
X0186901Y0054270D01*
X0186901Y0055068D02*
X0187701Y0055068D01*
X0187701Y0055867D02*
X0186901Y0055867D01*
X0186901Y0056665D02*
X0187701Y0056665D01*
X0187701Y0057464D02*
X0186901Y0057464D01*
X0186901Y0058262D02*
X0187701Y0058262D01*
X0187701Y0059061D02*
X0186901Y0059061D01*
X0186901Y0059859D02*
X0187701Y0059859D01*
X0187701Y0062255D02*
X0186901Y0062255D01*
X0186901Y0063053D02*
X0187701Y0063053D01*
X0187701Y0063852D02*
X0186901Y0063852D01*
X0186901Y0064650D02*
X0187701Y0064650D01*
X0187701Y0065449D02*
X0186901Y0065449D01*
X0186901Y0066247D02*
X0187701Y0066247D01*
X0187701Y0067046D02*
X0186901Y0067046D01*
X0186901Y0067844D02*
X0187701Y0067844D01*
X0187701Y0068643D02*
X0186901Y0068643D01*
X0186901Y0069441D02*
X0187701Y0069441D01*
X0187701Y0070240D02*
X0186901Y0070240D01*
X0186901Y0071038D02*
X0187701Y0071038D01*
X0187701Y0071837D02*
X0186901Y0071837D01*
X0186901Y0072635D02*
X0187701Y0072635D01*
X0187701Y0073434D02*
X0186901Y0073434D01*
X0181590Y0073434D02*
X0180712Y0073434D01*
X0181124Y0072635D02*
X0179914Y0072635D01*
X0179115Y0071837D02*
X0181101Y0071837D01*
X0181101Y0071038D02*
X0179063Y0071038D01*
X0179063Y0070240D02*
X0181101Y0070240D01*
X0181101Y0069441D02*
X0179063Y0069441D01*
X0179225Y0068643D02*
X0181101Y0068643D01*
X0174851Y0072677D02*
X0174851Y0057990D01*
X0177059Y0059061D02*
X0181101Y0059061D01*
X0181101Y0059859D02*
X0176446Y0059859D01*
X0176251Y0060658D02*
X0181101Y0060658D01*
X0181101Y0058262D02*
X0177301Y0058262D01*
X0177285Y0057464D02*
X0181101Y0057464D01*
X0181101Y0056665D02*
X0176954Y0056665D01*
X0176128Y0055867D02*
X0181101Y0055867D01*
X0193501Y0062255D02*
X0195351Y0062255D01*
X0195351Y0063053D02*
X0193501Y0063053D01*
X0193501Y0063852D02*
X0195351Y0063852D01*
X0195351Y0064650D02*
X0193501Y0064650D01*
X0193501Y0065449D02*
X0195087Y0065449D01*
X0194288Y0066247D02*
X0193501Y0066247D01*
X0206951Y0066247D02*
X0207772Y0066247D01*
X0207441Y0065449D02*
X0206951Y0065449D01*
X0206951Y0064650D02*
X0207401Y0064650D01*
X0207618Y0063852D02*
X0206951Y0063852D01*
X0206951Y0063053D02*
X0208197Y0063053D01*
X0209851Y0064865D02*
X0209851Y0071740D01*
X0203976Y0077615D01*
X0201151Y0077615D01*
X0198351Y0077615D01*
X0192826Y0075031D02*
X0192681Y0075031D01*
X0192826Y0074232D02*
X0181511Y0074232D01*
X0182913Y0077615D02*
X0187301Y0077615D01*
X0193159Y0085412D02*
X0243067Y0085412D01*
X0242269Y0086210D02*
X0192360Y0086210D01*
X0191562Y0087009D02*
X0241470Y0087009D01*
X0240672Y0087807D02*
X0190763Y0087807D01*
X0189965Y0088606D02*
X0191590Y0088606D01*
X0191036Y0089404D02*
X0189166Y0089404D01*
X0188368Y0090203D02*
X0191036Y0090203D01*
X0191036Y0091001D02*
X0188126Y0091001D01*
X0188126Y0091800D02*
X0191036Y0091800D01*
X0191036Y0092598D02*
X0188126Y0092598D01*
X0188126Y0093397D02*
X0191036Y0093397D01*
X0191036Y0094195D02*
X0188126Y0094195D01*
X0188126Y0094994D02*
X0192604Y0094994D01*
X0192604Y0095792D02*
X0188126Y0095792D01*
X0188126Y0096591D02*
X0192604Y0096591D01*
X0192221Y0097389D02*
X0188126Y0097389D01*
X0188126Y0098188D02*
X0191423Y0098188D01*
X0190624Y0098986D02*
X0188126Y0098986D01*
X0188126Y0099785D02*
X0188341Y0099785D01*
X0189851Y0101740D02*
X0194004Y0097586D01*
X0194004Y0091740D01*
X0196973Y0091800D02*
X0197729Y0091800D01*
X0197729Y0092598D02*
X0196973Y0092598D01*
X0196973Y0093397D02*
X0197729Y0093397D01*
X0197729Y0094195D02*
X0196973Y0094195D01*
X0203666Y0094195D02*
X0229712Y0094195D01*
X0229476Y0089404D02*
X0203666Y0089404D01*
X0198283Y0088606D02*
X0196418Y0088606D01*
X0196973Y0089404D02*
X0197729Y0089404D01*
X0197729Y0090203D02*
X0196973Y0090203D01*
X0196973Y0091001D02*
X0197729Y0091001D01*
X0185326Y0096591D02*
X0180626Y0096591D01*
X0180626Y0097389D02*
X0185326Y0097389D01*
X0185326Y0098188D02*
X0180626Y0098188D01*
X0180626Y0098986D02*
X0185326Y0098986D01*
X0185326Y0099785D02*
X0180626Y0099785D01*
X0180626Y0100583D02*
X0185326Y0100583D01*
X0185326Y0101382D02*
X0180626Y0101382D01*
X0180626Y0102180D02*
X0185326Y0102180D01*
X0185326Y0102979D02*
X0180626Y0102979D01*
X0180626Y0103777D02*
X0185326Y0103777D01*
X0185326Y0104576D02*
X0180626Y0104576D01*
X0180626Y0105374D02*
X0185326Y0105374D01*
X0185326Y0106173D02*
X0180626Y0106173D01*
X0180626Y0106971D02*
X0185326Y0106971D01*
X0185326Y0107770D02*
X0180626Y0107770D01*
X0180626Y0108568D02*
X0185326Y0108568D01*
X0185326Y0109367D02*
X0180626Y0109367D01*
X0180626Y0110165D02*
X0185326Y0110165D01*
X0185326Y0110964D02*
X0180626Y0110964D01*
X0180626Y0111763D02*
X0185326Y0111763D01*
X0185326Y0112561D02*
X0180626Y0112561D01*
X0180626Y0113360D02*
X0185326Y0113360D01*
X0185326Y0114158D02*
X0180626Y0114158D01*
X0180626Y0114957D02*
X0185326Y0114957D01*
X0185326Y0115755D02*
X0180626Y0115755D01*
X0180626Y0116554D02*
X0185326Y0116554D01*
X0185326Y0117352D02*
X0180626Y0117352D01*
X0180626Y0118151D02*
X0185326Y0118151D01*
X0185393Y0118949D02*
X0180626Y0118949D01*
X0180626Y0119748D02*
X0185526Y0119748D01*
X0185736Y0120546D02*
X0180626Y0120546D01*
X0180626Y0121345D02*
X0186303Y0121345D01*
X0187604Y0122143D02*
X0180626Y0122143D01*
X0180626Y0122942D02*
X0186036Y0122942D01*
X0186036Y0123740D02*
X0180626Y0123740D01*
X0180626Y0124539D02*
X0183762Y0124539D01*
X0182788Y0125337D02*
X0180626Y0125337D01*
X0180626Y0126136D02*
X0182449Y0126136D01*
X0182401Y0126934D02*
X0180626Y0126934D01*
X0180626Y0127733D02*
X0182610Y0127733D01*
X0183177Y0128531D02*
X0180626Y0128531D01*
X0180626Y0129330D02*
X0183451Y0129330D01*
X0183451Y0130128D02*
X0180626Y0130128D01*
X0180626Y0130927D02*
X0183451Y0130927D01*
X0183451Y0131725D02*
X0180626Y0131725D01*
X0180626Y0132524D02*
X0183655Y0132524D01*
X0184453Y0133322D02*
X0180626Y0133322D01*
X0180626Y0134121D02*
X0185252Y0134121D01*
X0186050Y0134919D02*
X0183474Y0134919D01*
X0182477Y0134919D02*
X0180626Y0134919D01*
X0180626Y0135718D02*
X0181158Y0135718D01*
X0180675Y0136516D02*
X0180626Y0136516D01*
X0180626Y0138113D02*
X0180634Y0138113D01*
X0180626Y0138912D02*
X0181058Y0138912D01*
X0180626Y0139710D02*
X0181576Y0139710D01*
X0181576Y0140509D02*
X0180626Y0140509D01*
X0180626Y0141307D02*
X0181576Y0141307D01*
X0181576Y0142106D02*
X0180626Y0142106D01*
X0180626Y0142904D02*
X0181576Y0142904D01*
X0181709Y0143703D02*
X0180626Y0143703D01*
X0180626Y0144501D02*
X0182508Y0144501D01*
X0183306Y0145300D02*
X0180626Y0145300D01*
X0180626Y0146098D02*
X0184105Y0146098D01*
X0184903Y0146897D02*
X0180626Y0146897D01*
X0180626Y0147696D02*
X0185702Y0147696D01*
X0186500Y0148494D02*
X0180626Y0148494D01*
X0180626Y0149293D02*
X0183208Y0149293D01*
X0182623Y0150091D02*
X0180626Y0150091D01*
X0180626Y0150890D02*
X0182401Y0150890D01*
X0182436Y0151688D02*
X0180626Y0151688D01*
X0180626Y0152487D02*
X0182767Y0152487D01*
X0183688Y0153285D02*
X0180626Y0153285D01*
X0180626Y0154084D02*
X0184878Y0154084D01*
X0183112Y0154882D02*
X0180626Y0154882D01*
X0180626Y0155681D02*
X0183112Y0155681D01*
X0183112Y0156479D02*
X0180626Y0156479D01*
X0180626Y0157278D02*
X0183112Y0157278D01*
X0183112Y0158076D02*
X0180626Y0158076D01*
X0180626Y0158875D02*
X0183112Y0158875D01*
X0183112Y0159673D02*
X0180626Y0159673D01*
X0180626Y0160472D02*
X0183640Y0160472D01*
X0177826Y0162069D02*
X0177224Y0162069D01*
X0177608Y0162867D02*
X0177826Y0162867D01*
X0177826Y0163666D02*
X0177608Y0163666D01*
X0177608Y0164464D02*
X0177826Y0164464D01*
X0177826Y0165263D02*
X0177608Y0165263D01*
X0177608Y0166061D02*
X0177826Y0166061D01*
X0177826Y0166860D02*
X0177608Y0166860D01*
X0177608Y0167658D02*
X0177826Y0167658D01*
X0177826Y0168457D02*
X0177608Y0168457D01*
X0177608Y0169255D02*
X0177826Y0169255D01*
X0177826Y0170054D02*
X0177608Y0170054D01*
X0177608Y0179636D02*
X0185844Y0179636D01*
X0185844Y0180434D02*
X0177608Y0180434D01*
X0177608Y0181233D02*
X0185844Y0181233D01*
X0185844Y0182032D02*
X0177608Y0182032D01*
X0177608Y0182830D02*
X0185844Y0182830D01*
X0185844Y0183629D02*
X0177608Y0183629D01*
X0177608Y0184427D02*
X0185844Y0184427D01*
X0185844Y0185226D02*
X0177608Y0185226D01*
X0177608Y0186024D02*
X0185844Y0186024D01*
X0185844Y0186823D02*
X0177608Y0186823D01*
X0177608Y0187621D02*
X0185844Y0187621D01*
X0185844Y0188420D02*
X0177608Y0188420D01*
X0177608Y0189218D02*
X0185844Y0189218D01*
X0185844Y0190017D02*
X0177608Y0190017D01*
X0177608Y0190815D02*
X0185844Y0190815D01*
X0185844Y0191614D02*
X0177608Y0191614D01*
X0177608Y0192412D02*
X0185844Y0192412D01*
X0185844Y0193211D02*
X0177608Y0193211D01*
X0177608Y0194009D02*
X0185844Y0194009D01*
X0185875Y0194808D02*
X0177577Y0194808D01*
X0166372Y0195606D02*
X0293601Y0195606D01*
X0293601Y0194808D02*
X0282047Y0194808D01*
X0282051Y0194009D02*
X0293601Y0194009D01*
X0293601Y0193211D02*
X0282051Y0193211D01*
X0282051Y0192412D02*
X0293601Y0192412D01*
X0293601Y0191614D02*
X0282051Y0191614D01*
X0281690Y0190815D02*
X0293601Y0190815D01*
X0293601Y0190017D02*
X0281838Y0190017D01*
X0282051Y0189218D02*
X0293601Y0189218D01*
X0293601Y0188420D02*
X0282051Y0188420D01*
X0282051Y0187621D02*
X0293601Y0187621D01*
X0293601Y0186823D02*
X0282051Y0186823D01*
X0281899Y0186024D02*
X0293601Y0186024D01*
X0293601Y0185226D02*
X0281629Y0185226D01*
X0282051Y0184427D02*
X0293601Y0184427D01*
X0293601Y0183629D02*
X0282051Y0183629D01*
X0282051Y0182830D02*
X0293601Y0182830D01*
X0293601Y0182032D02*
X0282051Y0182032D01*
X0282051Y0181233D02*
X0293601Y0181233D01*
X0293601Y0180434D02*
X0275651Y0180434D01*
X0275651Y0179636D02*
X0293601Y0179636D01*
X0293601Y0178837D02*
X0275651Y0178837D01*
X0275651Y0178039D02*
X0293601Y0178039D01*
X0293601Y0177240D02*
X0275651Y0177240D01*
X0275651Y0176442D02*
X0293601Y0176442D01*
X0293601Y0175643D02*
X0275651Y0175643D01*
X0272451Y0175643D02*
X0198474Y0175643D01*
X0198474Y0174845D02*
X0266092Y0174845D01*
X0266051Y0174046D02*
X0198474Y0174046D01*
X0198474Y0173248D02*
X0266051Y0173248D01*
X0266051Y0172449D02*
X0198474Y0172449D01*
X0198474Y0171651D02*
X0266051Y0171651D01*
X0266374Y0170852D02*
X0198474Y0170852D01*
X0198474Y0170054D02*
X0266301Y0170054D01*
X0264761Y0169255D02*
X0198474Y0169255D01*
X0198474Y0168457D02*
X0263963Y0168457D01*
X0263164Y0167658D02*
X0198474Y0167658D01*
X0198474Y0166860D02*
X0262366Y0166860D01*
X0261567Y0166061D02*
X0198474Y0166061D01*
X0198474Y0165263D02*
X0260769Y0165263D01*
X0259970Y0164464D02*
X0198474Y0164464D01*
X0198474Y0163666D02*
X0259701Y0163666D01*
X0259701Y0162867D02*
X0198474Y0162867D01*
X0198090Y0162069D02*
X0259701Y0162069D01*
X0259701Y0161270D02*
X0193544Y0161270D01*
X0193544Y0160472D02*
X0259701Y0160472D01*
X0259701Y0159673D02*
X0195187Y0159673D01*
X0195713Y0158875D02*
X0259701Y0158875D01*
X0259701Y0158076D02*
X0195713Y0158076D01*
X0195713Y0157278D02*
X0259701Y0157278D01*
X0259701Y0156479D02*
X0195713Y0156479D01*
X0195713Y0155681D02*
X0259701Y0155681D01*
X0259701Y0154882D02*
X0195426Y0154882D01*
X0192351Y0157158D02*
X0192144Y0157365D01*
X0192144Y0178600D01*
X0192159Y0178615D01*
X0198474Y0178837D02*
X0272451Y0178837D01*
X0272451Y0178039D02*
X0198474Y0178039D01*
X0198474Y0177240D02*
X0272451Y0177240D01*
X0272451Y0176442D02*
X0198474Y0176442D01*
X0198474Y0179636D02*
X0272451Y0179636D01*
X0272451Y0180434D02*
X0198474Y0180434D01*
X0198474Y0181233D02*
X0266051Y0181233D01*
X0266051Y0182032D02*
X0198474Y0182032D01*
X0198474Y0182830D02*
X0266051Y0182830D01*
X0266051Y0183629D02*
X0198474Y0183629D01*
X0198474Y0184427D02*
X0266051Y0184427D01*
X0266472Y0185226D02*
X0198474Y0185226D01*
X0198474Y0186024D02*
X0266202Y0186024D01*
X0266051Y0186823D02*
X0198474Y0186823D01*
X0198474Y0187621D02*
X0266051Y0187621D01*
X0266051Y0188420D02*
X0198474Y0188420D01*
X0198474Y0189218D02*
X0266051Y0189218D01*
X0266263Y0190017D02*
X0198474Y0190017D01*
X0198474Y0190815D02*
X0266411Y0190815D01*
X0266051Y0191614D02*
X0198474Y0191614D01*
X0198474Y0192412D02*
X0266051Y0192412D01*
X0266051Y0193211D02*
X0198474Y0193211D01*
X0198474Y0194009D02*
X0266051Y0194009D01*
X0266054Y0194808D02*
X0198443Y0194808D01*
X0165573Y0196405D02*
X0293601Y0196405D01*
X0293601Y0197203D02*
X0165426Y0197203D01*
X0165105Y0198002D02*
X0293601Y0198002D01*
X0293601Y0198800D02*
X0164380Y0198800D01*
X0161571Y0198800D02*
X0080476Y0198800D01*
X0080476Y0198002D02*
X0141398Y0198002D01*
X0141588Y0198192D02*
X0140899Y0197502D01*
X0140526Y0196602D01*
X0140526Y0195627D01*
X0140899Y0194727D01*
X0141176Y0194450D01*
X0141176Y0194280D01*
X0140371Y0194280D01*
X0139786Y0193694D01*
X0139786Y0188535D01*
X0140371Y0187949D01*
X0145137Y0187949D01*
X0145723Y0188535D01*
X0145723Y0193694D01*
X0145137Y0194280D01*
X0144776Y0194280D01*
X0144776Y0194450D01*
X0145053Y0194727D01*
X0145426Y0195627D01*
X0145426Y0196602D01*
X0145053Y0197502D01*
X0144363Y0198192D01*
X0143463Y0198565D01*
X0142488Y0198565D01*
X0141588Y0198192D01*
X0140775Y0197203D02*
X0080476Y0197203D01*
X0080476Y0196405D02*
X0140526Y0196405D01*
X0140534Y0195606D02*
X0080476Y0195606D01*
X0080476Y0194808D02*
X0140865Y0194808D01*
X0140101Y0194009D02*
X0080476Y0194009D01*
X0080476Y0193211D02*
X0139786Y0193211D01*
X0139786Y0192412D02*
X0080476Y0192412D01*
X0080476Y0191614D02*
X0139786Y0191614D01*
X0139786Y0190815D02*
X0080476Y0190815D01*
X0080476Y0190017D02*
X0139786Y0190017D01*
X0139786Y0189218D02*
X0080476Y0189218D01*
X0080476Y0188420D02*
X0080638Y0188420D01*
X0083110Y0188420D02*
X0083910Y0188420D01*
X0083910Y0187621D02*
X0083110Y0187621D01*
X0083110Y0186823D02*
X0083910Y0186823D01*
X0083910Y0186024D02*
X0083110Y0186024D01*
X0083910Y0185226D02*
X0153356Y0185226D01*
X0152558Y0186024D02*
X0086878Y0186024D01*
X0086878Y0186823D02*
X0151759Y0186823D01*
X0150961Y0187621D02*
X0086853Y0187621D01*
X0086381Y0188420D02*
X0139901Y0188420D01*
X0145607Y0188420D02*
X0146594Y0188420D01*
X0146479Y0189218D02*
X0145723Y0189218D01*
X0145723Y0190017D02*
X0146479Y0190017D01*
X0146479Y0190815D02*
X0145723Y0190815D01*
X0145723Y0191614D02*
X0146479Y0191614D01*
X0146479Y0192412D02*
X0145723Y0192412D01*
X0145723Y0193211D02*
X0146479Y0193211D01*
X0146794Y0194009D02*
X0145408Y0194009D01*
X0145086Y0194808D02*
X0161443Y0194808D01*
X0160793Y0195606D02*
X0145417Y0195606D01*
X0145426Y0196405D02*
X0160526Y0196405D01*
X0160526Y0197203D02*
X0145177Y0197203D01*
X0144553Y0198002D02*
X0160847Y0198002D01*
X0163443Y0194009D02*
X0152101Y0194009D01*
X0152416Y0193211D02*
X0164242Y0193211D01*
X0164978Y0192412D02*
X0152416Y0192412D01*
X0152416Y0191614D02*
X0164978Y0191614D01*
X0164978Y0190815D02*
X0152416Y0190815D01*
X0152525Y0190017D02*
X0164978Y0190017D01*
X0164978Y0189218D02*
X0153324Y0189218D01*
X0154122Y0188420D02*
X0164978Y0188420D01*
X0164978Y0187621D02*
X0154921Y0187621D01*
X0155719Y0186823D02*
X0164978Y0186823D01*
X0164978Y0186024D02*
X0156518Y0186024D01*
X0157316Y0185226D02*
X0164978Y0185226D01*
X0164978Y0184427D02*
X0158115Y0184427D01*
X0158913Y0183629D02*
X0164978Y0183629D01*
X0164978Y0182830D02*
X0159712Y0182830D01*
X0160510Y0182032D02*
X0164978Y0182032D01*
X0164978Y0181233D02*
X0161309Y0181233D01*
X0162107Y0180434D02*
X0164978Y0180434D01*
X0164978Y0179636D02*
X0162906Y0179636D01*
X0163704Y0178837D02*
X0164978Y0178837D01*
X0164978Y0178039D02*
X0164503Y0178039D01*
X0164597Y0177240D02*
X0164978Y0177240D01*
X0164978Y0176442D02*
X0164597Y0176442D01*
X0164597Y0175643D02*
X0164978Y0175643D01*
X0164978Y0174845D02*
X0164597Y0174845D01*
X0164597Y0174046D02*
X0164978Y0174046D01*
X0164978Y0173248D02*
X0164597Y0173248D01*
X0164597Y0172449D02*
X0164978Y0172449D01*
X0164978Y0171651D02*
X0164597Y0171651D01*
X0164597Y0170852D02*
X0164978Y0170852D01*
X0164978Y0170054D02*
X0164597Y0170054D01*
X0164597Y0169255D02*
X0164978Y0169255D01*
X0164978Y0168457D02*
X0164597Y0168457D01*
X0164597Y0167658D02*
X0164978Y0167658D01*
X0164978Y0166860D02*
X0164597Y0166860D01*
X0164597Y0166061D02*
X0164978Y0166061D01*
X0164978Y0165263D02*
X0164597Y0165263D01*
X0164597Y0164464D02*
X0164978Y0164464D01*
X0164978Y0163666D02*
X0164597Y0163666D01*
X0164597Y0162867D02*
X0164978Y0162867D01*
X0164597Y0162069D02*
X0165361Y0162069D01*
X0161797Y0162069D02*
X0160847Y0162069D01*
X0160847Y0162867D02*
X0161797Y0162867D01*
X0161797Y0163666D02*
X0160847Y0163666D01*
X0160847Y0164464D02*
X0161797Y0164464D01*
X0161797Y0165263D02*
X0160847Y0165263D01*
X0160847Y0166061D02*
X0161797Y0166061D01*
X0161797Y0166860D02*
X0160847Y0166860D01*
X0160847Y0167658D02*
X0161797Y0167658D01*
X0161797Y0168457D02*
X0160847Y0168457D01*
X0160847Y0169255D02*
X0161797Y0169255D01*
X0161797Y0170054D02*
X0160847Y0170054D01*
X0160847Y0170852D02*
X0161797Y0170852D01*
X0161797Y0171651D02*
X0160847Y0171651D01*
X0160847Y0172449D02*
X0161797Y0172449D01*
X0161797Y0173248D02*
X0160847Y0173248D01*
X0160370Y0174046D02*
X0161797Y0174046D01*
X0161797Y0174845D02*
X0159572Y0174845D01*
X0158773Y0175643D02*
X0161797Y0175643D01*
X0161797Y0176442D02*
X0157975Y0176442D01*
X0157176Y0177240D02*
X0161341Y0177240D01*
X0160543Y0178039D02*
X0156378Y0178039D01*
X0155579Y0178837D02*
X0159744Y0178837D01*
X0158946Y0179636D02*
X0154781Y0179636D01*
X0154487Y0180434D02*
X0158147Y0180434D01*
X0157349Y0181233D02*
X0154487Y0181233D01*
X0154487Y0182032D02*
X0156550Y0182032D01*
X0155752Y0182830D02*
X0154487Y0182830D01*
X0154356Y0183629D02*
X0154953Y0183629D01*
X0154155Y0184427D02*
X0086878Y0184427D01*
X0086878Y0184777D02*
X0083910Y0184777D01*
X0083910Y0181612D01*
X0085662Y0181612D01*
X0086019Y0181707D01*
X0086338Y0181892D01*
X0086598Y0182152D01*
X0086783Y0182471D01*
X0086878Y0182827D01*
X0086878Y0184777D01*
X0086878Y0183629D02*
X0141595Y0183629D01*
X0141464Y0183497D02*
X0142050Y0184083D01*
X0147209Y0184083D01*
X0147795Y0183497D01*
X0147795Y0178732D01*
X0147209Y0178146D01*
X0145034Y0178146D01*
X0145053Y0178127D01*
X0145426Y0177227D01*
X0145426Y0176252D01*
X0145304Y0175958D01*
X0147209Y0175958D01*
X0147795Y0175372D01*
X0147795Y0170607D01*
X0147209Y0170021D01*
X0142050Y0170021D01*
X0141464Y0170607D01*
X0141464Y0172177D01*
X0141176Y0172466D01*
X0141176Y0172602D01*
X0141093Y0172711D01*
X0141176Y0173331D01*
X0141176Y0175075D01*
X0140899Y0175352D01*
X0140526Y0176252D01*
X0140526Y0177227D01*
X0140899Y0178127D01*
X0141176Y0178404D01*
X0141176Y0179834D01*
X0141034Y0180112D01*
X0141176Y0180552D01*
X0141176Y0181014D01*
X0141396Y0181234D01*
X0141464Y0181444D01*
X0141464Y0183497D01*
X0141464Y0182830D02*
X0086878Y0182830D01*
X0086478Y0182032D02*
X0141464Y0182032D01*
X0141395Y0181233D02*
X0080476Y0181233D01*
X0080476Y0182032D02*
X0080542Y0182032D01*
X0080476Y0180434D02*
X0141138Y0180434D01*
X0141176Y0179636D02*
X0080476Y0179636D01*
X0083110Y0182032D02*
X0083910Y0182032D01*
X0083910Y0182830D02*
X0083110Y0182830D01*
X0083110Y0183629D02*
X0083910Y0183629D01*
X0083910Y0184427D02*
X0083110Y0184427D01*
X0064226Y0184643D02*
X0063692Y0185177D01*
X0064226Y0184643D02*
X0064226Y0169540D01*
X0064226Y0164865D01*
X0062351Y0162990D01*
X0053913Y0162990D01*
X0050476Y0159552D01*
X0050476Y0020177D01*
X0068601Y0024865D02*
X0082351Y0024865D01*
X0082976Y0025490D01*
X0087676Y0025523D02*
X0154467Y0025523D01*
X0153668Y0024725D02*
X0087676Y0024725D01*
X0087676Y0023926D02*
X0152870Y0023926D01*
X0152071Y0023128D02*
X0087676Y0023128D01*
X0087676Y0022329D02*
X0151273Y0022329D01*
X0150474Y0021531D02*
X0087676Y0021531D01*
X0111951Y0027120D02*
X0112751Y0027120D01*
X0112751Y0027919D02*
X0111951Y0027919D01*
X0111951Y0028717D02*
X0112751Y0028717D01*
X0112751Y0029516D02*
X0111951Y0029516D01*
X0111951Y0030314D02*
X0112751Y0030314D01*
X0112751Y0031113D02*
X0111951Y0031113D01*
X0154053Y0018337D02*
X0380476Y0018337D01*
X0380476Y0019135D02*
X0220088Y0019135D01*
X0221657Y0019934D02*
X0380476Y0019934D01*
X0380476Y0020732D02*
X0222455Y0020732D01*
X0223179Y0021531D02*
X0380476Y0021531D01*
X0380476Y0022329D02*
X0373104Y0022329D01*
X0373601Y0023128D02*
X0380476Y0023128D01*
X0380476Y0023926D02*
X0373601Y0023926D01*
X0373601Y0024725D02*
X0380476Y0024725D01*
X0380476Y0025523D02*
X0373601Y0025523D01*
X0373601Y0026322D02*
X0380476Y0026322D01*
X0380476Y0027120D02*
X0373601Y0027120D01*
X0373601Y0027919D02*
X0380476Y0027919D01*
X0380476Y0028717D02*
X0373601Y0028717D01*
X0373601Y0029516D02*
X0380476Y0029516D01*
X0380476Y0030314D02*
X0373601Y0030314D01*
X0373601Y0031113D02*
X0380476Y0031113D01*
X0380476Y0031911D02*
X0373601Y0031911D01*
X0373601Y0032710D02*
X0380476Y0032710D01*
X0380476Y0033508D02*
X0373601Y0033508D01*
X0373601Y0034307D02*
X0380476Y0034307D01*
X0380476Y0035105D02*
X0373601Y0035105D01*
X0373601Y0035904D02*
X0380476Y0035904D01*
X0380476Y0036702D02*
X0373601Y0036702D01*
X0373601Y0037501D02*
X0380476Y0037501D01*
X0380476Y0038299D02*
X0373601Y0038299D01*
X0373601Y0039098D02*
X0380476Y0039098D01*
X0380476Y0039896D02*
X0373601Y0039896D01*
X0373601Y0040695D02*
X0380476Y0040695D01*
X0380476Y0041494D02*
X0373601Y0041494D01*
X0373601Y0042292D02*
X0380476Y0042292D01*
X0380476Y0043091D02*
X0373601Y0043091D01*
X0373601Y0043889D02*
X0380476Y0043889D01*
X0380476Y0044688D02*
X0373601Y0044688D01*
X0373601Y0045486D02*
X0380476Y0045486D01*
X0380476Y0046285D02*
X0373601Y0046285D01*
X0373601Y0047083D02*
X0380476Y0047083D01*
X0380476Y0047882D02*
X0373601Y0047882D01*
X0373601Y0048680D02*
X0380476Y0048680D01*
X0380476Y0049479D02*
X0373601Y0049479D01*
X0373601Y0050277D02*
X0380476Y0050277D01*
X0380476Y0051076D02*
X0373601Y0051076D01*
X0373601Y0051874D02*
X0380476Y0051874D01*
X0380476Y0052673D02*
X0373601Y0052673D01*
X0373601Y0053471D02*
X0380476Y0053471D01*
X0380476Y0054270D02*
X0373601Y0054270D01*
X0373601Y0055068D02*
X0380476Y0055068D01*
X0380476Y0055867D02*
X0373601Y0055867D01*
X0373601Y0056665D02*
X0380476Y0056665D01*
X0380476Y0057464D02*
X0373601Y0057464D01*
X0373601Y0058262D02*
X0380476Y0058262D01*
X0380476Y0059061D02*
X0373601Y0059061D01*
X0373601Y0059859D02*
X0380476Y0059859D01*
X0380476Y0060658D02*
X0373601Y0060658D01*
X0373601Y0061456D02*
X0380476Y0061456D01*
X0380476Y0062255D02*
X0373601Y0062255D01*
X0373601Y0063053D02*
X0380476Y0063053D01*
X0380476Y0063852D02*
X0373601Y0063852D01*
X0373601Y0064650D02*
X0380476Y0064650D01*
X0380476Y0065449D02*
X0373601Y0065449D01*
X0373601Y0066247D02*
X0380476Y0066247D01*
X0380476Y0067046D02*
X0373601Y0067046D01*
X0373601Y0067844D02*
X0380476Y0067844D01*
X0380476Y0068643D02*
X0373601Y0068643D01*
X0373601Y0069441D02*
X0380476Y0069441D01*
X0380476Y0070240D02*
X0373601Y0070240D01*
X0373601Y0071038D02*
X0380476Y0071038D01*
X0380476Y0071837D02*
X0373601Y0071837D01*
X0373601Y0072635D02*
X0380476Y0072635D01*
X0380476Y0073434D02*
X0373601Y0073434D01*
X0373601Y0074232D02*
X0380476Y0074232D01*
X0380476Y0075031D02*
X0373601Y0075031D01*
X0373425Y0075830D02*
X0380476Y0075830D01*
X0380476Y0076628D02*
X0286317Y0076628D01*
X0285519Y0077427D02*
X0380476Y0077427D01*
X0380476Y0078225D02*
X0284720Y0078225D01*
X0283922Y0079024D02*
X0380476Y0079024D01*
X0380476Y0079822D02*
X0283551Y0079822D01*
X0283439Y0080621D02*
X0380476Y0080621D01*
X0380476Y0081419D02*
X0283011Y0081419D01*
X0281101Y0079865D02*
X0311726Y0049240D01*
X0333601Y0049240D01*
X0293601Y0049479D02*
X0275651Y0049479D01*
X0275651Y0050277D02*
X0293601Y0050277D01*
X0293601Y0051076D02*
X0275651Y0051076D01*
X0275651Y0048680D02*
X0293601Y0048680D01*
X0293601Y0047882D02*
X0275651Y0047882D01*
X0275651Y0047083D02*
X0293601Y0047083D01*
X0293601Y0046285D02*
X0281820Y0046285D01*
X0282051Y0045486D02*
X0293601Y0045486D01*
X0293601Y0044688D02*
X0282051Y0044688D01*
X0282051Y0043889D02*
X0293601Y0043889D01*
X0293601Y0043091D02*
X0282051Y0043091D01*
X0281917Y0042292D02*
X0293601Y0042292D01*
X0293601Y0041494D02*
X0281611Y0041494D01*
X0282051Y0040695D02*
X0293601Y0040695D01*
X0293601Y0039896D02*
X0282051Y0039896D01*
X0282051Y0039098D02*
X0293601Y0039098D01*
X0293601Y0038299D02*
X0282051Y0038299D01*
X0282051Y0037501D02*
X0293601Y0037501D01*
X0293601Y0027120D02*
X0223632Y0027120D01*
X0223962Y0026322D02*
X0293601Y0026322D01*
X0293601Y0025523D02*
X0224058Y0025523D01*
X0224058Y0024725D02*
X0293601Y0024725D01*
X0293601Y0023926D02*
X0224058Y0023926D01*
X0223840Y0023128D02*
X0293601Y0023128D01*
X0294097Y0022329D02*
X0223510Y0022329D01*
X0215780Y0019135D02*
X0172844Y0019135D01*
X0174413Y0019934D02*
X0214211Y0019934D01*
X0213412Y0020732D02*
X0175211Y0020732D01*
X0175935Y0021531D02*
X0212689Y0021531D01*
X0212358Y0022329D02*
X0176265Y0022329D01*
X0176596Y0023128D02*
X0212027Y0023128D01*
X0211809Y0023926D02*
X0176814Y0023926D01*
X0176814Y0024725D02*
X0211809Y0024725D01*
X0211809Y0025523D02*
X0176814Y0025523D01*
X0176718Y0026322D02*
X0211905Y0026322D01*
X0212236Y0027120D02*
X0176387Y0027120D01*
X0176057Y0027919D02*
X0212567Y0027919D01*
X0213118Y0028717D02*
X0175506Y0028717D01*
X0167825Y0030314D02*
X0166030Y0030314D01*
X0166672Y0029516D02*
X0165232Y0029516D01*
X0165874Y0028717D02*
X0164433Y0028717D01*
X0163635Y0027919D02*
X0165323Y0027919D01*
X0164992Y0027120D02*
X0162836Y0027120D01*
X0162038Y0026322D02*
X0164661Y0026322D01*
X0164565Y0025523D02*
X0161239Y0025523D01*
X0160441Y0024725D02*
X0164565Y0024725D01*
X0164565Y0023926D02*
X0159642Y0023926D01*
X0158844Y0023128D02*
X0164783Y0023128D01*
X0165114Y0022329D02*
X0158045Y0022329D01*
X0157247Y0021531D02*
X0165445Y0021531D01*
X0166168Y0020732D02*
X0156448Y0020732D01*
X0155650Y0019934D02*
X0166967Y0019934D01*
X0168536Y0019135D02*
X0154851Y0019135D01*
X0198532Y0047882D02*
X0199891Y0047882D01*
X0199851Y0047083D02*
X0199528Y0047083D01*
X0206951Y0067046D02*
X0208451Y0067046D01*
X0208451Y0067844D02*
X0206951Y0067844D01*
X0206951Y0068643D02*
X0208451Y0068643D01*
X0208451Y0069441D02*
X0206951Y0069441D01*
X0206951Y0070240D02*
X0208451Y0070240D01*
X0208451Y0071038D02*
X0206951Y0071038D01*
X0206951Y0071837D02*
X0207773Y0071837D01*
X0206975Y0072635D02*
X0206951Y0072635D01*
X0154901Y0061365D02*
X0147351Y0068915D01*
X0119253Y0066247D02*
X0118236Y0066247D01*
X0118455Y0065449D02*
X0117905Y0065449D01*
X0117656Y0064650D02*
X0117146Y0064650D01*
X0065385Y0104865D02*
X0063913Y0106336D01*
X0063913Y0112037D01*
X0062960Y0112990D01*
X0070788Y0122677D02*
X0067663Y0125802D01*
X0067663Y0130490D01*
X0062663Y0128927D02*
X0061253Y0127517D01*
X0060380Y0127517D01*
X0061261Y0127517D01*
X0065788Y0122990D01*
X0070788Y0122677D02*
X0080476Y0122677D01*
X0089854Y0126136D02*
X0090654Y0126136D01*
X0090654Y0126934D02*
X0089854Y0126934D01*
X0089854Y0127733D02*
X0090654Y0127733D01*
X0090654Y0128531D02*
X0089854Y0128531D01*
X0095001Y0126136D02*
X0096407Y0126136D01*
X0097976Y0128211D02*
X0096947Y0129240D01*
X0099544Y0126136D02*
X0100782Y0126136D01*
X0092201Y0123740D02*
X0091919Y0123740D01*
X0084222Y0136516D02*
X0083422Y0136516D01*
X0083422Y0137315D02*
X0084222Y0137315D01*
X0084222Y0138113D02*
X0083422Y0138113D01*
X0084222Y0138912D02*
X0101818Y0138912D01*
X0101602Y0140509D02*
X0087387Y0140509D01*
X0087387Y0141307D02*
X0100803Y0141307D01*
X0100005Y0142106D02*
X0091414Y0142106D01*
X0092262Y0142904D02*
X0099206Y0142904D01*
X0098407Y0143703D02*
X0092593Y0143703D01*
X0092613Y0144501D02*
X0097609Y0144501D01*
X0096810Y0145300D02*
X0092376Y0145300D01*
X0091769Y0146098D02*
X0096012Y0146098D01*
X0095213Y0146897D02*
X0089486Y0146897D01*
X0088288Y0146115D02*
X0090163Y0144240D01*
X0087713Y0144501D02*
X0080476Y0144501D01*
X0080476Y0143703D02*
X0087734Y0143703D01*
X0088064Y0142904D02*
X0080476Y0142904D01*
X0080476Y0142106D02*
X0080575Y0142106D01*
X0083422Y0142106D02*
X0084222Y0142106D01*
X0084222Y0141307D02*
X0083422Y0141307D01*
X0083422Y0140509D02*
X0084222Y0140509D01*
X0084222Y0139710D02*
X0083422Y0139710D01*
X0077129Y0139240D02*
X0075879Y0140490D01*
X0066726Y0140490D01*
X0059226Y0138927D02*
X0059226Y0148940D01*
X0074226Y0148940D02*
X0077363Y0145802D01*
X0077676Y0146115D01*
X0088288Y0146115D01*
X0092019Y0150091D02*
X0080476Y0150091D01*
X0080476Y0149293D02*
X0092818Y0149293D01*
X0093616Y0148494D02*
X0080476Y0148494D01*
X0080476Y0147696D02*
X0094415Y0147696D01*
X0091771Y0150340D02*
X0091771Y0150340D01*
X0091221Y0150890D02*
X0088081Y0150890D01*
X0089706Y0151688D02*
X0090951Y0151688D01*
X0090951Y0152487D02*
X0090504Y0152487D01*
X0090901Y0153285D02*
X0090951Y0153285D01*
X0092351Y0156740D02*
X0084226Y0164865D01*
X0080476Y0170054D02*
X0142017Y0170054D01*
X0141464Y0170852D02*
X0080476Y0170852D01*
X0120587Y0178837D02*
X0141176Y0178837D01*
X0140862Y0178039D02*
X0122208Y0178039D01*
X0123007Y0177240D02*
X0140531Y0177240D01*
X0140526Y0176442D02*
X0123402Y0176442D01*
X0123726Y0175643D02*
X0140778Y0175643D01*
X0141176Y0174845D02*
X0123726Y0174845D01*
X0123716Y0174046D02*
X0141176Y0174046D01*
X0141165Y0173248D02*
X0123386Y0173248D01*
X0122967Y0172449D02*
X0141192Y0172449D01*
X0141464Y0171651D02*
X0122169Y0171651D01*
X0145426Y0176442D02*
X0154015Y0176442D01*
X0154216Y0175643D02*
X0154813Y0175643D01*
X0154487Y0174845D02*
X0155612Y0174845D01*
X0156410Y0174046D02*
X0154487Y0174046D01*
X0154487Y0173248D02*
X0157209Y0173248D01*
X0158008Y0172449D02*
X0154487Y0172449D01*
X0154487Y0171651D02*
X0158047Y0171651D01*
X0158047Y0170852D02*
X0154487Y0170852D01*
X0154154Y0170054D02*
X0158047Y0170054D01*
X0158047Y0169255D02*
X0154154Y0169255D01*
X0154154Y0168457D02*
X0158047Y0168457D01*
X0158047Y0167658D02*
X0154154Y0167658D01*
X0154154Y0166860D02*
X0158047Y0166860D01*
X0158047Y0166061D02*
X0154154Y0166061D01*
X0154154Y0165263D02*
X0158047Y0165263D01*
X0158047Y0164464D02*
X0154154Y0164464D01*
X0154154Y0163666D02*
X0158047Y0163666D01*
X0158047Y0162867D02*
X0154154Y0162867D01*
X0154154Y0162069D02*
X0158047Y0162069D01*
X0156555Y0161270D02*
X0155647Y0161270D01*
X0155723Y0160472D02*
X0156479Y0160472D01*
X0156479Y0159673D02*
X0155723Y0159673D01*
X0155723Y0158875D02*
X0156479Y0158875D01*
X0156479Y0158076D02*
X0155723Y0158076D01*
X0155723Y0157278D02*
X0156479Y0157278D01*
X0156479Y0156479D02*
X0155723Y0156479D01*
X0155368Y0155681D02*
X0156833Y0155681D01*
X0159447Y0158615D02*
X0159447Y0172990D01*
X0151322Y0181115D01*
X0148157Y0181233D02*
X0147795Y0181233D01*
X0147795Y0182032D02*
X0148157Y0182032D01*
X0148157Y0182830D02*
X0147795Y0182830D01*
X0147663Y0183629D02*
X0148288Y0183629D01*
X0148157Y0180434D02*
X0147795Y0180434D01*
X0147795Y0179636D02*
X0148157Y0179636D01*
X0148157Y0178837D02*
X0147795Y0178837D01*
X0145089Y0178039D02*
X0152418Y0178039D01*
X0153216Y0177240D02*
X0145420Y0177240D01*
X0147524Y0175643D02*
X0148428Y0175643D01*
X0148157Y0174845D02*
X0147795Y0174845D01*
X0147795Y0174046D02*
X0148157Y0174046D01*
X0148157Y0173248D02*
X0147795Y0173248D01*
X0147795Y0172449D02*
X0148157Y0172449D01*
X0148157Y0171651D02*
X0147795Y0171651D01*
X0147795Y0170852D02*
X0148157Y0170852D01*
X0148710Y0170054D02*
X0147241Y0170054D01*
X0151322Y0172990D02*
X0152754Y0171558D01*
X0152754Y0158615D01*
X0152754Y0145268D01*
X0149226Y0141740D01*
X0156504Y0143081D02*
X0156504Y0147990D01*
X0159473Y0147696D02*
X0160229Y0147696D01*
X0160229Y0148494D02*
X0159473Y0148494D01*
X0159473Y0149293D02*
X0160229Y0149293D01*
X0160229Y0150091D02*
X0159473Y0150091D01*
X0159152Y0150890D02*
X0160549Y0150890D01*
X0163197Y0147990D02*
X0163197Y0177365D01*
X0149447Y0191115D01*
X0151101Y0189461D01*
X0187678Y0154084D02*
X0259701Y0154084D01*
X0266426Y0154084D02*
X0293601Y0154084D01*
X0293601Y0154882D02*
X0266426Y0154882D01*
X0266426Y0155681D02*
X0293601Y0155681D01*
X0293601Y0156479D02*
X0266426Y0156479D01*
X0266426Y0157278D02*
X0293601Y0157278D01*
X0293601Y0158076D02*
X0266426Y0158076D01*
X0266426Y0158875D02*
X0293601Y0158875D01*
X0293601Y0159673D02*
X0266520Y0159673D01*
X0267319Y0160472D02*
X0293601Y0160472D01*
X0293601Y0161270D02*
X0282051Y0161270D01*
X0282051Y0162069D02*
X0293601Y0162069D01*
X0293601Y0162867D02*
X0282051Y0162867D01*
X0282051Y0163666D02*
X0293601Y0163666D01*
X0293601Y0164464D02*
X0282051Y0164464D01*
X0281592Y0165263D02*
X0293601Y0165263D01*
X0293601Y0166061D02*
X0281937Y0166061D01*
X0282051Y0166860D02*
X0293601Y0166860D01*
X0293601Y0167658D02*
X0282051Y0167658D01*
X0282051Y0168457D02*
X0293601Y0168457D01*
X0293601Y0169255D02*
X0282051Y0169255D01*
X0281801Y0170054D02*
X0293601Y0170054D01*
X0293601Y0170852D02*
X0281728Y0170852D01*
X0282051Y0171651D02*
X0293601Y0171651D01*
X0293601Y0172449D02*
X0282051Y0172449D01*
X0282051Y0173248D02*
X0293601Y0173248D01*
X0293601Y0174046D02*
X0282051Y0174046D01*
X0282010Y0174845D02*
X0293601Y0174845D01*
X0274051Y0167990D02*
X0265476Y0167990D01*
X0261101Y0163615D01*
X0261101Y0141740D01*
X0256322Y0136961D01*
X0214226Y0136961D01*
X0194447Y0136961D01*
X0189004Y0131518D01*
X0190404Y0130927D02*
X0207802Y0130927D01*
X0208600Y0131725D02*
X0191191Y0131725D01*
X0191990Y0132524D02*
X0211060Y0132524D01*
X0211518Y0134121D02*
X0193587Y0134121D01*
X0194385Y0134919D02*
X0211060Y0134919D01*
X0211060Y0138912D02*
X0199042Y0138912D01*
X0199291Y0139710D02*
X0211427Y0139710D01*
X0217024Y0139710D02*
X0257092Y0139710D01*
X0257890Y0140509D02*
X0199291Y0140509D01*
X0199291Y0141307D02*
X0258689Y0141307D01*
X0259487Y0142106D02*
X0250427Y0142106D01*
X0251078Y0142904D02*
X0259701Y0142904D01*
X0259701Y0143703D02*
X0251401Y0143703D01*
X0251401Y0144501D02*
X0259701Y0144501D01*
X0259701Y0145300D02*
X0251192Y0145300D01*
X0250702Y0146098D02*
X0259701Y0146098D01*
X0259701Y0146897D02*
X0249502Y0146897D01*
X0247699Y0146897D02*
X0188863Y0146897D01*
X0189226Y0149240D02*
X0182976Y0142990D01*
X0182976Y0137365D01*
X0185426Y0137315D02*
X0187826Y0137315D01*
X0187826Y0138113D02*
X0185317Y0138113D01*
X0184893Y0138912D02*
X0186909Y0138912D01*
X0186661Y0139710D02*
X0184376Y0139710D01*
X0184376Y0140509D02*
X0186661Y0140509D01*
X0186661Y0141307D02*
X0184376Y0141307D01*
X0184376Y0142106D02*
X0186661Y0142106D01*
X0186661Y0142904D02*
X0184870Y0142904D01*
X0185669Y0143703D02*
X0186661Y0143703D01*
X0186843Y0144501D02*
X0186467Y0144501D01*
X0189629Y0141740D02*
X0189226Y0141336D01*
X0189226Y0136115D01*
X0184851Y0131740D01*
X0184851Y0126740D01*
X0185939Y0124539D02*
X0186036Y0124539D01*
X0190404Y0122143D02*
X0195932Y0122143D01*
X0196731Y0121345D02*
X0190404Y0121345D01*
X0190404Y0120546D02*
X0197529Y0120546D01*
X0198328Y0119748D02*
X0190426Y0119748D01*
X0190378Y0118949D02*
X0199126Y0118949D01*
X0199925Y0118151D02*
X0194717Y0118151D01*
X0194676Y0118192D02*
X0193776Y0118565D01*
X0192801Y0118565D01*
X0191900Y0118192D01*
X0191211Y0117502D01*
X0190838Y0116602D01*
X0190838Y0115627D01*
X0191211Y0114727D01*
X0191888Y0114050D01*
X0191888Y0112405D01*
X0190996Y0112405D01*
X0190411Y0111819D01*
X0190411Y0106660D01*
X0190996Y0106074D01*
X0195762Y0106074D01*
X0196348Y0106660D01*
X0196348Y0111819D01*
X0195762Y0112405D01*
X0194688Y0112405D01*
X0194688Y0114050D01*
X0195365Y0114727D01*
X0195738Y0115627D01*
X0195738Y0116602D01*
X0195365Y0117502D01*
X0194676Y0118192D01*
X0195427Y0117352D02*
X0200723Y0117352D01*
X0201522Y0116554D02*
X0195738Y0116554D01*
X0195738Y0115755D02*
X0202320Y0115755D01*
X0203119Y0114957D02*
X0195460Y0114957D01*
X0194796Y0114158D02*
X0203917Y0114158D01*
X0204716Y0113360D02*
X0194688Y0113360D01*
X0194688Y0112561D02*
X0205514Y0112561D01*
X0206313Y0111763D02*
X0203041Y0111763D01*
X0203041Y0110964D02*
X0207112Y0110964D01*
X0207910Y0110165D02*
X0203041Y0110165D01*
X0203056Y0109367D02*
X0208709Y0109367D01*
X0209507Y0108568D02*
X0203855Y0108568D01*
X0204653Y0107770D02*
X0212408Y0107770D01*
X0215418Y0107770D02*
X0229459Y0107770D01*
X0230258Y0106971D02*
X0227730Y0106971D01*
X0228529Y0106173D02*
X0231056Y0106173D01*
X0234085Y0109367D02*
X0240726Y0109367D01*
X0240726Y0110165D02*
X0233286Y0110165D01*
X0232488Y0110964D02*
X0240726Y0110964D01*
X0240726Y0111763D02*
X0231689Y0111763D01*
X0231074Y0112377D02*
X0215673Y0112377D01*
X0215499Y0112551D01*
X0214470Y0112977D01*
X0213356Y0112977D01*
X0212327Y0112551D01*
X0212153Y0112377D01*
X0211921Y0112377D01*
X0203483Y0120815D01*
X0204158Y0120815D01*
X0205187Y0121241D01*
X0205974Y0122029D01*
X0206401Y0123058D01*
X0206401Y0123303D01*
X0211060Y0127963D01*
X0211060Y0127885D01*
X0211646Y0127300D01*
X0216805Y0127300D01*
X0217391Y0127885D01*
X0217391Y0128669D01*
X0220137Y0131415D01*
X0242311Y0131415D01*
X0242149Y0131252D01*
X0241776Y0130352D01*
X0241776Y0129377D01*
X0242149Y0128477D01*
X0242838Y0127788D01*
X0243014Y0127715D01*
X0241941Y0127715D01*
X0241585Y0127619D01*
X0241266Y0127435D01*
X0241005Y0127174D01*
X0240821Y0126855D01*
X0240726Y0126499D01*
X0240726Y0114015D01*
X0251326Y0114015D01*
X0251326Y0113215D01*
X0240726Y0113215D01*
X0240726Y0102726D01*
X0231074Y0112377D01*
X0234883Y0108568D02*
X0240726Y0108568D01*
X0240726Y0107770D02*
X0235682Y0107770D01*
X0236480Y0106971D02*
X0240726Y0106971D01*
X0240726Y0106173D02*
X0237279Y0106173D01*
X0238077Y0105374D02*
X0240726Y0105374D01*
X0240726Y0104576D02*
X0238876Y0104576D01*
X0239674Y0103777D02*
X0240726Y0103777D01*
X0240726Y0102979D02*
X0240473Y0102979D01*
X0240726Y0112561D02*
X0215475Y0112561D01*
X0212352Y0112561D02*
X0211737Y0112561D01*
X0210939Y0113360D02*
X0251326Y0113360D01*
X0251326Y0114158D02*
X0252126Y0114158D01*
X0252126Y0114015D02*
X0252126Y0127715D01*
X0261510Y0127715D01*
X0261866Y0127619D01*
X0262185Y0127435D01*
X0262446Y0127174D01*
X0262630Y0126855D01*
X0262726Y0126499D01*
X0262726Y0114015D01*
X0252126Y0114015D01*
X0252126Y0113360D02*
X0293601Y0113360D01*
X0293601Y0114158D02*
X0262726Y0114158D01*
X0262726Y0114957D02*
X0293601Y0114957D01*
X0293601Y0115755D02*
X0262726Y0115755D01*
X0262726Y0116554D02*
X0293601Y0116554D01*
X0293601Y0117352D02*
X0281918Y0117352D01*
X0281910Y0117344D02*
X0282171Y0117605D01*
X0282355Y0117924D01*
X0282451Y0118280D01*
X0282451Y0119565D01*
X0274351Y0119565D01*
X0274351Y0120165D01*
X0282451Y0120165D01*
X0282451Y0121449D01*
X0282355Y0121805D01*
X0282171Y0122124D01*
X0281931Y0122365D01*
X0282171Y0122605D01*
X0282355Y0122924D01*
X0282451Y0123280D01*
X0282451Y0124565D01*
X0274351Y0124565D01*
X0274351Y0125165D01*
X0282451Y0125165D01*
X0282451Y0126449D01*
X0282355Y0126805D01*
X0282171Y0127124D01*
X0281931Y0127365D01*
X0282171Y0127605D01*
X0282355Y0127924D01*
X0282451Y0128280D01*
X0282451Y0129565D01*
X0274351Y0129565D01*
X0274351Y0130165D01*
X0273751Y0130165D01*
X0273751Y0132665D01*
X0266866Y0132665D01*
X0266510Y0132569D01*
X0266191Y0132385D01*
X0265930Y0132124D01*
X0265746Y0131805D01*
X0265651Y0131449D01*
X0265651Y0130165D01*
X0273751Y0130165D01*
X0273751Y0129565D01*
X0265651Y0129565D01*
X0265651Y0128280D01*
X0265746Y0127924D01*
X0265930Y0127605D01*
X0266171Y0127365D01*
X0265930Y0127124D01*
X0265746Y0126805D01*
X0265651Y0126449D01*
X0265651Y0125165D01*
X0273751Y0125165D01*
X0273751Y0129565D01*
X0274351Y0129565D01*
X0274351Y0127665D01*
X0274351Y0125165D01*
X0273751Y0125165D01*
X0273751Y0124565D01*
X0265651Y0124565D01*
X0265651Y0123280D01*
X0265746Y0122924D01*
X0265930Y0122605D01*
X0266171Y0122365D01*
X0265930Y0122124D01*
X0265746Y0121805D01*
X0265651Y0121449D01*
X0265651Y0120165D01*
X0273751Y0120165D01*
X0273751Y0124565D01*
X0274351Y0124565D01*
X0274351Y0122065D01*
X0274351Y0120165D01*
X0273751Y0120165D01*
X0273751Y0119565D01*
X0265651Y0119565D01*
X0265651Y0118280D01*
X0265746Y0117924D01*
X0265930Y0117605D01*
X0266191Y0117344D01*
X0266510Y0117160D01*
X0266866Y0117065D01*
X0273751Y0117065D01*
X0273751Y0119565D01*
X0274351Y0119565D01*
X0274351Y0117065D01*
X0281235Y0117065D01*
X0281591Y0117160D01*
X0281910Y0117344D01*
X0282416Y0118151D02*
X0293601Y0118151D01*
X0293601Y0118949D02*
X0282451Y0118949D01*
X0282451Y0120546D02*
X0293601Y0120546D01*
X0293601Y0119748D02*
X0274351Y0119748D01*
X0273751Y0119748D02*
X0262726Y0119748D01*
X0262726Y0120546D02*
X0265651Y0120546D01*
X0265651Y0121345D02*
X0262726Y0121345D01*
X0262726Y0122143D02*
X0265949Y0122143D01*
X0265741Y0122942D02*
X0262726Y0122942D01*
X0262726Y0123740D02*
X0265651Y0123740D01*
X0265651Y0124539D02*
X0262726Y0124539D01*
X0262726Y0125337D02*
X0265651Y0125337D01*
X0265651Y0126136D02*
X0262726Y0126136D01*
X0262585Y0126934D02*
X0265821Y0126934D01*
X0265857Y0127733D02*
X0245481Y0127733D01*
X0244226Y0129865D02*
X0260476Y0129865D01*
X0266726Y0136115D01*
X0312351Y0136115D01*
X0333601Y0114865D01*
X0373601Y0114957D02*
X0380476Y0114957D01*
X0380476Y0115755D02*
X0373601Y0115755D01*
X0373601Y0116554D02*
X0380476Y0116554D01*
X0380476Y0117352D02*
X0373601Y0117352D01*
X0373601Y0118151D02*
X0380476Y0118151D01*
X0380476Y0118949D02*
X0373601Y0118949D01*
X0373601Y0119748D02*
X0380476Y0119748D01*
X0380476Y0120546D02*
X0373601Y0120546D01*
X0373601Y0121345D02*
X0380476Y0121345D01*
X0380476Y0122143D02*
X0373601Y0122143D01*
X0373601Y0122942D02*
X0380476Y0122942D01*
X0380476Y0123740D02*
X0373601Y0123740D01*
X0373601Y0124539D02*
X0380476Y0124539D01*
X0380476Y0125337D02*
X0373601Y0125337D01*
X0373601Y0126136D02*
X0380476Y0126136D01*
X0380476Y0126934D02*
X0373601Y0126934D01*
X0373601Y0127733D02*
X0380476Y0127733D01*
X0380476Y0128531D02*
X0373601Y0128531D01*
X0373601Y0129330D02*
X0380476Y0129330D01*
X0380476Y0130128D02*
X0373601Y0130128D01*
X0373601Y0130927D02*
X0380476Y0130927D01*
X0380476Y0131725D02*
X0373601Y0131725D01*
X0373601Y0132524D02*
X0380476Y0132524D01*
X0380476Y0133322D02*
X0373601Y0133322D01*
X0373601Y0134121D02*
X0380476Y0134121D01*
X0380476Y0134919D02*
X0373601Y0134919D01*
X0373601Y0135718D02*
X0380476Y0135718D01*
X0380476Y0136516D02*
X0373601Y0136516D01*
X0373601Y0137315D02*
X0380476Y0137315D01*
X0380476Y0138113D02*
X0373601Y0138113D01*
X0373601Y0138912D02*
X0380476Y0138912D01*
X0380476Y0139710D02*
X0373601Y0139710D01*
X0373601Y0140509D02*
X0380476Y0140509D01*
X0380476Y0141307D02*
X0373572Y0141307D01*
X0380476Y0142106D02*
X0349802Y0142106D01*
X0350453Y0142904D02*
X0380476Y0142904D01*
X0380476Y0143703D02*
X0350776Y0143703D01*
X0350776Y0144501D02*
X0380476Y0144501D01*
X0380476Y0145300D02*
X0350567Y0145300D01*
X0350077Y0146098D02*
X0380476Y0146098D01*
X0380476Y0146897D02*
X0348877Y0146897D01*
X0347074Y0146897D02*
X0279098Y0146897D01*
X0279622Y0147696D02*
X0380476Y0147696D01*
X0380476Y0148494D02*
X0279801Y0148494D01*
X0280008Y0149293D02*
X0380476Y0149293D01*
X0380476Y0150091D02*
X0280807Y0150091D01*
X0281605Y0150890D02*
X0380476Y0150890D01*
X0380476Y0151688D02*
X0373601Y0151688D01*
X0373601Y0152487D02*
X0380476Y0152487D01*
X0380476Y0153285D02*
X0373601Y0153285D01*
X0373601Y0154084D02*
X0380476Y0154084D01*
X0380476Y0154882D02*
X0373601Y0154882D01*
X0373601Y0155681D02*
X0380476Y0155681D01*
X0380476Y0156479D02*
X0373601Y0156479D01*
X0373601Y0157278D02*
X0380476Y0157278D01*
X0380476Y0158076D02*
X0373601Y0158076D01*
X0373601Y0158875D02*
X0380476Y0158875D01*
X0380476Y0159673D02*
X0373601Y0159673D01*
X0373601Y0160472D02*
X0380476Y0160472D01*
X0380476Y0161270D02*
X0373601Y0161270D01*
X0373601Y0162069D02*
X0380476Y0162069D01*
X0380476Y0162867D02*
X0373601Y0162867D01*
X0373601Y0163666D02*
X0380476Y0163666D01*
X0380476Y0164464D02*
X0373601Y0164464D01*
X0373601Y0165263D02*
X0380476Y0165263D01*
X0380476Y0166061D02*
X0373601Y0166061D01*
X0373601Y0166860D02*
X0380476Y0166860D01*
X0380476Y0167658D02*
X0373601Y0167658D01*
X0373601Y0168457D02*
X0380476Y0168457D01*
X0380476Y0169255D02*
X0373601Y0169255D01*
X0373601Y0170054D02*
X0380476Y0170054D01*
X0380476Y0170852D02*
X0373601Y0170852D01*
X0373601Y0171651D02*
X0380476Y0171651D01*
X0380476Y0172449D02*
X0373601Y0172449D01*
X0373601Y0173248D02*
X0380476Y0173248D01*
X0380476Y0174046D02*
X0373601Y0174046D01*
X0373601Y0174845D02*
X0380476Y0174845D01*
X0380476Y0175643D02*
X0373601Y0175643D01*
X0373601Y0176442D02*
X0380476Y0176442D01*
X0380476Y0177240D02*
X0373601Y0177240D01*
X0373601Y0178039D02*
X0380476Y0178039D01*
X0380476Y0178837D02*
X0373601Y0178837D01*
X0373601Y0179636D02*
X0380476Y0179636D01*
X0380476Y0180434D02*
X0373601Y0180434D01*
X0373601Y0181233D02*
X0380476Y0181233D01*
X0380476Y0182032D02*
X0373601Y0182032D01*
X0373601Y0182830D02*
X0380476Y0182830D01*
X0380476Y0183629D02*
X0373601Y0183629D01*
X0373601Y0184427D02*
X0380476Y0184427D01*
X0380476Y0185226D02*
X0373601Y0185226D01*
X0373601Y0186024D02*
X0380476Y0186024D01*
X0380476Y0186823D02*
X0373601Y0186823D01*
X0373601Y0187621D02*
X0380476Y0187621D01*
X0380476Y0188420D02*
X0373601Y0188420D01*
X0373601Y0189218D02*
X0380476Y0189218D01*
X0380476Y0190017D02*
X0373601Y0190017D01*
X0373601Y0190815D02*
X0380476Y0190815D01*
X0380476Y0191614D02*
X0373601Y0191614D01*
X0373601Y0192412D02*
X0380476Y0192412D01*
X0380476Y0193211D02*
X0373601Y0193211D01*
X0373601Y0194009D02*
X0380476Y0194009D01*
X0380476Y0194808D02*
X0373601Y0194808D01*
X0373601Y0195606D02*
X0380476Y0195606D01*
X0380476Y0196405D02*
X0373601Y0196405D01*
X0373601Y0197203D02*
X0380476Y0197203D01*
X0380476Y0198002D02*
X0373601Y0198002D01*
X0373601Y0198800D02*
X0380476Y0198800D01*
X0380476Y0199599D02*
X0373601Y0199599D01*
X0373601Y0200397D02*
X0380476Y0200397D01*
X0380476Y0201196D02*
X0373601Y0201196D01*
X0373601Y0201994D02*
X0380476Y0201994D01*
X0380476Y0202793D02*
X0373601Y0202793D01*
X0373601Y0203591D02*
X0380476Y0203591D01*
X0380476Y0204390D02*
X0373601Y0204390D01*
X0380476Y0205188D02*
X0080476Y0205188D01*
X0080476Y0204390D02*
X0293601Y0204390D01*
X0293601Y0203591D02*
X0080476Y0203591D01*
X0080476Y0202793D02*
X0293601Y0202793D01*
X0293601Y0201994D02*
X0080476Y0201994D01*
X0080476Y0201196D02*
X0293601Y0201196D01*
X0293601Y0200397D02*
X0080476Y0200397D01*
X0080476Y0199599D02*
X0293601Y0199599D01*
X0333601Y0177990D02*
X0333601Y0172365D01*
X0313601Y0152365D01*
X0281101Y0152365D01*
X0277351Y0148615D01*
X0276441Y0150890D02*
X0266426Y0150890D01*
X0266426Y0151688D02*
X0278444Y0151688D01*
X0279243Y0152487D02*
X0266426Y0152487D01*
X0266426Y0153285D02*
X0280041Y0153285D01*
X0275362Y0150091D02*
X0266426Y0150091D01*
X0266426Y0149293D02*
X0274980Y0149293D01*
X0274901Y0148494D02*
X0266426Y0148494D01*
X0266426Y0147696D02*
X0275080Y0147696D01*
X0275603Y0146897D02*
X0274502Y0146897D01*
X0272699Y0146897D02*
X0266426Y0146897D01*
X0266426Y0146098D02*
X0271500Y0146098D01*
X0271009Y0145300D02*
X0266426Y0145300D01*
X0266426Y0144501D02*
X0270801Y0144501D01*
X0270801Y0143703D02*
X0266426Y0143703D01*
X0266426Y0142904D02*
X0271123Y0142904D01*
X0271775Y0142106D02*
X0266426Y0142106D01*
X0266426Y0141307D02*
X0293629Y0141307D01*
X0293601Y0140509D02*
X0266426Y0140509D01*
X0266426Y0139710D02*
X0293601Y0139710D01*
X0293601Y0138912D02*
X0266384Y0138912D01*
X0265586Y0138113D02*
X0293601Y0138113D01*
X0293601Y0134121D02*
X0266712Y0134121D01*
X0265913Y0133322D02*
X0293601Y0133322D01*
X0293601Y0132524D02*
X0281670Y0132524D01*
X0281591Y0132569D02*
X0281235Y0132665D01*
X0274351Y0132665D01*
X0274351Y0130165D01*
X0282451Y0130165D01*
X0282451Y0131449D01*
X0282355Y0131805D01*
X0282171Y0132124D01*
X0281910Y0132385D01*
X0281591Y0132569D01*
X0282377Y0131725D02*
X0293601Y0131725D01*
X0293601Y0130927D02*
X0282451Y0130927D01*
X0282451Y0129330D02*
X0293601Y0129330D01*
X0293601Y0130128D02*
X0274351Y0130128D01*
X0273751Y0130128D02*
X0262719Y0130128D01*
X0261921Y0129330D02*
X0265651Y0129330D01*
X0265651Y0128531D02*
X0261122Y0128531D01*
X0263518Y0130927D02*
X0265651Y0130927D01*
X0265725Y0131725D02*
X0264316Y0131725D01*
X0265115Y0132524D02*
X0266432Y0132524D01*
X0263550Y0134919D02*
X0262392Y0134919D01*
X0262752Y0134121D02*
X0261593Y0134121D01*
X0261953Y0133322D02*
X0260795Y0133322D01*
X0261155Y0132524D02*
X0259996Y0132524D01*
X0260356Y0131725D02*
X0259198Y0131725D01*
X0263190Y0135718D02*
X0264349Y0135718D01*
X0263989Y0136516D02*
X0265147Y0136516D01*
X0264787Y0137315D02*
X0265946Y0137315D01*
X0273751Y0132524D02*
X0274351Y0132524D01*
X0274351Y0131725D02*
X0273751Y0131725D01*
X0273751Y0130927D02*
X0274351Y0130927D01*
X0274351Y0129330D02*
X0273751Y0129330D01*
X0273751Y0128531D02*
X0274351Y0128531D01*
X0274351Y0127733D02*
X0273751Y0127733D01*
X0273751Y0126934D02*
X0274351Y0126934D01*
X0274351Y0126136D02*
X0273751Y0126136D01*
X0273751Y0125337D02*
X0274351Y0125337D01*
X0274351Y0124539D02*
X0273751Y0124539D01*
X0273751Y0123740D02*
X0274351Y0123740D01*
X0274351Y0122942D02*
X0273751Y0122942D01*
X0273751Y0122143D02*
X0274351Y0122143D01*
X0274351Y0121345D02*
X0273751Y0121345D01*
X0273751Y0120546D02*
X0274351Y0120546D01*
X0274351Y0118949D02*
X0273751Y0118949D01*
X0273751Y0118151D02*
X0274351Y0118151D01*
X0274351Y0117352D02*
X0273751Y0117352D01*
X0274351Y0112665D02*
X0274351Y0110165D01*
X0282451Y0110165D01*
X0282451Y0111449D01*
X0282355Y0111805D01*
X0282171Y0112124D01*
X0281910Y0112385D01*
X0281591Y0112569D01*
X0281235Y0112665D01*
X0274351Y0112665D01*
X0274351Y0112561D02*
X0273751Y0112561D01*
X0273751Y0111763D02*
X0274351Y0111763D01*
X0274351Y0110964D02*
X0273751Y0110964D01*
X0273751Y0110165D02*
X0274351Y0110165D01*
X0274351Y0109367D02*
X0273751Y0109367D01*
X0273751Y0108568D02*
X0274351Y0108568D01*
X0274351Y0107770D02*
X0273751Y0107770D01*
X0273751Y0106971D02*
X0274351Y0106971D01*
X0274351Y0106173D02*
X0273751Y0106173D01*
X0273751Y0105374D02*
X0274351Y0105374D01*
X0274351Y0104576D02*
X0293601Y0104576D01*
X0293601Y0105374D02*
X0282451Y0105374D01*
X0282451Y0106173D02*
X0293601Y0106173D01*
X0293601Y0106971D02*
X0282259Y0106971D01*
X0282266Y0107770D02*
X0293601Y0107770D01*
X0293601Y0108568D02*
X0282451Y0108568D01*
X0282451Y0109367D02*
X0293601Y0109367D01*
X0293601Y0110165D02*
X0282451Y0110165D01*
X0282451Y0110964D02*
X0293601Y0110964D01*
X0293601Y0111763D02*
X0282367Y0111763D01*
X0281605Y0112561D02*
X0293601Y0112561D01*
X0293601Y0103777D02*
X0282451Y0103777D01*
X0282370Y0102979D02*
X0293601Y0102979D01*
X0293601Y0102180D02*
X0281626Y0102180D01*
X0282051Y0101382D02*
X0293601Y0101382D01*
X0293601Y0100583D02*
X0282051Y0100583D01*
X0282051Y0099785D02*
X0293601Y0099785D01*
X0293601Y0098986D02*
X0282051Y0098986D01*
X0282051Y0098188D02*
X0293601Y0098188D01*
X0293601Y0097389D02*
X0274687Y0097389D01*
X0273888Y0096591D02*
X0293601Y0096591D01*
X0273751Y0104576D02*
X0262726Y0104576D01*
X0262726Y0105374D02*
X0265651Y0105374D01*
X0265651Y0106173D02*
X0262726Y0106173D01*
X0262726Y0106971D02*
X0265842Y0106971D01*
X0265835Y0107770D02*
X0262726Y0107770D01*
X0262726Y0108568D02*
X0265651Y0108568D01*
X0265651Y0109367D02*
X0262726Y0109367D01*
X0262726Y0110165D02*
X0265651Y0110165D01*
X0265651Y0110964D02*
X0262726Y0110964D01*
X0262726Y0111763D02*
X0265735Y0111763D01*
X0266496Y0112561D02*
X0262726Y0112561D01*
X0262726Y0117352D02*
X0266183Y0117352D01*
X0265685Y0118151D02*
X0262726Y0118151D01*
X0262726Y0118949D02*
X0265651Y0118949D01*
X0252126Y0118949D02*
X0251326Y0118949D01*
X0251326Y0118151D02*
X0252126Y0118151D01*
X0252126Y0117352D02*
X0251326Y0117352D01*
X0251326Y0116554D02*
X0252126Y0116554D01*
X0252126Y0115755D02*
X0251326Y0115755D01*
X0251326Y0114957D02*
X0252126Y0114957D01*
X0252126Y0119748D02*
X0251326Y0119748D01*
X0251326Y0120546D02*
X0252126Y0120546D01*
X0252126Y0121345D02*
X0251326Y0121345D01*
X0251326Y0122143D02*
X0252126Y0122143D01*
X0252126Y0122942D02*
X0251326Y0122942D01*
X0251326Y0123740D02*
X0252126Y0123740D01*
X0252126Y0124539D02*
X0251326Y0124539D01*
X0251326Y0125337D02*
X0252126Y0125337D01*
X0252126Y0126136D02*
X0251326Y0126136D01*
X0251326Y0126934D02*
X0252126Y0126934D01*
X0242970Y0127733D02*
X0217238Y0127733D01*
X0217391Y0128531D02*
X0242126Y0128531D01*
X0241795Y0129330D02*
X0218052Y0129330D01*
X0218851Y0130128D02*
X0241776Y0130128D01*
X0242014Y0130927D02*
X0219649Y0130927D01*
X0215879Y0130268D02*
X0214226Y0130268D01*
X0215822Y0133322D02*
X0192788Y0133322D01*
X0190404Y0130128D02*
X0207003Y0130128D01*
X0206205Y0129330D02*
X0190404Y0129330D01*
X0191511Y0128531D02*
X0193191Y0128531D01*
X0192729Y0127733D02*
X0191973Y0127733D01*
X0191973Y0126934D02*
X0192729Y0126934D01*
X0192729Y0126136D02*
X0191973Y0126136D01*
X0191973Y0125337D02*
X0192729Y0125337D01*
X0192729Y0124539D02*
X0191973Y0124539D01*
X0191973Y0123740D02*
X0192729Y0123740D01*
X0192729Y0122942D02*
X0191973Y0122942D01*
X0198961Y0125337D02*
X0201363Y0125337D01*
X0200953Y0124539D02*
X0199759Y0124539D01*
X0200558Y0123740D02*
X0200801Y0123740D01*
X0202370Y0126136D02*
X0198666Y0126136D01*
X0198666Y0126934D02*
X0203809Y0126934D01*
X0204607Y0127733D02*
X0198666Y0127733D01*
X0198204Y0128531D02*
X0205406Y0128531D01*
X0208434Y0125337D02*
X0240726Y0125337D01*
X0240726Y0124539D02*
X0207636Y0124539D01*
X0206837Y0123740D02*
X0240726Y0123740D01*
X0240726Y0122942D02*
X0206353Y0122942D01*
X0206022Y0122143D02*
X0240726Y0122143D01*
X0240726Y0121345D02*
X0205290Y0121345D01*
X0203752Y0120546D02*
X0240726Y0120546D01*
X0240726Y0119748D02*
X0204550Y0119748D01*
X0205349Y0118949D02*
X0240726Y0118949D01*
X0240726Y0118151D02*
X0206147Y0118151D01*
X0206946Y0117352D02*
X0240726Y0117352D01*
X0240726Y0116554D02*
X0207744Y0116554D01*
X0208543Y0115755D02*
X0240726Y0115755D01*
X0240726Y0114957D02*
X0209341Y0114957D01*
X0210140Y0114158D02*
X0240726Y0114158D01*
X0240726Y0126136D02*
X0209233Y0126136D01*
X0210031Y0126934D02*
X0240867Y0126934D01*
X0256293Y0138912D02*
X0217391Y0138912D01*
X0211213Y0127733D02*
X0210830Y0127733D01*
X0191859Y0118151D02*
X0190039Y0118151D01*
X0189066Y0117352D02*
X0191149Y0117352D01*
X0190838Y0116554D02*
X0188126Y0116554D01*
X0188126Y0115755D02*
X0190838Y0115755D01*
X0191116Y0114957D02*
X0188126Y0114957D01*
X0188126Y0114158D02*
X0191780Y0114158D01*
X0191888Y0113360D02*
X0188126Y0113360D01*
X0188126Y0112561D02*
X0191888Y0112561D01*
X0190411Y0111763D02*
X0188126Y0111763D01*
X0188126Y0110964D02*
X0190411Y0110964D01*
X0190411Y0110165D02*
X0188126Y0110165D01*
X0188126Y0109367D02*
X0190411Y0109367D01*
X0190411Y0108568D02*
X0188126Y0108568D01*
X0188126Y0107770D02*
X0190411Y0107770D01*
X0190411Y0106971D02*
X0188126Y0106971D01*
X0188126Y0106173D02*
X0190898Y0106173D01*
X0191278Y0103777D02*
X0202423Y0103777D01*
X0203222Y0102979D02*
X0191989Y0102979D01*
X0188424Y0103777D02*
X0188126Y0103777D01*
X0188126Y0104576D02*
X0201625Y0104576D01*
X0200826Y0105374D02*
X0188126Y0105374D01*
X0193288Y0109331D02*
X0193288Y0116115D01*
X0196348Y0111763D02*
X0197104Y0111763D01*
X0197104Y0110964D02*
X0196348Y0110964D01*
X0196348Y0110165D02*
X0197104Y0110165D01*
X0197104Y0109367D02*
X0196348Y0109367D01*
X0196348Y0108568D02*
X0197104Y0108568D01*
X0197104Y0107770D02*
X0196348Y0107770D01*
X0196348Y0106971D02*
X0197104Y0106971D01*
X0197591Y0106173D02*
X0195861Y0106173D01*
X0193379Y0109240D02*
X0193288Y0109331D01*
X0186849Y0135718D02*
X0184794Y0135718D01*
X0185276Y0136516D02*
X0187647Y0136516D01*
X0187299Y0149293D02*
X0186493Y0149293D01*
X0189226Y0149240D02*
X0191519Y0149240D01*
X0192351Y0150071D01*
X0160229Y0146897D02*
X0159473Y0146897D01*
X0159473Y0146098D02*
X0160229Y0146098D01*
X0160339Y0145300D02*
X0159363Y0145300D01*
X0151354Y0146897D02*
X0139723Y0146897D01*
X0140247Y0147696D02*
X0151354Y0147696D01*
X0151354Y0148494D02*
X0140426Y0148494D01*
X0140347Y0149293D02*
X0151354Y0149293D01*
X0151354Y0150091D02*
X0139964Y0150091D01*
X0138886Y0150890D02*
X0151354Y0150890D01*
X0088912Y0142106D02*
X0087070Y0142106D01*
X0077129Y0139240D02*
X0076504Y0137990D01*
X0064004Y0135177D02*
X0062663Y0133836D01*
X0062663Y0128927D01*
X0080476Y0205987D02*
X0380476Y0205987D01*
X0380476Y0206785D02*
X0080476Y0206785D01*
X0080476Y0207584D02*
X0380476Y0207584D01*
X0380476Y0208382D02*
X0080476Y0208382D01*
X0080476Y0209181D02*
X0380476Y0209181D01*
X0266510Y0165263D02*
X0264729Y0165263D01*
X0265089Y0164464D02*
X0263930Y0164464D01*
X0264291Y0163666D02*
X0263132Y0163666D01*
X0263492Y0162867D02*
X0262501Y0162867D01*
X0262501Y0162069D02*
X0262693Y0162069D01*
X0265527Y0166061D02*
X0266165Y0166061D01*
X0282451Y0128531D02*
X0293601Y0128531D01*
X0293601Y0127733D02*
X0282245Y0127733D01*
X0282281Y0126934D02*
X0293601Y0126934D01*
X0293601Y0126136D02*
X0282451Y0126136D01*
X0282451Y0125337D02*
X0293601Y0125337D01*
X0293601Y0124539D02*
X0282451Y0124539D01*
X0282451Y0123740D02*
X0293601Y0123740D01*
X0293601Y0122942D02*
X0282360Y0122942D01*
X0282152Y0122143D02*
X0293601Y0122143D01*
X0293601Y0121345D02*
X0282451Y0121345D01*
X0265651Y0103777D02*
X0262726Y0103777D01*
X0262726Y0102979D02*
X0265731Y0102979D01*
X0266475Y0102180D02*
X0262726Y0102180D01*
X0262726Y0101382D02*
X0266051Y0101382D01*
X0269851Y0081740D02*
X0274051Y0077540D01*
X0274051Y0064240D01*
X0266051Y0063852D02*
X0260451Y0063852D01*
X0260451Y0063053D02*
X0266051Y0063053D01*
X0266221Y0062255D02*
X0260451Y0062255D01*
X0260451Y0061456D02*
X0266453Y0061456D01*
X0266051Y0060658D02*
X0260451Y0060658D01*
X0260451Y0059859D02*
X0266051Y0059859D01*
X0266051Y0059061D02*
X0260451Y0059061D01*
X0260451Y0058262D02*
X0266051Y0058262D01*
X0266051Y0057464D02*
X0260451Y0057464D01*
X0260029Y0064650D02*
X0266051Y0064650D01*
X0282051Y0055867D02*
X0293601Y0055867D01*
X0293601Y0055068D02*
X0282051Y0055068D01*
X0282051Y0054270D02*
X0293601Y0054270D01*
X0293601Y0053471D02*
X0282051Y0053471D01*
X0282051Y0052673D02*
X0293601Y0052673D01*
X0293601Y0051874D02*
X0281499Y0051874D01*
X0274051Y0044240D02*
X0274051Y0039240D01*
X0293504Y0069441D02*
X0293601Y0069441D01*
X0293601Y0070240D02*
X0292705Y0070240D01*
X0291907Y0071038D02*
X0293601Y0071038D01*
X0293601Y0071837D02*
X0291108Y0071837D01*
X0290310Y0072635D02*
X0293601Y0072635D01*
X0293601Y0073434D02*
X0289511Y0073434D01*
X0288713Y0074232D02*
X0293601Y0074232D01*
X0293601Y0075031D02*
X0287914Y0075031D01*
X0287116Y0075830D02*
X0293776Y0075830D01*
X0373601Y0088606D02*
X0380476Y0088606D01*
X0380476Y0089404D02*
X0373601Y0089404D01*
X0373601Y0090203D02*
X0380476Y0090203D01*
X0380476Y0091001D02*
X0373601Y0091001D01*
X0373601Y0091800D02*
X0380476Y0091800D01*
X0380476Y0092598D02*
X0373601Y0092598D01*
X0373601Y0093397D02*
X0380476Y0093397D01*
X0380476Y0094195D02*
X0373601Y0094195D01*
X0373601Y0094994D02*
X0380476Y0094994D01*
X0380476Y0095792D02*
X0373601Y0095792D01*
X0373601Y0096591D02*
X0380476Y0096591D01*
X0380476Y0097389D02*
X0373601Y0097389D01*
X0373601Y0098188D02*
X0380476Y0098188D01*
X0380476Y0098986D02*
X0373601Y0098986D01*
X0373601Y0099785D02*
X0380476Y0099785D01*
X0380476Y0100583D02*
X0373601Y0100583D01*
X0373601Y0101382D02*
X0380476Y0101382D01*
X0380476Y0102180D02*
X0373601Y0102180D01*
X0373601Y0102979D02*
X0380476Y0102979D01*
X0380476Y0103777D02*
X0373601Y0103777D01*
X0373601Y0104576D02*
X0380476Y0104576D01*
X0380476Y0105374D02*
X0373601Y0105374D01*
X0373601Y0106173D02*
X0380476Y0106173D01*
X0380476Y0106971D02*
X0373601Y0106971D01*
X0373601Y0107770D02*
X0380476Y0107770D01*
X0380476Y0108568D02*
X0373601Y0108568D01*
X0373601Y0109367D02*
X0380476Y0109367D01*
X0380476Y0110165D02*
X0373601Y0110165D01*
X0373601Y0110964D02*
X0380476Y0110964D01*
X0380476Y0111763D02*
X0373601Y0111763D01*
X0373601Y0112561D02*
X0380476Y0112561D01*
X0380476Y0113360D02*
X0373601Y0113360D01*
X0373601Y0114158D02*
X0380476Y0114158D01*
D33*
X0370476Y0098615D03*
X0370476Y0094865D03*
X0370476Y0091115D03*
X0365476Y0091115D03*
X0365476Y0094865D03*
X0360476Y0094865D03*
X0360476Y0091115D03*
X0360476Y0098615D03*
X0365476Y0098615D03*
X0365476Y0072990D03*
X0360476Y0072990D03*
X0360476Y0069240D03*
X0365476Y0069240D03*
X0365476Y0065490D03*
X0360476Y0065490D03*
X0370476Y0065490D03*
X0370476Y0069240D03*
X0370476Y0072990D03*
X0370476Y0032990D03*
X0370476Y0029240D03*
X0370476Y0025490D03*
X0365476Y0025490D03*
X0365476Y0029240D03*
X0360476Y0029240D03*
X0360476Y0025490D03*
X0360476Y0032990D03*
X0365476Y0032990D03*
X0281101Y0079865D03*
X0252351Y0061740D03*
X0256726Y0057365D03*
X0252351Y0052365D03*
X0256726Y0048615D03*
X0252351Y0044240D03*
X0256726Y0040490D03*
X0209851Y0064865D03*
X0212976Y0071115D03*
X0204851Y0081740D03*
X0177663Y0066740D03*
X0174851Y0057990D03*
X0177976Y0047052D03*
X0150476Y0047990D03*
X0115788Y0057990D03*
X0115788Y0066740D03*
X0092351Y0061115D03*
X0128288Y0082990D03*
X0107976Y0092990D03*
X0101726Y0099240D03*
X0102351Y0108302D03*
X0097976Y0111427D03*
X0083601Y0103927D03*
X0078601Y0106427D03*
X0080163Y0101427D03*
X0066413Y0109865D03*
X0075476Y0114240D03*
X0080788Y0118302D03*
X0080476Y0122677D03*
X0091101Y0121427D03*
X0097976Y0124240D03*
X0102351Y0124240D03*
X0112976Y0132990D03*
X0102976Y0136740D03*
X0090163Y0144240D03*
X0111726Y0148615D03*
X0137976Y0148615D03*
X0149226Y0141740D03*
X0149226Y0135802D03*
X0160476Y0131115D03*
X0165476Y0132990D03*
X0162351Y0126740D03*
X0162351Y0123615D03*
X0158601Y0123615D03*
X0158601Y0126740D03*
X0154851Y0126740D03*
X0154851Y0123615D03*
X0151101Y0123615D03*
X0151101Y0126740D03*
X0132351Y0123615D03*
X0129538Y0126115D03*
X0126413Y0128615D03*
X0126726Y0132990D03*
X0128913Y0119552D03*
X0151101Y0108615D03*
X0154851Y0108615D03*
X0158601Y0108615D03*
X0162351Y0108615D03*
X0162351Y0105490D03*
X0158601Y0105490D03*
X0154851Y0105490D03*
X0151101Y0105490D03*
X0160788Y0101115D03*
X0159538Y0097677D03*
X0160788Y0093927D03*
X0165476Y0094865D03*
X0189851Y0101740D03*
X0189226Y0108615D03*
X0193288Y0116115D03*
X0187976Y0119552D03*
X0184851Y0126740D03*
X0182976Y0137365D03*
X0184851Y0151115D03*
X0167351Y0157365D03*
X0142976Y0176740D03*
X0142976Y0196115D03*
X0162976Y0196740D03*
X0202351Y0192990D03*
X0207351Y0192990D03*
X0207351Y0188615D03*
X0202351Y0188615D03*
X0212351Y0188615D03*
X0212351Y0192990D03*
X0245476Y0162365D03*
X0245476Y0158615D03*
X0245476Y0155490D03*
X0245476Y0151740D03*
X0277351Y0148615D03*
X0244226Y0129865D03*
X0172351Y0077365D03*
X0080788Y0085490D03*
X0065788Y0122990D03*
X0067663Y0130490D03*
X0059226Y0138927D03*
X0066726Y0140490D03*
X0360476Y0137990D03*
X0365476Y0137990D03*
X0365476Y0134240D03*
X0360476Y0134240D03*
X0360476Y0130490D03*
X0365476Y0130490D03*
X0370476Y0130490D03*
X0370476Y0134240D03*
X0370476Y0137990D03*
X0370476Y0154240D03*
X0370476Y0157990D03*
X0370476Y0161740D03*
X0365476Y0161740D03*
X0360476Y0161740D03*
X0360476Y0157990D03*
X0365476Y0157990D03*
X0365476Y0154240D03*
X0360476Y0154240D03*
X0360476Y0194240D03*
X0365476Y0194240D03*
X0365476Y0197990D03*
X0360476Y0197990D03*
X0360476Y0201740D03*
X0365476Y0201740D03*
X0370476Y0201740D03*
X0370476Y0197990D03*
X0370476Y0194240D03*
D34*
X0274051Y0192990D02*
X0274051Y0187990D01*
X0274051Y0182990D01*
X0274051Y0172990D01*
X0274051Y0167990D01*
X0171293Y0178615D02*
X0171293Y0188423D01*
X0162976Y0196740D01*
X0084226Y0154865D02*
X0065476Y0154865D01*
X0064226Y0153615D01*
X0064226Y0148940D01*
X0069226Y0148940D02*
X0069226Y0144865D01*
X0071413Y0142677D01*
X0082663Y0142677D01*
X0082976Y0142990D01*
X0081413Y0134240D02*
X0071635Y0134240D01*
X0070697Y0135177D01*
X0082198Y0125642D02*
X0082351Y0125490D01*
X0058692Y0104865D02*
X0058692Y0096427D01*
X0058692Y0087677D01*
X0112351Y0051779D02*
X0136726Y0051779D01*
X0274051Y0054240D02*
X0274051Y0044240D01*
X0274051Y0054240D02*
X0274051Y0059240D01*
X0274051Y0064240D01*
D35*
X0116504Y0132990D02*
X0112976Y0132990D01*
X0081101Y0127365D02*
X0075099Y0127365D01*
X0074947Y0127517D01*
X0142976Y0173211D02*
X0142976Y0176740D01*
X0142976Y0180268D01*
X0144629Y0181115D01*
X0142976Y0173211D02*
X0144629Y0172990D01*
X0167351Y0157365D02*
X0170924Y0157365D01*
X0142976Y0190893D02*
X0142976Y0196115D01*
X0142754Y0191115D02*
X0142976Y0190893D01*
M02*
