G75*
%MOIN*%
%OFA0B0*%
%FSLAX25Y25*%
%IPPOS*%
%LPD*%
%AMOC8*
5,1,8,0,0,1.08239X$1,22.5*
%
%ADD10C,0.00400*%
%ADD11C,0.00100*%
%ADD12C,0.00800*%
%ADD13C,0.01575*%
%ADD14C,0.00600*%
%ADD15C,0.00500*%
%ADD16R,0.02559X0.05512*%
%ADD17R,0.05512X0.02559*%
%ADD18C,0.00300*%
%ADD19C,0.02200*%
D10*
X0095801Y0049190D02*
X0095801Y0053794D01*
X0098103Y0053794D01*
X0098871Y0053026D01*
X0098871Y0051492D01*
X0098103Y0050724D01*
X0095801Y0050724D01*
X0097336Y0050724D02*
X0098871Y0049190D01*
X0100405Y0049957D02*
X0101173Y0049190D01*
X0102707Y0049190D01*
X0103475Y0049957D01*
X0103475Y0050724D01*
X0102707Y0051492D01*
X0101940Y0051492D01*
X0102707Y0051492D02*
X0103475Y0052259D01*
X0103475Y0053026D01*
X0102707Y0053794D01*
X0101173Y0053794D01*
X0100405Y0053026D01*
X0105009Y0053026D02*
X0105777Y0053794D01*
X0107311Y0053794D01*
X0108079Y0053026D01*
X0105009Y0049957D01*
X0105777Y0049190D01*
X0107311Y0049190D01*
X0108079Y0049957D01*
X0108079Y0053026D01*
X0105009Y0053026D02*
X0105009Y0049957D01*
X0105777Y0057940D02*
X0105009Y0058707D01*
X0105009Y0059474D01*
X0105777Y0060242D01*
X0107311Y0060242D01*
X0108079Y0059474D01*
X0108079Y0058707D01*
X0107311Y0057940D01*
X0105777Y0057940D01*
X0105777Y0060242D02*
X0105009Y0061009D01*
X0105009Y0061776D01*
X0105777Y0062544D01*
X0107311Y0062544D01*
X0108079Y0061776D01*
X0108079Y0061009D01*
X0107311Y0060242D01*
X0103475Y0061009D02*
X0100405Y0057940D01*
X0103475Y0057940D01*
X0103475Y0061009D02*
X0103475Y0061776D01*
X0102707Y0062544D01*
X0101173Y0062544D01*
X0100405Y0061776D01*
X0098871Y0061776D02*
X0098871Y0060242D01*
X0098103Y0059474D01*
X0095801Y0059474D01*
X0095801Y0057940D02*
X0095801Y0062544D01*
X0098103Y0062544D01*
X0098871Y0061776D01*
X0097336Y0059474D02*
X0098871Y0057940D01*
X0079713Y0073627D02*
X0075109Y0073627D01*
X0075109Y0075929D01*
X0075877Y0076696D01*
X0077411Y0076696D01*
X0078179Y0075929D01*
X0078179Y0073627D01*
X0078179Y0075162D02*
X0079713Y0076696D01*
X0078946Y0078231D02*
X0079713Y0078998D01*
X0079713Y0080533D01*
X0078946Y0081300D01*
X0078179Y0081300D01*
X0077411Y0080533D01*
X0077411Y0079766D01*
X0077411Y0080533D02*
X0076644Y0081300D01*
X0075877Y0081300D01*
X0075109Y0080533D01*
X0075109Y0078998D01*
X0075877Y0078231D01*
X0076644Y0082835D02*
X0075109Y0084370D01*
X0079713Y0084370D01*
X0079713Y0085904D02*
X0079713Y0082835D01*
X0086359Y0082436D02*
X0087127Y0081669D01*
X0086359Y0082436D02*
X0086359Y0083971D01*
X0087127Y0084738D01*
X0087894Y0084738D01*
X0090963Y0081669D01*
X0090963Y0084738D01*
X0090196Y0086273D02*
X0090963Y0087040D01*
X0090963Y0088574D01*
X0090196Y0089342D01*
X0087127Y0089342D01*
X0086359Y0088574D01*
X0086359Y0087040D01*
X0087127Y0086273D01*
X0087894Y0086273D01*
X0088661Y0087040D01*
X0088661Y0089342D01*
X0098234Y0088717D02*
X0098234Y0085648D01*
X0099002Y0084113D02*
X0098234Y0083346D01*
X0098234Y0081811D01*
X0099002Y0081044D01*
X0099002Y0079509D02*
X0100536Y0079509D01*
X0101304Y0078742D01*
X0101304Y0076440D01*
X0102838Y0076440D02*
X0098234Y0076440D01*
X0098234Y0078742D01*
X0099002Y0079509D01*
X0101304Y0077974D02*
X0102838Y0079509D01*
X0102838Y0081044D02*
X0099769Y0084113D01*
X0099002Y0084113D01*
X0102071Y0085648D02*
X0102838Y0085648D01*
X0102071Y0085648D02*
X0099002Y0088717D01*
X0098234Y0088717D01*
X0102838Y0084113D02*
X0102838Y0081044D01*
X0108614Y0078794D02*
X0110916Y0078794D01*
X0111683Y0078026D01*
X0111683Y0076492D01*
X0110916Y0075724D01*
X0108614Y0075724D01*
X0108614Y0074190D02*
X0108614Y0078794D01*
X0113218Y0078026D02*
X0113985Y0078794D01*
X0115520Y0078794D01*
X0116287Y0078026D01*
X0116287Y0077259D01*
X0113218Y0074190D01*
X0116287Y0074190D01*
X0117822Y0074957D02*
X0118589Y0074190D01*
X0120124Y0074190D01*
X0120891Y0074957D01*
X0120891Y0075724D01*
X0120124Y0076492D01*
X0117822Y0076492D01*
X0117822Y0074957D01*
X0117822Y0076492D02*
X0119356Y0078026D01*
X0120891Y0078794D01*
X0111683Y0074190D02*
X0110149Y0075724D01*
X0090963Y0077065D02*
X0086359Y0077065D01*
X0086359Y0079367D01*
X0087127Y0080134D01*
X0088661Y0080134D01*
X0089429Y0079367D01*
X0089429Y0077065D01*
X0089429Y0078599D02*
X0090963Y0080134D01*
X0134114Y0077401D02*
X0134114Y0074332D01*
X0134881Y0073565D01*
X0136416Y0073565D01*
X0137183Y0074332D01*
X0138718Y0073565D02*
X0141787Y0073565D01*
X0140252Y0073565D02*
X0140252Y0078169D01*
X0138718Y0076634D01*
X0137183Y0077401D02*
X0136416Y0078169D01*
X0134881Y0078169D01*
X0134114Y0077401D01*
X0134881Y0070044D02*
X0134114Y0069276D01*
X0134114Y0066207D01*
X0134881Y0065440D01*
X0136416Y0065440D01*
X0137183Y0066207D01*
X0138718Y0065440D02*
X0141787Y0065440D01*
X0140252Y0065440D02*
X0140252Y0070044D01*
X0138718Y0068509D01*
X0137183Y0069276D02*
X0136416Y0070044D01*
X0134881Y0070044D01*
X0143322Y0069276D02*
X0143322Y0068509D01*
X0144089Y0067742D01*
X0145624Y0067742D01*
X0146391Y0066974D01*
X0146391Y0066207D01*
X0145624Y0065440D01*
X0144089Y0065440D01*
X0143322Y0066207D01*
X0143322Y0066974D01*
X0144089Y0067742D01*
X0145624Y0067742D02*
X0146391Y0068509D01*
X0146391Y0069276D01*
X0145624Y0070044D01*
X0144089Y0070044D01*
X0143322Y0069276D01*
X0144089Y0073565D02*
X0145624Y0073565D01*
X0146391Y0074332D01*
X0146391Y0075099D01*
X0145624Y0075867D01*
X0143322Y0075867D01*
X0143322Y0074332D01*
X0144089Y0073565D01*
X0143322Y0075867D02*
X0144856Y0077401D01*
X0146391Y0078169D01*
X0170422Y0078763D02*
X0170422Y0077228D01*
X0171189Y0076461D01*
X0172724Y0077995D02*
X0172724Y0078763D01*
X0173491Y0079530D01*
X0174258Y0079530D01*
X0175026Y0078763D01*
X0175026Y0077228D01*
X0174258Y0076461D01*
X0174343Y0077151D02*
X0174343Y0074082D01*
X0175110Y0073315D01*
X0176645Y0073315D01*
X0177412Y0074082D01*
X0178947Y0074082D02*
X0179714Y0073315D01*
X0181249Y0073315D01*
X0182016Y0074082D01*
X0182016Y0075617D01*
X0181249Y0076384D01*
X0180481Y0076384D01*
X0178947Y0075617D01*
X0178947Y0077919D01*
X0182016Y0077919D01*
X0177412Y0077151D02*
X0176645Y0077919D01*
X0175110Y0077919D01*
X0174343Y0077151D01*
X0172724Y0078763D02*
X0171956Y0079530D01*
X0171189Y0079530D01*
X0170422Y0078763D01*
X0175026Y0074926D02*
X0175026Y0071857D01*
X0175026Y0073391D02*
X0170422Y0073391D01*
X0171956Y0071857D01*
X0171189Y0070322D02*
X0172724Y0070322D01*
X0173491Y0069555D01*
X0173491Y0067253D01*
X0172808Y0066992D02*
X0172808Y0068526D01*
X0172041Y0069294D01*
X0169739Y0069294D01*
X0169739Y0064690D01*
X0169739Y0066224D02*
X0172041Y0066224D01*
X0172808Y0066992D01*
X0174343Y0067759D02*
X0175877Y0069294D01*
X0175877Y0064690D01*
X0174343Y0064690D02*
X0177412Y0064690D01*
X0178947Y0064690D02*
X0182016Y0067759D01*
X0182016Y0068526D01*
X0181249Y0069294D01*
X0179714Y0069294D01*
X0178947Y0068526D01*
X0175026Y0067253D02*
X0170422Y0067253D01*
X0170422Y0069555D01*
X0171189Y0070322D01*
X0173491Y0068788D02*
X0175026Y0070322D01*
X0171274Y0066224D02*
X0172808Y0064690D01*
X0173134Y0060936D02*
X0173134Y0057099D01*
X0173901Y0056332D01*
X0175436Y0056332D01*
X0176203Y0057099D01*
X0176203Y0060936D01*
X0177738Y0060168D02*
X0178505Y0060936D01*
X0180040Y0060936D01*
X0180807Y0060168D01*
X0180040Y0058634D02*
X0178505Y0058634D01*
X0177738Y0059401D01*
X0177738Y0060168D01*
X0179272Y0061703D02*
X0179272Y0055565D01*
X0178505Y0056332D02*
X0180040Y0056332D01*
X0180807Y0057099D01*
X0180807Y0057867D01*
X0180040Y0058634D01*
X0182342Y0059401D02*
X0183876Y0060936D01*
X0183876Y0056332D01*
X0182342Y0056332D02*
X0185411Y0056332D01*
X0186946Y0057099D02*
X0187713Y0056332D01*
X0189248Y0056332D01*
X0190015Y0057099D01*
X0190015Y0060168D01*
X0189248Y0060936D01*
X0187713Y0060936D01*
X0186946Y0060168D01*
X0186946Y0059401D01*
X0187713Y0058634D01*
X0190015Y0058634D01*
X0194297Y0063249D02*
X0195064Y0062482D01*
X0198133Y0062482D01*
X0198901Y0063249D01*
X0198901Y0064784D01*
X0198133Y0065551D01*
X0196599Y0067086D02*
X0196599Y0070155D01*
X0198901Y0069388D02*
X0194297Y0069388D01*
X0196599Y0067086D01*
X0195064Y0065551D02*
X0194297Y0064784D01*
X0194297Y0063249D01*
X0182016Y0064690D02*
X0178947Y0064690D01*
X0177738Y0057099D02*
X0178505Y0056332D01*
X0207922Y0057878D02*
X0207922Y0060180D01*
X0208689Y0060947D01*
X0210224Y0060947D01*
X0210991Y0060180D01*
X0210991Y0057878D01*
X0210991Y0059412D02*
X0212526Y0060947D01*
X0212526Y0062482D02*
X0212526Y0065551D01*
X0213366Y0066224D02*
X0214901Y0067759D01*
X0214901Y0069294D02*
X0214901Y0072363D01*
X0214901Y0073898D02*
X0214901Y0076967D01*
X0214901Y0075432D02*
X0210297Y0075432D01*
X0211831Y0073898D01*
X0210297Y0070828D02*
X0214901Y0070828D01*
X0212526Y0069388D02*
X0212526Y0067853D01*
X0211758Y0067086D01*
X0208689Y0070155D01*
X0211758Y0070155D01*
X0212526Y0069388D01*
X0211831Y0069294D02*
X0210297Y0070828D01*
X0208689Y0070155D02*
X0207922Y0069388D01*
X0207922Y0067853D01*
X0208689Y0067086D01*
X0211758Y0067086D01*
X0211064Y0067759D02*
X0210297Y0066992D01*
X0210297Y0064690D01*
X0214901Y0064690D01*
X0213366Y0064690D02*
X0213366Y0066992D01*
X0212599Y0067759D01*
X0211064Y0067759D01*
X0212526Y0064016D02*
X0207922Y0064016D01*
X0209456Y0062482D01*
X0207922Y0057878D02*
X0212526Y0057878D01*
X0217922Y0078732D02*
X0217922Y0081034D01*
X0218689Y0081801D01*
X0220224Y0081801D01*
X0220991Y0081034D01*
X0220991Y0078732D01*
X0220991Y0080266D02*
X0222526Y0081801D01*
X0222526Y0083336D02*
X0221758Y0083336D01*
X0218689Y0086405D01*
X0217922Y0086405D01*
X0217922Y0083336D01*
X0217922Y0078732D02*
X0222526Y0078732D01*
X0199516Y0084207D02*
X0199516Y0084974D01*
X0198749Y0085742D01*
X0196447Y0085742D01*
X0196447Y0084207D01*
X0197214Y0083440D01*
X0198749Y0083440D01*
X0199516Y0084207D01*
X0197981Y0087276D02*
X0196447Y0085742D01*
X0194912Y0085742D02*
X0194145Y0084974D01*
X0191843Y0084974D01*
X0191843Y0083440D02*
X0191843Y0088044D01*
X0194145Y0088044D01*
X0194912Y0087276D01*
X0194912Y0085742D01*
X0193377Y0084974D02*
X0194912Y0083440D01*
X0197981Y0087276D02*
X0199516Y0088044D01*
X0218422Y0095749D02*
X0219189Y0094982D01*
X0222258Y0094982D01*
X0223026Y0095749D01*
X0223026Y0097284D01*
X0222258Y0098051D01*
X0222258Y0099586D02*
X0223026Y0100353D01*
X0223026Y0101888D01*
X0222258Y0102655D01*
X0221491Y0102655D01*
X0220724Y0101888D01*
X0220724Y0101120D01*
X0220724Y0101888D02*
X0219956Y0102655D01*
X0219189Y0102655D01*
X0218422Y0101888D01*
X0218422Y0100353D01*
X0219189Y0099586D01*
X0219189Y0098051D02*
X0218422Y0097284D01*
X0218422Y0095749D01*
X0200332Y0112940D02*
X0200332Y0117544D01*
X0198030Y0115242D01*
X0201099Y0115242D01*
X0196495Y0115242D02*
X0196495Y0116776D01*
X0195728Y0117544D01*
X0193426Y0117544D01*
X0193426Y0112940D01*
X0193426Y0114474D02*
X0195728Y0114474D01*
X0196495Y0115242D01*
X0194960Y0114474D02*
X0196495Y0112940D01*
X0218422Y0115124D02*
X0219189Y0114357D01*
X0222258Y0114357D01*
X0223026Y0115124D01*
X0223026Y0116659D01*
X0222258Y0117426D01*
X0223026Y0118961D02*
X0219956Y0122030D01*
X0219189Y0122030D01*
X0218422Y0121263D01*
X0218422Y0119728D01*
X0219189Y0118961D01*
X0219189Y0117426D02*
X0218422Y0116659D01*
X0218422Y0115124D01*
X0223026Y0118961D02*
X0223026Y0122030D01*
X0199224Y0127315D02*
X0196155Y0127315D01*
X0199224Y0130384D01*
X0199224Y0131151D01*
X0198457Y0131919D01*
X0196922Y0131919D01*
X0196155Y0131151D01*
X0194620Y0131151D02*
X0194620Y0129617D01*
X0193853Y0128849D01*
X0191551Y0128849D01*
X0193085Y0128849D02*
X0194620Y0127315D01*
X0191551Y0127315D02*
X0191551Y0131919D01*
X0193853Y0131919D01*
X0194620Y0131151D01*
X0194478Y0135940D02*
X0195245Y0136707D01*
X0194478Y0135940D02*
X0192943Y0135940D01*
X0192176Y0136707D01*
X0192176Y0139776D01*
X0192943Y0140544D01*
X0194478Y0140544D01*
X0195245Y0139776D01*
X0196780Y0139009D02*
X0198314Y0140544D01*
X0198314Y0135940D01*
X0196780Y0135940D02*
X0199849Y0135940D01*
X0170141Y0142332D02*
X0169374Y0141565D01*
X0167839Y0141565D01*
X0167072Y0142332D01*
X0167072Y0143867D02*
X0168606Y0144634D01*
X0169374Y0144634D01*
X0170141Y0143867D01*
X0170141Y0142332D01*
X0167072Y0143867D02*
X0167072Y0146169D01*
X0170141Y0146169D01*
X0165537Y0145401D02*
X0164770Y0146169D01*
X0163235Y0146169D01*
X0162468Y0145401D01*
X0160933Y0145401D02*
X0160933Y0143867D01*
X0160166Y0143099D01*
X0157864Y0143099D01*
X0157864Y0141565D02*
X0157864Y0146169D01*
X0160166Y0146169D01*
X0160933Y0145401D01*
X0159399Y0143099D02*
X0160933Y0141565D01*
X0162468Y0141565D02*
X0165537Y0144634D01*
X0165537Y0145401D01*
X0165537Y0141565D02*
X0162468Y0141565D01*
X0154716Y0146039D02*
X0154716Y0146806D01*
X0157785Y0149876D01*
X0157785Y0150643D01*
X0154716Y0150643D01*
X0153182Y0149876D02*
X0152414Y0150643D01*
X0150880Y0150643D01*
X0150112Y0149876D01*
X0150112Y0149108D01*
X0150880Y0148341D01*
X0152414Y0148341D01*
X0153182Y0147574D01*
X0153182Y0146806D01*
X0152414Y0146039D01*
X0150880Y0146039D01*
X0150112Y0146806D01*
X0148578Y0146806D02*
X0148578Y0150643D01*
X0148064Y0150836D02*
X0147297Y0151603D01*
X0147297Y0153138D01*
X0148064Y0153905D01*
X0148831Y0153905D01*
X0149599Y0153138D01*
X0150366Y0153905D01*
X0151133Y0153905D01*
X0151901Y0153138D01*
X0151901Y0151603D01*
X0151133Y0150836D01*
X0151647Y0151410D02*
X0151647Y0145272D01*
X0151901Y0144697D02*
X0150366Y0143163D01*
X0150366Y0143930D02*
X0150366Y0141628D01*
X0151901Y0141628D02*
X0147297Y0141628D01*
X0147297Y0143930D01*
X0148064Y0144697D01*
X0149599Y0144697D01*
X0150366Y0143930D01*
X0147810Y0146039D02*
X0148578Y0146806D01*
X0148064Y0146232D02*
X0147297Y0146999D01*
X0147297Y0148534D01*
X0148064Y0149301D01*
X0148831Y0149301D01*
X0151901Y0146232D01*
X0151901Y0149301D01*
X0149599Y0152370D02*
X0149599Y0153138D01*
X0150926Y0153565D02*
X0150926Y0158169D01*
X0153228Y0158169D01*
X0153995Y0157401D01*
X0153995Y0155867D01*
X0153228Y0155099D01*
X0150926Y0155099D01*
X0152460Y0155099D02*
X0153995Y0153565D01*
X0155530Y0153565D02*
X0158599Y0156634D01*
X0158599Y0157401D01*
X0157832Y0158169D01*
X0156297Y0158169D01*
X0155530Y0157401D01*
X0160134Y0156634D02*
X0161668Y0158169D01*
X0161668Y0153565D01*
X0160134Y0153565D02*
X0163203Y0153565D01*
X0158599Y0153565D02*
X0155530Y0153565D01*
X0148124Y0159690D02*
X0148124Y0164294D01*
X0145822Y0161992D01*
X0148891Y0161992D01*
X0150926Y0162940D02*
X0150926Y0167544D01*
X0153228Y0167544D01*
X0153995Y0166776D01*
X0153995Y0165242D01*
X0153228Y0164474D01*
X0150926Y0164474D01*
X0152460Y0164474D02*
X0153995Y0162940D01*
X0155530Y0162940D02*
X0158599Y0166009D01*
X0158599Y0166776D01*
X0157832Y0167544D01*
X0156297Y0167544D01*
X0155530Y0166776D01*
X0160134Y0166776D02*
X0160901Y0167544D01*
X0162435Y0167544D01*
X0163203Y0166776D01*
X0163203Y0166009D01*
X0160134Y0162940D01*
X0163203Y0162940D01*
X0158599Y0162940D02*
X0155530Y0162940D01*
X0144287Y0162759D02*
X0144287Y0163526D01*
X0143520Y0164294D01*
X0141985Y0164294D01*
X0141218Y0163526D01*
X0139683Y0163526D02*
X0139683Y0161992D01*
X0138916Y0161224D01*
X0136614Y0161224D01*
X0136614Y0159690D02*
X0136614Y0164294D01*
X0138916Y0164294D01*
X0139683Y0163526D01*
X0138149Y0161224D02*
X0139683Y0159690D01*
X0141218Y0159690D02*
X0144287Y0162759D01*
X0144287Y0159690D02*
X0141218Y0159690D01*
X0135391Y0156214D02*
X0134624Y0156982D01*
X0133089Y0156982D01*
X0132322Y0156214D01*
X0132322Y0155447D01*
X0133089Y0154680D01*
X0135391Y0154680D01*
X0135391Y0156214D02*
X0135391Y0153145D01*
X0134624Y0152378D01*
X0133089Y0152378D01*
X0132322Y0153145D01*
X0130787Y0153145D02*
X0130020Y0152378D01*
X0128485Y0152378D01*
X0127718Y0153145D01*
X0127718Y0156214D01*
X0128485Y0156982D01*
X0130020Y0156982D01*
X0130787Y0156214D01*
X0123026Y0150574D02*
X0123026Y0149040D01*
X0122258Y0148273D01*
X0120724Y0148273D02*
X0119956Y0149807D01*
X0119956Y0150574D01*
X0120724Y0151342D01*
X0122258Y0151342D01*
X0123026Y0150574D01*
X0120724Y0148273D02*
X0118422Y0148273D01*
X0118422Y0151342D01*
X0114276Y0150574D02*
X0109672Y0150574D01*
X0111974Y0148273D01*
X0111974Y0151342D01*
X0114276Y0146738D02*
X0114276Y0143669D01*
X0114276Y0145203D02*
X0109672Y0145203D01*
X0111206Y0143669D01*
X0110439Y0142134D02*
X0111974Y0142134D01*
X0112741Y0141367D01*
X0112741Y0139065D01*
X0112741Y0140599D02*
X0114276Y0142134D01*
X0110439Y0142134D02*
X0109672Y0141367D01*
X0109672Y0139065D01*
X0114276Y0139065D01*
X0118422Y0139065D02*
X0118422Y0141367D01*
X0119189Y0142134D01*
X0120724Y0142134D01*
X0121491Y0141367D01*
X0121491Y0139065D01*
X0121491Y0140599D02*
X0123026Y0142134D01*
X0123026Y0143669D02*
X0123026Y0146738D01*
X0123026Y0145203D02*
X0118422Y0145203D01*
X0119956Y0143669D01*
X0118422Y0139065D02*
X0123026Y0139065D01*
X0145508Y0146806D02*
X0145508Y0150643D01*
X0145508Y0146806D02*
X0146276Y0146039D01*
X0147810Y0146039D01*
X0177176Y0161690D02*
X0177176Y0166294D01*
X0179478Y0166294D01*
X0180245Y0165526D01*
X0180245Y0163992D01*
X0179478Y0163224D01*
X0177176Y0163224D01*
X0178710Y0163224D02*
X0180245Y0161690D01*
X0181780Y0161690D02*
X0184849Y0161690D01*
X0183314Y0161690D02*
X0183314Y0166294D01*
X0181780Y0164759D01*
X0186384Y0164759D02*
X0186384Y0165526D01*
X0187151Y0166294D01*
X0188685Y0166294D01*
X0189453Y0165526D01*
X0189453Y0162457D01*
X0188685Y0161690D01*
X0187151Y0161690D01*
X0186384Y0162457D01*
X0187151Y0163992D02*
X0189453Y0163992D01*
X0187151Y0163992D02*
X0186384Y0164759D01*
X0123266Y0114339D02*
X0122499Y0115106D01*
X0120964Y0115106D01*
X0120197Y0114339D01*
X0120197Y0113571D01*
X0120964Y0112804D01*
X0122499Y0112804D01*
X0123266Y0112037D01*
X0123266Y0111269D01*
X0122499Y0110502D01*
X0120964Y0110502D01*
X0120197Y0111269D01*
X0120197Y0112037D01*
X0120964Y0112804D01*
X0122499Y0112804D02*
X0123266Y0113571D01*
X0123266Y0114339D01*
X0118662Y0114339D02*
X0117895Y0115106D01*
X0116360Y0115106D01*
X0115593Y0114339D01*
X0115593Y0111269D01*
X0116360Y0110502D01*
X0117895Y0110502D01*
X0118662Y0111269D01*
X0083651Y0133378D02*
X0079047Y0133378D01*
X0079047Y0135680D01*
X0079814Y0136447D01*
X0081349Y0136447D01*
X0082116Y0135680D01*
X0082116Y0133378D01*
X0082116Y0134913D02*
X0083651Y0136447D01*
X0082883Y0137982D02*
X0083651Y0138749D01*
X0083651Y0140284D01*
X0082883Y0141051D01*
X0082116Y0141051D01*
X0081349Y0140284D01*
X0081349Y0139516D01*
X0081349Y0140284D02*
X0080581Y0141051D01*
X0079814Y0141051D01*
X0079047Y0140284D01*
X0079047Y0138749D01*
X0079814Y0137982D01*
X0079814Y0142586D02*
X0079047Y0143353D01*
X0079047Y0144888D01*
X0079814Y0145655D01*
X0080581Y0145655D01*
X0083651Y0142586D01*
X0083651Y0145655D01*
X0065026Y0156707D02*
X0064258Y0155940D01*
X0061189Y0155940D01*
X0060422Y0156707D01*
X0060422Y0158242D01*
X0061189Y0159009D01*
X0061189Y0160544D02*
X0060422Y0161311D01*
X0060422Y0162846D01*
X0061189Y0163613D01*
X0061956Y0163613D01*
X0065026Y0160544D01*
X0065026Y0163613D01*
X0065026Y0165148D02*
X0064258Y0165148D01*
X0061189Y0168217D01*
X0060422Y0168217D01*
X0060422Y0165148D01*
X0059648Y0167422D02*
X0059648Y0173561D01*
X0058881Y0172794D02*
X0060416Y0172794D01*
X0061183Y0172026D01*
X0060416Y0170492D02*
X0058881Y0170492D01*
X0058114Y0171259D01*
X0058114Y0172026D01*
X0058881Y0172794D01*
X0056579Y0172794D02*
X0056579Y0168957D01*
X0055812Y0168190D01*
X0054277Y0168190D01*
X0053510Y0168957D01*
X0053510Y0172794D01*
X0058114Y0168957D02*
X0058881Y0168190D01*
X0060416Y0168190D01*
X0061183Y0168957D01*
X0061183Y0169724D01*
X0060416Y0170492D01*
X0062718Y0171259D02*
X0064252Y0172794D01*
X0064252Y0168190D01*
X0062718Y0168190D02*
X0065787Y0168190D01*
X0067322Y0168190D02*
X0070391Y0168190D01*
X0068856Y0168190D02*
X0068856Y0172794D01*
X0067322Y0171259D01*
X0064258Y0159009D02*
X0065026Y0158242D01*
X0065026Y0156707D01*
X0060508Y0186565D02*
X0057439Y0186565D01*
X0056672Y0187332D01*
X0056672Y0188867D01*
X0057439Y0189634D01*
X0057439Y0191169D02*
X0056672Y0191936D01*
X0056672Y0193471D01*
X0057439Y0194238D01*
X0058206Y0194238D01*
X0061276Y0191169D01*
X0061276Y0194238D01*
X0060508Y0195773D02*
X0061276Y0196540D01*
X0061276Y0198074D01*
X0060508Y0198842D01*
X0058974Y0198842D01*
X0058206Y0198074D01*
X0058206Y0197307D01*
X0058974Y0195773D01*
X0056672Y0195773D01*
X0056672Y0198842D01*
X0060508Y0189634D02*
X0061276Y0188867D01*
X0061276Y0187332D01*
X0060508Y0186565D01*
X0073318Y0204002D02*
X0072551Y0204769D01*
X0072551Y0207838D01*
X0073318Y0208606D01*
X0074853Y0208606D01*
X0075620Y0207838D01*
X0077155Y0207838D02*
X0077922Y0208606D01*
X0079457Y0208606D01*
X0080224Y0207838D01*
X0080224Y0207071D01*
X0077155Y0204002D01*
X0080224Y0204002D01*
X0081759Y0204769D02*
X0081759Y0206304D01*
X0084060Y0206304D01*
X0084828Y0205536D01*
X0084828Y0204769D01*
X0084060Y0204002D01*
X0082526Y0204002D01*
X0081759Y0204769D01*
X0081759Y0206304D02*
X0083293Y0207838D01*
X0084828Y0208606D01*
X0075620Y0204769D02*
X0074853Y0204002D01*
X0073318Y0204002D01*
X0318029Y0174328D02*
X0324168Y0174328D01*
X0323401Y0173561D02*
X0323401Y0175096D01*
X0322633Y0175863D01*
X0321866Y0175863D01*
X0321099Y0175096D01*
X0321099Y0173561D01*
X0320331Y0172794D01*
X0319564Y0172794D01*
X0318797Y0173561D01*
X0318797Y0175096D01*
X0319564Y0175863D01*
X0320331Y0177398D02*
X0318797Y0178932D01*
X0323401Y0178932D01*
X0323401Y0177398D02*
X0323401Y0180467D01*
X0323401Y0173561D02*
X0322633Y0172794D01*
X0322633Y0171259D02*
X0318797Y0171259D01*
X0318797Y0168190D02*
X0322633Y0168190D01*
X0323401Y0168957D01*
X0323401Y0170492D01*
X0322633Y0171259D01*
X0321099Y0117342D02*
X0321099Y0114273D01*
X0318797Y0116574D01*
X0323401Y0116574D01*
X0322633Y0112738D02*
X0321866Y0112738D01*
X0321099Y0111971D01*
X0321099Y0110436D01*
X0320331Y0109669D01*
X0319564Y0109669D01*
X0318797Y0110436D01*
X0318797Y0111971D01*
X0319564Y0112738D01*
X0318029Y0111203D02*
X0324168Y0111203D01*
X0323401Y0110436D02*
X0322633Y0109669D01*
X0323401Y0110436D02*
X0323401Y0111971D01*
X0322633Y0112738D01*
X0322633Y0108134D02*
X0318797Y0108134D01*
X0322633Y0108134D02*
X0323401Y0107367D01*
X0323401Y0105832D01*
X0322633Y0105065D01*
X0318797Y0105065D01*
X0318797Y0051717D02*
X0318797Y0048648D01*
X0321099Y0048648D01*
X0320331Y0050182D01*
X0320331Y0050949D01*
X0321099Y0051717D01*
X0322633Y0051717D01*
X0323401Y0050949D01*
X0323401Y0049415D01*
X0322633Y0048648D01*
X0322633Y0047113D02*
X0321866Y0047113D01*
X0321099Y0046346D01*
X0321099Y0044811D01*
X0320331Y0044044D01*
X0319564Y0044044D01*
X0318797Y0044811D01*
X0318797Y0046346D01*
X0319564Y0047113D01*
X0318029Y0045578D02*
X0324168Y0045578D01*
X0323401Y0044811D02*
X0322633Y0044044D01*
X0323401Y0044811D02*
X0323401Y0046346D01*
X0322633Y0047113D01*
X0322633Y0042509D02*
X0318797Y0042509D01*
X0322633Y0042509D02*
X0323401Y0041742D01*
X0323401Y0040207D01*
X0322633Y0039440D01*
X0318797Y0039440D01*
X0146391Y0061151D02*
X0143322Y0058082D01*
X0143322Y0057315D01*
X0141787Y0057315D02*
X0138718Y0057315D01*
X0140252Y0057315D02*
X0140252Y0061919D01*
X0138718Y0060384D01*
X0137183Y0061151D02*
X0136416Y0061919D01*
X0134881Y0061919D01*
X0134114Y0061151D01*
X0134114Y0058082D01*
X0134881Y0057315D01*
X0136416Y0057315D01*
X0137183Y0058082D01*
X0143322Y0061919D02*
X0146391Y0061919D01*
X0146391Y0061151D01*
D11*
X0056801Y0117602D02*
X0056801Y0118103D01*
X0056550Y0118353D01*
X0056550Y0118825D02*
X0056801Y0119076D01*
X0056801Y0119576D01*
X0056550Y0119826D01*
X0056300Y0119826D01*
X0056050Y0119576D01*
X0056050Y0119326D01*
X0056050Y0119576D02*
X0055800Y0119826D01*
X0055550Y0119826D01*
X0055299Y0119576D01*
X0055299Y0119076D01*
X0055550Y0118825D01*
X0055550Y0118353D02*
X0055299Y0118103D01*
X0055299Y0117602D01*
X0055550Y0117352D01*
X0056550Y0117352D01*
X0056801Y0117602D01*
X0056801Y0120299D02*
X0056550Y0120299D01*
X0055550Y0121300D01*
X0055299Y0121300D01*
X0055299Y0120299D01*
X0153454Y0178690D02*
X0154205Y0178690D01*
X0154455Y0178940D01*
X0154455Y0179941D01*
X0154205Y0180191D01*
X0153454Y0180191D01*
X0153454Y0178690D01*
X0154927Y0178690D02*
X0155928Y0179691D01*
X0155928Y0179941D01*
X0155678Y0180191D01*
X0155178Y0180191D01*
X0154927Y0179941D01*
X0154927Y0178690D02*
X0155928Y0178690D01*
X0175526Y0173791D02*
X0175526Y0172790D01*
X0175776Y0172540D01*
X0176276Y0172540D01*
X0176527Y0172790D01*
X0176999Y0172540D02*
X0178000Y0172540D01*
X0178472Y0172540D02*
X0179473Y0172540D01*
X0178973Y0172540D02*
X0178973Y0174041D01*
X0178472Y0173541D01*
X0177499Y0174041D02*
X0177499Y0172540D01*
X0176999Y0173541D02*
X0177499Y0174041D01*
X0176527Y0173791D02*
X0176276Y0174041D01*
X0175776Y0174041D01*
X0175526Y0173791D01*
X0203799Y0167987D02*
X0204550Y0167236D01*
X0204550Y0168237D01*
X0205301Y0167987D02*
X0203799Y0167987D01*
X0203799Y0166263D02*
X0205301Y0166263D01*
X0205301Y0165763D02*
X0205301Y0166764D01*
X0204300Y0165763D02*
X0203799Y0166263D01*
X0204050Y0165291D02*
X0203799Y0165040D01*
X0203799Y0164540D01*
X0204050Y0164290D01*
X0205050Y0164290D01*
X0205301Y0164540D01*
X0205301Y0165040D01*
X0205050Y0165291D01*
X0205900Y0169870D02*
X0206900Y0169870D01*
X0207151Y0170120D01*
X0207151Y0170621D01*
X0206900Y0170871D01*
X0207151Y0171343D02*
X0207151Y0172344D01*
X0207151Y0171844D02*
X0205649Y0171844D01*
X0206150Y0171343D01*
X0205900Y0170871D02*
X0205649Y0170621D01*
X0205649Y0170120D01*
X0205900Y0169870D01*
X0205900Y0172816D02*
X0206150Y0172816D01*
X0206400Y0173067D01*
X0206400Y0173817D01*
X0205900Y0173817D02*
X0205649Y0173567D01*
X0205649Y0173067D01*
X0205900Y0172816D01*
X0206900Y0172816D02*
X0207151Y0173067D01*
X0207151Y0173567D01*
X0206900Y0173817D01*
X0205900Y0173817D01*
X0212549Y0167987D02*
X0212800Y0168237D01*
X0213050Y0168237D01*
X0213300Y0167987D01*
X0213550Y0168237D01*
X0213800Y0168237D01*
X0214051Y0167987D01*
X0214051Y0167486D01*
X0213800Y0167236D01*
X0214051Y0166764D02*
X0214051Y0165763D01*
X0214051Y0166263D02*
X0212549Y0166263D01*
X0213050Y0165763D01*
X0212800Y0165291D02*
X0212549Y0165040D01*
X0212549Y0164540D01*
X0212800Y0164290D01*
X0213800Y0164290D01*
X0214051Y0164540D01*
X0214051Y0165040D01*
X0213800Y0165291D01*
X0212800Y0167236D02*
X0212549Y0167486D01*
X0212549Y0167987D01*
X0213300Y0167987D02*
X0213300Y0167737D01*
X0228651Y0164416D02*
X0228651Y0163415D01*
X0228901Y0163165D01*
X0229401Y0163165D01*
X0229652Y0163415D01*
X0230124Y0163165D02*
X0231125Y0163165D01*
X0231597Y0163165D02*
X0232598Y0164166D01*
X0232598Y0164416D01*
X0232348Y0164666D01*
X0231847Y0164666D01*
X0231597Y0164416D01*
X0230624Y0164666D02*
X0230624Y0163165D01*
X0231597Y0163165D02*
X0232598Y0163165D01*
X0230624Y0164666D02*
X0230124Y0164166D01*
X0229652Y0164416D02*
X0229401Y0164666D01*
X0228901Y0164666D01*
X0228651Y0164416D01*
X0213800Y0147612D02*
X0214051Y0147362D01*
X0214051Y0146861D01*
X0213800Y0146611D01*
X0212800Y0147612D01*
X0213800Y0147612D01*
X0212800Y0147612D02*
X0212549Y0147362D01*
X0212549Y0146861D01*
X0212800Y0146611D01*
X0213800Y0146611D01*
X0214051Y0146139D02*
X0214051Y0145138D01*
X0213050Y0146139D01*
X0212800Y0146139D01*
X0212549Y0145889D01*
X0212549Y0145388D01*
X0212800Y0145138D01*
X0212800Y0144666D02*
X0212549Y0144415D01*
X0212549Y0143915D01*
X0212800Y0143665D01*
X0213800Y0143665D01*
X0214051Y0143915D01*
X0214051Y0144415D01*
X0213800Y0144666D01*
X0205301Y0144415D02*
X0205301Y0143915D01*
X0205050Y0143665D01*
X0204050Y0143665D01*
X0203799Y0143915D01*
X0203799Y0144415D01*
X0204050Y0144666D01*
X0204050Y0145138D02*
X0203799Y0145388D01*
X0203799Y0145889D01*
X0204050Y0146139D01*
X0204300Y0146139D01*
X0205301Y0145138D01*
X0205301Y0146139D01*
X0205301Y0146611D02*
X0205301Y0147612D01*
X0205301Y0147112D02*
X0203799Y0147112D01*
X0204300Y0146611D01*
X0205050Y0144666D02*
X0205301Y0144415D01*
X0196551Y0144415D02*
X0196551Y0143915D01*
X0196300Y0143665D01*
X0195300Y0143665D01*
X0195049Y0143915D01*
X0195049Y0144415D01*
X0195300Y0144666D01*
X0195300Y0145138D02*
X0195049Y0145388D01*
X0195049Y0145889D01*
X0195300Y0146139D01*
X0195550Y0146139D01*
X0196551Y0145138D01*
X0196551Y0146139D01*
X0196300Y0146611D02*
X0196551Y0146861D01*
X0196551Y0147362D01*
X0196300Y0147612D01*
X0196050Y0147612D01*
X0195800Y0147362D01*
X0195800Y0147112D01*
X0195800Y0147362D02*
X0195550Y0147612D01*
X0195300Y0147612D01*
X0195049Y0147362D01*
X0195049Y0146861D01*
X0195300Y0146611D01*
X0196300Y0144666D02*
X0196551Y0144415D01*
X0087051Y0191915D02*
X0087051Y0192415D01*
X0086800Y0192666D01*
X0085549Y0192666D01*
X0085800Y0193138D02*
X0085549Y0193388D01*
X0085549Y0193889D01*
X0085800Y0194139D01*
X0086050Y0194611D02*
X0085549Y0195112D01*
X0087051Y0195112D01*
X0087051Y0195612D02*
X0087051Y0194611D01*
X0086800Y0194139D02*
X0086550Y0194139D01*
X0086300Y0193889D01*
X0086300Y0193388D01*
X0086050Y0193138D01*
X0085800Y0193138D01*
X0085299Y0193638D02*
X0087301Y0193638D01*
X0087051Y0193388D02*
X0087051Y0193889D01*
X0086800Y0194139D01*
X0087051Y0193388D02*
X0086800Y0193138D01*
X0087051Y0191915D02*
X0086800Y0191665D01*
X0085549Y0191665D01*
X0085800Y0196084D02*
X0085549Y0196335D01*
X0085549Y0196835D01*
X0085800Y0197085D01*
X0086800Y0196084D01*
X0087051Y0196335D01*
X0087051Y0196835D01*
X0086800Y0197085D01*
X0085800Y0197085D01*
X0085800Y0196084D02*
X0086800Y0196084D01*
D12*
X0083453Y0198408D02*
X0083453Y0207069D01*
X0071051Y0207069D01*
X0071051Y0198408D01*
X0071248Y0190928D02*
X0071248Y0184235D01*
X0072626Y0182660D01*
X0082272Y0182660D01*
X0083453Y0184235D01*
X0083453Y0190928D01*
X0098351Y0181965D02*
X0098351Y0207765D01*
X0111351Y0207765D01*
X0111351Y0181965D01*
X0098351Y0181965D01*
X0125623Y0176745D02*
X0125623Y0170052D01*
X0125623Y0176745D02*
X0126804Y0178319D01*
X0136450Y0178319D01*
X0137828Y0176745D01*
X0137828Y0170052D01*
X0138025Y0162571D02*
X0138025Y0153910D01*
X0125623Y0153910D01*
X0125623Y0162571D01*
X0138296Y0181031D02*
X0138296Y0182803D01*
X0138296Y0181031D02*
X0156406Y0181031D01*
X0156406Y0182803D01*
X0143414Y0182803D02*
X0143414Y0190677D01*
X0138296Y0190677D02*
X0138296Y0192448D01*
X0156406Y0192448D01*
X0156406Y0190677D01*
X0085476Y0060490D02*
X0080476Y0060490D01*
X0077976Y0057990D01*
X0077976Y0052990D01*
X0080476Y0050490D01*
X0077976Y0047990D01*
X0077976Y0042990D01*
X0080476Y0040490D01*
X0077976Y0037990D01*
X0077976Y0032990D01*
X0080476Y0030490D01*
X0077976Y0027990D01*
X0077976Y0022990D01*
X0080476Y0020490D01*
X0085476Y0020490D01*
X0087976Y0022990D01*
X0087976Y0027990D01*
X0085476Y0030490D01*
X0087976Y0032990D01*
X0087976Y0037990D01*
X0085476Y0040490D01*
X0087976Y0042990D01*
X0087976Y0047990D01*
X0085476Y0050490D01*
X0087976Y0052990D01*
X0087976Y0057990D01*
X0085476Y0060490D01*
D13*
X0126564Y0168512D02*
X0136789Y0168512D01*
X0082512Y0192467D02*
X0072288Y0192467D01*
D14*
X0081726Y0179865D02*
X0079226Y0177365D01*
X0079226Y0172365D01*
X0081726Y0169865D01*
X0079226Y0167365D01*
X0079226Y0162365D01*
X0081726Y0159865D01*
X0079226Y0157365D01*
X0079226Y0152365D01*
X0081726Y0149865D01*
X0086726Y0149865D01*
X0089226Y0152365D01*
X0089226Y0157365D01*
X0086726Y0159865D01*
X0081726Y0159865D01*
X0086726Y0159865D02*
X0089226Y0162365D01*
X0089226Y0167365D01*
X0086726Y0169865D01*
X0081726Y0169865D01*
X0086726Y0169865D02*
X0089226Y0172365D01*
X0089226Y0177365D01*
X0086726Y0179865D01*
X0081726Y0179865D01*
X0094851Y0177365D02*
X0094851Y0172365D01*
X0097351Y0169865D01*
X0094851Y0167365D01*
X0094851Y0162365D01*
X0097351Y0159865D01*
X0094851Y0157365D01*
X0094851Y0152365D01*
X0097351Y0149865D01*
X0102351Y0149865D01*
X0104851Y0152365D01*
X0104851Y0157365D01*
X0102351Y0159865D01*
X0097351Y0159865D01*
X0102351Y0159865D02*
X0104851Y0162365D01*
X0104851Y0167365D01*
X0102351Y0169865D01*
X0097351Y0169865D01*
X0102351Y0169865D02*
X0104851Y0172365D01*
X0104851Y0177365D01*
X0102351Y0179865D01*
X0097351Y0179865D01*
X0094851Y0177365D01*
X0111726Y0177365D02*
X0111726Y0172365D01*
X0114226Y0169865D01*
X0111726Y0167365D01*
X0111726Y0162365D01*
X0114226Y0159865D01*
X0111726Y0157365D01*
X0111726Y0152365D01*
X0114226Y0149865D01*
X0119226Y0149865D01*
X0121726Y0152365D01*
X0121726Y0157365D01*
X0119226Y0159865D01*
X0114226Y0159865D01*
X0119226Y0159865D02*
X0121726Y0162365D01*
X0121726Y0167365D01*
X0119226Y0169865D01*
X0114226Y0169865D01*
X0119226Y0169865D02*
X0121726Y0172365D01*
X0121726Y0177365D01*
X0119226Y0179865D01*
X0114226Y0179865D01*
X0111726Y0177365D01*
X0071101Y0079865D02*
X0066101Y0079865D01*
X0063601Y0077365D01*
X0063601Y0072365D01*
X0066101Y0069865D01*
X0063601Y0067365D01*
X0063601Y0062365D01*
X0066101Y0059865D01*
X0063601Y0057365D01*
X0063601Y0052365D01*
X0066101Y0049865D01*
X0063601Y0047365D01*
X0063601Y0042365D01*
X0066101Y0039865D01*
X0063601Y0037365D01*
X0063601Y0032365D01*
X0066101Y0029865D01*
X0063601Y0027365D01*
X0063601Y0022365D01*
X0066101Y0019865D01*
X0071101Y0019865D01*
X0073601Y0022365D01*
X0073601Y0027365D01*
X0071101Y0029865D01*
X0073601Y0032365D01*
X0073601Y0037365D01*
X0071101Y0039865D01*
X0073601Y0042365D01*
X0073601Y0047365D01*
X0071101Y0049865D01*
X0073601Y0052365D01*
X0073601Y0057365D01*
X0071101Y0059865D01*
X0073601Y0062365D01*
X0073601Y0067365D01*
X0071101Y0069865D01*
X0073601Y0072365D01*
X0073601Y0077365D01*
X0071101Y0079865D01*
D15*
X0057347Y0020865D02*
X0058097Y0020115D01*
X0058848Y0020115D01*
X0059599Y0020865D01*
X0059599Y0022367D01*
X0060349Y0023117D01*
X0061100Y0023117D01*
X0061851Y0022367D01*
X0061851Y0020865D01*
X0061100Y0020115D01*
X0057347Y0020865D02*
X0057347Y0022367D01*
X0058097Y0023117D01*
X0057347Y0024719D02*
X0060349Y0024719D01*
X0061851Y0026220D01*
X0060349Y0027721D01*
X0057347Y0027721D01*
X0058848Y0029323D02*
X0057347Y0030824D01*
X0061851Y0030824D01*
X0061851Y0029323D02*
X0061851Y0032325D01*
X0071022Y0031149D02*
X0075526Y0031149D01*
X0075526Y0029648D02*
X0075526Y0032650D01*
X0072523Y0029648D02*
X0071022Y0031149D01*
X0071772Y0028046D02*
X0073274Y0028046D01*
X0074024Y0027296D01*
X0074024Y0025044D01*
X0075526Y0025044D02*
X0071022Y0025044D01*
X0071022Y0027296D01*
X0071772Y0028046D01*
X0071022Y0023442D02*
X0071022Y0021941D01*
X0071022Y0022692D02*
X0074775Y0022692D01*
X0075526Y0021941D01*
X0075526Y0021190D01*
X0074775Y0020440D01*
X0076848Y0022615D02*
X0075347Y0024116D01*
X0079851Y0024116D01*
X0079851Y0022615D02*
X0079851Y0025617D01*
X0061100Y0072615D02*
X0061851Y0073365D01*
X0061851Y0074867D01*
X0061100Y0075617D01*
X0060349Y0075617D01*
X0059599Y0074867D01*
X0059599Y0072615D01*
X0061100Y0072615D01*
X0059599Y0072615D02*
X0058097Y0074116D01*
X0057347Y0075617D01*
X0170690Y0054400D02*
X0170690Y0001250D01*
X0217540Y0001250D01*
X0217540Y0054400D01*
X0170690Y0054400D01*
X0248601Y0079240D02*
X0248601Y0019240D01*
X0358601Y0019240D01*
X0358601Y0079240D01*
X0248601Y0079240D01*
X0248601Y0084865D02*
X0358601Y0084865D01*
X0358601Y0144865D01*
X0248601Y0144865D01*
X0248601Y0084865D01*
X0248601Y0147990D02*
X0358601Y0147990D01*
X0358601Y0207990D01*
X0248601Y0207990D01*
X0248601Y0147990D01*
X0128676Y0167354D02*
X0127925Y0166603D01*
X0128676Y0167354D02*
X0128676Y0168104D01*
X0127925Y0168855D01*
X0124172Y0168855D01*
X0124172Y0169605D02*
X0124172Y0168104D01*
X0124172Y0171207D02*
X0124172Y0173459D01*
X0124922Y0174209D01*
X0126424Y0174209D01*
X0127174Y0173459D01*
X0127174Y0171207D01*
X0128676Y0171207D02*
X0124172Y0171207D01*
X0124922Y0175811D02*
X0124172Y0176561D01*
X0124172Y0178063D01*
X0124922Y0178813D01*
X0125673Y0178813D01*
X0128676Y0175811D01*
X0128676Y0178813D01*
X0111801Y0178063D02*
X0111801Y0176561D01*
X0111050Y0175811D01*
X0109549Y0177312D02*
X0109549Y0178063D01*
X0110299Y0178813D01*
X0111050Y0178813D01*
X0111801Y0178063D01*
X0109549Y0178063D02*
X0108798Y0178813D01*
X0108047Y0178813D01*
X0107297Y0178063D01*
X0107297Y0176561D01*
X0108047Y0175811D01*
X0108047Y0174209D02*
X0109549Y0174209D01*
X0110299Y0173459D01*
X0110299Y0171207D01*
X0111801Y0171207D02*
X0107297Y0171207D01*
X0107297Y0173459D01*
X0108047Y0174209D01*
X0107297Y0169605D02*
X0107297Y0168104D01*
X0107297Y0168855D02*
X0111050Y0168855D01*
X0111801Y0168104D01*
X0111801Y0167354D01*
X0111050Y0166603D01*
X0096176Y0167354D02*
X0095425Y0166603D01*
X0096176Y0167354D02*
X0096176Y0168104D01*
X0095425Y0168855D01*
X0091672Y0168855D01*
X0091672Y0169605D02*
X0091672Y0168104D01*
X0091672Y0171207D02*
X0091672Y0173459D01*
X0092422Y0174209D01*
X0093924Y0174209D01*
X0094674Y0173459D01*
X0094674Y0171207D01*
X0096176Y0171207D02*
X0091672Y0171207D01*
X0093924Y0175811D02*
X0093924Y0178813D01*
X0096176Y0178063D02*
X0091672Y0178063D01*
X0093924Y0175811D01*
D16*
X0116346Y0082984D03*
X0122146Y0082984D03*
X0109334Y0066734D03*
X0103534Y0066734D03*
X0103534Y0057984D03*
X0109334Y0057984D03*
D17*
X0083907Y0073507D03*
X0083907Y0079307D03*
X0095157Y0076944D03*
X0095157Y0082744D03*
X0107032Y0082119D03*
X0107032Y0076319D03*
D18*
X0100089Y0115388D02*
X0100573Y0115871D01*
X0100573Y0116839D01*
X0100089Y0117323D01*
X0097670Y0117323D01*
X0098154Y0118334D02*
X0097670Y0118818D01*
X0097670Y0119785D01*
X0098154Y0120269D01*
X0098154Y0121281D02*
X0098638Y0121281D01*
X0099122Y0121764D01*
X0099122Y0122732D01*
X0099605Y0123216D01*
X0100089Y0123216D01*
X0100573Y0122732D01*
X0100573Y0121764D01*
X0100089Y0121281D01*
X0099605Y0121281D01*
X0099122Y0121764D01*
X0099122Y0122732D02*
X0098638Y0123216D01*
X0098154Y0123216D01*
X0097670Y0122732D01*
X0097670Y0121764D01*
X0098154Y0121281D01*
X0099605Y0120269D02*
X0099122Y0119785D01*
X0099122Y0118818D01*
X0098638Y0118334D01*
X0098154Y0118334D01*
X0097187Y0119302D02*
X0101057Y0119302D01*
X0100573Y0119785D02*
X0100089Y0120269D01*
X0099605Y0120269D01*
X0100573Y0119785D02*
X0100573Y0118818D01*
X0100089Y0118334D01*
X0100089Y0115388D02*
X0097670Y0115388D01*
D19*
X0059971Y0120802D02*
X0059731Y0120802D01*
M02*
