G75*
%MOIN*%
%OFA0B0*%
%FSLAX25Y25*%
%IPPOS*%
%LPD*%
%AMOC8*
5,1,8,0,0,1.08239X$1,22.5*
%
%ADD10C,0.00000*%
%ADD11R,0.05118X0.05906*%
%ADD12R,0.03150X0.04724*%
%ADD13R,0.06299X0.07087*%
%ADD14R,0.07087X0.06299*%
%ADD15R,0.21654X0.07283*%
%ADD16R,0.05906X0.05118*%
%ADD17R,0.03937X0.04331*%
%ADD18R,0.04331X0.03937*%
%ADD19R,0.31496X0.10630*%
%ADD20R,0.05118X0.06299*%
%ADD21R,0.78000X0.52000*%
%ADD22R,0.14000X0.02800*%
%ADD23R,0.19200X0.25400*%
%ADD24R,0.08268X0.01063*%
%ADD25R,0.14213X0.25000*%
%ADD26R,0.23000X0.10000*%
%ADD27R,0.04000X0.10000*%
%ADD28R,0.10000X0.23000*%
%ADD29R,0.10000X0.04000*%
D10*
X0001000Y0001667D02*
X0001000Y0301667D01*
X0421000Y0301667D01*
X0421000Y0001667D01*
X0001000Y0001667D01*
D11*
X0142654Y0041667D03*
X0149346Y0041667D03*
X0212654Y0095417D03*
X0219346Y0095417D03*
X0219346Y0106667D03*
X0212654Y0106667D03*
X0262654Y0021667D03*
X0269346Y0021667D03*
D12*
X0204543Y0136667D03*
X0197457Y0136667D03*
D13*
X0171512Y0041667D03*
X0160488Y0041667D03*
D14*
X0231000Y0136155D03*
X0231000Y0147178D03*
D15*
X0236000Y0181627D03*
X0236000Y0201706D03*
D16*
X0216000Y0072513D03*
X0216000Y0065820D03*
D17*
X0216000Y0050013D03*
X0216000Y0043320D03*
X0216000Y0030013D03*
X0216000Y0023320D03*
X0099346Y0080417D03*
X0092654Y0080417D03*
X0091000Y0100820D03*
X0091000Y0107513D03*
X0187654Y0116667D03*
X0194346Y0116667D03*
X0347654Y0131667D03*
X0354346Y0131667D03*
X0354346Y0216667D03*
X0347654Y0216667D03*
X0347654Y0046667D03*
X0354346Y0046667D03*
D18*
X0286000Y0023138D03*
X0286000Y0016445D03*
X0238500Y0033320D03*
X0238500Y0040013D03*
X0228500Y0040013D03*
X0228500Y0033320D03*
X0228500Y0053320D03*
X0228500Y0060013D03*
X0238500Y0060013D03*
X0238500Y0053320D03*
X0114346Y0080417D03*
X0107654Y0080417D03*
X0101000Y0100820D03*
X0101000Y0107513D03*
X0099346Y0114167D03*
X0092654Y0114167D03*
X0141000Y0168320D03*
X0141000Y0175013D03*
X0141000Y0183320D03*
X0141000Y0190013D03*
D19*
X0186000Y0187100D03*
X0186000Y0166234D03*
D20*
X0262260Y0011667D03*
X0269740Y0011667D03*
D21*
X0311000Y0091667D03*
X0311000Y0176667D03*
X0311000Y0261667D03*
D22*
X0370550Y0266667D03*
X0370550Y0271667D03*
X0370550Y0276667D03*
X0370550Y0256667D03*
X0370550Y0251667D03*
X0370550Y0246667D03*
X0370550Y0191667D03*
X0370550Y0186667D03*
X0370550Y0181667D03*
X0370550Y0171667D03*
X0370550Y0166667D03*
X0370550Y0161667D03*
X0370550Y0106667D03*
X0370550Y0101667D03*
X0370550Y0096667D03*
X0370550Y0086667D03*
X0370550Y0081667D03*
X0370550Y0076667D03*
D23*
X0391000Y0091667D03*
X0391000Y0176667D03*
X0391000Y0261667D03*
D24*
X0175961Y0103241D03*
X0175961Y0101273D03*
X0175961Y0099304D03*
X0175961Y0097336D03*
X0175961Y0095367D03*
X0175961Y0093399D03*
X0175961Y0091430D03*
X0175961Y0089462D03*
X0175961Y0087493D03*
X0175961Y0085525D03*
X0175961Y0083556D03*
X0175961Y0081588D03*
X0175961Y0079619D03*
X0175961Y0077651D03*
X0175961Y0075682D03*
X0175961Y0073714D03*
X0175961Y0071745D03*
X0175961Y0069777D03*
X0175961Y0067808D03*
X0175961Y0065840D03*
X0175961Y0063871D03*
X0175961Y0061903D03*
X0175961Y0059934D03*
X0175961Y0057966D03*
X0175961Y0055997D03*
X0175961Y0054029D03*
X0175961Y0052060D03*
X0175961Y0050092D03*
X0146236Y0050092D03*
X0146236Y0052060D03*
X0146236Y0054029D03*
X0146236Y0055997D03*
X0146236Y0057966D03*
X0146236Y0059934D03*
X0146236Y0061903D03*
X0146236Y0063871D03*
X0146236Y0065840D03*
X0146236Y0067808D03*
X0146236Y0069777D03*
X0146236Y0071745D03*
X0146236Y0073714D03*
X0146236Y0075682D03*
X0146236Y0077651D03*
X0146236Y0079619D03*
X0146236Y0081588D03*
X0146236Y0083556D03*
X0146236Y0085525D03*
X0146236Y0087493D03*
X0146236Y0089462D03*
X0146236Y0091430D03*
X0146236Y0093399D03*
X0146236Y0095367D03*
X0146236Y0097336D03*
X0146236Y0099304D03*
X0146236Y0101273D03*
X0146236Y0103241D03*
D25*
X0161000Y0076667D03*
D26*
X0247000Y0093842D03*
X0247000Y0113242D03*
D27*
X0231250Y0113242D03*
X0231250Y0093842D03*
D28*
X0243800Y0241292D03*
X0263200Y0241292D03*
D29*
X0263200Y0257042D03*
X0243800Y0257042D03*
M02*
