G75*
%MOIN*%
%OFA0B0*%
%FSLAX25Y25*%
%IPPOS*%
%LPD*%
%AMOC8*
5,1,8,0,0,1.08239X$1,22.5*
%
%ADD10R,0.05518X0.06306*%
%ADD11R,0.06699X0.07487*%
%ADD12R,0.07487X0.06699*%
%ADD13R,0.06306X0.05518*%
%ADD14R,0.10243X0.07093*%
%ADD15R,0.04337X0.04731*%
%ADD16R,0.04731X0.04337*%
%ADD17R,0.05400X0.06187*%
%ADD18C,0.06400*%
%ADD19R,0.04731X0.05912*%
%ADD20R,0.05912X0.04731*%
%ADD21R,0.06699X0.05518*%
%ADD22R,0.78400X0.52400*%
%ADD23R,0.14400X0.03200*%
%ADD24R,0.09200X0.05200*%
%ADD25R,0.09061X0.14573*%
%ADD26R,0.19600X0.25800*%
%ADD27R,0.11975X0.01463*%
%ADD28R,0.14613X0.25400*%
%ADD29C,0.08274*%
%ADD30R,0.05124X0.01581*%
%ADD31R,0.01581X0.05124*%
%ADD32R,0.07400X0.07400*%
%ADD33C,0.07400*%
%ADD34C,0.09849*%
%ADD35R,0.07800X0.07800*%
%ADD36C,0.07800*%
D10*
X0140879Y0066115D03*
X0147572Y0066115D03*
X0147572Y0074240D03*
X0140879Y0074240D03*
X0140879Y0082365D03*
X0147572Y0082365D03*
X0192129Y0131740D03*
X0198822Y0131740D03*
D11*
X0228089Y0158615D03*
X0239112Y0158615D03*
X0185987Y0167990D03*
X0174964Y0167990D03*
D12*
X0201101Y0163728D03*
X0209851Y0163728D03*
X0218601Y0163728D03*
X0218601Y0154126D03*
X0209851Y0154126D03*
X0201101Y0154126D03*
X0201101Y0143103D03*
X0209851Y0143103D03*
X0218601Y0143103D03*
X0218601Y0174751D03*
X0209851Y0174751D03*
X0201101Y0174751D03*
D13*
X0214226Y0123211D03*
X0214226Y0116518D03*
X0214226Y0103836D03*
X0214226Y0097143D03*
X0069226Y0155893D03*
X0069226Y0162586D03*
X0065476Y0186518D03*
X0065476Y0193211D03*
D14*
X0077351Y0187384D03*
X0077351Y0202345D03*
X0131726Y0173595D03*
X0131726Y0158634D03*
D15*
X0143379Y0167990D03*
X0150072Y0167990D03*
X0150879Y0159240D03*
X0157572Y0159240D03*
X0157572Y0149865D03*
X0150879Y0149865D03*
X0164629Y0149865D03*
X0171322Y0149865D03*
X0177129Y0157990D03*
X0183822Y0157990D03*
X0191504Y0123615D03*
X0198197Y0123615D03*
X0200072Y0109240D03*
X0193379Y0109240D03*
X0194004Y0091740D03*
X0200697Y0091740D03*
X0183197Y0072990D03*
X0176504Y0072990D03*
X0191101Y0071336D03*
X0191101Y0064643D03*
X0059851Y0117456D03*
X0059851Y0124149D03*
X0065879Y0175490D03*
X0072572Y0175490D03*
D16*
X0117976Y0145711D03*
X0126726Y0145711D03*
X0126726Y0139018D03*
X0117976Y0139018D03*
X0143601Y0148393D03*
X0143601Y0155086D03*
X0124447Y0118302D03*
X0117754Y0118302D03*
X0166726Y0080711D03*
X0176504Y0081115D03*
X0183197Y0081115D03*
X0166726Y0074018D03*
X0204226Y0071336D03*
X0204226Y0064643D03*
X0218601Y0064643D03*
X0218601Y0071336D03*
X0214226Y0080893D03*
X0214226Y0087586D03*
D17*
X0155815Y0186740D03*
X0138886Y0186740D03*
D18*
X0071601Y0024865D02*
X0065601Y0024865D01*
X0065601Y0034865D02*
X0071601Y0034865D01*
X0071601Y0044865D02*
X0065601Y0044865D01*
X0065601Y0054865D02*
X0071601Y0054865D01*
X0071601Y0064865D02*
X0065601Y0064865D01*
X0065601Y0074865D02*
X0071601Y0074865D01*
X0081226Y0154865D02*
X0087226Y0154865D01*
X0096851Y0154865D02*
X0102851Y0154865D01*
X0113726Y0154865D02*
X0119726Y0154865D01*
X0119726Y0164865D02*
X0113726Y0164865D01*
X0102851Y0164865D02*
X0096851Y0164865D01*
X0087226Y0164865D02*
X0081226Y0164865D01*
X0081226Y0174865D02*
X0087226Y0174865D01*
X0096851Y0174865D02*
X0102851Y0174865D01*
X0113726Y0174865D02*
X0119726Y0174865D01*
D19*
X0123163Y0082990D03*
X0115289Y0082990D03*
X0110350Y0066740D03*
X0102476Y0066740D03*
X0102476Y0057990D03*
X0110350Y0057990D03*
D20*
X0083913Y0072490D03*
X0083913Y0080364D03*
X0095163Y0083802D03*
X0107038Y0083177D03*
X0107038Y0075303D03*
X0095163Y0075928D03*
D21*
X0074851Y0139250D03*
X0074851Y0146730D03*
D22*
X0288601Y0177990D03*
X0288601Y0114865D03*
X0288601Y0049240D03*
D23*
X0348151Y0054240D03*
X0348151Y0059240D03*
X0348151Y0064240D03*
X0348151Y0044240D03*
X0348151Y0039240D03*
X0348151Y0034240D03*
X0348151Y0099865D03*
X0348151Y0104865D03*
X0348151Y0109865D03*
X0348151Y0119865D03*
X0348151Y0124865D03*
X0348151Y0129865D03*
X0348151Y0162990D03*
X0348151Y0167990D03*
X0348151Y0172990D03*
X0348151Y0182990D03*
X0348151Y0187990D03*
X0348151Y0192990D03*
D24*
X0117051Y0194865D03*
X0117051Y0203965D03*
X0117051Y0185765D03*
D25*
X0092650Y0194865D03*
D26*
X0369226Y0114865D03*
X0369851Y0177990D03*
X0369851Y0049240D03*
D27*
X0173327Y0089540D03*
X0173327Y0091508D03*
X0173327Y0093477D03*
X0173327Y0095445D03*
X0173327Y0097414D03*
X0173327Y0099382D03*
X0173327Y0101351D03*
X0173327Y0103319D03*
X0173327Y0105288D03*
X0173327Y0107256D03*
X0173327Y0109225D03*
X0173327Y0111193D03*
X0173327Y0113162D03*
X0173327Y0115130D03*
X0173327Y0117099D03*
X0173327Y0119067D03*
X0173327Y0121036D03*
X0173327Y0123004D03*
X0173327Y0124973D03*
X0173327Y0126941D03*
X0173327Y0128910D03*
X0173327Y0130878D03*
X0173327Y0132847D03*
X0173327Y0134815D03*
X0173327Y0136784D03*
X0173327Y0138752D03*
X0173327Y0140721D03*
X0173327Y0142689D03*
X0140321Y0142689D03*
X0140321Y0140721D03*
X0140321Y0138752D03*
X0140321Y0136784D03*
X0140321Y0134815D03*
X0140321Y0132847D03*
X0140321Y0130878D03*
X0140321Y0128910D03*
X0140321Y0126941D03*
X0140321Y0124973D03*
X0140321Y0123004D03*
X0140321Y0121036D03*
X0140321Y0119067D03*
X0140321Y0117099D03*
X0140321Y0115130D03*
X0140321Y0113162D03*
X0140321Y0111193D03*
X0140321Y0109225D03*
X0140321Y0107256D03*
X0140321Y0105288D03*
X0140321Y0103319D03*
X0140321Y0101351D03*
X0140321Y0099382D03*
X0140321Y0097414D03*
X0140321Y0095445D03*
X0140321Y0093477D03*
X0140321Y0091508D03*
X0140321Y0089540D03*
D28*
X0156726Y0116115D03*
D29*
X0156726Y0116115D03*
D30*
X0107464Y0117089D03*
X0107464Y0115121D03*
X0107464Y0113152D03*
X0107464Y0111184D03*
X0107464Y0109215D03*
X0107464Y0107247D03*
X0107464Y0105278D03*
X0107464Y0103310D03*
X0107464Y0101341D03*
X0107464Y0099373D03*
X0107464Y0097404D03*
X0071047Y0097404D03*
X0071047Y0099373D03*
X0071047Y0101341D03*
X0071047Y0103310D03*
X0071047Y0105278D03*
X0071047Y0107247D03*
X0071047Y0109215D03*
X0071047Y0111184D03*
X0071047Y0113152D03*
X0071047Y0115121D03*
X0071047Y0117089D03*
X0071047Y0119058D03*
X0071047Y0121026D03*
X0071047Y0122995D03*
X0071047Y0124963D03*
X0071047Y0126932D03*
X0107464Y0126932D03*
X0107464Y0124963D03*
X0107464Y0122995D03*
X0107464Y0121026D03*
X0107464Y0119058D03*
D31*
X0104019Y0130376D03*
X0102050Y0130376D03*
X0100082Y0130376D03*
X0098113Y0130376D03*
X0096145Y0130376D03*
X0094176Y0130376D03*
X0092208Y0130376D03*
X0090239Y0130376D03*
X0088271Y0130376D03*
X0086302Y0130376D03*
X0084334Y0130376D03*
X0082365Y0130376D03*
X0080397Y0130376D03*
X0078428Y0130376D03*
X0076460Y0130376D03*
X0074491Y0130376D03*
X0074491Y0093959D03*
X0076460Y0093959D03*
X0078428Y0093959D03*
X0080397Y0093959D03*
X0082365Y0093959D03*
X0084334Y0093959D03*
X0086302Y0093959D03*
X0088271Y0093959D03*
X0090239Y0093959D03*
X0092208Y0093959D03*
X0094176Y0093959D03*
X0096145Y0093959D03*
X0098113Y0093959D03*
X0100082Y0093959D03*
X0102050Y0093959D03*
X0104019Y0093959D03*
D32*
X0204351Y0043927D03*
D33*
X0196320Y0043927D03*
X0188288Y0043927D03*
X0184272Y0033927D03*
X0192304Y0033927D03*
X0200335Y0033927D03*
D34*
X0217934Y0024872D03*
X0170690Y0024872D03*
D35*
X0082976Y0025490D03*
D36*
X0082976Y0035490D03*
X0082976Y0045490D03*
X0082976Y0055490D03*
M02*
