G75*
%MOIN*%
%OFA0B0*%
%FSLAX25Y25*%
%IPPOS*%
%LPD*%
%AMOC8*
5,1,8,0,0,1.08239X$1,22.5*
%
%ADD10R,0.05124X0.03550*%
%ADD11R,0.05518X0.06306*%
%ADD12R,0.22054X0.07683*%
%ADD13R,0.04731X0.04337*%
%ADD14R,0.04724X0.04724*%
%ADD15C,0.06400*%
%ADD16R,0.11030X0.31896*%
%ADD17R,0.04337X0.04731*%
%ADD18R,0.19600X0.25800*%
%ADD19R,0.10000X0.22400*%
%ADD20R,0.10000X0.03900*%
%ADD21R,0.78400X0.52400*%
%ADD22R,0.14400X0.03200*%
%ADD23C,0.08274*%
%ADD24R,0.07880X0.04731*%
%ADD25R,0.02800X0.09100*%
%ADD26C,0.01301*%
%ADD27R,0.07400X0.07400*%
%ADD28C,0.07400*%
%ADD29C,0.09849*%
%ADD30R,0.07800X0.07800*%
%ADD31C,0.07800*%
D10*
X0192351Y0150071D03*
X0192351Y0157158D03*
D11*
X0124447Y0119240D03*
X0117754Y0119240D03*
D12*
X0112351Y0051779D03*
X0136726Y0051779D03*
X0136726Y0031700D03*
X0112351Y0031700D03*
D13*
X0086010Y0097052D03*
X0079317Y0097052D03*
X0079317Y0110802D03*
X0086010Y0110802D03*
X0103379Y0117990D03*
X0110072Y0117990D03*
X0096947Y0129240D03*
X0090254Y0129240D03*
X0083822Y0139240D03*
X0077129Y0139240D03*
X0070697Y0135177D03*
X0064004Y0135177D03*
X0144629Y0172990D03*
X0151322Y0172990D03*
X0151322Y0181115D03*
X0144629Y0181115D03*
X0214226Y0136961D03*
X0214226Y0130268D03*
D14*
X0186278Y0157365D03*
X0170924Y0157365D03*
D15*
X0071601Y0024865D02*
X0065601Y0024865D01*
X0065601Y0034865D02*
X0071601Y0034865D01*
X0071601Y0044865D02*
X0065601Y0044865D01*
X0065601Y0054865D02*
X0071601Y0054865D01*
X0071601Y0064865D02*
X0065601Y0064865D01*
X0065601Y0074865D02*
X0071601Y0074865D01*
X0081226Y0154865D02*
X0087226Y0154865D01*
X0096851Y0154865D02*
X0102851Y0154865D01*
X0113726Y0154865D02*
X0119726Y0154865D01*
X0119726Y0164865D02*
X0113726Y0164865D01*
X0102851Y0164865D02*
X0096851Y0164865D01*
X0087226Y0164865D02*
X0081226Y0164865D01*
X0081226Y0174865D02*
X0087226Y0174865D01*
X0096851Y0174865D02*
X0102851Y0174865D01*
X0113726Y0174865D02*
X0119726Y0174865D01*
D16*
X0171293Y0178615D03*
X0192159Y0178615D03*
D17*
X0159447Y0158615D03*
X0152754Y0158615D03*
X0156504Y0147990D03*
X0163197Y0147990D03*
X0189629Y0141740D03*
X0196322Y0141740D03*
X0195697Y0125490D03*
X0189004Y0125490D03*
X0193379Y0109240D03*
X0200072Y0109240D03*
X0200697Y0091740D03*
X0194004Y0091740D03*
X0123197Y0132990D03*
X0116504Y0132990D03*
X0065385Y0104865D03*
X0058692Y0104865D03*
X0058692Y0096427D03*
X0065385Y0096427D03*
X0065385Y0087677D03*
X0058692Y0087677D03*
X0079004Y0072990D03*
X0085697Y0072990D03*
X0085476Y0082456D03*
X0099851Y0080893D03*
X0099851Y0087586D03*
X0107976Y0087586D03*
X0107976Y0080893D03*
X0085476Y0089149D03*
X0083510Y0185177D03*
X0076817Y0185177D03*
X0070385Y0185177D03*
X0063692Y0185177D03*
X0142754Y0191115D03*
X0149447Y0191115D03*
D18*
X0251726Y0113615D03*
X0249851Y0051115D03*
D19*
X0233551Y0061365D03*
X0201151Y0061365D03*
X0187301Y0061365D03*
X0154901Y0061365D03*
D20*
X0154901Y0077615D03*
X0187301Y0077615D03*
X0201151Y0077615D03*
X0233551Y0077615D03*
D21*
X0333601Y0049240D03*
X0333601Y0114865D03*
X0333601Y0177990D03*
D22*
X0274051Y0182990D03*
X0274051Y0187990D03*
X0274051Y0192990D03*
X0274051Y0172990D03*
X0274051Y0167990D03*
X0274051Y0162990D03*
X0274051Y0129865D03*
X0274051Y0124865D03*
X0274051Y0119865D03*
X0274051Y0109865D03*
X0274051Y0104865D03*
X0274051Y0099865D03*
X0274051Y0064240D03*
X0274051Y0059240D03*
X0274051Y0054240D03*
X0274051Y0044240D03*
X0274051Y0039240D03*
X0274051Y0034240D03*
D23*
X0156726Y0116115D03*
D24*
X0074947Y0118462D03*
X0060380Y0118462D03*
X0060380Y0127517D03*
X0074947Y0127517D03*
D25*
X0074226Y0148940D03*
X0069226Y0148940D03*
X0064226Y0148940D03*
X0059226Y0148940D03*
X0059226Y0169540D03*
X0064226Y0169540D03*
X0069226Y0169540D03*
X0074226Y0169540D03*
D26*
X0068348Y0114508D02*
X0068348Y0111472D01*
X0068348Y0114508D02*
X0071384Y0114508D01*
X0071384Y0111472D01*
X0068348Y0111472D01*
X0068348Y0112772D02*
X0071384Y0112772D01*
X0071384Y0114072D02*
X0068348Y0114072D01*
X0061442Y0114508D02*
X0061442Y0111472D01*
X0061442Y0114508D02*
X0064478Y0114508D01*
X0064478Y0111472D01*
X0061442Y0111472D01*
X0061442Y0112772D02*
X0064478Y0112772D01*
X0064478Y0114072D02*
X0061442Y0114072D01*
X0069583Y0105549D02*
X0072619Y0105549D01*
X0069583Y0105549D02*
X0069583Y0108585D01*
X0072619Y0108585D01*
X0072619Y0105549D01*
X0072619Y0106849D02*
X0069583Y0106849D01*
X0069583Y0108149D02*
X0072619Y0108149D01*
X0072619Y0098644D02*
X0069583Y0098644D01*
X0069583Y0101680D01*
X0072619Y0101680D01*
X0072619Y0098644D01*
X0072619Y0099944D02*
X0069583Y0099944D01*
X0069583Y0101244D02*
X0072619Y0101244D01*
X0072306Y0091799D02*
X0069270Y0091799D01*
X0069270Y0094835D01*
X0072306Y0094835D01*
X0072306Y0091799D01*
X0072306Y0093099D02*
X0069270Y0093099D01*
X0069270Y0094399D02*
X0072306Y0094399D01*
X0075208Y0085862D02*
X0078244Y0085862D01*
X0075208Y0085862D02*
X0075208Y0088898D01*
X0078244Y0088898D01*
X0078244Y0085862D01*
X0078244Y0087162D02*
X0075208Y0087162D01*
X0075208Y0088462D02*
X0078244Y0088462D01*
X0072306Y0084894D02*
X0069270Y0084894D01*
X0069270Y0087930D01*
X0072306Y0087930D01*
X0072306Y0084894D01*
X0072306Y0086194D02*
X0069270Y0086194D01*
X0069270Y0087494D02*
X0072306Y0087494D01*
X0075208Y0078956D02*
X0078244Y0078956D01*
X0075208Y0078956D02*
X0075208Y0081992D01*
X0078244Y0081992D01*
X0078244Y0078956D01*
X0078244Y0080256D02*
X0075208Y0080256D01*
X0075208Y0081556D02*
X0078244Y0081556D01*
D27*
X0204351Y0043927D03*
D28*
X0196320Y0043927D03*
X0188288Y0043927D03*
X0184272Y0033927D03*
X0192304Y0033927D03*
X0200335Y0033927D03*
D29*
X0217934Y0024872D03*
X0170690Y0024872D03*
D30*
X0082976Y0025490D03*
D31*
X0082976Y0035490D03*
X0082976Y0045490D03*
X0082976Y0055490D03*
M02*
