G75*
%MOIN*%
%OFA0B0*%
%FSLAX25Y25*%
%IPPOS*%
%LPD*%
%AMOC8*
5,1,8,0,0,1.08239X$1,22.5*
%
%ADD10C,0.00000*%
%ADD11R,0.05118X0.05906*%
%ADD12R,0.06299X0.07087*%
%ADD13R,0.07087X0.06299*%
%ADD14R,0.05906X0.05118*%
%ADD15R,0.09843X0.06693*%
%ADD16R,0.03937X0.04331*%
%ADD17R,0.04331X0.03937*%
%ADD18R,0.05000X0.05787*%
%ADD19C,0.06000*%
%ADD20R,0.02500X0.05000*%
%ADD21C,0.01600*%
%ADD22R,0.05000X0.02500*%
%ADD23R,0.04331X0.05512*%
%ADD24R,0.05512X0.04331*%
%ADD25R,0.06299X0.05118*%
%ADD26R,0.78000X0.52000*%
%ADD27R,0.14000X0.02800*%
%ADD28R,0.08800X0.04800*%
%ADD29R,0.08661X0.14173*%
%ADD30R,0.19200X0.25400*%
%ADD31R,0.11575X0.01063*%
%ADD32R,0.14213X0.25000*%
%ADD33R,0.04724X0.01181*%
%ADD34R,0.01181X0.04724*%
%ADD35C,0.05200*%
%ADD36C,0.00800*%
%ADD37C,0.02400*%
%ADD38C,0.03600*%
%ADD39C,0.02400*%
%ADD40C,0.01200*%
%ADD41C,0.03200*%
D10*
X0047976Y0001000D02*
X0047976Y0195000D01*
X0384226Y0195000D01*
X0384226Y0001000D01*
X0047976Y0001000D01*
X0152789Y0100375D02*
X0152791Y0100500D01*
X0152797Y0100625D01*
X0152807Y0100749D01*
X0152821Y0100873D01*
X0152838Y0100997D01*
X0152860Y0101120D01*
X0152886Y0101242D01*
X0152915Y0101364D01*
X0152948Y0101484D01*
X0152986Y0101603D01*
X0153026Y0101722D01*
X0153071Y0101838D01*
X0153119Y0101953D01*
X0153171Y0102067D01*
X0153227Y0102179D01*
X0153286Y0102289D01*
X0153348Y0102397D01*
X0153414Y0102504D01*
X0153483Y0102608D01*
X0153556Y0102709D01*
X0153631Y0102809D01*
X0153710Y0102906D01*
X0153792Y0103000D01*
X0153877Y0103092D01*
X0153964Y0103181D01*
X0154055Y0103267D01*
X0154148Y0103350D01*
X0154244Y0103431D01*
X0154342Y0103508D01*
X0154442Y0103582D01*
X0154545Y0103653D01*
X0154650Y0103720D01*
X0154758Y0103785D01*
X0154867Y0103845D01*
X0154978Y0103903D01*
X0155091Y0103956D01*
X0155205Y0104006D01*
X0155321Y0104053D01*
X0155438Y0104095D01*
X0155557Y0104134D01*
X0155677Y0104170D01*
X0155798Y0104201D01*
X0155920Y0104229D01*
X0156042Y0104252D01*
X0156166Y0104272D01*
X0156290Y0104288D01*
X0156414Y0104300D01*
X0156539Y0104308D01*
X0156664Y0104312D01*
X0156788Y0104312D01*
X0156913Y0104308D01*
X0157038Y0104300D01*
X0157162Y0104288D01*
X0157286Y0104272D01*
X0157410Y0104252D01*
X0157532Y0104229D01*
X0157654Y0104201D01*
X0157775Y0104170D01*
X0157895Y0104134D01*
X0158014Y0104095D01*
X0158131Y0104053D01*
X0158247Y0104006D01*
X0158361Y0103956D01*
X0158474Y0103903D01*
X0158585Y0103845D01*
X0158695Y0103785D01*
X0158802Y0103720D01*
X0158907Y0103653D01*
X0159010Y0103582D01*
X0159110Y0103508D01*
X0159208Y0103431D01*
X0159304Y0103350D01*
X0159397Y0103267D01*
X0159488Y0103181D01*
X0159575Y0103092D01*
X0159660Y0103000D01*
X0159742Y0102906D01*
X0159821Y0102809D01*
X0159896Y0102709D01*
X0159969Y0102608D01*
X0160038Y0102504D01*
X0160104Y0102397D01*
X0160166Y0102289D01*
X0160225Y0102179D01*
X0160281Y0102067D01*
X0160333Y0101953D01*
X0160381Y0101838D01*
X0160426Y0101722D01*
X0160466Y0101603D01*
X0160504Y0101484D01*
X0160537Y0101364D01*
X0160566Y0101242D01*
X0160592Y0101120D01*
X0160614Y0100997D01*
X0160631Y0100873D01*
X0160645Y0100749D01*
X0160655Y0100625D01*
X0160661Y0100500D01*
X0160663Y0100375D01*
X0160661Y0100250D01*
X0160655Y0100125D01*
X0160645Y0100001D01*
X0160631Y0099877D01*
X0160614Y0099753D01*
X0160592Y0099630D01*
X0160566Y0099508D01*
X0160537Y0099386D01*
X0160504Y0099266D01*
X0160466Y0099147D01*
X0160426Y0099028D01*
X0160381Y0098912D01*
X0160333Y0098797D01*
X0160281Y0098683D01*
X0160225Y0098571D01*
X0160166Y0098461D01*
X0160104Y0098353D01*
X0160038Y0098246D01*
X0159969Y0098142D01*
X0159896Y0098041D01*
X0159821Y0097941D01*
X0159742Y0097844D01*
X0159660Y0097750D01*
X0159575Y0097658D01*
X0159488Y0097569D01*
X0159397Y0097483D01*
X0159304Y0097400D01*
X0159208Y0097319D01*
X0159110Y0097242D01*
X0159010Y0097168D01*
X0158907Y0097097D01*
X0158802Y0097030D01*
X0158694Y0096965D01*
X0158585Y0096905D01*
X0158474Y0096847D01*
X0158361Y0096794D01*
X0158247Y0096744D01*
X0158131Y0096697D01*
X0158014Y0096655D01*
X0157895Y0096616D01*
X0157775Y0096580D01*
X0157654Y0096549D01*
X0157532Y0096521D01*
X0157410Y0096498D01*
X0157286Y0096478D01*
X0157162Y0096462D01*
X0157038Y0096450D01*
X0156913Y0096442D01*
X0156788Y0096438D01*
X0156664Y0096438D01*
X0156539Y0096442D01*
X0156414Y0096450D01*
X0156290Y0096462D01*
X0156166Y0096478D01*
X0156042Y0096498D01*
X0155920Y0096521D01*
X0155798Y0096549D01*
X0155677Y0096580D01*
X0155557Y0096616D01*
X0155438Y0096655D01*
X0155321Y0096697D01*
X0155205Y0096744D01*
X0155091Y0096794D01*
X0154978Y0096847D01*
X0154867Y0096905D01*
X0154757Y0096965D01*
X0154650Y0097030D01*
X0154545Y0097097D01*
X0154442Y0097168D01*
X0154342Y0097242D01*
X0154244Y0097319D01*
X0154148Y0097400D01*
X0154055Y0097483D01*
X0153964Y0097569D01*
X0153877Y0097658D01*
X0153792Y0097750D01*
X0153710Y0097844D01*
X0153631Y0097941D01*
X0153556Y0098041D01*
X0153483Y0098142D01*
X0153414Y0098246D01*
X0153348Y0098353D01*
X0153286Y0098461D01*
X0153227Y0098571D01*
X0153171Y0098683D01*
X0153119Y0098797D01*
X0153071Y0098912D01*
X0153026Y0099028D01*
X0152986Y0099147D01*
X0152948Y0099266D01*
X0152915Y0099386D01*
X0152886Y0099508D01*
X0152860Y0099630D01*
X0152838Y0099753D01*
X0152821Y0099877D01*
X0152807Y0100001D01*
X0152797Y0100125D01*
X0152791Y0100250D01*
X0152789Y0100375D01*
D11*
X0192129Y0116000D03*
X0198822Y0116000D03*
X0147572Y0066625D03*
X0140879Y0066625D03*
X0140879Y0058500D03*
X0147572Y0058500D03*
X0147572Y0050375D03*
X0140879Y0050375D03*
D12*
X0228089Y0142875D03*
X0239112Y0142875D03*
X0185987Y0152250D03*
X0174964Y0152250D03*
D13*
X0201101Y0147988D03*
X0209851Y0147988D03*
X0218601Y0147988D03*
X0218601Y0138387D03*
X0209851Y0138387D03*
X0201101Y0138387D03*
X0201101Y0127363D03*
X0209851Y0127363D03*
X0218601Y0127363D03*
X0218601Y0159012D03*
X0209851Y0159012D03*
X0201101Y0159012D03*
D14*
X0214226Y0107471D03*
X0214226Y0100779D03*
X0214226Y0088096D03*
X0214226Y0081404D03*
X0069226Y0140154D03*
X0069226Y0146846D03*
X0065476Y0170779D03*
X0065476Y0177471D03*
D15*
X0077351Y0171645D03*
X0077351Y0186605D03*
X0131726Y0157855D03*
X0131726Y0142895D03*
D16*
X0143379Y0152250D03*
X0150072Y0152250D03*
X0150879Y0143500D03*
X0157572Y0143500D03*
X0157572Y0134125D03*
X0150879Y0134125D03*
X0164629Y0134125D03*
X0171322Y0134125D03*
X0177129Y0142250D03*
X0183822Y0142250D03*
X0191504Y0107875D03*
X0198197Y0107875D03*
X0200072Y0093500D03*
X0193379Y0093500D03*
X0194004Y0076000D03*
X0200697Y0076000D03*
X0183197Y0057250D03*
X0176504Y0057250D03*
X0191101Y0055596D03*
X0191101Y0048904D03*
X0062976Y0083279D03*
X0062976Y0089971D03*
X0065879Y0159750D03*
X0072572Y0159750D03*
D17*
X0117976Y0129971D03*
X0126726Y0129971D03*
X0126726Y0123279D03*
X0117976Y0123279D03*
X0143601Y0132654D03*
X0143601Y0139346D03*
X0125072Y0102875D03*
X0118379Y0102875D03*
X0166726Y0064971D03*
X0176504Y0065375D03*
X0183197Y0065375D03*
X0166726Y0058279D03*
X0204226Y0055596D03*
X0218601Y0055596D03*
X0218601Y0048904D03*
X0204226Y0048904D03*
X0214226Y0065154D03*
X0214226Y0071846D03*
D18*
X0155815Y0171000D03*
X0138886Y0171000D03*
D19*
X0119726Y0159125D02*
X0113726Y0159125D01*
X0102851Y0159125D02*
X0096851Y0159125D01*
X0087226Y0159125D02*
X0081226Y0159125D01*
X0081226Y0149125D02*
X0087226Y0149125D01*
X0096851Y0149125D02*
X0102851Y0149125D01*
X0113726Y0149125D02*
X0119726Y0149125D01*
X0119726Y0139125D02*
X0113726Y0139125D01*
X0102851Y0139125D02*
X0096851Y0139125D01*
X0087226Y0139125D02*
X0081226Y0139125D01*
D20*
X0177038Y0186625D03*
X0182038Y0186625D03*
D21*
X0177038Y0186625D01*
X0142976Y0182875D02*
X0142976Y0180375D01*
X0142976Y0161000D02*
X0141101Y0161000D01*
X0167351Y0142875D02*
X0167351Y0141625D01*
X0112976Y0117250D02*
X0111726Y0117250D01*
X0129226Y0042875D02*
X0129226Y0037875D01*
D22*
X0129226Y0037875D03*
X0129226Y0042875D03*
D23*
X0103163Y0042250D03*
X0095289Y0042250D03*
X0095289Y0051000D03*
X0103163Y0051000D03*
X0109039Y0067250D03*
X0116913Y0067250D03*
D24*
X0100476Y0067437D03*
X0100476Y0059563D03*
X0087976Y0060188D03*
X0076726Y0058938D03*
X0076726Y0066812D03*
X0087976Y0068062D03*
D25*
X0075476Y0123510D03*
X0075476Y0130990D03*
D26*
X0288601Y0162250D03*
X0288601Y0099125D03*
X0288601Y0033500D03*
D27*
X0348151Y0028500D03*
X0348151Y0023500D03*
X0348151Y0018500D03*
X0348151Y0038500D03*
X0348151Y0043500D03*
X0348151Y0048500D03*
X0348151Y0084125D03*
X0348151Y0089125D03*
X0348151Y0094125D03*
X0348151Y0104125D03*
X0348151Y0109125D03*
X0348151Y0114125D03*
X0348151Y0147250D03*
X0348151Y0152250D03*
X0348151Y0157250D03*
X0348151Y0167250D03*
X0348151Y0172250D03*
X0348151Y0177250D03*
D28*
X0117051Y0179125D03*
X0117051Y0170025D03*
X0117051Y0188225D03*
D29*
X0092650Y0179125D03*
D30*
X0369226Y0099125D03*
X0369851Y0162250D03*
X0369851Y0033500D03*
D31*
X0173327Y0073800D03*
X0173327Y0075769D03*
X0173327Y0077737D03*
X0173327Y0079706D03*
X0173327Y0081674D03*
X0173327Y0083643D03*
X0173327Y0085611D03*
X0173327Y0087580D03*
X0173327Y0089548D03*
X0173327Y0091517D03*
X0173327Y0093485D03*
X0173327Y0095454D03*
X0173327Y0097422D03*
X0173327Y0099391D03*
X0173327Y0101359D03*
X0173327Y0103328D03*
X0173327Y0105296D03*
X0173327Y0107265D03*
X0173327Y0109233D03*
X0173327Y0111202D03*
X0173327Y0113170D03*
X0173327Y0115139D03*
X0173327Y0117107D03*
X0173327Y0119076D03*
X0173327Y0121044D03*
X0173327Y0123013D03*
X0173327Y0124981D03*
X0173327Y0126950D03*
X0140321Y0126950D03*
X0140321Y0124981D03*
X0140321Y0123013D03*
X0140321Y0121044D03*
X0140321Y0119076D03*
X0140321Y0117107D03*
X0140321Y0115139D03*
X0140321Y0113170D03*
X0140321Y0111202D03*
X0140321Y0109233D03*
X0140321Y0107265D03*
X0140321Y0105296D03*
X0140321Y0103328D03*
X0140321Y0101359D03*
X0140321Y0099391D03*
X0140321Y0097422D03*
X0140321Y0095454D03*
X0140321Y0093485D03*
X0140321Y0091517D03*
X0140321Y0089548D03*
X0140321Y0087580D03*
X0140321Y0085611D03*
X0140321Y0083643D03*
X0140321Y0081674D03*
X0140321Y0079706D03*
X0140321Y0077737D03*
X0140321Y0075769D03*
X0140321Y0073800D03*
D32*
X0156726Y0100375D03*
D33*
X0107464Y0101349D03*
X0107464Y0099381D03*
X0107464Y0097412D03*
X0107464Y0095444D03*
X0107464Y0093475D03*
X0107464Y0091507D03*
X0107464Y0089538D03*
X0107464Y0087570D03*
X0107464Y0085601D03*
X0107464Y0083633D03*
X0107464Y0081664D03*
X0071047Y0081664D03*
X0071047Y0083633D03*
X0071047Y0085601D03*
X0071047Y0087570D03*
X0071047Y0089538D03*
X0071047Y0091507D03*
X0071047Y0093475D03*
X0071047Y0095444D03*
X0071047Y0097412D03*
X0071047Y0099381D03*
X0071047Y0101349D03*
X0071047Y0103318D03*
X0071047Y0105286D03*
X0071047Y0107255D03*
X0071047Y0109223D03*
X0071047Y0111192D03*
X0107464Y0111192D03*
X0107464Y0109223D03*
X0107464Y0107255D03*
X0107464Y0105286D03*
X0107464Y0103318D03*
D34*
X0104019Y0114637D03*
X0102050Y0114637D03*
X0100082Y0114637D03*
X0098113Y0114637D03*
X0096145Y0114637D03*
X0094176Y0114637D03*
X0092208Y0114637D03*
X0090239Y0114637D03*
X0088271Y0114637D03*
X0086302Y0114637D03*
X0084334Y0114637D03*
X0082365Y0114637D03*
X0080397Y0114637D03*
X0078428Y0114637D03*
X0076460Y0114637D03*
X0074491Y0114637D03*
X0074491Y0078219D03*
X0076460Y0078219D03*
X0078428Y0078219D03*
X0080397Y0078219D03*
X0082365Y0078219D03*
X0084334Y0078219D03*
X0086302Y0078219D03*
X0088271Y0078219D03*
X0090239Y0078219D03*
X0092208Y0078219D03*
X0094176Y0078219D03*
X0096145Y0078219D03*
X0098113Y0078219D03*
X0100082Y0078219D03*
X0102050Y0078219D03*
X0104019Y0078219D03*
D35*
X0066201Y0072250D02*
X0061001Y0072250D01*
X0061001Y0062250D02*
X0066201Y0062250D01*
X0066201Y0052250D02*
X0061001Y0052250D01*
X0061001Y0042250D02*
X0066201Y0042250D01*
X0066201Y0032250D02*
X0061001Y0032250D01*
X0061001Y0022250D02*
X0066201Y0022250D01*
D36*
X0069564Y0020963D02*
X0228901Y0020963D01*
X0228901Y0021761D02*
X0069801Y0021761D01*
X0069801Y0021534D02*
X0069801Y0022966D01*
X0069253Y0024289D01*
X0068240Y0025302D01*
X0066917Y0025850D01*
X0060285Y0025850D01*
X0058961Y0025302D01*
X0057949Y0024289D01*
X0057401Y0022966D01*
X0057401Y0021534D01*
X0057949Y0020211D01*
X0058961Y0019198D01*
X0060285Y0018650D01*
X0066917Y0018650D01*
X0068240Y0019198D01*
X0069253Y0020211D01*
X0069801Y0021534D01*
X0069801Y0022560D02*
X0228901Y0022560D01*
X0228901Y0023358D02*
X0069638Y0023358D01*
X0069307Y0024157D02*
X0228901Y0024157D01*
X0228901Y0024955D02*
X0068586Y0024955D01*
X0067149Y0025754D02*
X0223637Y0025754D01*
X0223890Y0025501D02*
X0224919Y0025075D01*
X0226033Y0025075D01*
X0227062Y0025501D01*
X0227849Y0026289D01*
X0228276Y0027318D01*
X0228276Y0028432D01*
X0227849Y0029461D01*
X0227676Y0029635D01*
X0227676Y0069411D01*
X0224551Y0072536D01*
X0223262Y0073825D01*
X0217391Y0073825D01*
X0217391Y0074229D01*
X0216805Y0074815D01*
X0211646Y0074815D01*
X0211060Y0074229D01*
X0211060Y0073825D01*
X0203666Y0073825D01*
X0203666Y0078580D01*
X0203080Y0079165D01*
X0199512Y0079165D01*
X0197827Y0080850D01*
X0210273Y0080850D01*
X0210273Y0078430D01*
X0210859Y0077844D01*
X0217593Y0077844D01*
X0218178Y0078430D01*
X0218178Y0080004D01*
X0233867Y0080004D01*
X0247976Y0065895D01*
X0247976Y0006950D01*
X0247012Y0006950D01*
X0233301Y0020661D01*
X0233301Y0074240D01*
X0233474Y0074414D01*
X0233901Y0075443D01*
X0233901Y0076557D01*
X0233474Y0077586D01*
X0232687Y0078374D01*
X0231658Y0078800D01*
X0230544Y0078800D01*
X0229515Y0078374D01*
X0228727Y0077586D01*
X0228301Y0076557D01*
X0228301Y0075443D01*
X0228727Y0074414D01*
X0228901Y0074240D01*
X0228901Y0018839D01*
X0230189Y0017550D01*
X0245189Y0002550D01*
X0247976Y0002550D01*
X0247976Y0002400D01*
X0056101Y0002400D01*
X0056101Y0064645D01*
X0057512Y0063234D01*
X0057401Y0062966D01*
X0057401Y0061534D01*
X0057949Y0060211D01*
X0058961Y0059198D01*
X0060285Y0058650D01*
X0066917Y0058650D01*
X0068240Y0059198D01*
X0069253Y0060211D01*
X0069801Y0061534D01*
X0069801Y0062966D01*
X0069253Y0064289D01*
X0068240Y0065302D01*
X0066917Y0065850D01*
X0060285Y0065850D01*
X0059274Y0065431D01*
X0058751Y0065955D01*
X0058751Y0069409D01*
X0058961Y0069198D01*
X0060285Y0068650D01*
X0066917Y0068650D01*
X0068240Y0069198D01*
X0069253Y0070211D01*
X0069801Y0071534D01*
X0069801Y0072966D01*
X0069253Y0074289D01*
X0068240Y0075302D01*
X0066917Y0075850D01*
X0060285Y0075850D01*
X0058961Y0075302D01*
X0058751Y0075091D01*
X0058751Y0083767D01*
X0059607Y0084623D01*
X0059607Y0083679D01*
X0062576Y0083679D01*
X0062576Y0082879D01*
X0059607Y0082879D01*
X0059607Y0080929D01*
X0059703Y0080573D01*
X0059887Y0080254D01*
X0060148Y0079993D01*
X0060467Y0079809D01*
X0060823Y0079713D01*
X0062576Y0079713D01*
X0062576Y0082878D01*
X0063376Y0082878D01*
X0063376Y0079713D01*
X0065128Y0079713D01*
X0065485Y0079809D01*
X0065804Y0079993D01*
X0066064Y0080254D01*
X0066249Y0080573D01*
X0066344Y0080929D01*
X0066344Y0082879D01*
X0063376Y0082879D01*
X0063376Y0083679D01*
X0066344Y0083679D01*
X0066344Y0085628D01*
X0066249Y0085984D01*
X0066064Y0086304D01*
X0065804Y0086564D01*
X0065485Y0086748D01*
X0065269Y0086806D01*
X0065358Y0086806D01*
X0065944Y0087392D01*
X0065944Y0092551D01*
X0065358Y0093137D01*
X0062501Y0093137D01*
X0062501Y0095420D01*
X0065061Y0097981D01*
X0067684Y0097981D01*
X0067684Y0080660D01*
X0068270Y0080074D01*
X0072901Y0080074D01*
X0072901Y0075443D01*
X0073091Y0075253D01*
X0073091Y0069513D01*
X0072970Y0069392D01*
X0072970Y0064232D01*
X0073556Y0063647D01*
X0079226Y0063647D01*
X0079226Y0062875D01*
X0080951Y0062875D01*
X0080951Y0054608D01*
X0092123Y0043435D01*
X0092123Y0039080D01*
X0092709Y0038494D01*
X0097868Y0038494D01*
X0098454Y0039080D01*
X0098454Y0045420D01*
X0097868Y0046006D01*
X0093513Y0046006D01*
X0083751Y0055768D01*
X0083751Y0062875D01*
X0083910Y0062875D01*
X0083820Y0062538D01*
X0083820Y0060588D01*
X0087576Y0060588D01*
X0087576Y0059788D01*
X0088376Y0059788D01*
X0088376Y0060588D01*
X0092132Y0060588D01*
X0092132Y0062538D01*
X0092041Y0062875D01*
X0092826Y0062875D01*
X0092826Y0054756D01*
X0092709Y0054756D01*
X0092123Y0054170D01*
X0092123Y0047830D01*
X0092709Y0047244D01*
X0097868Y0047244D01*
X0098454Y0047830D01*
X0098454Y0054170D01*
X0097868Y0054756D01*
X0095626Y0054756D01*
X0095626Y0062875D01*
X0096906Y0062875D01*
X0096860Y0062849D01*
X0096599Y0062588D01*
X0096415Y0062269D01*
X0096320Y0061913D01*
X0096320Y0059963D01*
X0100076Y0059963D01*
X0100076Y0059163D01*
X0100876Y0059163D01*
X0100876Y0059963D01*
X0104632Y0059963D01*
X0104632Y0061913D01*
X0104536Y0062269D01*
X0104352Y0062588D01*
X0104091Y0062849D01*
X0104045Y0062875D01*
X0121726Y0062875D01*
X0121726Y0039750D01*
X0125470Y0039750D01*
X0125421Y0039665D01*
X0125326Y0039309D01*
X0125326Y0038100D01*
X0127426Y0038100D01*
X0127426Y0037650D01*
X0125326Y0037650D01*
X0125326Y0036441D01*
X0125421Y0036085D01*
X0125605Y0035765D01*
X0125866Y0035505D01*
X0126185Y0035320D01*
X0126541Y0035225D01*
X0129001Y0035225D01*
X0129001Y0036075D01*
X0129451Y0036075D01*
X0129451Y0035225D01*
X0131910Y0035225D01*
X0132266Y0035320D01*
X0132585Y0035505D01*
X0132846Y0035765D01*
X0133030Y0036085D01*
X0133126Y0036441D01*
X0133126Y0037650D01*
X0131026Y0037650D01*
X0131026Y0038100D01*
X0133126Y0038100D01*
X0133126Y0039309D01*
X0133030Y0039665D01*
X0132981Y0039750D01*
X0149851Y0039750D01*
X0149851Y0046422D01*
X0150545Y0046422D01*
X0151131Y0047008D01*
X0151131Y0053742D01*
X0150545Y0054328D01*
X0149851Y0054328D01*
X0149851Y0054547D01*
X0150545Y0054547D01*
X0151131Y0055133D01*
X0151131Y0060079D01*
X0153556Y0062504D01*
X0154376Y0063324D01*
X0154376Y0077830D01*
X0147163Y0085043D01*
X0147109Y0085043D01*
X0147109Y0086557D01*
X0147070Y0086595D01*
X0147109Y0086634D01*
X0147109Y0088525D01*
X0147070Y0088564D01*
X0147109Y0088603D01*
X0147109Y0090494D01*
X0147070Y0090532D01*
X0147109Y0090571D01*
X0147109Y0092462D01*
X0147070Y0092501D01*
X0147109Y0092540D01*
X0147109Y0094431D01*
X0147070Y0094469D01*
X0147109Y0094508D01*
X0147109Y0096399D01*
X0147070Y0096438D01*
X0147109Y0096477D01*
X0147109Y0098368D01*
X0147070Y0098406D01*
X0147109Y0098445D01*
X0147109Y0100336D01*
X0147070Y0100375D01*
X0147109Y0100414D01*
X0147109Y0102305D01*
X0147070Y0102344D01*
X0147109Y0102382D01*
X0147109Y0104273D01*
X0147070Y0104312D01*
X0147109Y0104351D01*
X0147109Y0105865D01*
X0147320Y0105865D01*
X0148219Y0106764D01*
X0148219Y0100775D01*
X0151389Y0100775D01*
X0151389Y0099975D01*
X0148219Y0099975D01*
X0148219Y0087691D01*
X0148315Y0087335D01*
X0148499Y0087015D01*
X0148760Y0086755D01*
X0149079Y0086570D01*
X0149435Y0086475D01*
X0156326Y0086475D01*
X0156326Y0095038D01*
X0157126Y0095038D01*
X0157126Y0086475D01*
X0158276Y0086475D01*
X0158276Y0085089D01*
X0158927Y0084438D01*
X0157651Y0083161D01*
X0157651Y0081339D01*
X0158939Y0080050D01*
X0159539Y0080050D01*
X0158901Y0079411D01*
X0158901Y0077589D01*
X0160189Y0076300D01*
X0162012Y0076300D01*
X0163301Y0077589D01*
X0163301Y0078189D01*
X0164076Y0077414D01*
X0164076Y0074795D01*
X0165650Y0073220D01*
X0166471Y0072400D01*
X0166994Y0072400D01*
X0167125Y0072269D01*
X0171927Y0072269D01*
X0171927Y0071931D01*
X0171146Y0071150D01*
X0162396Y0071150D01*
X0159896Y0068650D01*
X0159896Y0068650D01*
X0159076Y0067830D01*
X0159076Y0042830D01*
X0150696Y0034450D01*
X0149564Y0034450D01*
X0148276Y0033161D01*
X0148276Y0031339D01*
X0149564Y0030050D01*
X0151387Y0030050D01*
X0152676Y0031339D01*
X0152676Y0032470D01*
X0161876Y0041670D01*
X0161876Y0066670D01*
X0163556Y0068350D01*
X0172306Y0068350D01*
X0173126Y0069170D01*
X0174727Y0070771D01*
X0174727Y0072269D01*
X0179529Y0072269D01*
X0180114Y0072854D01*
X0180114Y0074369D01*
X0180127Y0074369D01*
X0181576Y0072920D01*
X0181576Y0071580D01*
X0178339Y0068343D01*
X0173925Y0068343D01*
X0173339Y0067758D01*
X0173339Y0066371D01*
X0169891Y0066371D01*
X0169891Y0067354D01*
X0169305Y0067940D01*
X0164146Y0067940D01*
X0163560Y0067354D01*
X0163560Y0062589D01*
X0164146Y0062003D01*
X0169305Y0062003D01*
X0169891Y0062589D01*
X0169891Y0063571D01*
X0171186Y0063571D01*
X0170151Y0062536D01*
X0170151Y0060714D01*
X0171439Y0059425D01*
X0172571Y0059425D01*
X0173536Y0058460D01*
X0173536Y0054670D01*
X0174121Y0054085D01*
X0178887Y0054085D01*
X0179473Y0054670D01*
X0179473Y0059830D01*
X0178887Y0060415D01*
X0175540Y0060415D01*
X0174551Y0061405D01*
X0174551Y0062406D01*
X0179084Y0062406D01*
X0179670Y0062992D01*
X0179670Y0065714D01*
X0180001Y0066045D01*
X0180032Y0066076D01*
X0180032Y0062992D01*
X0180618Y0062406D01*
X0181797Y0062406D01*
X0181797Y0060415D01*
X0180814Y0060415D01*
X0180229Y0059830D01*
X0180229Y0054670D01*
X0180814Y0054085D01*
X0185326Y0054085D01*
X0185326Y0052699D01*
X0188132Y0049892D01*
X0188132Y0046324D01*
X0188718Y0045738D01*
X0192286Y0045738D01*
X0193854Y0044170D01*
X0194674Y0043350D01*
X0215027Y0043350D01*
X0217612Y0045935D01*
X0221180Y0045935D01*
X0221766Y0046521D01*
X0221766Y0051286D01*
X0221180Y0051872D01*
X0216021Y0051872D01*
X0215435Y0051286D01*
X0215435Y0047718D01*
X0213867Y0046150D01*
X0207020Y0046150D01*
X0207391Y0046521D01*
X0207391Y0047725D01*
X0208139Y0047725D01*
X0208939Y0046925D01*
X0210762Y0046925D01*
X0212051Y0048214D01*
X0212051Y0050036D01*
X0210762Y0051325D01*
X0208939Y0051325D01*
X0208139Y0050525D01*
X0207391Y0050525D01*
X0207391Y0051286D01*
X0206805Y0051872D01*
X0201646Y0051872D01*
X0201060Y0051286D01*
X0201060Y0046521D01*
X0201431Y0046150D01*
X0195834Y0046150D01*
X0194069Y0047915D01*
X0194069Y0051483D01*
X0193483Y0052069D01*
X0189915Y0052069D01*
X0189553Y0052431D01*
X0193483Y0052431D01*
X0194069Y0053017D01*
X0194069Y0054196D01*
X0201060Y0054196D01*
X0201060Y0053214D01*
X0201646Y0052628D01*
X0206805Y0052628D01*
X0207391Y0053214D01*
X0207391Y0057979D01*
X0206805Y0058565D01*
X0201646Y0058565D01*
X0201060Y0057979D01*
X0201060Y0056996D01*
X0194069Y0056996D01*
X0194069Y0058176D01*
X0193483Y0058762D01*
X0190001Y0058762D01*
X0190001Y0070745D01*
X0195326Y0065420D01*
X0196146Y0064600D01*
X0203139Y0064600D01*
X0203939Y0063800D01*
X0205762Y0063800D01*
X0206562Y0064600D01*
X0211060Y0064600D01*
X0211060Y0062771D01*
X0211646Y0062185D01*
X0216805Y0062185D01*
X0217391Y0062771D01*
X0217391Y0067536D01*
X0216805Y0068122D01*
X0211646Y0068122D01*
X0211060Y0067536D01*
X0211060Y0067400D01*
X0206562Y0067400D01*
X0205762Y0068200D01*
X0203939Y0068200D01*
X0203139Y0067400D01*
X0197306Y0067400D01*
X0195281Y0069425D01*
X0211099Y0069425D01*
X0211646Y0068878D01*
X0216805Y0068878D01*
X0217352Y0069425D01*
X0221439Y0069425D01*
X0223276Y0067589D01*
X0223276Y0029635D01*
X0223102Y0029461D01*
X0222676Y0028432D01*
X0222676Y0027318D01*
X0223102Y0026289D01*
X0223890Y0025501D01*
X0222993Y0026552D02*
X0056101Y0026552D01*
X0056101Y0025754D02*
X0060052Y0025754D01*
X0058615Y0024955D02*
X0056101Y0024955D01*
X0056101Y0024157D02*
X0057894Y0024157D01*
X0057563Y0023358D02*
X0056101Y0023358D01*
X0056101Y0022560D02*
X0057401Y0022560D01*
X0057401Y0021761D02*
X0056101Y0021761D01*
X0056101Y0020963D02*
X0057637Y0020963D01*
X0057995Y0020164D02*
X0056101Y0020164D01*
X0056101Y0019366D02*
X0058794Y0019366D01*
X0056101Y0018567D02*
X0229172Y0018567D01*
X0228901Y0019366D02*
X0068408Y0019366D01*
X0069206Y0020164D02*
X0228901Y0020164D01*
X0229971Y0017769D02*
X0056101Y0017769D01*
X0056101Y0016970D02*
X0230769Y0016970D01*
X0231568Y0016172D02*
X0056101Y0016172D01*
X0056101Y0015373D02*
X0232366Y0015373D01*
X0233165Y0014575D02*
X0056101Y0014575D01*
X0056101Y0013776D02*
X0233963Y0013776D01*
X0234762Y0012978D02*
X0056101Y0012978D01*
X0056101Y0012179D02*
X0235560Y0012179D01*
X0236359Y0011381D02*
X0056101Y0011381D01*
X0056101Y0010582D02*
X0237157Y0010582D01*
X0237956Y0009784D02*
X0056101Y0009784D01*
X0056101Y0008985D02*
X0238754Y0008985D01*
X0239553Y0008187D02*
X0056101Y0008187D01*
X0056101Y0007388D02*
X0240351Y0007388D01*
X0241150Y0006590D02*
X0056101Y0006590D01*
X0056101Y0005791D02*
X0241948Y0005791D01*
X0242747Y0004993D02*
X0056101Y0004993D01*
X0056101Y0004194D02*
X0243545Y0004194D01*
X0244344Y0003396D02*
X0056101Y0003396D01*
X0056101Y0002597D02*
X0245142Y0002597D01*
X0246574Y0007388D02*
X0247976Y0007388D01*
X0247976Y0008187D02*
X0245775Y0008187D01*
X0244977Y0008985D02*
X0247976Y0008985D01*
X0247976Y0009784D02*
X0244178Y0009784D01*
X0243380Y0010582D02*
X0247976Y0010582D01*
X0247976Y0011381D02*
X0242581Y0011381D01*
X0241783Y0012179D02*
X0247976Y0012179D01*
X0247976Y0012978D02*
X0240984Y0012978D01*
X0240186Y0013776D02*
X0247976Y0013776D01*
X0247976Y0014575D02*
X0239387Y0014575D01*
X0238589Y0015373D02*
X0247976Y0015373D01*
X0247976Y0016172D02*
X0237790Y0016172D01*
X0236992Y0016970D02*
X0247976Y0016970D01*
X0247976Y0017769D02*
X0236193Y0017769D01*
X0235395Y0018567D02*
X0247976Y0018567D01*
X0247976Y0019366D02*
X0234596Y0019366D01*
X0233798Y0020164D02*
X0247976Y0020164D01*
X0247976Y0020963D02*
X0233301Y0020963D01*
X0233301Y0021761D02*
X0247976Y0021761D01*
X0247976Y0022560D02*
X0233301Y0022560D01*
X0233301Y0023358D02*
X0247976Y0023358D01*
X0247976Y0024157D02*
X0233301Y0024157D01*
X0233301Y0024955D02*
X0247976Y0024955D01*
X0247976Y0025754D02*
X0233301Y0025754D01*
X0233301Y0026552D02*
X0247976Y0026552D01*
X0247976Y0027351D02*
X0233301Y0027351D01*
X0233301Y0028149D02*
X0247976Y0028149D01*
X0247976Y0028948D02*
X0233301Y0028948D01*
X0233301Y0029746D02*
X0247976Y0029746D01*
X0247976Y0030545D02*
X0233301Y0030545D01*
X0233301Y0031343D02*
X0247976Y0031343D01*
X0247976Y0032142D02*
X0233301Y0032142D01*
X0233301Y0032940D02*
X0247976Y0032940D01*
X0247976Y0033739D02*
X0233301Y0033739D01*
X0233301Y0034537D02*
X0247976Y0034537D01*
X0247976Y0035336D02*
X0233301Y0035336D01*
X0233301Y0036134D02*
X0247976Y0036134D01*
X0247976Y0036933D02*
X0233301Y0036933D01*
X0233301Y0037732D02*
X0247976Y0037732D01*
X0247976Y0038530D02*
X0233301Y0038530D01*
X0233301Y0039329D02*
X0247976Y0039329D01*
X0247976Y0040127D02*
X0233301Y0040127D01*
X0233301Y0040926D02*
X0247976Y0040926D01*
X0247976Y0041724D02*
X0233301Y0041724D01*
X0233301Y0042523D02*
X0247976Y0042523D01*
X0247976Y0043321D02*
X0233301Y0043321D01*
X0233301Y0044120D02*
X0247976Y0044120D01*
X0247976Y0044918D02*
X0233301Y0044918D01*
X0233301Y0045717D02*
X0247976Y0045717D01*
X0247976Y0046515D02*
X0233301Y0046515D01*
X0233301Y0047314D02*
X0247976Y0047314D01*
X0247976Y0048112D02*
X0233301Y0048112D01*
X0233301Y0048911D02*
X0247976Y0048911D01*
X0247976Y0049709D02*
X0233301Y0049709D01*
X0233301Y0050508D02*
X0247976Y0050508D01*
X0247976Y0051306D02*
X0233301Y0051306D01*
X0233301Y0052105D02*
X0247976Y0052105D01*
X0247976Y0052903D02*
X0233301Y0052903D01*
X0233301Y0053702D02*
X0247976Y0053702D01*
X0247976Y0054500D02*
X0233301Y0054500D01*
X0233301Y0055299D02*
X0247976Y0055299D01*
X0247976Y0056097D02*
X0233301Y0056097D01*
X0233301Y0056896D02*
X0247976Y0056896D01*
X0247976Y0057694D02*
X0233301Y0057694D01*
X0233301Y0058493D02*
X0247976Y0058493D01*
X0247976Y0059291D02*
X0233301Y0059291D01*
X0233301Y0060090D02*
X0247976Y0060090D01*
X0247976Y0060888D02*
X0233301Y0060888D01*
X0233301Y0061687D02*
X0247976Y0061687D01*
X0247976Y0062485D02*
X0233301Y0062485D01*
X0233301Y0063284D02*
X0247976Y0063284D01*
X0247976Y0064082D02*
X0233301Y0064082D01*
X0233301Y0064881D02*
X0247976Y0064881D01*
X0247976Y0065679D02*
X0233301Y0065679D01*
X0233301Y0066478D02*
X0247393Y0066478D01*
X0246594Y0067276D02*
X0233301Y0067276D01*
X0233301Y0068075D02*
X0245796Y0068075D01*
X0244997Y0068873D02*
X0233301Y0068873D01*
X0233301Y0069672D02*
X0244199Y0069672D01*
X0243400Y0070470D02*
X0233301Y0070470D01*
X0233301Y0071269D02*
X0242602Y0071269D01*
X0241803Y0072068D02*
X0233301Y0072068D01*
X0233301Y0072866D02*
X0241005Y0072866D01*
X0240206Y0073665D02*
X0233301Y0073665D01*
X0233495Y0074463D02*
X0239408Y0074463D01*
X0238609Y0075262D02*
X0233825Y0075262D01*
X0233901Y0076060D02*
X0237811Y0076060D01*
X0237012Y0076859D02*
X0233776Y0076859D01*
X0233403Y0077657D02*
X0236214Y0077657D01*
X0235415Y0078456D02*
X0232489Y0078456D01*
X0234617Y0079254D02*
X0218178Y0079254D01*
X0218178Y0078456D02*
X0229712Y0078456D01*
X0228798Y0077657D02*
X0203666Y0077657D01*
X0203666Y0076859D02*
X0228426Y0076859D01*
X0228301Y0076060D02*
X0203666Y0076060D01*
X0203666Y0075262D02*
X0228376Y0075262D01*
X0228707Y0074463D02*
X0217157Y0074463D01*
X0214447Y0071625D02*
X0214226Y0071846D01*
X0214004Y0071625D01*
X0211294Y0074463D02*
X0203666Y0074463D01*
X0200697Y0076000D02*
X0196322Y0080375D01*
X0188601Y0080375D01*
X0183364Y0085611D01*
X0173327Y0085611D01*
X0173327Y0083643D02*
X0166243Y0083643D01*
X0161101Y0078500D01*
X0158901Y0078456D02*
X0153750Y0078456D01*
X0154376Y0077657D02*
X0158901Y0077657D01*
X0159631Y0076859D02*
X0154376Y0076859D01*
X0154376Y0076060D02*
X0164076Y0076060D01*
X0164076Y0075262D02*
X0154376Y0075262D01*
X0154376Y0074463D02*
X0164408Y0074463D01*
X0165206Y0073665D02*
X0154376Y0073665D01*
X0154376Y0072866D02*
X0166005Y0072866D01*
X0167050Y0073800D02*
X0173327Y0073800D01*
X0173327Y0071351D01*
X0171726Y0069750D01*
X0162976Y0069750D01*
X0160476Y0067250D01*
X0160476Y0042250D01*
X0150476Y0032250D01*
X0148853Y0033739D02*
X0069481Y0033739D01*
X0069253Y0034289D02*
X0068240Y0035302D01*
X0066917Y0035850D01*
X0060285Y0035850D01*
X0058961Y0035302D01*
X0057949Y0034289D01*
X0057401Y0032966D01*
X0057401Y0031534D01*
X0057949Y0030211D01*
X0058961Y0029198D01*
X0060285Y0028650D01*
X0066917Y0028650D01*
X0068240Y0029198D01*
X0069253Y0030211D01*
X0069801Y0031534D01*
X0069801Y0032966D01*
X0069253Y0034289D01*
X0069004Y0034537D02*
X0150783Y0034537D01*
X0151582Y0035336D02*
X0132293Y0035336D01*
X0133044Y0036134D02*
X0152380Y0036134D01*
X0153179Y0036933D02*
X0133126Y0036933D01*
X0133126Y0038530D02*
X0154776Y0038530D01*
X0155574Y0039329D02*
X0133121Y0039329D01*
X0133126Y0041625D02*
X0133126Y0042650D01*
X0131026Y0042650D01*
X0131026Y0043100D01*
X0133126Y0043100D01*
X0133126Y0044309D01*
X0133030Y0044665D01*
X0132846Y0044985D01*
X0132585Y0045245D01*
X0132266Y0045430D01*
X0131910Y0045525D01*
X0129451Y0045525D01*
X0129451Y0044675D01*
X0129001Y0044675D01*
X0129001Y0045525D01*
X0126541Y0045525D01*
X0126185Y0045430D01*
X0125866Y0045245D01*
X0125605Y0044985D01*
X0125421Y0044665D01*
X0125326Y0044309D01*
X0125326Y0043100D01*
X0127426Y0043100D01*
X0127426Y0042650D01*
X0125326Y0042650D01*
X0125326Y0041625D01*
X0123601Y0041625D01*
X0123601Y0064750D01*
X0120078Y0064750D01*
X0120078Y0065850D01*
X0120639Y0065850D01*
X0121439Y0065050D01*
X0123262Y0065050D01*
X0124551Y0066339D01*
X0124551Y0068161D01*
X0123262Y0069450D01*
X0121439Y0069450D01*
X0120639Y0068650D01*
X0120078Y0068650D01*
X0120078Y0070420D01*
X0119492Y0071006D01*
X0114333Y0071006D01*
X0113747Y0070420D01*
X0113747Y0064750D01*
X0112204Y0064750D01*
X0112204Y0070420D01*
X0111618Y0071006D01*
X0106459Y0071006D01*
X0105873Y0070420D01*
X0105873Y0068802D01*
X0105709Y0068810D01*
X0105682Y0068837D01*
X0105135Y0068837D01*
X0104589Y0068863D01*
X0104560Y0068837D01*
X0104232Y0068837D01*
X0104232Y0070017D01*
X0103646Y0070602D01*
X0099290Y0070602D01*
X0097688Y0072205D01*
X0096868Y0073025D01*
X0085431Y0073025D01*
X0083998Y0074457D01*
X0084334Y0074457D01*
X0085109Y0074457D01*
X0085465Y0074553D01*
X0085784Y0074737D01*
X0085904Y0074857D01*
X0105024Y0074857D01*
X0105610Y0075443D01*
X0105610Y0076819D01*
X0105776Y0076819D01*
X0105776Y0076339D01*
X0107064Y0075050D01*
X0108887Y0075050D01*
X0110176Y0076339D01*
X0110176Y0078161D01*
X0108887Y0079450D01*
X0107756Y0079450D01*
X0107586Y0079619D01*
X0105610Y0079619D01*
X0105610Y0080074D01*
X0110047Y0080074D01*
X0112963Y0077157D01*
X0113784Y0076337D01*
X0133534Y0076337D01*
X0133534Y0075312D01*
X0133414Y0075191D01*
X0133229Y0074872D01*
X0133134Y0074516D01*
X0133134Y0073800D01*
X0133134Y0073084D01*
X0133229Y0072728D01*
X0133414Y0072409D01*
X0133674Y0072148D01*
X0133993Y0071964D01*
X0134350Y0071869D01*
X0140321Y0071869D01*
X0140321Y0073800D01*
X0133134Y0073800D01*
X0140321Y0073800D01*
X0140321Y0073800D01*
X0140321Y0073800D01*
X0140321Y0071869D01*
X0146293Y0071869D01*
X0146649Y0071964D01*
X0146968Y0072148D01*
X0147229Y0072409D01*
X0147413Y0072728D01*
X0147509Y0073084D01*
X0147509Y0073800D01*
X0140321Y0073800D01*
X0140321Y0073800D01*
X0147509Y0073800D01*
X0147509Y0073862D01*
X0147826Y0073545D01*
X0147826Y0070578D01*
X0144599Y0070578D01*
X0144509Y0070487D01*
X0144298Y0070698D01*
X0143979Y0070882D01*
X0143623Y0070978D01*
X0141279Y0070978D01*
X0141279Y0067025D01*
X0140479Y0067025D01*
X0140479Y0066225D01*
X0136920Y0066225D01*
X0136920Y0063488D01*
X0137016Y0063132D01*
X0137200Y0062813D01*
X0137450Y0062562D01*
X0137200Y0062312D01*
X0137016Y0061993D01*
X0136920Y0061637D01*
X0136920Y0058900D01*
X0140479Y0058900D01*
X0140479Y0058100D01*
X0136920Y0058100D01*
X0136920Y0055363D01*
X0137016Y0055007D01*
X0137200Y0054688D01*
X0137450Y0054437D01*
X0137200Y0054187D01*
X0137016Y0053868D01*
X0136920Y0053512D01*
X0136920Y0050775D01*
X0140479Y0050775D01*
X0140479Y0049975D01*
X0136920Y0049975D01*
X0136920Y0047238D01*
X0137016Y0046882D01*
X0137200Y0046563D01*
X0137461Y0046302D01*
X0137780Y0046118D01*
X0138136Y0046022D01*
X0140479Y0046022D01*
X0140479Y0049975D01*
X0141279Y0049975D01*
X0141279Y0046022D01*
X0143623Y0046022D01*
X0143979Y0046118D01*
X0144298Y0046302D01*
X0144509Y0046513D01*
X0144599Y0046422D01*
X0147976Y0046422D01*
X0147976Y0041625D01*
X0133126Y0041625D01*
X0133126Y0041724D02*
X0147976Y0041724D01*
X0147976Y0042523D02*
X0133126Y0042523D01*
X0133126Y0043321D02*
X0147976Y0043321D01*
X0147976Y0044120D02*
X0133126Y0044120D01*
X0132884Y0044918D02*
X0147976Y0044918D01*
X0147976Y0045717D02*
X0123601Y0045717D01*
X0123601Y0046515D02*
X0137247Y0046515D01*
X0136920Y0047314D02*
X0123601Y0047314D01*
X0123601Y0048112D02*
X0136920Y0048112D01*
X0136920Y0048911D02*
X0123601Y0048911D01*
X0123601Y0049709D02*
X0136920Y0049709D01*
X0136920Y0051306D02*
X0123601Y0051306D01*
X0123601Y0050508D02*
X0140479Y0050508D01*
X0140479Y0050775D02*
X0140479Y0058100D01*
X0141279Y0058100D01*
X0141279Y0054147D01*
X0141279Y0050775D01*
X0140479Y0050775D01*
X0140479Y0051306D02*
X0141279Y0051306D01*
X0141279Y0052105D02*
X0140479Y0052105D01*
X0140479Y0052903D02*
X0141279Y0052903D01*
X0141279Y0053702D02*
X0140479Y0053702D01*
X0140479Y0054500D02*
X0141279Y0054500D01*
X0141279Y0055299D02*
X0140479Y0055299D01*
X0140479Y0056097D02*
X0141279Y0056097D01*
X0141279Y0056896D02*
X0140479Y0056896D01*
X0140479Y0057694D02*
X0141279Y0057694D01*
X0140479Y0058493D02*
X0123601Y0058493D01*
X0123601Y0059291D02*
X0136920Y0059291D01*
X0136920Y0060090D02*
X0123601Y0060090D01*
X0123601Y0060888D02*
X0136920Y0060888D01*
X0136934Y0061687D02*
X0123601Y0061687D01*
X0123601Y0062485D02*
X0137373Y0062485D01*
X0136975Y0063284D02*
X0123601Y0063284D01*
X0123601Y0064082D02*
X0136920Y0064082D01*
X0136920Y0064881D02*
X0120078Y0064881D01*
X0120078Y0065679D02*
X0120810Y0065679D01*
X0122351Y0067250D02*
X0116913Y0067250D01*
X0113747Y0067276D02*
X0112204Y0067276D01*
X0112204Y0066478D02*
X0113747Y0066478D01*
X0113747Y0065679D02*
X0112204Y0065679D01*
X0112204Y0064881D02*
X0113747Y0064881D01*
X0113747Y0068075D02*
X0112204Y0068075D01*
X0112204Y0068873D02*
X0113747Y0068873D01*
X0113747Y0069672D02*
X0112204Y0069672D01*
X0112154Y0070470D02*
X0113798Y0070470D01*
X0109039Y0067250D02*
X0105102Y0067437D01*
X0100476Y0067437D01*
X0096288Y0071625D01*
X0084851Y0071625D01*
X0082365Y0074110D01*
X0082365Y0078219D01*
X0080397Y0078219D02*
X0080397Y0071704D01*
X0083601Y0068500D01*
X0085663Y0068500D01*
X0087976Y0068062D01*
X0090914Y0068062D01*
X0094226Y0064750D01*
X0094226Y0052063D01*
X0095289Y0051000D01*
X0098454Y0051306D02*
X0099997Y0051306D01*
X0099997Y0050508D02*
X0098454Y0050508D01*
X0098454Y0049709D02*
X0099997Y0049709D01*
X0099997Y0048911D02*
X0098454Y0048911D01*
X0098454Y0048112D02*
X0099997Y0048112D01*
X0099997Y0047830D02*
X0100583Y0047244D01*
X0105742Y0047244D01*
X0106328Y0047830D01*
X0106328Y0049600D01*
X0107514Y0049600D01*
X0108314Y0048800D01*
X0110137Y0048800D01*
X0111426Y0050089D01*
X0111426Y0051911D01*
X0110137Y0053200D01*
X0108314Y0053200D01*
X0107514Y0052400D01*
X0106328Y0052400D01*
X0106328Y0054170D01*
X0105742Y0054756D01*
X0100583Y0054756D01*
X0099997Y0054170D01*
X0099997Y0047830D01*
X0100514Y0047314D02*
X0097938Y0047314D01*
X0098157Y0045717D02*
X0100294Y0045717D01*
X0100583Y0046006D02*
X0099997Y0045420D01*
X0099997Y0039080D01*
X0100583Y0038494D01*
X0105742Y0038494D01*
X0106328Y0039080D01*
X0106328Y0040850D01*
X0106889Y0040850D01*
X0107689Y0040050D01*
X0109512Y0040050D01*
X0110801Y0041339D01*
X0110801Y0043161D01*
X0109512Y0044450D01*
X0107689Y0044450D01*
X0106889Y0043650D01*
X0106328Y0043650D01*
X0106328Y0045420D01*
X0105742Y0046006D01*
X0100583Y0046006D01*
X0099997Y0044918D02*
X0098454Y0044918D01*
X0098454Y0044120D02*
X0099997Y0044120D01*
X0099997Y0043321D02*
X0098454Y0043321D01*
X0098454Y0042523D02*
X0099997Y0042523D01*
X0099997Y0041724D02*
X0098454Y0041724D01*
X0098454Y0040926D02*
X0099997Y0040926D01*
X0099997Y0040127D02*
X0098454Y0040127D01*
X0098454Y0039329D02*
X0099997Y0039329D01*
X0100547Y0038530D02*
X0097904Y0038530D01*
X0092673Y0038530D02*
X0067672Y0038530D01*
X0067367Y0038404D02*
X0068095Y0038705D01*
X0068751Y0039143D01*
X0069308Y0039700D01*
X0069745Y0040355D01*
X0070047Y0041083D01*
X0070199Y0041850D01*
X0064001Y0041850D01*
X0064001Y0042650D01*
X0070199Y0042650D01*
X0070047Y0043417D01*
X0069745Y0044145D01*
X0069308Y0044800D01*
X0068751Y0045357D01*
X0068095Y0045795D01*
X0067367Y0046096D01*
X0066595Y0046250D01*
X0064001Y0046250D01*
X0064001Y0042650D01*
X0063201Y0042650D01*
X0063201Y0046250D01*
X0060607Y0046250D01*
X0059834Y0046096D01*
X0059106Y0045795D01*
X0058451Y0045357D01*
X0057894Y0044800D01*
X0057456Y0044145D01*
X0057154Y0043417D01*
X0057002Y0042650D01*
X0063201Y0042650D01*
X0063201Y0041850D01*
X0064001Y0041850D01*
X0064001Y0038250D01*
X0066595Y0038250D01*
X0067367Y0038404D01*
X0068936Y0039329D02*
X0092123Y0039329D01*
X0092123Y0040127D02*
X0069593Y0040127D01*
X0069982Y0040926D02*
X0092123Y0040926D01*
X0092123Y0041724D02*
X0070174Y0041724D01*
X0070066Y0043321D02*
X0092123Y0043321D01*
X0092123Y0042523D02*
X0064001Y0042523D01*
X0064001Y0043321D02*
X0063201Y0043321D01*
X0063201Y0042523D02*
X0056101Y0042523D01*
X0056101Y0043321D02*
X0057135Y0043321D01*
X0057446Y0044120D02*
X0056101Y0044120D01*
X0056101Y0044918D02*
X0058012Y0044918D01*
X0058989Y0045717D02*
X0056101Y0045717D01*
X0056101Y0046515D02*
X0089044Y0046515D01*
X0089842Y0045717D02*
X0068212Y0045717D01*
X0069189Y0044918D02*
X0090641Y0044918D01*
X0091439Y0044120D02*
X0069756Y0044120D01*
X0067546Y0048911D02*
X0086648Y0048911D01*
X0085850Y0049709D02*
X0068751Y0049709D01*
X0069253Y0050211D02*
X0069801Y0051534D01*
X0069801Y0052966D01*
X0069253Y0054289D01*
X0068240Y0055302D01*
X0066917Y0055850D01*
X0060285Y0055850D01*
X0058961Y0055302D01*
X0057949Y0054289D01*
X0057401Y0052966D01*
X0057401Y0051534D01*
X0057949Y0050211D01*
X0058961Y0049198D01*
X0060285Y0048650D01*
X0066917Y0048650D01*
X0068240Y0049198D01*
X0069253Y0050211D01*
X0069376Y0050508D02*
X0085051Y0050508D01*
X0084253Y0051306D02*
X0069706Y0051306D01*
X0069801Y0052105D02*
X0083454Y0052105D01*
X0082656Y0052903D02*
X0069801Y0052903D01*
X0069496Y0053702D02*
X0081857Y0053702D01*
X0081059Y0054500D02*
X0069042Y0054500D01*
X0068243Y0055299D02*
X0080951Y0055299D01*
X0080341Y0055652D02*
X0080602Y0055913D01*
X0080786Y0056232D01*
X0080882Y0056588D01*
X0080882Y0058538D01*
X0077126Y0058538D01*
X0077126Y0059338D01*
X0080882Y0059338D01*
X0080882Y0061288D01*
X0080786Y0061644D01*
X0080602Y0061963D01*
X0080341Y0062224D01*
X0080022Y0062408D01*
X0079666Y0062503D01*
X0077126Y0062503D01*
X0077126Y0059338D01*
X0076326Y0059338D01*
X0076326Y0062503D01*
X0073785Y0062503D01*
X0073429Y0062408D01*
X0073110Y0062224D01*
X0072849Y0061963D01*
X0072665Y0061644D01*
X0072570Y0061288D01*
X0072570Y0059338D01*
X0076326Y0059338D01*
X0076326Y0058538D01*
X0077126Y0058538D01*
X0077126Y0055373D01*
X0079666Y0055373D01*
X0080022Y0055468D01*
X0080341Y0055652D01*
X0080708Y0056097D02*
X0080951Y0056097D01*
X0080951Y0056896D02*
X0080882Y0056896D01*
X0080882Y0057694D02*
X0080951Y0057694D01*
X0080951Y0058493D02*
X0080882Y0058493D01*
X0080951Y0059291D02*
X0077126Y0059291D01*
X0077126Y0058493D02*
X0076326Y0058493D01*
X0076326Y0058538D02*
X0076326Y0055373D01*
X0073785Y0055373D01*
X0073429Y0055468D01*
X0073110Y0055652D01*
X0072849Y0055913D01*
X0072665Y0056232D01*
X0072570Y0056588D01*
X0072570Y0058538D01*
X0076326Y0058538D01*
X0076326Y0059291D02*
X0068333Y0059291D01*
X0069132Y0060090D02*
X0072570Y0060090D01*
X0072570Y0060888D02*
X0069533Y0060888D01*
X0069801Y0061687D02*
X0072690Y0061687D01*
X0073718Y0062485D02*
X0069801Y0062485D01*
X0069669Y0063284D02*
X0079226Y0063284D01*
X0079733Y0062485D02*
X0080951Y0062485D01*
X0080951Y0061687D02*
X0080761Y0061687D01*
X0080882Y0060888D02*
X0080951Y0060888D01*
X0080951Y0060090D02*
X0080882Y0060090D01*
X0083751Y0060090D02*
X0087576Y0060090D01*
X0087576Y0059788D02*
X0083820Y0059788D01*
X0083820Y0057838D01*
X0083915Y0057482D01*
X0084099Y0057163D01*
X0084360Y0056902D01*
X0084679Y0056718D01*
X0085035Y0056623D01*
X0087576Y0056623D01*
X0087576Y0059788D01*
X0087576Y0059291D02*
X0088376Y0059291D01*
X0088376Y0059788D02*
X0088376Y0056623D01*
X0090916Y0056623D01*
X0091272Y0056718D01*
X0091591Y0056902D01*
X0091852Y0057163D01*
X0092036Y0057482D01*
X0092132Y0057838D01*
X0092132Y0059788D01*
X0088376Y0059788D01*
X0088376Y0060090D02*
X0092826Y0060090D01*
X0092826Y0060888D02*
X0092132Y0060888D01*
X0092132Y0061687D02*
X0092826Y0061687D01*
X0092826Y0062485D02*
X0092132Y0062485D01*
X0092132Y0059291D02*
X0092826Y0059291D01*
X0092826Y0058493D02*
X0092132Y0058493D01*
X0092093Y0057694D02*
X0092826Y0057694D01*
X0092826Y0056896D02*
X0091580Y0056896D01*
X0092826Y0056097D02*
X0083751Y0056097D01*
X0083751Y0056896D02*
X0084372Y0056896D01*
X0083858Y0057694D02*
X0083751Y0057694D01*
X0083751Y0058493D02*
X0083820Y0058493D01*
X0083820Y0059291D02*
X0083751Y0059291D01*
X0083751Y0060888D02*
X0083820Y0060888D01*
X0083820Y0061687D02*
X0083751Y0061687D01*
X0083751Y0062485D02*
X0083820Y0062485D01*
X0077126Y0062485D02*
X0076326Y0062485D01*
X0076326Y0061687D02*
X0077126Y0061687D01*
X0077126Y0060888D02*
X0076326Y0060888D01*
X0076326Y0060090D02*
X0077126Y0060090D01*
X0077126Y0057694D02*
X0076326Y0057694D01*
X0076326Y0056896D02*
X0077126Y0056896D01*
X0077126Y0056097D02*
X0076326Y0056097D01*
X0072743Y0056097D02*
X0056101Y0056097D01*
X0056101Y0055299D02*
X0058958Y0055299D01*
X0058160Y0054500D02*
X0056101Y0054500D01*
X0056101Y0053702D02*
X0057705Y0053702D01*
X0057401Y0052903D02*
X0056101Y0052903D01*
X0056101Y0052105D02*
X0057401Y0052105D01*
X0057495Y0051306D02*
X0056101Y0051306D01*
X0056101Y0050508D02*
X0057826Y0050508D01*
X0058450Y0049709D02*
X0056101Y0049709D01*
X0056101Y0048911D02*
X0059655Y0048911D01*
X0056101Y0048112D02*
X0087447Y0048112D01*
X0088245Y0047314D02*
X0056101Y0047314D01*
X0063201Y0045717D02*
X0064001Y0045717D01*
X0064001Y0044918D02*
X0063201Y0044918D01*
X0063201Y0044120D02*
X0064001Y0044120D01*
X0064001Y0041724D02*
X0063201Y0041724D01*
X0063201Y0041850D02*
X0063201Y0038250D01*
X0060607Y0038250D01*
X0059834Y0038404D01*
X0059106Y0038705D01*
X0058451Y0039143D01*
X0057894Y0039700D01*
X0057456Y0040355D01*
X0057154Y0041083D01*
X0057002Y0041850D01*
X0063201Y0041850D01*
X0063201Y0040926D02*
X0064001Y0040926D01*
X0064001Y0040127D02*
X0063201Y0040127D01*
X0063201Y0039329D02*
X0064001Y0039329D01*
X0064001Y0038530D02*
X0063201Y0038530D01*
X0059529Y0038530D02*
X0056101Y0038530D01*
X0056101Y0037732D02*
X0127426Y0037732D01*
X0125326Y0038530D02*
X0105778Y0038530D01*
X0106328Y0039329D02*
X0125331Y0039329D01*
X0125326Y0041724D02*
X0123601Y0041724D01*
X0123601Y0042523D02*
X0125326Y0042523D01*
X0125326Y0043321D02*
X0123601Y0043321D01*
X0123601Y0044120D02*
X0125326Y0044120D01*
X0125567Y0044918D02*
X0123601Y0044918D01*
X0121726Y0044918D02*
X0106328Y0044918D01*
X0106328Y0044120D02*
X0107359Y0044120D01*
X0106032Y0045717D02*
X0121726Y0045717D01*
X0121726Y0046515D02*
X0093003Y0046515D01*
X0092640Y0047314D02*
X0092205Y0047314D01*
X0092123Y0048112D02*
X0091406Y0048112D01*
X0092123Y0048911D02*
X0090608Y0048911D01*
X0089809Y0049709D02*
X0092123Y0049709D01*
X0092123Y0050508D02*
X0089011Y0050508D01*
X0088212Y0051306D02*
X0092123Y0051306D01*
X0092123Y0052105D02*
X0087414Y0052105D01*
X0086615Y0052903D02*
X0092123Y0052903D01*
X0092123Y0053702D02*
X0085817Y0053702D01*
X0085018Y0054500D02*
X0092453Y0054500D01*
X0092826Y0055299D02*
X0084220Y0055299D01*
X0082351Y0055188D02*
X0095289Y0042250D01*
X0103163Y0042250D02*
X0108601Y0042250D01*
X0110801Y0042523D02*
X0121726Y0042523D01*
X0121726Y0043321D02*
X0110641Y0043321D01*
X0109842Y0044120D02*
X0121726Y0044120D01*
X0121726Y0041724D02*
X0110801Y0041724D01*
X0110388Y0040926D02*
X0121726Y0040926D01*
X0121726Y0040127D02*
X0109589Y0040127D01*
X0107612Y0040127D02*
X0106328Y0040127D01*
X0105812Y0047314D02*
X0121726Y0047314D01*
X0121726Y0048112D02*
X0106328Y0048112D01*
X0106328Y0048911D02*
X0108204Y0048911D01*
X0110248Y0048911D02*
X0121726Y0048911D01*
X0121726Y0049709D02*
X0111046Y0049709D01*
X0111426Y0050508D02*
X0121726Y0050508D01*
X0121726Y0051306D02*
X0111426Y0051306D01*
X0111232Y0052105D02*
X0121726Y0052105D01*
X0121726Y0052903D02*
X0110434Y0052903D01*
X0109226Y0051000D02*
X0103163Y0051000D01*
X0099997Y0052105D02*
X0098454Y0052105D01*
X0098454Y0052903D02*
X0099997Y0052903D01*
X0099997Y0053702D02*
X0098454Y0053702D01*
X0098124Y0054500D02*
X0100327Y0054500D01*
X0100076Y0055998D02*
X0100076Y0059163D01*
X0096320Y0059163D01*
X0096320Y0057213D01*
X0096415Y0056857D01*
X0096599Y0056538D01*
X0096860Y0056277D01*
X0097179Y0056093D01*
X0097535Y0055998D01*
X0100076Y0055998D01*
X0100076Y0056097D02*
X0100876Y0056097D01*
X0100876Y0055998D02*
X0103416Y0055998D01*
X0103772Y0056093D01*
X0104091Y0056277D01*
X0104352Y0056538D01*
X0104536Y0056857D01*
X0104632Y0057213D01*
X0104632Y0059163D01*
X0100876Y0059163D01*
X0100876Y0055998D01*
X0100876Y0056896D02*
X0100076Y0056896D01*
X0100076Y0057694D02*
X0100876Y0057694D01*
X0100876Y0058493D02*
X0100076Y0058493D01*
X0100076Y0059291D02*
X0095626Y0059291D01*
X0095626Y0058493D02*
X0096320Y0058493D01*
X0096320Y0057694D02*
X0095626Y0057694D01*
X0095626Y0056896D02*
X0096405Y0056896D01*
X0097172Y0056097D02*
X0095626Y0056097D01*
X0095626Y0055299D02*
X0121726Y0055299D01*
X0121726Y0056097D02*
X0103779Y0056097D01*
X0104546Y0056896D02*
X0121726Y0056896D01*
X0121726Y0057694D02*
X0104632Y0057694D01*
X0104632Y0058493D02*
X0121726Y0058493D01*
X0121726Y0059291D02*
X0100876Y0059291D01*
X0104632Y0060090D02*
X0121726Y0060090D01*
X0121726Y0060888D02*
X0104632Y0060888D01*
X0104632Y0061687D02*
X0121726Y0061687D01*
X0121726Y0062485D02*
X0104411Y0062485D01*
X0096540Y0062485D02*
X0095626Y0062485D01*
X0095626Y0061687D02*
X0096320Y0061687D01*
X0096320Y0060888D02*
X0095626Y0060888D01*
X0095626Y0060090D02*
X0096320Y0060090D01*
X0088376Y0058493D02*
X0087576Y0058493D01*
X0087576Y0057694D02*
X0088376Y0057694D01*
X0088376Y0056896D02*
X0087576Y0056896D01*
X0082351Y0055188D02*
X0082351Y0064750D01*
X0080289Y0066812D01*
X0076726Y0066812D01*
X0074491Y0069046D01*
X0074491Y0078219D01*
X0072901Y0078456D02*
X0058751Y0078456D01*
X0058751Y0079254D02*
X0072901Y0079254D01*
X0072901Y0080053D02*
X0065863Y0080053D01*
X0066323Y0080851D02*
X0067684Y0080851D01*
X0067684Y0081650D02*
X0066344Y0081650D01*
X0066344Y0082448D02*
X0067684Y0082448D01*
X0067684Y0083247D02*
X0063376Y0083247D01*
X0063376Y0082448D02*
X0062576Y0082448D01*
X0062576Y0081650D02*
X0063376Y0081650D01*
X0063376Y0080851D02*
X0062576Y0080851D01*
X0062576Y0080053D02*
X0063376Y0080053D01*
X0060088Y0080053D02*
X0058751Y0080053D01*
X0058751Y0080851D02*
X0059628Y0080851D01*
X0059607Y0081650D02*
X0058751Y0081650D01*
X0058751Y0082448D02*
X0059607Y0082448D01*
X0058751Y0083247D02*
X0062576Y0083247D01*
X0059607Y0084045D02*
X0059029Y0084045D01*
X0057351Y0084346D02*
X0057351Y0065375D01*
X0060476Y0062250D01*
X0063601Y0062250D01*
X0058868Y0059291D02*
X0056101Y0059291D01*
X0056101Y0058493D02*
X0072570Y0058493D01*
X0072570Y0057694D02*
X0056101Y0057694D01*
X0056101Y0056896D02*
X0072570Y0056896D01*
X0073120Y0064082D02*
X0069338Y0064082D01*
X0068661Y0064881D02*
X0072970Y0064881D01*
X0072970Y0065679D02*
X0067329Y0065679D01*
X0072970Y0066478D02*
X0058751Y0066478D01*
X0058751Y0067276D02*
X0072970Y0067276D01*
X0072970Y0068075D02*
X0058751Y0068075D01*
X0058751Y0068873D02*
X0059745Y0068873D01*
X0059873Y0065679D02*
X0059026Y0065679D01*
X0056663Y0064082D02*
X0056101Y0064082D01*
X0056101Y0063284D02*
X0057462Y0063284D01*
X0057401Y0062485D02*
X0056101Y0062485D01*
X0056101Y0061687D02*
X0057401Y0061687D01*
X0057668Y0060888D02*
X0056101Y0060888D01*
X0056101Y0060090D02*
X0058070Y0060090D01*
X0067456Y0068873D02*
X0072970Y0068873D01*
X0073091Y0069672D02*
X0068714Y0069672D01*
X0069360Y0070470D02*
X0073091Y0070470D01*
X0073091Y0071269D02*
X0069691Y0071269D01*
X0069801Y0072068D02*
X0073091Y0072068D01*
X0073091Y0072866D02*
X0069801Y0072866D01*
X0069511Y0073665D02*
X0073091Y0073665D01*
X0073091Y0074463D02*
X0069079Y0074463D01*
X0068280Y0075262D02*
X0073082Y0075262D01*
X0072901Y0076060D02*
X0058751Y0076060D01*
X0058751Y0075262D02*
X0058921Y0075262D01*
X0058751Y0076859D02*
X0072901Y0076859D01*
X0072901Y0077657D02*
X0058751Y0077657D01*
X0066344Y0084045D02*
X0067684Y0084045D01*
X0067684Y0084844D02*
X0066344Y0084844D01*
X0066340Y0085642D02*
X0067684Y0085642D01*
X0067684Y0086441D02*
X0065927Y0086441D01*
X0065792Y0087239D02*
X0067684Y0087239D01*
X0067684Y0088038D02*
X0065944Y0088038D01*
X0065944Y0088836D02*
X0067684Y0088836D01*
X0067684Y0089635D02*
X0065944Y0089635D01*
X0065944Y0090433D02*
X0067684Y0090433D01*
X0067684Y0091232D02*
X0065944Y0091232D01*
X0065944Y0092030D02*
X0067684Y0092030D01*
X0067684Y0092829D02*
X0065666Y0092829D01*
X0067684Y0093627D02*
X0062501Y0093627D01*
X0062501Y0094426D02*
X0067684Y0094426D01*
X0067684Y0095224D02*
X0062501Y0095224D01*
X0063103Y0096023D02*
X0067684Y0096023D01*
X0067684Y0096821D02*
X0063902Y0096821D01*
X0064700Y0097620D02*
X0067684Y0097620D01*
X0064482Y0099381D02*
X0061101Y0096000D01*
X0061101Y0091846D01*
X0062976Y0089971D01*
X0057351Y0084346D01*
X0071047Y0087570D02*
X0075468Y0087570D01*
X0075476Y0087562D01*
X0078428Y0078219D02*
X0078428Y0074578D01*
X0077351Y0073500D01*
X0084334Y0074457D02*
X0084334Y0078219D01*
X0084334Y0074457D01*
X0084334Y0074463D02*
X0084334Y0074463D01*
X0085130Y0074463D02*
X0133134Y0074463D01*
X0133134Y0073665D02*
X0084791Y0073665D01*
X0084334Y0075262D02*
X0084334Y0075262D01*
X0084334Y0076060D02*
X0084334Y0076060D01*
X0084334Y0076859D02*
X0084334Y0076859D01*
X0084334Y0077657D02*
X0084334Y0077657D01*
X0084334Y0078219D02*
X0084334Y0078219D01*
X0097027Y0072866D02*
X0133192Y0072866D01*
X0133814Y0072068D02*
X0097825Y0072068D01*
X0097688Y0072205D02*
X0097688Y0072205D01*
X0098624Y0071269D02*
X0147826Y0071269D01*
X0147826Y0072068D02*
X0146828Y0072068D01*
X0147450Y0072866D02*
X0147826Y0072866D01*
X0147706Y0073665D02*
X0147509Y0073665D01*
X0149226Y0074125D02*
X0149226Y0068279D01*
X0147572Y0066625D01*
X0152976Y0063904D02*
X0152976Y0077250D01*
X0146583Y0083643D01*
X0140321Y0083643D01*
X0140321Y0085611D02*
X0113989Y0085611D01*
X0112031Y0087570D01*
X0107464Y0087570D01*
X0107464Y0089538D02*
X0112562Y0089538D01*
X0114521Y0087580D01*
X0140321Y0087580D01*
X0140321Y0089548D02*
X0115052Y0089548D01*
X0113094Y0091507D01*
X0107464Y0091507D01*
X0107464Y0093475D02*
X0113625Y0093475D01*
X0115584Y0091517D01*
X0140321Y0091517D01*
X0140321Y0093485D02*
X0116115Y0093485D01*
X0114157Y0095444D01*
X0107464Y0095444D01*
X0107464Y0097412D02*
X0114688Y0097412D01*
X0116647Y0095454D01*
X0140321Y0095454D01*
X0140321Y0097422D02*
X0117178Y0097422D01*
X0115220Y0099381D01*
X0107464Y0099381D01*
X0107464Y0101349D02*
X0110825Y0101349D01*
X0116726Y0107250D01*
X0129851Y0107250D01*
X0131726Y0105375D01*
X0140243Y0105375D01*
X0140321Y0105296D01*
X0140321Y0103328D02*
X0130023Y0103328D01*
X0129226Y0104125D01*
X0126588Y0101359D02*
X0125072Y0102875D01*
X0126588Y0101359D02*
X0140321Y0101359D01*
X0140321Y0099391D02*
X0120210Y0099391D01*
X0118601Y0101000D01*
X0118601Y0102654D01*
X0118379Y0102875D01*
X0118601Y0104529D01*
X0116842Y0112091D02*
X0110038Y0105286D01*
X0107464Y0105286D01*
X0107464Y0103318D02*
X0110294Y0103318D01*
X0126726Y0119750D01*
X0129368Y0117107D01*
X0140321Y0117107D01*
X0140321Y0115139D02*
X0128212Y0115139D01*
X0126726Y0116625D01*
X0126726Y0119750D02*
X0126726Y0123279D01*
X0129226Y0126625D02*
X0121322Y0126625D01*
X0117976Y0123279D01*
X0116842Y0122145D01*
X0116842Y0112091D01*
X0115442Y0112671D02*
X0113772Y0111000D01*
X0110826Y0111000D01*
X0110826Y0112197D01*
X0110240Y0112782D01*
X0105610Y0112782D01*
X0105610Y0117413D01*
X0105419Y0117604D01*
X0105419Y0120537D01*
X0105176Y0120780D01*
X0105176Y0121911D01*
X0103887Y0123200D01*
X0102064Y0123200D01*
X0101482Y0122618D01*
X0101482Y0124401D01*
X0108556Y0131475D01*
X0110014Y0131475D01*
X0110814Y0130675D01*
X0112637Y0130675D01*
X0113926Y0131964D01*
X0113926Y0133786D01*
X0112637Y0135075D01*
X0110814Y0135075D01*
X0110014Y0134275D01*
X0107396Y0134275D01*
X0106576Y0133455D01*
X0099226Y0126105D01*
X0098556Y0126775D01*
X0092940Y0132390D01*
X0079625Y0132390D01*
X0079625Y0133963D01*
X0079039Y0134549D01*
X0072022Y0134549D01*
X0070626Y0135945D01*
X0070626Y0136594D01*
X0072593Y0136594D01*
X0073178Y0137180D01*
X0073178Y0138754D01*
X0073334Y0138754D01*
X0075431Y0140850D01*
X0076251Y0141670D01*
X0076251Y0158051D01*
X0075541Y0158761D01*
X0075541Y0162330D01*
X0074955Y0162915D01*
X0070189Y0162915D01*
X0069604Y0162330D01*
X0069604Y0157170D01*
X0070189Y0156585D01*
X0073451Y0156585D01*
X0073451Y0150002D01*
X0073299Y0150265D01*
X0073038Y0150526D01*
X0072719Y0150710D01*
X0072363Y0150805D01*
X0069626Y0150805D01*
X0069626Y0147246D01*
X0068826Y0147246D01*
X0068826Y0146446D01*
X0064873Y0146446D01*
X0064873Y0144103D01*
X0064968Y0143747D01*
X0065153Y0143428D01*
X0065363Y0143217D01*
X0065273Y0143127D01*
X0065273Y0137180D01*
X0065859Y0136594D01*
X0067826Y0136594D01*
X0067826Y0134785D01*
X0068646Y0133965D01*
X0071326Y0131285D01*
X0071326Y0128017D01*
X0071912Y0127431D01*
X0072001Y0127431D01*
X0071786Y0127373D01*
X0071466Y0127189D01*
X0071206Y0126929D01*
X0071021Y0126609D01*
X0070926Y0126253D01*
X0070926Y0123910D01*
X0075076Y0123910D01*
X0075076Y0123110D01*
X0075876Y0123110D01*
X0075876Y0123910D01*
X0080025Y0123910D01*
X0080025Y0126253D01*
X0079930Y0126609D01*
X0079746Y0126929D01*
X0079485Y0127189D01*
X0079166Y0127373D01*
X0078951Y0127431D01*
X0079039Y0127431D01*
X0079625Y0128017D01*
X0079625Y0129590D01*
X0091781Y0129590D01*
X0096576Y0124795D01*
X0096576Y0118399D01*
X0096145Y0118399D01*
X0096145Y0114637D01*
X0096145Y0114637D01*
X0096145Y0118399D01*
X0095370Y0118399D01*
X0095014Y0118304D01*
X0094695Y0118119D01*
X0094575Y0117999D01*
X0073487Y0117999D01*
X0073222Y0117734D01*
X0068926Y0122030D01*
X0068926Y0123161D01*
X0067637Y0124450D01*
X0065814Y0124450D01*
X0064526Y0123161D01*
X0064526Y0121339D01*
X0065814Y0120050D01*
X0066946Y0120050D01*
X0072901Y0114095D01*
X0072901Y0112782D01*
X0068270Y0112782D01*
X0067684Y0112197D01*
X0067684Y0111000D01*
X0056101Y0111000D01*
X0056101Y0193500D01*
X0178601Y0193500D01*
X0178601Y0190491D01*
X0178472Y0190525D01*
X0177263Y0190525D01*
X0177263Y0188425D01*
X0176813Y0188425D01*
X0176813Y0190525D01*
X0175604Y0190525D01*
X0175248Y0190430D01*
X0174929Y0190245D01*
X0174668Y0189985D01*
X0174484Y0189665D01*
X0174388Y0189309D01*
X0174388Y0186850D01*
X0175238Y0186850D01*
X0175238Y0186400D01*
X0174388Y0186400D01*
X0174388Y0183941D01*
X0174484Y0183585D01*
X0174668Y0183265D01*
X0174929Y0183005D01*
X0175248Y0182820D01*
X0175604Y0182725D01*
X0176813Y0182725D01*
X0176813Y0184825D01*
X0177263Y0184825D01*
X0177263Y0182725D01*
X0178472Y0182725D01*
X0178601Y0182759D01*
X0178601Y0157112D01*
X0178298Y0157193D01*
X0175364Y0157193D01*
X0175364Y0152650D01*
X0174564Y0152650D01*
X0174564Y0157193D01*
X0171630Y0157193D01*
X0171274Y0157098D01*
X0170955Y0156914D01*
X0170694Y0156653D01*
X0170510Y0156334D01*
X0170414Y0155978D01*
X0170414Y0152650D01*
X0174564Y0152650D01*
X0174564Y0151850D01*
X0175364Y0151850D01*
X0175364Y0147307D01*
X0178298Y0147307D01*
X0178601Y0147388D01*
X0178601Y0145815D01*
X0177529Y0145815D01*
X0177529Y0142650D01*
X0176729Y0142650D01*
X0176729Y0141850D01*
X0173761Y0141850D01*
X0173761Y0139900D01*
X0173856Y0139544D01*
X0174040Y0139225D01*
X0174301Y0138964D01*
X0174620Y0138780D01*
X0174976Y0138685D01*
X0176729Y0138685D01*
X0176729Y0141850D01*
X0177529Y0141850D01*
X0177529Y0138685D01*
X0178601Y0138685D01*
X0178601Y0128481D01*
X0167125Y0128481D01*
X0166540Y0127896D01*
X0166540Y0127875D01*
X0165626Y0127875D01*
X0165626Y0130960D01*
X0167012Y0130960D01*
X0167598Y0131545D01*
X0167598Y0136705D01*
X0167012Y0137290D01*
X0162501Y0137290D01*
X0162501Y0140551D01*
X0161681Y0141371D01*
X0160541Y0142511D01*
X0160541Y0146080D01*
X0159955Y0146665D01*
X0157637Y0146665D01*
X0153041Y0151261D01*
X0153041Y0154830D01*
X0152455Y0155415D01*
X0147689Y0155415D01*
X0147104Y0154830D01*
X0147104Y0149670D01*
X0147689Y0149085D01*
X0151258Y0149085D01*
X0153367Y0146976D01*
X0153032Y0147065D01*
X0151279Y0147065D01*
X0151279Y0143900D01*
X0150479Y0143900D01*
X0150479Y0143100D01*
X0147511Y0143100D01*
X0147511Y0141150D01*
X0147606Y0140794D01*
X0147790Y0140475D01*
X0148051Y0140214D01*
X0148370Y0140030D01*
X0148726Y0139935D01*
X0150479Y0139935D01*
X0150479Y0143100D01*
X0151279Y0143100D01*
X0151279Y0139935D01*
X0153032Y0139935D01*
X0153388Y0140030D01*
X0153707Y0140214D01*
X0153968Y0140475D01*
X0154152Y0140794D01*
X0154248Y0141150D01*
X0154248Y0143100D01*
X0151279Y0143100D01*
X0151279Y0143900D01*
X0154248Y0143900D01*
X0154248Y0145850D01*
X0154158Y0146184D01*
X0154604Y0145739D01*
X0154604Y0140920D01*
X0155189Y0140335D01*
X0158758Y0140335D01*
X0159701Y0139392D01*
X0159701Y0137290D01*
X0155189Y0137290D01*
X0154604Y0136705D01*
X0154604Y0133136D01*
X0154248Y0132780D01*
X0154248Y0133725D01*
X0151279Y0133725D01*
X0151279Y0130560D01*
X0152027Y0130560D01*
X0151367Y0129900D01*
X0146395Y0129900D01*
X0146766Y0130271D01*
X0146766Y0135036D01*
X0146180Y0135622D01*
X0141021Y0135622D01*
X0140435Y0135036D01*
X0140435Y0134275D01*
X0139687Y0134275D01*
X0138887Y0135075D01*
X0138688Y0135075D01*
X0140506Y0136893D01*
X0141021Y0136378D01*
X0146180Y0136378D01*
X0146766Y0136964D01*
X0146766Y0141729D01*
X0146180Y0142315D01*
X0145201Y0142315D01*
X0145201Y0149085D01*
X0145762Y0149085D01*
X0146348Y0149670D01*
X0146348Y0154830D01*
X0145762Y0155415D01*
X0140996Y0155415D01*
X0140411Y0154830D01*
X0140411Y0153850D01*
X0137994Y0153850D01*
X0137647Y0154197D01*
X0137647Y0161616D01*
X0137061Y0162202D01*
X0133326Y0162202D01*
X0133326Y0163177D01*
X0137255Y0167106D01*
X0141800Y0167106D01*
X0142386Y0167692D01*
X0142386Y0169400D01*
X0143013Y0169400D01*
X0143951Y0170337D01*
X0153013Y0179400D01*
X0161464Y0179400D01*
X0162064Y0178800D01*
X0163887Y0178800D01*
X0165176Y0180089D01*
X0165176Y0181911D01*
X0163887Y0183200D01*
X0162064Y0183200D01*
X0161464Y0182600D01*
X0151688Y0182600D01*
X0142386Y0173298D01*
X0142386Y0174308D01*
X0141800Y0174894D01*
X0137255Y0174894D01*
X0123261Y0188888D01*
X0122451Y0189698D01*
X0122451Y0191039D01*
X0121865Y0191625D01*
X0112236Y0191625D01*
X0111651Y0191039D01*
X0111651Y0185411D01*
X0112236Y0184825D01*
X0121865Y0184825D01*
X0122332Y0185292D01*
X0135386Y0172237D01*
X0135386Y0169763D01*
X0130126Y0164502D01*
X0130126Y0162202D01*
X0126390Y0162202D01*
X0125804Y0161616D01*
X0125804Y0154095D01*
X0126390Y0153509D01*
X0133809Y0153509D01*
X0136668Y0150650D01*
X0140411Y0150650D01*
X0140411Y0149670D01*
X0140996Y0149085D01*
X0142001Y0149085D01*
X0142001Y0142315D01*
X0141021Y0142315D01*
X0140435Y0141729D01*
X0140435Y0140946D01*
X0140034Y0140946D01*
X0130659Y0131571D01*
X0129891Y0131571D01*
X0129891Y0132354D01*
X0129305Y0132940D01*
X0124146Y0132940D01*
X0123560Y0132354D01*
X0123560Y0131571D01*
X0121141Y0131571D01*
X0121141Y0132354D01*
X0120555Y0132940D01*
X0119576Y0132940D01*
X0119576Y0135125D01*
X0120521Y0135125D01*
X0121991Y0135734D01*
X0123117Y0136859D01*
X0123726Y0138329D01*
X0123726Y0139921D01*
X0123117Y0141391D01*
X0121991Y0142516D01*
X0120521Y0143125D01*
X0112930Y0143125D01*
X0111460Y0142516D01*
X0110335Y0141391D01*
X0110059Y0140725D01*
X0106517Y0140725D01*
X0106242Y0141391D01*
X0105116Y0142516D01*
X0103646Y0143125D01*
X0096055Y0143125D01*
X0094585Y0142516D01*
X0093460Y0141391D01*
X0093184Y0140725D01*
X0090892Y0140725D01*
X0090617Y0141391D01*
X0089491Y0142516D01*
X0088021Y0143125D01*
X0080430Y0143125D01*
X0078960Y0142516D01*
X0077835Y0141391D01*
X0077226Y0139921D01*
X0077226Y0138329D01*
X0077835Y0136859D01*
X0078960Y0135734D01*
X0080430Y0135125D01*
X0088021Y0135125D01*
X0089491Y0135734D01*
X0090617Y0136859D01*
X0090892Y0137525D01*
X0093184Y0137525D01*
X0093460Y0136859D01*
X0094585Y0135734D01*
X0096055Y0135125D01*
X0103646Y0135125D01*
X0105116Y0135734D01*
X0106242Y0136859D01*
X0106517Y0137525D01*
X0110059Y0137525D01*
X0110335Y0136859D01*
X0111460Y0135734D01*
X0112930Y0135125D01*
X0116376Y0135125D01*
X0116376Y0132940D01*
X0115396Y0132940D01*
X0114810Y0132354D01*
X0114810Y0127589D01*
X0115396Y0127003D01*
X0119720Y0127003D01*
X0118964Y0126247D01*
X0115396Y0126247D01*
X0114810Y0125661D01*
X0114810Y0120896D01*
X0115396Y0120310D01*
X0115442Y0120310D01*
X0115442Y0112671D01*
X0115442Y0112792D02*
X0105610Y0112792D01*
X0105610Y0113590D02*
X0115442Y0113590D01*
X0115442Y0114389D02*
X0105610Y0114389D01*
X0105610Y0115187D02*
X0115442Y0115187D01*
X0115442Y0115986D02*
X0105610Y0115986D01*
X0105610Y0116784D02*
X0115442Y0116784D01*
X0115442Y0117583D02*
X0105440Y0117583D01*
X0105419Y0118381D02*
X0115442Y0118381D01*
X0115442Y0119180D02*
X0105419Y0119180D01*
X0105419Y0119978D02*
X0115442Y0119978D01*
X0114929Y0120777D02*
X0105179Y0120777D01*
X0105176Y0121575D02*
X0114810Y0121575D01*
X0114810Y0122374D02*
X0104713Y0122374D01*
X0103915Y0123172D02*
X0114810Y0123172D01*
X0114810Y0123971D02*
X0101482Y0123971D01*
X0101482Y0123172D02*
X0102037Y0123172D01*
X0101850Y0124769D02*
X0114810Y0124769D01*
X0114810Y0125568D02*
X0102648Y0125568D01*
X0103447Y0126366D02*
X0119084Y0126366D01*
X0115234Y0127165D02*
X0104245Y0127165D01*
X0105044Y0127963D02*
X0114810Y0127963D01*
X0114810Y0128762D02*
X0105842Y0128762D01*
X0106641Y0129560D02*
X0114810Y0129560D01*
X0114810Y0130359D02*
X0107439Y0130359D01*
X0108238Y0131157D02*
X0110332Y0131157D01*
X0111726Y0132875D02*
X0107976Y0132875D01*
X0100082Y0124981D01*
X0100082Y0114637D01*
X0098113Y0114637D02*
X0097976Y0114775D01*
X0097976Y0125375D01*
X0092361Y0130990D01*
X0075476Y0130990D01*
X0073601Y0130990D01*
X0069226Y0135365D01*
X0069226Y0140154D01*
X0072754Y0140154D01*
X0074851Y0142250D01*
X0074851Y0157471D01*
X0072572Y0159750D01*
X0069604Y0159904D02*
X0068848Y0159904D01*
X0068848Y0160702D02*
X0069604Y0160702D01*
X0069604Y0161501D02*
X0068848Y0161501D01*
X0068848Y0162299D02*
X0069604Y0162299D01*
X0068848Y0162330D02*
X0068262Y0162915D01*
X0067279Y0162915D01*
X0067279Y0167219D01*
X0068843Y0167219D01*
X0069428Y0167805D01*
X0069428Y0169379D01*
X0071429Y0169379D01*
X0071429Y0167884D01*
X0072015Y0167298D01*
X0082686Y0167298D01*
X0083272Y0167884D01*
X0083272Y0170245D01*
X0085749Y0170245D01*
X0087319Y0171814D01*
X0087319Y0171624D01*
X0087905Y0171038D01*
X0097395Y0171038D01*
X0097981Y0171624D01*
X0097981Y0177725D01*
X0111651Y0177725D01*
X0111651Y0176311D01*
X0112236Y0175725D01*
X0121865Y0175725D01*
X0122451Y0176311D01*
X0122451Y0181939D01*
X0121865Y0182525D01*
X0112236Y0182525D01*
X0111651Y0181939D01*
X0111651Y0180525D01*
X0097981Y0180525D01*
X0097981Y0186626D01*
X0097395Y0187212D01*
X0087905Y0187212D01*
X0087319Y0186626D01*
X0087319Y0175774D01*
X0084590Y0173045D01*
X0083272Y0173045D01*
X0083272Y0175405D01*
X0082686Y0175991D01*
X0072015Y0175991D01*
X0071429Y0175405D01*
X0071429Y0172179D01*
X0069428Y0172179D01*
X0069428Y0173752D01*
X0069338Y0173842D01*
X0069549Y0174053D01*
X0069733Y0174372D01*
X0069828Y0174728D01*
X0069828Y0177071D01*
X0065876Y0177071D01*
X0065876Y0177871D01*
X0069828Y0177871D01*
X0069828Y0180215D01*
X0069733Y0180571D01*
X0069549Y0180890D01*
X0069288Y0181151D01*
X0068969Y0181335D01*
X0068613Y0181430D01*
X0065876Y0181430D01*
X0065876Y0177871D01*
X0065076Y0177871D01*
X0065076Y0177071D01*
X0061123Y0177071D01*
X0061123Y0174728D01*
X0061218Y0174372D01*
X0061403Y0174053D01*
X0061613Y0173842D01*
X0061523Y0173752D01*
X0061523Y0167805D01*
X0062109Y0167219D01*
X0064479Y0167219D01*
X0064479Y0162915D01*
X0063496Y0162915D01*
X0062911Y0162330D01*
X0062911Y0157170D01*
X0063496Y0156585D01*
X0068262Y0156585D01*
X0068848Y0157170D01*
X0068848Y0162330D01*
X0067279Y0163098D02*
X0079331Y0163098D01*
X0079537Y0163203D02*
X0078920Y0162888D01*
X0078359Y0162481D01*
X0077870Y0161991D01*
X0077462Y0161431D01*
X0077148Y0160814D01*
X0076934Y0160155D01*
X0076834Y0159525D01*
X0083826Y0159525D01*
X0083826Y0163525D01*
X0080879Y0163525D01*
X0080195Y0163417D01*
X0079537Y0163203D01*
X0078177Y0162299D02*
X0075541Y0162299D01*
X0075541Y0161501D02*
X0077513Y0161501D01*
X0077112Y0160702D02*
X0075541Y0160702D01*
X0075541Y0159904D02*
X0076894Y0159904D01*
X0076834Y0158725D02*
X0076934Y0158095D01*
X0077148Y0157436D01*
X0077462Y0156819D01*
X0077870Y0156259D01*
X0078359Y0155769D01*
X0078920Y0155362D01*
X0079537Y0155047D01*
X0080195Y0154833D01*
X0080879Y0154725D01*
X0083826Y0154725D01*
X0083826Y0158725D01*
X0084626Y0158725D01*
X0084626Y0159525D01*
X0091617Y0159525D01*
X0091517Y0160155D01*
X0091303Y0160814D01*
X0090989Y0161431D01*
X0090582Y0161991D01*
X0090092Y0162481D01*
X0089532Y0162888D01*
X0088915Y0163203D01*
X0088256Y0163417D01*
X0087572Y0163525D01*
X0084626Y0163525D01*
X0084626Y0159525D01*
X0083826Y0159525D01*
X0083826Y0158725D01*
X0076834Y0158725D01*
X0076900Y0158307D02*
X0075995Y0158307D01*
X0076251Y0157508D02*
X0077125Y0157508D01*
X0077542Y0156710D02*
X0076251Y0156710D01*
X0076251Y0155911D02*
X0078217Y0155911D01*
X0079408Y0155113D02*
X0076251Y0155113D01*
X0076251Y0154314D02*
X0125804Y0154314D01*
X0125804Y0155113D02*
X0121543Y0155113D01*
X0121415Y0155047D02*
X0122032Y0155362D01*
X0122592Y0155769D01*
X0123082Y0156259D01*
X0123489Y0156819D01*
X0123803Y0157436D01*
X0124017Y0158095D01*
X0124117Y0158725D01*
X0117126Y0158725D01*
X0117126Y0159525D01*
X0124117Y0159525D01*
X0124017Y0160155D01*
X0123803Y0160814D01*
X0123489Y0161431D01*
X0123082Y0161991D01*
X0122592Y0162481D01*
X0122032Y0162888D01*
X0121415Y0163203D01*
X0120756Y0163417D01*
X0120072Y0163525D01*
X0117126Y0163525D01*
X0117126Y0159525D01*
X0116326Y0159525D01*
X0116326Y0163525D01*
X0113379Y0163525D01*
X0112695Y0163417D01*
X0112037Y0163203D01*
X0111420Y0162888D01*
X0110859Y0162481D01*
X0110370Y0161991D01*
X0109962Y0161431D01*
X0109648Y0160814D01*
X0109434Y0160155D01*
X0109334Y0159525D01*
X0116326Y0159525D01*
X0116326Y0158725D01*
X0117126Y0158725D01*
X0117126Y0154725D01*
X0120072Y0154725D01*
X0120756Y0154833D01*
X0121415Y0155047D01*
X0122734Y0155911D02*
X0125804Y0155911D01*
X0125804Y0156710D02*
X0123410Y0156710D01*
X0123827Y0157508D02*
X0125804Y0157508D01*
X0125804Y0158307D02*
X0124051Y0158307D01*
X0124057Y0159904D02*
X0125804Y0159904D01*
X0125804Y0160702D02*
X0123840Y0160702D01*
X0123438Y0161501D02*
X0125804Y0161501D01*
X0125804Y0159105D02*
X0117126Y0159105D01*
X0117126Y0158307D02*
X0116326Y0158307D01*
X0116326Y0158725D02*
X0116326Y0154725D01*
X0113379Y0154725D01*
X0112695Y0154833D01*
X0112037Y0155047D01*
X0111420Y0155362D01*
X0110859Y0155769D01*
X0110370Y0156259D01*
X0109962Y0156819D01*
X0109648Y0157436D01*
X0109434Y0158095D01*
X0109334Y0158725D01*
X0116326Y0158725D01*
X0116326Y0159105D02*
X0100251Y0159105D01*
X0100251Y0158725D02*
X0100251Y0159525D01*
X0107242Y0159525D01*
X0107142Y0160155D01*
X0106928Y0160814D01*
X0106614Y0161431D01*
X0106207Y0161991D01*
X0105717Y0162481D01*
X0105157Y0162888D01*
X0104540Y0163203D01*
X0103881Y0163417D01*
X0103197Y0163525D01*
X0100251Y0163525D01*
X0100251Y0159525D01*
X0099451Y0159525D01*
X0099451Y0163525D01*
X0096504Y0163525D01*
X0095820Y0163417D01*
X0095162Y0163203D01*
X0094545Y0162888D01*
X0093984Y0162481D01*
X0093495Y0161991D01*
X0093087Y0161431D01*
X0092773Y0160814D01*
X0092559Y0160155D01*
X0092459Y0159525D01*
X0099451Y0159525D01*
X0099451Y0158725D01*
X0100251Y0158725D01*
X0107242Y0158725D01*
X0107142Y0158095D01*
X0106928Y0157436D01*
X0106614Y0156819D01*
X0106207Y0156259D01*
X0105717Y0155769D01*
X0105157Y0155362D01*
X0104540Y0155047D01*
X0103881Y0154833D01*
X0103197Y0154725D01*
X0100251Y0154725D01*
X0100251Y0158725D01*
X0100251Y0158307D02*
X0099451Y0158307D01*
X0099451Y0158725D02*
X0099451Y0154725D01*
X0096504Y0154725D01*
X0095820Y0154833D01*
X0095162Y0155047D01*
X0094545Y0155362D01*
X0093984Y0155769D01*
X0093495Y0156259D01*
X0093087Y0156819D01*
X0092773Y0157436D01*
X0092559Y0158095D01*
X0092459Y0158725D01*
X0099451Y0158725D01*
X0099451Y0159105D02*
X0084626Y0159105D01*
X0084626Y0158725D02*
X0091617Y0158725D01*
X0091517Y0158095D01*
X0091303Y0157436D01*
X0090989Y0156819D01*
X0090582Y0156259D01*
X0090092Y0155769D01*
X0089532Y0155362D01*
X0088915Y0155047D01*
X0088256Y0154833D01*
X0087572Y0154725D01*
X0084626Y0154725D01*
X0084626Y0158725D01*
X0084626Y0158307D02*
X0083826Y0158307D01*
X0083826Y0159105D02*
X0075541Y0159105D01*
X0069604Y0159105D02*
X0068848Y0159105D01*
X0068848Y0158307D02*
X0069604Y0158307D01*
X0069604Y0157508D02*
X0068848Y0157508D01*
X0068387Y0156710D02*
X0070064Y0156710D01*
X0073451Y0155911D02*
X0056101Y0155911D01*
X0056101Y0155113D02*
X0073451Y0155113D01*
X0073451Y0154314D02*
X0056101Y0154314D01*
X0056101Y0153516D02*
X0073451Y0153516D01*
X0073451Y0152717D02*
X0056101Y0152717D01*
X0056101Y0151919D02*
X0073451Y0151919D01*
X0073451Y0151120D02*
X0056101Y0151120D01*
X0056101Y0150322D02*
X0065209Y0150322D01*
X0065153Y0150265D02*
X0064968Y0149946D01*
X0064873Y0149590D01*
X0064873Y0147246D01*
X0068826Y0147246D01*
X0068826Y0150805D01*
X0066089Y0150805D01*
X0065733Y0150710D01*
X0065413Y0150526D01*
X0065153Y0150265D01*
X0064873Y0149523D02*
X0056101Y0149523D01*
X0056101Y0148725D02*
X0064873Y0148725D01*
X0064873Y0147926D02*
X0056101Y0147926D01*
X0056101Y0147128D02*
X0068826Y0147128D01*
X0068826Y0147926D02*
X0069626Y0147926D01*
X0069626Y0148725D02*
X0068826Y0148725D01*
X0068826Y0149523D02*
X0069626Y0149523D01*
X0069626Y0150322D02*
X0068826Y0150322D01*
X0073242Y0150322D02*
X0073451Y0150322D01*
X0076251Y0150322D02*
X0077392Y0150322D01*
X0077226Y0149921D02*
X0077226Y0148329D01*
X0077835Y0146859D01*
X0078960Y0145734D01*
X0080430Y0145125D01*
X0088021Y0145125D01*
X0089491Y0145734D01*
X0090617Y0146859D01*
X0091226Y0148329D01*
X0091226Y0149921D01*
X0090617Y0151391D01*
X0089491Y0152516D01*
X0088021Y0153125D01*
X0080430Y0153125D01*
X0078960Y0152516D01*
X0077835Y0151391D01*
X0077226Y0149921D01*
X0077226Y0149523D02*
X0076251Y0149523D01*
X0076251Y0148725D02*
X0077226Y0148725D01*
X0077393Y0147926D02*
X0076251Y0147926D01*
X0076251Y0147128D02*
X0077723Y0147128D01*
X0078365Y0146329D02*
X0076251Y0146329D01*
X0076251Y0145531D02*
X0079451Y0145531D01*
X0076251Y0144732D02*
X0125404Y0144732D01*
X0125404Y0143934D02*
X0076251Y0143934D01*
X0076251Y0143135D02*
X0131326Y0143135D01*
X0131326Y0143295D02*
X0131326Y0142495D01*
X0132126Y0142495D01*
X0132126Y0143295D01*
X0131326Y0143295D01*
X0131326Y0147641D01*
X0126620Y0147641D01*
X0126264Y0147546D01*
X0125945Y0147361D01*
X0125684Y0147101D01*
X0125500Y0146782D01*
X0125404Y0146425D01*
X0125404Y0143295D01*
X0131326Y0143295D01*
X0131326Y0143934D02*
X0132126Y0143934D01*
X0132126Y0143295D02*
X0132126Y0147641D01*
X0136831Y0147641D01*
X0137187Y0147546D01*
X0137507Y0147361D01*
X0137767Y0147101D01*
X0137952Y0146782D01*
X0138047Y0146425D01*
X0138047Y0143295D01*
X0132126Y0143295D01*
X0132126Y0143135D02*
X0142001Y0143135D01*
X0142001Y0142337D02*
X0138047Y0142337D01*
X0138047Y0142495D02*
X0132126Y0142495D01*
X0132126Y0138148D01*
X0136831Y0138148D01*
X0137187Y0138244D01*
X0137507Y0138428D01*
X0137767Y0138689D01*
X0137952Y0139008D01*
X0138047Y0139364D01*
X0138047Y0142495D01*
X0138047Y0141538D02*
X0140435Y0141538D01*
X0139827Y0140739D02*
X0138047Y0140739D01*
X0138047Y0139941D02*
X0139029Y0139941D01*
X0138230Y0139142D02*
X0137988Y0139142D01*
X0137432Y0138344D02*
X0137361Y0138344D01*
X0136633Y0137545D02*
X0123401Y0137545D01*
X0123726Y0138344D02*
X0126090Y0138344D01*
X0125945Y0138428D02*
X0126264Y0138244D01*
X0126620Y0138148D01*
X0131326Y0138148D01*
X0131326Y0142495D01*
X0125404Y0142495D01*
X0125404Y0139364D01*
X0125500Y0139008D01*
X0125684Y0138689D01*
X0125945Y0138428D01*
X0125464Y0139142D02*
X0123726Y0139142D01*
X0123717Y0139941D02*
X0125404Y0139941D01*
X0125404Y0140739D02*
X0123387Y0140739D01*
X0122970Y0141538D02*
X0125404Y0141538D01*
X0125404Y0142337D02*
X0122171Y0142337D01*
X0120521Y0145125D02*
X0112930Y0145125D01*
X0111460Y0145734D01*
X0110335Y0146859D01*
X0109726Y0148329D01*
X0109726Y0149921D01*
X0110335Y0151391D01*
X0111460Y0152516D01*
X0112930Y0153125D01*
X0120521Y0153125D01*
X0121991Y0152516D01*
X0123117Y0151391D01*
X0123726Y0149921D01*
X0123726Y0148329D01*
X0123117Y0146859D01*
X0121991Y0145734D01*
X0120521Y0145125D01*
X0121500Y0145531D02*
X0125404Y0145531D01*
X0125404Y0146329D02*
X0122587Y0146329D01*
X0123228Y0147128D02*
X0125711Y0147128D01*
X0123559Y0147926D02*
X0142001Y0147926D01*
X0142001Y0147128D02*
X0137740Y0147128D01*
X0138047Y0146329D02*
X0142001Y0146329D01*
X0142001Y0145531D02*
X0138047Y0145531D01*
X0138047Y0144732D02*
X0142001Y0144732D01*
X0142001Y0143934D02*
X0138047Y0143934D01*
X0132126Y0144732D02*
X0131326Y0144732D01*
X0131326Y0145531D02*
X0132126Y0145531D01*
X0132126Y0146329D02*
X0131326Y0146329D01*
X0131326Y0147128D02*
X0132126Y0147128D01*
X0136198Y0151120D02*
X0123229Y0151120D01*
X0123560Y0150322D02*
X0140411Y0150322D01*
X0140558Y0149523D02*
X0123726Y0149523D01*
X0123726Y0148725D02*
X0142001Y0148725D01*
X0145201Y0148725D02*
X0151618Y0148725D01*
X0152416Y0147926D02*
X0145201Y0147926D01*
X0145201Y0147128D02*
X0153215Y0147128D01*
X0154248Y0145531D02*
X0154604Y0145531D01*
X0154604Y0144732D02*
X0154248Y0144732D01*
X0154248Y0143934D02*
X0154604Y0143934D01*
X0154604Y0143135D02*
X0151279Y0143135D01*
X0151279Y0142337D02*
X0150479Y0142337D01*
X0150479Y0143135D02*
X0145201Y0143135D01*
X0145201Y0142337D02*
X0147511Y0142337D01*
X0147511Y0141538D02*
X0146766Y0141538D01*
X0146766Y0140739D02*
X0147638Y0140739D01*
X0146766Y0139941D02*
X0148703Y0139941D01*
X0150479Y0139941D02*
X0151279Y0139941D01*
X0151279Y0140739D02*
X0150479Y0140739D01*
X0150479Y0141538D02*
X0151279Y0141538D01*
X0153056Y0139941D02*
X0159151Y0139941D01*
X0159701Y0139142D02*
X0146766Y0139142D01*
X0146766Y0138344D02*
X0159701Y0138344D01*
X0159701Y0137545D02*
X0153474Y0137545D01*
X0153388Y0137595D02*
X0153032Y0137690D01*
X0151279Y0137690D01*
X0151279Y0134525D01*
X0150479Y0134525D01*
X0150479Y0133725D01*
X0147511Y0133725D01*
X0147511Y0131775D01*
X0147606Y0131419D01*
X0147790Y0131100D01*
X0148051Y0130839D01*
X0148370Y0130655D01*
X0148726Y0130560D01*
X0150479Y0130560D01*
X0150479Y0133725D01*
X0151279Y0133725D01*
X0151279Y0134525D01*
X0154248Y0134525D01*
X0154248Y0136475D01*
X0154152Y0136831D01*
X0153968Y0137150D01*
X0153707Y0137411D01*
X0153388Y0137595D01*
X0154175Y0136747D02*
X0154646Y0136747D01*
X0154604Y0135948D02*
X0154248Y0135948D01*
X0154248Y0135150D02*
X0154604Y0135150D01*
X0154604Y0134351D02*
X0151279Y0134351D01*
X0151279Y0133553D02*
X0150479Y0133553D01*
X0150479Y0134351D02*
X0146766Y0134351D01*
X0147511Y0134525D02*
X0150479Y0134525D01*
X0150479Y0137690D01*
X0148726Y0137690D01*
X0148370Y0137595D01*
X0148051Y0137411D01*
X0147790Y0137150D01*
X0147606Y0136831D01*
X0147511Y0136475D01*
X0147511Y0134525D01*
X0147511Y0135150D02*
X0146652Y0135150D01*
X0147511Y0135948D02*
X0139562Y0135948D01*
X0138763Y0135150D02*
X0140549Y0135150D01*
X0140435Y0134351D02*
X0139611Y0134351D01*
X0137976Y0132875D02*
X0143379Y0132875D01*
X0143601Y0132654D01*
X0146766Y0132754D02*
X0147511Y0132754D01*
X0147511Y0131956D02*
X0146766Y0131956D01*
X0146766Y0131157D02*
X0147757Y0131157D01*
X0146766Y0130359D02*
X0151826Y0130359D01*
X0151279Y0131157D02*
X0150479Y0131157D01*
X0150479Y0131956D02*
X0151279Y0131956D01*
X0151279Y0132754D02*
X0150479Y0132754D01*
X0150479Y0135150D02*
X0151279Y0135150D01*
X0151279Y0135948D02*
X0150479Y0135948D01*
X0150479Y0136747D02*
X0151279Y0136747D01*
X0151279Y0137545D02*
X0150479Y0137545D01*
X0148285Y0137545D02*
X0146766Y0137545D01*
X0146549Y0136747D02*
X0147584Y0136747D01*
X0147511Y0133553D02*
X0146766Y0133553D01*
X0140652Y0136747D02*
X0140360Y0136747D01*
X0135835Y0136747D02*
X0123004Y0136747D01*
X0122206Y0135948D02*
X0135036Y0135948D01*
X0134238Y0135150D02*
X0120581Y0135150D01*
X0119576Y0134351D02*
X0133439Y0134351D01*
X0132641Y0133553D02*
X0119576Y0133553D01*
X0120741Y0132754D02*
X0123961Y0132754D01*
X0123560Y0131956D02*
X0121141Y0131956D01*
X0116376Y0133553D02*
X0113926Y0133553D01*
X0113926Y0132754D02*
X0115211Y0132754D01*
X0114810Y0131956D02*
X0113918Y0131956D01*
X0113119Y0131157D02*
X0114810Y0131157D01*
X0113361Y0134351D02*
X0116376Y0134351D01*
X0112870Y0135150D02*
X0103706Y0135150D01*
X0105331Y0135948D02*
X0111245Y0135948D01*
X0110447Y0136747D02*
X0106129Y0136747D01*
X0106674Y0133553D02*
X0079625Y0133553D01*
X0079625Y0132754D02*
X0105875Y0132754D01*
X0105077Y0131956D02*
X0093375Y0131956D01*
X0094173Y0131157D02*
X0104278Y0131157D01*
X0103480Y0130359D02*
X0094972Y0130359D01*
X0095770Y0129560D02*
X0102681Y0129560D01*
X0101883Y0128762D02*
X0096569Y0128762D01*
X0097367Y0127963D02*
X0101084Y0127963D01*
X0100286Y0127165D02*
X0098166Y0127165D01*
X0098964Y0126366D02*
X0099487Y0126366D01*
X0096576Y0124769D02*
X0080025Y0124769D01*
X0080025Y0123971D02*
X0096576Y0123971D01*
X0096576Y0123172D02*
X0075876Y0123172D01*
X0075876Y0123110D02*
X0080025Y0123110D01*
X0080025Y0120766D01*
X0079930Y0120410D01*
X0079746Y0120091D01*
X0079485Y0119831D01*
X0079166Y0119646D01*
X0078810Y0119551D01*
X0075876Y0119551D01*
X0075876Y0123110D01*
X0075876Y0122374D02*
X0075076Y0122374D01*
X0075076Y0123110D02*
X0075076Y0119551D01*
X0072142Y0119551D01*
X0071786Y0119646D01*
X0071466Y0119831D01*
X0071206Y0120091D01*
X0071021Y0120410D01*
X0070926Y0120766D01*
X0070926Y0123110D01*
X0075076Y0123110D01*
X0075076Y0123172D02*
X0068915Y0123172D01*
X0068926Y0122374D02*
X0070926Y0122374D01*
X0070926Y0121575D02*
X0069380Y0121575D01*
X0070179Y0120777D02*
X0070926Y0120777D01*
X0070977Y0119978D02*
X0071319Y0119978D01*
X0071776Y0119180D02*
X0096576Y0119180D01*
X0096576Y0119978D02*
X0079633Y0119978D01*
X0080025Y0120777D02*
X0096576Y0120777D01*
X0096576Y0121575D02*
X0080025Y0121575D01*
X0080025Y0122374D02*
X0096576Y0122374D01*
X0102976Y0121000D02*
X0104019Y0119957D01*
X0104019Y0114637D01*
X0110826Y0111993D02*
X0114765Y0111993D01*
X0113966Y0111195D02*
X0110826Y0111195D01*
X0107464Y0111192D02*
X0102543Y0111192D01*
X0097976Y0106625D01*
X0101101Y0103500D02*
X0101726Y0104125D01*
X0104856Y0107255D01*
X0107464Y0107255D01*
X0107464Y0109223D02*
X0103699Y0109223D01*
X0102351Y0107875D01*
X0101101Y0103500D02*
X0089851Y0103500D01*
X0081726Y0101312D02*
X0081689Y0101349D01*
X0071047Y0101349D01*
X0071047Y0099381D02*
X0064482Y0099381D01*
X0067533Y0103318D02*
X0065476Y0105375D01*
X0067533Y0103318D02*
X0071047Y0103318D01*
X0067684Y0111195D02*
X0056101Y0111195D01*
X0056101Y0111993D02*
X0067684Y0111993D01*
X0071809Y0115187D02*
X0056101Y0115187D01*
X0056101Y0114389D02*
X0072607Y0114389D01*
X0072901Y0113590D02*
X0056101Y0113590D01*
X0056101Y0112792D02*
X0072901Y0112792D01*
X0074339Y0114637D02*
X0066726Y0122250D01*
X0065088Y0120777D02*
X0056101Y0120777D01*
X0056101Y0121575D02*
X0064526Y0121575D01*
X0064526Y0122374D02*
X0056101Y0122374D01*
X0056101Y0123172D02*
X0064537Y0123172D01*
X0065335Y0123971D02*
X0056101Y0123971D01*
X0056101Y0124769D02*
X0070926Y0124769D01*
X0070926Y0123971D02*
X0068116Y0123971D01*
X0070926Y0125568D02*
X0056101Y0125568D01*
X0056101Y0126366D02*
X0070956Y0126366D01*
X0071442Y0127165D02*
X0056101Y0127165D01*
X0056101Y0127963D02*
X0071380Y0127963D01*
X0071326Y0128762D02*
X0056101Y0128762D01*
X0056101Y0129560D02*
X0071326Y0129560D01*
X0071326Y0130359D02*
X0056101Y0130359D01*
X0056101Y0131157D02*
X0071326Y0131157D01*
X0070655Y0131956D02*
X0056101Y0131956D01*
X0056101Y0132754D02*
X0069857Y0132754D01*
X0069058Y0133553D02*
X0056101Y0133553D01*
X0056101Y0134351D02*
X0068260Y0134351D01*
X0068646Y0133965D02*
X0068646Y0133965D01*
X0067826Y0135150D02*
X0056101Y0135150D01*
X0056101Y0135948D02*
X0067826Y0135948D01*
X0065706Y0136747D02*
X0056101Y0136747D01*
X0056101Y0137545D02*
X0065273Y0137545D01*
X0065273Y0138344D02*
X0056101Y0138344D01*
X0056101Y0139142D02*
X0065273Y0139142D01*
X0065273Y0139941D02*
X0056101Y0139941D01*
X0056101Y0140739D02*
X0065273Y0140739D01*
X0065273Y0141538D02*
X0056101Y0141538D01*
X0056101Y0142337D02*
X0065273Y0142337D01*
X0065281Y0143135D02*
X0056101Y0143135D01*
X0056101Y0143934D02*
X0064918Y0143934D01*
X0064873Y0144732D02*
X0056101Y0144732D01*
X0056101Y0145531D02*
X0064873Y0145531D01*
X0064873Y0146329D02*
X0056101Y0146329D01*
X0073178Y0138344D02*
X0077226Y0138344D01*
X0077226Y0139142D02*
X0073723Y0139142D01*
X0074522Y0139941D02*
X0077234Y0139941D01*
X0077565Y0140739D02*
X0075320Y0140739D01*
X0076119Y0141538D02*
X0077982Y0141538D01*
X0078780Y0142337D02*
X0076251Y0142337D01*
X0077550Y0137545D02*
X0073178Y0137545D01*
X0072745Y0136747D02*
X0077947Y0136747D01*
X0078745Y0135948D02*
X0070626Y0135948D01*
X0071421Y0135150D02*
X0080370Y0135150D01*
X0079237Y0134351D02*
X0110091Y0134351D01*
X0110065Y0140739D02*
X0106512Y0140739D01*
X0106095Y0141538D02*
X0110482Y0141538D01*
X0111280Y0142337D02*
X0105296Y0142337D01*
X0103646Y0145125D02*
X0105116Y0145734D01*
X0106242Y0146859D01*
X0106851Y0148329D01*
X0106851Y0149921D01*
X0106242Y0151391D01*
X0105116Y0152516D01*
X0103646Y0153125D01*
X0096055Y0153125D01*
X0094585Y0152516D01*
X0093460Y0151391D01*
X0092851Y0149921D01*
X0092851Y0148329D01*
X0093460Y0146859D01*
X0094585Y0145734D01*
X0096055Y0145125D01*
X0103646Y0145125D01*
X0104625Y0145531D02*
X0111951Y0145531D01*
X0110865Y0146329D02*
X0105712Y0146329D01*
X0106353Y0147128D02*
X0110223Y0147128D01*
X0109893Y0147926D02*
X0106684Y0147926D01*
X0106851Y0148725D02*
X0109726Y0148725D01*
X0109726Y0149523D02*
X0106851Y0149523D01*
X0106685Y0150322D02*
X0109892Y0150322D01*
X0110223Y0151120D02*
X0106354Y0151120D01*
X0105714Y0151919D02*
X0110862Y0151919D01*
X0111945Y0152717D02*
X0104631Y0152717D01*
X0104668Y0155113D02*
X0111908Y0155113D01*
X0110717Y0155911D02*
X0105859Y0155911D01*
X0106535Y0156710D02*
X0110042Y0156710D01*
X0109625Y0157508D02*
X0106952Y0157508D01*
X0107176Y0158307D02*
X0109400Y0158307D01*
X0109394Y0159904D02*
X0107182Y0159904D01*
X0106965Y0160702D02*
X0109612Y0160702D01*
X0110013Y0161501D02*
X0106563Y0161501D01*
X0105899Y0162299D02*
X0110677Y0162299D01*
X0111831Y0163098D02*
X0104745Y0163098D01*
X0100251Y0163098D02*
X0099451Y0163098D01*
X0099451Y0162299D02*
X0100251Y0162299D01*
X0100251Y0161501D02*
X0099451Y0161501D01*
X0099451Y0160702D02*
X0100251Y0160702D01*
X0100251Y0159904D02*
X0099451Y0159904D01*
X0099451Y0157508D02*
X0100251Y0157508D01*
X0100251Y0156710D02*
X0099451Y0156710D01*
X0099451Y0155911D02*
X0100251Y0155911D01*
X0100251Y0155113D02*
X0099451Y0155113D01*
X0095033Y0155113D02*
X0089043Y0155113D01*
X0090234Y0155911D02*
X0093842Y0155911D01*
X0093167Y0156710D02*
X0090910Y0156710D01*
X0091327Y0157508D02*
X0092750Y0157508D01*
X0092525Y0158307D02*
X0091551Y0158307D01*
X0091557Y0159904D02*
X0092519Y0159904D01*
X0092737Y0160702D02*
X0091340Y0160702D01*
X0090938Y0161501D02*
X0093138Y0161501D01*
X0093802Y0162299D02*
X0090274Y0162299D01*
X0089120Y0163098D02*
X0094956Y0163098D01*
X0084626Y0163098D02*
X0083826Y0163098D01*
X0083826Y0162299D02*
X0084626Y0162299D01*
X0084626Y0161501D02*
X0083826Y0161501D01*
X0083826Y0160702D02*
X0084626Y0160702D01*
X0084626Y0159904D02*
X0083826Y0159904D01*
X0083826Y0157508D02*
X0084626Y0157508D01*
X0084626Y0156710D02*
X0083826Y0156710D01*
X0083826Y0155911D02*
X0084626Y0155911D01*
X0084626Y0155113D02*
X0083826Y0155113D01*
X0079445Y0152717D02*
X0076251Y0152717D01*
X0076251Y0151919D02*
X0078362Y0151919D01*
X0077723Y0151120D02*
X0076251Y0151120D01*
X0076251Y0153516D02*
X0126383Y0153516D01*
X0122589Y0151919D02*
X0135400Y0151919D01*
X0134601Y0152717D02*
X0121506Y0152717D01*
X0117126Y0155113D02*
X0116326Y0155113D01*
X0116326Y0155911D02*
X0117126Y0155911D01*
X0117126Y0156710D02*
X0116326Y0156710D01*
X0116326Y0157508D02*
X0117126Y0157508D01*
X0117126Y0159904D02*
X0116326Y0159904D01*
X0116326Y0160702D02*
X0117126Y0160702D01*
X0117126Y0161501D02*
X0116326Y0161501D01*
X0116326Y0162299D02*
X0117126Y0162299D01*
X0117126Y0163098D02*
X0116326Y0163098D01*
X0116651Y0166225D02*
X0112466Y0166225D01*
X0112110Y0166320D01*
X0111791Y0166505D01*
X0111530Y0166765D01*
X0111346Y0167085D01*
X0111251Y0167441D01*
X0111251Y0169625D01*
X0116651Y0169625D01*
X0117451Y0169625D01*
X0117451Y0170425D01*
X0122851Y0170425D01*
X0122851Y0172609D01*
X0122755Y0172965D01*
X0122571Y0173285D01*
X0122310Y0173545D01*
X0121991Y0173730D01*
X0121635Y0173825D01*
X0117451Y0173825D01*
X0117451Y0170425D01*
X0116651Y0170425D01*
X0116651Y0173825D01*
X0112466Y0173825D01*
X0112110Y0173730D01*
X0111791Y0173545D01*
X0111530Y0173285D01*
X0111346Y0172965D01*
X0111251Y0172609D01*
X0111251Y0170425D01*
X0116651Y0170425D01*
X0116651Y0169625D01*
X0116651Y0166225D01*
X0116651Y0166292D02*
X0117451Y0166292D01*
X0117451Y0166225D02*
X0121635Y0166225D01*
X0121991Y0166320D01*
X0122310Y0166505D01*
X0122571Y0166765D01*
X0122755Y0167085D01*
X0122851Y0167441D01*
X0122851Y0169625D01*
X0117451Y0169625D01*
X0117451Y0166225D01*
X0117451Y0167090D02*
X0116651Y0167090D01*
X0116651Y0167889D02*
X0117451Y0167889D01*
X0117451Y0168687D02*
X0116651Y0168687D01*
X0116651Y0169486D02*
X0117451Y0169486D01*
X0117451Y0170284D02*
X0135386Y0170284D01*
X0135386Y0171083D02*
X0122851Y0171083D01*
X0122851Y0171881D02*
X0135386Y0171881D01*
X0134943Y0172680D02*
X0122832Y0172680D01*
X0122377Y0173478D02*
X0134145Y0173478D01*
X0133346Y0174277D02*
X0097981Y0174277D01*
X0097981Y0175075D02*
X0132548Y0175075D01*
X0131749Y0175874D02*
X0122014Y0175874D01*
X0122451Y0176672D02*
X0130951Y0176672D01*
X0130152Y0177471D02*
X0122451Y0177471D01*
X0122451Y0178270D02*
X0129354Y0178270D01*
X0128555Y0179068D02*
X0122451Y0179068D01*
X0122451Y0179867D02*
X0127757Y0179867D01*
X0126958Y0180665D02*
X0122451Y0180665D01*
X0122451Y0181464D02*
X0126160Y0181464D01*
X0125361Y0182262D02*
X0122128Y0182262D01*
X0123764Y0183859D02*
X0097981Y0183859D01*
X0097981Y0183061D02*
X0124563Y0183061D01*
X0122966Y0184658D02*
X0097981Y0184658D01*
X0097981Y0185456D02*
X0111651Y0185456D01*
X0111651Y0186255D02*
X0097981Y0186255D01*
X0097553Y0187053D02*
X0111651Y0187053D01*
X0111651Y0187852D02*
X0083672Y0187852D01*
X0083672Y0188650D02*
X0111651Y0188650D01*
X0111651Y0189449D02*
X0083672Y0189449D01*
X0083672Y0190136D02*
X0083672Y0187005D01*
X0077751Y0187005D01*
X0077751Y0186205D01*
X0083672Y0186205D01*
X0083672Y0183075D01*
X0083577Y0182718D01*
X0083392Y0182399D01*
X0083132Y0182139D01*
X0082812Y0181954D01*
X0082456Y0181859D01*
X0077751Y0181859D01*
X0077751Y0186205D01*
X0076951Y0186205D01*
X0076951Y0181859D01*
X0072245Y0181859D01*
X0071889Y0181954D01*
X0071570Y0182139D01*
X0071309Y0182399D01*
X0071125Y0182718D01*
X0071029Y0183075D01*
X0071029Y0186205D01*
X0076951Y0186205D01*
X0076951Y0187005D01*
X0071029Y0187005D01*
X0071029Y0190136D01*
X0071125Y0190492D01*
X0071309Y0190811D01*
X0071570Y0191072D01*
X0071889Y0191256D01*
X0072245Y0191352D01*
X0076951Y0191352D01*
X0076951Y0187005D01*
X0077751Y0187005D01*
X0077751Y0191352D01*
X0082456Y0191352D01*
X0082812Y0191256D01*
X0083132Y0191072D01*
X0083392Y0190811D01*
X0083577Y0190492D01*
X0083672Y0190136D01*
X0083642Y0190247D02*
X0111651Y0190247D01*
X0111657Y0191046D02*
X0083158Y0191046D01*
X0077751Y0191046D02*
X0076951Y0191046D01*
X0076951Y0190247D02*
X0077751Y0190247D01*
X0077751Y0189449D02*
X0076951Y0189449D01*
X0076951Y0188650D02*
X0077751Y0188650D01*
X0077751Y0187852D02*
X0076951Y0187852D01*
X0076951Y0187053D02*
X0077751Y0187053D01*
X0077751Y0186255D02*
X0087319Y0186255D01*
X0087319Y0185456D02*
X0083672Y0185456D01*
X0083672Y0184658D02*
X0087319Y0184658D01*
X0087319Y0183859D02*
X0083672Y0183859D01*
X0083668Y0183061D02*
X0087319Y0183061D01*
X0087319Y0182262D02*
X0083255Y0182262D01*
X0087319Y0181464D02*
X0056101Y0181464D01*
X0056101Y0182262D02*
X0071446Y0182262D01*
X0071033Y0183061D02*
X0056101Y0183061D01*
X0056101Y0183859D02*
X0071029Y0183859D01*
X0071029Y0184658D02*
X0056101Y0184658D01*
X0056101Y0185456D02*
X0071029Y0185456D01*
X0071029Y0187053D02*
X0056101Y0187053D01*
X0056101Y0186255D02*
X0076951Y0186255D01*
X0076951Y0185456D02*
X0077751Y0185456D01*
X0077751Y0184658D02*
X0076951Y0184658D01*
X0076951Y0183859D02*
X0077751Y0183859D01*
X0077751Y0183061D02*
X0076951Y0183061D01*
X0076951Y0182262D02*
X0077751Y0182262D01*
X0069679Y0180665D02*
X0087319Y0180665D01*
X0087319Y0179867D02*
X0069828Y0179867D01*
X0069828Y0179068D02*
X0087319Y0179068D01*
X0087319Y0178270D02*
X0069828Y0178270D01*
X0069828Y0176672D02*
X0087319Y0176672D01*
X0087319Y0175874D02*
X0082803Y0175874D01*
X0083272Y0175075D02*
X0086620Y0175075D01*
X0085822Y0174277D02*
X0083272Y0174277D01*
X0083272Y0173478D02*
X0085023Y0173478D01*
X0085170Y0171645D02*
X0092650Y0179125D01*
X0117051Y0179125D01*
X0111974Y0182262D02*
X0097981Y0182262D01*
X0097981Y0181464D02*
X0111651Y0181464D01*
X0111651Y0180665D02*
X0097981Y0180665D01*
X0097981Y0177471D02*
X0111651Y0177471D01*
X0111651Y0176672D02*
X0097981Y0176672D01*
X0097981Y0175874D02*
X0112087Y0175874D01*
X0111724Y0173478D02*
X0097981Y0173478D01*
X0097981Y0172680D02*
X0111270Y0172680D01*
X0111251Y0171881D02*
X0097981Y0171881D01*
X0097439Y0171083D02*
X0111251Y0171083D01*
X0111251Y0169486D02*
X0083272Y0169486D01*
X0083272Y0168687D02*
X0111251Y0168687D01*
X0111251Y0167889D02*
X0083272Y0167889D01*
X0085789Y0170284D02*
X0116651Y0170284D01*
X0116651Y0171083D02*
X0117451Y0171083D01*
X0117451Y0171881D02*
X0116651Y0171881D01*
X0116651Y0172680D02*
X0117451Y0172680D01*
X0117451Y0173478D02*
X0116651Y0173478D01*
X0122851Y0169486D02*
X0135109Y0169486D01*
X0134311Y0168687D02*
X0122851Y0168687D01*
X0122851Y0167889D02*
X0133512Y0167889D01*
X0132714Y0167090D02*
X0122757Y0167090D01*
X0121884Y0166292D02*
X0131915Y0166292D01*
X0131117Y0165493D02*
X0067279Y0165493D01*
X0067279Y0164695D02*
X0130318Y0164695D01*
X0130126Y0163896D02*
X0067279Y0163896D01*
X0067279Y0166292D02*
X0112217Y0166292D01*
X0111345Y0167090D02*
X0067279Y0167090D01*
X0069428Y0167889D02*
X0071429Y0167889D01*
X0071429Y0168687D02*
X0069428Y0168687D01*
X0065879Y0170375D02*
X0065476Y0170779D01*
X0076485Y0170779D01*
X0077351Y0171645D01*
X0085170Y0171645D01*
X0086588Y0171083D02*
X0087860Y0171083D01*
X0087319Y0177471D02*
X0065876Y0177471D01*
X0065876Y0178270D02*
X0065076Y0178270D01*
X0065076Y0177871D02*
X0065076Y0181430D01*
X0062339Y0181430D01*
X0061983Y0181335D01*
X0061663Y0181151D01*
X0061403Y0180890D01*
X0061218Y0180571D01*
X0061123Y0180215D01*
X0061123Y0177871D01*
X0065076Y0177871D01*
X0065076Y0177471D02*
X0056101Y0177471D01*
X0056101Y0178270D02*
X0061123Y0178270D01*
X0061123Y0179068D02*
X0056101Y0179068D01*
X0056101Y0179867D02*
X0061123Y0179867D01*
X0061273Y0180665D02*
X0056101Y0180665D01*
X0056101Y0176672D02*
X0061123Y0176672D01*
X0061123Y0175874D02*
X0056101Y0175874D01*
X0056101Y0175075D02*
X0061123Y0175075D01*
X0061273Y0174277D02*
X0056101Y0174277D01*
X0056101Y0173478D02*
X0061523Y0173478D01*
X0061523Y0172680D02*
X0056101Y0172680D01*
X0056101Y0171881D02*
X0061523Y0171881D01*
X0061523Y0171083D02*
X0056101Y0171083D01*
X0056101Y0170284D02*
X0061523Y0170284D01*
X0061523Y0169486D02*
X0056101Y0169486D01*
X0056101Y0168687D02*
X0061523Y0168687D01*
X0061523Y0167889D02*
X0056101Y0167889D01*
X0056101Y0167090D02*
X0064479Y0167090D01*
X0064479Y0166292D02*
X0056101Y0166292D01*
X0056101Y0165493D02*
X0064479Y0165493D01*
X0064479Y0164695D02*
X0056101Y0164695D01*
X0056101Y0163896D02*
X0064479Y0163896D01*
X0064479Y0163098D02*
X0056101Y0163098D01*
X0056101Y0162299D02*
X0062911Y0162299D01*
X0062911Y0161501D02*
X0056101Y0161501D01*
X0056101Y0160702D02*
X0062911Y0160702D01*
X0062911Y0159904D02*
X0056101Y0159904D01*
X0056101Y0159105D02*
X0062911Y0159105D01*
X0062911Y0158307D02*
X0056101Y0158307D01*
X0056101Y0157508D02*
X0062911Y0157508D01*
X0063371Y0156710D02*
X0056101Y0156710D01*
X0065879Y0159750D02*
X0065879Y0170375D01*
X0069428Y0172680D02*
X0071429Y0172680D01*
X0071429Y0173478D02*
X0069428Y0173478D01*
X0069678Y0174277D02*
X0071429Y0174277D01*
X0071429Y0175075D02*
X0069828Y0175075D01*
X0069828Y0175874D02*
X0071898Y0175874D01*
X0065876Y0179068D02*
X0065076Y0179068D01*
X0065076Y0179867D02*
X0065876Y0179867D01*
X0065876Y0180665D02*
X0065076Y0180665D01*
X0071029Y0187852D02*
X0056101Y0187852D01*
X0056101Y0188650D02*
X0071029Y0188650D01*
X0071029Y0189449D02*
X0056101Y0189449D01*
X0056101Y0190247D02*
X0071059Y0190247D01*
X0071543Y0191046D02*
X0056101Y0191046D01*
X0056101Y0191844D02*
X0178601Y0191844D01*
X0178601Y0191046D02*
X0122444Y0191046D01*
X0122451Y0190247D02*
X0174932Y0190247D01*
X0174426Y0189449D02*
X0122700Y0189449D01*
X0123499Y0188650D02*
X0174388Y0188650D01*
X0174388Y0187852D02*
X0124297Y0187852D01*
X0125096Y0187053D02*
X0174388Y0187053D01*
X0174388Y0186255D02*
X0125894Y0186255D01*
X0126693Y0185456D02*
X0174388Y0185456D01*
X0174388Y0184658D02*
X0127491Y0184658D01*
X0128290Y0183859D02*
X0174410Y0183859D01*
X0174873Y0183061D02*
X0164026Y0183061D01*
X0164825Y0182262D02*
X0178601Y0182262D01*
X0178601Y0181464D02*
X0165176Y0181464D01*
X0165176Y0180665D02*
X0178601Y0180665D01*
X0178601Y0179867D02*
X0164953Y0179867D01*
X0164155Y0179068D02*
X0178601Y0179068D01*
X0178601Y0178270D02*
X0151883Y0178270D01*
X0152681Y0179068D02*
X0161796Y0179068D01*
X0161925Y0183061D02*
X0129088Y0183061D01*
X0129887Y0182262D02*
X0151350Y0182262D01*
X0150552Y0181464D02*
X0130685Y0181464D01*
X0131484Y0180665D02*
X0149753Y0180665D01*
X0148954Y0179867D02*
X0132282Y0179867D01*
X0133081Y0179068D02*
X0148156Y0179068D01*
X0147357Y0178270D02*
X0133879Y0178270D01*
X0134678Y0177471D02*
X0146559Y0177471D01*
X0145760Y0176672D02*
X0135476Y0176672D01*
X0136275Y0175874D02*
X0144962Y0175874D01*
X0144163Y0175075D02*
X0137073Y0175075D01*
X0142386Y0174277D02*
X0143365Y0174277D01*
X0142566Y0173478D02*
X0142386Y0173478D01*
X0144696Y0171083D02*
X0155415Y0171083D01*
X0155415Y0171400D02*
X0155415Y0170600D01*
X0151915Y0170600D01*
X0151915Y0167922D01*
X0152011Y0167566D01*
X0152195Y0167247D01*
X0152456Y0166986D01*
X0152775Y0166802D01*
X0153131Y0166706D01*
X0155415Y0166706D01*
X0155415Y0170600D01*
X0156215Y0170600D01*
X0156215Y0166706D01*
X0158500Y0166706D01*
X0158856Y0166802D01*
X0159175Y0166986D01*
X0159436Y0167247D01*
X0159620Y0167566D01*
X0159715Y0167922D01*
X0159715Y0170600D01*
X0156215Y0170600D01*
X0156215Y0171400D01*
X0155415Y0171400D01*
X0151915Y0171400D01*
X0151915Y0174078D01*
X0152011Y0174434D01*
X0152195Y0174753D01*
X0152456Y0175014D01*
X0152775Y0175198D01*
X0153131Y0175294D01*
X0155415Y0175294D01*
X0155415Y0171400D01*
X0155415Y0171881D02*
X0156215Y0171881D01*
X0156215Y0171400D02*
X0156215Y0175294D01*
X0158500Y0175294D01*
X0158856Y0175198D01*
X0159175Y0175014D01*
X0159436Y0174753D01*
X0159620Y0174434D01*
X0159715Y0174078D01*
X0159715Y0171400D01*
X0156215Y0171400D01*
X0156215Y0171083D02*
X0178601Y0171083D01*
X0178601Y0171881D02*
X0159715Y0171881D01*
X0159715Y0172680D02*
X0178601Y0172680D01*
X0178601Y0173478D02*
X0159715Y0173478D01*
X0159662Y0174277D02*
X0178601Y0174277D01*
X0178601Y0175075D02*
X0159068Y0175075D01*
X0156215Y0175075D02*
X0155415Y0175075D01*
X0155415Y0174277D02*
X0156215Y0174277D01*
X0156215Y0173478D02*
X0155415Y0173478D01*
X0155415Y0172680D02*
X0156215Y0172680D01*
X0151915Y0172680D02*
X0146293Y0172680D01*
X0145495Y0171881D02*
X0151915Y0171881D01*
X0151915Y0170284D02*
X0143898Y0170284D01*
X0143099Y0169486D02*
X0151915Y0169486D01*
X0151915Y0168687D02*
X0142386Y0168687D01*
X0142386Y0167889D02*
X0151924Y0167889D01*
X0152351Y0167090D02*
X0137239Y0167090D01*
X0136441Y0166292D02*
X0178601Y0166292D01*
X0178601Y0167090D02*
X0159279Y0167090D01*
X0159706Y0167889D02*
X0178601Y0167889D01*
X0178601Y0168687D02*
X0159715Y0168687D01*
X0159715Y0169486D02*
X0178601Y0169486D01*
X0178601Y0170284D02*
X0159715Y0170284D01*
X0156215Y0170284D02*
X0155415Y0170284D01*
X0155415Y0169486D02*
X0156215Y0169486D01*
X0156215Y0168687D02*
X0155415Y0168687D01*
X0155415Y0167889D02*
X0156215Y0167889D01*
X0156215Y0167090D02*
X0155415Y0167090D01*
X0151915Y0173478D02*
X0147092Y0173478D01*
X0147890Y0174277D02*
X0151969Y0174277D01*
X0152562Y0175075D02*
X0148689Y0175075D01*
X0149487Y0175874D02*
X0178601Y0175874D01*
X0178601Y0176672D02*
X0150286Y0176672D01*
X0151084Y0177471D02*
X0178601Y0177471D01*
X0180476Y0177471D02*
X0247976Y0177471D01*
X0247976Y0178270D02*
X0180476Y0178270D01*
X0180476Y0179068D02*
X0247976Y0179068D01*
X0247976Y0179867D02*
X0180476Y0179867D01*
X0180476Y0180665D02*
X0247976Y0180665D01*
X0247976Y0181464D02*
X0180476Y0181464D01*
X0180476Y0182262D02*
X0247976Y0182262D01*
X0247976Y0183061D02*
X0184204Y0183061D01*
X0184148Y0183005D02*
X0184408Y0183265D01*
X0184593Y0183585D01*
X0184688Y0183941D01*
X0184688Y0186400D01*
X0183838Y0186400D01*
X0183838Y0186850D01*
X0184688Y0186850D01*
X0184688Y0189309D01*
X0184593Y0189665D01*
X0184408Y0189985D01*
X0184148Y0190245D01*
X0183829Y0190430D01*
X0183472Y0190525D01*
X0182263Y0190525D01*
X0182263Y0188425D01*
X0181813Y0188425D01*
X0181813Y0190525D01*
X0180604Y0190525D01*
X0180476Y0190491D01*
X0180476Y0193500D01*
X0247976Y0193500D01*
X0247976Y0153600D01*
X0234851Y0153600D01*
X0234851Y0154750D01*
X0223012Y0154750D01*
X0223264Y0155003D01*
X0223449Y0155322D01*
X0223544Y0155678D01*
X0223544Y0158612D01*
X0219001Y0158612D01*
X0219001Y0159412D01*
X0223544Y0159412D01*
X0223544Y0162346D01*
X0223449Y0162702D01*
X0223264Y0163021D01*
X0223004Y0163282D01*
X0222684Y0163466D01*
X0222328Y0163561D01*
X0219001Y0163561D01*
X0219001Y0159412D01*
X0218201Y0159412D01*
X0218201Y0163561D01*
X0214873Y0163561D01*
X0214517Y0163466D01*
X0214226Y0163298D01*
X0213934Y0163466D01*
X0213578Y0163561D01*
X0210251Y0163561D01*
X0210251Y0159412D01*
X0214794Y0159412D01*
X0218201Y0159412D01*
X0218201Y0158612D01*
X0210251Y0158612D01*
X0210251Y0159412D01*
X0209451Y0159412D01*
X0209451Y0163561D01*
X0206123Y0163561D01*
X0205767Y0163466D01*
X0205476Y0163298D01*
X0205184Y0163466D01*
X0204828Y0163561D01*
X0201501Y0163561D01*
X0201501Y0159412D01*
X0206044Y0159412D01*
X0209451Y0159412D01*
X0209451Y0158612D01*
X0201501Y0158612D01*
X0201501Y0159412D01*
X0200701Y0159412D01*
X0200701Y0163561D01*
X0197373Y0163561D01*
X0197017Y0163466D01*
X0196698Y0163282D01*
X0196437Y0163021D01*
X0196253Y0162702D01*
X0196157Y0162346D01*
X0196157Y0159412D01*
X0200701Y0159412D01*
X0200701Y0158612D01*
X0196157Y0158612D01*
X0196157Y0155678D01*
X0196253Y0155322D01*
X0196437Y0155003D01*
X0196690Y0154750D01*
X0194851Y0154750D01*
X0194851Y0162875D01*
X0180476Y0162875D01*
X0180476Y0182759D01*
X0180604Y0182725D01*
X0181813Y0182725D01*
X0181813Y0184825D01*
X0182263Y0184825D01*
X0182263Y0182725D01*
X0183472Y0182725D01*
X0183829Y0182820D01*
X0184148Y0183005D01*
X0184666Y0183859D02*
X0247976Y0183859D01*
X0247976Y0184658D02*
X0184688Y0184658D01*
X0184688Y0185456D02*
X0247976Y0185456D01*
X0247976Y0186255D02*
X0184688Y0186255D01*
X0184688Y0187053D02*
X0247976Y0187053D01*
X0247976Y0187852D02*
X0184688Y0187852D01*
X0184688Y0188650D02*
X0247976Y0188650D01*
X0247976Y0189449D02*
X0184651Y0189449D01*
X0184144Y0190247D02*
X0247976Y0190247D01*
X0247976Y0191046D02*
X0180476Y0191046D01*
X0180476Y0191844D02*
X0247976Y0191844D01*
X0247976Y0192643D02*
X0180476Y0192643D01*
X0180476Y0193441D02*
X0247976Y0193441D01*
X0247976Y0176672D02*
X0180476Y0176672D01*
X0180476Y0175874D02*
X0247976Y0175874D01*
X0247976Y0175075D02*
X0180476Y0175075D01*
X0180476Y0174277D02*
X0247976Y0174277D01*
X0247976Y0173478D02*
X0180476Y0173478D01*
X0180476Y0172680D02*
X0247976Y0172680D01*
X0247976Y0171881D02*
X0180476Y0171881D01*
X0180476Y0171083D02*
X0247976Y0171083D01*
X0247976Y0170284D02*
X0180476Y0170284D01*
X0180476Y0169486D02*
X0247976Y0169486D01*
X0247976Y0168687D02*
X0180476Y0168687D01*
X0180476Y0167889D02*
X0247976Y0167889D01*
X0247976Y0167090D02*
X0180476Y0167090D01*
X0180476Y0166292D02*
X0247976Y0166292D01*
X0247976Y0165493D02*
X0180476Y0165493D01*
X0180476Y0164695D02*
X0247976Y0164695D01*
X0247976Y0163896D02*
X0180476Y0163896D01*
X0180476Y0163098D02*
X0196514Y0163098D01*
X0196157Y0162299D02*
X0194851Y0162299D01*
X0194851Y0161501D02*
X0196157Y0161501D01*
X0196157Y0160702D02*
X0194851Y0160702D01*
X0194851Y0159904D02*
X0196157Y0159904D01*
X0194851Y0159105D02*
X0200701Y0159105D01*
X0200701Y0159904D02*
X0201501Y0159904D01*
X0201501Y0160702D02*
X0200701Y0160702D01*
X0200701Y0161501D02*
X0201501Y0161501D01*
X0201501Y0162299D02*
X0200701Y0162299D01*
X0200701Y0163098D02*
X0201501Y0163098D01*
X0201501Y0159105D02*
X0209451Y0159105D01*
X0209451Y0159904D02*
X0210251Y0159904D01*
X0210251Y0160702D02*
X0209451Y0160702D01*
X0209451Y0161501D02*
X0210251Y0161501D01*
X0210251Y0162299D02*
X0209451Y0162299D01*
X0209451Y0163098D02*
X0210251Y0163098D01*
X0210251Y0159105D02*
X0218201Y0159105D01*
X0218201Y0159904D02*
X0219001Y0159904D01*
X0219001Y0160702D02*
X0218201Y0160702D01*
X0218201Y0161501D02*
X0219001Y0161501D01*
X0219001Y0162299D02*
X0218201Y0162299D01*
X0218201Y0163098D02*
X0219001Y0163098D01*
X0223187Y0163098D02*
X0247976Y0163098D01*
X0247976Y0162299D02*
X0223544Y0162299D01*
X0223544Y0161501D02*
X0247976Y0161501D01*
X0247976Y0160702D02*
X0223544Y0160702D01*
X0223544Y0159904D02*
X0247976Y0159904D01*
X0247976Y0159105D02*
X0219001Y0159105D01*
X0223544Y0158307D02*
X0247976Y0158307D01*
X0247976Y0157508D02*
X0223544Y0157508D01*
X0223544Y0156710D02*
X0247976Y0156710D01*
X0247976Y0155911D02*
X0223544Y0155911D01*
X0223328Y0155113D02*
X0247976Y0155113D01*
X0247976Y0154314D02*
X0234851Y0154314D01*
X0232976Y0152875D02*
X0232976Y0133500D01*
X0196101Y0133500D01*
X0196101Y0146625D01*
X0184851Y0146625D01*
X0184851Y0145415D01*
X0181439Y0145415D01*
X0180854Y0144830D01*
X0180854Y0139670D01*
X0181439Y0139085D01*
X0184851Y0139085D01*
X0184851Y0137575D01*
X0183939Y0137575D01*
X0182651Y0136286D01*
X0182651Y0134464D01*
X0183939Y0133175D01*
X0184076Y0133175D01*
X0184076Y0123636D01*
X0183887Y0123825D01*
X0182064Y0123825D01*
X0180776Y0122536D01*
X0180776Y0120714D01*
X0181014Y0120476D01*
X0180514Y0120476D01*
X0180514Y0121044D01*
X0173327Y0121044D01*
X0173327Y0121044D01*
X0167395Y0121044D01*
X0165476Y0119125D01*
X0165476Y0117250D01*
X0164076Y0118961D02*
X0163276Y0118161D01*
X0163276Y0116339D01*
X0163464Y0116150D01*
X0162187Y0116150D01*
X0161387Y0116950D01*
X0159564Y0116950D01*
X0158276Y0115661D01*
X0158276Y0114275D01*
X0157126Y0114275D01*
X0157126Y0105712D01*
X0156326Y0105712D01*
X0156326Y0114275D01*
X0149435Y0114275D01*
X0149376Y0114259D01*
X0149376Y0116164D01*
X0150176Y0116964D01*
X0150176Y0118786D01*
X0148887Y0120075D01*
X0147085Y0120075D01*
X0147109Y0120099D01*
X0147109Y0121613D01*
X0156818Y0121613D01*
X0157638Y0122433D01*
X0161206Y0126000D01*
X0163496Y0126000D01*
X0163646Y0125850D01*
X0165914Y0123581D01*
X0166540Y0123581D01*
X0166540Y0122169D01*
X0164896Y0120525D01*
X0164076Y0119705D01*
X0164076Y0118961D01*
X0164076Y0119180D02*
X0149782Y0119180D01*
X0150176Y0118381D02*
X0163496Y0118381D01*
X0163276Y0117583D02*
X0150176Y0117583D01*
X0149996Y0116784D02*
X0159399Y0116784D01*
X0158600Y0115986D02*
X0149376Y0115986D01*
X0149376Y0115187D02*
X0158276Y0115187D01*
X0158276Y0114389D02*
X0149376Y0114389D01*
X0147976Y0117875D02*
X0147976Y0108500D01*
X0146740Y0107265D01*
X0140321Y0107265D01*
X0140321Y0109233D02*
X0133709Y0109233D01*
X0132351Y0107875D01*
X0130476Y0110375D02*
X0131302Y0111202D01*
X0140321Y0111202D01*
X0140321Y0113170D02*
X0127646Y0113170D01*
X0127351Y0112875D01*
X0133025Y0119076D02*
X0140321Y0119076D01*
X0140321Y0121044D02*
X0134181Y0121044D01*
X0132976Y0122250D01*
X0132976Y0127875D01*
X0137976Y0132875D01*
X0131842Y0132754D02*
X0129491Y0132754D01*
X0129891Y0131956D02*
X0131044Y0131956D01*
X0129226Y0126625D02*
X0131101Y0124750D01*
X0131101Y0121000D01*
X0133025Y0119076D01*
X0140321Y0123013D02*
X0156238Y0123013D01*
X0161101Y0127875D01*
X0161101Y0139971D01*
X0157572Y0143500D01*
X0157572Y0144750D01*
X0150072Y0152250D01*
X0147104Y0151919D02*
X0146348Y0151919D01*
X0146348Y0152717D02*
X0147104Y0152717D01*
X0147104Y0153516D02*
X0146348Y0153516D01*
X0146348Y0154314D02*
X0147104Y0154314D01*
X0147387Y0155113D02*
X0146065Y0155113D01*
X0140694Y0155113D02*
X0137647Y0155113D01*
X0137647Y0155911D02*
X0170414Y0155911D01*
X0170414Y0155113D02*
X0152758Y0155113D01*
X0153041Y0154314D02*
X0170414Y0154314D01*
X0170414Y0153516D02*
X0153041Y0153516D01*
X0153041Y0152717D02*
X0170414Y0152717D01*
X0170414Y0151850D02*
X0170414Y0148522D01*
X0170510Y0148166D01*
X0170694Y0147847D01*
X0170955Y0147586D01*
X0171274Y0147402D01*
X0171630Y0147307D01*
X0174564Y0147307D01*
X0174564Y0151850D01*
X0170414Y0151850D01*
X0170414Y0151120D02*
X0153182Y0151120D01*
X0153041Y0151919D02*
X0174564Y0151919D01*
X0174564Y0152717D02*
X0175364Y0152717D01*
X0175364Y0153516D02*
X0174564Y0153516D01*
X0174564Y0154314D02*
X0175364Y0154314D01*
X0175364Y0155113D02*
X0174564Y0155113D01*
X0174564Y0155911D02*
X0175364Y0155911D01*
X0175364Y0156710D02*
X0174564Y0156710D01*
X0170751Y0156710D02*
X0137647Y0156710D01*
X0137647Y0157508D02*
X0178601Y0157508D01*
X0178601Y0158307D02*
X0137647Y0158307D01*
X0137647Y0159105D02*
X0178601Y0159105D01*
X0178601Y0159904D02*
X0137647Y0159904D01*
X0137647Y0160702D02*
X0178601Y0160702D01*
X0178601Y0161501D02*
X0137647Y0161501D01*
X0134045Y0163896D02*
X0178601Y0163896D01*
X0178601Y0163098D02*
X0133326Y0163098D01*
X0133326Y0162299D02*
X0178601Y0162299D01*
X0180476Y0161000D02*
X0192976Y0161000D01*
X0192976Y0152875D01*
X0232976Y0152875D01*
X0232976Y0152717D02*
X0190537Y0152717D01*
X0190537Y0152650D02*
X0190537Y0155978D01*
X0190442Y0156334D01*
X0190257Y0156653D01*
X0189997Y0156914D01*
X0189677Y0157098D01*
X0189321Y0157193D01*
X0186387Y0157193D01*
X0186387Y0152650D01*
X0185587Y0152650D01*
X0185587Y0151850D01*
X0181438Y0151850D01*
X0181438Y0148522D01*
X0181533Y0148166D01*
X0181718Y0147847D01*
X0181978Y0147586D01*
X0182297Y0147402D01*
X0182654Y0147307D01*
X0185587Y0147307D01*
X0185587Y0151850D01*
X0186387Y0151850D01*
X0186387Y0147307D01*
X0189321Y0147307D01*
X0189677Y0147402D01*
X0189997Y0147586D01*
X0190257Y0147847D01*
X0190442Y0148166D01*
X0190537Y0148522D01*
X0190537Y0151850D01*
X0186388Y0151850D01*
X0186388Y0152650D01*
X0190537Y0152650D01*
X0190537Y0153516D02*
X0192976Y0153516D01*
X0192976Y0154314D02*
X0190537Y0154314D01*
X0190537Y0155113D02*
X0192976Y0155113D01*
X0192976Y0155911D02*
X0190537Y0155911D01*
X0190201Y0156710D02*
X0192976Y0156710D01*
X0192976Y0157508D02*
X0180476Y0157508D01*
X0180476Y0156710D02*
X0181774Y0156710D01*
X0181718Y0156653D02*
X0181533Y0156334D01*
X0181438Y0155978D01*
X0181438Y0152650D01*
X0185587Y0152650D01*
X0185587Y0157193D01*
X0182654Y0157193D01*
X0182297Y0157098D01*
X0181978Y0156914D01*
X0181718Y0156653D01*
X0181438Y0155911D02*
X0180476Y0155911D01*
X0180476Y0155113D02*
X0181438Y0155113D01*
X0181438Y0154314D02*
X0180476Y0154314D01*
X0180476Y0153516D02*
X0181438Y0153516D01*
X0181438Y0152717D02*
X0180476Y0152717D01*
X0180476Y0151919D02*
X0185587Y0151919D01*
X0185587Y0152717D02*
X0186387Y0152717D01*
X0186388Y0151919D02*
X0196392Y0151919D01*
X0196437Y0151997D02*
X0196253Y0151678D01*
X0196157Y0151322D01*
X0196157Y0148388D01*
X0200701Y0148388D01*
X0200701Y0152538D01*
X0197373Y0152538D01*
X0197017Y0152442D01*
X0196698Y0152258D01*
X0196437Y0151997D01*
X0196157Y0151120D02*
X0190537Y0151120D01*
X0190537Y0150322D02*
X0196157Y0150322D01*
X0196157Y0149523D02*
X0190537Y0149523D01*
X0190537Y0148725D02*
X0196157Y0148725D01*
X0196157Y0147588D02*
X0196157Y0144654D01*
X0196253Y0144298D01*
X0196437Y0143979D01*
X0196698Y0143718D01*
X0197017Y0143534D01*
X0197373Y0143439D01*
X0200701Y0143439D01*
X0200701Y0147588D01*
X0201501Y0147588D01*
X0201501Y0148388D01*
X0204907Y0148388D01*
X0209451Y0148388D01*
X0209451Y0152538D01*
X0206123Y0152538D01*
X0205767Y0152442D01*
X0205476Y0152274D01*
X0205184Y0152442D01*
X0204828Y0152538D01*
X0201501Y0152538D01*
X0201501Y0148388D01*
X0200701Y0148388D01*
X0200701Y0147588D01*
X0196157Y0147588D01*
X0196157Y0147128D02*
X0180476Y0147128D01*
X0180476Y0147926D02*
X0181672Y0147926D01*
X0181438Y0148725D02*
X0180476Y0148725D01*
X0180476Y0149523D02*
X0181438Y0149523D01*
X0181438Y0150322D02*
X0180476Y0150322D01*
X0180476Y0151120D02*
X0181438Y0151120D01*
X0185587Y0151120D02*
X0186387Y0151120D01*
X0186387Y0150322D02*
X0185587Y0150322D01*
X0185587Y0149523D02*
X0186387Y0149523D01*
X0186387Y0148725D02*
X0185587Y0148725D01*
X0185587Y0147926D02*
X0186387Y0147926D01*
X0184851Y0146329D02*
X0180476Y0146329D01*
X0180476Y0145531D02*
X0184851Y0145531D01*
X0180854Y0144732D02*
X0180476Y0144732D01*
X0180476Y0143934D02*
X0180854Y0143934D01*
X0180854Y0143135D02*
X0180476Y0143135D01*
X0180476Y0142337D02*
X0180854Y0142337D01*
X0180854Y0141538D02*
X0180476Y0141538D01*
X0180476Y0140739D02*
X0180854Y0140739D01*
X0180854Y0139941D02*
X0180476Y0139941D01*
X0180476Y0139142D02*
X0181382Y0139142D01*
X0180476Y0138344D02*
X0184851Y0138344D01*
X0183910Y0137545D02*
X0180476Y0137545D01*
X0180476Y0136747D02*
X0183111Y0136747D01*
X0182651Y0135948D02*
X0180476Y0135948D01*
X0180476Y0135150D02*
X0182651Y0135150D01*
X0182763Y0134351D02*
X0180476Y0134351D01*
X0180476Y0133553D02*
X0183562Y0133553D01*
X0184076Y0132754D02*
X0180476Y0132754D01*
X0180476Y0131956D02*
X0184076Y0131956D01*
X0184076Y0131157D02*
X0180476Y0131157D01*
X0180476Y0130359D02*
X0184076Y0130359D01*
X0184076Y0129560D02*
X0180476Y0129560D01*
X0180476Y0128762D02*
X0184076Y0128762D01*
X0184076Y0127963D02*
X0180476Y0127963D01*
X0180476Y0127165D02*
X0184076Y0127165D01*
X0184076Y0126366D02*
X0180476Y0126366D01*
X0180476Y0125568D02*
X0184076Y0125568D01*
X0184076Y0124769D02*
X0180114Y0124769D01*
X0180114Y0124524D02*
X0180114Y0125375D01*
X0180476Y0125375D01*
X0180476Y0161000D01*
X0180476Y0160702D02*
X0192976Y0160702D01*
X0192976Y0159904D02*
X0180476Y0159904D01*
X0180476Y0159105D02*
X0192976Y0159105D01*
X0192976Y0158307D02*
X0180476Y0158307D01*
X0185587Y0156710D02*
X0186387Y0156710D01*
X0186387Y0155911D02*
X0185587Y0155911D01*
X0185587Y0155113D02*
X0186387Y0155113D01*
X0186387Y0154314D02*
X0185587Y0154314D01*
X0185587Y0153516D02*
X0186387Y0153516D01*
X0194851Y0155113D02*
X0196374Y0155113D01*
X0196157Y0155911D02*
X0194851Y0155911D01*
X0194851Y0156710D02*
X0196157Y0156710D01*
X0196157Y0157508D02*
X0194851Y0157508D01*
X0194851Y0158307D02*
X0196157Y0158307D01*
X0200701Y0151919D02*
X0201501Y0151919D01*
X0201501Y0151120D02*
X0200701Y0151120D01*
X0200701Y0150322D02*
X0201501Y0150322D01*
X0201501Y0149523D02*
X0200701Y0149523D01*
X0200701Y0148725D02*
X0201501Y0148725D01*
X0201501Y0147926D02*
X0209451Y0147926D01*
X0209451Y0147588D02*
X0201501Y0147588D01*
X0201501Y0143439D01*
X0204828Y0143439D01*
X0205184Y0143534D01*
X0205476Y0143702D01*
X0205767Y0143534D01*
X0206123Y0143439D01*
X0209451Y0143439D01*
X0209451Y0147588D01*
X0210251Y0147588D01*
X0210251Y0148388D01*
X0214794Y0148388D01*
X0218201Y0148388D01*
X0218201Y0152538D01*
X0214873Y0152538D01*
X0214517Y0152442D01*
X0214226Y0152274D01*
X0213934Y0152442D01*
X0213578Y0152538D01*
X0210251Y0152538D01*
X0210251Y0148388D01*
X0209451Y0148388D01*
X0209451Y0147588D01*
X0209451Y0147128D02*
X0210251Y0147128D01*
X0210251Y0147588D02*
X0210251Y0143439D01*
X0213578Y0143439D01*
X0213934Y0143534D01*
X0214226Y0143702D01*
X0214517Y0143534D01*
X0214873Y0143439D01*
X0218201Y0143439D01*
X0218201Y0147588D01*
X0219001Y0147588D01*
X0219001Y0148388D01*
X0223544Y0148388D01*
X0223544Y0151322D01*
X0223449Y0151678D01*
X0223264Y0151997D01*
X0223004Y0152258D01*
X0222684Y0152442D01*
X0222328Y0152538D01*
X0219001Y0152538D01*
X0219001Y0148388D01*
X0218201Y0148388D01*
X0218201Y0147588D01*
X0210251Y0147588D01*
X0210251Y0147926D02*
X0218201Y0147926D01*
X0218201Y0147128D02*
X0219001Y0147128D01*
X0219001Y0147588D02*
X0219001Y0143439D01*
X0222328Y0143439D01*
X0222684Y0143534D01*
X0223004Y0143718D01*
X0223264Y0143979D01*
X0223449Y0144298D01*
X0223539Y0144637D01*
X0223539Y0143275D01*
X0227689Y0143275D01*
X0227689Y0147818D01*
X0224755Y0147818D01*
X0224399Y0147723D01*
X0224080Y0147539D01*
X0223819Y0147278D01*
X0223635Y0146959D01*
X0223544Y0146620D01*
X0223544Y0147588D01*
X0219001Y0147588D01*
X0219001Y0147926D02*
X0232976Y0147926D01*
X0232976Y0147128D02*
X0232446Y0147128D01*
X0232359Y0147278D02*
X0232098Y0147539D01*
X0231779Y0147723D01*
X0231423Y0147818D01*
X0228489Y0147818D01*
X0228489Y0143275D01*
X0232638Y0143275D01*
X0232638Y0146603D01*
X0232543Y0146959D01*
X0232359Y0147278D01*
X0232638Y0146329D02*
X0232976Y0146329D01*
X0232976Y0145531D02*
X0232638Y0145531D01*
X0232638Y0144732D02*
X0232976Y0144732D01*
X0232976Y0143934D02*
X0232638Y0143934D01*
X0232976Y0143135D02*
X0228489Y0143135D01*
X0228489Y0143275D02*
X0228489Y0142475D01*
X0232638Y0142475D01*
X0232638Y0139147D01*
X0232543Y0138791D01*
X0232359Y0138472D01*
X0232098Y0138211D01*
X0231779Y0138027D01*
X0231423Y0137932D01*
X0228489Y0137932D01*
X0228489Y0142475D01*
X0227689Y0142475D01*
X0227689Y0137932D01*
X0224755Y0137932D01*
X0224399Y0138027D01*
X0224080Y0138211D01*
X0223819Y0138472D01*
X0223635Y0138791D01*
X0223544Y0139130D01*
X0223544Y0138787D01*
X0219001Y0138787D01*
X0219001Y0137987D01*
X0223544Y0137987D01*
X0223544Y0135053D01*
X0223449Y0134697D01*
X0223264Y0134378D01*
X0223004Y0134117D01*
X0222684Y0133933D01*
X0222328Y0133837D01*
X0219001Y0133837D01*
X0219001Y0137987D01*
X0218201Y0137987D01*
X0218201Y0133837D01*
X0214873Y0133837D01*
X0214517Y0133933D01*
X0214226Y0134101D01*
X0213934Y0133933D01*
X0213578Y0133837D01*
X0210251Y0133837D01*
X0210251Y0137987D01*
X0210251Y0138787D01*
X0214794Y0138787D01*
X0218201Y0138787D01*
X0218201Y0142936D01*
X0214873Y0142936D01*
X0214517Y0142841D01*
X0214226Y0142673D01*
X0213934Y0142841D01*
X0213578Y0142936D01*
X0210251Y0142936D01*
X0210251Y0138787D01*
X0209451Y0138787D01*
X0209451Y0142936D01*
X0206123Y0142936D01*
X0205767Y0142841D01*
X0205476Y0142673D01*
X0205184Y0142841D01*
X0204828Y0142936D01*
X0201501Y0142936D01*
X0201501Y0138787D01*
X0206044Y0138787D01*
X0209451Y0138787D01*
X0209451Y0137987D01*
X0210251Y0137987D01*
X0218201Y0137987D01*
X0218201Y0138787D01*
X0219001Y0138787D01*
X0219001Y0142936D01*
X0222328Y0142936D01*
X0222684Y0142841D01*
X0223004Y0142657D01*
X0223264Y0142396D01*
X0223449Y0142077D01*
X0223539Y0141738D01*
X0223539Y0142475D01*
X0227689Y0142475D01*
X0227689Y0143275D01*
X0228489Y0143275D01*
X0228489Y0143934D02*
X0227689Y0143934D01*
X0227689Y0144732D02*
X0228489Y0144732D01*
X0228489Y0145531D02*
X0227689Y0145531D01*
X0227689Y0146329D02*
X0228489Y0146329D01*
X0228489Y0147128D02*
X0227689Y0147128D01*
X0223732Y0147128D02*
X0223544Y0147128D01*
X0223544Y0148725D02*
X0232976Y0148725D01*
X0232976Y0149523D02*
X0223544Y0149523D01*
X0223544Y0150322D02*
X0232976Y0150322D01*
X0232976Y0151120D02*
X0223544Y0151120D01*
X0223310Y0151919D02*
X0232976Y0151919D01*
X0234851Y0148400D02*
X0247976Y0148400D01*
X0247976Y0134275D01*
X0239896Y0134275D01*
X0239076Y0133455D01*
X0223021Y0117400D01*
X0202381Y0117400D01*
X0202381Y0119367D01*
X0201795Y0119953D01*
X0195849Y0119953D01*
X0195476Y0119580D01*
X0195102Y0119953D01*
X0189156Y0119953D01*
X0188751Y0119547D01*
X0188751Y0131625D01*
X0196690Y0131625D01*
X0196437Y0131372D01*
X0196253Y0131053D01*
X0196157Y0130697D01*
X0196157Y0127763D01*
X0200701Y0127763D01*
X0200701Y0126963D01*
X0201501Y0126963D01*
X0201501Y0127763D01*
X0206044Y0127763D01*
X0209451Y0127763D01*
X0209451Y0126963D01*
X0210251Y0126963D01*
X0210251Y0127763D01*
X0214794Y0127763D01*
X0218201Y0127763D01*
X0218201Y0126963D01*
X0219001Y0126963D01*
X0219001Y0127763D01*
X0223544Y0127763D01*
X0223544Y0130697D01*
X0223449Y0131053D01*
X0223264Y0131372D01*
X0223012Y0131625D01*
X0234851Y0131625D01*
X0234851Y0138464D01*
X0235103Y0138211D01*
X0235422Y0138027D01*
X0235779Y0137932D01*
X0238712Y0137932D01*
X0238712Y0142475D01*
X0239512Y0142475D01*
X0239512Y0137932D01*
X0242446Y0137932D01*
X0242802Y0138027D01*
X0243122Y0138211D01*
X0243382Y0138472D01*
X0243567Y0138791D01*
X0243662Y0139147D01*
X0243662Y0142475D01*
X0239513Y0142475D01*
X0239513Y0143275D01*
X0243662Y0143275D01*
X0243662Y0146603D01*
X0243567Y0146959D01*
X0243382Y0147278D01*
X0243122Y0147539D01*
X0242802Y0147723D01*
X0242446Y0147818D01*
X0239512Y0147818D01*
X0239512Y0143275D01*
X0238712Y0143275D01*
X0238712Y0147818D01*
X0235779Y0147818D01*
X0235422Y0147723D01*
X0235103Y0147539D01*
X0234851Y0147286D01*
X0234851Y0148400D01*
X0234851Y0147926D02*
X0247976Y0147926D01*
X0247976Y0147128D02*
X0243469Y0147128D01*
X0243662Y0146329D02*
X0247976Y0146329D01*
X0247976Y0145531D02*
X0243662Y0145531D01*
X0243662Y0144732D02*
X0247976Y0144732D01*
X0247976Y0143934D02*
X0243662Y0143934D01*
X0243662Y0142337D02*
X0247976Y0142337D01*
X0247976Y0143135D02*
X0239513Y0143135D01*
X0239512Y0142337D02*
X0238712Y0142337D01*
X0238712Y0141538D02*
X0239512Y0141538D01*
X0239512Y0140739D02*
X0238712Y0140739D01*
X0238712Y0139941D02*
X0239512Y0139941D01*
X0239512Y0139142D02*
X0238712Y0139142D01*
X0238712Y0138344D02*
X0239512Y0138344D01*
X0243254Y0138344D02*
X0247976Y0138344D01*
X0247976Y0139142D02*
X0243661Y0139142D01*
X0243662Y0139941D02*
X0247976Y0139941D01*
X0247976Y0140739D02*
X0243662Y0140739D01*
X0243662Y0141538D02*
X0247976Y0141538D01*
X0247976Y0137545D02*
X0234851Y0137545D01*
X0234851Y0136747D02*
X0247976Y0136747D01*
X0247976Y0135948D02*
X0234851Y0135948D01*
X0234851Y0135150D02*
X0247976Y0135150D01*
X0247976Y0134351D02*
X0234851Y0134351D01*
X0234851Y0133553D02*
X0239174Y0133553D01*
X0239076Y0133455D02*
X0239076Y0133455D01*
X0238375Y0132754D02*
X0234851Y0132754D01*
X0234851Y0131956D02*
X0237577Y0131956D01*
X0236778Y0131157D02*
X0223388Y0131157D01*
X0223544Y0130359D02*
X0235980Y0130359D01*
X0235181Y0129560D02*
X0223544Y0129560D01*
X0223544Y0128762D02*
X0234383Y0128762D01*
X0233584Y0127963D02*
X0223544Y0127963D01*
X0223544Y0126963D02*
X0219001Y0126963D01*
X0219001Y0122814D01*
X0222328Y0122814D01*
X0222684Y0122909D01*
X0223004Y0123093D01*
X0223264Y0123354D01*
X0223449Y0123673D01*
X0223544Y0124029D01*
X0223544Y0126963D01*
X0223544Y0126366D02*
X0231987Y0126366D01*
X0231189Y0125568D02*
X0223544Y0125568D01*
X0223544Y0124769D02*
X0230390Y0124769D01*
X0229592Y0123971D02*
X0223528Y0123971D01*
X0223083Y0123172D02*
X0228793Y0123172D01*
X0227995Y0122374D02*
X0188751Y0122374D01*
X0188751Y0123172D02*
X0196619Y0123172D01*
X0196698Y0123093D02*
X0197017Y0122909D01*
X0197373Y0122814D01*
X0200701Y0122814D01*
X0200701Y0126963D01*
X0196157Y0126963D01*
X0196157Y0124029D01*
X0196253Y0123673D01*
X0196437Y0123354D01*
X0196698Y0123093D01*
X0196173Y0123971D02*
X0188751Y0123971D01*
X0188751Y0124769D02*
X0196157Y0124769D01*
X0196157Y0125568D02*
X0188751Y0125568D01*
X0188751Y0126366D02*
X0196157Y0126366D01*
X0196157Y0127963D02*
X0188751Y0127963D01*
X0188751Y0127165D02*
X0200701Y0127165D01*
X0200701Y0126366D02*
X0201501Y0126366D01*
X0201501Y0126963D02*
X0201501Y0122814D01*
X0204828Y0122814D01*
X0205184Y0122909D01*
X0205476Y0123077D01*
X0205767Y0122909D01*
X0206123Y0122814D01*
X0209451Y0122814D01*
X0209451Y0126963D01*
X0201501Y0126963D01*
X0201501Y0127165D02*
X0209451Y0127165D01*
X0209451Y0126366D02*
X0210251Y0126366D01*
X0210251Y0126963D02*
X0210251Y0122814D01*
X0213578Y0122814D01*
X0213934Y0122909D01*
X0214226Y0123077D01*
X0214517Y0122909D01*
X0214873Y0122814D01*
X0218201Y0122814D01*
X0218201Y0126963D01*
X0210251Y0126963D01*
X0210251Y0127165D02*
X0218201Y0127165D01*
X0218201Y0126366D02*
X0219001Y0126366D01*
X0219001Y0125568D02*
X0218201Y0125568D01*
X0218201Y0124769D02*
X0219001Y0124769D01*
X0219001Y0123971D02*
X0218201Y0123971D01*
X0218201Y0123172D02*
X0219001Y0123172D01*
X0219001Y0127165D02*
X0232786Y0127165D01*
X0227196Y0121575D02*
X0188751Y0121575D01*
X0188751Y0120777D02*
X0226397Y0120777D01*
X0225599Y0119978D02*
X0188751Y0119978D01*
X0187351Y0119750D02*
X0187351Y0138721D01*
X0183822Y0142250D01*
X0177529Y0141538D02*
X0176729Y0141538D01*
X0176729Y0142337D02*
X0160716Y0142337D01*
X0160541Y0143135D02*
X0173761Y0143135D01*
X0173761Y0142650D02*
X0173761Y0144600D01*
X0173856Y0144956D01*
X0174040Y0145275D01*
X0174301Y0145536D01*
X0174620Y0145720D01*
X0174976Y0145815D01*
X0176729Y0145815D01*
X0176729Y0142650D01*
X0173761Y0142650D01*
X0173761Y0141538D02*
X0161514Y0141538D01*
X0162313Y0140739D02*
X0173761Y0140739D01*
X0173761Y0139941D02*
X0162501Y0139941D01*
X0162501Y0139142D02*
X0174123Y0139142D01*
X0173831Y0137595D02*
X0173475Y0137690D01*
X0171722Y0137690D01*
X0171722Y0134525D01*
X0170922Y0134525D01*
X0170922Y0133725D01*
X0167954Y0133725D01*
X0167954Y0131775D01*
X0168049Y0131419D01*
X0168233Y0131100D01*
X0168494Y0130839D01*
X0168813Y0130655D01*
X0169169Y0130560D01*
X0170922Y0130560D01*
X0170922Y0133725D01*
X0171722Y0133725D01*
X0171722Y0130560D01*
X0173475Y0130560D01*
X0173831Y0130655D01*
X0174150Y0130839D01*
X0174411Y0131100D01*
X0174595Y0131419D01*
X0174691Y0131775D01*
X0174691Y0133725D01*
X0171722Y0133725D01*
X0171722Y0134525D01*
X0174691Y0134525D01*
X0174691Y0136475D01*
X0174595Y0136831D01*
X0174411Y0137150D01*
X0174150Y0137411D01*
X0173831Y0137595D01*
X0173917Y0137545D02*
X0178601Y0137545D01*
X0178601Y0136747D02*
X0174618Y0136747D01*
X0174691Y0135948D02*
X0178601Y0135948D01*
X0178601Y0135150D02*
X0174691Y0135150D01*
X0174691Y0133553D02*
X0178601Y0133553D01*
X0178601Y0134351D02*
X0171722Y0134351D01*
X0171722Y0133553D02*
X0170922Y0133553D01*
X0170922Y0134351D02*
X0167598Y0134351D01*
X0167954Y0134525D02*
X0170922Y0134525D01*
X0170922Y0137690D01*
X0169169Y0137690D01*
X0168813Y0137595D01*
X0168494Y0137411D01*
X0168233Y0137150D01*
X0168049Y0136831D01*
X0167954Y0136475D01*
X0167954Y0134525D01*
X0167954Y0135150D02*
X0167598Y0135150D01*
X0167598Y0135948D02*
X0167954Y0135948D01*
X0168027Y0136747D02*
X0167555Y0136747D01*
X0168728Y0137545D02*
X0162501Y0137545D01*
X0162501Y0138344D02*
X0178601Y0138344D01*
X0177529Y0139142D02*
X0176729Y0139142D01*
X0176729Y0139941D02*
X0177529Y0139941D01*
X0177529Y0140739D02*
X0176729Y0140739D01*
X0171722Y0137545D02*
X0170922Y0137545D01*
X0170922Y0136747D02*
X0171722Y0136747D01*
X0171722Y0135948D02*
X0170922Y0135948D01*
X0170922Y0135150D02*
X0171722Y0135150D01*
X0171722Y0132754D02*
X0170922Y0132754D01*
X0170922Y0131956D02*
X0171722Y0131956D01*
X0171722Y0131157D02*
X0170922Y0131157D01*
X0168200Y0131157D02*
X0167210Y0131157D01*
X0167598Y0131956D02*
X0167954Y0131956D01*
X0167954Y0132754D02*
X0167598Y0132754D01*
X0167598Y0133553D02*
X0167954Y0133553D01*
X0164629Y0134125D02*
X0164226Y0133721D01*
X0164226Y0127250D01*
X0166494Y0124981D01*
X0173327Y0124981D01*
X0173327Y0123013D02*
X0180514Y0123013D01*
X0180514Y0123729D01*
X0180419Y0124085D01*
X0180235Y0124404D01*
X0180114Y0124524D01*
X0180449Y0123971D02*
X0184076Y0123971D01*
X0182976Y0121625D02*
X0182976Y0120375D01*
X0181676Y0119076D01*
X0173327Y0119076D01*
X0173327Y0121044D02*
X0173327Y0123013D01*
X0173327Y0123013D01*
X0180514Y0123013D01*
X0180514Y0122297D01*
X0180442Y0122029D01*
X0180514Y0121760D01*
X0180514Y0121044D01*
X0173327Y0121044D01*
X0173327Y0121044D01*
X0173327Y0121081D01*
X0173327Y0123013D01*
X0173327Y0123013D01*
X0173327Y0121044D01*
X0173327Y0121575D02*
X0173327Y0121575D01*
X0173327Y0122374D02*
X0173327Y0122374D01*
X0166540Y0122374D02*
X0157579Y0122374D01*
X0157638Y0122433D02*
X0157638Y0122433D01*
X0158378Y0123172D02*
X0166540Y0123172D01*
X0165525Y0123971D02*
X0159176Y0123971D01*
X0159975Y0124769D02*
X0164727Y0124769D01*
X0163928Y0125568D02*
X0160773Y0125568D01*
X0165626Y0127963D02*
X0166607Y0127963D01*
X0165626Y0128762D02*
X0178601Y0128762D01*
X0178601Y0129560D02*
X0165626Y0129560D01*
X0165626Y0130359D02*
X0178601Y0130359D01*
X0178601Y0131157D02*
X0174444Y0131157D01*
X0174691Y0131956D02*
X0178601Y0131956D01*
X0178601Y0132754D02*
X0174691Y0132754D01*
X0184851Y0135375D02*
X0185476Y0134750D01*
X0185476Y0120375D01*
X0182208Y0117107D01*
X0173327Y0117107D01*
X0173327Y0115139D01*
X0173327Y0113170D02*
X0180771Y0113170D01*
X0187351Y0119750D01*
X0181412Y0123172D02*
X0180514Y0123172D01*
X0180514Y0122374D02*
X0180776Y0122374D01*
X0180776Y0121575D02*
X0180514Y0121575D01*
X0180514Y0120777D02*
X0180776Y0120777D01*
X0186101Y0116000D02*
X0192129Y0116000D01*
X0186101Y0116000D02*
X0181302Y0111202D01*
X0173327Y0111202D01*
X0173327Y0109233D02*
X0182459Y0109233D01*
X0184851Y0111625D01*
X0188601Y0111625D02*
X0196726Y0111625D01*
X0198601Y0113500D01*
X0198601Y0115779D01*
X0198822Y0116000D01*
X0223601Y0116000D01*
X0240476Y0132875D01*
X0277351Y0132875D01*
X0244226Y0114125D02*
X0230879Y0100779D01*
X0214226Y0100779D01*
X0194629Y0100779D01*
X0191273Y0097422D01*
X0173327Y0097422D01*
X0173155Y0097250D01*
X0166726Y0097250D01*
X0165476Y0096000D01*
X0165476Y0087875D01*
X0163601Y0086000D01*
X0160476Y0086000D01*
X0158276Y0085642D02*
X0147109Y0085642D01*
X0147109Y0086441D02*
X0158276Y0086441D01*
X0157126Y0087239D02*
X0156326Y0087239D01*
X0156326Y0088038D02*
X0157126Y0088038D01*
X0157126Y0088836D02*
X0156326Y0088836D01*
X0156326Y0089635D02*
X0157126Y0089635D01*
X0157126Y0090433D02*
X0156326Y0090433D01*
X0156326Y0091232D02*
X0157126Y0091232D01*
X0157126Y0092030D02*
X0156326Y0092030D01*
X0156326Y0092829D02*
X0157126Y0092829D01*
X0157126Y0093627D02*
X0156326Y0093627D01*
X0156326Y0094426D02*
X0157126Y0094426D01*
X0165232Y0097736D02*
X0165232Y0099975D01*
X0162063Y0099975D01*
X0162063Y0100775D01*
X0165232Y0100775D01*
X0165232Y0106764D01*
X0165326Y0106670D01*
X0166146Y0105850D01*
X0166540Y0105850D01*
X0166540Y0104351D01*
X0166578Y0104312D01*
X0166540Y0104273D01*
X0166540Y0102382D01*
X0166578Y0102343D01*
X0166540Y0102305D01*
X0166540Y0100414D01*
X0166578Y0100375D01*
X0166540Y0100336D01*
X0166540Y0098650D01*
X0166146Y0098650D01*
X0165326Y0097830D01*
X0165232Y0097736D01*
X0165232Y0098418D02*
X0165914Y0098418D01*
X0166540Y0099217D02*
X0165232Y0099217D01*
X0166540Y0100015D02*
X0162063Y0100015D01*
X0165232Y0100814D02*
X0166540Y0100814D01*
X0166540Y0101612D02*
X0165232Y0101612D01*
X0165232Y0102411D02*
X0166540Y0102411D01*
X0166540Y0103209D02*
X0165232Y0103209D01*
X0165232Y0104008D02*
X0166540Y0104008D01*
X0166540Y0104806D02*
X0165232Y0104806D01*
X0165232Y0105605D02*
X0166540Y0105605D01*
X0165592Y0106403D02*
X0165232Y0106403D01*
X0166726Y0107250D02*
X0165476Y0108500D01*
X0165476Y0113500D01*
X0164226Y0114750D01*
X0160476Y0114750D01*
X0161553Y0116784D02*
X0163276Y0116784D01*
X0164349Y0119978D02*
X0148984Y0119978D01*
X0147109Y0120777D02*
X0165147Y0120777D01*
X0165946Y0121575D02*
X0147109Y0121575D01*
X0148207Y0124981D02*
X0149226Y0126000D01*
X0148207Y0124981D02*
X0140321Y0124981D01*
X0140321Y0126950D02*
X0141425Y0126950D01*
X0142976Y0128500D01*
X0151947Y0128500D01*
X0157572Y0134125D01*
X0154604Y0133553D02*
X0154248Y0133553D01*
X0154121Y0140739D02*
X0154785Y0140739D01*
X0154604Y0141538D02*
X0154248Y0141538D01*
X0154248Y0142337D02*
X0154604Y0142337D01*
X0151279Y0143934D02*
X0150479Y0143934D01*
X0150479Y0143900D02*
X0150479Y0147065D01*
X0148726Y0147065D01*
X0148370Y0146970D01*
X0148051Y0146786D01*
X0147790Y0146525D01*
X0147606Y0146206D01*
X0147511Y0145850D01*
X0147511Y0143900D01*
X0150479Y0143900D01*
X0150479Y0144732D02*
X0151279Y0144732D01*
X0151279Y0145531D02*
X0150479Y0145531D01*
X0150479Y0146329D02*
X0151279Y0146329D01*
X0147677Y0146329D02*
X0145201Y0146329D01*
X0145201Y0145531D02*
X0147511Y0145531D01*
X0147511Y0144732D02*
X0145201Y0144732D01*
X0145201Y0143934D02*
X0147511Y0143934D01*
X0155577Y0148725D02*
X0170414Y0148725D01*
X0170414Y0149523D02*
X0154779Y0149523D01*
X0153980Y0150322D02*
X0170414Y0150322D01*
X0170648Y0147926D02*
X0156376Y0147926D01*
X0157174Y0147128D02*
X0178601Y0147128D01*
X0178601Y0146329D02*
X0160291Y0146329D01*
X0160541Y0145531D02*
X0174296Y0145531D01*
X0173796Y0144732D02*
X0160541Y0144732D01*
X0160541Y0143934D02*
X0173761Y0143934D01*
X0176729Y0143934D02*
X0177529Y0143934D01*
X0177529Y0144732D02*
X0176729Y0144732D01*
X0176729Y0145531D02*
X0177529Y0145531D01*
X0177529Y0143135D02*
X0176729Y0143135D01*
X0175364Y0147926D02*
X0174564Y0147926D01*
X0174564Y0148725D02*
X0175364Y0148725D01*
X0175364Y0149523D02*
X0174564Y0149523D01*
X0174564Y0150322D02*
X0175364Y0150322D01*
X0175364Y0151120D02*
X0174564Y0151120D01*
X0190303Y0147926D02*
X0200701Y0147926D01*
X0200701Y0147128D02*
X0201501Y0147128D01*
X0201501Y0146329D02*
X0200701Y0146329D01*
X0200701Y0145531D02*
X0201501Y0145531D01*
X0201501Y0144732D02*
X0200701Y0144732D01*
X0200701Y0143934D02*
X0201501Y0143934D01*
X0200701Y0142936D02*
X0197373Y0142936D01*
X0197017Y0142841D01*
X0196698Y0142657D01*
X0196437Y0142396D01*
X0196253Y0142077D01*
X0196157Y0141721D01*
X0196157Y0138787D01*
X0200701Y0138787D01*
X0200701Y0142936D01*
X0200701Y0142337D02*
X0201501Y0142337D01*
X0201501Y0141538D02*
X0200701Y0141538D01*
X0200701Y0140739D02*
X0201501Y0140739D01*
X0201501Y0139941D02*
X0200701Y0139941D01*
X0200701Y0139142D02*
X0201501Y0139142D01*
X0201501Y0138787D02*
X0200701Y0138787D01*
X0200701Y0137987D01*
X0201501Y0137987D01*
X0201501Y0138787D01*
X0201501Y0138344D02*
X0209451Y0138344D01*
X0209451Y0137987D02*
X0201501Y0137987D01*
X0201501Y0133837D01*
X0204828Y0133837D01*
X0205184Y0133933D01*
X0205476Y0134101D01*
X0205767Y0133933D01*
X0206123Y0133837D01*
X0209451Y0133837D01*
X0209451Y0137987D01*
X0209451Y0137545D02*
X0210251Y0137545D01*
X0210251Y0136747D02*
X0209451Y0136747D01*
X0209451Y0135948D02*
X0210251Y0135948D01*
X0210251Y0135150D02*
X0209451Y0135150D01*
X0209451Y0134351D02*
X0210251Y0134351D01*
X0210251Y0138344D02*
X0218201Y0138344D01*
X0218201Y0139142D02*
X0219001Y0139142D01*
X0219001Y0138344D02*
X0223947Y0138344D01*
X0223544Y0137545D02*
X0232976Y0137545D01*
X0232976Y0136747D02*
X0223544Y0136747D01*
X0223544Y0135948D02*
X0232976Y0135948D01*
X0232976Y0135150D02*
X0223544Y0135150D01*
X0223238Y0134351D02*
X0232976Y0134351D01*
X0232976Y0133553D02*
X0196101Y0133553D01*
X0196101Y0134351D02*
X0196463Y0134351D01*
X0196437Y0134378D02*
X0196698Y0134117D01*
X0197017Y0133933D01*
X0197373Y0133837D01*
X0200701Y0133837D01*
X0200701Y0137987D01*
X0196157Y0137987D01*
X0196157Y0135053D01*
X0196253Y0134697D01*
X0196437Y0134378D01*
X0196157Y0135150D02*
X0196101Y0135150D01*
X0196101Y0135948D02*
X0196157Y0135948D01*
X0196157Y0136747D02*
X0196101Y0136747D01*
X0196101Y0137545D02*
X0196157Y0137545D01*
X0196101Y0138344D02*
X0200701Y0138344D01*
X0200701Y0137545D02*
X0201501Y0137545D01*
X0201501Y0136747D02*
X0200701Y0136747D01*
X0200701Y0135948D02*
X0201501Y0135948D01*
X0201501Y0135150D02*
X0200701Y0135150D01*
X0200701Y0134351D02*
X0201501Y0134351D01*
X0196313Y0131157D02*
X0188751Y0131157D01*
X0188751Y0130359D02*
X0196157Y0130359D01*
X0196157Y0129560D02*
X0188751Y0129560D01*
X0188751Y0128762D02*
X0196157Y0128762D01*
X0200701Y0125568D02*
X0201501Y0125568D01*
X0201501Y0124769D02*
X0200701Y0124769D01*
X0200701Y0123971D02*
X0201501Y0123971D01*
X0201501Y0123172D02*
X0200701Y0123172D01*
X0202381Y0119180D02*
X0224800Y0119180D01*
X0224002Y0118381D02*
X0202381Y0118381D01*
X0202381Y0117583D02*
X0223203Y0117583D01*
X0210251Y0123172D02*
X0209451Y0123172D01*
X0209451Y0123971D02*
X0210251Y0123971D01*
X0210251Y0124769D02*
X0209451Y0124769D01*
X0209451Y0125568D02*
X0210251Y0125568D01*
X0218201Y0134351D02*
X0219001Y0134351D01*
X0219001Y0135150D02*
X0218201Y0135150D01*
X0218201Y0135948D02*
X0219001Y0135948D01*
X0219001Y0136747D02*
X0218201Y0136747D01*
X0218201Y0137545D02*
X0219001Y0137545D01*
X0219001Y0139941D02*
X0218201Y0139941D01*
X0218201Y0140739D02*
X0219001Y0140739D01*
X0219001Y0141538D02*
X0218201Y0141538D01*
X0218201Y0142337D02*
X0219001Y0142337D01*
X0219001Y0143934D02*
X0218201Y0143934D01*
X0218201Y0144732D02*
X0219001Y0144732D01*
X0219001Y0145531D02*
X0218201Y0145531D01*
X0218201Y0146329D02*
X0219001Y0146329D01*
X0219001Y0148725D02*
X0218201Y0148725D01*
X0218201Y0149523D02*
X0219001Y0149523D01*
X0219001Y0150322D02*
X0218201Y0150322D01*
X0218201Y0151120D02*
X0219001Y0151120D01*
X0219001Y0151919D02*
X0218201Y0151919D01*
X0210251Y0151919D02*
X0209451Y0151919D01*
X0209451Y0151120D02*
X0210251Y0151120D01*
X0210251Y0150322D02*
X0209451Y0150322D01*
X0209451Y0149523D02*
X0210251Y0149523D01*
X0210251Y0148725D02*
X0209451Y0148725D01*
X0209451Y0146329D02*
X0210251Y0146329D01*
X0210251Y0145531D02*
X0209451Y0145531D01*
X0209451Y0144732D02*
X0210251Y0144732D01*
X0210251Y0143934D02*
X0209451Y0143934D01*
X0209451Y0142337D02*
X0210251Y0142337D01*
X0210251Y0141538D02*
X0209451Y0141538D01*
X0209451Y0140739D02*
X0210251Y0140739D01*
X0210251Y0139941D02*
X0209451Y0139941D01*
X0209451Y0139142D02*
X0210251Y0139142D01*
X0223299Y0142337D02*
X0223539Y0142337D01*
X0223539Y0143934D02*
X0223219Y0143934D01*
X0227689Y0143135D02*
X0196101Y0143135D01*
X0196101Y0142337D02*
X0196403Y0142337D01*
X0196157Y0141538D02*
X0196101Y0141538D01*
X0196101Y0140739D02*
X0196157Y0140739D01*
X0196157Y0139941D02*
X0196101Y0139941D01*
X0196101Y0139142D02*
X0196157Y0139142D01*
X0196101Y0143934D02*
X0196483Y0143934D01*
X0196157Y0144732D02*
X0196101Y0144732D01*
X0196101Y0145531D02*
X0196157Y0145531D01*
X0196157Y0146329D02*
X0196101Y0146329D01*
X0227689Y0142337D02*
X0228489Y0142337D01*
X0228489Y0141538D02*
X0227689Y0141538D01*
X0227689Y0140739D02*
X0228489Y0140739D01*
X0228489Y0139941D02*
X0227689Y0139941D01*
X0227689Y0139142D02*
X0228489Y0139142D01*
X0228489Y0138344D02*
X0227689Y0138344D01*
X0232231Y0138344D02*
X0232976Y0138344D01*
X0232976Y0139142D02*
X0232637Y0139142D01*
X0232638Y0139941D02*
X0232976Y0139941D01*
X0232976Y0140739D02*
X0232638Y0140739D01*
X0232638Y0141538D02*
X0232976Y0141538D01*
X0232976Y0142337D02*
X0232638Y0142337D01*
X0238712Y0143934D02*
X0239512Y0143934D01*
X0239512Y0144732D02*
X0238712Y0144732D01*
X0238712Y0145531D02*
X0239512Y0145531D01*
X0239512Y0146329D02*
X0238712Y0146329D01*
X0238712Y0147128D02*
X0239512Y0147128D01*
X0234971Y0138344D02*
X0234851Y0138344D01*
X0188601Y0111625D02*
X0184240Y0107265D01*
X0173327Y0107265D01*
X0173312Y0107250D01*
X0166726Y0107250D01*
X0173327Y0105296D02*
X0184772Y0105296D01*
X0187351Y0107875D01*
X0191504Y0107875D01*
X0186726Y0104125D02*
X0185928Y0103328D01*
X0173327Y0103328D01*
X0173327Y0101359D02*
X0187710Y0101359D01*
X0189851Y0103500D01*
X0208601Y0103500D01*
X0212572Y0107471D01*
X0214226Y0107471D01*
X0193379Y0093500D02*
X0191425Y0095454D01*
X0173327Y0095454D01*
X0173327Y0093485D02*
X0180514Y0093485D01*
X0173327Y0093485D01*
X0173327Y0093485D01*
X0173327Y0091517D02*
X0186834Y0091517D01*
X0189226Y0089125D01*
X0213197Y0089125D01*
X0214226Y0088096D01*
X0213379Y0082250D02*
X0214226Y0081404D01*
X0234447Y0081404D01*
X0251726Y0064125D01*
X0281101Y0064125D01*
X0329851Y0059125D02*
X0372351Y0059125D01*
X0372351Y0047600D01*
X0370251Y0047600D01*
X0370251Y0033900D01*
X0369451Y0033900D01*
X0369451Y0047600D01*
X0360066Y0047600D01*
X0359710Y0047505D01*
X0359391Y0047320D01*
X0359130Y0047060D01*
X0358946Y0046740D01*
X0358851Y0046384D01*
X0358851Y0033900D01*
X0369451Y0033900D01*
X0369451Y0033100D01*
X0370251Y0033100D01*
X0370251Y0019400D01*
X0372351Y0019400D01*
X0372351Y0007875D01*
X0348587Y0007875D01*
X0350351Y0009639D01*
X0350351Y0016100D01*
X0355565Y0016100D01*
X0356151Y0016686D01*
X0356151Y0020314D01*
X0355674Y0020791D01*
X0355691Y0020795D01*
X0356010Y0020980D01*
X0356271Y0021240D01*
X0356455Y0021560D01*
X0356551Y0021916D01*
X0356551Y0023200D01*
X0348451Y0023200D01*
X0348451Y0023800D01*
X0356551Y0023800D01*
X0356551Y0025084D01*
X0356455Y0025440D01*
X0356271Y0025760D01*
X0356031Y0026000D01*
X0356271Y0026240D01*
X0356455Y0026560D01*
X0356551Y0026916D01*
X0356551Y0028200D01*
X0348451Y0028200D01*
X0348451Y0028800D01*
X0356551Y0028800D01*
X0356551Y0030084D01*
X0356455Y0030440D01*
X0356271Y0030760D01*
X0356010Y0031020D01*
X0355691Y0031205D01*
X0355335Y0031300D01*
X0348451Y0031300D01*
X0348451Y0028800D01*
X0347851Y0028800D01*
X0347851Y0031300D01*
X0340966Y0031300D01*
X0340610Y0031205D01*
X0340291Y0031020D01*
X0340030Y0030760D01*
X0339846Y0030440D01*
X0339751Y0030084D01*
X0339751Y0028800D01*
X0347851Y0028800D01*
X0347851Y0028200D01*
X0348451Y0028200D01*
X0348451Y0025700D01*
X0348451Y0023800D01*
X0347851Y0023800D01*
X0347851Y0028200D01*
X0339751Y0028200D01*
X0339751Y0026916D01*
X0339846Y0026560D01*
X0340030Y0026240D01*
X0340271Y0026000D01*
X0340030Y0025760D01*
X0339846Y0025440D01*
X0339751Y0025084D01*
X0339751Y0023800D01*
X0347851Y0023800D01*
X0347851Y0023200D01*
X0339751Y0023200D01*
X0339751Y0021916D01*
X0339846Y0021560D01*
X0340030Y0021240D01*
X0340291Y0020980D01*
X0340610Y0020795D01*
X0340627Y0020791D01*
X0340151Y0020314D01*
X0340151Y0016686D01*
X0340736Y0016100D01*
X0345951Y0016100D01*
X0345951Y0011461D01*
X0342364Y0007875D01*
X0329851Y0007875D01*
X0329851Y0059125D01*
X0329851Y0058493D02*
X0372351Y0058493D01*
X0372351Y0057694D02*
X0329851Y0057694D01*
X0329851Y0056896D02*
X0372351Y0056896D01*
X0372351Y0056097D02*
X0329851Y0056097D01*
X0329851Y0055299D02*
X0372351Y0055299D01*
X0372351Y0054500D02*
X0329851Y0054500D01*
X0329851Y0053702D02*
X0372351Y0053702D01*
X0372351Y0052903D02*
X0329851Y0052903D01*
X0329851Y0052105D02*
X0372351Y0052105D01*
X0372351Y0051306D02*
X0329851Y0051306D01*
X0329851Y0050508D02*
X0339885Y0050508D01*
X0339846Y0050440D02*
X0339751Y0050084D01*
X0339751Y0048800D01*
X0347851Y0048800D01*
X0347851Y0051300D01*
X0340966Y0051300D01*
X0340610Y0051205D01*
X0340291Y0051020D01*
X0340030Y0050760D01*
X0339846Y0050440D01*
X0339751Y0049709D02*
X0329851Y0049709D01*
X0329851Y0048911D02*
X0339751Y0048911D01*
X0339751Y0048200D02*
X0339751Y0046916D01*
X0339846Y0046560D01*
X0340030Y0046240D01*
X0340271Y0046000D01*
X0340030Y0045760D01*
X0339846Y0045440D01*
X0339751Y0045084D01*
X0339751Y0043800D01*
X0347851Y0043800D01*
X0347851Y0048200D01*
X0348451Y0048200D01*
X0348451Y0048800D01*
X0356551Y0048800D01*
X0356551Y0050084D01*
X0356455Y0050440D01*
X0356271Y0050760D01*
X0356010Y0051020D01*
X0355691Y0051205D01*
X0355335Y0051300D01*
X0348451Y0051300D01*
X0348451Y0048800D01*
X0347851Y0048800D01*
X0347851Y0048200D01*
X0339751Y0048200D01*
X0339751Y0048112D02*
X0329851Y0048112D01*
X0329851Y0047314D02*
X0339751Y0047314D01*
X0339872Y0046515D02*
X0329851Y0046515D01*
X0329851Y0045717D02*
X0340006Y0045717D01*
X0339751Y0044918D02*
X0329851Y0044918D01*
X0329851Y0044120D02*
X0339751Y0044120D01*
X0339751Y0043200D02*
X0339751Y0041916D01*
X0339846Y0041560D01*
X0340030Y0041240D01*
X0340271Y0041000D01*
X0340030Y0040760D01*
X0339846Y0040440D01*
X0339751Y0040084D01*
X0339751Y0038800D01*
X0347851Y0038800D01*
X0347851Y0043200D01*
X0348451Y0043200D01*
X0348451Y0043800D01*
X0356551Y0043800D01*
X0356551Y0045084D01*
X0356455Y0045440D01*
X0356271Y0045760D01*
X0356031Y0046000D01*
X0356271Y0046240D01*
X0356455Y0046560D01*
X0356551Y0046916D01*
X0356551Y0048200D01*
X0348451Y0048200D01*
X0348451Y0045700D01*
X0348451Y0043800D01*
X0347851Y0043800D01*
X0347851Y0043200D01*
X0339751Y0043200D01*
X0339751Y0042523D02*
X0329851Y0042523D01*
X0329851Y0043321D02*
X0347851Y0043321D01*
X0348451Y0043321D02*
X0358851Y0043321D01*
X0358851Y0042523D02*
X0356551Y0042523D01*
X0356551Y0041916D02*
X0356551Y0043200D01*
X0348451Y0043200D01*
X0348451Y0040700D01*
X0348451Y0038800D01*
X0356551Y0038800D01*
X0356551Y0040084D01*
X0356455Y0040440D01*
X0356271Y0040760D01*
X0356031Y0041000D01*
X0356271Y0041240D01*
X0356455Y0041560D01*
X0356551Y0041916D01*
X0356499Y0041724D02*
X0358851Y0041724D01*
X0358851Y0040926D02*
X0356105Y0040926D01*
X0356539Y0040127D02*
X0358851Y0040127D01*
X0358851Y0039329D02*
X0356551Y0039329D01*
X0356551Y0038200D02*
X0348451Y0038200D01*
X0348451Y0038800D01*
X0347851Y0038800D01*
X0347851Y0038200D01*
X0348451Y0038200D01*
X0348451Y0035700D01*
X0355335Y0035700D01*
X0355691Y0035795D01*
X0356010Y0035980D01*
X0356271Y0036240D01*
X0356455Y0036560D01*
X0356551Y0036916D01*
X0356551Y0038200D01*
X0356551Y0037732D02*
X0358851Y0037732D01*
X0358851Y0038530D02*
X0348451Y0038530D01*
X0347851Y0038530D02*
X0329851Y0038530D01*
X0329851Y0037732D02*
X0339751Y0037732D01*
X0339751Y0038200D02*
X0339751Y0036916D01*
X0339846Y0036560D01*
X0340030Y0036240D01*
X0340291Y0035980D01*
X0340610Y0035795D01*
X0340966Y0035700D01*
X0347851Y0035700D01*
X0347851Y0038200D01*
X0339751Y0038200D01*
X0339751Y0039329D02*
X0329851Y0039329D01*
X0329851Y0040127D02*
X0339762Y0040127D01*
X0340196Y0040926D02*
X0329851Y0040926D01*
X0329851Y0041724D02*
X0339802Y0041724D01*
X0347851Y0041724D02*
X0348451Y0041724D01*
X0348451Y0040926D02*
X0347851Y0040926D01*
X0347851Y0040127D02*
X0348451Y0040127D01*
X0348451Y0039329D02*
X0347851Y0039329D01*
X0347851Y0037732D02*
X0348451Y0037732D01*
X0348451Y0036933D02*
X0347851Y0036933D01*
X0347851Y0036134D02*
X0348451Y0036134D01*
X0356165Y0036134D02*
X0358851Y0036134D01*
X0358851Y0035336D02*
X0329851Y0035336D01*
X0329851Y0036134D02*
X0340136Y0036134D01*
X0339751Y0036933D02*
X0329851Y0036933D01*
X0329851Y0034537D02*
X0358851Y0034537D01*
X0358851Y0033100D02*
X0358851Y0020616D01*
X0358946Y0020260D01*
X0359130Y0019940D01*
X0359391Y0019680D01*
X0359710Y0019495D01*
X0360066Y0019400D01*
X0369451Y0019400D01*
X0369451Y0033100D01*
X0358851Y0033100D01*
X0358851Y0032940D02*
X0329851Y0032940D01*
X0329851Y0032142D02*
X0358851Y0032142D01*
X0358851Y0031343D02*
X0329851Y0031343D01*
X0329851Y0030545D02*
X0339906Y0030545D01*
X0339751Y0029746D02*
X0329851Y0029746D01*
X0329851Y0028948D02*
X0339751Y0028948D01*
X0339751Y0028149D02*
X0329851Y0028149D01*
X0329851Y0027351D02*
X0339751Y0027351D01*
X0339850Y0026552D02*
X0329851Y0026552D01*
X0329851Y0025754D02*
X0340027Y0025754D01*
X0339751Y0024955D02*
X0329851Y0024955D01*
X0329851Y0024157D02*
X0339751Y0024157D01*
X0339751Y0022560D02*
X0329851Y0022560D01*
X0329851Y0023358D02*
X0347851Y0023358D01*
X0348451Y0023358D02*
X0358851Y0023358D01*
X0358851Y0022560D02*
X0356551Y0022560D01*
X0356509Y0021761D02*
X0358851Y0021761D01*
X0358851Y0020963D02*
X0355981Y0020963D01*
X0356151Y0020164D02*
X0359001Y0020164D01*
X0356151Y0019366D02*
X0372351Y0019366D01*
X0372351Y0018567D02*
X0356151Y0018567D01*
X0356151Y0017769D02*
X0372351Y0017769D01*
X0372351Y0016970D02*
X0356151Y0016970D01*
X0355637Y0016172D02*
X0372351Y0016172D01*
X0372351Y0015373D02*
X0350351Y0015373D01*
X0350351Y0014575D02*
X0372351Y0014575D01*
X0372351Y0013776D02*
X0350351Y0013776D01*
X0350351Y0012978D02*
X0372351Y0012978D01*
X0372351Y0012179D02*
X0350351Y0012179D01*
X0350351Y0011381D02*
X0372351Y0011381D01*
X0372351Y0010582D02*
X0350351Y0010582D01*
X0350351Y0009784D02*
X0372351Y0009784D01*
X0372351Y0008985D02*
X0349697Y0008985D01*
X0348899Y0008187D02*
X0372351Y0008187D01*
X0370251Y0020164D02*
X0369451Y0020164D01*
X0369451Y0020963D02*
X0370251Y0020963D01*
X0370251Y0021761D02*
X0369451Y0021761D01*
X0369451Y0022560D02*
X0370251Y0022560D01*
X0370251Y0023358D02*
X0369451Y0023358D01*
X0369451Y0024157D02*
X0370251Y0024157D01*
X0370251Y0024955D02*
X0369451Y0024955D01*
X0369451Y0025754D02*
X0370251Y0025754D01*
X0370251Y0026552D02*
X0369451Y0026552D01*
X0369451Y0027351D02*
X0370251Y0027351D01*
X0370251Y0028149D02*
X0369451Y0028149D01*
X0369451Y0028948D02*
X0370251Y0028948D01*
X0370251Y0029746D02*
X0369451Y0029746D01*
X0369451Y0030545D02*
X0370251Y0030545D01*
X0370251Y0031343D02*
X0369451Y0031343D01*
X0369451Y0032142D02*
X0370251Y0032142D01*
X0370251Y0032940D02*
X0369451Y0032940D01*
X0369451Y0033739D02*
X0329851Y0033739D01*
X0347851Y0030545D02*
X0348451Y0030545D01*
X0348451Y0029746D02*
X0347851Y0029746D01*
X0347851Y0028948D02*
X0348451Y0028948D01*
X0348451Y0028149D02*
X0347851Y0028149D01*
X0347851Y0027351D02*
X0348451Y0027351D01*
X0348451Y0026552D02*
X0347851Y0026552D01*
X0347851Y0025754D02*
X0348451Y0025754D01*
X0348451Y0024955D02*
X0347851Y0024955D01*
X0347851Y0024157D02*
X0348451Y0024157D01*
X0356274Y0025754D02*
X0358851Y0025754D01*
X0358851Y0026552D02*
X0356451Y0026552D01*
X0356551Y0027351D02*
X0358851Y0027351D01*
X0358851Y0028149D02*
X0356551Y0028149D01*
X0356551Y0028948D02*
X0358851Y0028948D01*
X0358851Y0029746D02*
X0356551Y0029746D01*
X0356395Y0030545D02*
X0358851Y0030545D01*
X0369451Y0034537D02*
X0370251Y0034537D01*
X0370251Y0035336D02*
X0369451Y0035336D01*
X0369451Y0036134D02*
X0370251Y0036134D01*
X0370251Y0036933D02*
X0369451Y0036933D01*
X0369451Y0037732D02*
X0370251Y0037732D01*
X0370251Y0038530D02*
X0369451Y0038530D01*
X0369451Y0039329D02*
X0370251Y0039329D01*
X0370251Y0040127D02*
X0369451Y0040127D01*
X0369451Y0040926D02*
X0370251Y0040926D01*
X0370251Y0041724D02*
X0369451Y0041724D01*
X0369451Y0042523D02*
X0370251Y0042523D01*
X0370251Y0043321D02*
X0369451Y0043321D01*
X0369451Y0044120D02*
X0370251Y0044120D01*
X0370251Y0044918D02*
X0369451Y0044918D01*
X0369451Y0045717D02*
X0370251Y0045717D01*
X0370251Y0046515D02*
X0369451Y0046515D01*
X0369451Y0047314D02*
X0370251Y0047314D01*
X0372351Y0048112D02*
X0356551Y0048112D01*
X0356551Y0047314D02*
X0359384Y0047314D01*
X0358886Y0046515D02*
X0356430Y0046515D01*
X0356296Y0045717D02*
X0358851Y0045717D01*
X0358851Y0044918D02*
X0356551Y0044918D01*
X0356551Y0044120D02*
X0358851Y0044120D01*
X0356551Y0048911D02*
X0372351Y0048911D01*
X0372351Y0049709D02*
X0356551Y0049709D01*
X0356416Y0050508D02*
X0372351Y0050508D01*
X0348451Y0050508D02*
X0347851Y0050508D01*
X0347851Y0049709D02*
X0348451Y0049709D01*
X0348451Y0048911D02*
X0347851Y0048911D01*
X0347851Y0048112D02*
X0348451Y0048112D01*
X0348451Y0047314D02*
X0347851Y0047314D01*
X0347851Y0046515D02*
X0348451Y0046515D01*
X0348451Y0045717D02*
X0347851Y0045717D01*
X0347851Y0044918D02*
X0348451Y0044918D01*
X0348451Y0044120D02*
X0347851Y0044120D01*
X0347851Y0042523D02*
X0348451Y0042523D01*
X0356551Y0036933D02*
X0358851Y0036933D01*
X0358851Y0024955D02*
X0356551Y0024955D01*
X0356551Y0024157D02*
X0358851Y0024157D01*
X0345951Y0015373D02*
X0329851Y0015373D01*
X0329851Y0014575D02*
X0345951Y0014575D01*
X0345951Y0013776D02*
X0329851Y0013776D01*
X0329851Y0012978D02*
X0345951Y0012978D01*
X0345951Y0012179D02*
X0329851Y0012179D01*
X0329851Y0011381D02*
X0345870Y0011381D01*
X0345072Y0010582D02*
X0329851Y0010582D01*
X0329851Y0009784D02*
X0344273Y0009784D01*
X0343475Y0008985D02*
X0329851Y0008985D01*
X0329851Y0008187D02*
X0342676Y0008187D01*
X0340665Y0016172D02*
X0329851Y0016172D01*
X0329851Y0016970D02*
X0340151Y0016970D01*
X0340151Y0017769D02*
X0329851Y0017769D01*
X0329851Y0018567D02*
X0340151Y0018567D01*
X0340151Y0019366D02*
X0329851Y0019366D01*
X0329851Y0020164D02*
X0340151Y0020164D01*
X0340320Y0020963D02*
X0329851Y0020963D01*
X0329851Y0021761D02*
X0339792Y0021761D01*
X0340637Y0073500D02*
X0348862Y0081725D01*
X0355565Y0081725D01*
X0356151Y0082311D01*
X0356151Y0085939D01*
X0355674Y0086416D01*
X0355691Y0086420D01*
X0356010Y0086605D01*
X0356271Y0086865D01*
X0356455Y0087185D01*
X0356551Y0087541D01*
X0356551Y0088825D01*
X0348451Y0088825D01*
X0348451Y0089425D01*
X0356551Y0089425D01*
X0356551Y0090709D01*
X0356455Y0091065D01*
X0356271Y0091385D01*
X0356031Y0091625D01*
X0356271Y0091865D01*
X0356455Y0092185D01*
X0356551Y0092541D01*
X0356551Y0093825D01*
X0348451Y0093825D01*
X0348451Y0094425D01*
X0356551Y0094425D01*
X0356551Y0095709D01*
X0356455Y0096065D01*
X0356271Y0096385D01*
X0356010Y0096645D01*
X0355691Y0096830D01*
X0355335Y0096925D01*
X0348451Y0096925D01*
X0348451Y0094425D01*
X0347851Y0094425D01*
X0347851Y0096925D01*
X0340966Y0096925D01*
X0340610Y0096830D01*
X0340291Y0096645D01*
X0340030Y0096385D01*
X0339846Y0096065D01*
X0339751Y0095709D01*
X0339751Y0094425D01*
X0347851Y0094425D01*
X0347851Y0093825D01*
X0348451Y0093825D01*
X0348451Y0091925D01*
X0348451Y0089425D01*
X0347851Y0089425D01*
X0347851Y0093825D01*
X0339751Y0093825D01*
X0339751Y0092541D01*
X0339846Y0092185D01*
X0340030Y0091865D01*
X0340271Y0091625D01*
X0340030Y0091385D01*
X0339846Y0091065D01*
X0339751Y0090709D01*
X0339751Y0089425D01*
X0347851Y0089425D01*
X0347851Y0088825D01*
X0339751Y0088825D01*
X0339751Y0087541D01*
X0339846Y0087185D01*
X0340030Y0086865D01*
X0340291Y0086605D01*
X0340610Y0086420D01*
X0340627Y0086416D01*
X0340151Y0085939D01*
X0340151Y0082311D01*
X0340736Y0081725D01*
X0342639Y0081725D01*
X0334414Y0073500D01*
X0329851Y0073500D01*
X0329851Y0124750D01*
X0372351Y0124750D01*
X0372351Y0113225D01*
X0369626Y0113225D01*
X0369626Y0099525D01*
X0368826Y0099525D01*
X0368826Y0113225D01*
X0359441Y0113225D01*
X0359085Y0113130D01*
X0358766Y0112945D01*
X0358505Y0112685D01*
X0358321Y0112365D01*
X0358226Y0112009D01*
X0358226Y0099525D01*
X0368826Y0099525D01*
X0368826Y0098725D01*
X0369626Y0098725D01*
X0369626Y0085025D01*
X0372351Y0085025D01*
X0372351Y0073500D01*
X0340637Y0073500D01*
X0340801Y0073665D02*
X0372351Y0073665D01*
X0372351Y0074463D02*
X0341600Y0074463D01*
X0342398Y0075262D02*
X0372351Y0075262D01*
X0372351Y0076060D02*
X0343197Y0076060D01*
X0343996Y0076859D02*
X0372351Y0076859D01*
X0372351Y0077657D02*
X0344794Y0077657D01*
X0345593Y0078456D02*
X0372351Y0078456D01*
X0372351Y0079254D02*
X0346391Y0079254D01*
X0347190Y0080053D02*
X0372351Y0080053D01*
X0372351Y0080851D02*
X0347988Y0080851D01*
X0348787Y0081650D02*
X0372351Y0081650D01*
X0372351Y0082448D02*
X0356151Y0082448D01*
X0356151Y0083247D02*
X0372351Y0083247D01*
X0372351Y0084045D02*
X0356151Y0084045D01*
X0356151Y0084844D02*
X0372351Y0084844D01*
X0369626Y0085642D02*
X0368826Y0085642D01*
X0368826Y0085025D02*
X0368826Y0098725D01*
X0358226Y0098725D01*
X0358226Y0086241D01*
X0358321Y0085885D01*
X0358505Y0085565D01*
X0358766Y0085305D01*
X0359085Y0085120D01*
X0359441Y0085025D01*
X0368826Y0085025D01*
X0368826Y0086441D02*
X0369626Y0086441D01*
X0369626Y0087239D02*
X0368826Y0087239D01*
X0368826Y0088038D02*
X0369626Y0088038D01*
X0369626Y0088836D02*
X0368826Y0088836D01*
X0368826Y0089635D02*
X0369626Y0089635D01*
X0369626Y0090433D02*
X0368826Y0090433D01*
X0368826Y0091232D02*
X0369626Y0091232D01*
X0369626Y0092030D02*
X0368826Y0092030D01*
X0368826Y0092829D02*
X0369626Y0092829D01*
X0369626Y0093627D02*
X0368826Y0093627D01*
X0368826Y0094426D02*
X0369626Y0094426D01*
X0369626Y0095224D02*
X0368826Y0095224D01*
X0368826Y0096023D02*
X0369626Y0096023D01*
X0369626Y0096821D02*
X0368826Y0096821D01*
X0368826Y0097620D02*
X0369626Y0097620D01*
X0369626Y0098418D02*
X0368826Y0098418D01*
X0368826Y0099217D02*
X0329851Y0099217D01*
X0329851Y0100015D02*
X0358226Y0100015D01*
X0358226Y0100814D02*
X0329851Y0100814D01*
X0329851Y0101612D02*
X0340283Y0101612D01*
X0340291Y0101605D02*
X0340610Y0101420D01*
X0340966Y0101325D01*
X0347851Y0101325D01*
X0347851Y0103825D01*
X0348451Y0103825D01*
X0348451Y0104425D01*
X0356551Y0104425D01*
X0356551Y0105709D01*
X0356455Y0106065D01*
X0356271Y0106385D01*
X0356031Y0106625D01*
X0356271Y0106865D01*
X0356455Y0107185D01*
X0356551Y0107541D01*
X0356551Y0108825D01*
X0348451Y0108825D01*
X0348451Y0109425D01*
X0356551Y0109425D01*
X0356551Y0110709D01*
X0356455Y0111065D01*
X0356271Y0111385D01*
X0356031Y0111625D01*
X0356271Y0111865D01*
X0356455Y0112185D01*
X0356551Y0112541D01*
X0356551Y0113825D01*
X0348451Y0113825D01*
X0348451Y0114425D01*
X0356551Y0114425D01*
X0356551Y0115709D01*
X0356455Y0116065D01*
X0356271Y0116385D01*
X0356010Y0116645D01*
X0355691Y0116830D01*
X0355335Y0116925D01*
X0348451Y0116925D01*
X0348451Y0114425D01*
X0347851Y0114425D01*
X0347851Y0116925D01*
X0340966Y0116925D01*
X0340610Y0116830D01*
X0340291Y0116645D01*
X0340030Y0116385D01*
X0339846Y0116065D01*
X0339751Y0115709D01*
X0339751Y0114425D01*
X0347851Y0114425D01*
X0347851Y0113825D01*
X0348451Y0113825D01*
X0348451Y0111325D01*
X0348451Y0109425D01*
X0347851Y0109425D01*
X0347851Y0113825D01*
X0339751Y0113825D01*
X0339751Y0112541D01*
X0339846Y0112185D01*
X0340030Y0111865D01*
X0340271Y0111625D01*
X0340030Y0111385D01*
X0339846Y0111065D01*
X0339751Y0110709D01*
X0339751Y0109425D01*
X0347851Y0109425D01*
X0347851Y0108825D01*
X0348451Y0108825D01*
X0348451Y0106325D01*
X0348451Y0104425D01*
X0347851Y0104425D01*
X0347851Y0108825D01*
X0339751Y0108825D01*
X0339751Y0107541D01*
X0339846Y0107185D01*
X0340030Y0106865D01*
X0340271Y0106625D01*
X0340030Y0106385D01*
X0339846Y0106065D01*
X0339751Y0105709D01*
X0339751Y0104425D01*
X0347851Y0104425D01*
X0347851Y0103825D01*
X0339751Y0103825D01*
X0339751Y0102541D01*
X0339846Y0102185D01*
X0340030Y0101865D01*
X0340291Y0101605D01*
X0339785Y0102411D02*
X0329851Y0102411D01*
X0329851Y0103209D02*
X0339751Y0103209D01*
X0339751Y0104806D02*
X0329851Y0104806D01*
X0329851Y0104008D02*
X0347851Y0104008D01*
X0348451Y0104008D02*
X0358226Y0104008D01*
X0358226Y0104806D02*
X0356551Y0104806D01*
X0356551Y0105605D02*
X0358226Y0105605D01*
X0358226Y0106403D02*
X0356252Y0106403D01*
X0356460Y0107202D02*
X0358226Y0107202D01*
X0358226Y0108001D02*
X0356551Y0108001D01*
X0356551Y0108799D02*
X0358226Y0108799D01*
X0358226Y0109598D02*
X0356551Y0109598D01*
X0356551Y0110396D02*
X0358226Y0110396D01*
X0358226Y0111195D02*
X0356381Y0111195D01*
X0356345Y0111993D02*
X0358226Y0111993D01*
X0358612Y0112792D02*
X0356551Y0112792D01*
X0356551Y0113590D02*
X0372351Y0113590D01*
X0372351Y0114389D02*
X0348451Y0114389D01*
X0347851Y0114389D02*
X0329851Y0114389D01*
X0329851Y0115187D02*
X0339751Y0115187D01*
X0339825Y0115986D02*
X0329851Y0115986D01*
X0329851Y0116784D02*
X0340532Y0116784D01*
X0339751Y0113590D02*
X0329851Y0113590D01*
X0329851Y0112792D02*
X0339751Y0112792D01*
X0339957Y0111993D02*
X0329851Y0111993D01*
X0329851Y0111195D02*
X0339921Y0111195D01*
X0339751Y0110396D02*
X0329851Y0110396D01*
X0329851Y0109598D02*
X0339751Y0109598D01*
X0339751Y0108799D02*
X0329851Y0108799D01*
X0329851Y0108001D02*
X0339751Y0108001D01*
X0339841Y0107202D02*
X0329851Y0107202D01*
X0329851Y0106403D02*
X0340049Y0106403D01*
X0339751Y0105605D02*
X0329851Y0105605D01*
X0329851Y0098418D02*
X0358226Y0098418D01*
X0358226Y0097620D02*
X0329851Y0097620D01*
X0329851Y0096821D02*
X0340596Y0096821D01*
X0339835Y0096023D02*
X0329851Y0096023D01*
X0329851Y0095224D02*
X0339751Y0095224D01*
X0339751Y0094426D02*
X0329851Y0094426D01*
X0329851Y0093627D02*
X0339751Y0093627D01*
X0339751Y0092829D02*
X0329851Y0092829D01*
X0329851Y0092030D02*
X0339935Y0092030D01*
X0339942Y0091232D02*
X0329851Y0091232D01*
X0329851Y0090433D02*
X0339751Y0090433D01*
X0339751Y0089635D02*
X0329851Y0089635D01*
X0329851Y0088836D02*
X0347851Y0088836D01*
X0348451Y0088836D02*
X0358226Y0088836D01*
X0358226Y0088038D02*
X0356551Y0088038D01*
X0356470Y0087239D02*
X0358226Y0087239D01*
X0358226Y0086441D02*
X0355726Y0086441D01*
X0356151Y0085642D02*
X0358461Y0085642D01*
X0358226Y0089635D02*
X0356551Y0089635D01*
X0356551Y0090433D02*
X0358226Y0090433D01*
X0358226Y0091232D02*
X0356359Y0091232D01*
X0356366Y0092030D02*
X0358226Y0092030D01*
X0358226Y0092829D02*
X0356551Y0092829D01*
X0356551Y0093627D02*
X0358226Y0093627D01*
X0358226Y0094426D02*
X0356551Y0094426D01*
X0356551Y0095224D02*
X0358226Y0095224D01*
X0358226Y0096023D02*
X0356467Y0096023D01*
X0355705Y0096821D02*
X0358226Y0096821D01*
X0358226Y0101612D02*
X0356018Y0101612D01*
X0356010Y0101605D02*
X0356271Y0101865D01*
X0356455Y0102185D01*
X0356551Y0102541D01*
X0356551Y0103825D01*
X0348451Y0103825D01*
X0348451Y0101325D01*
X0355335Y0101325D01*
X0355691Y0101420D01*
X0356010Y0101605D01*
X0356516Y0102411D02*
X0358226Y0102411D01*
X0358226Y0103209D02*
X0356551Y0103209D01*
X0348451Y0103209D02*
X0347851Y0103209D01*
X0347851Y0102411D02*
X0348451Y0102411D01*
X0348451Y0101612D02*
X0347851Y0101612D01*
X0347851Y0104806D02*
X0348451Y0104806D01*
X0348451Y0105605D02*
X0347851Y0105605D01*
X0347851Y0106403D02*
X0348451Y0106403D01*
X0348451Y0107202D02*
X0347851Y0107202D01*
X0347851Y0108001D02*
X0348451Y0108001D01*
X0348451Y0108799D02*
X0347851Y0108799D01*
X0347851Y0109598D02*
X0348451Y0109598D01*
X0348451Y0110396D02*
X0347851Y0110396D01*
X0347851Y0111195D02*
X0348451Y0111195D01*
X0348451Y0111993D02*
X0347851Y0111993D01*
X0347851Y0112792D02*
X0348451Y0112792D01*
X0348451Y0113590D02*
X0347851Y0113590D01*
X0347851Y0115187D02*
X0348451Y0115187D01*
X0348451Y0115986D02*
X0347851Y0115986D01*
X0347851Y0116784D02*
X0348451Y0116784D01*
X0355770Y0116784D02*
X0372351Y0116784D01*
X0372351Y0115986D02*
X0356477Y0115986D01*
X0356551Y0115187D02*
X0372351Y0115187D01*
X0372351Y0117583D02*
X0329851Y0117583D01*
X0329851Y0118381D02*
X0372351Y0118381D01*
X0372351Y0119180D02*
X0329851Y0119180D01*
X0329851Y0119978D02*
X0372351Y0119978D01*
X0372351Y0120777D02*
X0329851Y0120777D01*
X0329851Y0121575D02*
X0372351Y0121575D01*
X0372351Y0122374D02*
X0329851Y0122374D01*
X0329851Y0123172D02*
X0372351Y0123172D01*
X0372351Y0123971D02*
X0329851Y0123971D01*
X0329851Y0136625D02*
X0329851Y0187875D01*
X0372351Y0187875D01*
X0372351Y0176350D01*
X0370251Y0176350D01*
X0370251Y0162650D01*
X0369451Y0162650D01*
X0369451Y0176350D01*
X0360066Y0176350D01*
X0359710Y0176255D01*
X0359391Y0176070D01*
X0359130Y0175810D01*
X0358946Y0175490D01*
X0358851Y0175134D01*
X0358851Y0162650D01*
X0369451Y0162650D01*
X0369451Y0161850D01*
X0370251Y0161850D01*
X0370251Y0148150D01*
X0372351Y0148150D01*
X0372351Y0136625D01*
X0350176Y0136625D01*
X0350176Y0144850D01*
X0355565Y0144850D01*
X0356151Y0145436D01*
X0356151Y0149064D01*
X0355674Y0149541D01*
X0355691Y0149545D01*
X0356010Y0149730D01*
X0356271Y0149990D01*
X0356455Y0150310D01*
X0356551Y0150666D01*
X0356551Y0151950D01*
X0348451Y0151950D01*
X0348451Y0152550D01*
X0356551Y0152550D01*
X0356551Y0153834D01*
X0356455Y0154190D01*
X0356271Y0154510D01*
X0356031Y0154750D01*
X0356271Y0154990D01*
X0356455Y0155310D01*
X0356551Y0155666D01*
X0356551Y0156950D01*
X0348451Y0156950D01*
X0348451Y0157550D01*
X0356551Y0157550D01*
X0356551Y0158834D01*
X0356455Y0159190D01*
X0356271Y0159510D01*
X0356010Y0159770D01*
X0355691Y0159955D01*
X0355335Y0160050D01*
X0348451Y0160050D01*
X0348451Y0157550D01*
X0347851Y0157550D01*
X0347851Y0160050D01*
X0340966Y0160050D01*
X0340610Y0159955D01*
X0340291Y0159770D01*
X0340030Y0159510D01*
X0339846Y0159190D01*
X0339751Y0158834D01*
X0339751Y0157550D01*
X0347851Y0157550D01*
X0347851Y0156950D01*
X0348451Y0156950D01*
X0348451Y0154450D01*
X0348451Y0152550D01*
X0347851Y0152550D01*
X0347851Y0156950D01*
X0339751Y0156950D01*
X0339751Y0155666D01*
X0339846Y0155310D01*
X0340030Y0154990D01*
X0340271Y0154750D01*
X0340030Y0154510D01*
X0339846Y0154190D01*
X0339751Y0153834D01*
X0339751Y0152550D01*
X0347851Y0152550D01*
X0347851Y0151950D01*
X0339751Y0151950D01*
X0339751Y0150666D01*
X0339846Y0150310D01*
X0340030Y0149990D01*
X0340291Y0149730D01*
X0340610Y0149545D01*
X0340627Y0149541D01*
X0340151Y0149064D01*
X0340151Y0145436D01*
X0340736Y0144850D01*
X0345776Y0144850D01*
X0345776Y0136625D01*
X0329851Y0136625D01*
X0329851Y0136747D02*
X0345776Y0136747D01*
X0345776Y0137545D02*
X0329851Y0137545D01*
X0329851Y0138344D02*
X0345776Y0138344D01*
X0345776Y0139142D02*
X0329851Y0139142D01*
X0329851Y0139941D02*
X0345776Y0139941D01*
X0345776Y0140739D02*
X0329851Y0140739D01*
X0329851Y0141538D02*
X0345776Y0141538D01*
X0345776Y0142337D02*
X0329851Y0142337D01*
X0329851Y0143135D02*
X0345776Y0143135D01*
X0345776Y0143934D02*
X0329851Y0143934D01*
X0329851Y0144732D02*
X0345776Y0144732D01*
X0350176Y0144732D02*
X0372351Y0144732D01*
X0372351Y0143934D02*
X0350176Y0143934D01*
X0350176Y0143135D02*
X0372351Y0143135D01*
X0372351Y0142337D02*
X0350176Y0142337D01*
X0350176Y0141538D02*
X0372351Y0141538D01*
X0372351Y0140739D02*
X0350176Y0140739D01*
X0350176Y0139941D02*
X0372351Y0139941D01*
X0372351Y0139142D02*
X0350176Y0139142D01*
X0350176Y0138344D02*
X0372351Y0138344D01*
X0372351Y0137545D02*
X0350176Y0137545D01*
X0350176Y0136747D02*
X0372351Y0136747D01*
X0372351Y0145531D02*
X0356151Y0145531D01*
X0356151Y0146329D02*
X0372351Y0146329D01*
X0372351Y0147128D02*
X0356151Y0147128D01*
X0356151Y0147926D02*
X0372351Y0147926D01*
X0370251Y0148725D02*
X0369451Y0148725D01*
X0369451Y0148150D02*
X0369451Y0161850D01*
X0358851Y0161850D01*
X0358851Y0149366D01*
X0358946Y0149010D01*
X0359130Y0148690D01*
X0359391Y0148430D01*
X0359710Y0148245D01*
X0360066Y0148150D01*
X0369451Y0148150D01*
X0369451Y0149523D02*
X0370251Y0149523D01*
X0370251Y0150322D02*
X0369451Y0150322D01*
X0369451Y0151120D02*
X0370251Y0151120D01*
X0370251Y0151919D02*
X0369451Y0151919D01*
X0369451Y0152717D02*
X0370251Y0152717D01*
X0370251Y0153516D02*
X0369451Y0153516D01*
X0369451Y0154314D02*
X0370251Y0154314D01*
X0370251Y0155113D02*
X0369451Y0155113D01*
X0369451Y0155911D02*
X0370251Y0155911D01*
X0370251Y0156710D02*
X0369451Y0156710D01*
X0369451Y0157508D02*
X0370251Y0157508D01*
X0370251Y0158307D02*
X0369451Y0158307D01*
X0369451Y0159105D02*
X0370251Y0159105D01*
X0370251Y0159904D02*
X0369451Y0159904D01*
X0369451Y0160702D02*
X0370251Y0160702D01*
X0370251Y0161501D02*
X0369451Y0161501D01*
X0369451Y0162299D02*
X0329851Y0162299D01*
X0329851Y0161501D02*
X0358851Y0161501D01*
X0358851Y0160702D02*
X0329851Y0160702D01*
X0329851Y0159904D02*
X0340522Y0159904D01*
X0339823Y0159105D02*
X0329851Y0159105D01*
X0329851Y0158307D02*
X0339751Y0158307D01*
X0339751Y0156710D02*
X0329851Y0156710D01*
X0329851Y0157508D02*
X0347851Y0157508D01*
X0348451Y0157508D02*
X0358851Y0157508D01*
X0358851Y0156710D02*
X0356551Y0156710D01*
X0356551Y0155911D02*
X0358851Y0155911D01*
X0358851Y0155113D02*
X0356342Y0155113D01*
X0356384Y0154314D02*
X0358851Y0154314D01*
X0358851Y0153516D02*
X0356551Y0153516D01*
X0356551Y0152717D02*
X0358851Y0152717D01*
X0358851Y0151919D02*
X0356551Y0151919D01*
X0356551Y0151120D02*
X0358851Y0151120D01*
X0358851Y0150322D02*
X0356458Y0150322D01*
X0355692Y0149523D02*
X0358851Y0149523D01*
X0359111Y0148725D02*
X0356151Y0148725D01*
X0348151Y0147250D02*
X0347976Y0147075D01*
X0347851Y0152717D02*
X0348451Y0152717D01*
X0348451Y0153516D02*
X0347851Y0153516D01*
X0347851Y0154314D02*
X0348451Y0154314D01*
X0348451Y0155113D02*
X0347851Y0155113D01*
X0347851Y0155911D02*
X0348451Y0155911D01*
X0348451Y0156710D02*
X0347851Y0156710D01*
X0347851Y0158307D02*
X0348451Y0158307D01*
X0348451Y0159105D02*
X0347851Y0159105D01*
X0347851Y0159904D02*
X0348451Y0159904D01*
X0348451Y0164450D02*
X0355335Y0164450D01*
X0355691Y0164545D01*
X0356010Y0164730D01*
X0356271Y0164990D01*
X0356455Y0165310D01*
X0356551Y0165666D01*
X0356551Y0166950D01*
X0348451Y0166950D01*
X0348451Y0167550D01*
X0356551Y0167550D01*
X0356551Y0168834D01*
X0356455Y0169190D01*
X0356271Y0169510D01*
X0356031Y0169750D01*
X0356271Y0169990D01*
X0356455Y0170310D01*
X0356551Y0170666D01*
X0356551Y0171950D01*
X0348451Y0171950D01*
X0348451Y0172550D01*
X0356551Y0172550D01*
X0356551Y0173834D01*
X0356455Y0174190D01*
X0356271Y0174510D01*
X0356031Y0174750D01*
X0356271Y0174990D01*
X0356455Y0175310D01*
X0356551Y0175666D01*
X0356551Y0176950D01*
X0348451Y0176950D01*
X0348451Y0177550D01*
X0356551Y0177550D01*
X0356551Y0178834D01*
X0356455Y0179190D01*
X0356271Y0179510D01*
X0356010Y0179770D01*
X0355691Y0179955D01*
X0355335Y0180050D01*
X0348451Y0180050D01*
X0348451Y0177550D01*
X0347851Y0177550D01*
X0347851Y0180050D01*
X0340966Y0180050D01*
X0340610Y0179955D01*
X0340291Y0179770D01*
X0340030Y0179510D01*
X0339846Y0179190D01*
X0339751Y0178834D01*
X0339751Y0177550D01*
X0347851Y0177550D01*
X0347851Y0176950D01*
X0348451Y0176950D01*
X0348451Y0174450D01*
X0348451Y0172550D01*
X0347851Y0172550D01*
X0347851Y0176950D01*
X0339751Y0176950D01*
X0339751Y0175666D01*
X0339846Y0175310D01*
X0340030Y0174990D01*
X0340271Y0174750D01*
X0340030Y0174510D01*
X0339846Y0174190D01*
X0339751Y0173834D01*
X0339751Y0172550D01*
X0347851Y0172550D01*
X0347851Y0171950D01*
X0348451Y0171950D01*
X0348451Y0169450D01*
X0348451Y0167550D01*
X0347851Y0167550D01*
X0347851Y0171950D01*
X0339751Y0171950D01*
X0339751Y0170666D01*
X0339846Y0170310D01*
X0340030Y0169990D01*
X0340271Y0169750D01*
X0340030Y0169510D01*
X0339846Y0169190D01*
X0339751Y0168834D01*
X0339751Y0167550D01*
X0347851Y0167550D01*
X0347851Y0166950D01*
X0348451Y0166950D01*
X0348451Y0164450D01*
X0348451Y0164695D02*
X0347851Y0164695D01*
X0347851Y0164450D02*
X0347851Y0166950D01*
X0339751Y0166950D01*
X0339751Y0165666D01*
X0339846Y0165310D01*
X0340030Y0164990D01*
X0340291Y0164730D01*
X0340610Y0164545D01*
X0340966Y0164450D01*
X0347851Y0164450D01*
X0347851Y0165493D02*
X0348451Y0165493D01*
X0348451Y0166292D02*
X0347851Y0166292D01*
X0347851Y0167090D02*
X0329851Y0167090D01*
X0329851Y0166292D02*
X0339751Y0166292D01*
X0339797Y0165493D02*
X0329851Y0165493D01*
X0329851Y0164695D02*
X0340352Y0164695D01*
X0339751Y0167889D02*
X0329851Y0167889D01*
X0329851Y0168687D02*
X0339751Y0168687D01*
X0340017Y0169486D02*
X0329851Y0169486D01*
X0329851Y0170284D02*
X0339861Y0170284D01*
X0339751Y0171083D02*
X0329851Y0171083D01*
X0329851Y0171881D02*
X0339751Y0171881D01*
X0339751Y0172680D02*
X0329851Y0172680D01*
X0329851Y0173478D02*
X0339751Y0173478D01*
X0339896Y0174277D02*
X0329851Y0174277D01*
X0329851Y0175075D02*
X0339981Y0175075D01*
X0339751Y0175874D02*
X0329851Y0175874D01*
X0329851Y0176672D02*
X0339751Y0176672D01*
X0339751Y0178270D02*
X0329851Y0178270D01*
X0329851Y0179068D02*
X0339813Y0179068D01*
X0340458Y0179867D02*
X0329851Y0179867D01*
X0329851Y0180665D02*
X0372351Y0180665D01*
X0372351Y0179867D02*
X0355844Y0179867D01*
X0356488Y0179068D02*
X0372351Y0179068D01*
X0372351Y0178270D02*
X0356551Y0178270D01*
X0356551Y0176672D02*
X0372351Y0176672D01*
X0372351Y0177471D02*
X0348451Y0177471D01*
X0347851Y0177471D02*
X0329851Y0177471D01*
X0329851Y0181464D02*
X0372351Y0181464D01*
X0372351Y0182262D02*
X0329851Y0182262D01*
X0329851Y0183061D02*
X0372351Y0183061D01*
X0372351Y0183859D02*
X0329851Y0183859D01*
X0329851Y0184658D02*
X0372351Y0184658D01*
X0372351Y0185456D02*
X0329851Y0185456D01*
X0329851Y0186255D02*
X0372351Y0186255D01*
X0372351Y0187053D02*
X0329851Y0187053D01*
X0329851Y0187852D02*
X0372351Y0187852D01*
X0370251Y0175874D02*
X0369451Y0175874D01*
X0369451Y0175075D02*
X0370251Y0175075D01*
X0370251Y0174277D02*
X0369451Y0174277D01*
X0369451Y0173478D02*
X0370251Y0173478D01*
X0370251Y0172680D02*
X0369451Y0172680D01*
X0369451Y0171881D02*
X0370251Y0171881D01*
X0370251Y0171083D02*
X0369451Y0171083D01*
X0369451Y0170284D02*
X0370251Y0170284D01*
X0370251Y0169486D02*
X0369451Y0169486D01*
X0369451Y0168687D02*
X0370251Y0168687D01*
X0370251Y0167889D02*
X0369451Y0167889D01*
X0369451Y0167090D02*
X0370251Y0167090D01*
X0370251Y0166292D02*
X0369451Y0166292D01*
X0369451Y0165493D02*
X0370251Y0165493D01*
X0370251Y0164695D02*
X0369451Y0164695D01*
X0369451Y0163896D02*
X0370251Y0163896D01*
X0370251Y0163098D02*
X0369451Y0163098D01*
X0358851Y0163098D02*
X0329851Y0163098D01*
X0329851Y0163896D02*
X0358851Y0163896D01*
X0358851Y0164695D02*
X0355950Y0164695D01*
X0356504Y0165493D02*
X0358851Y0165493D01*
X0358851Y0166292D02*
X0356551Y0166292D01*
X0356551Y0167889D02*
X0358851Y0167889D01*
X0358851Y0168687D02*
X0356551Y0168687D01*
X0356285Y0169486D02*
X0358851Y0169486D01*
X0358851Y0170284D02*
X0356441Y0170284D01*
X0356551Y0171083D02*
X0358851Y0171083D01*
X0358851Y0171881D02*
X0356551Y0171881D01*
X0356551Y0172680D02*
X0358851Y0172680D01*
X0358851Y0173478D02*
X0356551Y0173478D01*
X0356405Y0174277D02*
X0358851Y0174277D01*
X0358851Y0175075D02*
X0356320Y0175075D01*
X0356551Y0175874D02*
X0359195Y0175874D01*
X0348451Y0175874D02*
X0347851Y0175874D01*
X0347851Y0176672D02*
X0348451Y0176672D01*
X0348451Y0175075D02*
X0347851Y0175075D01*
X0347851Y0174277D02*
X0348451Y0174277D01*
X0348451Y0173478D02*
X0347851Y0173478D01*
X0347851Y0172680D02*
X0348451Y0172680D01*
X0348451Y0171881D02*
X0347851Y0171881D01*
X0347851Y0171083D02*
X0348451Y0171083D01*
X0348451Y0170284D02*
X0347851Y0170284D01*
X0347851Y0169486D02*
X0348451Y0169486D01*
X0348451Y0168687D02*
X0347851Y0168687D01*
X0347851Y0167889D02*
X0348451Y0167889D01*
X0348451Y0167090D02*
X0358851Y0167090D01*
X0358851Y0159904D02*
X0355779Y0159904D01*
X0356478Y0159105D02*
X0358851Y0159105D01*
X0358851Y0158307D02*
X0356551Y0158307D01*
X0339960Y0155113D02*
X0329851Y0155113D01*
X0329851Y0155911D02*
X0339751Y0155911D01*
X0339918Y0154314D02*
X0329851Y0154314D01*
X0329851Y0153516D02*
X0339751Y0153516D01*
X0339751Y0152717D02*
X0329851Y0152717D01*
X0329851Y0151919D02*
X0339751Y0151919D01*
X0339751Y0151120D02*
X0329851Y0151120D01*
X0329851Y0150322D02*
X0339843Y0150322D01*
X0340610Y0149523D02*
X0329851Y0149523D01*
X0329851Y0148725D02*
X0340151Y0148725D01*
X0340151Y0147926D02*
X0329851Y0147926D01*
X0329851Y0147128D02*
X0340151Y0147128D01*
X0340151Y0146329D02*
X0329851Y0146329D01*
X0329851Y0145531D02*
X0340151Y0145531D01*
X0347851Y0178270D02*
X0348451Y0178270D01*
X0348451Y0179068D02*
X0347851Y0179068D01*
X0347851Y0179867D02*
X0348451Y0179867D01*
X0368826Y0112792D02*
X0369626Y0112792D01*
X0369626Y0111993D02*
X0368826Y0111993D01*
X0368826Y0111195D02*
X0369626Y0111195D01*
X0369626Y0110396D02*
X0368826Y0110396D01*
X0368826Y0109598D02*
X0369626Y0109598D01*
X0369626Y0108799D02*
X0368826Y0108799D01*
X0368826Y0108001D02*
X0369626Y0108001D01*
X0369626Y0107202D02*
X0368826Y0107202D01*
X0368826Y0106403D02*
X0369626Y0106403D01*
X0369626Y0105605D02*
X0368826Y0105605D01*
X0368826Y0104806D02*
X0369626Y0104806D01*
X0369626Y0104008D02*
X0368826Y0104008D01*
X0368826Y0103209D02*
X0369626Y0103209D01*
X0369626Y0102411D02*
X0368826Y0102411D01*
X0368826Y0101612D02*
X0369626Y0101612D01*
X0369626Y0100814D02*
X0368826Y0100814D01*
X0368826Y0100015D02*
X0369626Y0100015D01*
X0348451Y0096821D02*
X0347851Y0096821D01*
X0347851Y0096023D02*
X0348451Y0096023D01*
X0348451Y0095224D02*
X0347851Y0095224D01*
X0347851Y0094426D02*
X0348451Y0094426D01*
X0348451Y0093627D02*
X0347851Y0093627D01*
X0347851Y0092829D02*
X0348451Y0092829D01*
X0348451Y0092030D02*
X0347851Y0092030D01*
X0347851Y0091232D02*
X0348451Y0091232D01*
X0348451Y0090433D02*
X0347851Y0090433D01*
X0347851Y0089635D02*
X0348451Y0089635D01*
X0340575Y0086441D02*
X0329851Y0086441D01*
X0329851Y0087239D02*
X0339831Y0087239D01*
X0339751Y0088038D02*
X0329851Y0088038D01*
X0329851Y0085642D02*
X0340151Y0085642D01*
X0340151Y0084844D02*
X0329851Y0084844D01*
X0329851Y0084045D02*
X0340151Y0084045D01*
X0340151Y0083247D02*
X0329851Y0083247D01*
X0329851Y0082448D02*
X0340151Y0082448D01*
X0341766Y0080851D02*
X0329851Y0080851D01*
X0329851Y0080053D02*
X0340967Y0080053D01*
X0340169Y0079254D02*
X0329851Y0079254D01*
X0329851Y0078456D02*
X0339370Y0078456D01*
X0338572Y0077657D02*
X0329851Y0077657D01*
X0329851Y0076859D02*
X0337773Y0076859D01*
X0336974Y0076060D02*
X0329851Y0076060D01*
X0329851Y0075262D02*
X0336176Y0075262D01*
X0335377Y0074463D02*
X0329851Y0074463D01*
X0329851Y0073665D02*
X0334579Y0073665D01*
X0329851Y0081650D02*
X0342564Y0081650D01*
X0228901Y0073665D02*
X0223422Y0073665D01*
X0224221Y0072866D02*
X0228901Y0072866D01*
X0228901Y0072068D02*
X0225019Y0072068D01*
X0225818Y0071269D02*
X0228901Y0071269D01*
X0228901Y0070470D02*
X0226616Y0070470D01*
X0227415Y0069672D02*
X0228901Y0069672D01*
X0228901Y0068873D02*
X0227676Y0068873D01*
X0227676Y0068075D02*
X0228901Y0068075D01*
X0228901Y0067276D02*
X0227676Y0067276D01*
X0227676Y0066478D02*
X0228901Y0066478D01*
X0228901Y0065679D02*
X0227676Y0065679D01*
X0227676Y0064881D02*
X0228901Y0064881D01*
X0228901Y0064082D02*
X0227676Y0064082D01*
X0227676Y0063284D02*
X0228901Y0063284D01*
X0228901Y0062485D02*
X0227676Y0062485D01*
X0227676Y0061687D02*
X0228901Y0061687D01*
X0228901Y0060888D02*
X0227676Y0060888D01*
X0227676Y0060090D02*
X0228901Y0060090D01*
X0228901Y0059291D02*
X0227676Y0059291D01*
X0227676Y0058493D02*
X0228901Y0058493D01*
X0228901Y0057694D02*
X0227676Y0057694D01*
X0227676Y0056896D02*
X0228901Y0056896D01*
X0228901Y0056097D02*
X0227676Y0056097D01*
X0227676Y0055299D02*
X0228901Y0055299D01*
X0228901Y0054500D02*
X0227676Y0054500D01*
X0227676Y0053702D02*
X0228901Y0053702D01*
X0228901Y0052903D02*
X0227676Y0052903D01*
X0227676Y0052105D02*
X0228901Y0052105D01*
X0228901Y0051306D02*
X0227676Y0051306D01*
X0227676Y0050508D02*
X0228901Y0050508D01*
X0228901Y0049709D02*
X0227676Y0049709D01*
X0227676Y0048911D02*
X0228901Y0048911D01*
X0228901Y0048112D02*
X0227676Y0048112D01*
X0227676Y0047314D02*
X0228901Y0047314D01*
X0228901Y0046515D02*
X0227676Y0046515D01*
X0227676Y0045717D02*
X0228901Y0045717D01*
X0228901Y0044918D02*
X0227676Y0044918D01*
X0227676Y0044120D02*
X0228901Y0044120D01*
X0228901Y0043321D02*
X0227676Y0043321D01*
X0227676Y0042523D02*
X0228901Y0042523D01*
X0228901Y0041724D02*
X0227676Y0041724D01*
X0227676Y0040926D02*
X0228901Y0040926D01*
X0228901Y0040127D02*
X0227676Y0040127D01*
X0227676Y0039329D02*
X0228901Y0039329D01*
X0228901Y0038530D02*
X0227676Y0038530D01*
X0227676Y0037732D02*
X0228901Y0037732D01*
X0228901Y0036933D02*
X0227676Y0036933D01*
X0227676Y0036134D02*
X0228901Y0036134D01*
X0228901Y0035336D02*
X0227676Y0035336D01*
X0227676Y0034537D02*
X0228901Y0034537D01*
X0228901Y0033739D02*
X0227676Y0033739D01*
X0227676Y0032940D02*
X0228901Y0032940D01*
X0228901Y0032142D02*
X0227676Y0032142D01*
X0227676Y0031343D02*
X0228901Y0031343D01*
X0228901Y0030545D02*
X0227676Y0030545D01*
X0227676Y0029746D02*
X0228901Y0029746D01*
X0228901Y0028948D02*
X0228062Y0028948D01*
X0228276Y0028149D02*
X0228901Y0028149D01*
X0228901Y0027351D02*
X0228276Y0027351D01*
X0227959Y0026552D02*
X0228901Y0026552D01*
X0228901Y0025754D02*
X0227314Y0025754D01*
X0222676Y0027351D02*
X0056101Y0027351D01*
X0056101Y0028149D02*
X0222676Y0028149D01*
X0222889Y0028948D02*
X0067636Y0028948D01*
X0068788Y0029746D02*
X0223276Y0029746D01*
X0223276Y0030545D02*
X0151882Y0030545D01*
X0152676Y0031343D02*
X0223276Y0031343D01*
X0223276Y0032142D02*
X0152676Y0032142D01*
X0153146Y0032940D02*
X0223276Y0032940D01*
X0223276Y0033739D02*
X0153945Y0033739D01*
X0154743Y0034537D02*
X0223276Y0034537D01*
X0223276Y0035336D02*
X0155542Y0035336D01*
X0156340Y0036134D02*
X0223276Y0036134D01*
X0223276Y0036933D02*
X0157139Y0036933D01*
X0157937Y0037732D02*
X0223276Y0037732D01*
X0223276Y0038530D02*
X0158736Y0038530D01*
X0159534Y0039329D02*
X0223276Y0039329D01*
X0223276Y0040127D02*
X0160333Y0040127D01*
X0161131Y0040926D02*
X0223276Y0040926D01*
X0223276Y0041724D02*
X0161876Y0041724D01*
X0161876Y0042523D02*
X0223276Y0042523D01*
X0223276Y0043321D02*
X0161876Y0043321D01*
X0161876Y0044120D02*
X0193905Y0044120D01*
X0193106Y0044918D02*
X0161876Y0044918D01*
X0161876Y0045717D02*
X0192308Y0045717D01*
X0194670Y0047314D02*
X0201060Y0047314D01*
X0201060Y0048112D02*
X0194069Y0048112D01*
X0194069Y0048911D02*
X0201060Y0048911D01*
X0201060Y0049709D02*
X0194069Y0049709D01*
X0194069Y0050508D02*
X0201060Y0050508D01*
X0201080Y0051306D02*
X0194069Y0051306D01*
X0193956Y0052903D02*
X0201371Y0052903D01*
X0201060Y0053702D02*
X0194069Y0053702D01*
X0191101Y0055596D02*
X0188601Y0058096D01*
X0188601Y0075375D01*
X0182301Y0081674D01*
X0173327Y0081674D01*
X0173327Y0079706D02*
X0181770Y0079706D01*
X0186726Y0074750D01*
X0186726Y0053279D01*
X0191101Y0048904D01*
X0195254Y0044750D01*
X0214447Y0044750D01*
X0218601Y0048904D01*
X0221766Y0048911D02*
X0223276Y0048911D01*
X0223276Y0049709D02*
X0221766Y0049709D01*
X0221766Y0050508D02*
X0223276Y0050508D01*
X0223276Y0051306D02*
X0221746Y0051306D01*
X0221180Y0052628D02*
X0221766Y0053214D01*
X0221766Y0057979D01*
X0221180Y0058565D01*
X0216021Y0058565D01*
X0215435Y0057979D01*
X0215435Y0056775D01*
X0214687Y0056775D01*
X0213887Y0057575D01*
X0212064Y0057575D01*
X0210776Y0056286D01*
X0210776Y0054464D01*
X0212064Y0053175D01*
X0213887Y0053175D01*
X0214687Y0053975D01*
X0215435Y0053975D01*
X0215435Y0053214D01*
X0216021Y0052628D01*
X0221180Y0052628D01*
X0221456Y0052903D02*
X0223276Y0052903D01*
X0223276Y0052105D02*
X0189879Y0052105D01*
X0187517Y0050508D02*
X0169345Y0050508D01*
X0168887Y0050050D02*
X0170176Y0051339D01*
X0170176Y0053161D01*
X0169376Y0053961D01*
X0169376Y0055380D01*
X0169891Y0055896D01*
X0169891Y0060661D01*
X0169305Y0061247D01*
X0164146Y0061247D01*
X0163560Y0060661D01*
X0163560Y0055896D01*
X0164146Y0055310D01*
X0166576Y0055310D01*
X0166576Y0053961D01*
X0165776Y0053161D01*
X0165776Y0051339D01*
X0167064Y0050050D01*
X0168887Y0050050D01*
X0170143Y0051306D02*
X0186718Y0051306D01*
X0185920Y0052105D02*
X0170176Y0052105D01*
X0170176Y0052903D02*
X0185326Y0052903D01*
X0185326Y0053702D02*
X0169635Y0053702D01*
X0169376Y0054500D02*
X0173706Y0054500D01*
X0173536Y0055299D02*
X0169376Y0055299D01*
X0169891Y0056097D02*
X0173536Y0056097D01*
X0173536Y0056896D02*
X0169891Y0056896D01*
X0169891Y0057694D02*
X0173536Y0057694D01*
X0173503Y0058493D02*
X0169891Y0058493D01*
X0169891Y0059291D02*
X0172704Y0059291D01*
X0170775Y0060090D02*
X0169891Y0060090D01*
X0169664Y0060888D02*
X0170151Y0060888D01*
X0170151Y0061687D02*
X0161876Y0061687D01*
X0161876Y0062485D02*
X0163664Y0062485D01*
X0163560Y0063284D02*
X0161876Y0063284D01*
X0161876Y0064082D02*
X0163560Y0064082D01*
X0163560Y0064881D02*
X0161876Y0064881D01*
X0161876Y0065679D02*
X0163560Y0065679D01*
X0163560Y0066478D02*
X0161876Y0066478D01*
X0162482Y0067276D02*
X0163560Y0067276D01*
X0163281Y0068075D02*
X0173656Y0068075D01*
X0173339Y0067276D02*
X0169891Y0067276D01*
X0169891Y0066478D02*
X0173339Y0066478D01*
X0176101Y0064971D02*
X0166726Y0064971D01*
X0169891Y0063284D02*
X0170898Y0063284D01*
X0170151Y0062485D02*
X0169788Y0062485D01*
X0172351Y0061625D02*
X0176504Y0057471D01*
X0176504Y0057250D01*
X0179473Y0056896D02*
X0180229Y0056896D01*
X0180229Y0057694D02*
X0179473Y0057694D01*
X0179473Y0058493D02*
X0180229Y0058493D01*
X0180229Y0059291D02*
X0179473Y0059291D01*
X0179212Y0060090D02*
X0180489Y0060090D01*
X0181797Y0060888D02*
X0175067Y0060888D01*
X0174551Y0061687D02*
X0181797Y0061687D01*
X0180539Y0062485D02*
X0179163Y0062485D01*
X0179670Y0063284D02*
X0180032Y0063284D01*
X0180032Y0064082D02*
X0179670Y0064082D01*
X0179670Y0064881D02*
X0180032Y0064881D01*
X0180032Y0065679D02*
X0179670Y0065679D01*
X0178601Y0066625D02*
X0177754Y0066625D01*
X0176504Y0065375D01*
X0176101Y0064971D01*
X0178601Y0066625D02*
X0182976Y0071000D01*
X0182976Y0073500D01*
X0180707Y0075769D01*
X0173327Y0075769D01*
X0173327Y0077737D02*
X0181238Y0077737D01*
X0184851Y0074125D01*
X0184851Y0067029D01*
X0183197Y0065375D01*
X0183197Y0057250D01*
X0180229Y0056097D02*
X0179473Y0056097D01*
X0179473Y0055299D02*
X0180229Y0055299D01*
X0180399Y0054500D02*
X0179303Y0054500D01*
X0188132Y0049709D02*
X0161876Y0049709D01*
X0161876Y0048911D02*
X0188132Y0048911D01*
X0188132Y0048112D02*
X0161876Y0048112D01*
X0161876Y0047314D02*
X0188132Y0047314D01*
X0188132Y0046515D02*
X0161876Y0046515D01*
X0159076Y0046515D02*
X0150638Y0046515D01*
X0151131Y0047314D02*
X0159076Y0047314D01*
X0159076Y0048112D02*
X0151131Y0048112D01*
X0151131Y0048911D02*
X0159076Y0048911D01*
X0159076Y0049709D02*
X0151131Y0049709D01*
X0151131Y0050508D02*
X0159076Y0050508D01*
X0159076Y0051306D02*
X0151131Y0051306D01*
X0151131Y0052105D02*
X0159076Y0052105D01*
X0159076Y0052903D02*
X0151131Y0052903D01*
X0151131Y0053702D02*
X0159076Y0053702D01*
X0159076Y0054500D02*
X0149851Y0054500D01*
X0151131Y0055299D02*
X0159076Y0055299D01*
X0159076Y0056097D02*
X0151131Y0056097D01*
X0151131Y0056896D02*
X0159076Y0056896D01*
X0159076Y0057694D02*
X0151131Y0057694D01*
X0151131Y0058493D02*
X0159076Y0058493D01*
X0159076Y0059291D02*
X0151131Y0059291D01*
X0151142Y0060090D02*
X0159076Y0060090D01*
X0159076Y0060888D02*
X0151940Y0060888D01*
X0152739Y0061687D02*
X0159076Y0061687D01*
X0159076Y0062485D02*
X0153537Y0062485D01*
X0153556Y0062504D02*
X0153556Y0062504D01*
X0154336Y0063284D02*
X0159076Y0063284D01*
X0159076Y0064082D02*
X0154376Y0064082D01*
X0154376Y0064881D02*
X0159076Y0064881D01*
X0159076Y0065679D02*
X0154376Y0065679D01*
X0154376Y0066478D02*
X0159076Y0066478D01*
X0159076Y0067276D02*
X0154376Y0067276D01*
X0154376Y0068075D02*
X0159321Y0068075D01*
X0160119Y0068873D02*
X0154376Y0068873D01*
X0154376Y0069672D02*
X0160918Y0069672D01*
X0161716Y0070470D02*
X0154376Y0070470D01*
X0154376Y0071269D02*
X0171265Y0071269D01*
X0171927Y0072068D02*
X0154376Y0072068D01*
X0149226Y0074125D02*
X0147582Y0075769D01*
X0140321Y0075769D01*
X0140321Y0077737D02*
X0114363Y0077737D01*
X0110436Y0081664D01*
X0107464Y0081664D01*
X0107464Y0083633D02*
X0110968Y0083633D01*
X0114895Y0079706D01*
X0140321Y0079706D01*
X0140321Y0081674D02*
X0115426Y0081674D01*
X0111499Y0085601D01*
X0107464Y0085601D01*
X0102050Y0083175D02*
X0101726Y0083500D01*
X0102050Y0083175D02*
X0102050Y0078219D01*
X0104019Y0078219D02*
X0107006Y0078219D01*
X0107976Y0077250D01*
X0110176Y0076859D02*
X0113262Y0076859D01*
X0112464Y0077657D02*
X0110176Y0077657D01*
X0109881Y0078456D02*
X0111665Y0078456D01*
X0110867Y0079254D02*
X0109083Y0079254D01*
X0110068Y0080053D02*
X0105610Y0080053D01*
X0105610Y0076060D02*
X0106054Y0076060D01*
X0105428Y0075262D02*
X0106853Y0075262D01*
X0109098Y0075262D02*
X0133484Y0075262D01*
X0133534Y0076060D02*
X0109897Y0076060D01*
X0105924Y0070470D02*
X0103778Y0070470D01*
X0104232Y0069672D02*
X0105873Y0069672D01*
X0105873Y0068873D02*
X0104232Y0068873D01*
X0120078Y0068873D02*
X0120863Y0068873D01*
X0120078Y0069672D02*
X0136920Y0069672D01*
X0136920Y0069762D02*
X0136920Y0067025D01*
X0140479Y0067025D01*
X0140479Y0070978D01*
X0138136Y0070978D01*
X0137780Y0070882D01*
X0137461Y0070698D01*
X0137200Y0070437D01*
X0137016Y0070118D01*
X0136920Y0069762D01*
X0137233Y0070470D02*
X0120028Y0070470D01*
X0123838Y0068873D02*
X0136920Y0068873D01*
X0136920Y0068075D02*
X0124551Y0068075D01*
X0124551Y0067276D02*
X0136920Y0067276D01*
X0136920Y0065679D02*
X0123891Y0065679D01*
X0124551Y0066478D02*
X0140479Y0066478D01*
X0140479Y0066225D02*
X0141279Y0066225D01*
X0141279Y0058900D01*
X0140479Y0058900D01*
X0140479Y0062853D01*
X0140479Y0066225D01*
X0140479Y0065679D02*
X0141279Y0065679D01*
X0141279Y0064881D02*
X0140479Y0064881D01*
X0140479Y0064082D02*
X0141279Y0064082D01*
X0141279Y0063284D02*
X0140479Y0063284D01*
X0140479Y0062485D02*
X0141279Y0062485D01*
X0141279Y0061687D02*
X0140479Y0061687D01*
X0140479Y0060888D02*
X0141279Y0060888D01*
X0141279Y0060090D02*
X0140479Y0060090D01*
X0140479Y0059291D02*
X0141279Y0059291D01*
X0136920Y0057694D02*
X0123601Y0057694D01*
X0123601Y0056896D02*
X0136920Y0056896D01*
X0136920Y0056097D02*
X0123601Y0056097D01*
X0123601Y0055299D02*
X0136937Y0055299D01*
X0137387Y0054500D02*
X0123601Y0054500D01*
X0123601Y0053702D02*
X0136971Y0053702D01*
X0136920Y0052903D02*
X0123601Y0052903D01*
X0123601Y0052105D02*
X0136920Y0052105D01*
X0140479Y0049709D02*
X0141279Y0049709D01*
X0141279Y0048911D02*
X0140479Y0048911D01*
X0140479Y0048112D02*
X0141279Y0048112D01*
X0141279Y0047314D02*
X0140479Y0047314D01*
X0140479Y0046515D02*
X0141279Y0046515D01*
X0147572Y0050375D02*
X0147572Y0058500D01*
X0152976Y0063904D01*
X0161876Y0060888D02*
X0163787Y0060888D01*
X0163560Y0060090D02*
X0161876Y0060090D01*
X0161876Y0059291D02*
X0163560Y0059291D01*
X0163560Y0058493D02*
X0161876Y0058493D01*
X0161876Y0057694D02*
X0163560Y0057694D01*
X0163560Y0056896D02*
X0161876Y0056896D01*
X0161876Y0056097D02*
X0163560Y0056097D01*
X0161876Y0055299D02*
X0166576Y0055299D01*
X0166576Y0054500D02*
X0161876Y0054500D01*
X0161876Y0053702D02*
X0166316Y0053702D01*
X0165776Y0052903D02*
X0161876Y0052903D01*
X0161876Y0052105D02*
X0165776Y0052105D01*
X0165808Y0051306D02*
X0161876Y0051306D01*
X0161876Y0050508D02*
X0166607Y0050508D01*
X0167976Y0052250D02*
X0167976Y0057029D01*
X0166726Y0058279D01*
X0172829Y0068873D02*
X0178869Y0068873D01*
X0179668Y0069672D02*
X0173628Y0069672D01*
X0174426Y0070470D02*
X0180466Y0070470D01*
X0181265Y0071269D02*
X0174727Y0071269D01*
X0174727Y0072068D02*
X0181576Y0072068D01*
X0181576Y0072866D02*
X0180114Y0072866D01*
X0180114Y0073665D02*
X0180831Y0073665D01*
X0190001Y0070470D02*
X0190275Y0070470D01*
X0190001Y0069672D02*
X0191074Y0069672D01*
X0191872Y0068873D02*
X0190001Y0068873D01*
X0190001Y0068075D02*
X0192671Y0068075D01*
X0193469Y0067276D02*
X0190001Y0067276D01*
X0190001Y0066478D02*
X0194268Y0066478D01*
X0195066Y0065679D02*
X0190001Y0065679D01*
X0190001Y0064881D02*
X0195865Y0064881D01*
X0196726Y0066000D02*
X0204851Y0066000D01*
X0213379Y0066000D01*
X0214226Y0065154D01*
X0217391Y0064881D02*
X0223276Y0064881D01*
X0223276Y0065679D02*
X0217391Y0065679D01*
X0217391Y0066478D02*
X0223276Y0066478D01*
X0223276Y0067276D02*
X0217391Y0067276D01*
X0216852Y0068075D02*
X0222789Y0068075D01*
X0221991Y0068873D02*
X0195832Y0068873D01*
X0196631Y0068075D02*
X0203814Y0068075D01*
X0205887Y0068075D02*
X0211599Y0068075D01*
X0211060Y0064082D02*
X0206044Y0064082D01*
X0203657Y0064082D02*
X0190001Y0064082D01*
X0190001Y0063284D02*
X0211060Y0063284D01*
X0211346Y0062485D02*
X0190001Y0062485D01*
X0190001Y0061687D02*
X0223276Y0061687D01*
X0223276Y0062485D02*
X0217106Y0062485D01*
X0217391Y0063284D02*
X0223276Y0063284D01*
X0223276Y0064082D02*
X0217391Y0064082D01*
X0223276Y0060888D02*
X0190001Y0060888D01*
X0190001Y0060090D02*
X0223276Y0060090D01*
X0223276Y0059291D02*
X0190001Y0059291D01*
X0193752Y0058493D02*
X0201574Y0058493D01*
X0201060Y0057694D02*
X0194069Y0057694D01*
X0191101Y0055596D02*
X0204226Y0055596D01*
X0207391Y0055299D02*
X0210776Y0055299D01*
X0210776Y0056097D02*
X0207391Y0056097D01*
X0207391Y0056896D02*
X0211385Y0056896D01*
X0212976Y0055375D02*
X0217129Y0055375D01*
X0218601Y0055596D01*
X0221766Y0055299D02*
X0223276Y0055299D01*
X0223276Y0056097D02*
X0221766Y0056097D01*
X0221766Y0056896D02*
X0223276Y0056896D01*
X0223276Y0057694D02*
X0221766Y0057694D01*
X0221252Y0058493D02*
X0223276Y0058493D01*
X0215949Y0058493D02*
X0206877Y0058493D01*
X0207391Y0057694D02*
X0215435Y0057694D01*
X0215435Y0056896D02*
X0214566Y0056896D01*
X0214414Y0053702D02*
X0215435Y0053702D01*
X0215746Y0052903D02*
X0207081Y0052903D01*
X0207391Y0053702D02*
X0211538Y0053702D01*
X0210776Y0054500D02*
X0207391Y0054500D01*
X0207371Y0051306D02*
X0208921Y0051306D01*
X0210781Y0051306D02*
X0215455Y0051306D01*
X0215435Y0050508D02*
X0211579Y0050508D01*
X0212051Y0049709D02*
X0215435Y0049709D01*
X0215435Y0048911D02*
X0212051Y0048911D01*
X0211949Y0048112D02*
X0215435Y0048112D01*
X0215031Y0047314D02*
X0211151Y0047314D01*
X0209851Y0049125D02*
X0204447Y0049125D01*
X0204226Y0048904D01*
X0207391Y0047314D02*
X0208551Y0047314D01*
X0207385Y0046515D02*
X0214232Y0046515D01*
X0216595Y0044918D02*
X0223276Y0044918D01*
X0223276Y0044120D02*
X0215797Y0044120D01*
X0217394Y0045717D02*
X0223276Y0045717D01*
X0223276Y0046515D02*
X0221760Y0046515D01*
X0221766Y0047314D02*
X0223276Y0047314D01*
X0223276Y0048112D02*
X0221766Y0048112D01*
X0221766Y0053702D02*
X0223276Y0053702D01*
X0223276Y0054500D02*
X0221766Y0054500D01*
X0201066Y0046515D02*
X0195469Y0046515D01*
X0159076Y0045717D02*
X0149851Y0045717D01*
X0149851Y0044918D02*
X0159076Y0044918D01*
X0159076Y0044120D02*
X0149851Y0044120D01*
X0149851Y0043321D02*
X0159076Y0043321D01*
X0158768Y0042523D02*
X0149851Y0042523D01*
X0149851Y0041724D02*
X0157970Y0041724D01*
X0157171Y0040926D02*
X0149851Y0040926D01*
X0149851Y0040127D02*
X0156373Y0040127D01*
X0153977Y0037732D02*
X0131026Y0037732D01*
X0129451Y0035336D02*
X0129001Y0035336D01*
X0126158Y0035336D02*
X0068158Y0035336D01*
X0069801Y0032940D02*
X0148276Y0032940D01*
X0148276Y0032142D02*
X0069801Y0032142D01*
X0069722Y0031343D02*
X0148276Y0031343D01*
X0149069Y0030545D02*
X0069391Y0030545D01*
X0059565Y0028948D02*
X0056101Y0028948D01*
X0056101Y0029746D02*
X0058413Y0029746D01*
X0057810Y0030545D02*
X0056101Y0030545D01*
X0056101Y0031343D02*
X0057480Y0031343D01*
X0057401Y0032142D02*
X0056101Y0032142D01*
X0056101Y0032940D02*
X0057401Y0032940D01*
X0057721Y0033739D02*
X0056101Y0033739D01*
X0056101Y0034537D02*
X0058197Y0034537D01*
X0059044Y0035336D02*
X0056101Y0035336D01*
X0056101Y0036134D02*
X0125408Y0036134D01*
X0125326Y0036933D02*
X0056101Y0036933D01*
X0056101Y0039329D02*
X0058265Y0039329D01*
X0057608Y0040127D02*
X0056101Y0040127D01*
X0056101Y0040926D02*
X0057220Y0040926D01*
X0057027Y0041724D02*
X0056101Y0041724D01*
X0106328Y0052903D02*
X0108018Y0052903D01*
X0106328Y0053702D02*
X0121726Y0053702D01*
X0121726Y0054500D02*
X0105998Y0054500D01*
X0129001Y0044918D02*
X0129451Y0044918D01*
X0140479Y0067276D02*
X0141279Y0067276D01*
X0141279Y0068075D02*
X0140479Y0068075D01*
X0140479Y0068873D02*
X0141279Y0068873D01*
X0141279Y0069672D02*
X0140479Y0069672D01*
X0140479Y0070470D02*
X0141279Y0070470D01*
X0140321Y0072068D02*
X0140321Y0072068D01*
X0140321Y0072866D02*
X0140321Y0072866D01*
X0140321Y0073665D02*
X0140321Y0073665D01*
X0152153Y0080053D02*
X0158937Y0080053D01*
X0158901Y0079254D02*
X0152951Y0079254D01*
X0151354Y0080851D02*
X0158138Y0080851D01*
X0157651Y0081650D02*
X0150556Y0081650D01*
X0149757Y0082448D02*
X0157651Y0082448D01*
X0157736Y0083247D02*
X0148959Y0083247D01*
X0148160Y0084045D02*
X0158535Y0084045D01*
X0158521Y0084844D02*
X0147362Y0084844D01*
X0147109Y0087239D02*
X0148370Y0087239D01*
X0148219Y0088038D02*
X0147109Y0088038D01*
X0147109Y0088836D02*
X0148219Y0088836D01*
X0148219Y0089635D02*
X0147109Y0089635D01*
X0147109Y0090433D02*
X0148219Y0090433D01*
X0148219Y0091232D02*
X0147109Y0091232D01*
X0147109Y0092030D02*
X0148219Y0092030D01*
X0148219Y0092829D02*
X0147109Y0092829D01*
X0147109Y0093627D02*
X0148219Y0093627D01*
X0148219Y0094426D02*
X0147109Y0094426D01*
X0147109Y0095224D02*
X0148219Y0095224D01*
X0148219Y0096023D02*
X0147109Y0096023D01*
X0147109Y0096821D02*
X0148219Y0096821D01*
X0148219Y0097620D02*
X0147109Y0097620D01*
X0147082Y0098418D02*
X0148219Y0098418D01*
X0148219Y0099217D02*
X0147109Y0099217D01*
X0147109Y0100015D02*
X0151389Y0100015D01*
X0148219Y0100814D02*
X0147109Y0100814D01*
X0147109Y0101612D02*
X0148219Y0101612D01*
X0148219Y0102411D02*
X0147109Y0102411D01*
X0147109Y0103209D02*
X0148219Y0103209D01*
X0148219Y0104008D02*
X0147109Y0104008D01*
X0147109Y0104806D02*
X0148219Y0104806D01*
X0148219Y0105605D02*
X0147109Y0105605D01*
X0147859Y0106403D02*
X0148219Y0106403D01*
X0156326Y0106403D02*
X0157126Y0106403D01*
X0157126Y0107202D02*
X0156326Y0107202D01*
X0156326Y0108001D02*
X0157126Y0108001D01*
X0157126Y0108799D02*
X0156326Y0108799D01*
X0156326Y0109598D02*
X0157126Y0109598D01*
X0157126Y0110396D02*
X0156326Y0110396D01*
X0156326Y0111195D02*
X0157126Y0111195D01*
X0157126Y0111993D02*
X0156326Y0111993D01*
X0156326Y0112792D02*
X0157126Y0112792D01*
X0157126Y0113590D02*
X0156326Y0113590D01*
X0173327Y0099391D02*
X0188866Y0099391D01*
X0189851Y0100375D01*
X0190411Y0094054D02*
X0180514Y0094054D01*
X0180514Y0093485D01*
X0180514Y0092917D01*
X0187414Y0092917D01*
X0189806Y0090525D01*
X0190806Y0090525D01*
X0190411Y0090920D01*
X0190411Y0094054D01*
X0190411Y0093627D02*
X0180514Y0093627D01*
X0187502Y0092829D02*
X0190411Y0092829D01*
X0190411Y0092030D02*
X0188300Y0092030D01*
X0189099Y0091232D02*
X0190411Y0091232D01*
X0186302Y0089548D02*
X0189851Y0086000D01*
X0189226Y0082250D02*
X0213379Y0082250D01*
X0210273Y0080053D02*
X0198624Y0080053D01*
X0199423Y0079254D02*
X0210273Y0079254D01*
X0210273Y0078456D02*
X0203666Y0078456D01*
X0190476Y0076000D02*
X0190476Y0072250D01*
X0196726Y0066000D01*
X0190476Y0076000D02*
X0182833Y0083643D01*
X0173327Y0083643D01*
X0173327Y0087580D02*
X0173032Y0087875D01*
X0167551Y0087875D01*
X0161926Y0082250D01*
X0159851Y0082250D01*
X0165476Y0079125D02*
X0165476Y0075375D01*
X0167050Y0073800D01*
X0164076Y0076859D02*
X0162571Y0076859D01*
X0163301Y0077657D02*
X0163832Y0077657D01*
X0173327Y0087580D02*
X0183896Y0087580D01*
X0189226Y0082250D01*
X0186302Y0089548D02*
X0173327Y0089548D01*
X0117976Y0123279D02*
X0116726Y0122029D01*
X0096145Y0118381D02*
X0096145Y0118381D01*
X0096145Y0117583D02*
X0096145Y0117583D01*
X0096145Y0116784D02*
X0096145Y0116784D01*
X0096145Y0115986D02*
X0096145Y0115986D01*
X0096145Y0115187D02*
X0096145Y0115187D01*
X0095304Y0118381D02*
X0072574Y0118381D01*
X0070212Y0116784D02*
X0056101Y0116784D01*
X0056101Y0115986D02*
X0071010Y0115986D01*
X0069413Y0117583D02*
X0056101Y0117583D01*
X0056101Y0118381D02*
X0068615Y0118381D01*
X0067816Y0119180D02*
X0056101Y0119180D01*
X0056101Y0119978D02*
X0067018Y0119978D01*
X0075076Y0119978D02*
X0075876Y0119978D01*
X0075876Y0120777D02*
X0075076Y0120777D01*
X0075076Y0121575D02*
X0075876Y0121575D01*
X0080025Y0125568D02*
X0095803Y0125568D01*
X0095004Y0126366D02*
X0079995Y0126366D01*
X0079509Y0127165D02*
X0094206Y0127165D01*
X0093407Y0127963D02*
X0079572Y0127963D01*
X0079625Y0128762D02*
X0092609Y0128762D01*
X0091810Y0129560D02*
X0079625Y0129560D01*
X0088081Y0135150D02*
X0095995Y0135150D01*
X0094370Y0135948D02*
X0089706Y0135948D01*
X0090504Y0136747D02*
X0093572Y0136747D01*
X0093190Y0140739D02*
X0090887Y0140739D01*
X0090470Y0141538D02*
X0093607Y0141538D01*
X0094405Y0142337D02*
X0089671Y0142337D01*
X0089000Y0145531D02*
X0095076Y0145531D01*
X0093990Y0146329D02*
X0090087Y0146329D01*
X0090728Y0147128D02*
X0093348Y0147128D01*
X0093018Y0147926D02*
X0091059Y0147926D01*
X0091226Y0148725D02*
X0092851Y0148725D01*
X0092851Y0149523D02*
X0091226Y0149523D01*
X0091060Y0150322D02*
X0093017Y0150322D01*
X0093348Y0151120D02*
X0090729Y0151120D01*
X0090089Y0151919D02*
X0093987Y0151919D01*
X0095070Y0152717D02*
X0089006Y0152717D01*
X0121620Y0163098D02*
X0130126Y0163098D01*
X0130126Y0162299D02*
X0122774Y0162299D01*
X0134844Y0164695D02*
X0178601Y0164695D01*
X0178601Y0165493D02*
X0135642Y0165493D01*
X0137647Y0154314D02*
X0140411Y0154314D01*
X0146348Y0151120D02*
X0147104Y0151120D01*
X0147104Y0150322D02*
X0146348Y0150322D01*
X0146200Y0149523D02*
X0147251Y0149523D01*
X0132126Y0142337D02*
X0131326Y0142337D01*
X0131326Y0141538D02*
X0132126Y0141538D01*
X0132126Y0140739D02*
X0131326Y0140739D01*
X0131326Y0139941D02*
X0132126Y0139941D01*
X0132126Y0139142D02*
X0131326Y0139142D01*
X0131326Y0138344D02*
X0132126Y0138344D01*
X0074491Y0114637D02*
X0074339Y0114637D01*
X0176813Y0183061D02*
X0177263Y0183061D01*
X0177263Y0183859D02*
X0176813Y0183859D01*
X0176813Y0184658D02*
X0177263Y0184658D01*
X0181813Y0184658D02*
X0182263Y0184658D01*
X0182263Y0183859D02*
X0181813Y0183859D01*
X0181813Y0183061D02*
X0182263Y0183061D01*
X0182263Y0188650D02*
X0181813Y0188650D01*
X0181813Y0189449D02*
X0182263Y0189449D01*
X0182263Y0190247D02*
X0181813Y0190247D01*
X0178601Y0192643D02*
X0056101Y0192643D01*
X0056101Y0193441D02*
X0178601Y0193441D01*
X0177263Y0190247D02*
X0176813Y0190247D01*
X0176813Y0189449D02*
X0177263Y0189449D01*
X0177263Y0188650D02*
X0176813Y0188650D01*
X0087746Y0187053D02*
X0083672Y0187053D01*
D37*
X0198197Y0107875D02*
X0203601Y0107875D01*
X0201010Y0094437D02*
X0213913Y0094437D01*
X0201010Y0094437D02*
X0200072Y0093500D01*
X0194004Y0076000D02*
X0194004Y0073096D01*
X0195476Y0071625D01*
X0214004Y0071625D01*
X0214447Y0071625D02*
X0222351Y0071625D01*
X0225476Y0068500D01*
X0225476Y0027875D01*
X0231101Y0019750D02*
X0231101Y0076000D01*
X0302976Y0069125D02*
X0333151Y0069125D01*
X0348151Y0084125D01*
X0347976Y0128500D02*
X0347976Y0147075D01*
X0273601Y0128500D02*
X0248601Y0128500D01*
X0098913Y0095375D02*
X0095163Y0095375D01*
X0084226Y0106312D01*
X0066101Y0094750D02*
X0065476Y0095375D01*
X0231101Y0019750D02*
X0246101Y0004750D01*
X0342351Y0004750D01*
X0348151Y0010550D01*
X0348151Y0018500D01*
D38*
X0302976Y0069125D03*
X0231101Y0076000D03*
X0213913Y0094437D03*
X0203601Y0107875D03*
X0248601Y0128500D03*
X0273601Y0128500D03*
X0347976Y0128500D03*
X0225476Y0027875D03*
X0098913Y0095375D03*
X0084226Y0106312D03*
X0065476Y0095375D03*
D39*
X0075476Y0087562D03*
X0077351Y0073500D03*
X0101726Y0083500D03*
X0107976Y0077250D03*
X0122351Y0067250D03*
X0109226Y0051000D03*
X0108601Y0042250D03*
X0150476Y0032250D03*
X0167976Y0052250D03*
X0172351Y0061625D03*
X0165476Y0079125D03*
X0161101Y0078500D03*
X0159851Y0082250D03*
X0160476Y0086000D03*
X0162351Y0089750D03*
X0158601Y0089750D03*
X0154851Y0089750D03*
X0151101Y0089750D03*
X0151101Y0092875D03*
X0154851Y0092875D03*
X0158601Y0092875D03*
X0162351Y0092875D03*
X0186726Y0104125D03*
X0189851Y0100375D03*
X0189226Y0092875D03*
X0189851Y0086000D03*
X0204851Y0066000D03*
X0212976Y0055375D03*
X0209851Y0049125D03*
X0252351Y0046000D03*
X0256726Y0041625D03*
X0252351Y0036625D03*
X0256726Y0032875D03*
X0252351Y0028500D03*
X0256726Y0024750D03*
X0281101Y0064125D03*
X0360476Y0057250D03*
X0365476Y0057250D03*
X0365476Y0053500D03*
X0360476Y0053500D03*
X0360476Y0049750D03*
X0365476Y0049750D03*
X0370476Y0049750D03*
X0370476Y0053500D03*
X0370476Y0057250D03*
X0370476Y0075375D03*
X0370476Y0079125D03*
X0370476Y0082875D03*
X0365476Y0082875D03*
X0360476Y0082875D03*
X0360476Y0079125D03*
X0365476Y0079125D03*
X0365476Y0075375D03*
X0360476Y0075375D03*
X0360476Y0114750D03*
X0365476Y0114750D03*
X0365476Y0118500D03*
X0360476Y0118500D03*
X0360476Y0122250D03*
X0365476Y0122250D03*
X0370476Y0122250D03*
X0370476Y0118500D03*
X0370476Y0114750D03*
X0370476Y0138500D03*
X0370476Y0142250D03*
X0370476Y0146000D03*
X0365476Y0146000D03*
X0360476Y0146000D03*
X0360476Y0142250D03*
X0365476Y0142250D03*
X0365476Y0138500D03*
X0360476Y0138500D03*
X0360476Y0178500D03*
X0360476Y0182250D03*
X0365476Y0182250D03*
X0365476Y0178500D03*
X0370476Y0178500D03*
X0370476Y0182250D03*
X0370476Y0186000D03*
X0365476Y0186000D03*
X0360476Y0186000D03*
X0277351Y0132875D03*
X0245476Y0136000D03*
X0245476Y0139750D03*
X0245476Y0142875D03*
X0245476Y0146625D03*
X0212351Y0172875D03*
X0212351Y0177250D03*
X0207351Y0177250D03*
X0202351Y0177250D03*
X0202351Y0172875D03*
X0207351Y0172875D03*
X0162976Y0181000D03*
X0142976Y0180375D03*
X0142976Y0161000D03*
X0167351Y0141625D03*
X0184851Y0135375D03*
X0182976Y0121625D03*
X0165476Y0117250D03*
X0160476Y0114750D03*
X0162351Y0111000D03*
X0162351Y0107875D03*
X0158601Y0107875D03*
X0158601Y0111000D03*
X0154851Y0111000D03*
X0154851Y0107875D03*
X0151101Y0107875D03*
X0151101Y0111000D03*
X0147976Y0117875D03*
X0149226Y0126000D03*
X0137976Y0132875D03*
X0111726Y0132875D03*
X0102976Y0121000D03*
X0112976Y0117250D03*
X0126726Y0116625D03*
X0127351Y0112875D03*
X0130476Y0110375D03*
X0132351Y0107875D03*
X0129226Y0104125D03*
X0102351Y0107875D03*
X0097976Y0106625D03*
X0089851Y0103500D03*
X0081726Y0101312D03*
X0065476Y0105375D03*
X0066726Y0122250D03*
X0184851Y0111625D03*
X0244226Y0114125D03*
X0360476Y0017250D03*
X0365476Y0017250D03*
X0365476Y0013500D03*
X0360476Y0013500D03*
X0360476Y0009750D03*
X0365476Y0009750D03*
X0370476Y0009750D03*
X0370476Y0013500D03*
X0370476Y0017250D03*
D40*
X0348151Y0023500D02*
X0348151Y0028500D01*
X0348151Y0038500D02*
X0348151Y0043500D01*
X0348151Y0048500D01*
X0348151Y0089125D02*
X0348151Y0094125D01*
X0348151Y0104125D01*
X0348151Y0109125D01*
X0348151Y0114125D01*
X0369226Y0099125D02*
X0366101Y0094125D01*
X0348151Y0152250D02*
X0348151Y0157250D01*
X0348151Y0167250D01*
X0348151Y0172250D01*
X0348151Y0177250D01*
X0362351Y0167250D02*
X0369851Y0162250D01*
X0162976Y0181000D02*
X0152351Y0181000D01*
X0142351Y0171000D01*
X0138886Y0171000D01*
X0121661Y0188225D01*
X0117051Y0188225D01*
X0138886Y0171000D02*
X0131726Y0163840D01*
X0131726Y0157855D01*
X0137331Y0152250D01*
X0143379Y0152250D01*
X0143601Y0152029D01*
X0143601Y0139346D01*
X0140697Y0139346D01*
X0131322Y0129971D01*
X0126726Y0129971D01*
X0117976Y0129971D01*
X0117976Y0137875D01*
X0116726Y0139125D01*
X0099851Y0139125D01*
X0084226Y0139125D01*
D41*
X0228601Y0151000D02*
X0277351Y0151000D01*
X0288601Y0162250D01*
X0288601Y0099125D01*
X0288601Y0033500D01*
M02*
