G75*
%MOIN*%
%OFA0B0*%
%FSLAX25Y25*%
%IPPOS*%
%LPD*%
%AMOC8*
5,1,8,0,0,1.08239X$1,22.5*
%
%ADD10C,0.00000*%
%ADD11R,0.04724X0.03150*%
%ADD12R,0.05118X0.05906*%
%ADD13R,0.21654X0.07283*%
%ADD14R,0.04331X0.03937*%
%ADD15R,0.04331X0.04331*%
%ADD16C,0.06000*%
%ADD17R,0.10630X0.31496*%
%ADD18R,0.03937X0.04331*%
%ADD19R,0.19200X0.25400*%
%ADD20R,0.09600X0.22000*%
%ADD21R,0.09600X0.03500*%
%ADD22R,0.78000X0.52000*%
%ADD23R,0.14000X0.02800*%
%ADD24R,0.07480X0.04331*%
%ADD25C,0.05200*%
%ADD26C,0.03600*%
%ADD27C,0.02400*%
%ADD28C,0.00800*%
%ADD29C,0.02400*%
%ADD30C,0.01200*%
%ADD31C,0.01600*%
D10*
X0047976Y0001000D02*
X0047976Y0195000D01*
X0384226Y0195000D01*
X0384226Y0001000D01*
X0047976Y0001000D01*
X0152789Y0100375D02*
X0152791Y0100500D01*
X0152797Y0100625D01*
X0152807Y0100749D01*
X0152821Y0100873D01*
X0152838Y0100997D01*
X0152860Y0101120D01*
X0152886Y0101242D01*
X0152915Y0101364D01*
X0152948Y0101484D01*
X0152986Y0101603D01*
X0153026Y0101722D01*
X0153071Y0101838D01*
X0153119Y0101953D01*
X0153171Y0102067D01*
X0153227Y0102179D01*
X0153286Y0102289D01*
X0153348Y0102397D01*
X0153414Y0102504D01*
X0153483Y0102608D01*
X0153556Y0102709D01*
X0153631Y0102809D01*
X0153710Y0102906D01*
X0153792Y0103000D01*
X0153877Y0103092D01*
X0153964Y0103181D01*
X0154055Y0103267D01*
X0154148Y0103350D01*
X0154244Y0103431D01*
X0154342Y0103508D01*
X0154442Y0103582D01*
X0154545Y0103653D01*
X0154650Y0103720D01*
X0154758Y0103785D01*
X0154867Y0103845D01*
X0154978Y0103903D01*
X0155091Y0103956D01*
X0155205Y0104006D01*
X0155321Y0104053D01*
X0155438Y0104095D01*
X0155557Y0104134D01*
X0155677Y0104170D01*
X0155798Y0104201D01*
X0155920Y0104229D01*
X0156042Y0104252D01*
X0156166Y0104272D01*
X0156290Y0104288D01*
X0156414Y0104300D01*
X0156539Y0104308D01*
X0156664Y0104312D01*
X0156788Y0104312D01*
X0156913Y0104308D01*
X0157038Y0104300D01*
X0157162Y0104288D01*
X0157286Y0104272D01*
X0157410Y0104252D01*
X0157532Y0104229D01*
X0157654Y0104201D01*
X0157775Y0104170D01*
X0157895Y0104134D01*
X0158014Y0104095D01*
X0158131Y0104053D01*
X0158247Y0104006D01*
X0158361Y0103956D01*
X0158474Y0103903D01*
X0158585Y0103845D01*
X0158695Y0103785D01*
X0158802Y0103720D01*
X0158907Y0103653D01*
X0159010Y0103582D01*
X0159110Y0103508D01*
X0159208Y0103431D01*
X0159304Y0103350D01*
X0159397Y0103267D01*
X0159488Y0103181D01*
X0159575Y0103092D01*
X0159660Y0103000D01*
X0159742Y0102906D01*
X0159821Y0102809D01*
X0159896Y0102709D01*
X0159969Y0102608D01*
X0160038Y0102504D01*
X0160104Y0102397D01*
X0160166Y0102289D01*
X0160225Y0102179D01*
X0160281Y0102067D01*
X0160333Y0101953D01*
X0160381Y0101838D01*
X0160426Y0101722D01*
X0160466Y0101603D01*
X0160504Y0101484D01*
X0160537Y0101364D01*
X0160566Y0101242D01*
X0160592Y0101120D01*
X0160614Y0100997D01*
X0160631Y0100873D01*
X0160645Y0100749D01*
X0160655Y0100625D01*
X0160661Y0100500D01*
X0160663Y0100375D01*
X0160661Y0100250D01*
X0160655Y0100125D01*
X0160645Y0100001D01*
X0160631Y0099877D01*
X0160614Y0099753D01*
X0160592Y0099630D01*
X0160566Y0099508D01*
X0160537Y0099386D01*
X0160504Y0099266D01*
X0160466Y0099147D01*
X0160426Y0099028D01*
X0160381Y0098912D01*
X0160333Y0098797D01*
X0160281Y0098683D01*
X0160225Y0098571D01*
X0160166Y0098461D01*
X0160104Y0098353D01*
X0160038Y0098246D01*
X0159969Y0098142D01*
X0159896Y0098041D01*
X0159821Y0097941D01*
X0159742Y0097844D01*
X0159660Y0097750D01*
X0159575Y0097658D01*
X0159488Y0097569D01*
X0159397Y0097483D01*
X0159304Y0097400D01*
X0159208Y0097319D01*
X0159110Y0097242D01*
X0159010Y0097168D01*
X0158907Y0097097D01*
X0158802Y0097030D01*
X0158694Y0096965D01*
X0158585Y0096905D01*
X0158474Y0096847D01*
X0158361Y0096794D01*
X0158247Y0096744D01*
X0158131Y0096697D01*
X0158014Y0096655D01*
X0157895Y0096616D01*
X0157775Y0096580D01*
X0157654Y0096549D01*
X0157532Y0096521D01*
X0157410Y0096498D01*
X0157286Y0096478D01*
X0157162Y0096462D01*
X0157038Y0096450D01*
X0156913Y0096442D01*
X0156788Y0096438D01*
X0156664Y0096438D01*
X0156539Y0096442D01*
X0156414Y0096450D01*
X0156290Y0096462D01*
X0156166Y0096478D01*
X0156042Y0096498D01*
X0155920Y0096521D01*
X0155798Y0096549D01*
X0155677Y0096580D01*
X0155557Y0096616D01*
X0155438Y0096655D01*
X0155321Y0096697D01*
X0155205Y0096744D01*
X0155091Y0096794D01*
X0154978Y0096847D01*
X0154867Y0096905D01*
X0154757Y0096965D01*
X0154650Y0097030D01*
X0154545Y0097097D01*
X0154442Y0097168D01*
X0154342Y0097242D01*
X0154244Y0097319D01*
X0154148Y0097400D01*
X0154055Y0097483D01*
X0153964Y0097569D01*
X0153877Y0097658D01*
X0153792Y0097750D01*
X0153710Y0097844D01*
X0153631Y0097941D01*
X0153556Y0098041D01*
X0153483Y0098142D01*
X0153414Y0098246D01*
X0153348Y0098353D01*
X0153286Y0098461D01*
X0153227Y0098571D01*
X0153171Y0098683D01*
X0153119Y0098797D01*
X0153071Y0098912D01*
X0153026Y0099028D01*
X0152986Y0099147D01*
X0152948Y0099266D01*
X0152915Y0099386D01*
X0152886Y0099508D01*
X0152860Y0099630D01*
X0152838Y0099753D01*
X0152821Y0099877D01*
X0152807Y0100001D01*
X0152797Y0100125D01*
X0152791Y0100250D01*
X0152789Y0100375D01*
D11*
X0192351Y0134332D03*
X0192351Y0141418D03*
D12*
X0124447Y0103500D03*
X0117754Y0103500D03*
D13*
X0112351Y0036039D03*
X0136726Y0036039D03*
X0136726Y0015961D03*
X0112351Y0015961D03*
D14*
X0083822Y0068500D03*
X0077129Y0068500D03*
X0074004Y0082250D03*
X0080697Y0082250D03*
X0080697Y0092875D03*
X0074004Y0092875D03*
X0103379Y0102250D03*
X0110072Y0102250D03*
X0096947Y0111000D03*
X0090254Y0111000D03*
X0070697Y0116625D03*
X0064004Y0116625D03*
X0077129Y0122875D03*
X0083822Y0122875D03*
X0144629Y0157250D03*
X0151322Y0157250D03*
X0151322Y0165375D03*
X0144629Y0165375D03*
X0214226Y0121221D03*
X0214226Y0114529D03*
D15*
X0186278Y0141625D03*
X0170924Y0141625D03*
D16*
X0119726Y0139125D02*
X0113726Y0139125D01*
X0102851Y0139125D02*
X0096851Y0139125D01*
X0087226Y0139125D02*
X0081226Y0139125D01*
X0081226Y0149125D02*
X0087226Y0149125D01*
X0096851Y0149125D02*
X0102851Y0149125D01*
X0113726Y0149125D02*
X0119726Y0149125D01*
X0119726Y0159125D02*
X0113726Y0159125D01*
X0102851Y0159125D02*
X0096851Y0159125D01*
X0087226Y0159125D02*
X0081226Y0159125D01*
D17*
X0171293Y0162875D03*
X0192159Y0162875D03*
D18*
X0159447Y0142875D03*
X0152754Y0142875D03*
X0156504Y0132250D03*
X0163197Y0132250D03*
X0189629Y0126000D03*
X0196322Y0126000D03*
X0195697Y0109750D03*
X0189004Y0109750D03*
X0193379Y0093500D03*
X0200072Y0093500D03*
X0200697Y0076000D03*
X0194004Y0076000D03*
X0123197Y0117250D03*
X0116504Y0117250D03*
X0107976Y0071846D03*
X0107976Y0065154D03*
X0099851Y0065154D03*
X0099851Y0071846D03*
X0142754Y0175375D03*
X0149447Y0175375D03*
D19*
X0251726Y0097875D03*
X0249851Y0035375D03*
D20*
X0233551Y0045625D03*
X0201151Y0045625D03*
X0187301Y0045625D03*
X0154901Y0045625D03*
D21*
X0154901Y0061875D03*
X0187301Y0061875D03*
X0201151Y0061875D03*
X0233551Y0061875D03*
D22*
X0333601Y0033500D03*
X0333601Y0099125D03*
X0333601Y0162250D03*
D23*
X0274051Y0157250D03*
X0274051Y0152250D03*
X0274051Y0147250D03*
X0274051Y0167250D03*
X0274051Y0172250D03*
X0274051Y0177250D03*
X0274051Y0114125D03*
X0274051Y0109125D03*
X0274051Y0104125D03*
X0274051Y0094125D03*
X0274051Y0089125D03*
X0274051Y0084125D03*
X0274051Y0048500D03*
X0274051Y0043500D03*
X0274051Y0038500D03*
X0274051Y0028500D03*
X0274051Y0023500D03*
X0274051Y0018500D03*
D24*
X0075259Y0100847D03*
X0060692Y0100847D03*
X0060692Y0109903D03*
X0075259Y0109903D03*
D25*
X0066201Y0072250D02*
X0061001Y0072250D01*
X0061001Y0062250D02*
X0066201Y0062250D01*
X0066201Y0052250D02*
X0061001Y0052250D01*
X0061001Y0042250D02*
X0066201Y0042250D01*
X0066201Y0032250D02*
X0061001Y0032250D01*
X0061001Y0022250D02*
X0066201Y0022250D01*
D26*
X0065476Y0095375D03*
X0084226Y0106312D03*
X0098913Y0095375D03*
X0203601Y0107875D03*
X0213913Y0094437D03*
X0231101Y0076000D03*
X0302976Y0069125D03*
X0225476Y0027875D03*
X0248601Y0128500D03*
X0273601Y0128500D03*
X0347976Y0128500D03*
D27*
X0273601Y0128500D01*
X0264226Y0124125D02*
X0257976Y0117875D01*
X0219226Y0117875D01*
X0215879Y0114529D01*
X0214226Y0114529D02*
X0210254Y0114529D01*
X0203601Y0107875D01*
X0195697Y0109750D02*
X0211010Y0094437D01*
X0213913Y0094437D01*
X0230163Y0094437D01*
X0241726Y0082875D01*
X0272801Y0082875D01*
X0274051Y0084125D01*
X0246726Y0069125D02*
X0226726Y0089125D01*
X0204447Y0089125D01*
X0200072Y0093500D01*
X0200697Y0076000D02*
X0231101Y0076000D01*
X0246726Y0069125D02*
X0302976Y0069125D01*
X0238601Y0014750D02*
X0225476Y0027875D01*
X0238601Y0014750D02*
X0270301Y0014750D01*
X0274051Y0018500D01*
X0264226Y0124125D02*
X0264226Y0144750D01*
X0266726Y0147250D01*
X0274051Y0147250D01*
X0248601Y0128500D02*
X0198822Y0128500D01*
X0196322Y0126000D01*
X0065476Y0095375D02*
X0060692Y0100158D01*
X0060692Y0100847D01*
D28*
X0065476Y0105375D02*
X0060948Y0109903D01*
X0060692Y0109903D01*
X0060692Y0113313D01*
X0064004Y0116625D01*
X0066726Y0122250D02*
X0076504Y0122250D01*
X0077129Y0122875D01*
X0080476Y0120152D02*
X0080537Y0120047D01*
X0080797Y0119786D01*
X0081116Y0119602D01*
X0081472Y0119506D01*
X0083422Y0119506D01*
X0083422Y0122475D01*
X0084222Y0122475D01*
X0084222Y0119506D01*
X0086172Y0119506D01*
X0086528Y0119602D01*
X0086847Y0119786D01*
X0087108Y0120047D01*
X0087292Y0120366D01*
X0087387Y0120722D01*
X0087387Y0122475D01*
X0084222Y0122475D01*
X0084222Y0123275D01*
X0083422Y0123275D01*
X0083422Y0126243D01*
X0081472Y0126243D01*
X0081116Y0126148D01*
X0080797Y0125964D01*
X0080537Y0125703D01*
X0080476Y0125598D01*
X0080476Y0135125D01*
X0088021Y0135125D01*
X0089491Y0135734D01*
X0090617Y0136859D01*
X0090951Y0137665D01*
X0090951Y0135420D01*
X0103171Y0123200D01*
X0102064Y0123200D01*
X0101264Y0122400D01*
X0096146Y0122400D01*
X0095326Y0121580D01*
X0092201Y0118455D01*
X0092201Y0114368D01*
X0090654Y0114368D01*
X0090654Y0111400D01*
X0089854Y0111400D01*
X0089854Y0110600D01*
X0086689Y0110600D01*
X0086689Y0108847D01*
X0086784Y0108491D01*
X0086969Y0108172D01*
X0087229Y0107911D01*
X0087548Y0107727D01*
X0087905Y0107631D01*
X0089854Y0107631D01*
X0089854Y0110600D01*
X0090654Y0110600D01*
X0090654Y0107631D01*
X0092201Y0107631D01*
X0092201Y0062830D01*
X0091251Y0061880D01*
X0091251Y0101789D01*
X0092051Y0102589D01*
X0092051Y0104411D01*
X0090762Y0105700D01*
X0088939Y0105700D01*
X0087651Y0104411D01*
X0087651Y0102589D01*
X0088451Y0101789D01*
X0088451Y0062205D01*
X0080476Y0054230D01*
X0080476Y0065777D01*
X0080537Y0065672D01*
X0080797Y0065411D01*
X0081116Y0065227D01*
X0081472Y0065131D01*
X0083422Y0065131D01*
X0083422Y0068100D01*
X0084222Y0068100D01*
X0084222Y0065131D01*
X0086172Y0065131D01*
X0086528Y0065227D01*
X0086847Y0065411D01*
X0087108Y0065672D01*
X0087292Y0065991D01*
X0087387Y0066347D01*
X0087387Y0068100D01*
X0084222Y0068100D01*
X0084222Y0068900D01*
X0083422Y0068900D01*
X0083422Y0071868D01*
X0081472Y0071868D01*
X0081116Y0071773D01*
X0080797Y0071589D01*
X0080537Y0071328D01*
X0080476Y0071223D01*
X0080476Y0081850D01*
X0081097Y0081850D01*
X0081097Y0078881D01*
X0083047Y0078881D01*
X0083403Y0078977D01*
X0083722Y0079161D01*
X0083983Y0079422D01*
X0084167Y0079741D01*
X0084262Y0080097D01*
X0084262Y0081850D01*
X0081097Y0081850D01*
X0081097Y0082650D01*
X0080476Y0082650D01*
X0080476Y0092475D01*
X0081097Y0092475D01*
X0081097Y0089506D01*
X0083047Y0089506D01*
X0083403Y0089602D01*
X0083722Y0089786D01*
X0083983Y0090047D01*
X0084167Y0090366D01*
X0084262Y0090722D01*
X0084262Y0092475D01*
X0081097Y0092475D01*
X0081097Y0093275D01*
X0080476Y0093275D01*
X0080476Y0099451D01*
X0080814Y0099112D01*
X0082637Y0099112D01*
X0083926Y0100401D01*
X0083926Y0102224D01*
X0082637Y0103512D01*
X0080814Y0103512D01*
X0080476Y0103174D01*
X0080476Y0120152D01*
X0080476Y0119978D02*
X0080605Y0119978D01*
X0080476Y0119180D02*
X0092925Y0119180D01*
X0092201Y0118381D02*
X0080476Y0118381D01*
X0080476Y0117583D02*
X0092201Y0117583D01*
X0092201Y0116784D02*
X0080476Y0116784D01*
X0080476Y0115986D02*
X0092201Y0115986D01*
X0092201Y0115187D02*
X0080476Y0115187D01*
X0080476Y0114389D02*
X0092201Y0114389D01*
X0090654Y0113590D02*
X0089854Y0113590D01*
X0089854Y0114368D02*
X0087905Y0114368D01*
X0087548Y0114273D01*
X0087229Y0114089D01*
X0086969Y0113828D01*
X0086784Y0113509D01*
X0086689Y0113153D01*
X0086689Y0111400D01*
X0089854Y0111400D01*
X0089854Y0114368D01*
X0089854Y0112792D02*
X0090654Y0112792D01*
X0090654Y0111993D02*
X0089854Y0111993D01*
X0089854Y0111195D02*
X0080476Y0111195D01*
X0080476Y0111993D02*
X0086689Y0111993D01*
X0086689Y0112792D02*
X0080476Y0112792D01*
X0080476Y0113590D02*
X0086831Y0113590D01*
X0086689Y0110396D02*
X0080476Y0110396D01*
X0080476Y0109598D02*
X0086689Y0109598D01*
X0086702Y0108799D02*
X0080476Y0108799D01*
X0080476Y0108001D02*
X0087140Y0108001D01*
X0089854Y0108001D02*
X0090654Y0108001D01*
X0090654Y0108799D02*
X0089854Y0108799D01*
X0089854Y0109598D02*
X0090654Y0109598D01*
X0090654Y0110396D02*
X0089854Y0110396D01*
X0095001Y0108031D02*
X0096271Y0108031D01*
X0095776Y0107536D01*
X0095776Y0105714D01*
X0097064Y0104425D01*
X0098887Y0104425D01*
X0100176Y0105714D01*
X0100176Y0106939D01*
X0100951Y0106164D01*
X0100951Y0105218D01*
X0100800Y0105218D01*
X0100214Y0104633D01*
X0100214Y0099867D01*
X0100800Y0099281D01*
X0105959Y0099281D01*
X0106545Y0099867D01*
X0106545Y0099956D01*
X0106602Y0099741D01*
X0106787Y0099422D01*
X0107047Y0099161D01*
X0107366Y0098977D01*
X0107722Y0098881D01*
X0109672Y0098881D01*
X0109672Y0101850D01*
X0110472Y0101850D01*
X0110472Y0098881D01*
X0112422Y0098881D01*
X0112778Y0098977D01*
X0113097Y0099161D01*
X0113358Y0099422D01*
X0113542Y0099741D01*
X0113637Y0100097D01*
X0113637Y0101850D01*
X0110472Y0101850D01*
X0110472Y0102650D01*
X0109672Y0102650D01*
X0109672Y0105618D01*
X0107722Y0105618D01*
X0107366Y0105523D01*
X0107047Y0105339D01*
X0106787Y0105078D01*
X0106602Y0104759D01*
X0106545Y0104544D01*
X0106545Y0104633D01*
X0105959Y0105218D01*
X0103751Y0105218D01*
X0103751Y0106164D01*
X0104551Y0106964D01*
X0104551Y0108786D01*
X0103262Y0110075D01*
X0101439Y0110075D01*
X0100151Y0108786D01*
X0100151Y0107561D01*
X0099604Y0108108D01*
X0100112Y0108617D01*
X0100112Y0113383D01*
X0099527Y0113968D01*
X0095001Y0113968D01*
X0095001Y0117295D01*
X0097306Y0119600D01*
X0101264Y0119600D01*
X0102064Y0118800D01*
X0103887Y0118800D01*
X0104076Y0118989D01*
X0104076Y0112295D01*
X0109896Y0106475D01*
X0113795Y0106475D01*
X0113795Y0103900D01*
X0117354Y0103900D01*
X0117354Y0103100D01*
X0113795Y0103100D01*
X0113795Y0100363D01*
X0113891Y0100007D01*
X0114075Y0099688D01*
X0114336Y0099427D01*
X0114655Y0099243D01*
X0115011Y0099147D01*
X0117354Y0099147D01*
X0117354Y0103100D01*
X0118154Y0103100D01*
X0118154Y0099147D01*
X0120498Y0099147D01*
X0120854Y0099243D01*
X0121173Y0099427D01*
X0121384Y0099638D01*
X0121474Y0099547D01*
X0127420Y0099547D01*
X0128006Y0100133D01*
X0128006Y0102233D01*
X0128314Y0101925D01*
X0130137Y0101925D01*
X0131426Y0103214D01*
X0131426Y0105036D01*
X0130137Y0106325D01*
X0128314Y0106325D01*
X0128006Y0106017D01*
X0128006Y0106475D01*
X0130639Y0106475D01*
X0131439Y0105675D01*
X0133262Y0105675D01*
X0134551Y0106964D01*
X0134551Y0108786D01*
X0133262Y0110075D01*
X0132676Y0110075D01*
X0132676Y0111286D01*
X0131387Y0112575D01*
X0129564Y0112575D01*
X0129551Y0112561D01*
X0129551Y0113786D01*
X0128274Y0115062D01*
X0128926Y0115714D01*
X0128926Y0117536D01*
X0127637Y0118825D01*
X0126166Y0118825D01*
X0126166Y0119830D01*
X0125580Y0120415D01*
X0120814Y0120415D01*
X0120229Y0119830D01*
X0120229Y0114670D01*
X0120624Y0114275D01*
X0119077Y0114275D01*
X0119473Y0114670D01*
X0119473Y0119830D01*
X0118887Y0120415D01*
X0114121Y0120415D01*
X0113536Y0119830D01*
X0113536Y0119450D01*
X0112064Y0119450D01*
X0110776Y0118161D01*
X0110776Y0116339D01*
X0112064Y0115050D01*
X0113536Y0115050D01*
X0113536Y0114670D01*
X0113931Y0114275D01*
X0112306Y0114275D01*
X0110626Y0115955D01*
X0110626Y0130864D01*
X0110814Y0130675D01*
X0112637Y0130675D01*
X0113437Y0131475D01*
X0136264Y0131475D01*
X0137064Y0130675D01*
X0138887Y0130675D01*
X0140176Y0131964D01*
X0140176Y0133786D01*
X0138887Y0135075D01*
X0137064Y0135075D01*
X0136264Y0134275D01*
X0113437Y0134275D01*
X0112637Y0135075D01*
X0110814Y0135075D01*
X0110626Y0134886D01*
X0110626Y0136568D01*
X0111460Y0135734D01*
X0112930Y0135125D01*
X0120521Y0135125D01*
X0121991Y0135734D01*
X0123117Y0136859D01*
X0123726Y0138329D01*
X0123726Y0139921D01*
X0123117Y0141391D01*
X0121991Y0142516D01*
X0120521Y0143125D01*
X0112930Y0143125D01*
X0112547Y0142966D01*
X0114706Y0145125D01*
X0120521Y0145125D01*
X0121991Y0145734D01*
X0123117Y0146859D01*
X0123726Y0148329D01*
X0123726Y0149921D01*
X0123117Y0151391D01*
X0121991Y0152516D01*
X0120521Y0153125D01*
X0112930Y0153125D01*
X0111460Y0152516D01*
X0110335Y0151391D01*
X0109726Y0149921D01*
X0109726Y0148329D01*
X0110335Y0146859D01*
X0111407Y0145787D01*
X0108646Y0143025D01*
X0108288Y0142667D01*
X0107931Y0143025D01*
X0105169Y0145787D01*
X0106242Y0146859D01*
X0106851Y0148329D01*
X0106851Y0149921D01*
X0106242Y0151391D01*
X0105116Y0152516D01*
X0103646Y0153125D01*
X0096055Y0153125D01*
X0094585Y0152516D01*
X0093460Y0151391D01*
X0092851Y0149921D01*
X0092851Y0148329D01*
X0093460Y0146859D01*
X0094585Y0145734D01*
X0096055Y0145125D01*
X0101871Y0145125D01*
X0104030Y0142966D01*
X0103646Y0143125D01*
X0096055Y0143125D01*
X0094585Y0142516D01*
X0093700Y0141631D01*
X0092931Y0142400D01*
X0089544Y0145787D01*
X0090617Y0146859D01*
X0091226Y0148329D01*
X0091226Y0149921D01*
X0090617Y0151391D01*
X0089491Y0152516D01*
X0088021Y0153125D01*
X0080476Y0153125D01*
X0080476Y0155125D01*
X0088021Y0155125D01*
X0089491Y0155734D01*
X0090617Y0156859D01*
X0091226Y0158329D01*
X0091226Y0159921D01*
X0090617Y0161391D01*
X0089491Y0162516D01*
X0088021Y0163125D01*
X0080476Y0163125D01*
X0080476Y0193600D01*
X0380476Y0193600D01*
X0380476Y0002400D01*
X0080476Y0002400D01*
X0080476Y0020650D01*
X0099224Y0020650D01*
X0100161Y0021587D01*
X0109972Y0031398D01*
X0123592Y0031398D01*
X0124177Y0031983D01*
X0124177Y0034439D01*
X0124899Y0034439D01*
X0124899Y0031983D01*
X0125485Y0031398D01*
X0139388Y0031398D01*
X0139935Y0030850D01*
X0148764Y0030850D01*
X0149564Y0030050D01*
X0151387Y0030050D01*
X0152676Y0031339D01*
X0152676Y0033161D01*
X0152212Y0033625D01*
X0160115Y0033625D01*
X0160701Y0034211D01*
X0160701Y0057039D01*
X0160115Y0057625D01*
X0149686Y0057625D01*
X0149101Y0057039D01*
X0149101Y0053405D01*
X0148751Y0053755D01*
X0148751Y0071670D01*
X0154181Y0077100D01*
X0159389Y0077100D01*
X0160189Y0076300D01*
X0162012Y0076300D01*
X0163301Y0077589D01*
X0163301Y0078189D01*
X0164564Y0076925D01*
X0166387Y0076925D01*
X0167676Y0078214D01*
X0167676Y0080036D01*
X0166876Y0080836D01*
X0166876Y0115539D01*
X0167676Y0116339D01*
X0167676Y0118161D01*
X0166387Y0119450D01*
X0164564Y0119450D01*
X0163276Y0118161D01*
X0163276Y0116339D01*
X0164076Y0115539D01*
X0164076Y0080836D01*
X0163276Y0080036D01*
X0163276Y0079436D01*
X0162012Y0080700D01*
X0161412Y0080700D01*
X0162051Y0081339D01*
X0162051Y0083161D01*
X0161399Y0083812D01*
X0162676Y0085089D01*
X0162676Y0086911D01*
X0161387Y0088200D01*
X0159564Y0088200D01*
X0158764Y0087400D01*
X0149271Y0087400D01*
X0114271Y0052400D01*
X0110937Y0052400D01*
X0110137Y0053200D01*
X0108314Y0053200D01*
X0107026Y0051911D01*
X0107026Y0050089D01*
X0108314Y0048800D01*
X0110137Y0048800D01*
X0110937Y0049600D01*
X0115221Y0049600D01*
X0109791Y0044171D01*
X0109512Y0044450D01*
X0107689Y0044450D01*
X0106401Y0043161D01*
X0106401Y0041339D01*
X0107058Y0040681D01*
X0101110Y0040681D01*
X0100524Y0040095D01*
X0100524Y0031983D01*
X0101110Y0031398D01*
X0105446Y0031398D01*
X0097899Y0023850D01*
X0080476Y0023850D01*
X0080476Y0047145D01*
X0094181Y0060850D01*
X0095001Y0061670D01*
X0095001Y0108031D01*
X0095001Y0108001D02*
X0096240Y0108001D01*
X0095776Y0107202D02*
X0095001Y0107202D01*
X0095001Y0106403D02*
X0095776Y0106403D01*
X0095884Y0105605D02*
X0095001Y0105605D01*
X0095001Y0104806D02*
X0096683Y0104806D01*
X0095001Y0104008D02*
X0100214Y0104008D01*
X0100214Y0103209D02*
X0095001Y0103209D01*
X0095001Y0102411D02*
X0100214Y0102411D01*
X0100214Y0101612D02*
X0095001Y0101612D01*
X0095001Y0100814D02*
X0100214Y0100814D01*
X0100214Y0100015D02*
X0095001Y0100015D01*
X0095001Y0099217D02*
X0106991Y0099217D01*
X0109672Y0099217D02*
X0110472Y0099217D01*
X0110472Y0100015D02*
X0109672Y0100015D01*
X0109672Y0100814D02*
X0110472Y0100814D01*
X0110472Y0101612D02*
X0109672Y0101612D01*
X0110472Y0102411D02*
X0113795Y0102411D01*
X0113637Y0102650D02*
X0113637Y0104403D01*
X0113542Y0104759D01*
X0113358Y0105078D01*
X0113097Y0105339D01*
X0112778Y0105523D01*
X0112422Y0105618D01*
X0110472Y0105618D01*
X0110472Y0102650D01*
X0113637Y0102650D01*
X0113637Y0103209D02*
X0117354Y0103209D01*
X0117354Y0102411D02*
X0118154Y0102411D01*
X0118154Y0101612D02*
X0117354Y0101612D01*
X0117354Y0100814D02*
X0118154Y0100814D01*
X0118154Y0100015D02*
X0117354Y0100015D01*
X0117354Y0099217D02*
X0118154Y0099217D01*
X0120758Y0099217D02*
X0132338Y0099217D01*
X0133136Y0100015D02*
X0127889Y0100015D01*
X0128006Y0100814D02*
X0133935Y0100814D01*
X0134733Y0101612D02*
X0128006Y0101612D01*
X0130623Y0102411D02*
X0135532Y0102411D01*
X0136330Y0103209D02*
X0131421Y0103209D01*
X0131426Y0104008D02*
X0137129Y0104008D01*
X0137927Y0104806D02*
X0131426Y0104806D01*
X0130857Y0105605D02*
X0138726Y0105605D01*
X0139524Y0106403D02*
X0133990Y0106403D01*
X0134551Y0107202D02*
X0140323Y0107202D01*
X0141121Y0108001D02*
X0134551Y0108001D01*
X0134538Y0108799D02*
X0141920Y0108799D01*
X0142718Y0109598D02*
X0133739Y0109598D01*
X0132676Y0110396D02*
X0143517Y0110396D01*
X0144315Y0111195D02*
X0132676Y0111195D01*
X0131969Y0111993D02*
X0145114Y0111993D01*
X0145912Y0112792D02*
X0129551Y0112792D01*
X0129551Y0113590D02*
X0146711Y0113590D01*
X0147509Y0114389D02*
X0128948Y0114389D01*
X0128399Y0115187D02*
X0148308Y0115187D01*
X0148451Y0115330D02*
X0121771Y0088650D01*
X0120951Y0087830D01*
X0120951Y0068961D01*
X0120151Y0068161D01*
X0120151Y0066339D01*
X0121439Y0065050D01*
X0123262Y0065050D01*
X0124551Y0066339D01*
X0124551Y0068161D01*
X0123751Y0068961D01*
X0123751Y0086670D01*
X0150431Y0113350D01*
X0158764Y0113350D01*
X0159564Y0112550D01*
X0161387Y0112550D01*
X0162676Y0113839D01*
X0162676Y0115661D01*
X0161387Y0116950D01*
X0159564Y0116950D01*
X0158764Y0116150D01*
X0149362Y0116150D01*
X0150176Y0116964D01*
X0150176Y0118095D01*
X0157904Y0125824D01*
X0157904Y0129085D01*
X0158887Y0129085D01*
X0159473Y0129670D01*
X0159473Y0134830D01*
X0158887Y0135415D01*
X0154154Y0135415D01*
X0154154Y0139710D01*
X0155137Y0139710D01*
X0155723Y0140295D01*
X0155723Y0145455D01*
X0155137Y0146040D01*
X0154154Y0146040D01*
X0154154Y0154534D01*
X0154487Y0154867D01*
X0154487Y0159633D01*
X0153902Y0160218D01*
X0148743Y0160218D01*
X0148157Y0159633D01*
X0148157Y0154867D01*
X0148743Y0154281D01*
X0151354Y0154281D01*
X0151354Y0146040D01*
X0150371Y0146040D01*
X0149786Y0145455D01*
X0149786Y0140295D01*
X0150371Y0139710D01*
X0151354Y0139710D01*
X0151354Y0130108D01*
X0149446Y0128200D01*
X0148314Y0128200D01*
X0147026Y0126911D01*
X0147026Y0125089D01*
X0148314Y0123800D01*
X0150137Y0123800D01*
X0151426Y0125089D01*
X0151426Y0126220D01*
X0154154Y0128949D01*
X0154154Y0129085D01*
X0155104Y0129085D01*
X0155104Y0126983D01*
X0148196Y0120075D01*
X0147064Y0120075D01*
X0145776Y0118786D01*
X0145776Y0116964D01*
X0147064Y0115675D01*
X0148796Y0115675D01*
X0148451Y0115330D01*
X0148451Y0115330D01*
X0149851Y0114750D02*
X0122351Y0087250D01*
X0122351Y0067250D01*
X0124551Y0067276D02*
X0129147Y0067276D01*
X0128349Y0066478D02*
X0124551Y0066478D01*
X0123891Y0065679D02*
X0127550Y0065679D01*
X0126752Y0064881D02*
X0108376Y0064881D01*
X0108376Y0064754D02*
X0108376Y0065554D01*
X0111344Y0065554D01*
X0111344Y0067503D01*
X0111249Y0067859D01*
X0111064Y0068179D01*
X0110804Y0068439D01*
X0110485Y0068623D01*
X0110269Y0068681D01*
X0110358Y0068681D01*
X0110944Y0069267D01*
X0110944Y0074426D01*
X0110358Y0075012D01*
X0109376Y0075012D01*
X0109376Y0075539D01*
X0110176Y0076339D01*
X0110176Y0078161D01*
X0108887Y0079450D01*
X0107064Y0079450D01*
X0105776Y0078161D01*
X0105776Y0076339D01*
X0106576Y0075539D01*
X0106576Y0075012D01*
X0105593Y0075012D01*
X0105007Y0074426D01*
X0105007Y0069267D01*
X0105593Y0068681D01*
X0105682Y0068681D01*
X0105467Y0068623D01*
X0105148Y0068439D01*
X0104887Y0068179D01*
X0104703Y0067859D01*
X0104607Y0067503D01*
X0104607Y0065554D01*
X0107576Y0065554D01*
X0107576Y0064754D01*
X0104607Y0064754D01*
X0104607Y0062804D01*
X0104703Y0062448D01*
X0104887Y0062129D01*
X0105148Y0061868D01*
X0105467Y0061684D01*
X0105823Y0061588D01*
X0107576Y0061588D01*
X0107576Y0064753D01*
X0108376Y0064753D01*
X0108376Y0061588D01*
X0110128Y0061588D01*
X0110485Y0061684D01*
X0110804Y0061868D01*
X0111064Y0062129D01*
X0111249Y0062448D01*
X0111344Y0062804D01*
X0111344Y0064754D01*
X0108376Y0064754D01*
X0108376Y0064082D02*
X0107576Y0064082D01*
X0107576Y0063284D02*
X0108376Y0063284D01*
X0108376Y0062485D02*
X0107576Y0062485D01*
X0107576Y0061687D02*
X0108376Y0061687D01*
X0110490Y0061687D02*
X0123558Y0061687D01*
X0124356Y0062485D02*
X0111259Y0062485D01*
X0111344Y0063284D02*
X0125155Y0063284D01*
X0125953Y0064082D02*
X0111344Y0064082D01*
X0111344Y0065679D02*
X0120810Y0065679D01*
X0120151Y0066478D02*
X0111344Y0066478D01*
X0111344Y0067276D02*
X0120151Y0067276D01*
X0120151Y0068075D02*
X0111124Y0068075D01*
X0110551Y0068873D02*
X0120863Y0068873D01*
X0120951Y0069672D02*
X0110944Y0069672D01*
X0110944Y0070470D02*
X0120951Y0070470D01*
X0120951Y0071269D02*
X0110944Y0071269D01*
X0110944Y0072068D02*
X0120951Y0072068D01*
X0120951Y0072866D02*
X0110944Y0072866D01*
X0110944Y0073665D02*
X0120951Y0073665D01*
X0120951Y0074463D02*
X0110907Y0074463D01*
X0109376Y0075262D02*
X0120951Y0075262D01*
X0120951Y0076060D02*
X0109897Y0076060D01*
X0110176Y0076859D02*
X0120951Y0076859D01*
X0120951Y0077657D02*
X0110176Y0077657D01*
X0109881Y0078456D02*
X0120951Y0078456D01*
X0120951Y0079254D02*
X0109083Y0079254D01*
X0106869Y0079254D02*
X0103126Y0079254D01*
X0103126Y0078456D02*
X0106070Y0078456D01*
X0105776Y0077657D02*
X0103126Y0077657D01*
X0103126Y0076859D02*
X0105776Y0076859D01*
X0106054Y0076060D02*
X0103126Y0076060D01*
X0103126Y0075262D02*
X0106576Y0075262D01*
X0105044Y0074463D02*
X0103126Y0074463D01*
X0103126Y0073665D02*
X0105007Y0073665D01*
X0105007Y0072866D02*
X0102850Y0072866D01*
X0102819Y0072835D02*
X0103126Y0073142D01*
X0103126Y0081789D01*
X0103926Y0082589D01*
X0103926Y0084411D01*
X0102637Y0085700D01*
X0100814Y0085700D01*
X0099526Y0084411D01*
X0099526Y0082589D01*
X0100326Y0081789D01*
X0100326Y0075012D01*
X0097468Y0075012D01*
X0096882Y0074426D01*
X0096882Y0069267D01*
X0097468Y0068681D01*
X0097557Y0068681D01*
X0097342Y0068623D01*
X0097023Y0068439D01*
X0096762Y0068179D01*
X0096578Y0067859D01*
X0096482Y0067503D01*
X0096482Y0065554D01*
X0099451Y0065554D01*
X0099451Y0064754D01*
X0096482Y0064754D01*
X0096482Y0062804D01*
X0096578Y0062448D01*
X0096762Y0062129D01*
X0097023Y0061868D01*
X0097342Y0061684D01*
X0097698Y0061588D01*
X0099451Y0061588D01*
X0099451Y0064753D01*
X0100251Y0064753D01*
X0100251Y0061588D01*
X0102003Y0061588D01*
X0102360Y0061684D01*
X0102679Y0061868D01*
X0102939Y0062129D01*
X0103124Y0062448D01*
X0103219Y0062804D01*
X0103219Y0064754D01*
X0100251Y0064754D01*
X0100251Y0065554D01*
X0103219Y0065554D01*
X0103219Y0067503D01*
X0103124Y0067859D01*
X0102939Y0068179D01*
X0102679Y0068439D01*
X0102360Y0068623D01*
X0102144Y0068681D01*
X0102233Y0068681D01*
X0102819Y0069267D01*
X0102819Y0072835D01*
X0102819Y0072068D02*
X0105007Y0072068D01*
X0105007Y0071269D02*
X0102819Y0071269D01*
X0102819Y0070470D02*
X0105007Y0070470D01*
X0105007Y0069672D02*
X0102819Y0069672D01*
X0102426Y0068873D02*
X0105401Y0068873D01*
X0104827Y0068075D02*
X0102999Y0068075D01*
X0103219Y0067276D02*
X0104607Y0067276D01*
X0104607Y0066478D02*
X0103219Y0066478D01*
X0103219Y0065679D02*
X0104607Y0065679D01*
X0104607Y0064082D02*
X0103219Y0064082D01*
X0103219Y0063284D02*
X0104607Y0063284D01*
X0104693Y0062485D02*
X0103134Y0062485D01*
X0102365Y0061687D02*
X0105461Y0061687D01*
X0100251Y0061687D02*
X0099451Y0061687D01*
X0099451Y0062485D02*
X0100251Y0062485D01*
X0100251Y0063284D02*
X0099451Y0063284D01*
X0099451Y0064082D02*
X0100251Y0064082D01*
X0100251Y0064881D02*
X0107576Y0064881D01*
X0099451Y0064881D02*
X0095001Y0064881D01*
X0095001Y0065679D02*
X0096482Y0065679D01*
X0096482Y0066478D02*
X0095001Y0066478D01*
X0095001Y0067276D02*
X0096482Y0067276D01*
X0096702Y0068075D02*
X0095001Y0068075D01*
X0095001Y0068873D02*
X0097276Y0068873D01*
X0096882Y0069672D02*
X0095001Y0069672D01*
X0095001Y0070470D02*
X0096882Y0070470D01*
X0096882Y0071269D02*
X0095001Y0071269D01*
X0095001Y0072068D02*
X0096882Y0072068D01*
X0096882Y0072866D02*
X0095001Y0072866D01*
X0095001Y0073665D02*
X0096882Y0073665D01*
X0096919Y0074463D02*
X0095001Y0074463D01*
X0095001Y0075262D02*
X0100326Y0075262D01*
X0100326Y0076060D02*
X0095001Y0076060D01*
X0095001Y0076859D02*
X0100326Y0076859D01*
X0100326Y0077657D02*
X0095001Y0077657D01*
X0095001Y0078456D02*
X0100326Y0078456D01*
X0100326Y0079254D02*
X0095001Y0079254D01*
X0095001Y0080053D02*
X0100326Y0080053D01*
X0100326Y0080851D02*
X0095001Y0080851D01*
X0095001Y0081650D02*
X0100326Y0081650D01*
X0099666Y0082448D02*
X0095001Y0082448D01*
X0095001Y0083247D02*
X0099526Y0083247D01*
X0099526Y0084045D02*
X0095001Y0084045D01*
X0095001Y0084844D02*
X0099958Y0084844D01*
X0100757Y0085642D02*
X0095001Y0085642D01*
X0095001Y0086441D02*
X0120951Y0086441D01*
X0120951Y0087239D02*
X0095001Y0087239D01*
X0095001Y0088038D02*
X0121159Y0088038D01*
X0121957Y0088836D02*
X0095001Y0088836D01*
X0095001Y0089635D02*
X0122756Y0089635D01*
X0123554Y0090433D02*
X0095001Y0090433D01*
X0095001Y0091232D02*
X0124353Y0091232D01*
X0125151Y0092030D02*
X0095001Y0092030D01*
X0095001Y0092829D02*
X0125950Y0092829D01*
X0126748Y0093627D02*
X0095001Y0093627D01*
X0095001Y0094426D02*
X0127547Y0094426D01*
X0128345Y0095224D02*
X0095001Y0095224D01*
X0095001Y0096023D02*
X0129144Y0096023D01*
X0129942Y0096821D02*
X0095001Y0096821D01*
X0095001Y0097620D02*
X0130741Y0097620D01*
X0131539Y0098418D02*
X0095001Y0098418D01*
X0092201Y0098418D02*
X0091251Y0098418D01*
X0091251Y0097620D02*
X0092201Y0097620D01*
X0092201Y0096821D02*
X0091251Y0096821D01*
X0091251Y0096023D02*
X0092201Y0096023D01*
X0092201Y0095224D02*
X0091251Y0095224D01*
X0091251Y0094426D02*
X0092201Y0094426D01*
X0092201Y0093627D02*
X0091251Y0093627D01*
X0091251Y0092829D02*
X0092201Y0092829D01*
X0092201Y0092030D02*
X0091251Y0092030D01*
X0091251Y0091232D02*
X0092201Y0091232D01*
X0092201Y0090433D02*
X0091251Y0090433D01*
X0091251Y0089635D02*
X0092201Y0089635D01*
X0092201Y0088836D02*
X0091251Y0088836D01*
X0091251Y0088038D02*
X0092201Y0088038D01*
X0092201Y0087239D02*
X0091251Y0087239D01*
X0091251Y0086441D02*
X0092201Y0086441D01*
X0092201Y0085642D02*
X0091251Y0085642D01*
X0091251Y0084844D02*
X0092201Y0084844D01*
X0092201Y0084045D02*
X0091251Y0084045D01*
X0091251Y0083247D02*
X0092201Y0083247D01*
X0092201Y0082448D02*
X0091251Y0082448D01*
X0091251Y0081650D02*
X0092201Y0081650D01*
X0092201Y0080851D02*
X0091251Y0080851D01*
X0091251Y0080053D02*
X0092201Y0080053D01*
X0092201Y0079254D02*
X0091251Y0079254D01*
X0091251Y0078456D02*
X0092201Y0078456D01*
X0092201Y0077657D02*
X0091251Y0077657D01*
X0091251Y0076859D02*
X0092201Y0076859D01*
X0092201Y0076060D02*
X0091251Y0076060D01*
X0091251Y0075262D02*
X0092201Y0075262D01*
X0092201Y0074463D02*
X0091251Y0074463D01*
X0091251Y0073665D02*
X0092201Y0073665D01*
X0092201Y0072866D02*
X0091251Y0072866D01*
X0091251Y0072068D02*
X0092201Y0072068D01*
X0092201Y0071269D02*
X0091251Y0071269D01*
X0091251Y0070470D02*
X0092201Y0070470D01*
X0092201Y0069672D02*
X0091251Y0069672D01*
X0091251Y0068873D02*
X0092201Y0068873D01*
X0092201Y0068075D02*
X0091251Y0068075D01*
X0091251Y0067276D02*
X0092201Y0067276D01*
X0092201Y0066478D02*
X0091251Y0066478D01*
X0091251Y0065679D02*
X0092201Y0065679D01*
X0092201Y0064881D02*
X0091251Y0064881D01*
X0091251Y0064082D02*
X0092201Y0064082D01*
X0092201Y0063284D02*
X0091251Y0063284D01*
X0091251Y0062485D02*
X0091856Y0062485D01*
X0093601Y0062250D02*
X0093601Y0117875D01*
X0096726Y0121000D01*
X0102976Y0121000D01*
X0101685Y0119180D02*
X0096885Y0119180D01*
X0096087Y0118381D02*
X0104076Y0118381D01*
X0104076Y0117583D02*
X0095288Y0117583D01*
X0095001Y0116784D02*
X0104076Y0116784D01*
X0104076Y0115986D02*
X0095001Y0115986D01*
X0095001Y0115187D02*
X0104076Y0115187D01*
X0104076Y0114389D02*
X0095001Y0114389D01*
X0099905Y0113590D02*
X0104076Y0113590D01*
X0104076Y0112792D02*
X0100112Y0112792D01*
X0100112Y0111993D02*
X0104378Y0111993D01*
X0105176Y0111195D02*
X0100112Y0111195D01*
X0100112Y0110396D02*
X0105975Y0110396D01*
X0106773Y0109598D02*
X0103739Y0109598D01*
X0104538Y0108799D02*
X0107572Y0108799D01*
X0108370Y0108001D02*
X0104551Y0108001D01*
X0104551Y0107202D02*
X0109169Y0107202D01*
X0110476Y0107875D02*
X0105476Y0112875D01*
X0105476Y0122875D01*
X0092351Y0136000D01*
X0092351Y0141000D01*
X0084226Y0149125D01*
X0080476Y0153516D02*
X0151354Y0153516D01*
X0151354Y0152717D02*
X0121506Y0152717D01*
X0122589Y0151919D02*
X0151354Y0151919D01*
X0151354Y0151120D02*
X0123229Y0151120D01*
X0123560Y0150322D02*
X0151354Y0150322D01*
X0151354Y0149523D02*
X0123726Y0149523D01*
X0123726Y0148725D02*
X0151354Y0148725D01*
X0151354Y0147926D02*
X0123559Y0147926D01*
X0123228Y0147128D02*
X0151354Y0147128D01*
X0151354Y0146329D02*
X0122587Y0146329D01*
X0121500Y0145531D02*
X0149862Y0145531D01*
X0149786Y0144732D02*
X0114313Y0144732D01*
X0113514Y0143934D02*
X0149786Y0143934D01*
X0149786Y0143135D02*
X0112716Y0143135D01*
X0110353Y0144732D02*
X0106224Y0144732D01*
X0107022Y0143934D02*
X0109554Y0143934D01*
X0108756Y0143135D02*
X0107821Y0143135D01*
X0107351Y0141625D02*
X0107351Y0114125D01*
X0111101Y0110375D01*
X0130476Y0110375D01*
X0132351Y0107875D02*
X0110476Y0107875D01*
X0113795Y0106403D02*
X0103990Y0106403D01*
X0103751Y0105605D02*
X0107672Y0105605D01*
X0106630Y0104806D02*
X0106371Y0104806D01*
X0109672Y0104806D02*
X0110472Y0104806D01*
X0110472Y0104008D02*
X0109672Y0104008D01*
X0109672Y0103209D02*
X0110472Y0103209D01*
X0110472Y0105605D02*
X0109672Y0105605D01*
X0112472Y0105605D02*
X0113795Y0105605D01*
X0113795Y0104806D02*
X0113515Y0104806D01*
X0113637Y0104008D02*
X0113795Y0104008D01*
X0113795Y0101612D02*
X0113637Y0101612D01*
X0113637Y0100814D02*
X0113795Y0100814D01*
X0113888Y0100015D02*
X0113616Y0100015D01*
X0113153Y0099217D02*
X0114751Y0099217D01*
X0124447Y0103500D02*
X0125072Y0104125D01*
X0129226Y0104125D01*
X0128006Y0106403D02*
X0130711Y0106403D01*
X0127351Y0112875D02*
X0111726Y0112875D01*
X0109226Y0115375D01*
X0109226Y0141625D01*
X0116726Y0149125D01*
X0111945Y0152717D02*
X0104631Y0152717D01*
X0105714Y0151919D02*
X0110862Y0151919D01*
X0110223Y0151120D02*
X0106354Y0151120D01*
X0106685Y0150322D02*
X0109892Y0150322D01*
X0109726Y0149523D02*
X0106851Y0149523D01*
X0106851Y0148725D02*
X0109726Y0148725D01*
X0109893Y0147926D02*
X0106684Y0147926D01*
X0106353Y0147128D02*
X0110223Y0147128D01*
X0110865Y0146329D02*
X0105712Y0146329D01*
X0105425Y0145531D02*
X0111151Y0145531D01*
X0107351Y0141625D02*
X0099851Y0149125D01*
X0095070Y0152717D02*
X0089006Y0152717D01*
X0090089Y0151919D02*
X0093987Y0151919D01*
X0093348Y0151120D02*
X0090729Y0151120D01*
X0091060Y0150322D02*
X0093017Y0150322D01*
X0092851Y0149523D02*
X0091226Y0149523D01*
X0091226Y0148725D02*
X0092851Y0148725D01*
X0093018Y0147926D02*
X0091059Y0147926D01*
X0090728Y0147128D02*
X0093348Y0147128D01*
X0093990Y0146329D02*
X0090087Y0146329D01*
X0089800Y0145531D02*
X0095076Y0145531D01*
X0092196Y0143135D02*
X0103861Y0143135D01*
X0103062Y0143934D02*
X0091397Y0143934D01*
X0090599Y0144732D02*
X0102264Y0144732D01*
X0094405Y0142337D02*
X0092994Y0142337D01*
X0090951Y0137545D02*
X0090901Y0137545D01*
X0090951Y0136747D02*
X0090504Y0136747D01*
X0090951Y0135948D02*
X0089706Y0135948D01*
X0091221Y0135150D02*
X0088081Y0135150D01*
X0092019Y0134351D02*
X0080476Y0134351D01*
X0080476Y0133553D02*
X0092818Y0133553D01*
X0093616Y0132754D02*
X0080476Y0132754D01*
X0080476Y0131956D02*
X0094415Y0131956D01*
X0095213Y0131157D02*
X0080476Y0131157D01*
X0080476Y0130359D02*
X0096012Y0130359D01*
X0096810Y0129560D02*
X0080476Y0129560D01*
X0080476Y0128762D02*
X0097609Y0128762D01*
X0098407Y0127963D02*
X0080476Y0127963D01*
X0080476Y0127165D02*
X0099206Y0127165D01*
X0100004Y0126366D02*
X0080476Y0126366D01*
X0083422Y0125568D02*
X0084222Y0125568D01*
X0084222Y0126243D02*
X0084222Y0123275D01*
X0087387Y0123275D01*
X0087387Y0125028D01*
X0087292Y0125384D01*
X0087108Y0125703D01*
X0086847Y0125964D01*
X0086528Y0126148D01*
X0086172Y0126243D01*
X0084222Y0126243D01*
X0084222Y0124769D02*
X0083422Y0124769D01*
X0083422Y0123971D02*
X0084222Y0123971D01*
X0084222Y0123172D02*
X0102037Y0123172D01*
X0102400Y0123971D02*
X0087387Y0123971D01*
X0087387Y0124769D02*
X0101602Y0124769D01*
X0100803Y0125568D02*
X0087186Y0125568D01*
X0087387Y0122374D02*
X0096120Y0122374D01*
X0095321Y0121575D02*
X0087387Y0121575D01*
X0087387Y0120777D02*
X0094522Y0120777D01*
X0093724Y0119978D02*
X0087039Y0119978D01*
X0084222Y0119978D02*
X0083422Y0119978D01*
X0083422Y0120777D02*
X0084222Y0120777D01*
X0084222Y0121575D02*
X0083422Y0121575D01*
X0083422Y0122374D02*
X0084222Y0122374D01*
X0096947Y0111000D02*
X0097976Y0110596D01*
X0097976Y0106625D01*
X0100176Y0106403D02*
X0100711Y0106403D01*
X0100951Y0105605D02*
X0100067Y0105605D01*
X0100388Y0104806D02*
X0099268Y0104806D01*
X0102351Y0103279D02*
X0103379Y0102250D01*
X0102351Y0103279D02*
X0102351Y0107875D01*
X0100151Y0108001D02*
X0099711Y0108001D01*
X0100112Y0108799D02*
X0100163Y0108799D01*
X0100112Y0109598D02*
X0100962Y0109598D01*
X0092201Y0107202D02*
X0080476Y0107202D01*
X0080476Y0106403D02*
X0092201Y0106403D01*
X0092201Y0105605D02*
X0090857Y0105605D01*
X0091655Y0104806D02*
X0092201Y0104806D01*
X0092201Y0104008D02*
X0092051Y0104008D01*
X0092051Y0103209D02*
X0092201Y0103209D01*
X0092201Y0102411D02*
X0091873Y0102411D01*
X0092201Y0101612D02*
X0091251Y0101612D01*
X0091251Y0100814D02*
X0092201Y0100814D01*
X0092201Y0100015D02*
X0091251Y0100015D01*
X0091251Y0099217D02*
X0092201Y0099217D01*
X0088451Y0099217D02*
X0082741Y0099217D01*
X0083540Y0100015D02*
X0088451Y0100015D01*
X0088451Y0100814D02*
X0083926Y0100814D01*
X0083926Y0101612D02*
X0088451Y0101612D01*
X0087828Y0102411D02*
X0083738Y0102411D01*
X0082940Y0103209D02*
X0087651Y0103209D01*
X0087651Y0104008D02*
X0080476Y0104008D01*
X0080476Y0104806D02*
X0088046Y0104806D01*
X0088844Y0105605D02*
X0080476Y0105605D01*
X0080476Y0103209D02*
X0080511Y0103209D01*
X0081726Y0101312D02*
X0075724Y0101312D01*
X0075259Y0100847D01*
X0080476Y0099217D02*
X0080710Y0099217D01*
X0080476Y0098418D02*
X0088451Y0098418D01*
X0088451Y0097620D02*
X0080476Y0097620D01*
X0080476Y0096821D02*
X0088451Y0096821D01*
X0088451Y0096023D02*
X0083620Y0096023D01*
X0083722Y0095964D02*
X0083403Y0096148D01*
X0083047Y0096243D01*
X0081097Y0096243D01*
X0081097Y0093275D01*
X0084262Y0093275D01*
X0084262Y0095028D01*
X0084167Y0095384D01*
X0083983Y0095703D01*
X0083722Y0095964D01*
X0084210Y0095224D02*
X0088451Y0095224D01*
X0088451Y0094426D02*
X0084262Y0094426D01*
X0084262Y0093627D02*
X0088451Y0093627D01*
X0088451Y0092829D02*
X0081097Y0092829D01*
X0081097Y0093627D02*
X0080476Y0093627D01*
X0080476Y0094426D02*
X0081097Y0094426D01*
X0081097Y0095224D02*
X0080476Y0095224D01*
X0080476Y0096023D02*
X0081097Y0096023D01*
X0081097Y0092030D02*
X0080476Y0092030D01*
X0080476Y0091232D02*
X0081097Y0091232D01*
X0081097Y0090433D02*
X0080476Y0090433D01*
X0080476Y0089635D02*
X0081097Y0089635D01*
X0080476Y0088836D02*
X0088451Y0088836D01*
X0088451Y0088038D02*
X0080476Y0088038D01*
X0080476Y0087239D02*
X0088451Y0087239D01*
X0088451Y0086441D02*
X0080476Y0086441D01*
X0080476Y0085642D02*
X0088451Y0085642D01*
X0088451Y0084844D02*
X0084118Y0084844D01*
X0084167Y0084759D02*
X0083983Y0085078D01*
X0083722Y0085339D01*
X0083403Y0085523D01*
X0083047Y0085618D01*
X0081097Y0085618D01*
X0081097Y0082650D01*
X0084262Y0082650D01*
X0084262Y0084403D01*
X0084167Y0084759D01*
X0084262Y0084045D02*
X0088451Y0084045D01*
X0088451Y0083247D02*
X0084262Y0083247D01*
X0084262Y0081650D02*
X0088451Y0081650D01*
X0088451Y0082448D02*
X0081097Y0082448D01*
X0081097Y0081650D02*
X0080476Y0081650D01*
X0080476Y0080851D02*
X0081097Y0080851D01*
X0081097Y0080053D02*
X0080476Y0080053D01*
X0080476Y0079254D02*
X0081097Y0079254D01*
X0080476Y0078456D02*
X0088451Y0078456D01*
X0088451Y0079254D02*
X0083815Y0079254D01*
X0084251Y0080053D02*
X0088451Y0080053D01*
X0088451Y0080851D02*
X0084262Y0080851D01*
X0081097Y0083247D02*
X0080476Y0083247D01*
X0080476Y0084045D02*
X0081097Y0084045D01*
X0081097Y0084844D02*
X0080476Y0084844D01*
X0075476Y0083721D02*
X0074004Y0082250D01*
X0075476Y0083721D02*
X0075476Y0087562D01*
X0083460Y0089635D02*
X0088451Y0089635D01*
X0088451Y0090433D02*
X0084185Y0090433D01*
X0084262Y0091232D02*
X0088451Y0091232D01*
X0088451Y0092030D02*
X0084262Y0092030D01*
X0101726Y0083500D02*
X0101726Y0073721D01*
X0099851Y0071846D01*
X0107976Y0071846D02*
X0107976Y0077250D01*
X0103126Y0080053D02*
X0120951Y0080053D01*
X0120951Y0080851D02*
X0103126Y0080851D01*
X0103126Y0081650D02*
X0120951Y0081650D01*
X0120951Y0082448D02*
X0103785Y0082448D01*
X0103926Y0083247D02*
X0120951Y0083247D01*
X0120951Y0084045D02*
X0103926Y0084045D01*
X0103493Y0084844D02*
X0120951Y0084844D01*
X0120951Y0085642D02*
X0102695Y0085642D01*
X0088451Y0077657D02*
X0080476Y0077657D01*
X0080476Y0076859D02*
X0088451Y0076859D01*
X0088451Y0076060D02*
X0080476Y0076060D01*
X0080476Y0075262D02*
X0088451Y0075262D01*
X0088451Y0074463D02*
X0080476Y0074463D01*
X0080476Y0073665D02*
X0088451Y0073665D01*
X0088451Y0072866D02*
X0080476Y0072866D01*
X0080476Y0072068D02*
X0088451Y0072068D01*
X0088451Y0071269D02*
X0087142Y0071269D01*
X0087108Y0071328D02*
X0086847Y0071589D01*
X0086528Y0071773D01*
X0086172Y0071868D01*
X0084222Y0071868D01*
X0084222Y0068900D01*
X0087387Y0068900D01*
X0087387Y0070653D01*
X0087292Y0071009D01*
X0087108Y0071328D01*
X0087387Y0070470D02*
X0088451Y0070470D01*
X0088451Y0069672D02*
X0087387Y0069672D01*
X0088451Y0068873D02*
X0084222Y0068873D01*
X0084222Y0068075D02*
X0083422Y0068075D01*
X0083422Y0067276D02*
X0084222Y0067276D01*
X0084222Y0066478D02*
X0083422Y0066478D01*
X0083422Y0065679D02*
X0084222Y0065679D01*
X0087112Y0065679D02*
X0088451Y0065679D01*
X0088451Y0064881D02*
X0080476Y0064881D01*
X0080476Y0065679D02*
X0080532Y0065679D01*
X0080476Y0064082D02*
X0088451Y0064082D01*
X0088451Y0063284D02*
X0080476Y0063284D01*
X0080476Y0062485D02*
X0088451Y0062485D01*
X0087933Y0061687D02*
X0080476Y0061687D01*
X0080476Y0060888D02*
X0087134Y0060888D01*
X0086336Y0060090D02*
X0080476Y0060090D01*
X0080476Y0059291D02*
X0085537Y0059291D01*
X0084739Y0058493D02*
X0080476Y0058493D01*
X0080476Y0057694D02*
X0083940Y0057694D01*
X0083142Y0056896D02*
X0080476Y0056896D01*
X0080476Y0056097D02*
X0082343Y0056097D01*
X0081545Y0055299D02*
X0080476Y0055299D01*
X0080476Y0054500D02*
X0080746Y0054500D01*
X0080476Y0052250D02*
X0089851Y0061625D01*
X0089851Y0103500D01*
X0111393Y0115187D02*
X0111927Y0115187D01*
X0112192Y0114389D02*
X0113818Y0114389D01*
X0111129Y0115986D02*
X0110626Y0115986D01*
X0110626Y0116784D02*
X0110776Y0116784D01*
X0110776Y0117583D02*
X0110626Y0117583D01*
X0110626Y0118381D02*
X0110996Y0118381D01*
X0110626Y0119180D02*
X0111794Y0119180D01*
X0110626Y0119978D02*
X0113684Y0119978D01*
X0110626Y0120777D02*
X0148897Y0120777D01*
X0149696Y0121575D02*
X0110626Y0121575D01*
X0110626Y0122374D02*
X0150495Y0122374D01*
X0151293Y0123172D02*
X0110626Y0123172D01*
X0110626Y0123971D02*
X0148144Y0123971D01*
X0147345Y0124769D02*
X0110626Y0124769D01*
X0110626Y0125568D02*
X0147026Y0125568D01*
X0147026Y0126366D02*
X0110626Y0126366D01*
X0110626Y0127165D02*
X0147279Y0127165D01*
X0148078Y0127963D02*
X0110626Y0127963D01*
X0110626Y0128762D02*
X0150008Y0128762D01*
X0150806Y0129560D02*
X0110626Y0129560D01*
X0110626Y0130359D02*
X0151354Y0130359D01*
X0151354Y0131157D02*
X0139369Y0131157D01*
X0140168Y0131956D02*
X0151354Y0131956D01*
X0151354Y0132754D02*
X0140176Y0132754D01*
X0140176Y0133553D02*
X0151354Y0133553D01*
X0151354Y0134351D02*
X0139611Y0134351D01*
X0137976Y0132875D02*
X0111726Y0132875D01*
X0113361Y0134351D02*
X0136341Y0134351D01*
X0136582Y0131157D02*
X0113119Y0131157D01*
X0112870Y0135150D02*
X0110626Y0135150D01*
X0110626Y0135948D02*
X0111245Y0135948D01*
X0120581Y0135150D02*
X0151354Y0135150D01*
X0151354Y0135948D02*
X0122206Y0135948D01*
X0123004Y0136747D02*
X0151354Y0136747D01*
X0151354Y0137545D02*
X0123401Y0137545D01*
X0123726Y0138344D02*
X0151354Y0138344D01*
X0151354Y0139142D02*
X0123726Y0139142D01*
X0123717Y0139941D02*
X0150140Y0139941D01*
X0149786Y0140739D02*
X0123387Y0140739D01*
X0122970Y0141538D02*
X0149786Y0141538D01*
X0149786Y0142337D02*
X0122171Y0142337D01*
X0141464Y0154867D02*
X0142050Y0154281D01*
X0147209Y0154281D01*
X0147795Y0154867D01*
X0147795Y0159633D01*
X0147209Y0160218D01*
X0145176Y0160218D01*
X0145176Y0161911D01*
X0144776Y0162311D01*
X0144776Y0162406D01*
X0147209Y0162406D01*
X0147795Y0162992D01*
X0147795Y0167758D01*
X0147209Y0168343D01*
X0142050Y0168343D01*
X0141464Y0167758D01*
X0141464Y0165705D01*
X0141396Y0165494D01*
X0141176Y0165274D01*
X0141176Y0164812D01*
X0141034Y0164372D01*
X0141176Y0164095D01*
X0141176Y0162311D01*
X0140776Y0161911D01*
X0140776Y0160089D01*
X0141176Y0159689D01*
X0141176Y0157591D01*
X0141093Y0156971D01*
X0141176Y0156863D01*
X0141176Y0156726D01*
X0141464Y0156438D01*
X0141464Y0154867D01*
X0141464Y0155113D02*
X0080476Y0155113D01*
X0080476Y0154314D02*
X0142017Y0154314D01*
X0141464Y0155911D02*
X0122169Y0155911D01*
X0121991Y0155734D02*
X0123117Y0156859D01*
X0123726Y0158329D01*
X0123726Y0159921D01*
X0123117Y0161391D01*
X0121991Y0162516D01*
X0120521Y0163125D01*
X0112930Y0163125D01*
X0111460Y0162516D01*
X0110335Y0161391D01*
X0109726Y0159921D01*
X0109726Y0158329D01*
X0110335Y0156859D01*
X0111460Y0155734D01*
X0112930Y0155125D01*
X0120521Y0155125D01*
X0121991Y0155734D01*
X0122967Y0156710D02*
X0141192Y0156710D01*
X0141165Y0157508D02*
X0123386Y0157508D01*
X0123716Y0158307D02*
X0141176Y0158307D01*
X0141176Y0159105D02*
X0123726Y0159105D01*
X0123726Y0159904D02*
X0140961Y0159904D01*
X0140776Y0160702D02*
X0123402Y0160702D01*
X0123007Y0161501D02*
X0140776Y0161501D01*
X0141164Y0162299D02*
X0122208Y0162299D01*
X0120587Y0163098D02*
X0141176Y0163098D01*
X0141176Y0163896D02*
X0080476Y0163896D01*
X0080476Y0164695D02*
X0141138Y0164695D01*
X0141395Y0165493D02*
X0080476Y0165493D01*
X0080476Y0166292D02*
X0141464Y0166292D01*
X0141464Y0167090D02*
X0080476Y0167090D01*
X0080476Y0167889D02*
X0141595Y0167889D01*
X0140371Y0172210D02*
X0145137Y0172210D01*
X0145723Y0172795D01*
X0145723Y0177955D01*
X0145137Y0178540D01*
X0144776Y0178540D01*
X0144776Y0179064D01*
X0145176Y0179464D01*
X0145176Y0181286D01*
X0143887Y0182575D01*
X0142064Y0182575D01*
X0140776Y0181286D01*
X0140776Y0179464D01*
X0141176Y0179064D01*
X0141176Y0178540D01*
X0140371Y0178540D01*
X0139786Y0177955D01*
X0139786Y0172795D01*
X0140371Y0172210D01*
X0139901Y0172680D02*
X0080476Y0172680D01*
X0080476Y0173478D02*
X0139786Y0173478D01*
X0139786Y0174277D02*
X0080476Y0174277D01*
X0080476Y0175075D02*
X0139786Y0175075D01*
X0139786Y0175874D02*
X0080476Y0175874D01*
X0080476Y0176672D02*
X0139786Y0176672D01*
X0139786Y0177471D02*
X0080476Y0177471D01*
X0080476Y0178270D02*
X0140101Y0178270D01*
X0141171Y0179068D02*
X0080476Y0179068D01*
X0080476Y0179867D02*
X0140776Y0179867D01*
X0140776Y0180665D02*
X0080476Y0180665D01*
X0080476Y0181464D02*
X0140953Y0181464D01*
X0141751Y0182262D02*
X0080476Y0182262D01*
X0080476Y0183061D02*
X0161925Y0183061D01*
X0162064Y0183200D02*
X0160776Y0181911D01*
X0160776Y0180089D01*
X0162064Y0178800D01*
X0162913Y0178800D01*
X0164978Y0176735D01*
X0164978Y0146713D01*
X0165563Y0146127D01*
X0177022Y0146127D01*
X0177608Y0146713D01*
X0177608Y0179037D01*
X0177022Y0179623D01*
X0166615Y0179623D01*
X0165176Y0181063D01*
X0165176Y0181911D01*
X0163887Y0183200D01*
X0162064Y0183200D01*
X0161126Y0182262D02*
X0144200Y0182262D01*
X0144998Y0181464D02*
X0160776Y0181464D01*
X0160776Y0180665D02*
X0145176Y0180665D01*
X0145176Y0179867D02*
X0160998Y0179867D01*
X0161796Y0179068D02*
X0144780Y0179068D01*
X0145408Y0178270D02*
X0146794Y0178270D01*
X0147064Y0178540D02*
X0146479Y0177955D01*
X0146479Y0172795D01*
X0147064Y0172210D01*
X0150633Y0172210D01*
X0161797Y0161045D01*
X0161797Y0146040D01*
X0160847Y0146040D01*
X0160847Y0157830D01*
X0154487Y0164190D01*
X0154487Y0167758D01*
X0153902Y0168343D01*
X0148743Y0168343D01*
X0148157Y0167758D01*
X0148157Y0162992D01*
X0148743Y0162406D01*
X0152311Y0162406D01*
X0158047Y0156670D01*
X0158047Y0146040D01*
X0157064Y0146040D01*
X0156479Y0145455D01*
X0156479Y0140295D01*
X0157064Y0139710D01*
X0161797Y0139710D01*
X0161797Y0135415D01*
X0160814Y0135415D01*
X0160229Y0134830D01*
X0160229Y0129670D01*
X0160814Y0129085D01*
X0165580Y0129085D01*
X0166166Y0129670D01*
X0166166Y0134830D01*
X0165580Y0135415D01*
X0164597Y0135415D01*
X0164597Y0162205D01*
X0152416Y0174386D01*
X0152416Y0177955D01*
X0151830Y0178540D01*
X0147064Y0178540D01*
X0146479Y0177471D02*
X0145723Y0177471D01*
X0145723Y0176672D02*
X0146479Y0176672D01*
X0146479Y0175874D02*
X0145723Y0175874D01*
X0145723Y0175075D02*
X0146479Y0175075D01*
X0146479Y0174277D02*
X0145723Y0174277D01*
X0145723Y0173478D02*
X0146479Y0173478D01*
X0146594Y0172680D02*
X0145607Y0172680D01*
X0149447Y0175375D02*
X0163197Y0161625D01*
X0163197Y0132250D01*
X0160229Y0131956D02*
X0159473Y0131956D01*
X0159473Y0132754D02*
X0160229Y0132754D01*
X0160229Y0133553D02*
X0159473Y0133553D01*
X0159473Y0134351D02*
X0160229Y0134351D01*
X0160549Y0135150D02*
X0159152Y0135150D01*
X0161797Y0135948D02*
X0154154Y0135948D01*
X0154154Y0136747D02*
X0161797Y0136747D01*
X0161797Y0137545D02*
X0154154Y0137545D01*
X0154154Y0138344D02*
X0161797Y0138344D01*
X0161797Y0139142D02*
X0154154Y0139142D01*
X0155368Y0139941D02*
X0156833Y0139941D01*
X0156479Y0140739D02*
X0155723Y0140739D01*
X0155723Y0141538D02*
X0156479Y0141538D01*
X0156479Y0142337D02*
X0155723Y0142337D01*
X0155723Y0143135D02*
X0156479Y0143135D01*
X0156479Y0143934D02*
X0155723Y0143934D01*
X0155723Y0144732D02*
X0156479Y0144732D01*
X0156555Y0145531D02*
X0155647Y0145531D01*
X0154154Y0146329D02*
X0158047Y0146329D01*
X0158047Y0147128D02*
X0154154Y0147128D01*
X0154154Y0147926D02*
X0158047Y0147926D01*
X0158047Y0148725D02*
X0154154Y0148725D01*
X0154154Y0149523D02*
X0158047Y0149523D01*
X0158047Y0150322D02*
X0154154Y0150322D01*
X0154154Y0151120D02*
X0158047Y0151120D01*
X0158047Y0151919D02*
X0154154Y0151919D01*
X0154154Y0152717D02*
X0158047Y0152717D01*
X0158047Y0153516D02*
X0154154Y0153516D01*
X0154154Y0154314D02*
X0158047Y0154314D01*
X0158047Y0155113D02*
X0154487Y0155113D01*
X0154487Y0155911D02*
X0158047Y0155911D01*
X0158008Y0156710D02*
X0154487Y0156710D01*
X0154487Y0157508D02*
X0157209Y0157508D01*
X0156410Y0158307D02*
X0154487Y0158307D01*
X0154487Y0159105D02*
X0155612Y0159105D01*
X0154813Y0159904D02*
X0154216Y0159904D01*
X0154015Y0160702D02*
X0145176Y0160702D01*
X0145176Y0161501D02*
X0153216Y0161501D01*
X0152418Y0162299D02*
X0144788Y0162299D01*
X0147795Y0163098D02*
X0148157Y0163098D01*
X0148157Y0163896D02*
X0147795Y0163896D01*
X0147795Y0164695D02*
X0148157Y0164695D01*
X0148157Y0165493D02*
X0147795Y0165493D01*
X0147795Y0166292D02*
X0148157Y0166292D01*
X0148157Y0167090D02*
X0147795Y0167090D01*
X0147663Y0167889D02*
X0148288Y0167889D01*
X0151322Y0165375D02*
X0159447Y0157250D01*
X0159447Y0142875D01*
X0164597Y0143135D02*
X0165749Y0143135D01*
X0165151Y0142536D02*
X0166439Y0143825D01*
X0167758Y0143825D01*
X0167758Y0144205D01*
X0168344Y0144790D01*
X0173503Y0144790D01*
X0174089Y0144205D01*
X0174089Y0139045D01*
X0173503Y0138460D01*
X0168344Y0138460D01*
X0167758Y0139045D01*
X0167758Y0139425D01*
X0166439Y0139425D01*
X0165151Y0140714D01*
X0165151Y0142536D01*
X0165151Y0142337D02*
X0164597Y0142337D01*
X0164597Y0141538D02*
X0165151Y0141538D01*
X0165151Y0140739D02*
X0164597Y0140739D01*
X0164597Y0139941D02*
X0165923Y0139941D01*
X0164597Y0139142D02*
X0167758Y0139142D01*
X0164597Y0138344D02*
X0184878Y0138344D01*
X0184878Y0138460D02*
X0184878Y0137575D01*
X0183939Y0137575D01*
X0182651Y0136286D01*
X0182651Y0134464D01*
X0183939Y0133175D01*
X0185762Y0133175D01*
X0187051Y0134464D01*
X0187051Y0135595D01*
X0187678Y0136222D01*
X0187678Y0138460D01*
X0188857Y0138460D01*
X0189408Y0139010D01*
X0189574Y0138844D01*
X0195127Y0138844D01*
X0195713Y0139429D01*
X0195713Y0143407D01*
X0195127Y0143993D01*
X0193544Y0143993D01*
X0193544Y0146127D01*
X0197888Y0146127D01*
X0198474Y0146713D01*
X0198474Y0179037D01*
X0197888Y0179623D01*
X0186430Y0179623D01*
X0185844Y0179037D01*
X0185844Y0146713D01*
X0186430Y0146127D01*
X0190744Y0146127D01*
X0190744Y0143993D01*
X0189574Y0143993D01*
X0189443Y0143862D01*
X0189443Y0144205D01*
X0188857Y0144790D01*
X0183698Y0144790D01*
X0183112Y0144205D01*
X0183112Y0139045D01*
X0183698Y0138460D01*
X0184878Y0138460D01*
X0183910Y0137545D02*
X0164597Y0137545D01*
X0164597Y0136747D02*
X0183111Y0136747D01*
X0182651Y0135948D02*
X0164597Y0135948D01*
X0165845Y0135150D02*
X0182651Y0135150D01*
X0182763Y0134351D02*
X0166166Y0134351D01*
X0166166Y0133553D02*
X0183562Y0133553D01*
X0184851Y0135375D02*
X0186278Y0136802D01*
X0186278Y0141625D01*
X0192144Y0141625D01*
X0192144Y0162860D01*
X0192159Y0162875D01*
X0185844Y0163098D02*
X0177608Y0163098D01*
X0177608Y0163896D02*
X0185844Y0163896D01*
X0185844Y0164695D02*
X0177608Y0164695D01*
X0177608Y0165493D02*
X0185844Y0165493D01*
X0185844Y0166292D02*
X0177608Y0166292D01*
X0177608Y0167090D02*
X0185844Y0167090D01*
X0185844Y0167889D02*
X0177608Y0167889D01*
X0177608Y0168687D02*
X0185844Y0168687D01*
X0185844Y0169486D02*
X0177608Y0169486D01*
X0177608Y0170284D02*
X0185844Y0170284D01*
X0185844Y0171083D02*
X0177608Y0171083D01*
X0177608Y0171881D02*
X0185844Y0171881D01*
X0185844Y0172680D02*
X0177608Y0172680D01*
X0177608Y0173478D02*
X0185844Y0173478D01*
X0185844Y0174277D02*
X0177608Y0174277D01*
X0177608Y0175075D02*
X0185844Y0175075D01*
X0185844Y0175874D02*
X0177608Y0175874D01*
X0177608Y0176672D02*
X0185844Y0176672D01*
X0185844Y0177471D02*
X0177608Y0177471D01*
X0177608Y0178270D02*
X0185844Y0178270D01*
X0185875Y0179068D02*
X0177577Y0179068D01*
X0166372Y0179867D02*
X0293601Y0179867D01*
X0293601Y0180665D02*
X0165573Y0180665D01*
X0165176Y0181464D02*
X0293601Y0181464D01*
X0293601Y0182262D02*
X0164825Y0182262D01*
X0164026Y0183061D02*
X0293601Y0183061D01*
X0293601Y0183859D02*
X0080476Y0183859D01*
X0080476Y0184658D02*
X0293601Y0184658D01*
X0293601Y0185456D02*
X0080476Y0185456D01*
X0080476Y0186255D02*
X0293601Y0186255D01*
X0293601Y0187053D02*
X0080476Y0187053D01*
X0080476Y0187852D02*
X0293601Y0187852D01*
X0293601Y0188650D02*
X0080476Y0188650D01*
X0080476Y0189449D02*
X0380476Y0189449D01*
X0380476Y0190247D02*
X0080476Y0190247D01*
X0080476Y0191046D02*
X0380476Y0191046D01*
X0380476Y0191844D02*
X0080476Y0191844D01*
X0080476Y0192643D02*
X0380476Y0192643D01*
X0380476Y0193441D02*
X0080476Y0193441D01*
X0080476Y0171881D02*
X0150961Y0171881D01*
X0151759Y0171083D02*
X0080476Y0171083D01*
X0080476Y0170284D02*
X0152558Y0170284D01*
X0153356Y0169486D02*
X0080476Y0169486D01*
X0080476Y0168687D02*
X0154155Y0168687D01*
X0154356Y0167889D02*
X0154953Y0167889D01*
X0154487Y0167090D02*
X0155752Y0167090D01*
X0156550Y0166292D02*
X0154487Y0166292D01*
X0154487Y0165493D02*
X0157349Y0165493D01*
X0158147Y0164695D02*
X0154487Y0164695D01*
X0154781Y0163896D02*
X0158946Y0163896D01*
X0159744Y0163098D02*
X0155579Y0163098D01*
X0156378Y0162299D02*
X0160543Y0162299D01*
X0161341Y0161501D02*
X0157176Y0161501D01*
X0157975Y0160702D02*
X0161797Y0160702D01*
X0161797Y0159904D02*
X0158773Y0159904D01*
X0159572Y0159105D02*
X0161797Y0159105D01*
X0161797Y0158307D02*
X0160370Y0158307D01*
X0160847Y0157508D02*
X0161797Y0157508D01*
X0161797Y0156710D02*
X0160847Y0156710D01*
X0160847Y0155911D02*
X0161797Y0155911D01*
X0161797Y0155113D02*
X0160847Y0155113D01*
X0160847Y0154314D02*
X0161797Y0154314D01*
X0161797Y0153516D02*
X0160847Y0153516D01*
X0160847Y0152717D02*
X0161797Y0152717D01*
X0161797Y0151919D02*
X0160847Y0151919D01*
X0160847Y0151120D02*
X0161797Y0151120D01*
X0161797Y0150322D02*
X0160847Y0150322D01*
X0160847Y0149523D02*
X0161797Y0149523D01*
X0161797Y0148725D02*
X0160847Y0148725D01*
X0160847Y0147926D02*
X0161797Y0147926D01*
X0161797Y0147128D02*
X0160847Y0147128D01*
X0160847Y0146329D02*
X0161797Y0146329D01*
X0164597Y0146329D02*
X0165361Y0146329D01*
X0164978Y0147128D02*
X0164597Y0147128D01*
X0164597Y0147926D02*
X0164978Y0147926D01*
X0164978Y0148725D02*
X0164597Y0148725D01*
X0164597Y0149523D02*
X0164978Y0149523D01*
X0164978Y0150322D02*
X0164597Y0150322D01*
X0164597Y0151120D02*
X0164978Y0151120D01*
X0164978Y0151919D02*
X0164597Y0151919D01*
X0164597Y0152717D02*
X0164978Y0152717D01*
X0164978Y0153516D02*
X0164597Y0153516D01*
X0164597Y0154314D02*
X0164978Y0154314D01*
X0164978Y0155113D02*
X0164597Y0155113D01*
X0164597Y0155911D02*
X0164978Y0155911D01*
X0164978Y0156710D02*
X0164597Y0156710D01*
X0164597Y0157508D02*
X0164978Y0157508D01*
X0164978Y0158307D02*
X0164597Y0158307D01*
X0164597Y0159105D02*
X0164978Y0159105D01*
X0164978Y0159904D02*
X0164597Y0159904D01*
X0164597Y0160702D02*
X0164978Y0160702D01*
X0164978Y0161501D02*
X0164597Y0161501D01*
X0164503Y0162299D02*
X0164978Y0162299D01*
X0164978Y0163098D02*
X0163704Y0163098D01*
X0162906Y0163896D02*
X0164978Y0163896D01*
X0164978Y0164695D02*
X0162107Y0164695D01*
X0161309Y0165493D02*
X0164978Y0165493D01*
X0164978Y0166292D02*
X0160510Y0166292D01*
X0159712Y0167090D02*
X0164978Y0167090D01*
X0164978Y0167889D02*
X0158913Y0167889D01*
X0158115Y0168687D02*
X0164978Y0168687D01*
X0164978Y0169486D02*
X0157316Y0169486D01*
X0156518Y0170284D02*
X0164978Y0170284D01*
X0164978Y0171083D02*
X0155719Y0171083D01*
X0154921Y0171881D02*
X0164978Y0171881D01*
X0164978Y0172680D02*
X0154122Y0172680D01*
X0153324Y0173478D02*
X0164978Y0173478D01*
X0164978Y0174277D02*
X0152525Y0174277D01*
X0152416Y0175075D02*
X0164978Y0175075D01*
X0164978Y0175874D02*
X0152416Y0175874D01*
X0152416Y0176672D02*
X0164978Y0176672D01*
X0164242Y0177471D02*
X0152416Y0177471D01*
X0152101Y0178270D02*
X0163443Y0178270D01*
X0151101Y0173721D02*
X0149447Y0175375D01*
X0148428Y0159904D02*
X0147524Y0159904D01*
X0147795Y0159105D02*
X0148157Y0159105D01*
X0148157Y0158307D02*
X0147795Y0158307D01*
X0147795Y0157508D02*
X0148157Y0157508D01*
X0148157Y0156710D02*
X0147795Y0156710D01*
X0147795Y0155911D02*
X0148157Y0155911D01*
X0148157Y0155113D02*
X0147795Y0155113D01*
X0147241Y0154314D02*
X0148710Y0154314D01*
X0151322Y0157250D02*
X0152754Y0155818D01*
X0152754Y0142875D01*
X0152754Y0129529D01*
X0149226Y0126000D01*
X0151426Y0125568D02*
X0153689Y0125568D01*
X0154487Y0126366D02*
X0151572Y0126366D01*
X0152370Y0127165D02*
X0155104Y0127165D01*
X0155104Y0127963D02*
X0153169Y0127963D01*
X0153967Y0128762D02*
X0155104Y0128762D01*
X0156504Y0126404D02*
X0147976Y0117875D01*
X0150176Y0117583D02*
X0163276Y0117583D01*
X0163276Y0116784D02*
X0161553Y0116784D01*
X0162351Y0115986D02*
X0163629Y0115986D01*
X0164076Y0115187D02*
X0162676Y0115187D01*
X0162676Y0114389D02*
X0164076Y0114389D01*
X0164076Y0113590D02*
X0162427Y0113590D01*
X0161629Y0112792D02*
X0164076Y0112792D01*
X0164076Y0111993D02*
X0149074Y0111993D01*
X0149872Y0112792D02*
X0159323Y0112792D01*
X0160476Y0114750D02*
X0149851Y0114750D01*
X0149996Y0116784D02*
X0159399Y0116784D01*
X0163496Y0118381D02*
X0150462Y0118381D01*
X0151260Y0119180D02*
X0164294Y0119180D01*
X0165476Y0117250D02*
X0165476Y0079125D01*
X0167119Y0077657D02*
X0185326Y0077657D01*
X0185326Y0076859D02*
X0162571Y0076859D01*
X0163301Y0077657D02*
X0163832Y0077657D01*
X0163292Y0080053D02*
X0162659Y0080053D01*
X0161563Y0080851D02*
X0164076Y0080851D01*
X0164076Y0081650D02*
X0162051Y0081650D01*
X0162051Y0082448D02*
X0164076Y0082448D01*
X0164076Y0083247D02*
X0161965Y0083247D01*
X0161632Y0084045D02*
X0164076Y0084045D01*
X0164076Y0084844D02*
X0162431Y0084844D01*
X0162676Y0085642D02*
X0164076Y0085642D01*
X0164076Y0086441D02*
X0162676Y0086441D01*
X0162348Y0087239D02*
X0164076Y0087239D01*
X0164076Y0088038D02*
X0161549Y0088038D01*
X0159402Y0088038D02*
X0125118Y0088038D01*
X0124320Y0087239D02*
X0149110Y0087239D01*
X0148311Y0086441D02*
X0123751Y0086441D01*
X0123751Y0085642D02*
X0147513Y0085642D01*
X0146714Y0084844D02*
X0123751Y0084844D01*
X0123751Y0084045D02*
X0145916Y0084045D01*
X0145117Y0083247D02*
X0123751Y0083247D01*
X0123751Y0082448D02*
X0144319Y0082448D01*
X0143520Y0081650D02*
X0123751Y0081650D01*
X0123751Y0080851D02*
X0142722Y0080851D01*
X0141923Y0080053D02*
X0123751Y0080053D01*
X0123751Y0079254D02*
X0141125Y0079254D01*
X0140326Y0078456D02*
X0123751Y0078456D01*
X0123751Y0077657D02*
X0139528Y0077657D01*
X0138729Y0076859D02*
X0123751Y0076859D01*
X0123751Y0076060D02*
X0137931Y0076060D01*
X0137132Y0075262D02*
X0123751Y0075262D01*
X0123751Y0074463D02*
X0136334Y0074463D01*
X0135535Y0073665D02*
X0123751Y0073665D01*
X0123751Y0072866D02*
X0134737Y0072866D01*
X0133938Y0072068D02*
X0123751Y0072068D01*
X0123751Y0071269D02*
X0133140Y0071269D01*
X0132341Y0070470D02*
X0123751Y0070470D01*
X0123751Y0069672D02*
X0131543Y0069672D01*
X0130744Y0068873D02*
X0123838Y0068873D01*
X0124551Y0068075D02*
X0129946Y0068075D01*
X0122759Y0060888D02*
X0094219Y0060888D01*
X0095001Y0061687D02*
X0097336Y0061687D01*
X0096568Y0062485D02*
X0095001Y0062485D01*
X0095001Y0063284D02*
X0096482Y0063284D01*
X0096482Y0064082D02*
X0095001Y0064082D01*
X0093601Y0062250D02*
X0063601Y0032250D01*
X0080476Y0032142D02*
X0100524Y0032142D01*
X0100524Y0032940D02*
X0080476Y0032940D01*
X0080476Y0033739D02*
X0100524Y0033739D01*
X0100524Y0034537D02*
X0080476Y0034537D01*
X0080476Y0035336D02*
X0100524Y0035336D01*
X0100524Y0036134D02*
X0080476Y0036134D01*
X0080476Y0036933D02*
X0100524Y0036933D01*
X0100524Y0037732D02*
X0080476Y0037732D01*
X0080476Y0038530D02*
X0100524Y0038530D01*
X0100524Y0039329D02*
X0080476Y0039329D01*
X0080476Y0040127D02*
X0100556Y0040127D01*
X0106401Y0041724D02*
X0080476Y0041724D01*
X0080476Y0040926D02*
X0106814Y0040926D01*
X0106401Y0042523D02*
X0080476Y0042523D01*
X0080476Y0043321D02*
X0106561Y0043321D01*
X0107359Y0044120D02*
X0080476Y0044120D01*
X0080476Y0044918D02*
X0110539Y0044918D01*
X0111337Y0045717D02*
X0080476Y0045717D01*
X0080476Y0046515D02*
X0112136Y0046515D01*
X0112934Y0047314D02*
X0080644Y0047314D01*
X0081443Y0048112D02*
X0113733Y0048112D01*
X0114531Y0048911D02*
X0110248Y0048911D01*
X0108204Y0048911D02*
X0082241Y0048911D01*
X0083040Y0049709D02*
X0107405Y0049709D01*
X0107026Y0050508D02*
X0083838Y0050508D01*
X0084637Y0051306D02*
X0107026Y0051306D01*
X0107219Y0052105D02*
X0085435Y0052105D01*
X0086234Y0052903D02*
X0108018Y0052903D01*
X0109226Y0051000D02*
X0114851Y0051000D01*
X0149851Y0086000D01*
X0160476Y0086000D01*
X0159851Y0082250D02*
X0149851Y0082250D01*
X0109851Y0042250D01*
X0108601Y0042250D01*
X0124177Y0033739D02*
X0124899Y0033739D01*
X0124899Y0032940D02*
X0124177Y0032940D01*
X0124177Y0032142D02*
X0124899Y0032142D01*
X0136726Y0036039D02*
X0140515Y0032250D01*
X0150476Y0032250D01*
X0152676Y0032142D02*
X0239251Y0032142D01*
X0239251Y0032940D02*
X0152676Y0032940D01*
X0152676Y0031343D02*
X0239251Y0031343D01*
X0239251Y0030545D02*
X0226347Y0030545D01*
X0226033Y0030675D02*
X0224919Y0030675D01*
X0223890Y0030249D01*
X0223102Y0029461D01*
X0222676Y0028432D01*
X0222676Y0027318D01*
X0223102Y0026289D01*
X0223890Y0025501D01*
X0224919Y0025075D01*
X0225164Y0025075D01*
X0237689Y0012550D01*
X0271212Y0012550D01*
X0272501Y0013839D01*
X0274762Y0016100D01*
X0281465Y0016100D01*
X0282051Y0016686D01*
X0282051Y0020314D01*
X0281465Y0020900D01*
X0266636Y0020900D01*
X0266051Y0020314D01*
X0266051Y0016950D01*
X0239512Y0016950D01*
X0228276Y0028186D01*
X0228276Y0028432D01*
X0227849Y0029461D01*
X0227062Y0030249D01*
X0226033Y0030675D01*
X0224605Y0030545D02*
X0151882Y0030545D01*
X0149069Y0030545D02*
X0109119Y0030545D01*
X0109917Y0031343D02*
X0139442Y0031343D01*
X0139265Y0036039D02*
X0136726Y0036039D01*
X0147351Y0053175D02*
X0154901Y0045625D01*
X0160701Y0045717D02*
X0186901Y0045717D01*
X0186901Y0046025D02*
X0186901Y0045225D01*
X0187701Y0045225D01*
X0187701Y0046025D01*
X0193501Y0046025D01*
X0193501Y0051295D01*
X0193646Y0051150D01*
X0195351Y0049445D01*
X0195351Y0034211D01*
X0195936Y0033625D01*
X0206365Y0033625D01*
X0206951Y0034211D01*
X0206951Y0056920D01*
X0208451Y0055420D01*
X0208451Y0050836D01*
X0207651Y0050036D01*
X0207651Y0048214D01*
X0208939Y0046925D01*
X0210762Y0046925D01*
X0212051Y0048214D01*
X0212051Y0050036D01*
X0211251Y0050836D01*
X0211251Y0053989D01*
X0212064Y0053175D01*
X0213887Y0053175D01*
X0215176Y0054464D01*
X0215176Y0055595D01*
X0220056Y0060475D01*
X0227751Y0060475D01*
X0227751Y0059711D01*
X0228336Y0059125D01*
X0238765Y0059125D01*
X0239351Y0059711D01*
X0239351Y0064039D01*
X0238790Y0064600D01*
X0269271Y0064600D01*
X0272651Y0061220D01*
X0272651Y0050900D01*
X0266636Y0050900D01*
X0266051Y0050314D01*
X0266051Y0046686D01*
X0266636Y0046100D01*
X0272451Y0046100D01*
X0272451Y0045900D01*
X0266636Y0045900D01*
X0266051Y0045314D01*
X0266051Y0041686D01*
X0266636Y0041100D01*
X0272451Y0041100D01*
X0272451Y0040900D01*
X0266636Y0040900D01*
X0266051Y0040314D01*
X0266051Y0036686D01*
X0266636Y0036100D01*
X0272451Y0036100D01*
X0272451Y0030900D01*
X0266636Y0030900D01*
X0266051Y0030314D01*
X0266051Y0026686D01*
X0266636Y0026100D01*
X0272651Y0026100D01*
X0272651Y0025900D01*
X0266636Y0025900D01*
X0266051Y0025314D01*
X0266051Y0021686D01*
X0266636Y0021100D01*
X0281465Y0021100D01*
X0282051Y0021686D01*
X0282051Y0025314D01*
X0281465Y0025900D01*
X0275451Y0025900D01*
X0275451Y0026100D01*
X0281465Y0026100D01*
X0282051Y0026686D01*
X0282051Y0030314D01*
X0281465Y0030900D01*
X0275651Y0030900D01*
X0275651Y0036100D01*
X0281465Y0036100D01*
X0282051Y0036686D01*
X0282051Y0040314D01*
X0281465Y0040900D01*
X0275651Y0040900D01*
X0275651Y0041100D01*
X0281465Y0041100D01*
X0282051Y0041686D01*
X0282051Y0045314D01*
X0281465Y0045900D01*
X0275651Y0045900D01*
X0275651Y0046100D01*
X0281465Y0046100D01*
X0282051Y0046686D01*
X0282051Y0050314D01*
X0281465Y0050900D01*
X0275451Y0050900D01*
X0275451Y0062380D01*
X0274631Y0063200D01*
X0271251Y0066580D01*
X0270906Y0066925D01*
X0301216Y0066925D01*
X0301390Y0066751D01*
X0302419Y0066325D01*
X0303533Y0066325D01*
X0304562Y0066751D01*
X0305349Y0067539D01*
X0305776Y0068568D01*
X0305776Y0069682D01*
X0305349Y0070711D01*
X0304562Y0071499D01*
X0303533Y0071925D01*
X0302419Y0071925D01*
X0301390Y0071499D01*
X0301216Y0071325D01*
X0247637Y0071325D01*
X0227637Y0091325D01*
X0205358Y0091325D01*
X0203041Y0093643D01*
X0203041Y0096080D01*
X0202455Y0096665D01*
X0197689Y0096665D01*
X0197104Y0096080D01*
X0197104Y0090920D01*
X0197689Y0090335D01*
X0200126Y0090335D01*
X0202247Y0088214D01*
X0203536Y0086925D01*
X0225814Y0086925D01*
X0245339Y0067400D01*
X0206562Y0067400D01*
X0205762Y0068200D01*
X0203939Y0068200D01*
X0202651Y0066911D01*
X0202651Y0065089D01*
X0203114Y0064625D01*
X0195936Y0064625D01*
X0195626Y0064314D01*
X0195626Y0067205D01*
X0188126Y0074705D01*
X0188126Y0084614D01*
X0188939Y0083800D01*
X0190071Y0083800D01*
X0192604Y0081267D01*
X0192604Y0079165D01*
X0191621Y0079165D01*
X0191036Y0078580D01*
X0191036Y0073420D01*
X0191621Y0072835D01*
X0196387Y0072835D01*
X0196973Y0073420D01*
X0196973Y0078580D01*
X0196387Y0079165D01*
X0195404Y0079165D01*
X0195404Y0082426D01*
X0194584Y0083246D01*
X0192051Y0085780D01*
X0192051Y0086911D01*
X0190762Y0088200D01*
X0188939Y0088200D01*
X0188126Y0087386D01*
X0188126Y0098989D01*
X0188939Y0098175D01*
X0190071Y0098175D01*
X0191580Y0096665D01*
X0190996Y0096665D01*
X0190411Y0096080D01*
X0190411Y0090920D01*
X0190996Y0090335D01*
X0195762Y0090335D01*
X0196348Y0090920D01*
X0196348Y0096080D01*
X0195762Y0096665D01*
X0194779Y0096665D01*
X0194779Y0097426D01*
X0193959Y0098246D01*
X0192051Y0100155D01*
X0192051Y0101286D01*
X0190762Y0102575D01*
X0188939Y0102575D01*
X0188126Y0101761D01*
X0188126Y0102414D01*
X0188926Y0103214D01*
X0188926Y0104345D01*
X0190404Y0105824D01*
X0190404Y0106585D01*
X0191387Y0106585D01*
X0191973Y0107170D01*
X0191973Y0112330D01*
X0191387Y0112915D01*
X0190404Y0112915D01*
X0190404Y0115199D01*
X0195027Y0119821D01*
X0211060Y0119821D01*
X0211060Y0118839D01*
X0211646Y0118253D01*
X0216492Y0118253D01*
X0215736Y0117497D01*
X0211646Y0117497D01*
X0211060Y0116911D01*
X0211060Y0116729D01*
X0209343Y0116729D01*
X0208054Y0115440D01*
X0203289Y0110675D01*
X0203044Y0110675D01*
X0202015Y0110249D01*
X0201227Y0109461D01*
X0200801Y0108432D01*
X0200801Y0107758D01*
X0198666Y0109893D01*
X0198666Y0112330D01*
X0198080Y0112915D01*
X0193314Y0112915D01*
X0192729Y0112330D01*
X0192729Y0107170D01*
X0193314Y0106585D01*
X0195751Y0106585D01*
X0210098Y0092237D01*
X0212153Y0092237D01*
X0212327Y0092064D01*
X0213356Y0091637D01*
X0214470Y0091637D01*
X0215499Y0092064D01*
X0215673Y0092237D01*
X0229252Y0092237D01*
X0240814Y0080675D01*
X0273712Y0080675D01*
X0274762Y0081725D01*
X0281465Y0081725D01*
X0282051Y0082311D01*
X0282051Y0085939D01*
X0281574Y0086416D01*
X0281591Y0086420D01*
X0281910Y0086605D01*
X0282171Y0086865D01*
X0282355Y0087185D01*
X0282451Y0087541D01*
X0282451Y0088825D01*
X0274351Y0088825D01*
X0274351Y0089425D01*
X0282451Y0089425D01*
X0282451Y0090709D01*
X0282355Y0091065D01*
X0282171Y0091385D01*
X0281931Y0091625D01*
X0282171Y0091865D01*
X0282355Y0092185D01*
X0282451Y0092541D01*
X0282451Y0093825D01*
X0274351Y0093825D01*
X0274351Y0094425D01*
X0282451Y0094425D01*
X0282451Y0095709D01*
X0282355Y0096065D01*
X0282171Y0096385D01*
X0281910Y0096645D01*
X0281591Y0096830D01*
X0281235Y0096925D01*
X0274351Y0096925D01*
X0274351Y0094425D01*
X0273751Y0094425D01*
X0273751Y0096925D01*
X0266866Y0096925D01*
X0266510Y0096830D01*
X0266191Y0096645D01*
X0265930Y0096385D01*
X0265746Y0096065D01*
X0265651Y0095709D01*
X0265651Y0094425D01*
X0273751Y0094425D01*
X0273751Y0093825D01*
X0274351Y0093825D01*
X0274351Y0091325D01*
X0274351Y0089425D01*
X0273751Y0089425D01*
X0273751Y0093825D01*
X0265651Y0093825D01*
X0265651Y0092541D01*
X0265746Y0092185D01*
X0265930Y0091865D01*
X0266171Y0091625D01*
X0265930Y0091385D01*
X0265746Y0091065D01*
X0265651Y0090709D01*
X0265651Y0089425D01*
X0273751Y0089425D01*
X0273751Y0088825D01*
X0265651Y0088825D01*
X0265651Y0087541D01*
X0265746Y0087185D01*
X0265930Y0086865D01*
X0266191Y0086605D01*
X0266510Y0086420D01*
X0266527Y0086416D01*
X0266051Y0085939D01*
X0266051Y0085075D01*
X0262726Y0085075D01*
X0262726Y0097475D01*
X0252126Y0097475D01*
X0252126Y0098275D01*
X0262726Y0098275D01*
X0262726Y0110759D01*
X0262630Y0111115D01*
X0262446Y0111435D01*
X0262185Y0111695D01*
X0261866Y0111880D01*
X0261510Y0111975D01*
X0252126Y0111975D01*
X0252126Y0098275D01*
X0251326Y0098275D01*
X0251326Y0111975D01*
X0245187Y0111975D01*
X0245937Y0112725D01*
X0261056Y0112725D01*
X0267306Y0118975D01*
X0293601Y0118975D01*
X0293601Y0072711D01*
X0294186Y0072125D01*
X0373015Y0072125D01*
X0373601Y0072711D01*
X0373601Y0125539D01*
X0373015Y0126125D01*
X0349559Y0126125D01*
X0349562Y0126126D01*
X0350349Y0126914D01*
X0350776Y0127943D01*
X0350776Y0129057D01*
X0350349Y0130086D01*
X0349562Y0130874D01*
X0348533Y0131300D01*
X0347419Y0131300D01*
X0346390Y0130874D01*
X0346216Y0130700D01*
X0278287Y0130700D01*
X0279551Y0131964D01*
X0279551Y0133095D01*
X0281681Y0135225D01*
X0314181Y0135225D01*
X0314206Y0135250D01*
X0373015Y0135250D01*
X0373601Y0135836D01*
X0373601Y0188664D01*
X0373015Y0189250D01*
X0294186Y0189250D01*
X0293601Y0188664D01*
X0293601Y0138025D01*
X0280521Y0138025D01*
X0279701Y0137205D01*
X0277571Y0135075D01*
X0276439Y0135075D01*
X0275151Y0133786D01*
X0275151Y0131964D01*
X0276414Y0130700D01*
X0275360Y0130700D01*
X0275187Y0130874D01*
X0274158Y0131300D01*
X0273044Y0131300D01*
X0272015Y0130874D01*
X0271227Y0130086D01*
X0270801Y0129057D01*
X0270801Y0127943D01*
X0271227Y0126914D01*
X0272015Y0126126D01*
X0273044Y0125700D01*
X0274158Y0125700D01*
X0275187Y0126126D01*
X0275360Y0126300D01*
X0346216Y0126300D01*
X0346390Y0126126D01*
X0346393Y0126125D01*
X0294186Y0126125D01*
X0293601Y0125539D01*
X0293601Y0121775D01*
X0266146Y0121775D01*
X0265326Y0120955D01*
X0259896Y0115525D01*
X0245937Y0115525D01*
X0245787Y0115675D01*
X0258887Y0115675D01*
X0260176Y0116964D01*
X0266426Y0123214D01*
X0266426Y0143839D01*
X0267437Y0144850D01*
X0281465Y0144850D01*
X0282051Y0145436D01*
X0282051Y0149064D01*
X0281465Y0149650D01*
X0266636Y0149650D01*
X0266436Y0149450D01*
X0265814Y0149450D01*
X0264526Y0148161D01*
X0262501Y0146136D01*
X0262501Y0147295D01*
X0266051Y0150845D01*
X0266051Y0150436D01*
X0266636Y0149850D01*
X0281465Y0149850D01*
X0282051Y0150436D01*
X0282051Y0154064D01*
X0281465Y0154650D01*
X0275651Y0154650D01*
X0275651Y0154850D01*
X0281465Y0154850D01*
X0282051Y0155436D01*
X0282051Y0159064D01*
X0281465Y0159650D01*
X0275651Y0159650D01*
X0275651Y0164850D01*
X0281465Y0164850D01*
X0282051Y0165436D01*
X0282051Y0169064D01*
X0281465Y0169650D01*
X0275651Y0169650D01*
X0275651Y0169850D01*
X0281465Y0169850D01*
X0282051Y0170436D01*
X0282051Y0174064D01*
X0281465Y0174650D01*
X0275651Y0174650D01*
X0275651Y0174850D01*
X0281465Y0174850D01*
X0282051Y0175436D01*
X0282051Y0179064D01*
X0281465Y0179650D01*
X0266636Y0179650D01*
X0266051Y0179064D01*
X0266051Y0175436D01*
X0266636Y0174850D01*
X0272451Y0174850D01*
X0272451Y0174650D01*
X0266636Y0174650D01*
X0266051Y0174064D01*
X0266051Y0170436D01*
X0266636Y0169850D01*
X0272451Y0169850D01*
X0272451Y0169650D01*
X0266636Y0169650D01*
X0266051Y0169064D01*
X0266051Y0165436D01*
X0266636Y0164850D01*
X0272451Y0164850D01*
X0272451Y0159650D01*
X0266636Y0159650D01*
X0266051Y0159064D01*
X0266051Y0155436D01*
X0266636Y0154850D01*
X0272451Y0154850D01*
X0272451Y0154650D01*
X0266636Y0154650D01*
X0266051Y0154064D01*
X0266051Y0153650D01*
X0264896Y0153650D01*
X0264076Y0152830D01*
X0259701Y0148455D01*
X0259701Y0126580D01*
X0255742Y0122621D01*
X0217391Y0122621D01*
X0217391Y0123604D01*
X0216805Y0124190D01*
X0211646Y0124190D01*
X0211060Y0123604D01*
X0211060Y0122621D01*
X0193867Y0122621D01*
X0188424Y0117179D01*
X0187604Y0116358D01*
X0187604Y0112915D01*
X0186672Y0112915D01*
X0186251Y0113336D01*
X0186251Y0115420D01*
X0189806Y0118975D01*
X0190626Y0119795D01*
X0190626Y0122835D01*
X0192012Y0122835D01*
X0192598Y0123420D01*
X0192598Y0128580D01*
X0192012Y0129165D01*
X0187246Y0129165D01*
X0186661Y0128580D01*
X0186661Y0123420D01*
X0187246Y0122835D01*
X0187826Y0122835D01*
X0187826Y0120955D01*
X0183451Y0116580D01*
X0183451Y0113336D01*
X0182651Y0112536D01*
X0182651Y0110714D01*
X0183939Y0109425D01*
X0185762Y0109425D01*
X0186036Y0109699D01*
X0186036Y0107170D01*
X0186621Y0106585D01*
X0187205Y0106585D01*
X0186946Y0106325D01*
X0185814Y0106325D01*
X0184526Y0105036D01*
X0184526Y0103214D01*
X0185326Y0102414D01*
X0185326Y0073545D01*
X0186146Y0072725D01*
X0192826Y0066045D01*
X0192826Y0064314D01*
X0192515Y0064625D01*
X0182086Y0064625D01*
X0181501Y0064039D01*
X0181501Y0063275D01*
X0177021Y0063275D01*
X0176201Y0062455D01*
X0174551Y0060805D01*
X0174551Y0062536D01*
X0173262Y0063825D01*
X0171439Y0063825D01*
X0170639Y0063025D01*
X0160701Y0063025D01*
X0160701Y0064039D01*
X0160115Y0064625D01*
X0149686Y0064625D01*
X0149101Y0064039D01*
X0149101Y0059711D01*
X0149686Y0059125D01*
X0160115Y0059125D01*
X0160701Y0059711D01*
X0160701Y0060225D01*
X0170639Y0060225D01*
X0171439Y0059425D01*
X0173171Y0059425D01*
X0168196Y0054450D01*
X0167064Y0054450D01*
X0165776Y0053161D01*
X0165776Y0051339D01*
X0167064Y0050050D01*
X0168887Y0050050D01*
X0170176Y0051339D01*
X0170176Y0052470D01*
X0178181Y0060475D01*
X0181501Y0060475D01*
X0181501Y0059711D01*
X0182086Y0059125D01*
X0192515Y0059125D01*
X0192826Y0059436D01*
X0192826Y0057823D01*
X0192641Y0057930D01*
X0192285Y0058025D01*
X0187701Y0058025D01*
X0187701Y0046025D01*
X0186901Y0046025D01*
X0186901Y0058025D01*
X0182316Y0058025D01*
X0181960Y0057930D01*
X0181641Y0057745D01*
X0181380Y0057485D01*
X0181196Y0057165D01*
X0181101Y0056809D01*
X0181101Y0046025D01*
X0186901Y0046025D01*
X0186901Y0046515D02*
X0187701Y0046515D01*
X0187701Y0045717D02*
X0195351Y0045717D01*
X0195351Y0046515D02*
X0193501Y0046515D01*
X0193501Y0047314D02*
X0195351Y0047314D01*
X0195351Y0048112D02*
X0193501Y0048112D01*
X0193501Y0048911D02*
X0195351Y0048911D01*
X0195087Y0049709D02*
X0193501Y0049709D01*
X0193501Y0050508D02*
X0194288Y0050508D01*
X0194226Y0052550D02*
X0194226Y0066625D01*
X0186726Y0074125D01*
X0186726Y0104125D01*
X0189004Y0106404D01*
X0189004Y0109750D01*
X0189004Y0115779D01*
X0194447Y0121221D01*
X0214226Y0121221D01*
X0256322Y0121221D01*
X0261101Y0126000D01*
X0261101Y0147875D01*
X0265476Y0152250D01*
X0274051Y0152250D01*
X0282051Y0151919D02*
X0293601Y0151919D01*
X0293601Y0152717D02*
X0282051Y0152717D01*
X0282051Y0153516D02*
X0293601Y0153516D01*
X0293601Y0154314D02*
X0281801Y0154314D01*
X0281728Y0155113D02*
X0293601Y0155113D01*
X0293601Y0155911D02*
X0282051Y0155911D01*
X0282051Y0156710D02*
X0293601Y0156710D01*
X0293601Y0157508D02*
X0282051Y0157508D01*
X0282051Y0158307D02*
X0293601Y0158307D01*
X0293601Y0159105D02*
X0282010Y0159105D01*
X0275651Y0159904D02*
X0293601Y0159904D01*
X0293601Y0160702D02*
X0275651Y0160702D01*
X0275651Y0161501D02*
X0293601Y0161501D01*
X0293601Y0162299D02*
X0275651Y0162299D01*
X0275651Y0163098D02*
X0293601Y0163098D01*
X0293601Y0163896D02*
X0275651Y0163896D01*
X0275651Y0164695D02*
X0293601Y0164695D01*
X0293601Y0165493D02*
X0282051Y0165493D01*
X0282051Y0166292D02*
X0293601Y0166292D01*
X0293601Y0167090D02*
X0282051Y0167090D01*
X0282051Y0167889D02*
X0293601Y0167889D01*
X0293601Y0168687D02*
X0282051Y0168687D01*
X0281629Y0169486D02*
X0293601Y0169486D01*
X0293601Y0170284D02*
X0281899Y0170284D01*
X0282051Y0171083D02*
X0293601Y0171083D01*
X0293601Y0171881D02*
X0282051Y0171881D01*
X0282051Y0172680D02*
X0293601Y0172680D01*
X0293601Y0173478D02*
X0282051Y0173478D01*
X0281838Y0174277D02*
X0293601Y0174277D01*
X0293601Y0175075D02*
X0281690Y0175075D01*
X0282051Y0175874D02*
X0293601Y0175874D01*
X0293601Y0176672D02*
X0282051Y0176672D01*
X0282051Y0177471D02*
X0293601Y0177471D01*
X0293601Y0178270D02*
X0282051Y0178270D01*
X0282047Y0179068D02*
X0293601Y0179068D01*
X0272451Y0164695D02*
X0198474Y0164695D01*
X0198474Y0165493D02*
X0266051Y0165493D01*
X0266051Y0166292D02*
X0198474Y0166292D01*
X0198474Y0167090D02*
X0266051Y0167090D01*
X0266051Y0167889D02*
X0198474Y0167889D01*
X0198474Y0168687D02*
X0266051Y0168687D01*
X0266472Y0169486D02*
X0198474Y0169486D01*
X0198474Y0170284D02*
X0266202Y0170284D01*
X0266051Y0171083D02*
X0198474Y0171083D01*
X0198474Y0171881D02*
X0266051Y0171881D01*
X0266051Y0172680D02*
X0198474Y0172680D01*
X0198474Y0173478D02*
X0266051Y0173478D01*
X0266263Y0174277D02*
X0198474Y0174277D01*
X0198474Y0175075D02*
X0266411Y0175075D01*
X0266051Y0175874D02*
X0198474Y0175874D01*
X0198474Y0176672D02*
X0266051Y0176672D01*
X0266051Y0177471D02*
X0198474Y0177471D01*
X0198474Y0178270D02*
X0266051Y0178270D01*
X0266054Y0179068D02*
X0198443Y0179068D01*
X0198474Y0163896D02*
X0272451Y0163896D01*
X0272451Y0163098D02*
X0198474Y0163098D01*
X0198474Y0162299D02*
X0272451Y0162299D01*
X0272451Y0161501D02*
X0198474Y0161501D01*
X0198474Y0160702D02*
X0272451Y0160702D01*
X0272451Y0159904D02*
X0198474Y0159904D01*
X0198474Y0159105D02*
X0266092Y0159105D01*
X0266051Y0158307D02*
X0198474Y0158307D01*
X0198474Y0157508D02*
X0266051Y0157508D01*
X0266051Y0156710D02*
X0198474Y0156710D01*
X0198474Y0155911D02*
X0266051Y0155911D01*
X0266374Y0155113D02*
X0198474Y0155113D01*
X0198474Y0154314D02*
X0266301Y0154314D01*
X0264761Y0153516D02*
X0198474Y0153516D01*
X0198474Y0152717D02*
X0263963Y0152717D01*
X0263164Y0151919D02*
X0198474Y0151919D01*
X0198474Y0151120D02*
X0262366Y0151120D01*
X0261567Y0150322D02*
X0198474Y0150322D01*
X0198474Y0149523D02*
X0260769Y0149523D01*
X0259970Y0148725D02*
X0198474Y0148725D01*
X0198474Y0147926D02*
X0259701Y0147926D01*
X0259701Y0147128D02*
X0198474Y0147128D01*
X0198090Y0146329D02*
X0259701Y0146329D01*
X0259701Y0145531D02*
X0193544Y0145531D01*
X0193544Y0144732D02*
X0259701Y0144732D01*
X0259701Y0143934D02*
X0195187Y0143934D01*
X0195713Y0143135D02*
X0259701Y0143135D01*
X0259701Y0142337D02*
X0195713Y0142337D01*
X0195713Y0141538D02*
X0259701Y0141538D01*
X0259701Y0140739D02*
X0195713Y0140739D01*
X0195713Y0139941D02*
X0259701Y0139941D01*
X0259701Y0139142D02*
X0195426Y0139142D01*
X0195127Y0136906D02*
X0189574Y0136906D01*
X0188988Y0136321D01*
X0188988Y0134900D01*
X0188646Y0134900D01*
X0182396Y0128650D01*
X0181576Y0127830D01*
X0181576Y0123336D01*
X0180776Y0122536D01*
X0180776Y0120714D01*
X0182064Y0119425D01*
X0183887Y0119425D01*
X0185176Y0120714D01*
X0185176Y0122536D01*
X0184376Y0123336D01*
X0184376Y0126670D01*
X0189518Y0131813D01*
X0189574Y0131757D01*
X0195127Y0131757D01*
X0195713Y0132343D01*
X0195713Y0136321D01*
X0195127Y0136906D01*
X0195287Y0136747D02*
X0259701Y0136747D01*
X0259701Y0137545D02*
X0187678Y0137545D01*
X0187678Y0136747D02*
X0189415Y0136747D01*
X0188988Y0135948D02*
X0187404Y0135948D01*
X0187051Y0135150D02*
X0188988Y0135150D01*
X0188097Y0134351D02*
X0186938Y0134351D01*
X0187299Y0133553D02*
X0186140Y0133553D01*
X0186500Y0132754D02*
X0166166Y0132754D01*
X0166166Y0131956D02*
X0185702Y0131956D01*
X0184903Y0131157D02*
X0166166Y0131157D01*
X0166166Y0130359D02*
X0184105Y0130359D01*
X0183306Y0129560D02*
X0166056Y0129560D01*
X0160339Y0129560D02*
X0159363Y0129560D01*
X0159473Y0130359D02*
X0160229Y0130359D01*
X0160229Y0131157D02*
X0159473Y0131157D01*
X0157904Y0128762D02*
X0182508Y0128762D01*
X0181709Y0127963D02*
X0157904Y0127963D01*
X0157904Y0127165D02*
X0181576Y0127165D01*
X0181576Y0126366D02*
X0157904Y0126366D01*
X0157648Y0125568D02*
X0181576Y0125568D01*
X0181576Y0124769D02*
X0156850Y0124769D01*
X0156051Y0123971D02*
X0181576Y0123971D01*
X0181412Y0123172D02*
X0155253Y0123172D01*
X0154454Y0122374D02*
X0180776Y0122374D01*
X0180776Y0121575D02*
X0153656Y0121575D01*
X0152857Y0120777D02*
X0180776Y0120777D01*
X0181511Y0119978D02*
X0152059Y0119978D01*
X0146968Y0119978D02*
X0126017Y0119978D01*
X0126166Y0119180D02*
X0146169Y0119180D01*
X0145776Y0118381D02*
X0128081Y0118381D01*
X0128879Y0117583D02*
X0145776Y0117583D01*
X0145955Y0116784D02*
X0128926Y0116784D01*
X0128926Y0115986D02*
X0146754Y0115986D01*
X0148275Y0111195D02*
X0164076Y0111195D01*
X0164076Y0110396D02*
X0147477Y0110396D01*
X0146678Y0109598D02*
X0164076Y0109598D01*
X0164076Y0108799D02*
X0145880Y0108799D01*
X0145081Y0108001D02*
X0164076Y0108001D01*
X0164076Y0107202D02*
X0144283Y0107202D01*
X0143484Y0106403D02*
X0164076Y0106403D01*
X0164076Y0105605D02*
X0158046Y0105605D01*
X0157787Y0105712D02*
X0159749Y0104899D01*
X0161250Y0103398D01*
X0162063Y0101437D01*
X0162063Y0099313D01*
X0161250Y0097352D01*
X0159749Y0095851D01*
X0157787Y0095038D01*
X0155664Y0095038D01*
X0153702Y0095851D01*
X0152201Y0097352D01*
X0151389Y0099313D01*
X0151389Y0101437D01*
X0152201Y0103398D01*
X0153702Y0104899D01*
X0155664Y0105712D01*
X0157787Y0105712D01*
X0159842Y0104806D02*
X0164076Y0104806D01*
X0164076Y0104008D02*
X0160640Y0104008D01*
X0161328Y0103209D02*
X0164076Y0103209D01*
X0164076Y0102411D02*
X0161659Y0102411D01*
X0161990Y0101612D02*
X0164076Y0101612D01*
X0164076Y0100814D02*
X0162063Y0100814D01*
X0162063Y0100015D02*
X0164076Y0100015D01*
X0164076Y0099217D02*
X0162023Y0099217D01*
X0161692Y0098418D02*
X0164076Y0098418D01*
X0164076Y0097620D02*
X0161361Y0097620D01*
X0160720Y0096821D02*
X0164076Y0096821D01*
X0164076Y0096023D02*
X0159921Y0096023D01*
X0158237Y0095224D02*
X0164076Y0095224D01*
X0164076Y0094426D02*
X0131506Y0094426D01*
X0130708Y0093627D02*
X0164076Y0093627D01*
X0164076Y0092829D02*
X0129909Y0092829D01*
X0129111Y0092030D02*
X0164076Y0092030D01*
X0164076Y0091232D02*
X0128312Y0091232D01*
X0127514Y0090433D02*
X0164076Y0090433D01*
X0164076Y0089635D02*
X0126715Y0089635D01*
X0125917Y0088836D02*
X0164076Y0088836D01*
X0166876Y0088836D02*
X0185326Y0088836D01*
X0185326Y0088038D02*
X0166876Y0088038D01*
X0166876Y0087239D02*
X0185326Y0087239D01*
X0185326Y0086441D02*
X0166876Y0086441D01*
X0166876Y0085642D02*
X0185326Y0085642D01*
X0185326Y0084844D02*
X0166876Y0084844D01*
X0166876Y0084045D02*
X0185326Y0084045D01*
X0185326Y0083247D02*
X0166876Y0083247D01*
X0166876Y0082448D02*
X0185326Y0082448D01*
X0185326Y0081650D02*
X0166876Y0081650D01*
X0166876Y0080851D02*
X0185326Y0080851D01*
X0185326Y0080053D02*
X0167659Y0080053D01*
X0167676Y0079254D02*
X0185326Y0079254D01*
X0185326Y0078456D02*
X0167676Y0078456D01*
X0161101Y0078500D02*
X0153601Y0078500D01*
X0147351Y0072250D01*
X0147351Y0053175D01*
X0148804Y0053702D02*
X0149101Y0053702D01*
X0149101Y0054500D02*
X0148751Y0054500D01*
X0148751Y0055299D02*
X0149101Y0055299D01*
X0149101Y0056097D02*
X0148751Y0056097D01*
X0148751Y0056896D02*
X0149101Y0056896D01*
X0148751Y0057694D02*
X0171440Y0057694D01*
X0170642Y0056896D02*
X0160701Y0056896D01*
X0160701Y0056097D02*
X0169843Y0056097D01*
X0169045Y0055299D02*
X0160701Y0055299D01*
X0160701Y0054500D02*
X0168246Y0054500D01*
X0166316Y0053702D02*
X0160701Y0053702D01*
X0160701Y0052903D02*
X0165776Y0052903D01*
X0165776Y0052105D02*
X0160701Y0052105D01*
X0160701Y0051306D02*
X0165808Y0051306D01*
X0166607Y0050508D02*
X0160701Y0050508D01*
X0160701Y0049709D02*
X0181101Y0049709D01*
X0181101Y0048911D02*
X0160701Y0048911D01*
X0160701Y0048112D02*
X0181101Y0048112D01*
X0181101Y0047314D02*
X0160701Y0047314D01*
X0160701Y0046515D02*
X0181101Y0046515D01*
X0181101Y0045225D02*
X0181101Y0034441D01*
X0181196Y0034085D01*
X0181380Y0033765D01*
X0181641Y0033505D01*
X0181960Y0033320D01*
X0182316Y0033225D01*
X0186901Y0033225D01*
X0186901Y0045225D01*
X0181101Y0045225D01*
X0181101Y0044918D02*
X0160701Y0044918D01*
X0160701Y0044120D02*
X0181101Y0044120D01*
X0181101Y0043321D02*
X0160701Y0043321D01*
X0160701Y0042523D02*
X0181101Y0042523D01*
X0181101Y0041724D02*
X0160701Y0041724D01*
X0160701Y0040926D02*
X0181101Y0040926D01*
X0181101Y0040127D02*
X0160701Y0040127D01*
X0160701Y0039329D02*
X0181101Y0039329D01*
X0181101Y0038530D02*
X0160701Y0038530D01*
X0160701Y0037732D02*
X0181101Y0037732D01*
X0181101Y0036933D02*
X0160701Y0036933D01*
X0160701Y0036134D02*
X0181101Y0036134D01*
X0181101Y0035336D02*
X0160701Y0035336D01*
X0160701Y0034537D02*
X0181101Y0034537D01*
X0181407Y0033739D02*
X0160229Y0033739D01*
X0148412Y0020723D02*
X0148093Y0020907D01*
X0147737Y0021002D01*
X0137126Y0021002D01*
X0137126Y0016361D01*
X0136326Y0016361D01*
X0136326Y0021002D01*
X0125715Y0021002D01*
X0125359Y0020907D01*
X0125039Y0020723D01*
X0124779Y0020462D01*
X0124594Y0020143D01*
X0124538Y0019933D01*
X0124482Y0020143D01*
X0124298Y0020462D01*
X0124037Y0020723D01*
X0123718Y0020907D01*
X0123362Y0021002D01*
X0112751Y0021002D01*
X0112751Y0016361D01*
X0111951Y0016361D01*
X0111951Y0021002D01*
X0101340Y0021002D01*
X0100984Y0020907D01*
X0100664Y0020723D01*
X0100404Y0020462D01*
X0100219Y0020143D01*
X0100124Y0019787D01*
X0100124Y0016361D01*
X0111951Y0016361D01*
X0111951Y0015561D01*
X0100124Y0015561D01*
X0100124Y0012135D01*
X0100219Y0011779D01*
X0100404Y0011459D01*
X0100664Y0011199D01*
X0100984Y0011014D01*
X0101340Y0010919D01*
X0111951Y0010919D01*
X0111951Y0015561D01*
X0112751Y0015561D01*
X0112751Y0016361D01*
X0136326Y0016361D01*
X0136326Y0015561D01*
X0124499Y0015561D01*
X0112751Y0015561D01*
X0112751Y0010919D01*
X0123362Y0010919D01*
X0123718Y0011014D01*
X0124037Y0011199D01*
X0124298Y0011459D01*
X0124482Y0011779D01*
X0124538Y0011988D01*
X0124594Y0011779D01*
X0124779Y0011459D01*
X0125039Y0011199D01*
X0125359Y0011014D01*
X0125715Y0010919D01*
X0136326Y0010919D01*
X0136326Y0015561D01*
X0137126Y0015561D01*
X0137126Y0016361D01*
X0148952Y0016361D01*
X0148952Y0019787D01*
X0148857Y0020143D01*
X0148673Y0020462D01*
X0148412Y0020723D01*
X0147884Y0020963D02*
X0229277Y0020963D01*
X0230075Y0020164D02*
X0148845Y0020164D01*
X0148952Y0019366D02*
X0230874Y0019366D01*
X0231672Y0018567D02*
X0148952Y0018567D01*
X0148952Y0017769D02*
X0232471Y0017769D01*
X0233269Y0016970D02*
X0148952Y0016970D01*
X0148952Y0015561D02*
X0137126Y0015561D01*
X0137126Y0010919D01*
X0147737Y0010919D01*
X0148093Y0011014D01*
X0148412Y0011199D01*
X0148673Y0011459D01*
X0148857Y0011779D01*
X0148952Y0012135D01*
X0148952Y0015561D01*
X0148952Y0015373D02*
X0234866Y0015373D01*
X0235665Y0014575D02*
X0148952Y0014575D01*
X0148952Y0013776D02*
X0236463Y0013776D01*
X0237262Y0012978D02*
X0148952Y0012978D01*
X0148952Y0012179D02*
X0293601Y0012179D01*
X0293601Y0011381D02*
X0148594Y0011381D01*
X0137126Y0011381D02*
X0136326Y0011381D01*
X0136326Y0012179D02*
X0137126Y0012179D01*
X0137126Y0012978D02*
X0136326Y0012978D01*
X0136326Y0013776D02*
X0137126Y0013776D01*
X0137126Y0014575D02*
X0136326Y0014575D01*
X0136326Y0015373D02*
X0137126Y0015373D01*
X0137126Y0016172D02*
X0234068Y0016172D01*
X0237096Y0019366D02*
X0266051Y0019366D01*
X0266051Y0020164D02*
X0236298Y0020164D01*
X0235499Y0020963D02*
X0293601Y0020963D01*
X0293601Y0021761D02*
X0282051Y0021761D01*
X0282051Y0022560D02*
X0293601Y0022560D01*
X0293601Y0023358D02*
X0282051Y0023358D01*
X0282051Y0024157D02*
X0293601Y0024157D01*
X0293601Y0024955D02*
X0282051Y0024955D01*
X0281611Y0025754D02*
X0293601Y0025754D01*
X0293601Y0026552D02*
X0281917Y0026552D01*
X0282051Y0027351D02*
X0293601Y0027351D01*
X0293601Y0028149D02*
X0282051Y0028149D01*
X0282051Y0028948D02*
X0293601Y0028948D01*
X0293601Y0029746D02*
X0282051Y0029746D01*
X0281820Y0030545D02*
X0293601Y0030545D01*
X0293601Y0031343D02*
X0275651Y0031343D01*
X0275651Y0032142D02*
X0293601Y0032142D01*
X0293601Y0032940D02*
X0275651Y0032940D01*
X0275651Y0033739D02*
X0293601Y0033739D01*
X0293601Y0034537D02*
X0275651Y0034537D01*
X0275651Y0035336D02*
X0293601Y0035336D01*
X0293601Y0036134D02*
X0281499Y0036134D01*
X0282051Y0036933D02*
X0293601Y0036933D01*
X0293601Y0037732D02*
X0282051Y0037732D01*
X0282051Y0038530D02*
X0293601Y0038530D01*
X0293601Y0039329D02*
X0282051Y0039329D01*
X0282051Y0040127D02*
X0293601Y0040127D01*
X0293601Y0040926D02*
X0275651Y0040926D01*
X0272451Y0040926D02*
X0260451Y0040926D01*
X0260451Y0041724D02*
X0266051Y0041724D01*
X0266051Y0042523D02*
X0260451Y0042523D01*
X0260451Y0043321D02*
X0266051Y0043321D01*
X0266051Y0044120D02*
X0260451Y0044120D01*
X0260451Y0044918D02*
X0266051Y0044918D01*
X0266453Y0045717D02*
X0260451Y0045717D01*
X0260451Y0046515D02*
X0266221Y0046515D01*
X0266051Y0047314D02*
X0260451Y0047314D01*
X0260451Y0048112D02*
X0266051Y0048112D01*
X0266051Y0048911D02*
X0260029Y0048911D01*
X0259865Y0049075D02*
X0260451Y0048489D01*
X0260451Y0022261D01*
X0259865Y0021675D01*
X0239836Y0021675D01*
X0239251Y0022261D01*
X0239251Y0033545D01*
X0239210Y0033505D01*
X0238891Y0033320D01*
X0238535Y0033225D01*
X0233951Y0033225D01*
X0233951Y0045225D01*
X0233151Y0045225D01*
X0233151Y0033225D01*
X0228566Y0033225D01*
X0228210Y0033320D01*
X0227891Y0033505D01*
X0227630Y0033765D01*
X0227446Y0034085D01*
X0227351Y0034441D01*
X0227351Y0045225D01*
X0233151Y0045225D01*
X0233151Y0046025D01*
X0233151Y0058025D01*
X0228566Y0058025D01*
X0228210Y0057930D01*
X0227891Y0057745D01*
X0227630Y0057485D01*
X0227446Y0057165D01*
X0227351Y0056809D01*
X0227351Y0046025D01*
X0233151Y0046025D01*
X0233951Y0046025D01*
X0233951Y0058025D01*
X0238535Y0058025D01*
X0238891Y0057930D01*
X0239210Y0057745D01*
X0239471Y0057485D01*
X0239655Y0057165D01*
X0239751Y0056809D01*
X0239751Y0048989D01*
X0239836Y0049075D01*
X0259865Y0049075D01*
X0266051Y0049709D02*
X0239751Y0049709D01*
X0239751Y0050508D02*
X0266244Y0050508D01*
X0272651Y0051306D02*
X0239751Y0051306D01*
X0239751Y0052105D02*
X0272651Y0052105D01*
X0272651Y0052903D02*
X0239751Y0052903D01*
X0239751Y0053702D02*
X0272651Y0053702D01*
X0272651Y0054500D02*
X0239751Y0054500D01*
X0239751Y0055299D02*
X0272651Y0055299D01*
X0272651Y0056097D02*
X0239751Y0056097D01*
X0239727Y0056896D02*
X0272651Y0056896D01*
X0272651Y0057694D02*
X0239261Y0057694D01*
X0238931Y0059291D02*
X0272651Y0059291D01*
X0272651Y0058493D02*
X0218073Y0058493D01*
X0217275Y0057694D02*
X0227840Y0057694D01*
X0227374Y0056896D02*
X0216476Y0056896D01*
X0215678Y0056097D02*
X0227351Y0056097D01*
X0227351Y0055299D02*
X0215176Y0055299D01*
X0215176Y0054500D02*
X0227351Y0054500D01*
X0227351Y0053702D02*
X0214414Y0053702D01*
X0212976Y0055375D02*
X0219476Y0061875D01*
X0233551Y0061875D01*
X0228170Y0059291D02*
X0218872Y0059291D01*
X0219670Y0060090D02*
X0227751Y0060090D01*
X0233151Y0057694D02*
X0233951Y0057694D01*
X0233951Y0056896D02*
X0233151Y0056896D01*
X0233151Y0056097D02*
X0233951Y0056097D01*
X0233951Y0055299D02*
X0233151Y0055299D01*
X0233151Y0054500D02*
X0233951Y0054500D01*
X0233951Y0053702D02*
X0233151Y0053702D01*
X0233151Y0052903D02*
X0233951Y0052903D01*
X0233951Y0052105D02*
X0233151Y0052105D01*
X0233151Y0051306D02*
X0233951Y0051306D01*
X0233951Y0050508D02*
X0233151Y0050508D01*
X0233151Y0049709D02*
X0233951Y0049709D01*
X0233951Y0048911D02*
X0233151Y0048911D01*
X0233151Y0048112D02*
X0233951Y0048112D01*
X0233951Y0047314D02*
X0233151Y0047314D01*
X0233151Y0046515D02*
X0233951Y0046515D01*
X0233151Y0045717D02*
X0206951Y0045717D01*
X0206951Y0046515D02*
X0227351Y0046515D01*
X0227351Y0047314D02*
X0211151Y0047314D01*
X0211949Y0048112D02*
X0227351Y0048112D01*
X0227351Y0048911D02*
X0212051Y0048911D01*
X0212051Y0049709D02*
X0227351Y0049709D01*
X0227351Y0050508D02*
X0211579Y0050508D01*
X0211251Y0051306D02*
X0227351Y0051306D01*
X0227351Y0052105D02*
X0211251Y0052105D01*
X0211251Y0052903D02*
X0227351Y0052903D01*
X0227351Y0044918D02*
X0206951Y0044918D01*
X0206951Y0044120D02*
X0227351Y0044120D01*
X0227351Y0043321D02*
X0206951Y0043321D01*
X0206951Y0042523D02*
X0227351Y0042523D01*
X0227351Y0041724D02*
X0206951Y0041724D01*
X0206951Y0040926D02*
X0227351Y0040926D01*
X0227351Y0040127D02*
X0206951Y0040127D01*
X0206951Y0039329D02*
X0227351Y0039329D01*
X0227351Y0038530D02*
X0206951Y0038530D01*
X0206951Y0037732D02*
X0227351Y0037732D01*
X0227351Y0036933D02*
X0206951Y0036933D01*
X0206951Y0036134D02*
X0227351Y0036134D01*
X0227351Y0035336D02*
X0206951Y0035336D01*
X0206951Y0034537D02*
X0227351Y0034537D01*
X0227657Y0033739D02*
X0206479Y0033739D01*
X0195822Y0033739D02*
X0193195Y0033739D01*
X0193221Y0033765D02*
X0193405Y0034085D01*
X0193501Y0034441D01*
X0193501Y0045225D01*
X0187701Y0045225D01*
X0187701Y0033225D01*
X0192285Y0033225D01*
X0192641Y0033320D01*
X0192960Y0033505D01*
X0193221Y0033765D01*
X0193501Y0034537D02*
X0195351Y0034537D01*
X0195351Y0035336D02*
X0193501Y0035336D01*
X0193501Y0036134D02*
X0195351Y0036134D01*
X0195351Y0036933D02*
X0193501Y0036933D01*
X0193501Y0037732D02*
X0195351Y0037732D01*
X0195351Y0038530D02*
X0193501Y0038530D01*
X0193501Y0039329D02*
X0195351Y0039329D01*
X0195351Y0040127D02*
X0193501Y0040127D01*
X0193501Y0040926D02*
X0195351Y0040926D01*
X0195351Y0041724D02*
X0193501Y0041724D01*
X0193501Y0042523D02*
X0195351Y0042523D01*
X0195351Y0043321D02*
X0193501Y0043321D01*
X0193501Y0044120D02*
X0195351Y0044120D01*
X0195351Y0044918D02*
X0193501Y0044918D01*
X0187701Y0044918D02*
X0186901Y0044918D01*
X0186901Y0044120D02*
X0187701Y0044120D01*
X0187701Y0043321D02*
X0186901Y0043321D01*
X0186901Y0042523D02*
X0187701Y0042523D01*
X0187701Y0041724D02*
X0186901Y0041724D01*
X0186901Y0040926D02*
X0187701Y0040926D01*
X0187701Y0040127D02*
X0186901Y0040127D01*
X0186901Y0039329D02*
X0187701Y0039329D01*
X0187701Y0038530D02*
X0186901Y0038530D01*
X0186901Y0037732D02*
X0187701Y0037732D01*
X0187701Y0036933D02*
X0186901Y0036933D01*
X0186901Y0036134D02*
X0187701Y0036134D01*
X0187701Y0035336D02*
X0186901Y0035336D01*
X0186901Y0034537D02*
X0187701Y0034537D01*
X0187701Y0033739D02*
X0186901Y0033739D01*
X0201151Y0045625D02*
X0194226Y0052550D01*
X0187701Y0052903D02*
X0186901Y0052903D01*
X0186901Y0052105D02*
X0187701Y0052105D01*
X0187701Y0051306D02*
X0186901Y0051306D01*
X0186901Y0050508D02*
X0187701Y0050508D01*
X0187701Y0049709D02*
X0186901Y0049709D01*
X0186901Y0048911D02*
X0187701Y0048911D01*
X0187701Y0048112D02*
X0186901Y0048112D01*
X0186901Y0047314D02*
X0187701Y0047314D01*
X0181101Y0050508D02*
X0169345Y0050508D01*
X0170143Y0051306D02*
X0181101Y0051306D01*
X0181101Y0052105D02*
X0170176Y0052105D01*
X0170609Y0052903D02*
X0181101Y0052903D01*
X0181101Y0053702D02*
X0171407Y0053702D01*
X0172206Y0054500D02*
X0181101Y0054500D01*
X0181101Y0055299D02*
X0173004Y0055299D01*
X0173803Y0056097D02*
X0181101Y0056097D01*
X0181124Y0056896D02*
X0174601Y0056896D01*
X0175400Y0057694D02*
X0181590Y0057694D01*
X0181920Y0059291D02*
X0176997Y0059291D01*
X0176198Y0058493D02*
X0192826Y0058493D01*
X0192826Y0059291D02*
X0192681Y0059291D01*
X0198351Y0061875D02*
X0201151Y0061875D01*
X0203976Y0061875D01*
X0209851Y0056000D01*
X0209851Y0049125D01*
X0207651Y0048911D02*
X0206951Y0048911D01*
X0206951Y0049709D02*
X0207651Y0049709D01*
X0208122Y0050508D02*
X0206951Y0050508D01*
X0206951Y0051306D02*
X0208451Y0051306D01*
X0208451Y0052105D02*
X0206951Y0052105D01*
X0206951Y0052903D02*
X0208451Y0052903D01*
X0208451Y0053702D02*
X0206951Y0053702D01*
X0206951Y0054500D02*
X0208451Y0054500D01*
X0208451Y0055299D02*
X0206951Y0055299D01*
X0206951Y0056097D02*
X0207773Y0056097D01*
X0206975Y0056896D02*
X0206951Y0056896D01*
X0211251Y0053702D02*
X0211538Y0053702D01*
X0207752Y0048112D02*
X0206951Y0048112D01*
X0206951Y0047314D02*
X0208551Y0047314D01*
X0187701Y0053702D02*
X0186901Y0053702D01*
X0186901Y0054500D02*
X0187701Y0054500D01*
X0187701Y0055299D02*
X0186901Y0055299D01*
X0186901Y0056097D02*
X0187701Y0056097D01*
X0187701Y0056896D02*
X0186901Y0056896D01*
X0186901Y0057694D02*
X0187701Y0057694D01*
X0181501Y0060090D02*
X0177795Y0060090D01*
X0177601Y0061875D02*
X0187301Y0061875D01*
X0181501Y0063284D02*
X0173803Y0063284D01*
X0174551Y0062485D02*
X0176231Y0062485D01*
X0175433Y0061687D02*
X0174551Y0061687D01*
X0174551Y0060888D02*
X0174634Y0060888D01*
X0173037Y0059291D02*
X0160281Y0059291D01*
X0160701Y0060090D02*
X0170775Y0060090D01*
X0172239Y0058493D02*
X0148751Y0058493D01*
X0148751Y0059291D02*
X0149520Y0059291D01*
X0149101Y0060090D02*
X0148751Y0060090D01*
X0148751Y0060888D02*
X0149101Y0060888D01*
X0149101Y0061687D02*
X0148751Y0061687D01*
X0148751Y0062485D02*
X0149101Y0062485D01*
X0149101Y0063284D02*
X0148751Y0063284D01*
X0148751Y0064082D02*
X0149144Y0064082D01*
X0148751Y0064881D02*
X0192826Y0064881D01*
X0192826Y0065679D02*
X0148751Y0065679D01*
X0148751Y0066478D02*
X0192393Y0066478D01*
X0191594Y0067276D02*
X0148751Y0067276D01*
X0148751Y0068075D02*
X0190796Y0068075D01*
X0189997Y0068873D02*
X0148751Y0068873D01*
X0148751Y0069672D02*
X0189199Y0069672D01*
X0188400Y0070470D02*
X0148751Y0070470D01*
X0148751Y0071269D02*
X0187602Y0071269D01*
X0186803Y0072068D02*
X0149148Y0072068D01*
X0149947Y0072866D02*
X0186005Y0072866D01*
X0185326Y0073665D02*
X0150745Y0073665D01*
X0151544Y0074463D02*
X0185326Y0074463D01*
X0185326Y0075262D02*
X0152342Y0075262D01*
X0153141Y0076060D02*
X0185326Y0076060D01*
X0188126Y0076060D02*
X0191036Y0076060D01*
X0191036Y0075262D02*
X0188126Y0075262D01*
X0188368Y0074463D02*
X0191036Y0074463D01*
X0191036Y0073665D02*
X0189166Y0073665D01*
X0189965Y0072866D02*
X0191590Y0072866D01*
X0190763Y0072068D02*
X0240672Y0072068D01*
X0239873Y0072866D02*
X0203111Y0072866D01*
X0203080Y0072835D02*
X0203666Y0073420D01*
X0203666Y0073800D01*
X0229341Y0073800D01*
X0229515Y0073626D01*
X0230544Y0073200D01*
X0231658Y0073200D01*
X0232687Y0073626D01*
X0233474Y0074414D01*
X0233901Y0075443D01*
X0233901Y0076557D01*
X0233474Y0077586D01*
X0232687Y0078374D01*
X0231658Y0078800D01*
X0230544Y0078800D01*
X0229515Y0078374D01*
X0229341Y0078200D01*
X0203666Y0078200D01*
X0203666Y0078580D01*
X0203080Y0079165D01*
X0198314Y0079165D01*
X0197729Y0078580D01*
X0197729Y0073420D01*
X0198314Y0072835D01*
X0203080Y0072835D01*
X0203666Y0073665D02*
X0229476Y0073665D01*
X0232725Y0073665D02*
X0239075Y0073665D01*
X0238276Y0074463D02*
X0233495Y0074463D01*
X0233825Y0075262D02*
X0237478Y0075262D01*
X0236679Y0076060D02*
X0233901Y0076060D01*
X0233776Y0076859D02*
X0235881Y0076859D01*
X0235082Y0077657D02*
X0233403Y0077657D01*
X0234284Y0078456D02*
X0232489Y0078456D01*
X0233485Y0079254D02*
X0195404Y0079254D01*
X0195404Y0080053D02*
X0232687Y0080053D01*
X0231888Y0080851D02*
X0195404Y0080851D01*
X0195404Y0081650D02*
X0231090Y0081650D01*
X0230291Y0082448D02*
X0195382Y0082448D01*
X0194584Y0083247D02*
X0229493Y0083247D01*
X0228694Y0084045D02*
X0193785Y0084045D01*
X0192987Y0084844D02*
X0227896Y0084844D01*
X0227097Y0085642D02*
X0192188Y0085642D01*
X0192051Y0086441D02*
X0226299Y0086441D01*
X0229327Y0089635D02*
X0231855Y0089635D01*
X0232653Y0088836D02*
X0230126Y0088836D01*
X0230924Y0088038D02*
X0233452Y0088038D01*
X0234250Y0087239D02*
X0231723Y0087239D01*
X0232521Y0086441D02*
X0235049Y0086441D01*
X0235847Y0085642D02*
X0233320Y0085642D01*
X0234118Y0084844D02*
X0236646Y0084844D01*
X0237444Y0084045D02*
X0234917Y0084045D01*
X0235715Y0083247D02*
X0238243Y0083247D01*
X0239041Y0082448D02*
X0236514Y0082448D01*
X0237312Y0081650D02*
X0239840Y0081650D01*
X0240638Y0080851D02*
X0238111Y0080851D01*
X0238909Y0080053D02*
X0293601Y0080053D01*
X0293601Y0080851D02*
X0273888Y0080851D01*
X0274687Y0081650D02*
X0293601Y0081650D01*
X0293601Y0082448D02*
X0282051Y0082448D01*
X0282051Y0083247D02*
X0293601Y0083247D01*
X0293601Y0084045D02*
X0282051Y0084045D01*
X0282051Y0084844D02*
X0293601Y0084844D01*
X0293601Y0085642D02*
X0282051Y0085642D01*
X0281626Y0086441D02*
X0293601Y0086441D01*
X0293601Y0087239D02*
X0282370Y0087239D01*
X0282451Y0088038D02*
X0293601Y0088038D01*
X0293601Y0088836D02*
X0274351Y0088836D01*
X0273751Y0088836D02*
X0262726Y0088836D01*
X0262726Y0088038D02*
X0265651Y0088038D01*
X0265731Y0087239D02*
X0262726Y0087239D01*
X0262726Y0086441D02*
X0266475Y0086441D01*
X0266051Y0085642D02*
X0262726Y0085642D01*
X0262726Y0089635D02*
X0265651Y0089635D01*
X0265651Y0090433D02*
X0262726Y0090433D01*
X0262726Y0091232D02*
X0265842Y0091232D01*
X0265835Y0092030D02*
X0262726Y0092030D01*
X0262726Y0092829D02*
X0265651Y0092829D01*
X0265651Y0093627D02*
X0262726Y0093627D01*
X0262726Y0094426D02*
X0265651Y0094426D01*
X0265651Y0095224D02*
X0262726Y0095224D01*
X0262726Y0096023D02*
X0265735Y0096023D01*
X0266496Y0096821D02*
X0262726Y0096821D01*
X0262726Y0098418D02*
X0293601Y0098418D01*
X0293601Y0097620D02*
X0252126Y0097620D01*
X0252126Y0098418D02*
X0251326Y0098418D01*
X0251326Y0098275D02*
X0251326Y0097475D01*
X0240726Y0097475D01*
X0240726Y0086986D01*
X0231074Y0096637D01*
X0215673Y0096637D01*
X0215499Y0096811D01*
X0214470Y0097237D01*
X0213356Y0097237D01*
X0212327Y0096811D01*
X0212153Y0096637D01*
X0211921Y0096637D01*
X0203483Y0105075D01*
X0204158Y0105075D01*
X0205187Y0105501D01*
X0205974Y0106289D01*
X0206401Y0107318D01*
X0206401Y0107564D01*
X0211060Y0112223D01*
X0211060Y0112146D01*
X0211646Y0111560D01*
X0216805Y0111560D01*
X0217391Y0112146D01*
X0217391Y0112929D01*
X0220137Y0115675D01*
X0242664Y0115675D01*
X0242026Y0115036D01*
X0242026Y0113214D01*
X0243264Y0111975D01*
X0241941Y0111975D01*
X0241585Y0111880D01*
X0241266Y0111695D01*
X0241005Y0111435D01*
X0240821Y0111115D01*
X0240726Y0110759D01*
X0240726Y0098275D01*
X0251326Y0098275D01*
X0251326Y0097620D02*
X0210939Y0097620D01*
X0211737Y0096821D02*
X0212352Y0096821D01*
X0210140Y0098418D02*
X0240726Y0098418D01*
X0240726Y0099217D02*
X0209341Y0099217D01*
X0208543Y0100015D02*
X0240726Y0100015D01*
X0240726Y0100814D02*
X0207744Y0100814D01*
X0206946Y0101612D02*
X0240726Y0101612D01*
X0240726Y0102411D02*
X0206147Y0102411D01*
X0205349Y0103209D02*
X0240726Y0103209D01*
X0240726Y0104008D02*
X0204550Y0104008D01*
X0203752Y0104806D02*
X0240726Y0104806D01*
X0240726Y0105605D02*
X0205290Y0105605D01*
X0206022Y0106403D02*
X0240726Y0106403D01*
X0240726Y0107202D02*
X0206353Y0107202D01*
X0206837Y0108001D02*
X0240726Y0108001D01*
X0240726Y0108799D02*
X0207636Y0108799D01*
X0208434Y0109598D02*
X0240726Y0109598D01*
X0240726Y0110396D02*
X0209233Y0110396D01*
X0210031Y0111195D02*
X0240867Y0111195D01*
X0242448Y0112792D02*
X0217391Y0112792D01*
X0217238Y0111993D02*
X0243246Y0111993D01*
X0245205Y0111993D02*
X0265857Y0111993D01*
X0265930Y0111865D02*
X0266171Y0111625D01*
X0265930Y0111385D01*
X0265746Y0111065D01*
X0265651Y0110709D01*
X0265651Y0109425D01*
X0273751Y0109425D01*
X0273751Y0113825D01*
X0274351Y0113825D01*
X0274351Y0114425D01*
X0282451Y0114425D01*
X0282451Y0115709D01*
X0282355Y0116065D01*
X0282171Y0116385D01*
X0281910Y0116645D01*
X0281591Y0116830D01*
X0281235Y0116925D01*
X0274351Y0116925D01*
X0274351Y0114425D01*
X0273751Y0114425D01*
X0273751Y0116925D01*
X0266866Y0116925D01*
X0266510Y0116830D01*
X0266191Y0116645D01*
X0265930Y0116385D01*
X0265746Y0116065D01*
X0265651Y0115709D01*
X0265651Y0114425D01*
X0273751Y0114425D01*
X0273751Y0113825D01*
X0265651Y0113825D01*
X0265651Y0112541D01*
X0265746Y0112185D01*
X0265930Y0111865D01*
X0265821Y0111195D02*
X0262585Y0111195D01*
X0262726Y0110396D02*
X0265651Y0110396D01*
X0265651Y0109598D02*
X0262726Y0109598D01*
X0262726Y0108799D02*
X0265651Y0108799D01*
X0265651Y0108825D02*
X0265651Y0107541D01*
X0265746Y0107185D01*
X0265930Y0106865D01*
X0266171Y0106625D01*
X0265930Y0106385D01*
X0265746Y0106065D01*
X0265651Y0105709D01*
X0265651Y0104425D01*
X0273751Y0104425D01*
X0273751Y0108825D01*
X0274351Y0108825D01*
X0274351Y0109425D01*
X0282451Y0109425D01*
X0282451Y0110709D01*
X0282355Y0111065D01*
X0282171Y0111385D01*
X0281931Y0111625D01*
X0282171Y0111865D01*
X0282355Y0112185D01*
X0282451Y0112541D01*
X0282451Y0113825D01*
X0274351Y0113825D01*
X0274351Y0111925D01*
X0274351Y0109425D01*
X0273751Y0109425D01*
X0273751Y0108825D01*
X0265651Y0108825D01*
X0265651Y0108001D02*
X0262726Y0108001D01*
X0262726Y0107202D02*
X0265741Y0107202D01*
X0265949Y0106403D02*
X0262726Y0106403D01*
X0262726Y0105605D02*
X0265651Y0105605D01*
X0265651Y0104806D02*
X0262726Y0104806D01*
X0262726Y0104008D02*
X0273751Y0104008D01*
X0273751Y0103825D02*
X0273751Y0104425D01*
X0274351Y0104425D01*
X0282451Y0104425D01*
X0282451Y0105709D01*
X0282355Y0106065D01*
X0282171Y0106385D01*
X0281931Y0106625D01*
X0282171Y0106865D01*
X0282355Y0107185D01*
X0282451Y0107541D01*
X0282451Y0108825D01*
X0274351Y0108825D01*
X0274351Y0106325D01*
X0274351Y0104425D01*
X0274351Y0103825D01*
X0282451Y0103825D01*
X0282451Y0102541D01*
X0282355Y0102185D01*
X0282171Y0101865D01*
X0281910Y0101605D01*
X0281591Y0101420D01*
X0281235Y0101325D01*
X0274351Y0101325D01*
X0274351Y0103825D01*
X0273751Y0103825D01*
X0273751Y0101325D01*
X0266866Y0101325D01*
X0266510Y0101420D01*
X0266191Y0101605D01*
X0265930Y0101865D01*
X0265746Y0102185D01*
X0265651Y0102541D01*
X0265651Y0103825D01*
X0273751Y0103825D01*
X0273751Y0103209D02*
X0274351Y0103209D01*
X0274351Y0102411D02*
X0273751Y0102411D01*
X0273751Y0101612D02*
X0274351Y0101612D01*
X0274351Y0104008D02*
X0293601Y0104008D01*
X0293601Y0104806D02*
X0282451Y0104806D01*
X0282451Y0105605D02*
X0293601Y0105605D01*
X0293601Y0106403D02*
X0282152Y0106403D01*
X0282360Y0107202D02*
X0293601Y0107202D01*
X0293601Y0108001D02*
X0282451Y0108001D01*
X0282451Y0108799D02*
X0293601Y0108799D01*
X0293601Y0109598D02*
X0282451Y0109598D01*
X0282451Y0110396D02*
X0293601Y0110396D01*
X0293601Y0111195D02*
X0282281Y0111195D01*
X0282245Y0111993D02*
X0293601Y0111993D01*
X0293601Y0112792D02*
X0282451Y0112792D01*
X0282451Y0113590D02*
X0293601Y0113590D01*
X0293601Y0114389D02*
X0274351Y0114389D01*
X0273751Y0114389D02*
X0262719Y0114389D01*
X0263518Y0115187D02*
X0265651Y0115187D01*
X0265725Y0115986D02*
X0264316Y0115986D01*
X0265115Y0116784D02*
X0266432Y0116784D01*
X0265913Y0117583D02*
X0293601Y0117583D01*
X0293601Y0118381D02*
X0266712Y0118381D01*
X0266726Y0120375D02*
X0312351Y0120375D01*
X0333601Y0099125D01*
X0373601Y0099217D02*
X0380476Y0099217D01*
X0380476Y0100015D02*
X0373601Y0100015D01*
X0373601Y0100814D02*
X0380476Y0100814D01*
X0380476Y0101612D02*
X0373601Y0101612D01*
X0373601Y0102411D02*
X0380476Y0102411D01*
X0380476Y0103209D02*
X0373601Y0103209D01*
X0373601Y0104008D02*
X0380476Y0104008D01*
X0380476Y0104806D02*
X0373601Y0104806D01*
X0373601Y0105605D02*
X0380476Y0105605D01*
X0380476Y0106403D02*
X0373601Y0106403D01*
X0373601Y0107202D02*
X0380476Y0107202D01*
X0380476Y0108001D02*
X0373601Y0108001D01*
X0373601Y0108799D02*
X0380476Y0108799D01*
X0380476Y0109598D02*
X0373601Y0109598D01*
X0373601Y0110396D02*
X0380476Y0110396D01*
X0380476Y0111195D02*
X0373601Y0111195D01*
X0373601Y0111993D02*
X0380476Y0111993D01*
X0380476Y0112792D02*
X0373601Y0112792D01*
X0373601Y0113590D02*
X0380476Y0113590D01*
X0380476Y0114389D02*
X0373601Y0114389D01*
X0373601Y0115187D02*
X0380476Y0115187D01*
X0380476Y0115986D02*
X0373601Y0115986D01*
X0373601Y0116784D02*
X0380476Y0116784D01*
X0380476Y0117583D02*
X0373601Y0117583D01*
X0373601Y0118381D02*
X0380476Y0118381D01*
X0380476Y0119180D02*
X0373601Y0119180D01*
X0373601Y0119978D02*
X0380476Y0119978D01*
X0380476Y0120777D02*
X0373601Y0120777D01*
X0373601Y0121575D02*
X0380476Y0121575D01*
X0380476Y0122374D02*
X0373601Y0122374D01*
X0373601Y0123172D02*
X0380476Y0123172D01*
X0380476Y0123971D02*
X0373601Y0123971D01*
X0373601Y0124769D02*
X0380476Y0124769D01*
X0380476Y0125568D02*
X0373572Y0125568D01*
X0380476Y0126366D02*
X0349802Y0126366D01*
X0350453Y0127165D02*
X0380476Y0127165D01*
X0380476Y0127963D02*
X0350776Y0127963D01*
X0350776Y0128762D02*
X0380476Y0128762D01*
X0380476Y0129560D02*
X0350567Y0129560D01*
X0350077Y0130359D02*
X0380476Y0130359D01*
X0380476Y0131157D02*
X0348877Y0131157D01*
X0347074Y0131157D02*
X0278744Y0131157D01*
X0279543Y0131956D02*
X0380476Y0131956D01*
X0380476Y0132754D02*
X0279551Y0132754D01*
X0280008Y0133553D02*
X0380476Y0133553D01*
X0380476Y0134351D02*
X0280807Y0134351D01*
X0281605Y0135150D02*
X0380476Y0135150D01*
X0380476Y0135948D02*
X0373601Y0135948D01*
X0373601Y0136747D02*
X0380476Y0136747D01*
X0380476Y0137545D02*
X0373601Y0137545D01*
X0373601Y0138344D02*
X0380476Y0138344D01*
X0380476Y0139142D02*
X0373601Y0139142D01*
X0373601Y0139941D02*
X0380476Y0139941D01*
X0380476Y0140739D02*
X0373601Y0140739D01*
X0373601Y0141538D02*
X0380476Y0141538D01*
X0380476Y0142337D02*
X0373601Y0142337D01*
X0373601Y0143135D02*
X0380476Y0143135D01*
X0380476Y0143934D02*
X0373601Y0143934D01*
X0373601Y0144732D02*
X0380476Y0144732D01*
X0380476Y0145531D02*
X0373601Y0145531D01*
X0373601Y0146329D02*
X0380476Y0146329D01*
X0380476Y0147128D02*
X0373601Y0147128D01*
X0373601Y0147926D02*
X0380476Y0147926D01*
X0380476Y0148725D02*
X0373601Y0148725D01*
X0373601Y0149523D02*
X0380476Y0149523D01*
X0380476Y0150322D02*
X0373601Y0150322D01*
X0373601Y0151120D02*
X0380476Y0151120D01*
X0380476Y0151919D02*
X0373601Y0151919D01*
X0373601Y0152717D02*
X0380476Y0152717D01*
X0380476Y0153516D02*
X0373601Y0153516D01*
X0373601Y0154314D02*
X0380476Y0154314D01*
X0380476Y0155113D02*
X0373601Y0155113D01*
X0373601Y0155911D02*
X0380476Y0155911D01*
X0380476Y0156710D02*
X0373601Y0156710D01*
X0373601Y0157508D02*
X0380476Y0157508D01*
X0380476Y0158307D02*
X0373601Y0158307D01*
X0373601Y0159105D02*
X0380476Y0159105D01*
X0380476Y0159904D02*
X0373601Y0159904D01*
X0373601Y0160702D02*
X0380476Y0160702D01*
X0380476Y0161501D02*
X0373601Y0161501D01*
X0373601Y0162299D02*
X0380476Y0162299D01*
X0380476Y0163098D02*
X0373601Y0163098D01*
X0373601Y0163896D02*
X0380476Y0163896D01*
X0380476Y0164695D02*
X0373601Y0164695D01*
X0373601Y0165493D02*
X0380476Y0165493D01*
X0380476Y0166292D02*
X0373601Y0166292D01*
X0373601Y0167090D02*
X0380476Y0167090D01*
X0380476Y0167889D02*
X0373601Y0167889D01*
X0373601Y0168687D02*
X0380476Y0168687D01*
X0380476Y0169486D02*
X0373601Y0169486D01*
X0373601Y0170284D02*
X0380476Y0170284D01*
X0380476Y0171083D02*
X0373601Y0171083D01*
X0373601Y0171881D02*
X0380476Y0171881D01*
X0380476Y0172680D02*
X0373601Y0172680D01*
X0373601Y0173478D02*
X0380476Y0173478D01*
X0380476Y0174277D02*
X0373601Y0174277D01*
X0373601Y0175075D02*
X0380476Y0175075D01*
X0380476Y0175874D02*
X0373601Y0175874D01*
X0373601Y0176672D02*
X0380476Y0176672D01*
X0380476Y0177471D02*
X0373601Y0177471D01*
X0373601Y0178270D02*
X0380476Y0178270D01*
X0380476Y0179068D02*
X0373601Y0179068D01*
X0373601Y0179867D02*
X0380476Y0179867D01*
X0380476Y0180665D02*
X0373601Y0180665D01*
X0373601Y0181464D02*
X0380476Y0181464D01*
X0380476Y0182262D02*
X0373601Y0182262D01*
X0373601Y0183061D02*
X0380476Y0183061D01*
X0380476Y0183859D02*
X0373601Y0183859D01*
X0373601Y0184658D02*
X0380476Y0184658D01*
X0380476Y0185456D02*
X0373601Y0185456D01*
X0373601Y0186255D02*
X0380476Y0186255D01*
X0380476Y0187053D02*
X0373601Y0187053D01*
X0373601Y0187852D02*
X0380476Y0187852D01*
X0380476Y0188650D02*
X0373601Y0188650D01*
X0333601Y0162250D02*
X0333601Y0156625D01*
X0313601Y0136625D01*
X0281101Y0136625D01*
X0277351Y0132875D01*
X0275716Y0134351D02*
X0266426Y0134351D01*
X0266426Y0133553D02*
X0275151Y0133553D01*
X0275151Y0132754D02*
X0266426Y0132754D01*
X0266426Y0131956D02*
X0275159Y0131956D01*
X0274502Y0131157D02*
X0275957Y0131157D01*
X0272699Y0131157D02*
X0266426Y0131157D01*
X0266426Y0130359D02*
X0271500Y0130359D01*
X0271009Y0129560D02*
X0266426Y0129560D01*
X0266426Y0128762D02*
X0270801Y0128762D01*
X0270801Y0127963D02*
X0266426Y0127963D01*
X0266426Y0127165D02*
X0271123Y0127165D01*
X0271775Y0126366D02*
X0266426Y0126366D01*
X0266426Y0125568D02*
X0293629Y0125568D01*
X0293601Y0124769D02*
X0266426Y0124769D01*
X0266426Y0123971D02*
X0293601Y0123971D01*
X0293601Y0123172D02*
X0266384Y0123172D01*
X0265586Y0122374D02*
X0293601Y0122374D01*
X0293601Y0116784D02*
X0281670Y0116784D01*
X0282377Y0115986D02*
X0293601Y0115986D01*
X0293601Y0115187D02*
X0282451Y0115187D01*
X0274351Y0115187D02*
X0273751Y0115187D01*
X0273751Y0115986D02*
X0274351Y0115986D01*
X0274351Y0116784D02*
X0273751Y0116784D01*
X0273751Y0113590D02*
X0274351Y0113590D01*
X0274351Y0112792D02*
X0273751Y0112792D01*
X0273751Y0111993D02*
X0274351Y0111993D01*
X0274351Y0111195D02*
X0273751Y0111195D01*
X0273751Y0110396D02*
X0274351Y0110396D01*
X0274351Y0109598D02*
X0273751Y0109598D01*
X0273751Y0108799D02*
X0274351Y0108799D01*
X0274351Y0108001D02*
X0273751Y0108001D01*
X0273751Y0107202D02*
X0274351Y0107202D01*
X0274351Y0106403D02*
X0273751Y0106403D01*
X0273751Y0105605D02*
X0274351Y0105605D01*
X0274351Y0104806D02*
X0273751Y0104806D01*
X0266183Y0101612D02*
X0262726Y0101612D01*
X0262726Y0100814D02*
X0293601Y0100814D01*
X0293601Y0101612D02*
X0281918Y0101612D01*
X0282416Y0102411D02*
X0293601Y0102411D01*
X0293601Y0103209D02*
X0282451Y0103209D01*
X0281605Y0096821D02*
X0293601Y0096821D01*
X0293601Y0096023D02*
X0282367Y0096023D01*
X0282451Y0095224D02*
X0293601Y0095224D01*
X0293601Y0094426D02*
X0282451Y0094426D01*
X0282451Y0093627D02*
X0293601Y0093627D01*
X0293601Y0092829D02*
X0282451Y0092829D01*
X0282266Y0092030D02*
X0293601Y0092030D01*
X0293601Y0091232D02*
X0282259Y0091232D01*
X0282451Y0090433D02*
X0293601Y0090433D01*
X0293601Y0089635D02*
X0282451Y0089635D01*
X0274351Y0089635D02*
X0273751Y0089635D01*
X0273751Y0090433D02*
X0274351Y0090433D01*
X0274351Y0091232D02*
X0273751Y0091232D01*
X0273751Y0092030D02*
X0274351Y0092030D01*
X0274351Y0092829D02*
X0273751Y0092829D01*
X0273751Y0093627D02*
X0274351Y0093627D01*
X0274351Y0094426D02*
X0273751Y0094426D01*
X0273751Y0095224D02*
X0274351Y0095224D01*
X0274351Y0096023D02*
X0273751Y0096023D01*
X0273751Y0096821D02*
X0274351Y0096821D01*
X0265685Y0102411D02*
X0262726Y0102411D01*
X0262726Y0103209D02*
X0265651Y0103209D01*
X0262726Y0100015D02*
X0293601Y0100015D01*
X0293601Y0099217D02*
X0262726Y0099217D01*
X0252126Y0099217D02*
X0251326Y0099217D01*
X0251326Y0100015D02*
X0252126Y0100015D01*
X0252126Y0100814D02*
X0251326Y0100814D01*
X0251326Y0101612D02*
X0252126Y0101612D01*
X0252126Y0102411D02*
X0251326Y0102411D01*
X0251326Y0103209D02*
X0252126Y0103209D01*
X0252126Y0104008D02*
X0251326Y0104008D01*
X0251326Y0104806D02*
X0252126Y0104806D01*
X0252126Y0105605D02*
X0251326Y0105605D01*
X0251326Y0106403D02*
X0252126Y0106403D01*
X0252126Y0107202D02*
X0251326Y0107202D01*
X0251326Y0108001D02*
X0252126Y0108001D01*
X0252126Y0108799D02*
X0251326Y0108799D01*
X0251326Y0109598D02*
X0252126Y0109598D01*
X0252126Y0110396D02*
X0251326Y0110396D01*
X0251326Y0111195D02*
X0252126Y0111195D01*
X0244226Y0114125D02*
X0260476Y0114125D01*
X0266726Y0120375D01*
X0265946Y0121575D02*
X0264787Y0121575D01*
X0265147Y0120777D02*
X0263989Y0120777D01*
X0264349Y0119978D02*
X0263190Y0119978D01*
X0263550Y0119180D02*
X0262392Y0119180D01*
X0262752Y0118381D02*
X0261593Y0118381D01*
X0261953Y0117583D02*
X0260795Y0117583D01*
X0261155Y0116784D02*
X0259996Y0116784D01*
X0260356Y0115986D02*
X0259198Y0115986D01*
X0261921Y0113590D02*
X0265651Y0113590D01*
X0265651Y0112792D02*
X0261122Y0112792D01*
X0256293Y0123172D02*
X0217391Y0123172D01*
X0217024Y0123971D02*
X0257092Y0123971D01*
X0257890Y0124769D02*
X0199291Y0124769D01*
X0199291Y0123971D02*
X0211427Y0123971D01*
X0211060Y0123172D02*
X0199042Y0123172D01*
X0199291Y0123420D02*
X0198705Y0122835D01*
X0193939Y0122835D01*
X0193354Y0123420D01*
X0193354Y0128580D01*
X0193939Y0129165D01*
X0196376Y0129165D01*
X0196622Y0129411D01*
X0197911Y0130700D01*
X0246841Y0130700D01*
X0247015Y0130874D01*
X0248044Y0131300D01*
X0249158Y0131300D01*
X0250187Y0130874D01*
X0250974Y0130086D01*
X0251401Y0129057D01*
X0251401Y0127943D01*
X0250974Y0126914D01*
X0250187Y0126126D01*
X0249158Y0125700D01*
X0248044Y0125700D01*
X0247015Y0126126D01*
X0246841Y0126300D01*
X0199733Y0126300D01*
X0199291Y0125857D01*
X0199291Y0123420D01*
X0193602Y0123172D02*
X0192350Y0123172D01*
X0192598Y0123971D02*
X0193354Y0123971D01*
X0193354Y0124769D02*
X0192598Y0124769D01*
X0192598Y0125568D02*
X0193354Y0125568D01*
X0193354Y0126366D02*
X0192598Y0126366D01*
X0192598Y0127165D02*
X0193354Y0127165D01*
X0193354Y0127963D02*
X0192598Y0127963D01*
X0192415Y0128762D02*
X0193536Y0128762D01*
X0196771Y0129560D02*
X0187266Y0129560D01*
X0186843Y0128762D02*
X0186467Y0128762D01*
X0186661Y0127963D02*
X0185669Y0127963D01*
X0184870Y0127165D02*
X0186661Y0127165D01*
X0186661Y0126366D02*
X0184376Y0126366D01*
X0184376Y0125568D02*
X0186661Y0125568D01*
X0186661Y0124769D02*
X0184376Y0124769D01*
X0184376Y0123971D02*
X0186661Y0123971D01*
X0186909Y0123172D02*
X0184540Y0123172D01*
X0185176Y0122374D02*
X0187826Y0122374D01*
X0187826Y0121575D02*
X0185176Y0121575D01*
X0185176Y0120777D02*
X0187647Y0120777D01*
X0186849Y0119978D02*
X0184440Y0119978D01*
X0185252Y0118381D02*
X0167456Y0118381D01*
X0167676Y0117583D02*
X0184453Y0117583D01*
X0183655Y0116784D02*
X0167676Y0116784D01*
X0167323Y0115986D02*
X0183451Y0115986D01*
X0183451Y0115187D02*
X0166876Y0115187D01*
X0166876Y0114389D02*
X0183451Y0114389D01*
X0183451Y0113590D02*
X0166876Y0113590D01*
X0166876Y0112792D02*
X0182906Y0112792D01*
X0182651Y0111993D02*
X0166876Y0111993D01*
X0166876Y0111195D02*
X0182651Y0111195D01*
X0182968Y0110396D02*
X0166876Y0110396D01*
X0166876Y0109598D02*
X0183767Y0109598D01*
X0185934Y0109598D02*
X0186036Y0109598D01*
X0186036Y0108799D02*
X0166876Y0108799D01*
X0166876Y0108001D02*
X0186036Y0108001D01*
X0186036Y0107202D02*
X0166876Y0107202D01*
X0166876Y0106403D02*
X0187024Y0106403D01*
X0185094Y0105605D02*
X0166876Y0105605D01*
X0166876Y0104806D02*
X0184526Y0104806D01*
X0184526Y0104008D02*
X0166876Y0104008D01*
X0166876Y0103209D02*
X0184530Y0103209D01*
X0185326Y0102411D02*
X0166876Y0102411D01*
X0166876Y0101612D02*
X0185326Y0101612D01*
X0185326Y0100814D02*
X0166876Y0100814D01*
X0166876Y0100015D02*
X0185326Y0100015D01*
X0185326Y0099217D02*
X0166876Y0099217D01*
X0166876Y0098418D02*
X0185326Y0098418D01*
X0185326Y0097620D02*
X0166876Y0097620D01*
X0166876Y0096821D02*
X0185326Y0096821D01*
X0185326Y0096023D02*
X0166876Y0096023D01*
X0166876Y0095224D02*
X0185326Y0095224D01*
X0185326Y0094426D02*
X0166876Y0094426D01*
X0166876Y0093627D02*
X0185326Y0093627D01*
X0185326Y0092829D02*
X0166876Y0092829D01*
X0166876Y0092030D02*
X0185326Y0092030D01*
X0185326Y0091232D02*
X0166876Y0091232D01*
X0166876Y0090433D02*
X0185326Y0090433D01*
X0185326Y0089635D02*
X0166876Y0089635D01*
X0155214Y0095224D02*
X0132305Y0095224D01*
X0133103Y0096023D02*
X0153530Y0096023D01*
X0152732Y0096821D02*
X0133902Y0096821D01*
X0134700Y0097620D02*
X0152090Y0097620D01*
X0151759Y0098418D02*
X0135499Y0098418D01*
X0136297Y0099217D02*
X0151429Y0099217D01*
X0151389Y0100015D02*
X0137096Y0100015D01*
X0137894Y0100814D02*
X0151389Y0100814D01*
X0151462Y0101612D02*
X0138693Y0101612D01*
X0139491Y0102411D02*
X0151792Y0102411D01*
X0152123Y0103209D02*
X0140290Y0103209D01*
X0141089Y0104008D02*
X0152811Y0104008D01*
X0153609Y0104806D02*
X0141887Y0104806D01*
X0142686Y0105605D02*
X0155406Y0105605D01*
X0166657Y0119180D02*
X0186050Y0119180D01*
X0188413Y0117583D02*
X0188828Y0117583D01*
X0189212Y0118381D02*
X0189627Y0118381D01*
X0190010Y0119180D02*
X0190425Y0119180D01*
X0190626Y0119978D02*
X0191224Y0119978D01*
X0190626Y0120777D02*
X0192022Y0120777D01*
X0192821Y0121575D02*
X0190626Y0121575D01*
X0190626Y0122374D02*
X0193620Y0122374D01*
X0189226Y0120375D02*
X0189226Y0125596D01*
X0189629Y0126000D01*
X0188064Y0130359D02*
X0197570Y0130359D01*
X0195326Y0131956D02*
X0259701Y0131956D01*
X0259701Y0132754D02*
X0195713Y0132754D01*
X0195713Y0133553D02*
X0259701Y0133553D01*
X0259701Y0134351D02*
X0195713Y0134351D01*
X0195713Y0135150D02*
X0259701Y0135150D01*
X0259701Y0135948D02*
X0195713Y0135948D01*
X0192351Y0134332D02*
X0191519Y0133500D01*
X0189226Y0133500D01*
X0182976Y0127250D01*
X0182976Y0121625D01*
X0184851Y0116000D02*
X0189226Y0120375D01*
X0193587Y0118381D02*
X0211518Y0118381D01*
X0211060Y0119180D02*
X0194385Y0119180D01*
X0192788Y0117583D02*
X0215822Y0117583D01*
X0215879Y0114529D02*
X0214226Y0114529D01*
X0211060Y0116784D02*
X0191990Y0116784D01*
X0191191Y0115986D02*
X0208600Y0115986D01*
X0207802Y0115187D02*
X0190404Y0115187D01*
X0190404Y0114389D02*
X0207003Y0114389D01*
X0206205Y0113590D02*
X0190404Y0113590D01*
X0191511Y0112792D02*
X0193191Y0112792D01*
X0192729Y0111993D02*
X0191973Y0111993D01*
X0191973Y0111195D02*
X0192729Y0111195D01*
X0192729Y0110396D02*
X0191973Y0110396D01*
X0191973Y0109598D02*
X0192729Y0109598D01*
X0192729Y0108799D02*
X0191973Y0108799D01*
X0191973Y0108001D02*
X0192729Y0108001D01*
X0192729Y0107202D02*
X0191973Y0107202D01*
X0190404Y0106403D02*
X0195932Y0106403D01*
X0196731Y0105605D02*
X0190186Y0105605D01*
X0189387Y0104806D02*
X0197529Y0104806D01*
X0198328Y0104008D02*
X0188926Y0104008D01*
X0188921Y0103209D02*
X0199126Y0103209D01*
X0199925Y0102411D02*
X0190926Y0102411D01*
X0191725Y0101612D02*
X0200723Y0101612D01*
X0201522Y0100814D02*
X0192051Y0100814D01*
X0192190Y0100015D02*
X0202320Y0100015D01*
X0203119Y0099217D02*
X0192989Y0099217D01*
X0193787Y0098418D02*
X0203917Y0098418D01*
X0204716Y0097620D02*
X0194586Y0097620D01*
X0194779Y0096821D02*
X0205514Y0096821D01*
X0206313Y0096023D02*
X0203041Y0096023D01*
X0203041Y0095224D02*
X0207112Y0095224D01*
X0207910Y0094426D02*
X0203041Y0094426D01*
X0203056Y0093627D02*
X0208709Y0093627D01*
X0209507Y0092829D02*
X0203855Y0092829D01*
X0204653Y0092030D02*
X0212408Y0092030D01*
X0215418Y0092030D02*
X0229459Y0092030D01*
X0230258Y0091232D02*
X0227730Y0091232D01*
X0228529Y0090433D02*
X0231056Y0090433D01*
X0234085Y0093627D02*
X0240726Y0093627D01*
X0240726Y0092829D02*
X0234883Y0092829D01*
X0235682Y0092030D02*
X0240726Y0092030D01*
X0240726Y0091232D02*
X0236480Y0091232D01*
X0237279Y0090433D02*
X0240726Y0090433D01*
X0240726Y0089635D02*
X0238077Y0089635D01*
X0238876Y0088836D02*
X0240726Y0088836D01*
X0240726Y0088038D02*
X0239674Y0088038D01*
X0240473Y0087239D02*
X0240726Y0087239D01*
X0240726Y0094426D02*
X0233286Y0094426D01*
X0232488Y0095224D02*
X0240726Y0095224D01*
X0240726Y0096023D02*
X0231689Y0096023D01*
X0240726Y0096821D02*
X0215475Y0096821D01*
X0201625Y0088836D02*
X0188126Y0088836D01*
X0188126Y0088038D02*
X0188777Y0088038D01*
X0188126Y0089635D02*
X0200826Y0089635D01*
X0202423Y0088038D02*
X0190924Y0088038D01*
X0191723Y0087239D02*
X0203222Y0087239D01*
X0197591Y0090433D02*
X0195861Y0090433D01*
X0196348Y0091232D02*
X0197104Y0091232D01*
X0197104Y0092030D02*
X0196348Y0092030D01*
X0196348Y0092829D02*
X0197104Y0092829D01*
X0197104Y0093627D02*
X0196348Y0093627D01*
X0196348Y0094426D02*
X0197104Y0094426D01*
X0197104Y0095224D02*
X0196348Y0095224D01*
X0196348Y0096023D02*
X0197104Y0096023D01*
X0193379Y0096846D02*
X0193379Y0093500D01*
X0190411Y0093627D02*
X0188126Y0093627D01*
X0188126Y0092829D02*
X0190411Y0092829D01*
X0190411Y0092030D02*
X0188126Y0092030D01*
X0188126Y0091232D02*
X0190411Y0091232D01*
X0190898Y0090433D02*
X0188126Y0090433D01*
X0188126Y0094426D02*
X0190411Y0094426D01*
X0190411Y0095224D02*
X0188126Y0095224D01*
X0188126Y0096023D02*
X0190411Y0096023D01*
X0191424Y0096821D02*
X0188126Y0096821D01*
X0188126Y0097620D02*
X0190626Y0097620D01*
X0188696Y0098418D02*
X0188126Y0098418D01*
X0189851Y0100375D02*
X0193379Y0096846D01*
X0188775Y0102411D02*
X0188126Y0102411D01*
X0198961Y0109598D02*
X0201363Y0109598D01*
X0200953Y0108799D02*
X0199759Y0108799D01*
X0200558Y0108001D02*
X0200801Y0108001D01*
X0202370Y0110396D02*
X0198666Y0110396D01*
X0198666Y0111195D02*
X0203809Y0111195D01*
X0204607Y0111993D02*
X0198666Y0111993D01*
X0198204Y0112792D02*
X0205406Y0112792D01*
X0210830Y0111993D02*
X0211213Y0111993D01*
X0218052Y0113590D02*
X0242026Y0113590D01*
X0242026Y0114389D02*
X0218851Y0114389D01*
X0219649Y0115187D02*
X0242177Y0115187D01*
X0250427Y0126366D02*
X0259487Y0126366D01*
X0259701Y0127165D02*
X0251078Y0127165D01*
X0251401Y0127963D02*
X0259701Y0127963D01*
X0259701Y0128762D02*
X0251401Y0128762D01*
X0251192Y0129560D02*
X0259701Y0129560D01*
X0259701Y0130359D02*
X0250702Y0130359D01*
X0249502Y0131157D02*
X0259701Y0131157D01*
X0258689Y0125568D02*
X0199291Y0125568D01*
X0188863Y0131157D02*
X0247699Y0131157D01*
X0259701Y0138344D02*
X0187678Y0138344D01*
X0183112Y0139142D02*
X0174089Y0139142D01*
X0174089Y0139941D02*
X0183112Y0139941D01*
X0183112Y0140739D02*
X0174089Y0140739D01*
X0174089Y0141538D02*
X0183112Y0141538D01*
X0183112Y0142337D02*
X0174089Y0142337D01*
X0174089Y0143135D02*
X0183112Y0143135D01*
X0183112Y0143934D02*
X0174089Y0143934D01*
X0173561Y0144732D02*
X0183640Y0144732D01*
X0186227Y0146329D02*
X0177224Y0146329D01*
X0177608Y0147128D02*
X0185844Y0147128D01*
X0185844Y0147926D02*
X0177608Y0147926D01*
X0177608Y0148725D02*
X0185844Y0148725D01*
X0185844Y0149523D02*
X0177608Y0149523D01*
X0177608Y0150322D02*
X0185844Y0150322D01*
X0185844Y0151120D02*
X0177608Y0151120D01*
X0177608Y0151919D02*
X0185844Y0151919D01*
X0185844Y0152717D02*
X0177608Y0152717D01*
X0177608Y0153516D02*
X0185844Y0153516D01*
X0185844Y0154314D02*
X0177608Y0154314D01*
X0177608Y0155113D02*
X0185844Y0155113D01*
X0185844Y0155911D02*
X0177608Y0155911D01*
X0177608Y0156710D02*
X0185844Y0156710D01*
X0185844Y0157508D02*
X0177608Y0157508D01*
X0177608Y0158307D02*
X0185844Y0158307D01*
X0185844Y0159105D02*
X0177608Y0159105D01*
X0177608Y0159904D02*
X0185844Y0159904D01*
X0185844Y0160702D02*
X0177608Y0160702D01*
X0177608Y0161501D02*
X0185844Y0161501D01*
X0185844Y0162299D02*
X0177608Y0162299D01*
X0164597Y0145531D02*
X0190744Y0145531D01*
X0190744Y0144732D02*
X0188916Y0144732D01*
X0189443Y0143934D02*
X0189515Y0143934D01*
X0192144Y0141625D02*
X0192351Y0141418D01*
X0168286Y0144732D02*
X0164597Y0144732D01*
X0164597Y0143934D02*
X0167758Y0143934D01*
X0156504Y0132250D02*
X0156504Y0126404D01*
X0152890Y0124769D02*
X0151106Y0124769D01*
X0150308Y0123971D02*
X0152092Y0123971D01*
X0126726Y0116625D02*
X0126101Y0117250D01*
X0123197Y0117250D01*
X0120229Y0117583D02*
X0119473Y0117583D01*
X0119473Y0118381D02*
X0120229Y0118381D01*
X0120229Y0119180D02*
X0119473Y0119180D01*
X0119324Y0119978D02*
X0120377Y0119978D01*
X0120229Y0116784D02*
X0119473Y0116784D01*
X0119473Y0115986D02*
X0120229Y0115986D01*
X0120229Y0115187D02*
X0119473Y0115187D01*
X0119191Y0114389D02*
X0120510Y0114389D01*
X0184851Y0116000D02*
X0184851Y0111625D01*
X0186251Y0113590D02*
X0187604Y0113590D01*
X0187604Y0114389D02*
X0186251Y0114389D01*
X0186251Y0115187D02*
X0187604Y0115187D01*
X0187604Y0115986D02*
X0186816Y0115986D01*
X0187615Y0116784D02*
X0188030Y0116784D01*
X0189851Y0086000D02*
X0194004Y0081846D01*
X0194004Y0076000D01*
X0196973Y0076060D02*
X0197729Y0076060D01*
X0197729Y0075262D02*
X0196973Y0075262D01*
X0196973Y0074463D02*
X0197729Y0074463D01*
X0197729Y0073665D02*
X0196973Y0073665D01*
X0196418Y0072866D02*
X0198283Y0072866D01*
X0197729Y0076859D02*
X0196973Y0076859D01*
X0196973Y0077657D02*
X0197729Y0077657D01*
X0197729Y0078456D02*
X0196973Y0078456D01*
X0203666Y0078456D02*
X0229712Y0078456D01*
X0239708Y0079254D02*
X0293601Y0079254D01*
X0293601Y0078456D02*
X0240506Y0078456D01*
X0241305Y0077657D02*
X0293601Y0077657D01*
X0293601Y0076859D02*
X0242103Y0076859D01*
X0242902Y0076060D02*
X0293601Y0076060D01*
X0293601Y0075262D02*
X0243700Y0075262D01*
X0244499Y0074463D02*
X0293601Y0074463D01*
X0293601Y0073665D02*
X0245297Y0073665D01*
X0246096Y0072866D02*
X0293601Y0072866D01*
X0304791Y0071269D02*
X0380476Y0071269D01*
X0380476Y0072068D02*
X0246894Y0072068D01*
X0243866Y0068873D02*
X0193957Y0068873D01*
X0194756Y0068075D02*
X0203814Y0068075D01*
X0203016Y0067276D02*
X0195554Y0067276D01*
X0195626Y0066478D02*
X0202651Y0066478D01*
X0202651Y0065679D02*
X0195626Y0065679D01*
X0195626Y0064881D02*
X0202858Y0064881D01*
X0204851Y0066000D02*
X0269851Y0066000D01*
X0274051Y0061800D01*
X0274051Y0048500D01*
X0275451Y0051306D02*
X0291940Y0051306D01*
X0292738Y0050508D02*
X0281857Y0050508D01*
X0282051Y0049709D02*
X0293537Y0049709D01*
X0293601Y0049645D02*
X0293601Y0007086D01*
X0294186Y0006500D01*
X0373015Y0006500D01*
X0373601Y0007086D01*
X0373601Y0059914D01*
X0373015Y0060500D01*
X0294186Y0060500D01*
X0293601Y0059914D01*
X0293601Y0053605D01*
X0283301Y0063905D01*
X0283301Y0065036D01*
X0282012Y0066325D01*
X0280189Y0066325D01*
X0278901Y0065036D01*
X0278901Y0063214D01*
X0280189Y0061925D01*
X0281321Y0061925D01*
X0293601Y0049645D01*
X0293601Y0048911D02*
X0282051Y0048911D01*
X0282051Y0048112D02*
X0293601Y0048112D01*
X0293601Y0047314D02*
X0282051Y0047314D01*
X0281880Y0046515D02*
X0293601Y0046515D01*
X0293601Y0045717D02*
X0281648Y0045717D01*
X0282051Y0044918D02*
X0293601Y0044918D01*
X0293601Y0044120D02*
X0282051Y0044120D01*
X0282051Y0043321D02*
X0293601Y0043321D01*
X0293601Y0042523D02*
X0282051Y0042523D01*
X0282051Y0041724D02*
X0293601Y0041724D01*
X0311726Y0033500D02*
X0281101Y0064125D01*
X0282658Y0065679D02*
X0380476Y0065679D01*
X0380476Y0064881D02*
X0283301Y0064881D01*
X0283301Y0064082D02*
X0380476Y0064082D01*
X0380476Y0063284D02*
X0283922Y0063284D01*
X0284720Y0062485D02*
X0380476Y0062485D01*
X0380476Y0061687D02*
X0285519Y0061687D01*
X0286317Y0060888D02*
X0380476Y0060888D01*
X0380476Y0060090D02*
X0373425Y0060090D01*
X0373601Y0059291D02*
X0380476Y0059291D01*
X0380476Y0058493D02*
X0373601Y0058493D01*
X0373601Y0057694D02*
X0380476Y0057694D01*
X0380476Y0056896D02*
X0373601Y0056896D01*
X0373601Y0056097D02*
X0380476Y0056097D01*
X0380476Y0055299D02*
X0373601Y0055299D01*
X0373601Y0054500D02*
X0380476Y0054500D01*
X0380476Y0053702D02*
X0373601Y0053702D01*
X0373601Y0052903D02*
X0380476Y0052903D01*
X0380476Y0052105D02*
X0373601Y0052105D01*
X0373601Y0051306D02*
X0380476Y0051306D01*
X0380476Y0050508D02*
X0373601Y0050508D01*
X0373601Y0049709D02*
X0380476Y0049709D01*
X0380476Y0048911D02*
X0373601Y0048911D01*
X0373601Y0048112D02*
X0380476Y0048112D01*
X0380476Y0047314D02*
X0373601Y0047314D01*
X0373601Y0046515D02*
X0380476Y0046515D01*
X0380476Y0045717D02*
X0373601Y0045717D01*
X0373601Y0044918D02*
X0380476Y0044918D01*
X0380476Y0044120D02*
X0373601Y0044120D01*
X0373601Y0043321D02*
X0380476Y0043321D01*
X0380476Y0042523D02*
X0373601Y0042523D01*
X0373601Y0041724D02*
X0380476Y0041724D01*
X0380476Y0040926D02*
X0373601Y0040926D01*
X0373601Y0040127D02*
X0380476Y0040127D01*
X0380476Y0039329D02*
X0373601Y0039329D01*
X0373601Y0038530D02*
X0380476Y0038530D01*
X0380476Y0037732D02*
X0373601Y0037732D01*
X0373601Y0036933D02*
X0380476Y0036933D01*
X0380476Y0036134D02*
X0373601Y0036134D01*
X0373601Y0035336D02*
X0380476Y0035336D01*
X0380476Y0034537D02*
X0373601Y0034537D01*
X0373601Y0033739D02*
X0380476Y0033739D01*
X0380476Y0032940D02*
X0373601Y0032940D01*
X0373601Y0032142D02*
X0380476Y0032142D01*
X0380476Y0031343D02*
X0373601Y0031343D01*
X0373601Y0030545D02*
X0380476Y0030545D01*
X0380476Y0029746D02*
X0373601Y0029746D01*
X0373601Y0028948D02*
X0380476Y0028948D01*
X0380476Y0028149D02*
X0373601Y0028149D01*
X0373601Y0027351D02*
X0380476Y0027351D01*
X0380476Y0026552D02*
X0373601Y0026552D01*
X0373601Y0025754D02*
X0380476Y0025754D01*
X0380476Y0024955D02*
X0373601Y0024955D01*
X0373601Y0024157D02*
X0380476Y0024157D01*
X0380476Y0023358D02*
X0373601Y0023358D01*
X0373601Y0022560D02*
X0380476Y0022560D01*
X0380476Y0021761D02*
X0373601Y0021761D01*
X0373601Y0020963D02*
X0380476Y0020963D01*
X0380476Y0020164D02*
X0373601Y0020164D01*
X0373601Y0019366D02*
X0380476Y0019366D01*
X0380476Y0018567D02*
X0373601Y0018567D01*
X0373601Y0017769D02*
X0380476Y0017769D01*
X0380476Y0016970D02*
X0373601Y0016970D01*
X0373601Y0016172D02*
X0380476Y0016172D01*
X0380476Y0015373D02*
X0373601Y0015373D01*
X0373601Y0014575D02*
X0380476Y0014575D01*
X0380476Y0013776D02*
X0373601Y0013776D01*
X0373601Y0012978D02*
X0380476Y0012978D01*
X0380476Y0012179D02*
X0373601Y0012179D01*
X0373601Y0011381D02*
X0380476Y0011381D01*
X0380476Y0010582D02*
X0373601Y0010582D01*
X0373601Y0009784D02*
X0380476Y0009784D01*
X0380476Y0008985D02*
X0373601Y0008985D01*
X0373601Y0008187D02*
X0380476Y0008187D01*
X0380476Y0007388D02*
X0373601Y0007388D01*
X0373104Y0006590D02*
X0380476Y0006590D01*
X0380476Y0005791D02*
X0080476Y0005791D01*
X0080476Y0004993D02*
X0380476Y0004993D01*
X0380476Y0004194D02*
X0080476Y0004194D01*
X0080476Y0003396D02*
X0380476Y0003396D01*
X0380476Y0002597D02*
X0080476Y0002597D01*
X0080476Y0006590D02*
X0294097Y0006590D01*
X0293601Y0007388D02*
X0080476Y0007388D01*
X0080476Y0008187D02*
X0293601Y0008187D01*
X0293601Y0008985D02*
X0080476Y0008985D01*
X0080476Y0009784D02*
X0293601Y0009784D01*
X0293601Y0010582D02*
X0080476Y0010582D01*
X0080476Y0011381D02*
X0100482Y0011381D01*
X0100124Y0012179D02*
X0080476Y0012179D01*
X0080476Y0012978D02*
X0100124Y0012978D01*
X0100124Y0013776D02*
X0080476Y0013776D01*
X0080476Y0014575D02*
X0100124Y0014575D01*
X0100124Y0015373D02*
X0080476Y0015373D01*
X0080476Y0016172D02*
X0111951Y0016172D01*
X0111951Y0016970D02*
X0112751Y0016970D01*
X0112751Y0016172D02*
X0136326Y0016172D01*
X0136326Y0016970D02*
X0137126Y0016970D01*
X0137126Y0017769D02*
X0136326Y0017769D01*
X0136326Y0018567D02*
X0137126Y0018567D01*
X0137126Y0019366D02*
X0136326Y0019366D01*
X0136326Y0020164D02*
X0137126Y0020164D01*
X0137126Y0020963D02*
X0136326Y0020963D01*
X0125567Y0020963D02*
X0123509Y0020963D01*
X0124470Y0020164D02*
X0124607Y0020164D01*
X0112751Y0020164D02*
X0111951Y0020164D01*
X0111951Y0019366D02*
X0112751Y0019366D01*
X0112751Y0018567D02*
X0111951Y0018567D01*
X0111951Y0017769D02*
X0112751Y0017769D01*
X0112751Y0020963D02*
X0111951Y0020963D01*
X0111951Y0015373D02*
X0112751Y0015373D01*
X0112751Y0014575D02*
X0111951Y0014575D01*
X0111951Y0013776D02*
X0112751Y0013776D01*
X0112751Y0012978D02*
X0111951Y0012978D01*
X0111951Y0012179D02*
X0112751Y0012179D01*
X0112751Y0011381D02*
X0111951Y0011381D01*
X0124219Y0011381D02*
X0124857Y0011381D01*
X0101192Y0020963D02*
X0099537Y0020963D01*
X0100232Y0020164D02*
X0080476Y0020164D01*
X0080476Y0019366D02*
X0100124Y0019366D01*
X0100124Y0018567D02*
X0080476Y0018567D01*
X0080476Y0017769D02*
X0100124Y0017769D01*
X0100124Y0016970D02*
X0080476Y0016970D01*
X0080476Y0024157D02*
X0098205Y0024157D01*
X0099004Y0024955D02*
X0080476Y0024955D01*
X0080476Y0025754D02*
X0099802Y0025754D01*
X0100601Y0026552D02*
X0080476Y0026552D01*
X0080476Y0027351D02*
X0101399Y0027351D01*
X0102198Y0028149D02*
X0080476Y0028149D01*
X0080476Y0028948D02*
X0102996Y0028948D01*
X0103795Y0029746D02*
X0080476Y0029746D01*
X0080476Y0030545D02*
X0104594Y0030545D01*
X0105392Y0031343D02*
X0080476Y0031343D01*
X0100335Y0021761D02*
X0228478Y0021761D01*
X0227680Y0022560D02*
X0101134Y0022560D01*
X0101932Y0023358D02*
X0226881Y0023358D01*
X0226083Y0024157D02*
X0102731Y0024157D01*
X0103529Y0024955D02*
X0225284Y0024955D01*
X0223637Y0025754D02*
X0104328Y0025754D01*
X0105126Y0026552D02*
X0222993Y0026552D01*
X0222676Y0027351D02*
X0105925Y0027351D01*
X0106723Y0028149D02*
X0222676Y0028149D01*
X0222889Y0028948D02*
X0107522Y0028948D01*
X0108320Y0029746D02*
X0223387Y0029746D01*
X0227564Y0029746D02*
X0239251Y0029746D01*
X0239251Y0028948D02*
X0228062Y0028948D01*
X0228313Y0028149D02*
X0239251Y0028149D01*
X0239251Y0027351D02*
X0229111Y0027351D01*
X0229910Y0026552D02*
X0239251Y0026552D01*
X0239251Y0025754D02*
X0230708Y0025754D01*
X0231507Y0024955D02*
X0239251Y0024955D01*
X0239251Y0024157D02*
X0232305Y0024157D01*
X0233104Y0023358D02*
X0239251Y0023358D01*
X0239251Y0022560D02*
X0233902Y0022560D01*
X0234701Y0021761D02*
X0239750Y0021761D01*
X0237895Y0018567D02*
X0266051Y0018567D01*
X0266051Y0017769D02*
X0238693Y0017769D01*
X0239492Y0016970D02*
X0266051Y0016970D01*
X0272438Y0013776D02*
X0293601Y0013776D01*
X0293601Y0012978D02*
X0271640Y0012978D01*
X0273237Y0014575D02*
X0293601Y0014575D01*
X0293601Y0015373D02*
X0274035Y0015373D01*
X0281537Y0016172D02*
X0293601Y0016172D01*
X0293601Y0016970D02*
X0282051Y0016970D01*
X0282051Y0017769D02*
X0293601Y0017769D01*
X0293601Y0018567D02*
X0282051Y0018567D01*
X0282051Y0019366D02*
X0293601Y0019366D01*
X0293601Y0020164D02*
X0282051Y0020164D01*
X0274051Y0023500D02*
X0274051Y0028500D01*
X0272451Y0031343D02*
X0260451Y0031343D01*
X0260451Y0030545D02*
X0266281Y0030545D01*
X0266051Y0029746D02*
X0260451Y0029746D01*
X0260451Y0028948D02*
X0266051Y0028948D01*
X0266051Y0028149D02*
X0260451Y0028149D01*
X0260451Y0027351D02*
X0266051Y0027351D01*
X0266184Y0026552D02*
X0260451Y0026552D01*
X0260451Y0025754D02*
X0266490Y0025754D01*
X0266051Y0024955D02*
X0260451Y0024955D01*
X0260451Y0024157D02*
X0266051Y0024157D01*
X0266051Y0023358D02*
X0260451Y0023358D01*
X0260451Y0022560D02*
X0266051Y0022560D01*
X0266051Y0021761D02*
X0259951Y0021761D01*
X0260451Y0032142D02*
X0272451Y0032142D01*
X0272451Y0032940D02*
X0260451Y0032940D01*
X0260451Y0033739D02*
X0272451Y0033739D01*
X0272451Y0034537D02*
X0260451Y0034537D01*
X0260451Y0035336D02*
X0272451Y0035336D01*
X0266602Y0036134D02*
X0260451Y0036134D01*
X0260451Y0036933D02*
X0266051Y0036933D01*
X0266051Y0037732D02*
X0260451Y0037732D01*
X0260451Y0038530D02*
X0266051Y0038530D01*
X0266051Y0039329D02*
X0260451Y0039329D01*
X0260451Y0040127D02*
X0266051Y0040127D01*
X0275451Y0052105D02*
X0291141Y0052105D01*
X0290343Y0052903D02*
X0275451Y0052903D01*
X0275451Y0053702D02*
X0289544Y0053702D01*
X0288746Y0054500D02*
X0275451Y0054500D01*
X0275451Y0055299D02*
X0287947Y0055299D01*
X0287148Y0056097D02*
X0275451Y0056097D01*
X0275451Y0056896D02*
X0286350Y0056896D01*
X0285551Y0057694D02*
X0275451Y0057694D01*
X0275451Y0058493D02*
X0284753Y0058493D01*
X0283954Y0059291D02*
X0275451Y0059291D01*
X0275451Y0060090D02*
X0283156Y0060090D01*
X0282357Y0060888D02*
X0275451Y0060888D01*
X0275451Y0061687D02*
X0281559Y0061687D01*
X0279629Y0062485D02*
X0275345Y0062485D01*
X0274547Y0063284D02*
X0278901Y0063284D01*
X0278901Y0064082D02*
X0273748Y0064082D01*
X0272950Y0064881D02*
X0278901Y0064881D01*
X0279544Y0065679D02*
X0272151Y0065679D01*
X0271353Y0066478D02*
X0302050Y0066478D01*
X0303902Y0066478D02*
X0380476Y0066478D01*
X0380476Y0067276D02*
X0305087Y0067276D01*
X0305571Y0068075D02*
X0380476Y0068075D01*
X0380476Y0068873D02*
X0305776Y0068873D01*
X0305776Y0069672D02*
X0380476Y0069672D01*
X0380476Y0070470D02*
X0305449Y0070470D01*
X0293776Y0060090D02*
X0287116Y0060090D01*
X0287914Y0059291D02*
X0293601Y0059291D01*
X0293601Y0058493D02*
X0288713Y0058493D01*
X0289511Y0057694D02*
X0293601Y0057694D01*
X0293601Y0056896D02*
X0290310Y0056896D01*
X0291108Y0056097D02*
X0293601Y0056097D01*
X0293601Y0055299D02*
X0291907Y0055299D01*
X0292705Y0054500D02*
X0293601Y0054500D01*
X0293601Y0053702D02*
X0293504Y0053702D01*
X0272651Y0060090D02*
X0239351Y0060090D01*
X0239351Y0060888D02*
X0272651Y0060888D01*
X0272184Y0061687D02*
X0239351Y0061687D01*
X0239351Y0062485D02*
X0271385Y0062485D01*
X0270587Y0063284D02*
X0239351Y0063284D01*
X0239307Y0064082D02*
X0269788Y0064082D01*
X0244664Y0068075D02*
X0205887Y0068075D01*
X0193159Y0069672D02*
X0243067Y0069672D01*
X0242269Y0070470D02*
X0192360Y0070470D01*
X0191562Y0071269D02*
X0241470Y0071269D01*
X0192604Y0079254D02*
X0188126Y0079254D01*
X0188126Y0078456D02*
X0191036Y0078456D01*
X0191036Y0077657D02*
X0188126Y0077657D01*
X0188126Y0076859D02*
X0191036Y0076859D01*
X0192604Y0080053D02*
X0188126Y0080053D01*
X0188126Y0080851D02*
X0192604Y0080851D01*
X0192221Y0081650D02*
X0188126Y0081650D01*
X0188126Y0082448D02*
X0191423Y0082448D01*
X0190624Y0083247D02*
X0188126Y0083247D01*
X0188126Y0084045D02*
X0188694Y0084045D01*
X0159631Y0076859D02*
X0153939Y0076859D01*
X0160657Y0064082D02*
X0181544Y0064082D01*
X0177601Y0061875D02*
X0167976Y0052250D01*
X0172351Y0061625D02*
X0155151Y0061625D01*
X0154901Y0061875D01*
X0160701Y0063284D02*
X0170898Y0063284D01*
X0121961Y0060090D02*
X0093420Y0060090D01*
X0092622Y0059291D02*
X0121162Y0059291D01*
X0120364Y0058493D02*
X0091823Y0058493D01*
X0091025Y0057694D02*
X0119565Y0057694D01*
X0118767Y0056896D02*
X0090226Y0056896D01*
X0089428Y0056097D02*
X0117968Y0056097D01*
X0117170Y0055299D02*
X0088629Y0055299D01*
X0087831Y0054500D02*
X0116371Y0054500D01*
X0115573Y0053702D02*
X0087032Y0053702D01*
X0080476Y0052250D02*
X0063601Y0052250D01*
X0087387Y0066478D02*
X0088451Y0066478D01*
X0088451Y0067276D02*
X0087387Y0067276D01*
X0087387Y0068075D02*
X0088451Y0068075D01*
X0084222Y0069672D02*
X0083422Y0069672D01*
X0083422Y0070470D02*
X0084222Y0070470D01*
X0084222Y0071269D02*
X0083422Y0071269D01*
X0080502Y0071269D02*
X0080476Y0071269D01*
X0077351Y0073500D02*
X0077351Y0068721D01*
X0077129Y0068500D01*
X0110434Y0052903D02*
X0114774Y0052903D01*
X0233151Y0044918D02*
X0233951Y0044918D01*
X0233951Y0044120D02*
X0233151Y0044120D01*
X0233151Y0043321D02*
X0233951Y0043321D01*
X0233951Y0042523D02*
X0233151Y0042523D01*
X0233151Y0041724D02*
X0233951Y0041724D01*
X0233951Y0040926D02*
X0233151Y0040926D01*
X0233151Y0040127D02*
X0233951Y0040127D01*
X0233951Y0039329D02*
X0233151Y0039329D01*
X0233151Y0038530D02*
X0233951Y0038530D01*
X0233951Y0037732D02*
X0233151Y0037732D01*
X0233151Y0036933D02*
X0233951Y0036933D01*
X0233951Y0036134D02*
X0233151Y0036134D01*
X0233151Y0035336D02*
X0233951Y0035336D01*
X0233951Y0034537D02*
X0233151Y0034537D01*
X0233151Y0033739D02*
X0233951Y0033739D01*
X0311726Y0033500D02*
X0333601Y0033500D01*
X0373601Y0072866D02*
X0380476Y0072866D01*
X0380476Y0073665D02*
X0373601Y0073665D01*
X0373601Y0074463D02*
X0380476Y0074463D01*
X0380476Y0075262D02*
X0373601Y0075262D01*
X0373601Y0076060D02*
X0380476Y0076060D01*
X0380476Y0076859D02*
X0373601Y0076859D01*
X0373601Y0077657D02*
X0380476Y0077657D01*
X0380476Y0078456D02*
X0373601Y0078456D01*
X0373601Y0079254D02*
X0380476Y0079254D01*
X0380476Y0080053D02*
X0373601Y0080053D01*
X0373601Y0080851D02*
X0380476Y0080851D01*
X0380476Y0081650D02*
X0373601Y0081650D01*
X0373601Y0082448D02*
X0380476Y0082448D01*
X0380476Y0083247D02*
X0373601Y0083247D01*
X0373601Y0084045D02*
X0380476Y0084045D01*
X0380476Y0084844D02*
X0373601Y0084844D01*
X0373601Y0085642D02*
X0380476Y0085642D01*
X0380476Y0086441D02*
X0373601Y0086441D01*
X0373601Y0087239D02*
X0380476Y0087239D01*
X0380476Y0088038D02*
X0373601Y0088038D01*
X0373601Y0088836D02*
X0380476Y0088836D01*
X0380476Y0089635D02*
X0373601Y0089635D01*
X0373601Y0090433D02*
X0380476Y0090433D01*
X0380476Y0091232D02*
X0373601Y0091232D01*
X0373601Y0092030D02*
X0380476Y0092030D01*
X0380476Y0092829D02*
X0373601Y0092829D01*
X0373601Y0093627D02*
X0380476Y0093627D01*
X0380476Y0094426D02*
X0373601Y0094426D01*
X0373601Y0095224D02*
X0380476Y0095224D01*
X0380476Y0096023D02*
X0373601Y0096023D01*
X0373601Y0096821D02*
X0380476Y0096821D01*
X0380476Y0097620D02*
X0373601Y0097620D01*
X0373601Y0098418D02*
X0380476Y0098418D01*
X0293601Y0138344D02*
X0266426Y0138344D01*
X0266426Y0139142D02*
X0293601Y0139142D01*
X0293601Y0139941D02*
X0266426Y0139941D01*
X0266426Y0140739D02*
X0293601Y0140739D01*
X0293601Y0141538D02*
X0266426Y0141538D01*
X0266426Y0142337D02*
X0293601Y0142337D01*
X0293601Y0143135D02*
X0266426Y0143135D01*
X0266520Y0143934D02*
X0293601Y0143934D01*
X0293601Y0144732D02*
X0267319Y0144732D01*
X0262693Y0146329D02*
X0262501Y0146329D01*
X0262501Y0147128D02*
X0263492Y0147128D01*
X0263132Y0147926D02*
X0264291Y0147926D01*
X0263930Y0148725D02*
X0265089Y0148725D01*
X0264729Y0149523D02*
X0266510Y0149523D01*
X0266165Y0150322D02*
X0265527Y0150322D01*
X0281592Y0149523D02*
X0293601Y0149523D01*
X0293601Y0148725D02*
X0282051Y0148725D01*
X0282051Y0147926D02*
X0293601Y0147926D01*
X0293601Y0147128D02*
X0282051Y0147128D01*
X0282051Y0146329D02*
X0293601Y0146329D01*
X0293601Y0145531D02*
X0282051Y0145531D01*
X0281937Y0150322D02*
X0293601Y0150322D01*
X0293601Y0151120D02*
X0282051Y0151120D01*
X0280041Y0137545D02*
X0266426Y0137545D01*
X0266426Y0136747D02*
X0279243Y0136747D01*
X0278444Y0135948D02*
X0266426Y0135948D01*
X0266426Y0135150D02*
X0277646Y0135150D01*
X0112864Y0163098D02*
X0103712Y0163098D01*
X0103646Y0163125D02*
X0105116Y0162516D01*
X0106242Y0161391D01*
X0106851Y0159921D01*
X0106851Y0158329D01*
X0106242Y0156859D01*
X0105116Y0155734D01*
X0103646Y0155125D01*
X0096055Y0155125D01*
X0094585Y0155734D01*
X0093460Y0156859D01*
X0092851Y0158329D01*
X0092851Y0159921D01*
X0093460Y0161391D01*
X0094585Y0162516D01*
X0096055Y0163125D01*
X0103646Y0163125D01*
X0105333Y0162299D02*
X0111243Y0162299D01*
X0110445Y0161501D02*
X0106132Y0161501D01*
X0106527Y0160702D02*
X0110049Y0160702D01*
X0109726Y0159904D02*
X0106851Y0159904D01*
X0106851Y0159105D02*
X0109726Y0159105D01*
X0109735Y0158307D02*
X0106841Y0158307D01*
X0106511Y0157508D02*
X0110066Y0157508D01*
X0110484Y0156710D02*
X0106092Y0156710D01*
X0105294Y0155911D02*
X0111283Y0155911D01*
X0094408Y0155911D02*
X0089669Y0155911D01*
X0090467Y0156710D02*
X0093609Y0156710D01*
X0093191Y0157508D02*
X0090886Y0157508D01*
X0091216Y0158307D02*
X0092860Y0158307D01*
X0092851Y0159105D02*
X0091226Y0159105D01*
X0091226Y0159904D02*
X0092851Y0159904D01*
X0093174Y0160702D02*
X0090902Y0160702D01*
X0090507Y0161501D02*
X0093570Y0161501D01*
X0094368Y0162299D02*
X0089708Y0162299D01*
X0088087Y0163098D02*
X0095989Y0163098D01*
D29*
X0142976Y0161000D03*
X0142976Y0180375D03*
X0162976Y0181000D03*
X0202351Y0177250D03*
X0207351Y0177250D03*
X0207351Y0172875D03*
X0202351Y0172875D03*
X0212351Y0172875D03*
X0212351Y0177250D03*
X0245476Y0146625D03*
X0245476Y0142875D03*
X0245476Y0139750D03*
X0245476Y0136000D03*
X0277351Y0132875D03*
X0244226Y0114125D03*
X0189851Y0100375D03*
X0186726Y0104125D03*
X0184851Y0111625D03*
X0165476Y0117250D03*
X0160476Y0114750D03*
X0162351Y0111000D03*
X0162351Y0107875D03*
X0158601Y0107875D03*
X0158601Y0111000D03*
X0154851Y0111000D03*
X0154851Y0107875D03*
X0151101Y0107875D03*
X0151101Y0111000D03*
X0147976Y0117875D03*
X0149226Y0126000D03*
X0137976Y0132875D03*
X0111726Y0132875D03*
X0102976Y0121000D03*
X0112976Y0117250D03*
X0126726Y0116625D03*
X0127351Y0112875D03*
X0130476Y0110375D03*
X0132351Y0107875D03*
X0129226Y0104125D03*
X0151101Y0092875D03*
X0154851Y0092875D03*
X0158601Y0092875D03*
X0162351Y0092875D03*
X0162351Y0089750D03*
X0158601Y0089750D03*
X0154851Y0089750D03*
X0151101Y0089750D03*
X0160476Y0086000D03*
X0159851Y0082250D03*
X0161101Y0078500D03*
X0165476Y0079125D03*
X0189851Y0086000D03*
X0189226Y0092875D03*
X0204851Y0066000D03*
X0212976Y0055375D03*
X0209851Y0049125D03*
X0172351Y0061625D03*
X0167976Y0052250D03*
X0150476Y0032250D03*
X0108601Y0042250D03*
X0109226Y0051000D03*
X0122351Y0067250D03*
X0107976Y0077250D03*
X0101726Y0083500D03*
X0077351Y0073500D03*
X0075476Y0087562D03*
X0081726Y0101312D03*
X0089851Y0103500D03*
X0097976Y0106625D03*
X0102351Y0107875D03*
X0066726Y0122250D03*
X0065476Y0105375D03*
X0167351Y0141625D03*
X0184851Y0135375D03*
X0182976Y0121625D03*
X0281101Y0064125D03*
X0252351Y0046000D03*
X0256726Y0041625D03*
X0252351Y0036625D03*
X0256726Y0032875D03*
X0252351Y0028500D03*
X0256726Y0024750D03*
X0360476Y0017250D03*
X0365476Y0017250D03*
X0365476Y0013500D03*
X0360476Y0013500D03*
X0360476Y0009750D03*
X0365476Y0009750D03*
X0370476Y0009750D03*
X0370476Y0013500D03*
X0370476Y0017250D03*
X0370476Y0049750D03*
X0370476Y0053500D03*
X0370476Y0057250D03*
X0365476Y0057250D03*
X0360476Y0057250D03*
X0360476Y0053500D03*
X0365476Y0053500D03*
X0365476Y0049750D03*
X0360476Y0049750D03*
X0360476Y0075375D03*
X0365476Y0075375D03*
X0365476Y0079125D03*
X0360476Y0079125D03*
X0360476Y0082875D03*
X0365476Y0082875D03*
X0370476Y0082875D03*
X0370476Y0079125D03*
X0370476Y0075375D03*
X0370476Y0114750D03*
X0370476Y0118500D03*
X0370476Y0122250D03*
X0365476Y0122250D03*
X0360476Y0122250D03*
X0360476Y0118500D03*
X0365476Y0118500D03*
X0365476Y0114750D03*
X0360476Y0114750D03*
X0360476Y0138500D03*
X0365476Y0138500D03*
X0365476Y0142250D03*
X0360476Y0142250D03*
X0360476Y0146000D03*
X0365476Y0146000D03*
X0370476Y0146000D03*
X0370476Y0142250D03*
X0370476Y0138500D03*
X0370476Y0178500D03*
X0370476Y0182250D03*
X0370476Y0186000D03*
X0365476Y0186000D03*
X0360476Y0186000D03*
X0360476Y0182250D03*
X0360476Y0178500D03*
X0365476Y0178500D03*
X0365476Y0182250D03*
D30*
X0274051Y0177250D02*
X0274051Y0172250D01*
X0274051Y0167250D01*
X0274051Y0157250D01*
X0274051Y0152250D01*
X0171293Y0162875D02*
X0171293Y0172683D01*
X0162976Y0181000D01*
X0082351Y0116625D02*
X0070697Y0116625D01*
X0075259Y0109903D02*
X0082198Y0109903D01*
X0082351Y0109750D01*
X0075259Y0100847D02*
X0075259Y0094130D01*
X0074004Y0092875D01*
X0112351Y0036039D02*
X0098561Y0022250D01*
X0063601Y0022250D01*
X0112351Y0036039D02*
X0136726Y0036039D01*
X0274051Y0038500D02*
X0274051Y0028500D01*
X0274051Y0038500D02*
X0274051Y0043500D01*
X0274051Y0048500D01*
D31*
X0116504Y0117250D02*
X0112976Y0117250D01*
X0167351Y0141625D02*
X0170924Y0141625D01*
X0144629Y0157250D02*
X0142976Y0157471D01*
X0142976Y0161000D01*
X0142976Y0164529D01*
X0144629Y0165375D01*
X0142976Y0175154D02*
X0142976Y0180375D01*
X0142754Y0175375D02*
X0142976Y0175154D01*
M02*
