%
M48
M72
T01C0.01200
T02C0.01969
T03C0.02362
T04C0.03937
T05C0.04000
%
T01
X86000Y61667
X106000Y86667
X121000Y81667
X128500Y86042
X136000Y91667
X129125Y94792
X122250Y96042
X118500Y97917
X114750Y97917
X111000Y99167
X122250Y103542
X122250Y108542
X117875Y110417
X114125Y106042
X111000Y109167
X111000Y116667
X101625Y119792
X109750Y124167
X121000Y120417
X121000Y116667
X129750Y119792
X133500Y124792
X141000Y122917
X147875Y129167
X144750Y136042
X147875Y143542
X139125Y144167
X131000Y141667
X119750Y141667
X103500Y141042
X96000Y136667
X86000Y126667
X76000Y116667
X81000Y109167
X141000Y106667
X144125Y112917
X161000Y102292
X156000Y94167
X168500Y92917
X172250Y106354
X182250Y117917
X181000Y121667
X178500Y136667
X191000Y136667
X198500Y129167
X204750Y130417
X202250Y112917
X198500Y107917
X188500Y96667
X202250Y91667
X209750Y89479
X213500Y85417
X223187Y89479
X223812Y99792
X228187Y104167
X234437Y100729
X261000Y96667
X261000Y90104
X256000Y76667
X266000Y66667
X256000Y61667
X251000Y56667
X258812Y53854
X281000Y51667
X291000Y51667
X281000Y41667
X281000Y36667
X236000Y66667
X231000Y66667
X232875Y74792
X237562Y74479
X211000Y59167
X219750Y54167
X201000Y68542
X194750Y63542
X192250Y71042
X201000Y81667
X208500Y74167
X246000Y121667
X263500Y123542
X261312Y138229
X276000Y136667
X283500Y138854
X281000Y146667
X266000Y161667
X246000Y171667
X218500Y166667
X201000Y176667
X191000Y196667
X176000Y178542
X166000Y191667
X151000Y192917
X151000Y201667
X131000Y191667
X132250Y182292
X131000Y176667
X147250Y182917
X151000Y176667
X153500Y171667
X136000Y160417
X141000Y154167
X120375Y161667
X98500Y199167
X106000Y211667
X91000Y216667
X76000Y211667
X36000Y211667
X31000Y231667
X26000Y259167
X21000Y186667
X131000Y241667
X141000Y241667
X131000Y261667
X210375Y244167
X210375Y236667
X210375Y229167
X221000Y229167
X231625Y229167
X231625Y236667
X231625Y244167
X221000Y244167
X221000Y236667
X231000Y256667
X246000Y271667
X251000Y286667
X266000Y261667
X256000Y211667
X268188Y206667
X276313Y209479
X221000Y201667
X241000Y136667
X306000Y136667
X311000Y141667
X326000Y136667
X341000Y131667
X351000Y146667
X376000Y156667
X386000Y156667
X386000Y161667
X396000Y161667
X396000Y156667
X361000Y191667
X366000Y196667
X376000Y196667
X386000Y196667
X396000Y196667
X401000Y211667
X396000Y241667
X396000Y246667
X386000Y246667
X386000Y241667
X376000Y241667
X361000Y246667
X361000Y256667
X361000Y266667
X361000Y276667
X366000Y281667
X376000Y281667
X386000Y281667
X396000Y281667
X311000Y126667
X361000Y111667
X361000Y101667
X361000Y91667
X361000Y81667
X361000Y71667
X381000Y71667
X381000Y76667
X391000Y76667
X391000Y71667
X391000Y96667
X386000Y111667
X376000Y111667
X151000Y16667
X121000Y56667
X31000Y66667
X16000Y76667
T02
X101000Y31667
X149750Y32917
X181000Y46667
X201000Y46667
X152250Y112917
T03
X54125Y108542
X366000Y176667
T04
X31000Y186667
X41000Y186667
X51000Y186667
X61000Y186667
X41000Y151667
X41000Y141667
X41000Y131667
X41000Y121667
X41000Y101667
X41000Y91667
X41000Y81667
X41000Y71667
X41000Y61667
X41000Y51667
X41000Y41667
X41000Y31667
X91000Y21667
X101000Y21667
X111000Y21667
X121000Y21667
X131000Y21667
X181000Y21667
X191000Y21667
T05
X36000Y221667
X46000Y221667
X56000Y221667
X56000Y241667
X46000Y241667
X36000Y241667
X36000Y261667
X46000Y261667
X56000Y261667
M30
