G75*
%MOIN*%
%OFA0B0*%
%FSLAX25Y25*%
%IPPOS*%
%LPD*%
%AMOC8*
5,1,8,0,0,1.08239X$1,22.5*
%
%ADD10C,0.00000*%
%ADD11R,0.05518X0.06306*%
%ADD12R,0.03550X0.05124*%
%ADD13R,0.06699X0.07487*%
%ADD14R,0.07487X0.06699*%
%ADD15R,0.22054X0.07683*%
%ADD16R,0.06306X0.05518*%
%ADD17R,0.04337X0.04731*%
%ADD18R,0.04731X0.04337*%
%ADD19C,0.06337*%
%ADD20C,0.06400*%
%ADD21R,0.31896X0.11030*%
%ADD22R,0.05518X0.06699*%
%ADD23R,0.78400X0.52400*%
%ADD24R,0.14400X0.03200*%
%ADD25R,0.19600X0.25800*%
%ADD26R,0.08668X0.01463*%
%ADD27R,0.14613X0.25400*%
%ADD28R,0.23400X0.10400*%
%ADD29R,0.04400X0.10400*%
%ADD30R,0.10400X0.23400*%
%ADD31R,0.10400X0.04400*%
D10*
X0001000Y0001667D02*
X0001000Y0301667D01*
X0421000Y0301667D01*
X0421000Y0001667D01*
X0001000Y0001667D01*
D11*
X0142654Y0041667D03*
X0149346Y0041667D03*
X0212654Y0095417D03*
X0219346Y0095417D03*
X0219346Y0106667D03*
X0212654Y0106667D03*
X0262654Y0021667D03*
X0269346Y0021667D03*
D12*
X0204543Y0136667D03*
X0197457Y0136667D03*
D13*
X0171512Y0041667D03*
X0160488Y0041667D03*
D14*
X0231000Y0136155D03*
X0231000Y0147178D03*
D15*
X0236000Y0181627D03*
X0236000Y0201706D03*
D16*
X0216000Y0072513D03*
X0216000Y0065820D03*
D17*
X0216000Y0050013D03*
X0216000Y0043320D03*
X0216000Y0030013D03*
X0216000Y0023320D03*
X0099346Y0080417D03*
X0092654Y0080417D03*
X0091000Y0100820D03*
X0091000Y0107513D03*
X0187654Y0116667D03*
X0194346Y0116667D03*
X0347654Y0131667D03*
X0354346Y0131667D03*
X0354346Y0216667D03*
X0347654Y0216667D03*
X0347654Y0046667D03*
X0354346Y0046667D03*
D18*
X0286000Y0023138D03*
X0286000Y0016445D03*
X0238500Y0033320D03*
X0238500Y0040013D03*
X0228500Y0040013D03*
X0228500Y0033320D03*
X0228500Y0053320D03*
X0228500Y0060013D03*
X0238500Y0060013D03*
X0238500Y0053320D03*
X0114346Y0080417D03*
X0107654Y0080417D03*
X0101000Y0100820D03*
X0101000Y0107513D03*
X0099346Y0114167D03*
X0092654Y0114167D03*
X0141000Y0168320D03*
X0141000Y0175013D03*
X0141000Y0183320D03*
X0141000Y0190013D03*
D19*
X0061000Y0189635D02*
X0061000Y0183698D01*
X0051000Y0183698D02*
X0051000Y0189635D01*
X0041000Y0189635D02*
X0041000Y0183698D01*
X0031000Y0183698D02*
X0031000Y0189635D01*
X0038031Y0151667D02*
X0043969Y0151667D01*
X0043969Y0141667D02*
X0038031Y0141667D01*
X0038031Y0131667D02*
X0043969Y0131667D01*
X0043969Y0121667D02*
X0038031Y0121667D01*
X0038031Y0101667D02*
X0043969Y0101667D01*
X0043969Y0091667D02*
X0038031Y0091667D01*
X0038031Y0081667D02*
X0043969Y0081667D01*
X0043969Y0071667D02*
X0038031Y0071667D01*
X0038031Y0061667D02*
X0043969Y0061667D01*
X0043969Y0051667D02*
X0038031Y0051667D01*
X0038031Y0041667D02*
X0043969Y0041667D01*
X0043969Y0031667D02*
X0038031Y0031667D01*
X0091000Y0024635D02*
X0091000Y0018698D01*
X0101000Y0018698D02*
X0101000Y0024635D01*
X0111000Y0024635D02*
X0111000Y0018698D01*
X0121000Y0018698D02*
X0121000Y0024635D01*
X0131000Y0024635D02*
X0131000Y0018698D01*
X0181000Y0018698D02*
X0181000Y0024635D01*
X0191000Y0024635D02*
X0191000Y0018698D01*
D20*
X0056000Y0218667D02*
X0056000Y0224667D01*
X0046000Y0224667D02*
X0046000Y0218667D01*
X0036000Y0218667D02*
X0036000Y0224667D01*
X0036000Y0238667D02*
X0036000Y0244667D01*
X0046000Y0244667D02*
X0046000Y0238667D01*
X0056000Y0238667D02*
X0056000Y0244667D01*
X0056000Y0258667D02*
X0056000Y0264667D01*
X0046000Y0264667D02*
X0046000Y0258667D01*
X0036000Y0258667D02*
X0036000Y0264667D01*
D21*
X0186000Y0187100D03*
X0186000Y0166234D03*
D22*
X0262260Y0011667D03*
X0269740Y0011667D03*
D23*
X0311000Y0091667D03*
X0311000Y0176667D03*
X0311000Y0261667D03*
D24*
X0370550Y0266667D03*
X0370550Y0271667D03*
X0370550Y0276667D03*
X0370550Y0256667D03*
X0370550Y0251667D03*
X0370550Y0246667D03*
X0370550Y0191667D03*
X0370550Y0186667D03*
X0370550Y0181667D03*
X0370550Y0171667D03*
X0370550Y0166667D03*
X0370550Y0161667D03*
X0370550Y0106667D03*
X0370550Y0101667D03*
X0370550Y0096667D03*
X0370550Y0086667D03*
X0370550Y0081667D03*
X0370550Y0076667D03*
D25*
X0391000Y0091667D03*
X0391000Y0176667D03*
X0391000Y0261667D03*
D26*
X0175961Y0103241D03*
X0175961Y0101273D03*
X0175961Y0099304D03*
X0175961Y0097336D03*
X0175961Y0095367D03*
X0175961Y0093399D03*
X0175961Y0091430D03*
X0175961Y0089462D03*
X0175961Y0087493D03*
X0175961Y0085525D03*
X0175961Y0083556D03*
X0175961Y0081588D03*
X0175961Y0079619D03*
X0175961Y0077651D03*
X0175961Y0075682D03*
X0175961Y0073714D03*
X0175961Y0071745D03*
X0175961Y0069777D03*
X0175961Y0067808D03*
X0175961Y0065840D03*
X0175961Y0063871D03*
X0175961Y0061903D03*
X0175961Y0059934D03*
X0175961Y0057966D03*
X0175961Y0055997D03*
X0175961Y0054029D03*
X0175961Y0052060D03*
X0175961Y0050092D03*
X0146236Y0050092D03*
X0146236Y0052060D03*
X0146236Y0054029D03*
X0146236Y0055997D03*
X0146236Y0057966D03*
X0146236Y0059934D03*
X0146236Y0061903D03*
X0146236Y0063871D03*
X0146236Y0065840D03*
X0146236Y0067808D03*
X0146236Y0069777D03*
X0146236Y0071745D03*
X0146236Y0073714D03*
X0146236Y0075682D03*
X0146236Y0077651D03*
X0146236Y0079619D03*
X0146236Y0081588D03*
X0146236Y0083556D03*
X0146236Y0085525D03*
X0146236Y0087493D03*
X0146236Y0089462D03*
X0146236Y0091430D03*
X0146236Y0093399D03*
X0146236Y0095367D03*
X0146236Y0097336D03*
X0146236Y0099304D03*
X0146236Y0101273D03*
X0146236Y0103241D03*
D27*
X0161000Y0076667D03*
D28*
X0247000Y0093842D03*
X0247000Y0113242D03*
D29*
X0231250Y0113242D03*
X0231250Y0093842D03*
D30*
X0243800Y0241292D03*
X0263200Y0241292D03*
D31*
X0263200Y0257042D03*
X0243800Y0257042D03*
M02*
