G75*
%MOIN*%
%OFA0B0*%
%FSLAX25Y25*%
%IPPOS*%
%LPD*%
%AMOC8*
5,1,8,0,0,1.08239X$1,22.5*
%
%ADD10C,0.00000*%
%ADD11R,0.07087X0.06299*%
%ADD12R,0.05906X0.05118*%
%ADD13R,0.05118X0.05906*%
%ADD14R,0.06299X0.07087*%
%ADD15R,0.07283X0.21654*%
%ADD16R,0.06693X0.09843*%
%ADD17R,0.04331X0.04331*%
%ADD18R,0.05000X0.05787*%
%ADD19R,0.03937X0.04331*%
%ADD20R,0.04331X0.03937*%
%ADD21R,0.05512X0.04331*%
%ADD22R,0.04800X0.08800*%
%ADD23R,0.14173X0.08661*%
%ADD24R,0.25400X0.19200*%
%ADD25R,0.19200X0.25400*%
%ADD26R,0.78000X0.52000*%
%ADD27R,0.14000X0.02800*%
D10*
X0001000Y0001667D02*
X0001000Y0301667D01*
X0421000Y0301667D01*
X0421000Y0001667D01*
X0001000Y0001667D01*
D11*
X0181000Y0096155D03*
X0181000Y0107178D03*
X0196000Y0102178D03*
X0196000Y0091155D03*
X0171000Y0156155D03*
X0161000Y0156155D03*
X0161000Y0167178D03*
X0171000Y0167178D03*
X0191000Y0166155D03*
X0191000Y0177178D03*
D12*
X0171000Y0145013D03*
X0171000Y0138320D03*
D13*
X0109346Y0071667D03*
X0102654Y0071667D03*
X0102654Y0061667D03*
X0109346Y0061667D03*
X0132654Y0206667D03*
X0139346Y0206667D03*
D14*
X0215488Y0076667D03*
X0226512Y0076667D03*
D15*
X0171039Y0076667D03*
X0150961Y0076667D03*
D16*
X0158520Y0216667D03*
X0173480Y0216667D03*
X0138480Y0226667D03*
X0123520Y0226667D03*
D17*
X0191000Y0204344D03*
X0191000Y0188989D03*
D18*
X0124465Y0261667D03*
X0107535Y0261667D03*
D19*
X0257654Y0221667D03*
X0264346Y0221667D03*
X0272654Y0221667D03*
X0279346Y0221667D03*
X0279346Y0131667D03*
X0272654Y0131667D03*
X0264346Y0131667D03*
X0257654Y0131667D03*
X0250596Y0080417D03*
X0243904Y0080417D03*
X0164346Y0116667D03*
X0157654Y0116667D03*
X0135596Y0110417D03*
X0128904Y0110417D03*
X0094346Y0113542D03*
X0087654Y0113542D03*
X0087654Y0104792D03*
X0094346Y0104792D03*
X0094346Y0095417D03*
X0087654Y0095417D03*
D20*
X0136000Y0129570D03*
X0136000Y0136263D03*
X0146000Y0148320D03*
X0146000Y0155013D03*
X0276000Y0090013D03*
X0276000Y0083320D03*
D21*
X0101000Y0167730D03*
X0091000Y0167730D03*
X0081000Y0167730D03*
X0081000Y0175604D03*
X0091000Y0175604D03*
X0101000Y0175604D03*
X0091000Y0197730D03*
X0091000Y0205604D03*
X0081000Y0205604D03*
X0081000Y0197730D03*
X0071000Y0197730D03*
X0071000Y0205604D03*
D22*
X0156900Y0203867D03*
X0166000Y0203867D03*
X0175100Y0203867D03*
D23*
X0166000Y0179466D03*
D24*
X0221000Y0236667D03*
D25*
X0226000Y0136667D03*
D26*
X0361000Y0176667D03*
X0361000Y0261667D03*
X0361000Y0091667D03*
D27*
X0301450Y0096667D03*
X0301450Y0101667D03*
X0301450Y0106667D03*
X0301450Y0086667D03*
X0301450Y0081667D03*
X0301450Y0076667D03*
X0301450Y0161667D03*
X0301450Y0166667D03*
X0301450Y0171667D03*
X0301450Y0181667D03*
X0301450Y0186667D03*
X0301450Y0191667D03*
X0301450Y0246667D03*
X0301450Y0251667D03*
X0301450Y0256667D03*
X0301450Y0266667D03*
X0301450Y0271667D03*
X0301450Y0276667D03*
M02*
