G75*
%MOIN*%
%OFA0B0*%
%FSLAX25Y25*%
%IPPOS*%
%LPD*%
%AMOC8*
5,1,8,0,0,1.08239X$1,22.5*
%
%ADD10C,0.00000*%
%ADD11C,0.00400*%
%ADD12C,0.00100*%
%ADD13C,0.00800*%
%ADD14C,0.01575*%
%ADD15C,0.00600*%
%ADD16C,0.00500*%
%ADD17R,0.02559X0.05512*%
%ADD18R,0.05512X0.02559*%
%ADD19C,0.00300*%
%ADD20C,0.02200*%
D10*
X0047976Y0001000D02*
X0047976Y0195000D01*
X0384226Y0195000D01*
X0384226Y0001000D01*
X0047976Y0001000D01*
X0152789Y0100375D02*
X0152791Y0100500D01*
X0152797Y0100625D01*
X0152807Y0100749D01*
X0152821Y0100873D01*
X0152838Y0100997D01*
X0152860Y0101120D01*
X0152886Y0101242D01*
X0152915Y0101364D01*
X0152948Y0101484D01*
X0152986Y0101603D01*
X0153026Y0101722D01*
X0153071Y0101838D01*
X0153119Y0101953D01*
X0153171Y0102067D01*
X0153227Y0102179D01*
X0153286Y0102289D01*
X0153348Y0102397D01*
X0153414Y0102504D01*
X0153483Y0102608D01*
X0153556Y0102709D01*
X0153631Y0102809D01*
X0153710Y0102906D01*
X0153792Y0103000D01*
X0153877Y0103092D01*
X0153964Y0103181D01*
X0154055Y0103267D01*
X0154148Y0103350D01*
X0154244Y0103431D01*
X0154342Y0103508D01*
X0154442Y0103582D01*
X0154545Y0103653D01*
X0154650Y0103720D01*
X0154758Y0103785D01*
X0154867Y0103845D01*
X0154978Y0103903D01*
X0155091Y0103956D01*
X0155205Y0104006D01*
X0155321Y0104053D01*
X0155438Y0104095D01*
X0155557Y0104134D01*
X0155677Y0104170D01*
X0155798Y0104201D01*
X0155920Y0104229D01*
X0156042Y0104252D01*
X0156166Y0104272D01*
X0156290Y0104288D01*
X0156414Y0104300D01*
X0156539Y0104308D01*
X0156664Y0104312D01*
X0156788Y0104312D01*
X0156913Y0104308D01*
X0157038Y0104300D01*
X0157162Y0104288D01*
X0157286Y0104272D01*
X0157410Y0104252D01*
X0157532Y0104229D01*
X0157654Y0104201D01*
X0157775Y0104170D01*
X0157895Y0104134D01*
X0158014Y0104095D01*
X0158131Y0104053D01*
X0158247Y0104006D01*
X0158361Y0103956D01*
X0158474Y0103903D01*
X0158585Y0103845D01*
X0158695Y0103785D01*
X0158802Y0103720D01*
X0158907Y0103653D01*
X0159010Y0103582D01*
X0159110Y0103508D01*
X0159208Y0103431D01*
X0159304Y0103350D01*
X0159397Y0103267D01*
X0159488Y0103181D01*
X0159575Y0103092D01*
X0159660Y0103000D01*
X0159742Y0102906D01*
X0159821Y0102809D01*
X0159896Y0102709D01*
X0159969Y0102608D01*
X0160038Y0102504D01*
X0160104Y0102397D01*
X0160166Y0102289D01*
X0160225Y0102179D01*
X0160281Y0102067D01*
X0160333Y0101953D01*
X0160381Y0101838D01*
X0160426Y0101722D01*
X0160466Y0101603D01*
X0160504Y0101484D01*
X0160537Y0101364D01*
X0160566Y0101242D01*
X0160592Y0101120D01*
X0160614Y0100997D01*
X0160631Y0100873D01*
X0160645Y0100749D01*
X0160655Y0100625D01*
X0160661Y0100500D01*
X0160663Y0100375D01*
X0160661Y0100250D01*
X0160655Y0100125D01*
X0160645Y0100001D01*
X0160631Y0099877D01*
X0160614Y0099753D01*
X0160592Y0099630D01*
X0160566Y0099508D01*
X0160537Y0099386D01*
X0160504Y0099266D01*
X0160466Y0099147D01*
X0160426Y0099028D01*
X0160381Y0098912D01*
X0160333Y0098797D01*
X0160281Y0098683D01*
X0160225Y0098571D01*
X0160166Y0098461D01*
X0160104Y0098353D01*
X0160038Y0098246D01*
X0159969Y0098142D01*
X0159896Y0098041D01*
X0159821Y0097941D01*
X0159742Y0097844D01*
X0159660Y0097750D01*
X0159575Y0097658D01*
X0159488Y0097569D01*
X0159397Y0097483D01*
X0159304Y0097400D01*
X0159208Y0097319D01*
X0159110Y0097242D01*
X0159010Y0097168D01*
X0158907Y0097097D01*
X0158802Y0097030D01*
X0158694Y0096965D01*
X0158585Y0096905D01*
X0158474Y0096847D01*
X0158361Y0096794D01*
X0158247Y0096744D01*
X0158131Y0096697D01*
X0158014Y0096655D01*
X0157895Y0096616D01*
X0157775Y0096580D01*
X0157654Y0096549D01*
X0157532Y0096521D01*
X0157410Y0096498D01*
X0157286Y0096478D01*
X0157162Y0096462D01*
X0157038Y0096450D01*
X0156913Y0096442D01*
X0156788Y0096438D01*
X0156664Y0096438D01*
X0156539Y0096442D01*
X0156414Y0096450D01*
X0156290Y0096462D01*
X0156166Y0096478D01*
X0156042Y0096498D01*
X0155920Y0096521D01*
X0155798Y0096549D01*
X0155677Y0096580D01*
X0155557Y0096616D01*
X0155438Y0096655D01*
X0155321Y0096697D01*
X0155205Y0096744D01*
X0155091Y0096794D01*
X0154978Y0096847D01*
X0154867Y0096905D01*
X0154757Y0096965D01*
X0154650Y0097030D01*
X0154545Y0097097D01*
X0154442Y0097168D01*
X0154342Y0097242D01*
X0154244Y0097319D01*
X0154148Y0097400D01*
X0154055Y0097483D01*
X0153964Y0097569D01*
X0153877Y0097658D01*
X0153792Y0097750D01*
X0153710Y0097844D01*
X0153631Y0097941D01*
X0153556Y0098041D01*
X0153483Y0098142D01*
X0153414Y0098246D01*
X0153348Y0098353D01*
X0153286Y0098461D01*
X0153227Y0098571D01*
X0153171Y0098683D01*
X0153119Y0098797D01*
X0153071Y0098912D01*
X0153026Y0099028D01*
X0152986Y0099147D01*
X0152948Y0099266D01*
X0152915Y0099386D01*
X0152886Y0099508D01*
X0152860Y0099630D01*
X0152838Y0099753D01*
X0152821Y0099877D01*
X0152807Y0100001D01*
X0152797Y0100125D01*
X0152791Y0100250D01*
X0152789Y0100375D01*
D11*
X0123891Y0098912D02*
X0123891Y0098144D01*
X0123124Y0097377D01*
X0121589Y0097377D01*
X0120822Y0098144D01*
X0120822Y0098912D01*
X0121589Y0099679D01*
X0123124Y0099679D01*
X0123891Y0098912D01*
X0123124Y0097377D02*
X0123891Y0096610D01*
X0123891Y0095842D01*
X0123124Y0095075D01*
X0121589Y0095075D01*
X0120822Y0095842D01*
X0120822Y0096610D01*
X0121589Y0097377D01*
X0119287Y0098912D02*
X0118520Y0099679D01*
X0116985Y0099679D01*
X0116218Y0098912D01*
X0116218Y0095842D01*
X0116985Y0095075D01*
X0118520Y0095075D01*
X0119287Y0095842D01*
X0095508Y0069908D02*
X0092439Y0072977D01*
X0091672Y0072977D01*
X0091672Y0069908D01*
X0092439Y0068373D02*
X0091672Y0067606D01*
X0091672Y0066071D01*
X0092439Y0065304D01*
X0092439Y0063769D02*
X0093974Y0063769D01*
X0094741Y0063002D01*
X0094741Y0060700D01*
X0094741Y0062235D02*
X0096276Y0063769D01*
X0096276Y0065304D02*
X0093206Y0068373D01*
X0092439Y0068373D01*
X0095508Y0069908D02*
X0096276Y0069908D01*
X0096276Y0068373D02*
X0096276Y0065304D01*
X0092439Y0063769D02*
X0091672Y0063002D01*
X0091672Y0060700D01*
X0096276Y0060700D01*
X0102364Y0059985D02*
X0104666Y0059985D01*
X0105433Y0060752D01*
X0105433Y0062287D01*
X0104666Y0063054D01*
X0102364Y0063054D01*
X0102364Y0058450D01*
X0103899Y0059985D02*
X0105433Y0058450D01*
X0106968Y0058450D02*
X0110037Y0061519D01*
X0110037Y0062287D01*
X0109270Y0063054D01*
X0107735Y0063054D01*
X0106968Y0062287D01*
X0111572Y0060752D02*
X0113874Y0060752D01*
X0114641Y0059985D01*
X0114641Y0059217D01*
X0113874Y0058450D01*
X0112339Y0058450D01*
X0111572Y0059217D01*
X0111572Y0060752D01*
X0113106Y0062287D01*
X0114641Y0063054D01*
X0110037Y0058450D02*
X0106968Y0058450D01*
X0100124Y0046804D02*
X0100891Y0046037D01*
X0100891Y0045269D01*
X0100124Y0044502D01*
X0098589Y0044502D01*
X0097822Y0045269D01*
X0097822Y0046037D01*
X0098589Y0046804D01*
X0100124Y0046804D01*
X0100124Y0044502D02*
X0100891Y0043735D01*
X0100891Y0042967D01*
X0100124Y0042200D01*
X0098589Y0042200D01*
X0097822Y0042967D01*
X0097822Y0043735D01*
X0098589Y0044502D01*
X0096287Y0045269D02*
X0093218Y0042200D01*
X0096287Y0042200D01*
X0091683Y0042200D02*
X0090149Y0043735D01*
X0090916Y0043735D02*
X0088614Y0043735D01*
X0088614Y0042200D02*
X0088614Y0046804D01*
X0090916Y0046804D01*
X0091683Y0046037D01*
X0091683Y0044502D01*
X0090916Y0043735D01*
X0093218Y0046037D02*
X0093985Y0046804D01*
X0095520Y0046804D01*
X0096287Y0046037D01*
X0096287Y0045269D01*
X0095520Y0038054D02*
X0096287Y0037287D01*
X0096287Y0036519D01*
X0095520Y0035752D01*
X0096287Y0034985D01*
X0096287Y0034217D01*
X0095520Y0033450D01*
X0093985Y0033450D01*
X0093218Y0034217D01*
X0091683Y0033450D02*
X0090149Y0034985D01*
X0090916Y0034985D02*
X0088614Y0034985D01*
X0088614Y0033450D02*
X0088614Y0038054D01*
X0090916Y0038054D01*
X0091683Y0037287D01*
X0091683Y0035752D01*
X0090916Y0034985D01*
X0094752Y0035752D02*
X0095520Y0035752D01*
X0095520Y0038054D02*
X0093985Y0038054D01*
X0093218Y0037287D01*
X0097822Y0037287D02*
X0098589Y0038054D01*
X0100124Y0038054D01*
X0100891Y0037287D01*
X0097822Y0034217D01*
X0098589Y0033450D01*
X0100124Y0033450D01*
X0100891Y0034217D01*
X0100891Y0037287D01*
X0097822Y0037287D02*
X0097822Y0034217D01*
X0134114Y0042342D02*
X0134881Y0041575D01*
X0136416Y0041575D01*
X0137183Y0042342D01*
X0138718Y0041575D02*
X0141787Y0041575D01*
X0140252Y0041575D02*
X0140252Y0046179D01*
X0138718Y0044644D01*
X0137183Y0045412D02*
X0136416Y0046179D01*
X0134881Y0046179D01*
X0134114Y0045412D01*
X0134114Y0042342D01*
X0143322Y0042342D02*
X0143322Y0041575D01*
X0143322Y0042342D02*
X0146391Y0045412D01*
X0146391Y0046179D01*
X0143322Y0046179D01*
X0144089Y0049700D02*
X0143322Y0050467D01*
X0143322Y0051235D01*
X0144089Y0052002D01*
X0145624Y0052002D01*
X0146391Y0051235D01*
X0146391Y0050467D01*
X0145624Y0049700D01*
X0144089Y0049700D01*
X0141787Y0049700D02*
X0138718Y0049700D01*
X0140252Y0049700D02*
X0140252Y0054304D01*
X0138718Y0052769D01*
X0137183Y0053537D02*
X0136416Y0054304D01*
X0134881Y0054304D01*
X0134114Y0053537D01*
X0134114Y0050467D01*
X0134881Y0049700D01*
X0136416Y0049700D01*
X0137183Y0050467D01*
X0143322Y0052769D02*
X0143322Y0053537D01*
X0144089Y0054304D01*
X0145624Y0054304D01*
X0146391Y0053537D01*
X0146391Y0052769D01*
X0145624Y0052002D01*
X0144089Y0052002D02*
X0143322Y0052769D01*
X0144089Y0057825D02*
X0145624Y0057825D01*
X0146391Y0058592D01*
X0146391Y0059360D01*
X0145624Y0060127D01*
X0143322Y0060127D01*
X0143322Y0058592D01*
X0144089Y0057825D01*
X0141787Y0057825D02*
X0138718Y0057825D01*
X0140252Y0057825D02*
X0140252Y0062429D01*
X0138718Y0060894D01*
X0137183Y0061662D02*
X0136416Y0062429D01*
X0134881Y0062429D01*
X0134114Y0061662D01*
X0134114Y0058592D01*
X0134881Y0057825D01*
X0136416Y0057825D01*
X0137183Y0058592D01*
X0143322Y0060127D02*
X0144856Y0061662D01*
X0146391Y0062429D01*
X0170422Y0063023D02*
X0170422Y0061488D01*
X0171189Y0060721D01*
X0172724Y0062256D02*
X0172724Y0063023D01*
X0173491Y0063790D01*
X0174258Y0063790D01*
X0175026Y0063023D01*
X0175026Y0061488D01*
X0174258Y0060721D01*
X0174343Y0061412D02*
X0174343Y0058342D01*
X0175110Y0057575D01*
X0176645Y0057575D01*
X0177412Y0058342D01*
X0178947Y0058342D02*
X0179714Y0057575D01*
X0181249Y0057575D01*
X0182016Y0058342D01*
X0182016Y0059877D01*
X0181249Y0060644D01*
X0180481Y0060644D01*
X0178947Y0059877D01*
X0178947Y0062179D01*
X0182016Y0062179D01*
X0177412Y0061412D02*
X0176645Y0062179D01*
X0175110Y0062179D01*
X0174343Y0061412D01*
X0172724Y0063023D02*
X0171956Y0063790D01*
X0171189Y0063790D01*
X0170422Y0063023D01*
X0175026Y0059186D02*
X0175026Y0056117D01*
X0175026Y0054582D02*
X0173491Y0053048D01*
X0172808Y0052787D02*
X0172808Y0051252D01*
X0172041Y0050485D01*
X0169739Y0050485D01*
X0170422Y0051513D02*
X0170422Y0053815D01*
X0171189Y0054582D01*
X0172724Y0054582D01*
X0173491Y0053815D01*
X0173491Y0051513D01*
X0174343Y0052019D02*
X0175877Y0053554D01*
X0175877Y0048950D01*
X0174343Y0048950D02*
X0177412Y0048950D01*
X0178947Y0048950D02*
X0182016Y0052019D01*
X0182016Y0052787D01*
X0181249Y0053554D01*
X0179714Y0053554D01*
X0178947Y0052787D01*
X0175026Y0051513D02*
X0170422Y0051513D01*
X0171274Y0050485D02*
X0172808Y0048950D01*
X0169739Y0048950D02*
X0169739Y0053554D01*
X0172041Y0053554D01*
X0172808Y0052787D01*
X0171956Y0056117D02*
X0170422Y0057652D01*
X0175026Y0057652D01*
X0178947Y0048950D02*
X0182016Y0048950D01*
X0194297Y0049044D02*
X0194297Y0047509D01*
X0195064Y0046742D01*
X0198133Y0046742D01*
X0198901Y0047509D01*
X0198901Y0049044D01*
X0198133Y0049811D01*
X0196599Y0051346D02*
X0196599Y0054415D01*
X0198901Y0053648D02*
X0194297Y0053648D01*
X0196599Y0051346D01*
X0195064Y0049811D02*
X0194297Y0049044D01*
X0207922Y0048277D02*
X0212526Y0048277D01*
X0213366Y0048950D02*
X0213366Y0051252D01*
X0212599Y0052019D01*
X0211064Y0052019D01*
X0210297Y0051252D01*
X0210297Y0048950D01*
X0214901Y0048950D01*
X0213366Y0050485D02*
X0214901Y0052019D01*
X0214901Y0053554D02*
X0214901Y0056623D01*
X0214901Y0055089D02*
X0210297Y0055089D01*
X0211831Y0053554D01*
X0212526Y0053648D02*
X0211758Y0054415D01*
X0208689Y0054415D01*
X0211758Y0051346D01*
X0212526Y0052113D01*
X0212526Y0053648D01*
X0211758Y0051346D02*
X0208689Y0051346D01*
X0207922Y0052113D01*
X0207922Y0053648D01*
X0208689Y0054415D01*
X0211831Y0058158D02*
X0210297Y0059692D01*
X0214901Y0059692D01*
X0214901Y0058158D02*
X0214901Y0061227D01*
X0217922Y0062992D02*
X0217922Y0065294D01*
X0218689Y0066061D01*
X0220224Y0066061D01*
X0220991Y0065294D01*
X0220991Y0062992D01*
X0222526Y0062992D02*
X0217922Y0062992D01*
X0220991Y0064527D02*
X0222526Y0066061D01*
X0222526Y0067596D02*
X0221758Y0067596D01*
X0218689Y0070665D01*
X0217922Y0070665D01*
X0217922Y0067596D01*
X0199516Y0068467D02*
X0199516Y0069235D01*
X0198749Y0070002D01*
X0196447Y0070002D01*
X0196447Y0068467D01*
X0197214Y0067700D01*
X0198749Y0067700D01*
X0199516Y0068467D01*
X0196447Y0070002D02*
X0197981Y0071537D01*
X0199516Y0072304D01*
X0194912Y0071537D02*
X0194912Y0070002D01*
X0194145Y0069235D01*
X0191843Y0069235D01*
X0193377Y0069235D02*
X0194912Y0067700D01*
X0191843Y0067700D02*
X0191843Y0072304D01*
X0194145Y0072304D01*
X0194912Y0071537D01*
X0218422Y0080009D02*
X0219189Y0079242D01*
X0222258Y0079242D01*
X0223026Y0080009D01*
X0223026Y0081544D01*
X0222258Y0082311D01*
X0222258Y0083846D02*
X0223026Y0084613D01*
X0223026Y0086148D01*
X0222258Y0086915D01*
X0221491Y0086915D01*
X0220724Y0086148D01*
X0220724Y0085381D01*
X0220724Y0086148D02*
X0219956Y0086915D01*
X0219189Y0086915D01*
X0218422Y0086148D01*
X0218422Y0084613D01*
X0219189Y0083846D01*
X0219189Y0082311D02*
X0218422Y0081544D01*
X0218422Y0080009D01*
X0200332Y0097200D02*
X0200332Y0101804D01*
X0198030Y0099502D01*
X0201099Y0099502D01*
X0196495Y0099502D02*
X0196495Y0101037D01*
X0195728Y0101804D01*
X0193426Y0101804D01*
X0193426Y0097200D01*
X0193426Y0098735D02*
X0195728Y0098735D01*
X0196495Y0099502D01*
X0194960Y0098735D02*
X0196495Y0097200D01*
X0218422Y0099384D02*
X0219189Y0098617D01*
X0222258Y0098617D01*
X0223026Y0099384D01*
X0223026Y0100919D01*
X0222258Y0101686D01*
X0223026Y0103221D02*
X0219956Y0106290D01*
X0219189Y0106290D01*
X0218422Y0105523D01*
X0218422Y0103988D01*
X0219189Y0103221D01*
X0219189Y0101686D02*
X0218422Y0100919D01*
X0218422Y0099384D01*
X0223026Y0103221D02*
X0223026Y0106290D01*
X0199224Y0111575D02*
X0196155Y0111575D01*
X0199224Y0114644D01*
X0199224Y0115412D01*
X0198457Y0116179D01*
X0196922Y0116179D01*
X0196155Y0115412D01*
X0194620Y0115412D02*
X0194620Y0113877D01*
X0193853Y0113110D01*
X0191551Y0113110D01*
X0193085Y0113110D02*
X0194620Y0111575D01*
X0191551Y0111575D02*
X0191551Y0116179D01*
X0193853Y0116179D01*
X0194620Y0115412D01*
X0194478Y0120200D02*
X0195245Y0120967D01*
X0194478Y0120200D02*
X0192943Y0120200D01*
X0192176Y0120967D01*
X0192176Y0124037D01*
X0192943Y0124804D01*
X0194478Y0124804D01*
X0195245Y0124037D01*
X0196780Y0123269D02*
X0198314Y0124804D01*
X0198314Y0120200D01*
X0196780Y0120200D02*
X0199849Y0120200D01*
X0170141Y0126592D02*
X0169374Y0125825D01*
X0167839Y0125825D01*
X0167072Y0126592D01*
X0167072Y0128127D02*
X0168606Y0128894D01*
X0169374Y0128894D01*
X0170141Y0128127D01*
X0170141Y0126592D01*
X0167072Y0128127D02*
X0167072Y0130429D01*
X0170141Y0130429D01*
X0165537Y0129662D02*
X0165537Y0128894D01*
X0162468Y0125825D01*
X0165537Y0125825D01*
X0160933Y0125825D02*
X0159399Y0127360D01*
X0160166Y0127360D02*
X0157864Y0127360D01*
X0157864Y0125825D02*
X0157864Y0130429D01*
X0160166Y0130429D01*
X0160933Y0129662D01*
X0160933Y0128127D01*
X0160166Y0127360D01*
X0162468Y0129662D02*
X0163235Y0130429D01*
X0164770Y0130429D01*
X0165537Y0129662D01*
X0157785Y0134136D02*
X0154716Y0131067D01*
X0154716Y0130299D01*
X0153182Y0131067D02*
X0153182Y0131834D01*
X0152414Y0132601D01*
X0150880Y0132601D01*
X0150112Y0133369D01*
X0150112Y0134136D01*
X0150880Y0134903D01*
X0152414Y0134903D01*
X0153182Y0134136D01*
X0151901Y0133561D02*
X0151901Y0130492D01*
X0148831Y0133561D01*
X0148064Y0133561D01*
X0147297Y0132794D01*
X0147297Y0131259D01*
X0148064Y0130492D01*
X0147810Y0130299D02*
X0148578Y0131067D01*
X0148578Y0134903D01*
X0148064Y0135096D02*
X0147297Y0135863D01*
X0147297Y0137398D01*
X0148064Y0138165D01*
X0148831Y0138165D01*
X0149599Y0137398D01*
X0150366Y0138165D01*
X0151133Y0138165D01*
X0151901Y0137398D01*
X0151901Y0135863D01*
X0151133Y0135096D01*
X0151647Y0135671D02*
X0151647Y0129532D01*
X0151901Y0128957D02*
X0150366Y0127423D01*
X0150366Y0128190D02*
X0150366Y0125888D01*
X0151901Y0125888D02*
X0147297Y0125888D01*
X0147297Y0128190D01*
X0148064Y0128957D01*
X0149599Y0128957D01*
X0150366Y0128190D01*
X0150880Y0130299D02*
X0150112Y0131067D01*
X0150880Y0130299D02*
X0152414Y0130299D01*
X0153182Y0131067D01*
X0147810Y0130299D02*
X0146276Y0130299D01*
X0145508Y0131067D01*
X0145508Y0134903D01*
X0149599Y0136631D02*
X0149599Y0137398D01*
X0150926Y0137825D02*
X0150926Y0142429D01*
X0153228Y0142429D01*
X0153995Y0141662D01*
X0153995Y0140127D01*
X0153228Y0139360D01*
X0150926Y0139360D01*
X0152460Y0139360D02*
X0153995Y0137825D01*
X0155530Y0137825D02*
X0158599Y0140894D01*
X0158599Y0141662D01*
X0157832Y0142429D01*
X0156297Y0142429D01*
X0155530Y0141662D01*
X0160134Y0140894D02*
X0161668Y0142429D01*
X0161668Y0137825D01*
X0160134Y0137825D02*
X0163203Y0137825D01*
X0158599Y0137825D02*
X0155530Y0137825D01*
X0154716Y0134903D02*
X0157785Y0134903D01*
X0157785Y0134136D01*
X0148124Y0143950D02*
X0148124Y0148554D01*
X0145822Y0146252D01*
X0148891Y0146252D01*
X0150926Y0147200D02*
X0150926Y0151804D01*
X0153228Y0151804D01*
X0153995Y0151037D01*
X0153995Y0149502D01*
X0153228Y0148735D01*
X0150926Y0148735D01*
X0152460Y0148735D02*
X0153995Y0147200D01*
X0155530Y0147200D02*
X0158599Y0150269D01*
X0158599Y0151037D01*
X0157832Y0151804D01*
X0156297Y0151804D01*
X0155530Y0151037D01*
X0160134Y0151037D02*
X0160901Y0151804D01*
X0162435Y0151804D01*
X0163203Y0151037D01*
X0163203Y0150269D01*
X0160134Y0147200D01*
X0163203Y0147200D01*
X0158599Y0147200D02*
X0155530Y0147200D01*
X0144287Y0147019D02*
X0144287Y0147787D01*
X0143520Y0148554D01*
X0141985Y0148554D01*
X0141218Y0147787D01*
X0139683Y0147787D02*
X0139683Y0146252D01*
X0138916Y0145485D01*
X0136614Y0145485D01*
X0138149Y0145485D02*
X0139683Y0143950D01*
X0141218Y0143950D02*
X0144287Y0147019D01*
X0139683Y0147787D02*
X0138916Y0148554D01*
X0136614Y0148554D01*
X0136614Y0143950D01*
X0134624Y0141242D02*
X0133089Y0141242D01*
X0132322Y0140475D01*
X0132322Y0139707D01*
X0133089Y0138940D01*
X0135391Y0138940D01*
X0135391Y0137405D02*
X0135391Y0140475D01*
X0134624Y0141242D01*
X0130787Y0140475D02*
X0130020Y0141242D01*
X0128485Y0141242D01*
X0127718Y0140475D01*
X0127718Y0137405D01*
X0128485Y0136638D01*
X0130020Y0136638D01*
X0130787Y0137405D01*
X0132322Y0137405D02*
X0133089Y0136638D01*
X0134624Y0136638D01*
X0135391Y0137405D01*
X0141218Y0143950D02*
X0144287Y0143950D01*
X0123026Y0134835D02*
X0123026Y0133300D01*
X0122258Y0132533D01*
X0120724Y0132533D02*
X0119956Y0134067D01*
X0119956Y0134835D01*
X0120724Y0135602D01*
X0122258Y0135602D01*
X0123026Y0134835D01*
X0120724Y0132533D02*
X0118422Y0132533D01*
X0118422Y0135602D01*
X0114276Y0134835D02*
X0109672Y0134835D01*
X0111974Y0132533D01*
X0111974Y0135602D01*
X0114276Y0130998D02*
X0114276Y0127929D01*
X0114276Y0129464D02*
X0109672Y0129464D01*
X0111206Y0127929D01*
X0110439Y0126394D02*
X0111974Y0126394D01*
X0112741Y0125627D01*
X0112741Y0123325D01*
X0112741Y0124860D02*
X0114276Y0126394D01*
X0110439Y0126394D02*
X0109672Y0125627D01*
X0109672Y0123325D01*
X0114276Y0123325D01*
X0118422Y0123325D02*
X0118422Y0125627D01*
X0119189Y0126394D01*
X0120724Y0126394D01*
X0121491Y0125627D01*
X0121491Y0123325D01*
X0121491Y0124860D02*
X0123026Y0126394D01*
X0123026Y0127929D02*
X0123026Y0130998D01*
X0123026Y0129464D02*
X0118422Y0129464D01*
X0119956Y0127929D01*
X0118422Y0123325D02*
X0123026Y0123325D01*
X0084276Y0123009D02*
X0083508Y0122242D01*
X0084276Y0123009D02*
X0084276Y0124544D01*
X0083508Y0125311D01*
X0082741Y0125311D01*
X0081974Y0124544D01*
X0081974Y0123777D01*
X0081974Y0124544D02*
X0081206Y0125311D01*
X0080439Y0125311D01*
X0079672Y0124544D01*
X0079672Y0123009D01*
X0080439Y0122242D01*
X0080439Y0120707D02*
X0081974Y0120707D01*
X0082741Y0119940D01*
X0082741Y0117638D01*
X0084276Y0117638D02*
X0079672Y0117638D01*
X0079672Y0119940D01*
X0080439Y0120707D01*
X0082741Y0119173D02*
X0084276Y0120707D01*
X0084276Y0126846D02*
X0081206Y0129915D01*
X0080439Y0129915D01*
X0079672Y0129148D01*
X0079672Y0127613D01*
X0080439Y0126846D01*
X0084276Y0126846D02*
X0084276Y0129915D01*
X0065026Y0140967D02*
X0065026Y0142502D01*
X0064258Y0143269D01*
X0065026Y0144804D02*
X0061956Y0147873D01*
X0061189Y0147873D01*
X0060422Y0147106D01*
X0060422Y0145571D01*
X0061189Y0144804D01*
X0061189Y0143269D02*
X0060422Y0142502D01*
X0060422Y0140967D01*
X0061189Y0140200D01*
X0064258Y0140200D01*
X0065026Y0140967D01*
X0065026Y0144804D02*
X0065026Y0147873D01*
X0065026Y0149408D02*
X0064258Y0149408D01*
X0061189Y0152477D01*
X0060422Y0152477D01*
X0060422Y0149408D01*
X0059648Y0151683D02*
X0059648Y0157821D01*
X0058881Y0157054D02*
X0060416Y0157054D01*
X0061183Y0156287D01*
X0060416Y0154752D02*
X0058881Y0154752D01*
X0058114Y0155519D01*
X0058114Y0156287D01*
X0058881Y0157054D01*
X0056579Y0157054D02*
X0056579Y0153217D01*
X0055812Y0152450D01*
X0054277Y0152450D01*
X0053510Y0153217D01*
X0053510Y0157054D01*
X0058114Y0153217D02*
X0058881Y0152450D01*
X0060416Y0152450D01*
X0061183Y0153217D01*
X0061183Y0153985D01*
X0060416Y0154752D01*
X0062718Y0155519D02*
X0064252Y0157054D01*
X0064252Y0152450D01*
X0062718Y0152450D02*
X0065787Y0152450D01*
X0067322Y0152450D02*
X0070391Y0152450D01*
X0068856Y0152450D02*
X0068856Y0157054D01*
X0067322Y0155519D01*
X0060508Y0170825D02*
X0057439Y0170825D01*
X0056672Y0171592D01*
X0056672Y0173127D01*
X0057439Y0173894D01*
X0057439Y0175429D02*
X0056672Y0176196D01*
X0056672Y0177731D01*
X0057439Y0178498D01*
X0058206Y0178498D01*
X0061276Y0175429D01*
X0061276Y0178498D01*
X0060508Y0180033D02*
X0061276Y0180800D01*
X0061276Y0182335D01*
X0060508Y0183102D01*
X0058974Y0183102D01*
X0058206Y0182335D01*
X0058206Y0181567D01*
X0058974Y0180033D01*
X0056672Y0180033D01*
X0056672Y0183102D01*
X0072551Y0189029D02*
X0073318Y0188262D01*
X0074853Y0188262D01*
X0075620Y0189029D01*
X0077155Y0188262D02*
X0080224Y0191331D01*
X0080224Y0192099D01*
X0079457Y0192866D01*
X0077922Y0192866D01*
X0077155Y0192099D01*
X0075620Y0192099D02*
X0074853Y0192866D01*
X0073318Y0192866D01*
X0072551Y0192099D01*
X0072551Y0189029D01*
X0077155Y0188262D02*
X0080224Y0188262D01*
X0081759Y0189029D02*
X0081759Y0190564D01*
X0084060Y0190564D01*
X0084828Y0189797D01*
X0084828Y0189029D01*
X0084060Y0188262D01*
X0082526Y0188262D01*
X0081759Y0189029D01*
X0081759Y0190564D02*
X0083293Y0192099D01*
X0084828Y0192866D01*
X0061276Y0173127D02*
X0060508Y0173894D01*
X0061276Y0173127D02*
X0061276Y0171592D01*
X0060508Y0170825D01*
X0177176Y0150554D02*
X0177176Y0145950D01*
X0177176Y0147485D02*
X0179478Y0147485D01*
X0180245Y0148252D01*
X0180245Y0149787D01*
X0179478Y0150554D01*
X0177176Y0150554D01*
X0178710Y0147485D02*
X0180245Y0145950D01*
X0181780Y0145950D02*
X0184849Y0145950D01*
X0183314Y0145950D02*
X0183314Y0150554D01*
X0181780Y0149019D01*
X0186384Y0149019D02*
X0187151Y0148252D01*
X0189453Y0148252D01*
X0189453Y0149787D02*
X0188685Y0150554D01*
X0187151Y0150554D01*
X0186384Y0149787D01*
X0186384Y0149019D01*
X0189453Y0149787D02*
X0189453Y0146717D01*
X0188685Y0145950D01*
X0187151Y0145950D01*
X0186384Y0146717D01*
X0318029Y0158589D02*
X0324168Y0158589D01*
X0323401Y0159356D02*
X0322633Y0160123D01*
X0321866Y0160123D01*
X0321099Y0159356D01*
X0321099Y0157821D01*
X0320331Y0157054D01*
X0319564Y0157054D01*
X0318797Y0157821D01*
X0318797Y0159356D01*
X0319564Y0160123D01*
X0320331Y0161658D02*
X0318797Y0163192D01*
X0323401Y0163192D01*
X0323401Y0161658D02*
X0323401Y0164727D01*
X0323401Y0159356D02*
X0323401Y0157821D01*
X0322633Y0157054D01*
X0322633Y0155519D02*
X0318797Y0155519D01*
X0322633Y0155519D02*
X0323401Y0154752D01*
X0323401Y0153217D01*
X0322633Y0152450D01*
X0318797Y0152450D01*
X0321099Y0101602D02*
X0321099Y0098533D01*
X0318797Y0100835D01*
X0323401Y0100835D01*
X0322633Y0096998D02*
X0321866Y0096998D01*
X0321099Y0096231D01*
X0321099Y0094696D01*
X0320331Y0093929D01*
X0319564Y0093929D01*
X0318797Y0094696D01*
X0318797Y0096231D01*
X0319564Y0096998D01*
X0318029Y0095464D02*
X0324168Y0095464D01*
X0323401Y0096231D02*
X0322633Y0096998D01*
X0323401Y0096231D02*
X0323401Y0094696D01*
X0322633Y0093929D01*
X0322633Y0092394D02*
X0318797Y0092394D01*
X0322633Y0092394D02*
X0323401Y0091627D01*
X0323401Y0090092D01*
X0322633Y0089325D01*
X0318797Y0089325D01*
X0318797Y0035977D02*
X0318797Y0032908D01*
X0321099Y0032908D01*
X0320331Y0034442D01*
X0320331Y0035210D01*
X0321099Y0035977D01*
X0322633Y0035977D01*
X0323401Y0035210D01*
X0323401Y0033675D01*
X0322633Y0032908D01*
X0322633Y0031373D02*
X0321866Y0031373D01*
X0321099Y0030606D01*
X0321099Y0029071D01*
X0320331Y0028304D01*
X0319564Y0028304D01*
X0318797Y0029071D01*
X0318797Y0030606D01*
X0319564Y0031373D01*
X0318029Y0029839D02*
X0324168Y0029839D01*
X0323401Y0030606D02*
X0323401Y0029071D01*
X0322633Y0028304D01*
X0322633Y0026769D02*
X0318797Y0026769D01*
X0318797Y0023700D02*
X0322633Y0023700D01*
X0323401Y0024467D01*
X0323401Y0026002D01*
X0322633Y0026769D01*
X0323401Y0030606D02*
X0322633Y0031373D01*
X0212526Y0042138D02*
X0207922Y0042138D01*
X0207922Y0044440D01*
X0208689Y0045207D01*
X0210224Y0045207D01*
X0210991Y0044440D01*
X0210991Y0042138D01*
X0210991Y0043673D02*
X0212526Y0045207D01*
X0212526Y0046742D02*
X0212526Y0049811D01*
X0209456Y0046742D02*
X0207922Y0048277D01*
X0083776Y0061325D02*
X0079172Y0061325D01*
X0079172Y0063627D01*
X0079939Y0064394D01*
X0081474Y0064394D01*
X0082241Y0063627D01*
X0082241Y0061325D01*
X0082241Y0062860D02*
X0083776Y0064394D01*
X0083776Y0065929D02*
X0080706Y0068998D01*
X0079939Y0068998D01*
X0079172Y0068231D01*
X0079172Y0066696D01*
X0079939Y0065929D01*
X0083776Y0065929D02*
X0083776Y0068998D01*
X0083008Y0070533D02*
X0083776Y0071300D01*
X0083776Y0072835D01*
X0083008Y0073602D01*
X0079939Y0073602D01*
X0079172Y0072835D01*
X0079172Y0071300D01*
X0079939Y0070533D01*
X0080706Y0070533D01*
X0081474Y0071300D01*
X0081474Y0073602D01*
X0072526Y0072352D02*
X0072526Y0069283D01*
X0072526Y0070817D02*
X0067922Y0070817D01*
X0069456Y0069283D01*
X0069456Y0067748D02*
X0068689Y0067748D01*
X0067922Y0066981D01*
X0067922Y0065446D01*
X0068689Y0064679D01*
X0068689Y0063144D02*
X0070224Y0063144D01*
X0070991Y0062377D01*
X0070991Y0060075D01*
X0070991Y0061610D02*
X0072526Y0063144D01*
X0071758Y0064679D02*
X0072526Y0065446D01*
X0072526Y0066981D01*
X0071758Y0067748D01*
X0070991Y0067748D01*
X0070224Y0066981D01*
X0070224Y0066214D01*
X0070224Y0066981D02*
X0069456Y0067748D01*
X0068689Y0063144D02*
X0067922Y0062377D01*
X0067922Y0060075D01*
X0072526Y0060075D01*
D12*
X0067275Y0085755D02*
X0067526Y0086005D01*
X0067526Y0086506D01*
X0067275Y0086756D01*
X0067275Y0087228D02*
X0067526Y0087479D01*
X0067526Y0087979D01*
X0067275Y0088229D01*
X0067025Y0088229D01*
X0066775Y0087979D01*
X0066775Y0087729D01*
X0066775Y0087979D02*
X0066525Y0088229D01*
X0066275Y0088229D01*
X0066024Y0087979D01*
X0066024Y0087479D01*
X0066275Y0087228D01*
X0066275Y0086756D02*
X0066024Y0086506D01*
X0066024Y0086005D01*
X0066275Y0085755D01*
X0067275Y0085755D01*
X0067275Y0088702D02*
X0067526Y0088702D01*
X0067275Y0088702D02*
X0066275Y0089703D01*
X0066024Y0089703D01*
X0066024Y0088702D01*
X0195049Y0128175D02*
X0195300Y0127925D01*
X0196300Y0127925D01*
X0196551Y0128175D01*
X0196551Y0128676D01*
X0196300Y0128926D01*
X0196551Y0129398D02*
X0195550Y0130399D01*
X0195300Y0130399D01*
X0195049Y0130149D01*
X0195049Y0129648D01*
X0195300Y0129398D01*
X0195300Y0128926D02*
X0195049Y0128676D01*
X0195049Y0128175D01*
X0196551Y0129398D02*
X0196551Y0130399D01*
X0196300Y0130872D02*
X0196551Y0131122D01*
X0196551Y0131622D01*
X0196300Y0131872D01*
X0196050Y0131872D01*
X0195800Y0131622D01*
X0195800Y0131372D01*
X0195800Y0131622D02*
X0195550Y0131872D01*
X0195300Y0131872D01*
X0195049Y0131622D01*
X0195049Y0131122D01*
X0195300Y0130872D01*
X0203799Y0131372D02*
X0205301Y0131372D01*
X0205301Y0130872D02*
X0205301Y0131872D01*
X0204300Y0130872D02*
X0203799Y0131372D01*
X0204050Y0130399D02*
X0203799Y0130149D01*
X0203799Y0129648D01*
X0204050Y0129398D01*
X0204050Y0128926D02*
X0203799Y0128676D01*
X0203799Y0128175D01*
X0204050Y0127925D01*
X0205050Y0127925D01*
X0205301Y0128175D01*
X0205301Y0128676D01*
X0205050Y0128926D01*
X0205301Y0129398D02*
X0204300Y0130399D01*
X0204050Y0130399D01*
X0205301Y0130399D02*
X0205301Y0129398D01*
X0212549Y0129648D02*
X0212800Y0129398D01*
X0212549Y0129648D02*
X0212549Y0130149D01*
X0212800Y0130399D01*
X0213050Y0130399D01*
X0214051Y0129398D01*
X0214051Y0130399D01*
X0213800Y0130872D02*
X0212800Y0131872D01*
X0213800Y0131872D01*
X0214051Y0131622D01*
X0214051Y0131122D01*
X0213800Y0130872D01*
X0212800Y0130872D01*
X0212549Y0131122D01*
X0212549Y0131622D01*
X0212800Y0131872D01*
X0212800Y0128926D02*
X0212549Y0128676D01*
X0212549Y0128175D01*
X0212800Y0127925D01*
X0213800Y0127925D01*
X0214051Y0128175D01*
X0214051Y0128676D01*
X0213800Y0128926D01*
X0213800Y0148550D02*
X0214051Y0148800D01*
X0214051Y0149301D01*
X0213800Y0149551D01*
X0214051Y0150023D02*
X0214051Y0151024D01*
X0214051Y0150524D02*
X0212549Y0150524D01*
X0213050Y0150023D01*
X0212800Y0149551D02*
X0212549Y0149301D01*
X0212549Y0148800D01*
X0212800Y0148550D01*
X0213800Y0148550D01*
X0213800Y0151497D02*
X0214051Y0151747D01*
X0214051Y0152247D01*
X0213800Y0152497D01*
X0213550Y0152497D01*
X0213300Y0152247D01*
X0213300Y0151997D01*
X0213300Y0152247D02*
X0213050Y0152497D01*
X0212800Y0152497D01*
X0212549Y0152247D01*
X0212549Y0151747D01*
X0212800Y0151497D01*
X0207151Y0154380D02*
X0207151Y0154881D01*
X0206900Y0155131D01*
X0207151Y0155603D02*
X0207151Y0156604D01*
X0207151Y0156104D02*
X0205649Y0156104D01*
X0206150Y0155603D01*
X0205900Y0155131D02*
X0205649Y0154881D01*
X0205649Y0154380D01*
X0205900Y0154130D01*
X0206900Y0154130D01*
X0207151Y0154380D01*
X0205301Y0152247D02*
X0203799Y0152247D01*
X0204550Y0151497D01*
X0204550Y0152497D01*
X0205301Y0151024D02*
X0205301Y0150023D01*
X0205301Y0150524D02*
X0203799Y0150524D01*
X0204300Y0150023D01*
X0204050Y0149551D02*
X0203799Y0149301D01*
X0203799Y0148800D01*
X0204050Y0148550D01*
X0205050Y0148550D01*
X0205301Y0148800D01*
X0205301Y0149301D01*
X0205050Y0149551D01*
X0205900Y0157077D02*
X0206150Y0157077D01*
X0206400Y0157327D01*
X0206400Y0158078D01*
X0205900Y0158078D02*
X0205649Y0157827D01*
X0205649Y0157327D01*
X0205900Y0157077D01*
X0206900Y0157077D02*
X0207151Y0157327D01*
X0207151Y0157827D01*
X0206900Y0158078D01*
X0205900Y0158078D01*
X0228651Y0148676D02*
X0228651Y0147675D01*
X0228901Y0147425D01*
X0229401Y0147425D01*
X0229652Y0147675D01*
X0230124Y0147425D02*
X0231125Y0147425D01*
X0231597Y0147425D02*
X0232598Y0148426D01*
X0232598Y0148676D01*
X0232348Y0148926D01*
X0231847Y0148926D01*
X0231597Y0148676D01*
X0230624Y0148926D02*
X0230624Y0147425D01*
X0231597Y0147425D02*
X0232598Y0147425D01*
X0230624Y0148926D02*
X0230124Y0148426D01*
X0229652Y0148676D02*
X0229401Y0148926D01*
X0228901Y0148926D01*
X0228651Y0148676D01*
X0179473Y0156800D02*
X0178472Y0156800D01*
X0178000Y0156800D02*
X0176999Y0156800D01*
X0177499Y0156800D02*
X0177499Y0158301D01*
X0176999Y0157801D01*
X0176527Y0158051D02*
X0176276Y0158301D01*
X0175776Y0158301D01*
X0175526Y0158051D01*
X0175526Y0157050D01*
X0175776Y0156800D01*
X0176276Y0156800D01*
X0176527Y0157050D01*
X0178472Y0157801D02*
X0178973Y0158301D01*
X0178973Y0156800D01*
X0155928Y0162950D02*
X0154927Y0162950D01*
X0155928Y0163951D01*
X0155928Y0164201D01*
X0155678Y0164451D01*
X0155178Y0164451D01*
X0154927Y0164201D01*
X0154455Y0164201D02*
X0154205Y0164451D01*
X0153454Y0164451D01*
X0153454Y0162950D01*
X0154205Y0162950D01*
X0154455Y0163200D01*
X0154455Y0164201D01*
X0087051Y0176175D02*
X0087051Y0176676D01*
X0086800Y0176926D01*
X0085549Y0176926D01*
X0085800Y0177398D02*
X0085549Y0177648D01*
X0085549Y0178149D01*
X0085800Y0178399D01*
X0086050Y0178872D02*
X0085549Y0179372D01*
X0087051Y0179372D01*
X0087051Y0178872D02*
X0087051Y0179872D01*
X0086800Y0180345D02*
X0085800Y0181346D01*
X0086800Y0181346D01*
X0087051Y0181095D01*
X0087051Y0180595D01*
X0086800Y0180345D01*
X0085800Y0180345D01*
X0085549Y0180595D01*
X0085549Y0181095D01*
X0085800Y0181346D01*
X0086550Y0178399D02*
X0086300Y0178149D01*
X0086300Y0177648D01*
X0086050Y0177398D01*
X0085800Y0177398D01*
X0085299Y0177899D02*
X0087301Y0177899D01*
X0087051Y0178149D02*
X0086800Y0178399D01*
X0086550Y0178399D01*
X0087051Y0178149D02*
X0087051Y0177648D01*
X0086800Y0177398D01*
X0087051Y0176175D02*
X0086800Y0175925D01*
X0085549Y0175925D01*
D13*
X0083453Y0175188D02*
X0083453Y0168495D01*
X0082272Y0166920D01*
X0072626Y0166920D01*
X0071248Y0168495D01*
X0071248Y0175188D01*
X0071051Y0182668D02*
X0071051Y0191330D01*
X0083453Y0191330D01*
X0083453Y0182668D01*
X0098351Y0192025D02*
X0098351Y0166225D01*
X0111351Y0166225D01*
X0111351Y0192025D01*
X0098351Y0192025D01*
X0138296Y0176709D02*
X0138296Y0174937D01*
X0138296Y0176709D02*
X0156406Y0176709D01*
X0156406Y0174937D01*
X0143414Y0174937D02*
X0143414Y0167063D01*
X0138296Y0167063D02*
X0138296Y0165291D01*
X0156406Y0165291D01*
X0156406Y0167063D01*
X0137828Y0161005D02*
X0136450Y0162580D01*
X0126804Y0162580D01*
X0125623Y0161005D01*
X0125623Y0154312D01*
X0137828Y0154312D02*
X0137828Y0161005D01*
X0138025Y0146832D02*
X0138025Y0138170D01*
X0125623Y0138170D01*
X0125623Y0146832D01*
D14*
X0126564Y0152773D02*
X0136789Y0152773D01*
X0082512Y0176727D02*
X0072288Y0176727D01*
D15*
X0081726Y0164125D02*
X0079226Y0161625D01*
X0079226Y0156625D01*
X0081726Y0154125D01*
X0079226Y0151625D01*
X0079226Y0146625D01*
X0081726Y0144125D01*
X0079226Y0141625D01*
X0079226Y0136625D01*
X0081726Y0134125D01*
X0086726Y0134125D01*
X0089226Y0136625D01*
X0089226Y0141625D01*
X0086726Y0144125D01*
X0081726Y0144125D01*
X0086726Y0144125D02*
X0089226Y0146625D01*
X0089226Y0151625D01*
X0086726Y0154125D01*
X0081726Y0154125D01*
X0086726Y0154125D02*
X0089226Y0156625D01*
X0089226Y0161625D01*
X0086726Y0164125D01*
X0081726Y0164125D01*
X0094851Y0161625D02*
X0094851Y0156625D01*
X0097351Y0154125D01*
X0094851Y0151625D01*
X0094851Y0146625D01*
X0097351Y0144125D01*
X0094851Y0141625D01*
X0094851Y0136625D01*
X0097351Y0134125D01*
X0102351Y0134125D01*
X0104851Y0136625D01*
X0104851Y0141625D01*
X0102351Y0144125D01*
X0097351Y0144125D01*
X0102351Y0144125D02*
X0104851Y0146625D01*
X0104851Y0151625D01*
X0102351Y0154125D01*
X0097351Y0154125D01*
X0102351Y0154125D02*
X0104851Y0156625D01*
X0104851Y0161625D01*
X0102351Y0164125D01*
X0097351Y0164125D01*
X0094851Y0161625D01*
X0111726Y0161625D02*
X0111726Y0156625D01*
X0114226Y0154125D01*
X0111726Y0151625D01*
X0111726Y0146625D01*
X0114226Y0144125D01*
X0111726Y0141625D01*
X0111726Y0136625D01*
X0114226Y0134125D01*
X0119226Y0134125D01*
X0121726Y0136625D01*
X0121726Y0141625D01*
X0119226Y0144125D01*
X0114226Y0144125D01*
X0119226Y0144125D02*
X0121726Y0146625D01*
X0121726Y0151625D01*
X0119226Y0154125D01*
X0114226Y0154125D01*
X0119226Y0154125D02*
X0121726Y0156625D01*
X0121726Y0161625D01*
X0119226Y0164125D01*
X0114226Y0164125D01*
X0111726Y0161625D01*
X0068601Y0077250D02*
X0058601Y0077250D01*
X0058601Y0068250D01*
X0059601Y0067250D01*
X0058601Y0066250D01*
X0058601Y0058250D01*
X0059601Y0057250D01*
X0058601Y0056250D01*
X0058601Y0048250D01*
X0059601Y0047250D01*
X0058601Y0046250D01*
X0058601Y0038250D01*
X0059601Y0037250D01*
X0058601Y0036250D01*
X0058601Y0028250D01*
X0059601Y0027250D01*
X0058601Y0026250D01*
X0058601Y0017250D01*
X0068601Y0017250D01*
X0068601Y0026250D01*
X0067601Y0027250D01*
X0068601Y0028250D01*
X0068601Y0036250D01*
X0067601Y0037250D01*
X0068601Y0038250D01*
X0068601Y0046250D01*
X0067601Y0047250D01*
X0068601Y0048250D01*
X0068601Y0056250D01*
X0067601Y0057250D01*
X0068601Y0058250D01*
X0068601Y0066250D01*
X0067601Y0067250D01*
X0068601Y0068250D01*
X0068601Y0077250D01*
D16*
X0057351Y0072752D02*
X0057351Y0071251D01*
X0056600Y0070500D01*
X0055099Y0070500D01*
X0055099Y0072752D01*
X0055849Y0073503D01*
X0056600Y0073503D01*
X0057351Y0072752D01*
X0055099Y0070500D02*
X0053597Y0072001D01*
X0052847Y0073503D01*
X0056851Y0044710D02*
X0056851Y0041708D01*
X0056851Y0043209D02*
X0052347Y0043209D01*
X0053848Y0041708D01*
X0055349Y0040106D02*
X0052347Y0040106D01*
X0055349Y0040106D02*
X0056851Y0038605D01*
X0055349Y0037104D01*
X0052347Y0037104D01*
X0053097Y0035503D02*
X0052347Y0034752D01*
X0052347Y0033251D01*
X0053097Y0032500D01*
X0053848Y0032500D01*
X0054599Y0033251D01*
X0054599Y0034752D01*
X0055349Y0035503D01*
X0056100Y0035503D01*
X0056851Y0034752D01*
X0056851Y0033251D01*
X0056100Y0032500D01*
X0057351Y0023503D02*
X0057351Y0020500D01*
X0057351Y0022001D02*
X0052847Y0022001D01*
X0054348Y0020500D01*
X0248601Y0003500D02*
X0358601Y0003500D01*
X0358601Y0063500D01*
X0248601Y0063500D01*
X0248601Y0003500D01*
X0248601Y0069125D02*
X0358601Y0069125D01*
X0358601Y0129125D01*
X0248601Y0129125D01*
X0248601Y0069125D01*
X0248601Y0132250D02*
X0358601Y0132250D01*
X0358601Y0192250D01*
X0248601Y0192250D01*
X0248601Y0132250D01*
X0128676Y0151614D02*
X0127925Y0150863D01*
X0128676Y0151614D02*
X0128676Y0152364D01*
X0127925Y0153115D01*
X0124172Y0153115D01*
X0124172Y0152364D02*
X0124172Y0153866D01*
X0124172Y0155467D02*
X0124172Y0157719D01*
X0124922Y0158470D01*
X0126424Y0158470D01*
X0127174Y0157719D01*
X0127174Y0155467D01*
X0128676Y0155467D02*
X0124172Y0155467D01*
X0124922Y0160071D02*
X0124172Y0160822D01*
X0124172Y0162323D01*
X0124922Y0163074D01*
X0125673Y0163074D01*
X0128676Y0160071D01*
X0128676Y0163074D01*
X0111801Y0162323D02*
X0111801Y0160822D01*
X0111050Y0160071D01*
X0109549Y0161572D02*
X0109549Y0162323D01*
X0110299Y0163074D01*
X0111050Y0163074D01*
X0111801Y0162323D01*
X0109549Y0162323D02*
X0108798Y0163074D01*
X0108047Y0163074D01*
X0107297Y0162323D01*
X0107297Y0160822D01*
X0108047Y0160071D01*
X0108047Y0158470D02*
X0107297Y0157719D01*
X0107297Y0155467D01*
X0111801Y0155467D01*
X0110299Y0155467D02*
X0110299Y0157719D01*
X0109549Y0158470D01*
X0108047Y0158470D01*
X0107297Y0153866D02*
X0107297Y0152364D01*
X0107297Y0153115D02*
X0111050Y0153115D01*
X0111801Y0152364D01*
X0111801Y0151614D01*
X0111050Y0150863D01*
X0096176Y0151614D02*
X0095425Y0150863D01*
X0096176Y0151614D02*
X0096176Y0152364D01*
X0095425Y0153115D01*
X0091672Y0153115D01*
X0091672Y0152364D02*
X0091672Y0153866D01*
X0091672Y0155467D02*
X0091672Y0157719D01*
X0092422Y0158470D01*
X0093924Y0158470D01*
X0094674Y0157719D01*
X0094674Y0155467D01*
X0096176Y0155467D02*
X0091672Y0155467D01*
X0093924Y0160071D02*
X0093924Y0163074D01*
X0096176Y0162323D02*
X0091672Y0162323D01*
X0093924Y0160071D01*
D17*
X0110096Y0067244D03*
X0115896Y0067244D03*
X0102146Y0050994D03*
X0096346Y0050994D03*
X0096346Y0042244D03*
X0102146Y0042244D03*
D18*
X0100470Y0060580D03*
X0100470Y0066380D03*
X0087970Y0067005D03*
X0087970Y0061205D03*
X0076720Y0059955D03*
X0076720Y0065755D03*
D19*
X0097670Y0099648D02*
X0100089Y0099648D01*
X0100573Y0100132D01*
X0100573Y0101099D01*
X0100089Y0101583D01*
X0097670Y0101583D01*
X0098154Y0102595D02*
X0097670Y0103078D01*
X0097670Y0104046D01*
X0098154Y0104530D01*
X0098154Y0105541D02*
X0098638Y0105541D01*
X0099122Y0106025D01*
X0099122Y0106992D01*
X0099605Y0107476D01*
X0100089Y0107476D01*
X0100573Y0106992D01*
X0100573Y0106025D01*
X0100089Y0105541D01*
X0099605Y0105541D01*
X0099122Y0106025D01*
X0099122Y0106992D02*
X0098638Y0107476D01*
X0098154Y0107476D01*
X0097670Y0106992D01*
X0097670Y0106025D01*
X0098154Y0105541D01*
X0099605Y0104530D02*
X0099122Y0104046D01*
X0099122Y0103078D01*
X0098638Y0102595D01*
X0098154Y0102595D01*
X0097187Y0103562D02*
X0101057Y0103562D01*
X0100573Y0103078D02*
X0100573Y0104046D01*
X0100089Y0104530D01*
X0099605Y0104530D01*
X0100573Y0103078D02*
X0100089Y0102595D01*
D20*
X0063096Y0086625D02*
X0062856Y0086625D01*
M02*
