G75*
%MOIN*%
%OFA0B0*%
%FSLAX25Y25*%
%IPPOS*%
%LPD*%
%AMOC8*
5,1,8,0,0,1.08239X$1,22.5*
%
%ADD10C,0.00000*%
D10*
X0047976Y0001000D02*
X0047976Y0195000D01*
X0384226Y0195000D01*
X0384226Y0001000D01*
X0047976Y0001000D01*
X0152789Y0100375D02*
X0152791Y0100500D01*
X0152797Y0100625D01*
X0152807Y0100749D01*
X0152821Y0100873D01*
X0152838Y0100997D01*
X0152860Y0101120D01*
X0152886Y0101242D01*
X0152915Y0101364D01*
X0152948Y0101484D01*
X0152986Y0101603D01*
X0153026Y0101722D01*
X0153071Y0101838D01*
X0153119Y0101953D01*
X0153171Y0102067D01*
X0153227Y0102179D01*
X0153286Y0102289D01*
X0153348Y0102397D01*
X0153414Y0102504D01*
X0153483Y0102608D01*
X0153556Y0102709D01*
X0153631Y0102809D01*
X0153710Y0102906D01*
X0153792Y0103000D01*
X0153877Y0103092D01*
X0153964Y0103181D01*
X0154055Y0103267D01*
X0154148Y0103350D01*
X0154244Y0103431D01*
X0154342Y0103508D01*
X0154442Y0103582D01*
X0154545Y0103653D01*
X0154650Y0103720D01*
X0154758Y0103785D01*
X0154867Y0103845D01*
X0154978Y0103903D01*
X0155091Y0103956D01*
X0155205Y0104006D01*
X0155321Y0104053D01*
X0155438Y0104095D01*
X0155557Y0104134D01*
X0155677Y0104170D01*
X0155798Y0104201D01*
X0155920Y0104229D01*
X0156042Y0104252D01*
X0156166Y0104272D01*
X0156290Y0104288D01*
X0156414Y0104300D01*
X0156539Y0104308D01*
X0156664Y0104312D01*
X0156788Y0104312D01*
X0156913Y0104308D01*
X0157038Y0104300D01*
X0157162Y0104288D01*
X0157286Y0104272D01*
X0157410Y0104252D01*
X0157532Y0104229D01*
X0157654Y0104201D01*
X0157775Y0104170D01*
X0157895Y0104134D01*
X0158014Y0104095D01*
X0158131Y0104053D01*
X0158247Y0104006D01*
X0158361Y0103956D01*
X0158474Y0103903D01*
X0158585Y0103845D01*
X0158695Y0103785D01*
X0158802Y0103720D01*
X0158907Y0103653D01*
X0159010Y0103582D01*
X0159110Y0103508D01*
X0159208Y0103431D01*
X0159304Y0103350D01*
X0159397Y0103267D01*
X0159488Y0103181D01*
X0159575Y0103092D01*
X0159660Y0103000D01*
X0159742Y0102906D01*
X0159821Y0102809D01*
X0159896Y0102709D01*
X0159969Y0102608D01*
X0160038Y0102504D01*
X0160104Y0102397D01*
X0160166Y0102289D01*
X0160225Y0102179D01*
X0160281Y0102067D01*
X0160333Y0101953D01*
X0160381Y0101838D01*
X0160426Y0101722D01*
X0160466Y0101603D01*
X0160504Y0101484D01*
X0160537Y0101364D01*
X0160566Y0101242D01*
X0160592Y0101120D01*
X0160614Y0100997D01*
X0160631Y0100873D01*
X0160645Y0100749D01*
X0160655Y0100625D01*
X0160661Y0100500D01*
X0160663Y0100375D01*
X0160661Y0100250D01*
X0160655Y0100125D01*
X0160645Y0100001D01*
X0160631Y0099877D01*
X0160614Y0099753D01*
X0160592Y0099630D01*
X0160566Y0099508D01*
X0160537Y0099386D01*
X0160504Y0099266D01*
X0160466Y0099147D01*
X0160426Y0099028D01*
X0160381Y0098912D01*
X0160333Y0098797D01*
X0160281Y0098683D01*
X0160225Y0098571D01*
X0160166Y0098461D01*
X0160104Y0098353D01*
X0160038Y0098246D01*
X0159969Y0098142D01*
X0159896Y0098041D01*
X0159821Y0097941D01*
X0159742Y0097844D01*
X0159660Y0097750D01*
X0159575Y0097658D01*
X0159488Y0097569D01*
X0159397Y0097483D01*
X0159304Y0097400D01*
X0159208Y0097319D01*
X0159110Y0097242D01*
X0159010Y0097168D01*
X0158907Y0097097D01*
X0158802Y0097030D01*
X0158694Y0096965D01*
X0158585Y0096905D01*
X0158474Y0096847D01*
X0158361Y0096794D01*
X0158247Y0096744D01*
X0158131Y0096697D01*
X0158014Y0096655D01*
X0157895Y0096616D01*
X0157775Y0096580D01*
X0157654Y0096549D01*
X0157532Y0096521D01*
X0157410Y0096498D01*
X0157286Y0096478D01*
X0157162Y0096462D01*
X0157038Y0096450D01*
X0156913Y0096442D01*
X0156788Y0096438D01*
X0156664Y0096438D01*
X0156539Y0096442D01*
X0156414Y0096450D01*
X0156290Y0096462D01*
X0156166Y0096478D01*
X0156042Y0096498D01*
X0155920Y0096521D01*
X0155798Y0096549D01*
X0155677Y0096580D01*
X0155557Y0096616D01*
X0155438Y0096655D01*
X0155321Y0096697D01*
X0155205Y0096744D01*
X0155091Y0096794D01*
X0154978Y0096847D01*
X0154867Y0096905D01*
X0154757Y0096965D01*
X0154650Y0097030D01*
X0154545Y0097097D01*
X0154442Y0097168D01*
X0154342Y0097242D01*
X0154244Y0097319D01*
X0154148Y0097400D01*
X0154055Y0097483D01*
X0153964Y0097569D01*
X0153877Y0097658D01*
X0153792Y0097750D01*
X0153710Y0097844D01*
X0153631Y0097941D01*
X0153556Y0098041D01*
X0153483Y0098142D01*
X0153414Y0098246D01*
X0153348Y0098353D01*
X0153286Y0098461D01*
X0153227Y0098571D01*
X0153171Y0098683D01*
X0153119Y0098797D01*
X0153071Y0098912D01*
X0153026Y0099028D01*
X0152986Y0099147D01*
X0152948Y0099266D01*
X0152915Y0099386D01*
X0152886Y0099508D01*
X0152860Y0099630D01*
X0152838Y0099753D01*
X0152821Y0099877D01*
X0152807Y0100001D01*
X0152797Y0100125D01*
X0152791Y0100250D01*
X0152789Y0100375D01*
M02*
